<?xml version="1.0" encoding="utf-8"?>
<svg
  width="128"
  height="128"
  viewBox="0 0 128 128"
  xmlns="http://www.w3.org/2000/svg"
>
  <path
    d="M 106.1,31.69061 67.7,16.68914 c -2.362395,-0.918855 -5.017605,-0.918855 -7.38,0 l -38.4,15.00147 c -3.58,1.38763 -5.92,4.6692 -5.92,8.30706 0,37.22238 22.9,62.94989 44.3,71.3132 2.36,0.91884 5.02,0.91884 7.38,0 17.14,-6.6944 44.32,-29.8154 44.32,-71.3132 0,-3.63786 -2.34,-6.91943 -5.9,-8.30706 z M 92.426668,54.163533 61.447501,82.84606 c -1.24,1.16261 -3.28,1.16261 -4.52,0 l -19.2125,-17.9144 c -1.243193,-1.159196 -1.239998,-3.075297 0,-4.23791 l 4.52,-4.23792 c 1.24,-1.16261 3.28,-1.16261 4.52,0 l 12.4325,11.55753 24.199167,-22.325657 c 1.249315,-1.152593 3.28,-1.16261 4.52,0 l 4.52,4.23791 c 1.26,1.18137 1.26,3.0753 0,4.23792 z"
    fill="#FFF"
    fillRule="evenodd"
  />
</svg>
