<?xml version="1.0" encoding="utf-8"?>
<svg
  width="128"
  height="128"
  viewBox="0 0 128 128"
  xmlns="http://www.w3.org/2000/svg"
>
  <path
    d="M 112,64 C 112,90.51555 90.507808,112 64.000001,112 37.492192,112 16,90.51555 16,64 16,37.499934 37.492192,15.999998 64.000001,15.999998 90.507808,15.999998 112,37.499934 112,64 Z M 64.000001,75.614875 c -6.061776,0 -10.975854,4.914081 -10.975854,10.975845 0,6.061777 4.914078,10.975858 10.975854,10.975858 6.061772,0 10.975851,-4.914081 10.975851,-10.975858 0,-6.061764 -4.914079,-10.975845 -10.975851,-10.975845 z M 53.579384,36.162414 55.349356,66.496093 c 0.08279,1.518483 1.338342,2.707218 2.858972,2.707218 h 11.583344 c 1.520628,0 2.776177,-1.188735 2.858969,-2.707218 l 1.769973,-30.333679 c 0.08948,-1.640177 -1.216406,-3.019316 -2.858963,-3.019316 H 56.438115 c -1.642557,0 -2.948209,1.379139 -2.858731,3.019316 z"
    fill="#FFF"
    fillRule="evenodd"
  />
</svg>
