<?xml version="1.0" encoding="utf-8"?>
<!-- Generator: Adobe Illustrator 19.2.1, SVG Export Plug-In . SVG Version: 6.00 Build 0)  -->
<svg version="1.1" id="Calque_1" xmlns="http://www.w3.org/2000/svg" xmlns:xlink="http://www.w3.org/1999/xlink" x="0px" y="0px"
	 viewBox="0 0 24 24" style="enable-background:new 0 0 24 24;" xml:space="preserve">
<style type="text/css">
	.st0{fill:#FFFFFF;stroke:#666666;stroke-miterlimit:10;}
</style>
<path class="st0" d="M16.6,16.5H3.5l0-0.7c0-1.4,0.1-2.2,1.7-2.5c1.8-0.4,3.6-0.8,2.8-2.4c-2.6-4.8-0.7-7.5,2-7.5
	c2.7,0,4.6,2.6,2,7.5c-0.8,1.6,0.9,2,2.8,2.4C16.8,13.7,16.6,14.7,16.6,16.5z"/>
<g>
	<path class="st0" d="M14.6,11.1l0.1,3.5l-3.5,0.1c-0.2,0-0.3,0.2-0.3,0.3l0,1.9c0,0.2,0.2,0.3,0.3,0.3l3.5-0.1l0.1,3.5
		c0,0.2,0.2,0.3,0.3,0.3l1.9,0c0.2,0,0.3-0.2,0.3-0.3l-0.1-3.5l3.5-0.1c0.2,0,0.3-0.2,0.3-0.3l0-1.9c0-0.2-0.2-0.3-0.3-0.3l-3.5,0.1
		l-0.1-3.5c0-0.2-0.2-0.3-0.3-0.3l-1.9,0C14.7,10.8,14.6,10.9,14.6,11.1z"/>
</g>
</svg>
