<?xml version="1.0" encoding="utf-8"?>
<!-- Generator: Adobe Illustrator 19.2.1, SVG Export Plug-In . SVG Version: 6.00 Build 0)  -->
<svg version="1.1" id="Calque_1" xmlns="http://www.w3.org/2000/svg" xmlns:xlink="http://www.w3.org/1999/xlink" x="0px" y="0px"
	 viewBox="0 0 24 24" style="enable-background:new 0 0 24 24;" xml:space="preserve">
<style type="text/css">
	.st0{fill:#FFFFFF;stroke:#666666;stroke-miterlimit:10;}
</style>
<path class="st0" d="M15,15.6H2.3l0-0.7c0-1.3,0.1-2.1,1.7-2.5c1.8-0.4,3.5-0.8,2.7-2.3c-2.5-4.6-0.7-7.2,2-7.2c2.6,0,4.5,2.5,2,7.2
	c-0.8,1.5,0.9,1.9,2.7,2.3C15.1,12.9,15,13.8,15,15.6z M21.3,15.1c0-1-0.1-1.6-1.3-1.9c-1.4-0.3-2.6-0.6-2-1.8
	C19.9,7.9,18.5,6,16.5,6c-1.3,0-2.4,0.9-2.4,2.5c0,4.1,2.4,1.9,2.4,7.1h4.8C21.3,15.6,21.3,15.1,21.3,15.1z"/>
<g>
	<path class="st0" d="M18.7,9.3l-2.9,3.1l-3.1-2.9c-0.1-0.1-0.4-0.1-0.5,0l-1.6,1.7c-0.1,0.1-0.1,0.4,0,0.5l3.1,2.9l-2.9,3.1
		c-0.1,0.1-0.1,0.4,0,0.5l1.7,1.6c0.1,0.1,0.4,0.1,0.5,0l2.9-3.1l3.1,2.9c0.1,0.1,0.4,0.1,0.5,0l1.6-1.7c0.1-0.1,0.1-0.4,0-0.5
		l-3.1-2.9l2.9-3.1c0.1-0.1,0.1-0.4,0-0.5l-1.7-1.6C19.1,9.1,18.9,9.1,18.7,9.3z"/>
</g>
</svg>
