<?xml version="1.0" encoding="utf-8"?>
<!-- Generator: Adobe Illustrator 19.2.1, SVG Export Plug-In . SVG Version: 6.00 Build 0)  -->
<svg version="1.1" id="Calque_1" xmlns="http://www.w3.org/2000/svg" xmlns:xlink="http://www.w3.org/1999/xlink" x="0px" y="0px"
	 viewBox="0 0 24 24" style="enable-background:new 0 0 24 24;" xml:space="preserve">
<style type="text/css">
	.st0{fill:#FFFFFF;}
	.st1{fill:#FFFFFF;stroke:#666666;stroke-miterlimit:10;}
</style>
<path class="st0" d="M13.7,17.2c-1.1,0.7-2.3,1-3.7,1c-3.9,0-7.2-3.2-7.2-7.2c0-0.8,0.2-1.6,0.4-2.4H1.6c-0.2,0.8-0.3,1.6-0.3,2.4
	c0,4.8,3.9,8.8,8.8,8.8c1.7,0,3.3-0.5,4.6-1.3l1.5,2.1l1.7-5.6h-5.6C12.2,15.1,13.7,17.2,13.7,17.2z"/>
<path class="st1" d="M16.7,12.1H6.4l0-0.5c0-1.1,0.1-1.7,1.4-2C9.2,9.3,10.7,9,10,7.7c-2-3.7-0.6-5.9,1.6-5.9c2.1,0,3.6,2,1.6,5.9
	c-0.7,1.3,0.7,1.6,2.2,1.9C16.8,9.9,16.7,10.7,16.7,12.1z M21.9,11.7c0-0.8-0.1-1.3-1-1.5c-1.1-0.3-2.1-0.5-1.6-1.4
	c1.5-2.9,0.4-4.4-1.2-4.4c-1.1,0-1.9,0.7-1.9,2c0,3.3,1.9,1.5,1.9,5.7h3.9C21.9,12.1,21.9,11.7,21.9,11.7z"/>
</svg>
