<?xml version="1.0" encoding="UTF-8" standalone="no"?>
<!-- Created with Inkscape (http://www.inkscape.org/) -->

<svg
   xmlns:dc="http://purl.org/dc/elements/1.1/"
   xmlns:cc="http://creativecommons.org/ns#"
   xmlns:rdf="http://www.w3.org/1999/02/22-rdf-syntax-ns#"
   xmlns:svg="http://www.w3.org/2000/svg"
   xmlns="http://www.w3.org/2000/svg"
   xmlns:sodipodi="http://sodipodi.sourceforge.net/DTD/sodipodi-0.dtd"
   xmlns:inkscape="http://www.inkscape.org/namespaces/inkscape"
   width="48"
   height="48"
   id="svg6201"
   version="1.1"
   inkscape:version="0.91 r13725"
   viewBox="0 0 48 48"
   sodipodi:docname="create-document.svg">
  <defs
     id="defs6203" />
  <sodipodi:namedview
     id="base"
     pagecolor="#ffffff"
     bordercolor="#666666"
     borderopacity="1.0"
     inkscape:pageopacity="0.0"
     inkscape:pageshadow="2"
     inkscape:zoom="21.875"
     inkscape:cx="16.731429"
     inkscape:cy="24"
     inkscape:current-layer="layer1"
     showgrid="true"
     inkscape:grid-bbox="true"
     inkscape:document-units="px"
     inkscape:window-width="1920"
     inkscape:window-height="1014"
     inkscape:window-x="0"
     inkscape:window-y="27"
     inkscape:window-maximized="1" />
  <metadata
     id="metadata6206">
    <rdf:RDF>
      <cc:Work
         rdf:about="">
        <dc:format>image/svg+xml</dc:format>
        <dc:type
           rdf:resource="http://purl.org/dc/dcmitype/StillImage" />
        <dc:title></dc:title>
      </cc:Work>
    </rdf:RDF>
  </metadata>
  <g
     id="layer1"
     inkscape:label="Layer 1"
     inkscape:groupmode="layer">
    <circle
       id="circle124"
       r="24"
       cy="24.000006"
       cx="24.000008"
       class="light-blue-color"
       style="fill:#40b4e5;fill-opacity:1" />
    <path
       d="m 29.377607,29.178436 -8.962656,0 0,-1.593361 8.962656,0 0,1.593361 z m 0,-2.987552 -8.962656,0 0,-1.593361 8.962656,0 0,1.593361 z m 0,-2.987552 -8.962656,0 0,-1.593361 8.962656,0 0,1.593361 z m -2.290457,-8.962655 0,4.580912 4.580913,0 0,13.045643 -13.543568,0 0,-17.626555 8.962655,0 m 1.394191,-2.091287 -12.448132,0 0,21.908714 17.825725,0 0,-16.53112 -5.377593,-5.377594 z"
       class="white-color"
       id="text-file-4-icon"
       inkscape:connector-curvature="0"
       style="fill:#ffffff;fill-opacity:1" />
  </g>
</svg>
