<?xml version="1.0" encoding="UTF-8" standalone="no"?>
<!-- Created with Inkscape (http://www.inkscape.org/) -->

<svg
   xmlns:dc="http://purl.org/dc/elements/1.1/"
   xmlns:cc="http://creativecommons.org/ns#"
   xmlns:rdf="http://www.w3.org/1999/02/22-rdf-syntax-ns#"
   xmlns:svg="http://www.w3.org/2000/svg"
   xmlns="http://www.w3.org/2000/svg"
   xmlns:sodipodi="http://sodipodi.sourceforge.net/DTD/sodipodi-0.dtd"
   xmlns:inkscape="http://www.inkscape.org/namespaces/inkscape"
   width="48"
   height="48"
   id="svg9277"
   version="1.1"
   inkscape:version="0.91 r13725"
   viewBox="0 0 48 48"
   sodipodi:docname="create-action.svg">
  <defs
     id="defs9279" />
  <sodipodi:namedview
     id="base"
     pagecolor="#ffffff"
     bordercolor="#666666"
     borderopacity="1.0"
     inkscape:pageopacity="0.0"
     inkscape:pageshadow="2"
     inkscape:zoom="21.875"
     inkscape:cx="16.731429"
     inkscape:cy="24"
     inkscape:current-layer="layer1"
     showgrid="true"
     inkscape:grid-bbox="true"
     inkscape:document-units="px"
     inkscape:window-width="1920"
     inkscape:window-height="1014"
     inkscape:window-x="0"
     inkscape:window-y="27"
     inkscape:window-maximized="1" />
  <metadata
     id="metadata9282">
    <rdf:RDF>
      <cc:Work
         rdf:about="">
        <dc:format>image/svg+xml</dc:format>
        <dc:type
           rdf:resource="http://purl.org/dc/dcmitype/StillImage" />
        <dc:title></dc:title>
      </cc:Work>
    </rdf:RDF>
  </metadata>
  <g
     id="layer1"
     inkscape:label="Layer 1"
     inkscape:groupmode="layer">
    <circle
       id="circle102"
       r="24"
       cy="24.000002"
       cx="24.000002"
       class="green-color"
       style="fill:#b0c64b;fill-opacity:1" />
    <path
       d="m 24.000015,10.65561 c -7.369295,0 -13.344398,5.975103 -13.344398,13.344398 0,7.369294 5.975103,13.344398 13.344398,13.344398 7.369294,0 13.344398,-5.975104 13.344398,-13.344398 0,-7.369295 -5.975104,-13.344398 -13.344398,-13.344398 z m 4.780083,18.224066 c -2.688797,2.688797 -7.07054,2.688797 -9.759336,0 -2.688797,-2.688797 -2.688797,-7.070539 0,-9.759336 2.688796,-2.688797 7.070539,-2.688797 9.759336,0 2.688796,2.688797 2.688796,7.070539 0,9.759336 z m 0.39834,-15.3361 -1.593361,2.788382 c -2.290456,-1.095435 -4.879668,-1.095435 -7.170124,0 l -1.593361,-2.788382 c 3.186722,-1.59336 7.070539,-1.692946 10.356846,0 z m -15.73444,5.278009 2.788382,1.593361 c -1.095436,2.290456 -1.095436,4.979253 0.09959,7.269709 l -2.788382,1.593361 c -1.692946,-3.186722 -1.792531,-7.070539 -0.09958,-10.456431 z m 5.377594,15.734439 1.593361,-2.788381 c 2.190871,0.99585 4.780083,0.99585 6.970954,0 l 1.593361,2.788381 c -3.087137,1.593361 -6.871369,1.593361 -10.157676,0 z M 31.568479,27.78424 c 1.095436,-2.290456 1.095436,-4.979253 0.09959,-7.269709 l 2.788381,-1.593361 c 1.593361,3.286307 1.593361,7.170124 -0.09958,10.556016 L 31.568479,27.78424 Z"
       class="white-color"
       id="lifebuoy-icon"
       inkscape:connector-curvature="0"
       style="fill:#ffffff;fill-opacity:1" />
  </g>
</svg>
