<?xml version="1.0" encoding="UTF-8" standalone="no"?>
<!-- Created with Inkscape (http://www.inkscape.org/) -->

<svg
   xmlns:dc="http://purl.org/dc/elements/1.1/"
   xmlns:cc="http://creativecommons.org/ns#"
   xmlns:rdf="http://www.w3.org/1999/02/22-rdf-syntax-ns#"
   xmlns:svg="http://www.w3.org/2000/svg"
   xmlns="http://www.w3.org/2000/svg"
   xmlns:sodipodi="http://sodipodi.sourceforge.net/DTD/sodipodi-0.dtd"
   xmlns:inkscape="http://www.inkscape.org/namespaces/inkscape"
   width="48"
   height="48"
   id="svg6822"
   version="1.1"
   inkscape:version="0.91 r13725"
   viewBox="0 0 48 48"
   sodipodi:docname="manage-referential.svg">
  <defs
     id="defs6824" />
  <sodipodi:namedview
     id="base"
     pagecolor="#ffffff"
     bordercolor="#666666"
     borderopacity="1.0"
     inkscape:pageopacity="0.0"
     inkscape:pageshadow="2"
     inkscape:zoom="21.875"
     inkscape:cx="16.731429"
     inkscape:cy="24"
     inkscape:current-layer="layer1"
     showgrid="true"
     inkscape:grid-bbox="true"
     inkscape:document-units="px"
     inkscape:window-width="1920"
     inkscape:window-height="1014"
     inkscape:window-x="0"
     inkscape:window-y="27"
     inkscape:window-maximized="1" />
  <metadata
     id="metadata6827">
    <rdf:RDF>
      <cc:Work
         rdf:about="">
        <dc:format>image/svg+xml</dc:format>
        <dc:type
           rdf:resource="http://purl.org/dc/dcmitype/StillImage" />
        <dc:title></dc:title>
      </cc:Work>
    </rdf:RDF>
  </metadata>
  <g
     id="layer1"
     inkscape:label="Layer 1"
     inkscape:groupmode="layer">
    <circle
       id="circle134"
       r="24"
       cy="24.000002"
       cx="24.000008"
       class="light-blue-color"
       style="fill:#40b4e5;fill-opacity:1" />
    <circle
       id="circle136"
       r="1.8921162"
       cy="12.448129"
       cx="16.73031"
       class="white-color"
       style="fill:#ffffff;fill-opacity:1" />
    <circle
       id="circle138"
       r="1.8921162"
       cy="31.668064"
       cx="36.049805"
       class="white-color"
       style="fill:#ffffff;fill-opacity:1" />
    <circle
       id="circle140"
       r="1.8921162"
       cy="29.576771"
       cx="13.94191"
       class="white-color"
       style="fill:#ffffff;fill-opacity:1" />
    <path
       id="path142"
       d="M 19.518686,16.232373 18.82159,14.937767 c -0.19917,-0.298755 -0.497925,-0.39834 -0.896265,-0.298755 -0.298755,0.19917 -0.398341,0.497925 -0.298755,0.896266 l 0.697095,1.294606 c 0.09959,0.19917 0.298755,0.298755 0.59751,0.298755 0.09958,0 0.19917,0 0.298756,-0.09959 0.298755,-0.09958 0.497925,-0.497926 0.298755,-0.796681 z"
       class="white-color"
       inkscape:connector-curvature="0"
       style="fill:#ffffff;fill-opacity:1" />
    <path
       id="path144"
       d="m 20.215781,20.215776 c 0.09959,0.19917 0.298755,0.298755 0.59751,0.298755 0.09959,0 0.199171,0 0.298756,-0.09959 0.298755,-0.19917 0.39834,-0.597511 0.298755,-0.896266 l -0.697096,-1.294606 c -0.19917,-0.298755 -0.497925,-0.39834 -0.896265,-0.298755 -0.298755,0.19917 -0.39834,0.497925 -0.298755,0.896266 l 0.697095,1.394191 z"
       class="white-color"
       inkscape:connector-curvature="0"
       style="fill:#ffffff;fill-opacity:1" />
    <path
       id="path146"
       d="m 33.161839,29.477186 -1.493776,-0.79668 c -0.298755,-0.19917 -0.697095,-0.09959 -0.896265,0.19917 -0.199171,0.298755 -0.09959,0.697095 0.19917,0.896265 l 1.493776,0.796681 c 0.09958,0.09959 0.19917,0.09959 0.298755,0.09959 0.19917,0 0.39834,-0.09959 0.497925,-0.298755 0.298755,-0.298755 0.19917,-0.697096 -0.09958,-0.896266 z"
       class="white-color"
       inkscape:connector-curvature="0"
       style="fill:#ffffff;fill-opacity:1" />
    <path
       id="path148"
       d="m 29.477192,27.3859 -1.394191,-0.796681 c -0.298755,-0.19917 -0.697095,-0.09959 -0.896266,0.199171 -0.19917,0.298755 -0.09958,0.697095 0.199171,0.896265 l 1.493775,0.796681 c 0.09958,0.09959 0.199171,0.09959 0.298756,0.09959 0.19917,0 0.39834,-0.09959 0.59751,-0.298755 0.09959,-0.298756 0,-0.697096 -0.298755,-0.896266 z"
       class="white-color"
       inkscape:connector-curvature="0"
       style="fill:#ffffff;fill-opacity:1" />
    <path
       id="path150"
       d="M 18.323665,26.589219 16.829889,27.3859 c -0.298755,0.19917 -0.39834,0.59751 -0.19917,0.896266 0.09959,0.19917 0.298755,0.298755 0.59751,0.298755 0.09959,0 0.19917,0 0.298755,-0.09959 l 1.493776,-0.796681 c 0.298756,-0.19917 0.398341,-0.59751 0.199171,-0.896265 -0.199171,-0.298756 -0.597511,-0.398341 -0.896266,-0.199171 z"
       class="white-color"
       inkscape:connector-curvature="0"
       style="fill:#ffffff;fill-opacity:1" />
    <path
       id="path152"
       d="m 37.045656,13.145236 c 0,-1.593361 -1.294605,-2.788381 -2.788381,-2.788381 -1.593361,0 -2.788382,1.294605 -2.788382,2.788381 0,0.497926 0.09958,0.995851 0.39834,1.394191 l -6.473029,6.771784 c -0.59751,-0.39834 -1.294606,-0.59751 -1.991701,-0.59751 -2.091286,0 -3.883817,1.692946 -3.883817,3.883817 0,2.091287 1.692946,3.883818 3.883817,3.883818 0,0 0.09959,0 0.09959,0 l 1.394191,5.676348 c -0.796681,0.497925 -1.294606,1.394191 -1.294606,2.390042 0,1.593361 1.294606,2.788381 2.788382,2.788381 1.593361,0 2.788382,-1.294605 2.788382,-2.788381 0,-1.493776 -1.195021,-2.688797 -2.688797,-2.788382 l -1.394191,-5.676349 c 1.294606,-0.59751 2.091286,-1.991701 2.091286,-3.485477 0,-0.79668 -0.19917,-1.493776 -0.697095,-2.190871 l 6.473029,-6.771784 c 0.39834,0.19917 0.79668,0.298755 1.195021,0.298755 1.593361,0 2.887966,-1.195021 2.887966,-2.788382 z M 25.195034,35.45229 c 0.298755,-0.298755 0.697096,-0.497925 1.095436,-0.497925 0.19917,0 0.298755,0 0.497925,0.09958 0.597511,0.19917 1.095436,0.79668 1.095436,1.493776 0,0.896265 -0.697096,1.593361 -1.593361,1.593361 -0.896266,0 -1.593361,-0.697096 -1.593361,-1.593361 0.09958,-0.497926 0.19917,-0.796681 0.497925,-1.095436 z m 0.19917,-10.356846 c -0.09958,0.39834 -0.298755,0.79668 -0.59751,1.095435 -0.09958,0.09959 -0.09958,0.09959 -0.19917,0.19917 -0.39834,0.298756 -0.796681,0.398341 -1.294606,0.398341 -0.09958,0 -0.19917,0 -0.298755,0 -0.497925,-0.09959 -0.896266,-0.298756 -1.195021,-0.597511 -0.298755,-0.298755 -0.497925,-0.697095 -0.59751,-1.095435 0,-0.09959 -0.09959,-0.298756 -0.09959,-0.497926 0,-0.59751 0.298755,-1.19502 0.697095,-1.593361 0.298755,-0.298755 0.697096,-0.497925 1.095436,-0.59751 0.09958,0 0.298755,0 0.497925,0 0.298755,0 0.497925,0.09959 0.796681,0.19917 0.497925,0.19917 0.99585,0.59751 1.19502,1.195021 0.09959,0.298755 0.19917,0.59751 0.19917,0.896265 -0.09959,0.09959 -0.09959,0.19917 -0.19917,0.398341 z M 34.15769,14.738597 c -0.09959,0 -0.19917,0 -0.298756,0 -0.59751,-0.09959 -1.095435,-0.59751 -1.19502,-1.195021 0,-0.09958 0,-0.19917 0,-0.39834 0,-0.896265 0.697095,-1.593361 1.593361,-1.593361 0.896265,0 1.593361,0.697096 1.593361,1.593361 -0.09959,0.896266 -0.796681,1.593361 -1.692946,1.593361 z"
       class="white-color"
       inkscape:connector-curvature="0"
       style="fill:#ffffff;fill-opacity:1" />
  </g>
</svg>
