<?xml version="1.0" encoding="UTF-8" standalone="no"?>
<!DOCTYPE svg PUBLIC "-//W3C//DTD SVG 1.1//EN"
 "http://www.w3.org/Graphics/SVG/1.1/DTD/svg11.dtd">
<!-- Generated by graphviz version 9.0.0 (20230911.1827)
 -->
<!-- Title: CallGraph Pages: 1 -->
<svg width="358pt" height="836pt"
 viewBox="0.00 0.00 357.50 836.00" xmlns="http://www.w3.org/2000/svg" xmlns:xlink="http://www.w3.org/1999/xlink">
<g id="graph0" class="graph" transform="scale(1 1) rotate(0) translate(4 832)">
<title>CallGraph</title>
<polygon fill="white" stroke="none" points="-4,4 -4,-832 353.5,-832 353.5,4 -4,4"/>
<!-- set_x -->
<g id="node1" class="node">
<title>set_x</title>
<polygon fill="lightblue" stroke="white" points="161.88,-828 107.88,-828 107.88,-792 161.88,-792 161.88,-828"/>
<text text-anchor="middle" x="134.88" y="-804.95" font-family="Arial" font-size="14.00">set_x</text>
</g>
<!-- initialize_x -->
<g id="node2" class="node">
<title>initialize_x</title>
<polygon fill="lightblue" stroke="white" points="79.75,-432 0,-432 0,-396 79.75,-396 79.75,-432"/>
<text text-anchor="middle" x="39.88" y="-408.95" font-family="Arial" font-size="14.00">initialize_x</text>
</g>
<!-- set_x&#45;&gt;initialize_x -->
<g id="edge1" class="edge">
<title>set_x&#45;&gt;initialize_x</title>
<path fill="none" stroke="black" d="M130.67,-791.56C115.74,-729.64 65.19,-519.98 46.71,-443.35"/>
<polygon fill="black" stroke="black" points="50.13,-442.61 44.39,-433.71 43.33,-444.25 50.13,-442.61"/>
</g>
<!-- perform_computations -->
<g id="node3" class="node">
<title>perform_computations</title>
<polygon fill="lightblue" stroke="white" points="349.5,-432 190.25,-432 190.25,-396 349.5,-396 349.5,-432"/>
<text text-anchor="middle" x="269.88" y="-408.95" font-family="Arial" font-size="14.00">perform_computations</text>
</g>
<!-- set_x&#45;&gt;perform_computations -->
<g id="edge2" class="edge">
<title>set_x&#45;&gt;perform_computations</title>
<path fill="none" stroke="black" d="M140.85,-791.56C162.11,-729.52 234.2,-519.12 260.32,-442.88"/>
<polygon fill="black" stroke="black" points="263.55,-444.26 263.48,-433.67 256.93,-441.99 263.55,-444.26"/>
</g>
<!-- inc_x -->
<g id="node4" class="node">
<title>inc_x</title>
<polygon fill="lightblue" stroke="white" points="178.88,-36 124.88,-36 124.88,0 178.88,0 178.88,-36"/>
<text text-anchor="middle" x="151.88" y="-12.95" font-family="Arial" font-size="14.00">inc_x</text>
</g>
<!-- perform_computations&#45;&gt;inc_x -->
<g id="edge3" class="edge">
<title>perform_computations&#45;&gt;inc_x</title>
<path fill="none" stroke="black" d="M264.65,-395.56C246.07,-333.52 183.06,-123.12 160.22,-46.88"/>
<polygon fill="black" stroke="black" points="163.69,-46.26 157.47,-37.69 156.99,-48.27 163.69,-46.26"/>
</g>
<!-- multiply_x -->
<g id="node5" class="node">
<title>multiply_x</title>
<polygon fill="lightblue" stroke="white" points="309,-36 230.75,-36 230.75,0 309,0 309,-36"/>
<text text-anchor="middle" x="269.88" y="-12.95" font-family="Arial" font-size="14.00">multiply_x</text>
</g>
<!-- perform_computations&#45;&gt;multiply_x -->
<g id="edge4" class="edge">
<title>perform_computations&#45;&gt;multiply_x</title>
<path fill="none" stroke="black" d="M269.88,-395.56C269.88,-333.64 269.88,-123.98 269.88,-47.35"/>
<polygon fill="black" stroke="black" points="273.38,-47.75 269.88,-37.75 266.38,-47.75 273.38,-47.75"/>
</g>
<!-- inc_x&#45;&gt;set_x -->
<g id="edge5" class="edge">
<title>inc_x&#45;&gt;set_x</title>
<path fill="none" stroke="black" d="M151.5,-36.35C149.32,-137.65 138.24,-652.65 135.49,-780.33"/>
<polygon fill="black" stroke="black" points="131.99,-780.18 135.28,-790.25 138.99,-780.33 131.99,-780.18"/>
</g>
<!-- print_x -->
<g id="node6" class="node">
<title>print_x</title>
<polygon fill="lightblue" stroke="white" points="255.88,-828 197.88,-828 197.88,-792 255.88,-792 255.88,-828"/>
<text text-anchor="middle" x="226.88" y="-804.95" font-family="Arial" font-size="14.00">print_x</text>
</g>
</g>
</svg>
