<?xml version="1.0" encoding="UTF-8" standalone="no"?>
<!DOCTYPE svg PUBLIC "-//W3C//DTD SVG 1.1//EN"
 "http://www.w3.org/Graphics/SVG/1.1/DTD/svg11.dtd">
<!-- Generated by graphviz version 2.43.0 (0)
 -->
<!-- Title: CallGraph Pages: 1 -->
<svg width="3565pt" height="2024pt"
 viewBox="0.00 0.00 3565.23 2024.00" xmlns="http://www.w3.org/2000/svg" xmlns:xlink="http://www.w3.org/1999/xlink">
<g id="graph0" class="graph" transform="scale(1 1) rotate(0) translate(4 2020)">
<title>CallGraph</title>
<polygon fill="white" stroke="transparent" points="-4,4 -4,-2020 3561.23,-2020 3561.23,4 -4,4"/>
<!-- _AuditElementsController -->
<g id="node1" class="node">
<title>_AuditElementsController</title>
<polygon fill="lightblue" stroke="white" points="2070.5,-2016 1900.5,-2016 1900.5,-1980 2070.5,-1980 2070.5,-2016"/>
<text text-anchor="middle" x="1985.5" y="-1994.3" font-family="Arial" font-size="14.00">_AuditElementsController</text>
</g>
<!-- _GraphsController -->
<g id="node2" class="node">
<title>_GraphsController</title>
<polygon fill="lightblue" stroke="white" points="2049.5,-1620 1921.5,-1620 1921.5,-1584 2049.5,-1584 2049.5,-1620"/>
<text text-anchor="middle" x="1985.5" y="-1598.3" font-family="Arial" font-size="14.00">_GraphsController</text>
</g>
<!-- _AuditElementsController&#45;&gt;_GraphsController -->
<g id="edge1" class="edge">
<title>_AuditElementsController&#45;&gt;_GraphsController</title>
<path fill="none" stroke="black" d="M1985.5,-1979.82C1985.5,-1917.98 1985.5,-1706.47 1985.5,-1630.47"/>
<polygon fill="black" stroke="black" points="1989,-1630.27 1985.5,-1620.27 1982,-1630.27 1989,-1630.27"/>
</g>
<!-- _DocumentsController -->
<g id="node5" class="node">
<title>_DocumentsController</title>
<polygon fill="lightblue" stroke="white" points="2354.5,-828 2202.5,-828 2202.5,-792 2354.5,-792 2354.5,-828"/>
<text text-anchor="middle" x="2278.5" y="-806.3" font-family="Arial" font-size="14.00">_DocumentsController</text>
</g>
<!-- _GraphsController&#45;&gt;_DocumentsController -->
<g id="edge14" class="edge">
<title>_GraphsController&#45;&gt;_DocumentsController</title>
<path fill="none" stroke="black" d="M1987.56,-1583.77C2013.37,-1482.05 2206.54,-960.4 2263.56,-837.13"/>
<polygon fill="black" stroke="black" points="2266.77,-838.54 2267.89,-828.01 2260.44,-835.54 2266.77,-838.54"/>
</g>
<!-- _SearchController -->
<g id="node6" class="node">
<title>_SearchController</title>
<polygon fill="lightblue" stroke="white" points="3022,-432 2897,-432 2897,-396 3022,-396 3022,-432"/>
<text text-anchor="middle" x="2959.5" y="-410.3" font-family="Arial" font-size="14.00">_SearchController</text>
</g>
<!-- _GraphsController&#45;&gt;_SearchController -->
<g id="edge17" class="edge">
<title>_GraphsController&#45;&gt;_SearchController</title>
<path fill="none" stroke="black" d="M2049.56,-1587.34C2197.15,-1552.67 2564.27,-1447.7 2770.5,-1224 2986.93,-989.24 2970.38,-555.52 2961.94,-442.51"/>
<polygon fill="black" stroke="black" points="2965.41,-442 2961.13,-432.3 2958.43,-442.55 2965.41,-442"/>
</g>
<!-- _ExternalUsersService -->
<g id="node7" class="node">
<title>_ExternalUsersService</title>
<polygon fill="lightblue" stroke="white" points="2224.5,-36 2070.5,-36 2070.5,0 2224.5,0 2224.5,-36"/>
<text text-anchor="middle" x="2147.5" y="-14.3" font-family="Arial" font-size="14.00">_ExternalUsersService</text>
</g>
<!-- _GraphsController&#45;&gt;_ExternalUsersService -->
<g id="edge15" class="edge">
<title>_GraphsController&#45;&gt;_ExternalUsersService</title>
<path fill="none" stroke="black" d="M1997.99,-1583.95C2055.62,-1504.02 2296.34,-1156.59 2372.5,-828 2444.72,-516.41 2227.89,-144.69 2164.41,-44.77"/>
<polygon fill="black" stroke="black" points="2167.27,-42.75 2158.93,-36.22 2161.38,-46.53 2167.27,-42.75"/>
</g>
<!-- _SsoUsersService -->
<g id="node8" class="node">
<title>_SsoUsersService</title>
<polygon fill="lightblue" stroke="white" points="678.5,-36 550.5,-36 550.5,0 678.5,0 678.5,-36"/>
<text text-anchor="middle" x="614.5" y="-14.3" font-family="Arial" font-size="14.00">_SsoUsersService</text>
</g>
<!-- _GraphsController&#45;&gt;_SsoUsersService -->
<g id="edge16" class="edge">
<title>_GraphsController&#45;&gt;_SsoUsersService</title>
<path fill="none" stroke="black" d="M1921.18,-1591.01C1675.73,-1549.31 790.88,-1365.47 373.5,-828 253.79,-673.84 227.22,-579.22 294.5,-396 353.53,-235.25 514.84,-96.12 583.21,-42.52"/>
<polygon fill="black" stroke="black" points="585.71,-45.01 591.46,-36.11 581.42,-39.48 585.71,-45.01"/>
</g>
<!-- _SettingsController -->
<g id="node10" class="node">
<title>_SettingsController</title>
<polygon fill="lightblue" stroke="white" points="1668,-1224 1537,-1224 1537,-1188 1668,-1188 1668,-1224"/>
<text text-anchor="middle" x="1602.5" y="-1202.3" font-family="Arial" font-size="14.00">_SettingsController</text>
</g>
<!-- _GraphsController&#45;&gt;_SettingsController -->
<g id="edge18" class="edge">
<title>_GraphsController&#45;&gt;_SettingsController</title>
<path fill="none" stroke="black" d="M1962.85,-1583.82C1892.43,-1521.35 1682.85,-1306.12 1619.94,-1232.18"/>
<polygon fill="black" stroke="black" points="1622.43,-1229.7 1613.33,-1224.27 1617.06,-1234.19 1622.43,-1229.7"/>
</g>
<!-- _Graph -->
<g id="node13" class="node">
<title>_Graph</title>
<polygon fill="lightblue" stroke="white" points="147.5,-1224 85.5,-1224 85.5,-1188 147.5,-1188 147.5,-1224"/>
<text text-anchor="middle" x="116.5" y="-1202.3" font-family="Arial" font-size="14.00">_Graph</text>
</g>
<!-- _GraphsController&#45;&gt;_Graph -->
<g id="edge13" class="edge">
<title>_GraphsController&#45;&gt;_Graph</title>
<path fill="none" stroke="black" d="M1921.32,-1589.56C1686.52,-1547.31 852.5,-1393.64 174.5,-1224 169.03,-1222.63 163.3,-1221.09 157.66,-1219.5"/>
<polygon fill="black" stroke="black" points="158.26,-1216.03 147.68,-1216.64 156.32,-1222.76 158.26,-1216.03"/>
</g>
<!-- _DirectoriesController -->
<g id="node3" class="node">
<title>_DirectoriesController</title>
<polygon fill="lightblue" stroke="white" points="147,-432 0,-432 0,-396 147,-396 147,-432"/>
<text text-anchor="middle" x="73.5" y="-410.3" font-family="Arial" font-size="14.00">_DirectoriesController</text>
</g>
<!-- _ActorsController -->
<g id="node4" class="node">
<title>_ActorsController</title>
<polygon fill="lightblue" stroke="white" points="293,-36 172,-36 172,0 293,0 293,-36"/>
<text text-anchor="middle" x="232.5" y="-14.3" font-family="Arial" font-size="14.00">_ActorsController</text>
</g>
<!-- _DirectoriesController&#45;&gt;_ActorsController -->
<g id="edge2" class="edge">
<title>_DirectoriesController&#45;&gt;_ActorsController</title>
<path fill="none" stroke="black" d="M80.43,-395.82C105.44,-333.86 191.1,-121.6 221.6,-46"/>
<polygon fill="black" stroke="black" points="225.03,-46.86 225.53,-36.27 218.54,-44.24 225.03,-46.86"/>
</g>
<!-- _DocumentsController&#45;&gt;_GraphsController -->
<g id="edge6" class="edge">
<title>_DocumentsController&#45;&gt;_GraphsController</title>
<path fill="none" stroke="black" d="M2276.49,-828.01C2250.93,-929.1 2057.79,-1450.73 2000.57,-1574.59"/>
<polygon fill="black" stroke="black" points="1997.34,-1573.23 1996.22,-1583.77 2003.66,-1576.23 1997.34,-1573.23"/>
</g>
<!-- _DocumentsController&#45;&gt;_SearchController -->
<g id="edge3" class="edge">
<title>_DocumentsController&#45;&gt;_SearchController</title>
<path fill="none" stroke="black" d="M2308.2,-791.82C2417.72,-728.46 2798.91,-507.91 2921.33,-437.08"/>
<polygon fill="black" stroke="black" points="2923.12,-440.09 2930.03,-432.05 2919.62,-434.03 2923.12,-440.09"/>
</g>
<!-- _DocumentsController&#45;&gt;_ExternalUsersService -->
<g id="edge4" class="edge">
<title>_DocumentsController&#45;&gt;_ExternalUsersService</title>
<path fill="none" stroke="black" d="M2275.64,-791.77C2258.81,-690.25 2172.62,-170.49 2151.96,-45.88"/>
<polygon fill="black" stroke="black" points="2155.41,-45.3 2150.32,-36.01 2148.5,-46.45 2155.41,-45.3"/>
</g>
<!-- _DocumentsController&#45;&gt;_SsoUsersService -->
<g id="edge5" class="edge">
<title>_DocumentsController&#45;&gt;_SsoUsersService</title>
<path fill="none" stroke="black" d="M2202.31,-798.15C1881.14,-751.66 649.21,-565.59 541.5,-432 446.59,-314.28 553.71,-115.76 597.53,-45.01"/>
<polygon fill="black" stroke="black" points="600.67,-46.6 603.03,-36.27 594.74,-42.87 600.67,-46.6"/>
</g>
<!-- _ScanInstance -->
<g id="node25" class="node">
<title>_ScanInstance</title>
<polygon fill="lightblue" stroke="white" points="3012.5,-36 2906.5,-36 2906.5,0 3012.5,0 3012.5,-36"/>
<text text-anchor="middle" x="2959.5" y="-14.3" font-family="Arial" font-size="14.00">_ScanInstance</text>
</g>
<!-- _SearchController&#45;&gt;_ScanInstance -->
<g id="edge30" class="edge">
<title>_SearchController&#45;&gt;_ScanInstance</title>
<path fill="none" stroke="black" d="M2953.55,-395.82C2943.96,-333.98 2943.5,-122.47 2952.19,-46.47"/>
<polygon fill="black" stroke="black" points="2955.7,-46.65 2953.54,-36.27 2948.76,-45.73 2955.7,-46.65"/>
</g>
<!-- _ElementsController -->
<g id="node9" class="node">
<title>_ElementsController</title>
<polygon fill="lightblue" stroke="white" points="2653.5,-1620 2513.5,-1620 2513.5,-1584 2653.5,-1584 2653.5,-1620"/>
<text text-anchor="middle" x="2583.5" y="-1598.3" font-family="Arial" font-size="14.00">_ElementsController</text>
</g>
<!-- _ElementsController&#45;&gt;_SearchController -->
<g id="edge7" class="edge">
<title>_ElementsController&#45;&gt;_SearchController</title>
<path fill="none" stroke="black" d="M2653.66,-1594.16C2823.85,-1573.49 3259.22,-1495.28 3458.5,-1224 3572.68,-1068.57 3588.67,-963.01 3499.5,-792 3396.66,-594.78 3138.3,-479.6 3020.16,-435.66"/>
<polygon fill="black" stroke="black" points="3021.13,-432.28 3010.54,-432.12 3018.72,-438.85 3021.13,-432.28"/>
</g>
<!-- _ElementsController&#45;&gt;_SettingsController -->
<g id="edge8" class="edge">
<title>_ElementsController&#45;&gt;_SettingsController</title>
<path fill="none" stroke="black" d="M2541.03,-1583.94C2382.76,-1520.38 1827.46,-1297.35 1654.4,-1227.85"/>
<polygon fill="black" stroke="black" points="1655.58,-1224.55 1645,-1224.07 1652.98,-1231.04 1655.58,-1224.55"/>
</g>
<!-- _SettingsController&#45;&gt;_GraphsController -->
<g id="edge37" class="edge">
<title>_SettingsController&#45;&gt;_GraphsController</title>
<path fill="none" stroke="black" d="M1625.25,-1224.27C1695.8,-1286.89 1905.39,-1502.13 1968.16,-1575.93"/>
<polygon fill="black" stroke="black" points="1965.65,-1578.39 1974.74,-1583.82 1971.02,-1573.9 1965.65,-1578.39"/>
</g>
<!-- _SettingsController&#45;&gt;_DirectoriesController -->
<g id="edge33" class="edge">
<title>_SettingsController&#45;&gt;_DirectoriesController</title>
<path fill="none" stroke="black" d="M1536.8,-1205.72C1323.39,-1204.52 640.81,-1172.63 248.5,-828 127.19,-721.43 87.58,-516.54 76.91,-442.53"/>
<polygon fill="black" stroke="black" points="80.32,-441.62 75.49,-432.19 73.39,-442.58 80.32,-441.62"/>
</g>
<!-- _SettingsController&#45;&gt;_DocumentsController -->
<g id="edge34" class="edge">
<title>_SettingsController&#45;&gt;_DocumentsController</title>
<path fill="none" stroke="black" d="M1631.98,-1187.82C1740.58,-1124.52 2118.33,-904.35 2240.25,-833.3"/>
<polygon fill="black" stroke="black" points="2242.37,-836.11 2249.24,-828.05 2238.84,-830.06 2242.37,-836.11"/>
</g>
<!-- _SettingsController&#45;&gt;_SearchController -->
<g id="edge49" class="edge">
<title>_SettingsController&#45;&gt;_SearchController</title>
<path fill="none" stroke="black" d="M1668.22,-1192.67C1837.7,-1158.44 2298.27,-1049.8 2612.5,-828 2771.76,-715.59 2901.44,-512.93 2944.36,-441.11"/>
<polygon fill="black" stroke="black" points="2947.52,-442.63 2949.61,-432.24 2941.5,-439.06 2947.52,-442.63"/>
</g>
<!-- _SettingsController&#45;&gt;_ExternalUsersService -->
<g id="edge47" class="edge">
<title>_SettingsController&#45;&gt;_ExternalUsersService</title>
<path fill="none" stroke="black" d="M1646.76,-1187.86C1749.91,-1145.24 2005.38,-1023.59 2109.5,-828 2254.98,-554.71 2178.31,-153.05 2154.02,-46.02"/>
<polygon fill="black" stroke="black" points="2157.38,-45.01 2151.71,-36.05 2150.56,-46.59 2157.38,-45.01"/>
</g>
<!-- _SettingsController&#45;&gt;_SsoUsersService -->
<g id="edge48" class="edge">
<title>_SettingsController&#45;&gt;_SsoUsersService</title>
<path fill="none" stroke="black" d="M1536.74,-1205.24C1335.7,-1202.23 723.82,-1164.54 409.5,-828 275.25,-684.26 248.49,-581.63 313.5,-396 368.85,-237.95 521.36,-96.81 585.49,-42.57"/>
<polygon fill="black" stroke="black" points="587.8,-45.2 593.22,-36.1 583.31,-39.84 587.8,-45.2"/>
</g>
<!-- _GraphBackgroundsController -->
<g id="node11" class="node">
<title>_GraphBackgroundsController</title>
<polygon fill="lightblue" stroke="white" points="2904.5,-828 2704.5,-828 2704.5,-792 2904.5,-792 2904.5,-828"/>
<text text-anchor="middle" x="2804.5" y="-806.3" font-family="Arial" font-size="14.00">_GraphBackgroundsController</text>
</g>
<!-- _SettingsController&#45;&gt;_GraphBackgroundsController -->
<g id="edge36" class="edge">
<title>_SettingsController&#45;&gt;_GraphBackgroundsController</title>
<path fill="none" stroke="black" d="M1648.61,-1187.94C1833.26,-1124.16 2517.59,-899.8 2736.73,-831.12"/>
<polygon fill="black" stroke="black" points="2738,-834.39 2746.5,-828.07 2735.91,-827.71 2738,-834.39"/>
</g>
<!-- _GroupdocumentsController -->
<g id="node14" class="node">
<title>_GroupdocumentsController</title>
<polygon fill="lightblue" stroke="white" points="667.5,-828 479.5,-828 479.5,-792 667.5,-792 667.5,-828"/>
<text text-anchor="middle" x="573.5" y="-806.3" font-family="Arial" font-size="14.00">_GroupdocumentsController</text>
</g>
<!-- _SettingsController&#45;&gt;_GroupdocumentsController -->
<g id="edge38" class="edge">
<title>_SettingsController&#45;&gt;_GroupdocumentsController</title>
<path fill="none" stroke="black" d="M1557.95,-1187.94C1391.86,-1124.35 808.89,-901.13 627.67,-831.74"/>
<polygon fill="black" stroke="black" points="628.67,-828.38 618.08,-828.07 626.17,-834.91 628.67,-828.38"/>
</g>
<!-- _ResourcesController -->
<g id="node15" class="node">
<title>_ResourcesController</title>
<polygon fill="lightblue" stroke="white" points="853,-432 706,-432 706,-396 853,-396 853,-432"/>
<text text-anchor="middle" x="779.5" y="-410.3" font-family="Arial" font-size="14.00">_ResourcesController</text>
</g>
<!-- _SettingsController&#45;&gt;_ResourcesController -->
<g id="edge42" class="edge">
<title>_SettingsController&#45;&gt;_ResourcesController</title>
<path fill="none" stroke="black" d="M1536.92,-1193.57C1314.2,-1153.29 593.41,-1010.5 461.5,-828 351.27,-675.49 629.92,-498.25 738.43,-437.08"/>
<polygon fill="black" stroke="black" points="740.45,-439.96 747.47,-432.03 737.03,-433.85 740.45,-439.96"/>
</g>
<!-- _NotificationsController -->
<g id="node19" class="node">
<title>_NotificationsController</title>
<polygon fill="lightblue" stroke="white" points="933.5,-828 777.5,-828 777.5,-792 933.5,-792 933.5,-828"/>
<text text-anchor="middle" x="855.5" y="-806.3" font-family="Arial" font-size="14.00">_NotificationsController</text>
</g>
<!-- _SettingsController&#45;&gt;_NotificationsController -->
<g id="edge45" class="edge">
<title>_SettingsController&#45;&gt;_NotificationsController</title>
<path fill="none" stroke="black" d="M1569.92,-1187.82C1449.67,-1124.39 1030.82,-903.47 896.97,-832.87"/>
<polygon fill="black" stroke="black" points="898.31,-829.62 887.83,-828.05 895.04,-835.81 898.31,-829.62"/>
</g>
<!-- _PrintController -->
<g id="node21" class="node">
<title>_PrintController</title>
<polygon fill="lightblue" stroke="white" points="669.5,-432 559.5,-432 559.5,-396 669.5,-396 669.5,-432"/>
<text text-anchor="middle" x="614.5" y="-410.3" font-family="Arial" font-size="14.00">_PrintController</text>
</g>
<!-- _SettingsController&#45;&gt;_PrintController -->
<g id="edge46" class="edge">
<title>_SettingsController&#45;&gt;_PrintController</title>
<path fill="none" stroke="black" d="M1536.96,-1194.09C1310.91,-1155.02 570.18,-1014.37 434.5,-828 338.75,-696.49 517.39,-506.06 587.77,-439.26"/>
<polygon fill="black" stroke="black" points="590.51,-441.49 595.41,-432.09 585.72,-436.39 590.51,-441.49"/>
</g>
<!-- _RolesController -->
<g id="node24" class="node">
<title>_RolesController</title>
<polygon fill="lightblue" stroke="white" points="1248,-432 1131,-432 1131,-396 1248,-396 1248,-432"/>
<text text-anchor="middle" x="1189.5" y="-410.3" font-family="Arial" font-size="14.00">_RolesController</text>
</g>
<!-- _SettingsController&#45;&gt;_RolesController -->
<g id="edge43" class="edge">
<title>_SettingsController&#45;&gt;_RolesController</title>
<path fill="none" stroke="black" d="M1536.74,-1198.91C1371.3,-1179.64 938.27,-1103.79 759.5,-828 643.64,-649.27 991.86,-491.03 1132.96,-435.82"/>
<polygon fill="black" stroke="black" points="1134.29,-439.05 1142.35,-432.17 1131.76,-432.53 1134.29,-439.05"/>
</g>
<!-- _ActsController -->
<g id="node26" class="node">
<title>_ActsController</title>
<polygon fill="lightblue" stroke="white" points="1079,-828 970,-828 970,-792 1079,-792 1079,-828"/>
<text text-anchor="middle" x="1024.5" y="-806.3" font-family="Arial" font-size="14.00">_ActsController</text>
</g>
<!-- _SettingsController&#45;&gt;_ActsController -->
<g id="edge31" class="edge">
<title>_SettingsController&#45;&gt;_ActsController</title>
<path fill="none" stroke="black" d="M1577.29,-1187.82C1484.62,-1124.65 1162.74,-905.24 1057.84,-833.72"/>
<polygon fill="black" stroke="black" points="1059.75,-830.79 1049.51,-828.05 1055.81,-836.58 1059.75,-830.79"/>
</g>
<!-- _AuditsController -->
<g id="node27" class="node">
<title>_AuditsController</title>
<polygon fill="lightblue" stroke="white" points="1235.5,-828 1115.5,-828 1115.5,-792 1235.5,-792 1235.5,-828"/>
<text text-anchor="middle" x="1175.5" y="-806.3" font-family="Arial" font-size="14.00">_AuditsController</text>
</g>
<!-- _SettingsController&#45;&gt;_AuditsController -->
<g id="edge32" class="edge">
<title>_SettingsController&#45;&gt;_AuditsController</title>
<path fill="none" stroke="black" d="M1583.88,-1187.82C1515.91,-1125.1 1281.02,-908.37 1201.82,-835.28"/>
<polygon fill="black" stroke="black" points="1203.94,-832.48 1194.22,-828.27 1199.2,-837.63 1203.94,-832.48"/>
</g>
<!-- _EventsController -->
<g id="node28" class="node">
<title>_EventsController</title>
<polygon fill="lightblue" stroke="white" points="1395.5,-828 1271.5,-828 1271.5,-792 1395.5,-792 1395.5,-828"/>
<text text-anchor="middle" x="1333.5" y="-806.3" font-family="Arial" font-size="14.00">_EventsController</text>
</g>
<!-- _SettingsController&#45;&gt;_EventsController -->
<g id="edge35" class="edge">
<title>_SettingsController&#45;&gt;_EventsController</title>
<path fill="none" stroke="black" d="M1590.77,-1187.82C1548.21,-1125.48 1401.77,-910.99 1351,-836.63"/>
<polygon fill="black" stroke="black" points="1353.82,-834.56 1345.29,-828.27 1348.04,-838.51 1353.82,-834.56"/>
</g>
<!-- _GroupgraphsController -->
<g id="node29" class="node">
<title>_GroupgraphsController</title>
<polygon fill="lightblue" stroke="white" points="1593.5,-828 1431.5,-828 1431.5,-792 1593.5,-792 1593.5,-828"/>
<text text-anchor="middle" x="1512.5" y="-806.3" font-family="Arial" font-size="14.00">_GroupgraphsController</text>
</g>
<!-- _SettingsController&#45;&gt;_GroupgraphsController -->
<g id="edge39" class="edge">
<title>_SettingsController&#45;&gt;_GroupgraphsController</title>
<path fill="none" stroke="black" d="M1598.57,-1187.82C1584.45,-1125.98 1536.13,-914.47 1518.77,-838.47"/>
<polygon fill="black" stroke="black" points="1522.08,-837.24 1516.45,-828.27 1515.26,-838.8 1522.08,-837.24"/>
</g>
<!-- _PartialsController -->
<g id="node30" class="node">
<title>_PartialsController</title>
<polygon fill="lightblue" stroke="white" points="1757.5,-828 1629.5,-828 1629.5,-792 1757.5,-792 1757.5,-828"/>
<text text-anchor="middle" x="1693.5" y="-806.3" font-family="Arial" font-size="14.00">_PartialsController</text>
</g>
<!-- _SettingsController&#45;&gt;_PartialsController -->
<g id="edge40" class="edge">
<title>_SettingsController&#45;&gt;_PartialsController</title>
<path fill="none" stroke="black" d="M1606.47,-1187.82C1620.75,-1125.98 1669.6,-914.47 1687.16,-838.47"/>
<polygon fill="black" stroke="black" points="1690.67,-838.8 1689.51,-828.27 1683.85,-837.23 1690.67,-838.8"/>
</g>
<!-- _RecordingsController -->
<g id="node31" class="node">
<title>_RecordingsController</title>
<polygon fill="lightblue" stroke="white" points="1945,-828 1794,-828 1794,-792 1945,-792 1945,-828"/>
<text text-anchor="middle" x="1869.5" y="-806.3" font-family="Arial" font-size="14.00">_RecordingsController</text>
</g>
<!-- _SettingsController&#45;&gt;_RecordingsController -->
<g id="edge41" class="edge">
<title>_SettingsController&#45;&gt;_RecordingsController</title>
<path fill="none" stroke="black" d="M1614.14,-1187.82C1656.39,-1125.48 1801.74,-910.99 1852.13,-836.63"/>
<polygon fill="black" stroke="black" points="1855.08,-838.52 1857.79,-828.27 1849.29,-834.59 1855.08,-838.52"/>
</g>
<!-- _TagsController -->
<g id="node32" class="node">
<title>_TagsController</title>
<polygon fill="lightblue" stroke="white" points="2092,-828 1981,-828 1981,-792 2092,-792 2092,-828"/>
<text text-anchor="middle" x="2036.5" y="-806.3" font-family="Arial" font-size="14.00">_TagsController</text>
</g>
<!-- _SettingsController&#45;&gt;_TagsController -->
<g id="edge44" class="edge">
<title>_SettingsController&#45;&gt;_TagsController</title>
<path fill="none" stroke="black" d="M1621.43,-1187.82C1690.51,-1125.1 1929.25,-908.37 2009.75,-835.28"/>
<polygon fill="black" stroke="black" points="2012.42,-837.59 2017.47,-828.27 2007.72,-832.4 2012.42,-837.59"/>
</g>
<!-- _GraphBackgroundsController&#45;&gt;_SearchController -->
<g id="edge9" class="edge">
<title>_GraphBackgroundsController&#45;&gt;_SearchController</title>
<path fill="none" stroke="black" d="M2811.26,-791.82C2835.63,-729.86 2919.14,-517.6 2948.88,-442"/>
<polygon fill="black" stroke="black" points="2952.3,-442.86 2952.7,-432.27 2945.79,-440.3 2952.3,-442.86"/>
</g>
<!-- _GraphBackgroundsController&#45;&gt;_SettingsController -->
<g id="edge10" class="edge">
<title>_GraphBackgroundsController&#45;&gt;_SettingsController</title>
<path fill="none" stroke="black" d="M2758.35,-828.07C2573.63,-891.88 1889.3,-1116.24 1670.23,-1184.89"/>
<polygon fill="black" stroke="black" points="1668.96,-1181.62 1660.46,-1187.94 1671.05,-1188.3 1668.96,-1181.62"/>
</g>
<!-- _GraphqlController -->
<g id="node12" class="node">
<title>_GraphqlController</title>
<polygon fill="lightblue" stroke="white" points="1095,-432 964,-432 964,-396 1095,-396 1095,-432"/>
<text text-anchor="middle" x="1029.5" y="-410.3" font-family="Arial" font-size="14.00">_GraphqlController</text>
</g>
<!-- _GraphqlController&#45;&gt;_ExternalUsersService -->
<g id="edge11" class="edge">
<title>_GraphqlController&#45;&gt;_ExternalUsersService</title>
<path fill="none" stroke="black" d="M1077.9,-395.94C1258.63,-332.25 1893.65,-108.46 2089.52,-39.43"/>
<polygon fill="black" stroke="black" points="2090.8,-42.69 2099.06,-36.07 2088.47,-36.09 2090.8,-42.69"/>
</g>
<!-- _GraphqlController&#45;&gt;_SsoUsersService -->
<g id="edge12" class="edge">
<title>_GraphqlController&#45;&gt;_SsoUsersService</title>
<path fill="none" stroke="black" d="M1011.4,-395.82C945.34,-333.1 717.06,-116.37 640.08,-43.28"/>
<polygon fill="black" stroke="black" points="642.36,-40.62 632.69,-36.27 637.54,-45.7 642.36,-40.62"/>
</g>
<!-- _GroupdocumentsController&#45;&gt;_ResourcesController -->
<g id="edge19" class="edge">
<title>_GroupdocumentsController&#45;&gt;_ResourcesController</title>
<path fill="none" stroke="black" d="M582.48,-791.82C614.95,-729.73 726.31,-516.73 765.62,-441.54"/>
<polygon fill="black" stroke="black" points="768.94,-442.76 770.47,-432.27 762.73,-439.51 768.94,-442.76"/>
</g>
<!-- _ResourcesController&#45;&gt;_ExternalUsersService -->
<g id="edge26" class="edge">
<title>_ResourcesController&#45;&gt;_ExternalUsersService</title>
<path fill="none" stroke="black" d="M838.72,-395.94C1060.42,-332.09 1840.74,-107.35 2078.33,-38.92"/>
<polygon fill="black" stroke="black" points="2079.59,-42.2 2088.23,-36.07 2077.65,-35.47 2079.59,-42.2"/>
</g>
<!-- _ResourcesController&#45;&gt;_SsoUsersService -->
<g id="edge27" class="edge">
<title>_ResourcesController&#45;&gt;_SsoUsersService</title>
<path fill="none" stroke="black" d="M772.3,-395.82C746.3,-333.73 657.1,-120.73 625.62,-45.54"/>
<polygon fill="black" stroke="black" points="628.82,-44.15 621.73,-36.27 622.37,-46.85 628.82,-44.15"/>
</g>
<!-- _LdapSettingsController -->
<g id="node16" class="node">
<title>_LdapSettingsController</title>
<polygon fill="lightblue" stroke="white" points="3177,-2016 3016,-2016 3016,-1980 3177,-1980 3177,-2016"/>
<text text-anchor="middle" x="3096.5" y="-1994.3" font-family="Arial" font-size="14.00">_LdapSettingsController</text>
</g>
<!-- _SessionsController -->
<g id="node17" class="node">
<title>_SessionsController</title>
<polygon fill="lightblue" stroke="white" points="3254,-1620 3117,-1620 3117,-1584 3254,-1584 3254,-1620"/>
<text text-anchor="middle" x="3185.5" y="-1598.3" font-family="Arial" font-size="14.00">_SessionsController</text>
</g>
<!-- _LdapSettingsController&#45;&gt;_SessionsController -->
<g id="edge20" class="edge">
<title>_LdapSettingsController&#45;&gt;_SessionsController</title>
<path fill="none" stroke="black" d="M3100.38,-1979.82C3114.35,-1917.98 3162.13,-1706.47 3179.3,-1630.47"/>
<polygon fill="black" stroke="black" points="3182.81,-1630.8 3181.6,-1620.27 3175.98,-1629.26 3182.81,-1630.8"/>
</g>
<!-- _LoginsController -->
<g id="node18" class="node">
<title>_LoginsController</title>
<polygon fill="lightblue" stroke="white" points="3335.5,-2016 3213.5,-2016 3213.5,-1980 3335.5,-1980 3335.5,-2016"/>
<text text-anchor="middle" x="3274.5" y="-1994.3" font-family="Arial" font-size="14.00">_LoginsController</text>
</g>
<!-- _LoginsController&#45;&gt;_SessionsController -->
<g id="edge21" class="edge">
<title>_LoginsController&#45;&gt;_SessionsController</title>
<path fill="none" stroke="black" d="M3270.62,-1979.82C3256.65,-1917.98 3208.87,-1706.47 3191.7,-1630.47"/>
<polygon fill="black" stroke="black" points="3195.02,-1629.26 3189.4,-1620.27 3188.19,-1630.8 3195.02,-1629.26"/>
</g>
<!-- _NotifierService -->
<g id="node20" class="node">
<title>_NotifierService</title>
<polygon fill="lightblue" stroke="white" points="1396.5,-432 1284.5,-432 1284.5,-396 1396.5,-396 1396.5,-432"/>
<text text-anchor="middle" x="1340.5" y="-410.3" font-family="Arial" font-size="14.00">_NotifierService</text>
</g>
<!-- _NotificationsController&#45;&gt;_NotifierService -->
<g id="edge22" class="edge">
<title>_NotificationsController&#45;&gt;_NotifierService</title>
<path fill="none" stroke="black" d="M876.65,-791.82C954.18,-728.84 1222.87,-510.56 1311.73,-438.38"/>
<polygon fill="black" stroke="black" points="1313.96,-441.07 1319.51,-432.05 1309.54,-435.64 1313.96,-441.07"/>
</g>
<!-- _PrintController&#45;&gt;_ExternalUsersService -->
<g id="edge23" class="edge">
<title>_PrintController&#45;&gt;_ExternalUsersService</title>
<path fill="none" stroke="black" d="M669.51,-398.86C901.7,-339.19 1801.9,-107.82 2071.07,-38.64"/>
<polygon fill="black" stroke="black" points="2072.32,-41.94 2081.13,-36.06 2070.58,-35.16 2072.32,-41.94"/>
</g>
<!-- _PrintController&#45;&gt;_SsoUsersService -->
<g id="edge24" class="edge">
<title>_PrintController&#45;&gt;_SsoUsersService</title>
<path fill="none" stroke="black" d="M614.5,-395.82C614.5,-333.98 614.5,-122.47 614.5,-46.47"/>
<polygon fill="black" stroke="black" points="618,-46.27 614.5,-36.27 611,-46.27 618,-46.27"/>
</g>
<!-- _RegistrationsController -->
<g id="node22" class="node">
<title>_RegistrationsController</title>
<polygon fill="lightblue" stroke="white" points="3533,-2016 3372,-2016 3372,-1980 3533,-1980 3533,-2016"/>
<text text-anchor="middle" x="3452.5" y="-1994.3" font-family="Arial" font-size="14.00">_RegistrationsController</text>
</g>
<!-- _Notificationmailer -->
<g id="node23" class="node">
<title>_Notificationmailer</title>
<polygon fill="lightblue" stroke="white" points="3516.5,-1620 3388.5,-1620 3388.5,-1584 3516.5,-1584 3516.5,-1620"/>
<text text-anchor="middle" x="3452.5" y="-1598.3" font-family="Arial" font-size="14.00">_Notificationmailer</text>
</g>
<!-- _RegistrationsController&#45;&gt;_Notificationmailer -->
<g id="edge25" class="edge">
<title>_RegistrationsController&#45;&gt;_Notificationmailer</title>
<path fill="none" stroke="black" d="M3452.5,-1979.82C3452.5,-1917.98 3452.5,-1706.47 3452.5,-1630.47"/>
<polygon fill="black" stroke="black" points="3456,-1630.27 3452.5,-1620.27 3449,-1630.27 3456,-1630.27"/>
</g>
<!-- _RolesController&#45;&gt;_ExternalUsersService -->
<g id="edge28" class="edge">
<title>_RolesController&#45;&gt;_ExternalUsersService</title>
<path fill="none" stroke="black" d="M1230.97,-395.94C1385.45,-332.41 1927.28,-109.57 2096.56,-39.95"/>
<polygon fill="black" stroke="black" points="2098.08,-43.11 2106,-36.07 2095.42,-36.64 2098.08,-43.11"/>
</g>
<!-- _RolesController&#45;&gt;_SsoUsersService -->
<g id="edge29" class="edge">
<title>_RolesController&#45;&gt;_SsoUsersService</title>
<path fill="none" stroke="black" d="M1164.42,-395.82C1072.23,-332.65 752.03,-113.24 647.66,-41.72"/>
<polygon fill="black" stroke="black" points="649.61,-38.82 639.38,-36.05 645.66,-44.59 649.61,-38.82"/>
</g>
<!-- _ScanInstance&#45;&gt;_SearchController -->
<g id="edge62" class="edge">
<title>_ScanInstance&#45;&gt;_SearchController</title>
<path fill="none" stroke="black" d="M2965.46,-36.27C2975.05,-98.25 2975.49,-309.78 2966.8,-385.64"/>
<polygon fill="black" stroke="black" points="2963.29,-385.44 2965.45,-395.82 2970.23,-386.36 2963.29,-385.44"/>
</g>
<!-- _SsoSettingsController -->
<g id="node33" class="node">
<title>_SsoSettingsController</title>
<polygon fill="lightblue" stroke="white" points="2658,-432 2503,-432 2503,-396 2658,-396 2658,-432"/>
<text text-anchor="middle" x="2580.5" y="-410.3" font-family="Arial" font-size="14.00">_SsoSettingsController</text>
</g>
<!-- _SsoSettingsController&#45;&gt;_ExternalUsersService -->
<g id="edge50" class="edge">
<title>_SsoSettingsController&#45;&gt;_ExternalUsersService</title>
<path fill="none" stroke="black" d="M2561.62,-395.82C2492.69,-333.1 2254.51,-116.37 2174.19,-43.28"/>
<polygon fill="black" stroke="black" points="2176.24,-40.41 2166.48,-36.27 2171.52,-45.59 2176.24,-40.41"/>
</g>
<!-- _UsersController -->
<g id="node34" class="node">
<title>_UsersController</title>
<polygon fill="lightblue" stroke="white" points="449.5,-432 331.5,-432 331.5,-396 449.5,-396 449.5,-432"/>
<text text-anchor="middle" x="390.5" y="-410.3" font-family="Arial" font-size="14.00">_UsersController</text>
</g>
<!-- _UsersController&#45;&gt;_ActorsController -->
<g id="edge53" class="edge">
<title>_UsersController&#45;&gt;_ActorsController</title>
<path fill="none" stroke="black" d="M383.61,-395.82C358.76,-333.86 273.64,-121.6 243.33,-46"/>
<polygon fill="black" stroke="black" points="246.4,-44.25 239.43,-36.27 239.9,-46.86 246.4,-44.25"/>
</g>
<!-- _UsersController&#45;&gt;_ExternalUsersService -->
<g id="edge51" class="edge">
<title>_UsersController&#45;&gt;_ExternalUsersService</title>
<path fill="none" stroke="black" d="M449.71,-399.72C710,-341.35 1753.23,-107.41 2061.38,-38.31"/>
<polygon fill="black" stroke="black" points="2062.6,-41.63 2071.59,-36.02 2061.07,-34.8 2062.6,-41.63"/>
</g>
<!-- _UsersController&#45;&gt;_SsoUsersService -->
<g id="edge52" class="edge">
<title>_UsersController&#45;&gt;_SsoUsersService</title>
<path fill="none" stroke="black" d="M400.27,-395.82C435.64,-333.6 557.16,-119.86 599.67,-45.08"/>
<polygon fill="black" stroke="black" points="602.78,-46.7 604.68,-36.27 596.69,-43.24 602.78,-46.7"/>
</g>
<!-- _ApplicationHelper -->
<g id="node35" class="node">
<title>_ApplicationHelper</title>
<polygon fill="lightblue" stroke="white" points="2594.5,-828 2464.5,-828 2464.5,-792 2594.5,-792 2594.5,-828"/>
<text text-anchor="middle" x="2529.5" y="-806.3" font-family="Arial" font-size="14.00">_ApplicationHelper</text>
</g>
<!-- _ApplicationHelper&#45;&gt;_SearchController -->
<g id="edge56" class="edge">
<title>_ApplicationHelper&#45;&gt;_SearchController</title>
<path fill="none" stroke="black" d="M2548.25,-791.82C2616.7,-729.1 2853.24,-512.37 2933,-439.28"/>
<polygon fill="black" stroke="black" points="2935.64,-441.61 2940.65,-432.27 2930.91,-436.45 2935.64,-441.61"/>
</g>
<!-- _ApplicationHelper&#45;&gt;_ExternalUsersService -->
<g id="edge54" class="edge">
<title>_ApplicationHelper&#45;&gt;_ExternalUsersService</title>
<path fill="none" stroke="black" d="M2526.07,-791.81C2514.12,-733.93 2471.22,-541.56 2401.5,-396 2333.1,-253.2 2215.9,-102.67 2168.41,-44.24"/>
<polygon fill="black" stroke="black" points="2170.95,-41.83 2161.92,-36.3 2165.53,-46.25 2170.95,-41.83"/>
</g>
<!-- _ApplicationHelper&#45;&gt;_SsoUsersService -->
<g id="edge55" class="edge">
<title>_ApplicationHelper&#45;&gt;_SsoUsersService</title>
<path fill="none" stroke="black" d="M2464.47,-799.29C2200.39,-759.01 1209.71,-599.28 945.5,-432 783.15,-329.22 665.18,-118.78 627.41,-45.15"/>
<polygon fill="black" stroke="black" points="630.45,-43.41 622.81,-36.08 624.21,-46.58 630.45,-43.41"/>
</g>
<!-- _NotificationsHelper -->
<g id="node36" class="node">
<title>_NotificationsHelper</title>
<polygon fill="lightblue" stroke="white" points="2753,-1224 2616,-1224 2616,-1188 2753,-1188 2753,-1224"/>
<text text-anchor="middle" x="2684.5" y="-1202.3" font-family="Arial" font-size="14.00">_NotificationsHelper</text>
</g>
<!-- _NotificationsHelper&#45;&gt;_ApplicationHelper -->
<g id="edge57" class="edge">
<title>_NotificationsHelper&#45;&gt;_ApplicationHelper</title>
<path fill="none" stroke="black" d="M2677.74,-1187.82C2653.37,-1125.86 2569.86,-913.6 2540.12,-838"/>
<polygon fill="black" stroke="black" points="2543.21,-836.3 2536.3,-828.27 2536.7,-838.86 2543.21,-836.3"/>
</g>
<!-- _MissingTranslationsController -->
<g id="node37" class="node">
<title>_MissingTranslationsController</title>
<polygon fill="lightblue" stroke="white" points="3481,-828 3278,-828 3278,-792 3481,-792 3481,-828"/>
<text text-anchor="middle" x="3379.5" y="-806.3" font-family="Arial" font-size="14.00">_MissingTranslationsController</text>
</g>
<!-- _NotificationsHelper&#45;&gt;_MissingTranslationsController -->
<g id="edge58" class="edge">
<title>_NotificationsHelper&#45;&gt;_MissingTranslationsController</title>
<path fill="none" stroke="black" d="M2714.81,-1187.82C2826.58,-1124.46 3215.61,-903.91 3340.55,-833.08"/>
<polygon fill="black" stroke="black" points="3342.45,-836.03 3349.42,-828.05 3339,-829.94 3342.45,-836.03"/>
</g>
<!-- _TagsHelper -->
<g id="node38" class="node">
<title>_TagsHelper</title>
<polygon fill="lightblue" stroke="white" points="3106.5,-828 3014.5,-828 3014.5,-792 3106.5,-792 3106.5,-828"/>
<text text-anchor="middle" x="3060.5" y="-806.3" font-family="Arial" font-size="14.00">_TagsHelper</text>
</g>
<!-- _TagsHelper&#45;&gt;_SearchController -->
<g id="edge59" class="edge">
<title>_TagsHelper&#45;&gt;_SearchController</title>
<path fill="none" stroke="black" d="M3056.1,-791.82C3040.21,-729.86 2985.8,-517.6 2966.42,-442"/>
<polygon fill="black" stroke="black" points="2969.8,-441.09 2963.93,-432.27 2963.02,-442.83 2969.8,-441.09"/>
</g>
<!-- _UsersHelper -->
<g id="node39" class="node">
<title>_UsersHelper</title>
<polygon fill="lightblue" stroke="white" points="3242,-828 3143,-828 3143,-792 3242,-792 3242,-828"/>
<text text-anchor="middle" x="3192.5" y="-806.3" font-family="Arial" font-size="14.00">_UsersHelper</text>
</g>
<!-- _UsersHelper&#45;&gt;_SearchController -->
<g id="edge60" class="edge">
<title>_UsersHelper&#45;&gt;_SearchController</title>
<path fill="none" stroke="black" d="M3182.34,-791.82C3145.55,-729.6 3019.15,-515.86 2974.92,-441.08"/>
<polygon fill="black" stroke="black" points="2977.82,-439.1 2969.72,-432.27 2971.79,-442.66 2977.82,-439.1"/>
</g>
<!-- _DestroyInstance -->
<g id="node40" class="node">
<title>_DestroyInstance</title>
<polygon fill="lightblue" stroke="white" points="3440.5,-1224 3318.5,-1224 3318.5,-1188 3440.5,-1188 3440.5,-1224"/>
<text text-anchor="middle" x="3379.5" y="-1202.3" font-family="Arial" font-size="14.00">_DestroyInstance</text>
</g>
<!-- _DestroyInstance&#45;&gt;_MissingTranslationsController -->
<g id="edge61" class="edge">
<title>_DestroyInstance&#45;&gt;_MissingTranslationsController</title>
<path fill="none" stroke="black" d="M3379.5,-1187.82C3379.5,-1125.98 3379.5,-914.47 3379.5,-838.47"/>
<polygon fill="black" stroke="black" points="3383,-838.27 3379.5,-828.27 3376,-838.27 3383,-838.27"/>
</g>
<!-- _SamlNormalizerService -->
<g id="node41" class="node">
<title>_SamlNormalizerService</title>
<polygon fill="lightblue" stroke="white" points="2861,-432 2694,-432 2694,-396 2861,-396 2861,-432"/>
<text text-anchor="middle" x="2777.5" y="-410.3" font-family="Arial" font-size="14.00">_SamlNormalizerService</text>
</g>
<!-- _SamlNormalizerService&#45;&gt;_ExternalUsersService -->
<g id="edge63" class="edge">
<title>_SamlNormalizerService&#45;&gt;_ExternalUsersService</title>
<path fill="none" stroke="black" d="M2750.02,-395.82C2648.91,-332.58 2297.48,-112.79 2183.49,-41.51"/>
<polygon fill="black" stroke="black" points="2185.1,-38.39 2174.77,-36.05 2181.39,-44.32 2185.1,-38.39"/>
</g>
</g>
</svg>
