<?xml version="1.0" encoding="UTF-8" standalone="no"?>
<!DOCTYPE svg PUBLIC "-//W3C//DTD SVG 1.1//EN"
 "http://www.w3.org/Graphics/SVG/1.1/DTD/svg11.dtd">
<!-- Generated by graphviz version 2.43.0 (0)
 -->
<!-- Title: CallGraph Pages: 1 -->
<svg width="154pt" height="836pt"
 viewBox="0.00 0.00 153.50 836.00" xmlns="http://www.w3.org/2000/svg" xmlns:xlink="http://www.w3.org/1999/xlink">
<g id="graph0" class="graph" transform="scale(1 1) rotate(0) translate(4 832)">
<title>CallGraph</title>
<polygon fill="white" stroke="transparent" points="-4,4 -4,-832 149.5,-832 149.5,4 -4,4"/>
<!-- _Bar -->
<g id="node1" class="node">
<title>_Bar</title>
<polygon fill="lightblue" stroke="white" points="63.5,-432 9.5,-432 9.5,-396 63.5,-396 63.5,-432"/>
<text text-anchor="middle" x="36.5" y="-410.3" font-family="Arial" font-size="14.00">_Bar</text>
</g>
<!-- _Foo -->
<g id="node2" class="node">
<title>_Foo</title>
<polygon fill="lightblue" stroke="white" points="104.5,-36 50.5,-36 50.5,0 104.5,0 104.5,-36"/>
<text text-anchor="middle" x="77.5" y="-14.3" font-family="Arial" font-size="14.00">_Foo</text>
</g>
<!-- _Bar&#45;&gt;_Foo -->
<g id="edge1" class="edge">
<title>_Bar&#45;&gt;_Foo</title>
<path fill="none" stroke="black" d="M38.29,-395.82C44.72,-333.98 66.73,-122.47 74.64,-46.47"/>
<polygon fill="black" stroke="black" points="78.15,-46.58 75.7,-36.27 71.19,-45.86 78.15,-46.58"/>
</g>
<!-- _Baz -->
<g id="node3" class="node">
<title>_Baz</title>
<polygon fill="lightblue" stroke="white" points="145.5,-828 91.5,-828 91.5,-792 145.5,-792 145.5,-828"/>
<text text-anchor="middle" x="118.5" y="-806.3" font-family="Arial" font-size="14.00">_Baz</text>
</g>
<!-- _Baz&#45;&gt;_Bar -->
<g id="edge3" class="edge">
<title>_Baz&#45;&gt;_Bar</title>
<path fill="none" stroke="black" d="M114.92,-791.82C102.06,-729.98 58.03,-518.47 42.22,-442.47"/>
<polygon fill="black" stroke="black" points="45.56,-441.35 40.09,-432.27 38.71,-442.78 45.56,-441.35"/>
</g>
<!-- _Baz&#45;&gt;_Foo -->
<g id="edge2" class="edge">
<title>_Baz&#45;&gt;_Foo</title>
<path fill="none" stroke="black" d="M117.61,-791.77C112.34,-690.35 85.42,-171.53 78.91,-46.25"/>
<polygon fill="black" stroke="black" points="82.4,-45.81 78.38,-36.01 75.41,-46.18 82.4,-45.81"/>
</g>
<!-- _Foo2 -->
<g id="node4" class="node">
<title>_Foo2</title>
<polygon fill="lightblue" stroke="white" points="55,-828 0,-828 0,-792 55,-792 55,-828"/>
<text text-anchor="middle" x="27.5" y="-806.3" font-family="Arial" font-size="14.00">_Foo2</text>
</g>
<!-- _Foo2&#45;&gt;_Bar -->
<g id="edge4" class="edge">
<title>_Foo2&#45;&gt;_Bar</title>
<path fill="none" stroke="black" d="M27.89,-791.82C29.3,-729.98 34.14,-518.47 35.87,-442.47"/>
<polygon fill="black" stroke="black" points="39.38,-442.35 36.11,-432.27 32.38,-442.19 39.38,-442.35"/>
</g>
</g>
</svg>
