<?xml version="1.0" encoding="UTF-8" standalone="no"?>
<!DOCTYPE svg PUBLIC "-//W3C//DTD SVG 1.1//EN"
 "http://www.w3.org/Graphics/SVG/1.1/DTD/svg11.dtd">
<!-- Generated by graphviz version 2.43.0 (0)
 -->
<!-- Title: CallGraph Pages: 1 -->
<svg width="945pt" height="440pt"
 viewBox="0.00 0.00 945.00 440.00" xmlns="http://www.w3.org/2000/svg" xmlns:xlink="http://www.w3.org/1999/xlink">
<g id="graph0" class="graph" transform="scale(1 1) rotate(0) translate(4 436)">
<title>CallGraph</title>
<polygon fill="white" stroke="transparent" points="-4,4 -4,-436 941,-436 941,4 -4,4"/>
<!-- _AnnounceManager -->
<g id="node1" class="node">
<title>_AnnounceManager</title>
<polygon fill="lightblue" stroke="white" points="139,-36 0,-36 0,0 139,0 139,-36"/>
<text text-anchor="middle" x="69.5" y="-14.3" font-family="Arial" font-size="14.00">_AnnounceManager</text>
</g>
<!-- _AnnounceService -->
<g id="node2" class="node">
<title>_AnnounceService</title>
<polygon fill="lightblue" stroke="white" points="269.5,-432 139.5,-432 139.5,-396 269.5,-396 269.5,-432"/>
<text text-anchor="middle" x="204.5" y="-410.3" font-family="Arial" font-size="14.00">_AnnounceService</text>
</g>
<!-- _AnnounceService&#45;&gt;_AnnounceManager -->
<g id="edge3" class="edge">
<title>_AnnounceService&#45;&gt;_AnnounceManager</title>
<path fill="none" stroke="black" d="M198.61,-395.82C177.38,-333.86 104.65,-121.6 78.75,-46"/>
<polygon fill="black" stroke="black" points="81.97,-44.6 75.42,-36.27 75.35,-46.87 81.97,-44.6"/>
</g>
<!-- _Seller -->
<g id="node3" class="node">
<title>_Seller</title>
<polygon fill="lightblue" stroke="white" points="234,-36 175,-36 175,0 234,0 234,-36"/>
<text text-anchor="middle" x="204.5" y="-14.3" font-family="Arial" font-size="14.00">_Seller</text>
</g>
<!-- _AnnounceService&#45;&gt;_Seller -->
<g id="edge1" class="edge">
<title>_AnnounceService&#45;&gt;_Seller</title>
<path fill="none" stroke="black" d="M204.5,-395.82C204.5,-333.98 204.5,-122.47 204.5,-46.47"/>
<polygon fill="black" stroke="black" points="208,-46.27 204.5,-36.27 201,-46.27 208,-46.27"/>
</g>
<!-- _Product -->
<g id="node4" class="node">
<title>_Product</title>
<polygon fill="lightblue" stroke="white" points="341,-36 270,-36 270,0 341,0 341,-36"/>
<text text-anchor="middle" x="305.5" y="-14.3" font-family="Arial" font-size="14.00">_Product</text>
</g>
<!-- _AnnounceService&#45;&gt;_Product -->
<g id="edge2" class="edge">
<title>_AnnounceService&#45;&gt;_Product</title>
<path fill="none" stroke="black" d="M208.9,-395.82C224.79,-333.86 279.2,-121.6 298.58,-46"/>
<polygon fill="black" stroke="black" points="301.98,-46.83 301.07,-36.27 295.2,-45.09 301.98,-46.83"/>
</g>
<!-- _Buyer -->
<g id="node5" class="node">
<title>_Buyer</title>
<polygon fill="lightblue" stroke="white" points="436,-36 377,-36 377,0 436,0 436,-36"/>
<text text-anchor="middle" x="406.5" y="-14.3" font-family="Arial" font-size="14.00">_Buyer</text>
</g>
<!-- _DeliveryProcess -->
<g id="node6" class="node">
<title>_DeliveryProcess</title>
<polygon fill="lightblue" stroke="white" points="779.5,-36 657.5,-36 657.5,0 779.5,0 779.5,-36"/>
<text text-anchor="middle" x="718.5" y="-14.3" font-family="Arial" font-size="14.00">_DeliveryProcess</text>
</g>
<!-- _DeliveryService -->
<g id="node7" class="node">
<title>_DeliveryService</title>
<polygon fill="lightblue" stroke="white" points="777.5,-432 659.5,-432 659.5,-396 777.5,-396 777.5,-432"/>
<text text-anchor="middle" x="718.5" y="-410.3" font-family="Arial" font-size="14.00">_DeliveryService</text>
</g>
<!-- _DeliveryService&#45;&gt;_DeliveryProcess -->
<g id="edge4" class="edge">
<title>_DeliveryService&#45;&gt;_DeliveryProcess</title>
<path fill="none" stroke="black" d="M718.5,-395.82C718.5,-333.98 718.5,-122.47 718.5,-46.47"/>
<polygon fill="black" stroke="black" points="722,-46.27 718.5,-36.27 715,-46.27 722,-46.27"/>
</g>
<!-- _PaymentService -->
<g id="node8" class="node">
<title>_PaymentService</title>
<polygon fill="lightblue" stroke="white" points="937,-432 814,-432 814,-396 937,-396 937,-432"/>
<text text-anchor="middle" x="875.5" y="-410.3" font-family="Arial" font-size="14.00">_PaymentService</text>
</g>
<!-- _TransactionManager -->
<g id="node9" class="node">
<title>_TransactionManager</title>
<polygon fill="lightblue" stroke="white" points="621,-36 472,-36 472,0 621,0 621,-36"/>
<text text-anchor="middle" x="546.5" y="-14.3" font-family="Arial" font-size="14.00">_TransactionManager</text>
</g>
<!-- _TransactionService -->
<g id="node10" class="node">
<title>_TransactionService</title>
<polygon fill="lightblue" stroke="white" points="546.5,-432 406.5,-432 406.5,-396 546.5,-396 546.5,-432"/>
<text text-anchor="middle" x="476.5" y="-410.3" font-family="Arial" font-size="14.00">_TransactionService</text>
</g>
<!-- _TransactionService&#45;&gt;_Buyer -->
<g id="edge5" class="edge">
<title>_TransactionService&#45;&gt;_Buyer</title>
<path fill="none" stroke="black" d="M473.45,-395.82C462.46,-333.98 424.88,-122.47 411.38,-46.47"/>
<polygon fill="black" stroke="black" points="414.76,-45.51 409.57,-36.27 407.87,-46.73 414.76,-45.51"/>
</g>
<!-- _TransactionService&#45;&gt;_TransactionManager -->
<g id="edge6" class="edge">
<title>_TransactionService&#45;&gt;_TransactionManager</title>
<path fill="none" stroke="black" d="M479.55,-395.82C490.54,-333.98 528.12,-122.47 541.62,-46.47"/>
<polygon fill="black" stroke="black" points="545.13,-46.73 543.43,-36.27 538.24,-45.51 545.13,-46.73"/>
</g>
</g>
</svg>
