<?xml version="1.0" encoding="UTF-8"?>
<svg xmlns="http://www.w3.org/2000/svg" xmlns:xlink="http://www.w3.org/1999/xlink" width="375pt" height="374.999991pt" viewBox="0 0 375 374.999991" version="1.2">
<defs>
<clipPath id="clip1">
  <path d="M 26 0 L 352.558594 0 L 352.558594 375 L 26 375 Z M 26 0 "/>
</clipPath>
<clipPath id="clip2">
  <path d="M 213.59375 230 L 310.34375 230 L 310.34375 326.75 L 213.59375 326.75 Z M 213.59375 230 "/>
</clipPath>
<clipPath id="clip3">
  <path d="M 213.59375 229.3125 L 313 229.3125 L 313 327.5625 L 213.59375 327.5625 Z M 213.59375 229.3125 "/>
</clipPath>
</defs>
<g id="surface1">
<path style=" stroke:none;fill-rule:nonzero;fill:rgb(100%,100%,100%);fill-opacity:1;" d="M 289.855469 241.175781 C 289.855469 220.523438 232.148438 203.777344 160.96875 203.777344 C 89.792969 203.777344 32.085938 220.515625 32.085938 241.175781 L 32.085938 311.761719 C 32.085938 332.414062 89.792969 349.164062 160.96875 349.164062 C 232.15625 349.164062 289.855469 332.414062 289.855469 311.761719 Z M 289.855469 241.175781 "/>
<path style=" stroke:none;fill-rule:nonzero;fill:rgb(90.19928%,90.19928%,90.19928%);fill-opacity:1;" d="M 160.96875 203.777344 C 158.859375 203.777344 156.753906 203.789062 154.644531 203.820312 C 152.539062 203.851562 150.4375 203.894531 148.335938 203.957031 C 146.238281 204.015625 144.144531 204.089844 142.058594 204.179688 C 139.972656 204.269531 137.894531 204.375 135.824219 204.496094 C 133.757812 204.613281 131.699219 204.746094 129.652344 204.894531 C 127.609375 205.046875 125.574219 205.207031 123.558594 205.386719 C 121.539062 205.5625 119.535156 205.753906 117.550781 205.960938 C 115.5625 206.167969 113.597656 206.386719 111.648438 206.621094 C 109.699219 206.855469 107.773438 207.105469 105.863281 207.367188 C 103.957031 207.628906 102.074219 207.902344 100.214844 208.191406 C 98.355469 208.480469 96.519531 208.78125 94.710938 209.097656 C 92.902344 209.410156 91.121094 209.738281 89.367188 210.078125 C 87.613281 210.417969 85.886719 210.769531 84.195312 211.136719 C 82.5 211.5 80.835938 211.875 79.207031 212.265625 C 77.578125 212.652344 75.980469 213.054688 74.417969 213.464844 C 72.855469 213.875 71.328125 214.296875 69.835938 214.730469 C 68.34375 215.164062 66.890625 215.605469 65.472656 216.058594 C 64.058594 216.511719 62.679688 216.976562 61.339844 217.449219 C 60.003906 217.921875 58.707031 218.40625 57.449219 218.898438 C 56.191406 219.386719 54.980469 219.886719 53.808594 220.398438 C 52.636719 220.90625 51.507812 221.421875 50.421875 221.949219 C 49.339844 222.472656 48.296875 223.003906 47.304688 223.546875 C 46.308594 224.085938 45.363281 224.632812 44.460938 225.183594 C 43.558594 225.738281 42.703125 226.296875 41.898438 226.863281 C 41.089844 227.429688 40.332031 228 39.621094 228.574219 C 38.910156 229.152344 38.25 229.734375 37.636719 230.320312 C 37.023438 230.90625 36.460938 231.496094 35.949219 232.089844 C 35.4375 232.683594 34.972656 233.277344 34.5625 233.878906 C 34.152344 234.480469 33.789062 235.082031 33.480469 235.6875 C 33.171875 236.292969 32.914062 236.902344 32.707031 237.511719 C 32.5 238.121094 32.34375 238.730469 32.242188 239.339844 C 32.136719 239.953125 32.085938 240.5625 32.085938 241.175781 C 32.085938 241.789062 32.136719 242.398438 32.242188 243.011719 C 32.34375 243.621094 32.5 244.234375 32.707031 244.84375 C 32.914062 245.449219 33.171875 246.058594 33.480469 246.664062 C 33.789062 247.269531 34.152344 247.871094 34.5625 248.472656 C 34.972656 249.074219 35.4375 249.667969 35.949219 250.261719 C 36.460938 250.855469 37.023438 251.445312 37.636719 252.03125 C 38.25 252.617188 38.910156 253.199219 39.621094 253.777344 C 40.332031 254.351562 41.089844 254.921875 41.898438 255.488281 C 42.703125 256.054688 43.558594 256.613281 44.460938 257.167969 C 45.363281 257.71875 46.308594 258.265625 47.304688 258.804688 C 48.296875 259.347656 49.339844 259.878906 50.421875 260.402344 C 51.507812 260.929688 52.636719 261.445312 53.808594 261.953125 C 54.980469 262.464844 56.191406 262.964844 57.449219 263.457031 C 58.707031 263.945312 60.003906 264.429688 61.339844 264.902344 C 62.679688 265.375 64.058594 265.839844 65.472656 266.292969 C 66.890625 266.746094 68.34375 267.1875 69.835938 267.621094 C 71.328125 268.054688 72.855469 268.476562 74.417969 268.886719 C 75.980469 269.300781 77.578125 269.699219 79.207031 270.085938 C 80.835938 270.476562 82.5 270.851562 84.195312 271.214844 C 85.886719 271.582031 87.613281 271.933594 89.367188 272.273438 C 91.121094 272.613281 92.902344 272.941406 94.710938 273.253906 C 96.519531 273.570312 98.355469 273.871094 100.214844 274.160156 C 102.074219 274.449219 103.957031 274.722656 105.863281 274.984375 C 107.773438 275.246094 109.699219 275.496094 111.648438 275.730469 C 113.597656 275.964844 115.5625 276.183594 117.550781 276.390625 C 119.535156 276.597656 121.539062 276.789062 123.558594 276.964844 C 125.574219 277.144531 127.609375 277.308594 129.652344 277.457031 C 131.699219 277.605469 133.757812 277.738281 135.824219 277.859375 C 137.894531 277.976562 139.972656 278.082031 142.058594 278.171875 C 144.144531 278.261719 146.238281 278.335938 148.335938 278.398438 C 150.4375 278.457031 152.539062 278.5 154.644531 278.53125 C 156.753906 278.5625 158.859375 278.578125 160.96875 278.578125 C 163.078125 278.578125 165.1875 278.5625 167.292969 278.53125 C 169.402344 278.5 171.503906 278.457031 173.601562 278.398438 C 175.703125 278.335938 177.792969 278.261719 179.882812 278.171875 C 181.96875 278.082031 184.046875 277.976562 186.113281 277.859375 C 188.183594 277.738281 190.238281 277.605469 192.285156 277.457031 C 194.332031 277.308594 196.363281 277.144531 198.382812 276.964844 C 200.402344 276.789062 202.402344 276.597656 204.390625 276.390625 C 206.375 276.183594 208.34375 275.964844 210.292969 275.730469 C 212.242188 275.496094 214.167969 275.246094 216.074219 274.984375 C 217.980469 274.722656 219.863281 274.449219 221.726562 274.160156 C 223.585938 273.871094 225.421875 273.570312 227.230469 273.253906 C 229.039062 272.941406 230.820312 272.613281 232.574219 272.273438 C 234.328125 271.933594 236.050781 271.582031 237.746094 271.214844 C 239.441406 270.851562 241.101562 270.476562 242.734375 270.085938 C 244.363281 269.699219 245.960938 269.300781 247.523438 268.886719 C 249.085938 268.476562 250.613281 268.054688 252.105469 267.621094 C 253.597656 267.1875 255.050781 266.746094 256.464844 266.292969 C 257.882812 265.839844 259.261719 265.375 260.597656 264.902344 C 261.9375 264.429688 263.234375 263.945312 264.492188 263.457031 C 265.746094 262.964844 266.960938 262.464844 268.132812 261.953125 C 269.304688 261.445312 270.433594 260.929688 271.515625 260.402344 C 272.601562 259.878906 273.640625 259.347656 274.636719 258.804688 C 275.628906 258.265625 276.578125 257.71875 277.480469 257.167969 C 278.382812 256.613281 279.234375 256.054688 280.042969 255.488281 C 280.851562 254.921875 281.609375 254.351562 282.320312 253.777344 C 283.03125 253.199219 283.691406 252.617188 284.304688 252.03125 C 284.917969 251.445312 285.480469 250.855469 285.992188 250.261719 C 286.503906 249.667969 286.964844 249.074219 287.378906 248.472656 C 287.789062 247.871094 288.148438 247.269531 288.457031 246.664062 C 288.769531 246.058594 289.027344 245.449219 289.234375 244.84375 C 289.441406 244.234375 289.59375 243.621094 289.699219 243.011719 C 289.800781 242.398438 289.855469 241.789062 289.855469 241.175781 C 289.855469 240.5625 289.800781 239.953125 289.699219 239.339844 C 289.59375 238.730469 289.441406 238.121094 289.234375 237.511719 C 289.027344 236.902344 288.769531 236.292969 288.457031 235.6875 C 288.148438 235.082031 287.789062 234.480469 287.378906 233.878906 C 286.964844 233.277344 286.503906 232.683594 285.992188 232.089844 C 285.480469 231.496094 284.917969 230.90625 284.304688 230.320312 C 283.691406 229.734375 283.03125 229.152344 282.320312 228.574219 C 281.609375 228 280.851562 227.429688 280.042969 226.863281 C 279.234375 226.296875 278.382812 225.738281 277.480469 225.183594 C 276.578125 224.632812 275.628906 224.085938 274.636719 223.546875 C 273.640625 223.003906 272.601562 222.472656 271.515625 221.949219 C 270.433594 221.421875 269.304688 220.90625 268.132812 220.398438 C 266.960938 219.886719 265.746094 219.386719 264.492188 218.898438 C 263.234375 218.40625 261.9375 217.921875 260.597656 217.449219 C 259.261719 216.976562 257.882812 216.511719 256.464844 216.058594 C 255.050781 215.605469 253.597656 215.164062 252.105469 214.730469 C 250.613281 214.296875 249.085938 213.875 247.523438 213.464844 C 245.960938 213.054688 244.363281 212.652344 242.734375 212.265625 C 241.101562 211.875 239.441406 211.5 237.746094 211.136719 C 236.050781 210.769531 234.328125 210.417969 232.574219 210.078125 C 230.820312 209.738281 229.039062 209.410156 227.230469 209.097656 C 225.421875 208.78125 223.585938 208.480469 221.726562 208.191406 C 219.863281 207.902344 217.980469 207.628906 216.074219 207.367188 C 214.167969 207.105469 212.242188 206.855469 210.292969 206.621094 C 208.34375 206.386719 206.375 206.167969 204.390625 205.960938 C 202.402344 205.753906 200.402344 205.5625 198.382812 205.386719 C 196.363281 205.207031 194.332031 205.046875 192.285156 204.894531 C 190.238281 204.746094 188.183594 204.613281 186.113281 204.496094 C 184.046875 204.375 181.96875 204.269531 179.882812 204.179688 C 177.792969 204.089844 175.703125 204.015625 173.601562 203.957031 C 171.503906 203.894531 169.402344 203.851562 167.292969 203.820312 C 165.1875 203.789062 163.078125 203.777344 160.96875 203.777344 Z M 160.96875 203.777344 "/>
<path style=" stroke:none;fill-rule:nonzero;fill:rgb(100%,100%,100%);fill-opacity:1;" d="M 289.855469 138.335938 C 289.855469 117.679688 232.148438 100.933594 160.96875 100.933594 C 89.792969 100.933594 32.085938 117.679688 32.085938 138.335938 L 32.085938 208.921875 C 32.085938 229.574219 89.792969 246.320312 160.96875 246.320312 C 232.15625 246.320312 289.855469 229.574219 289.855469 208.921875 Z M 289.855469 138.335938 "/>
<path style=" stroke:none;fill-rule:nonzero;fill:rgb(90.19928%,90.19928%,90.19928%);fill-opacity:1;" d="M 235.8125 168.789062 C 214.710938 173.164062 188.875 175.734375 160.96875 175.734375 C 89.785156 175.734375 32.085938 158.988281 32.085938 138.335938 C 32.085938 117.679688 89.792969 100.933594 160.96875 100.933594 C 232.148438 100.933594 289.855469 117.679688 289.855469 138.335938 C 289.855469 146.082031 281.734375 153.277344 267.839844 159.25 "/>
<path style=" stroke:none;fill-rule:nonzero;fill:rgb(100%,100%,100%);fill-opacity:1;" d="M 289.855469 41.933594 C 289.855469 21.277344 232.148438 4.53125 160.96875 4.53125 C 89.792969 4.53125 32.085938 21.273438 32.085938 41.933594 L 32.085938 112.519531 C 32.085938 133.171875 89.792969 149.917969 160.96875 149.917969 C 232.15625 149.917969 289.855469 133.171875 289.855469 112.519531 Z M 289.855469 41.933594 "/>
<path style=" stroke:none;fill-rule:nonzero;fill:rgb(90.19928%,90.19928%,90.19928%);fill-opacity:1;" d="M 48.726562 60.328125 C 38.128906 54.898438 32.085938 48.617188 32.085938 41.933594 C 32.085938 21.277344 89.792969 4.53125 160.96875 4.53125 C 232.148438 4.53125 289.855469 21.277344 289.855469 41.933594 C 289.855469 62.585938 232.148438 79.332031 160.96875 79.332031 C 126.300781 79.332031 94.828125 75.359375 71.664062 68.898438 "/>
<path style=" stroke:none;fill-rule:nonzero;fill:rgb(100%,100%,100%);fill-opacity:1;" d="M 259.046875 191.667969 C 257.621094 191.667969 256.199219 191.703125 254.777344 191.773438 C 253.355469 191.839844 251.9375 191.945312 250.519531 192.085938 C 249.101562 192.226562 247.691406 192.398438 246.28125 192.609375 C 244.875 192.816406 243.472656 193.058594 242.074219 193.335938 C 240.679688 193.613281 239.292969 193.925781 237.910156 194.273438 C 236.53125 194.617188 235.15625 194.996094 233.796875 195.410156 C 232.433594 195.820312 231.082031 196.269531 229.742188 196.746094 C 228.402344 197.226562 227.074219 197.738281 225.757812 198.28125 C 224.441406 198.828125 223.140625 199.402344 221.855469 200.011719 C 220.566406 200.621094 219.296875 201.257812 218.042969 201.929688 C 216.785156 202.601562 215.546875 203.300781 214.328125 204.03125 C 213.105469 204.761719 211.902344 205.523438 210.71875 206.3125 C 209.535156 207.105469 208.371094 207.921875 207.230469 208.769531 C 206.085938 209.617188 204.964844 210.492188 203.863281 211.394531 C 202.761719 212.296875 201.683594 213.226562 200.628906 214.179688 C 199.574219 215.136719 198.546875 216.117188 197.539062 217.121094 C 196.53125 218.128906 195.550781 219.15625 194.59375 220.210938 C 193.636719 221.265625 192.710938 222.34375 191.804688 223.441406 C 190.902344 224.542969 190.027344 225.664062 189.179688 226.804688 C 188.332031 227.945312 187.511719 229.109375 186.722656 230.292969 C 185.929688 231.476562 185.167969 232.675781 184.4375 233.894531 C 183.703125 235.117188 183.003906 236.351562 182.332031 237.609375 C 181.660156 238.863281 181.019531 240.132812 180.414062 241.417969 C 179.804688 242.703125 179.226562 244.003906 178.683594 245.316406 C 178.136719 246.632812 177.625 247.957031 177.144531 249.296875 C 176.667969 250.636719 176.21875 251.988281 175.808594 253.347656 C 175.394531 254.710938 175.015625 256.078125 174.667969 257.460938 C 174.324219 258.839844 174.011719 260.226562 173.734375 261.621094 C 173.453125 263.015625 173.210938 264.417969 173.003906 265.824219 C 172.792969 267.230469 172.621094 268.640625 172.480469 270.058594 C 172.339844 271.472656 172.234375 272.890625 172.167969 274.3125 C 172.097656 275.734375 172.0625 277.152344 172.0625 278.578125 C 172.0625 280 172.097656 281.421875 172.167969 282.839844 C 172.234375 284.261719 172.339844 285.679688 172.480469 287.09375 C 172.621094 288.511719 172.792969 289.921875 173.003906 291.328125 C 173.210938 292.734375 173.453125 294.136719 173.734375 295.53125 C 174.011719 296.925781 174.324219 298.3125 174.667969 299.695312 C 175.015625 301.074219 175.394531 302.445312 175.808594 303.804688 C 176.21875 305.167969 176.667969 306.515625 177.144531 307.855469 C 177.625 309.195312 178.136719 310.519531 178.683594 311.835938 C 179.226562 313.148438 179.804688 314.449219 180.414062 315.734375 C 181.019531 317.019531 181.660156 318.289062 182.332031 319.546875 C 183.003906 320.800781 183.703125 322.035156 184.4375 323.257812 C 185.167969 324.476562 185.929688 325.679688 186.722656 326.859375 C 187.511719 328.042969 188.332031 329.207031 189.179688 330.347656 C 190.027344 331.492188 190.902344 332.613281 191.804688 333.710938 C 192.710938 334.8125 193.636719 335.886719 194.59375 336.941406 C 195.550781 337.996094 196.53125 339.023438 197.539062 340.03125 C 198.546875 341.035156 199.574219 342.015625 200.628906 342.972656 C 201.683594 343.925781 202.761719 344.855469 203.863281 345.757812 C 204.964844 346.660156 206.085938 347.535156 207.230469 348.382812 C 208.371094 349.230469 209.535156 350.050781 210.71875 350.839844 C 211.902344 351.628906 213.105469 352.390625 214.328125 353.121094 C 215.546875 353.851562 216.785156 354.554688 218.042969 355.222656 C 219.296875 355.894531 220.566406 356.535156 221.855469 357.140625 C 223.140625 357.75 224.441406 358.328125 225.757812 358.871094 C 227.074219 359.414062 228.402344 359.925781 229.742188 360.40625 C 231.082031 360.886719 232.433594 361.332031 233.796875 361.742188 C 235.15625 362.15625 236.53125 362.535156 237.910156 362.882812 C 239.292969 363.226562 240.679688 363.539062 242.074219 363.816406 C 243.472656 364.09375 244.875 364.335938 246.28125 364.546875 C 247.691406 364.753906 249.101562 364.929688 250.519531 365.066406 C 251.9375 365.207031 253.355469 365.3125 254.777344 365.382812 C 256.199219 365.453125 257.621094 365.484375 259.046875 365.484375 C 260.46875 365.484375 261.890625 365.453125 263.3125 365.382812 C 264.734375 365.3125 266.15625 365.207031 267.570312 365.066406 C 268.988281 364.929688 270.402344 364.753906 271.808594 364.546875 C 273.21875 364.335938 274.621094 364.09375 276.015625 363.816406 C 277.410156 363.539062 278.800781 363.226562 280.179688 362.882812 C 281.5625 362.535156 282.933594 362.15625 284.296875 361.742188 C 285.660156 361.332031 287.007812 360.886719 288.351562 360.40625 C 289.691406 359.925781 291.019531 359.414062 292.332031 358.871094 C 293.648438 358.328125 294.949219 357.75 296.238281 357.140625 C 297.523438 356.535156 298.792969 355.894531 300.050781 355.222656 C 301.304688 354.554688 302.542969 353.851562 303.765625 353.121094 C 304.984375 352.390625 306.1875 351.628906 307.371094 350.839844 C 308.554688 350.050781 309.71875 349.230469 310.863281 348.382812 C 312.003906 347.535156 313.128906 346.660156 314.226562 345.757812 C 315.328125 344.855469 316.40625 343.925781 317.460938 342.972656 C 318.515625 342.015625 319.546875 341.035156 320.554688 340.03125 C 321.558594 339.023438 322.539062 337.996094 323.496094 336.941406 C 324.453125 335.886719 325.382812 334.8125 326.285156 333.710938 C 327.1875 332.613281 328.0625 331.492188 328.914062 330.347656 C 329.761719 329.207031 330.578125 328.042969 331.371094 326.859375 C 332.160156 325.679688 332.921875 324.476562 333.65625 323.257812 C 334.386719 322.035156 335.089844 320.800781 335.757812 319.546875 C 336.429688 318.289062 337.070312 317.019531 337.679688 315.734375 C 338.289062 314.449219 338.863281 313.148438 339.410156 311.835938 C 339.953125 310.519531 340.464844 309.195312 340.945312 307.855469 C 341.425781 306.515625 341.871094 305.167969 342.285156 303.804688 C 342.699219 302.445312 343.078125 301.074219 343.421875 299.695312 C 343.769531 298.3125 344.082031 296.925781 344.359375 295.53125 C 344.636719 294.136719 344.878906 292.734375 345.089844 291.328125 C 345.296875 289.921875 345.472656 288.511719 345.613281 287.09375 C 345.75 285.679688 345.855469 284.261719 345.925781 282.839844 C 345.996094 281.421875 346.03125 280 346.03125 278.578125 C 346.03125 277.152344 345.996094 275.734375 345.925781 274.3125 C 345.855469 272.890625 345.75 271.472656 345.613281 270.058594 C 345.472656 268.640625 345.296875 267.230469 345.089844 265.824219 C 344.878906 264.417969 344.636719 263.015625 344.359375 261.621094 C 344.082031 260.226562 343.769531 258.839844 343.421875 257.460938 C 343.078125 256.078125 342.699219 254.710938 342.285156 253.347656 C 341.871094 251.988281 341.425781 250.636719 340.945312 249.296875 C 340.464844 247.957031 339.953125 246.632812 339.410156 245.316406 C 338.863281 244.003906 338.289062 242.703125 337.679688 241.417969 C 337.070312 240.132812 336.429688 238.863281 335.757812 237.609375 C 335.089844 236.351562 334.386719 235.117188 333.65625 233.894531 C 332.921875 232.675781 332.160156 231.476562 331.371094 230.292969 C 330.578125 229.109375 329.761719 227.945312 328.914062 226.804688 C 328.0625 225.664062 327.1875 224.542969 326.285156 223.441406 C 325.382812 222.34375 324.453125 221.265625 323.496094 220.210938 C 322.539062 219.15625 321.558594 218.128906 320.554688 217.121094 C 319.546875 216.117188 318.515625 215.136719 317.460938 214.179688 C 316.40625 213.226562 315.328125 212.296875 314.226562 211.394531 C 313.128906 210.492188 312.003906 209.617188 310.863281 208.769531 C 309.71875 207.921875 308.554688 207.105469 307.371094 206.3125 C 306.1875 205.523438 304.984375 204.761719 303.765625 204.03125 C 302.542969 203.300781 301.304688 202.601562 300.050781 201.929688 C 298.792969 201.257812 297.523438 200.621094 296.238281 200.011719 C 294.949219 199.402344 293.648438 198.828125 292.332031 198.28125 C 291.019531 197.738281 289.691406 197.226562 288.351562 196.746094 C 287.007812 196.269531 285.660156 195.820312 284.296875 195.410156 C 282.933594 194.996094 281.5625 194.617188 280.179688 194.273438 C 278.800781 193.925781 277.410156 193.613281 276.015625 193.335938 C 274.621094 193.058594 273.21875 192.816406 271.808594 192.609375 C 270.402344 192.398438 268.988281 192.226562 267.570312 192.085938 C 266.15625 191.945312 264.734375 191.839844 263.3125 191.773438 C 261.890625 191.703125 260.46875 191.667969 259.046875 191.667969 Z M 259.046875 191.667969 "/>
<path style=" stroke:none;fill-rule:nonzero;fill:rgb(32.939148%,32.939148%,32.939148%);fill-opacity:1;" d="M 299.921875 241.273438 C 298.425781 240.503906 296.617188 241.128906 295.867188 242.613281 L 259.160156 315.589844 L 237.214844 277.75 C 236.378906 276.304688 234.535156 275.816406 233.078125 276.648438 C 231.632812 277.488281 231.144531 279.332031 231.980469 280.78125 L 256.730469 323.449219 C 257.273438 324.378906 258.273438 324.953125 259.347656 324.953125 C 259.378906 324.953125 259.410156 324.953125 259.4375 324.953125 C 260.542969 324.914062 261.546875 324.28125 262.050781 323.289062 L 301.265625 245.324219 C 302.019531 243.832031 301.417969 242.023438 299.921875 241.273438 Z M 250.589844 165.113281 L 247.496094 165.957031 C 245.882812 166.386719 244.921875 168.046875 245.355469 169.652344 C 245.71875 171.007812 246.9375 171.894531 248.273438 171.894531 C 248.527344 171.894531 248.792969 171.863281 249.054688 171.792969 L 252.226562 170.921875 C 253.835938 170.46875 254.765625 168.796875 254.320312 167.195312 C 253.867188 165.597656 252.214844 164.671875 250.589844 165.113281 Z M 65.058594 66.410156 L 62.925781 65.679688 C 61.382812 65.105469 59.628906 65.9375 59.066406 67.515625 C 58.507812 69.085938 59.328125 70.8125 60.90625 71.367188 L 63.128906 72.132812 C 63.449219 72.25 63.769531 72.289062 64.089844 72.289062 C 65.355469 72.289062 66.527344 71.492188 66.957031 70.230469 C 67.488281 68.65625 66.636719 66.941406 65.058594 66.410156 Z M 65.058594 66.410156 "/>
<g clip-path="url(#clip1)" clip-rule="nonzero">
<path style=" stroke:none;fill-rule:nonzero;fill:rgb(32.939148%,32.939148%,32.939148%);fill-opacity:1;" d="M 298.160156 196.382812 L 298.160156 140.914062 C 298.160156 136.371094 296.371094 132.199219 293.21875 128.347656 C 296.410156 124.46875 298.160156 120.246094 298.160156 115.675781 L 298.160156 44.503906 C 298.160156 15.777344 229.742188 0.75 162.160156 0.75 C 94.578125 0.75 26.164062 15.78125 26.164062 44.503906 L 26.164062 115.671875 C 26.164062 120.234375 27.902344 124.457031 31.089844 128.328125 C 27.925781 132.179688 26.164062 136.367188 26.164062 140.90625 L 26.164062 212.078125 C 26.164062 217.9375 29.046875 223.214844 34.152344 227.925781 C 29.050781 232.628906 26.164062 237.902344 26.164062 243.753906 L 26.164062 314.925781 C 26.164062 343.648438 94.578125 358.675781 162.160156 358.675781 C 176.175781 358.675781 190.1875 357.984375 203.660156 356.699219 C 219.164062 368.054688 238.21875 374.847656 258.871094 374.847656 C 310.53125 374.847656 352.558594 332.855469 352.558594 281.238281 C 352.558594 243.65625 330.222656 211.265625 298.160156 196.382812 Z M 258.871094 187.640625 C 220.621094 187.640625 187.699219 210.691406 173.160156 243.589844 C 169.566406 243.6875 165.925781 243.761719 162.160156 243.761719 C 85.390625 243.761719 38.25 225.3125 38.25 212.085938 L 38.25 156.035156 C 58.355469 172.300781 110.632812 181.628906 161.554688 181.628906 C 188.78125 181.628906 214.867188 179.207031 237.007812 174.617188 C 238.644531 174.28125 239.691406 172.6875 239.351562 171.050781 C 239.015625 169.414062 237.382812 168.351562 235.78125 168.707031 C 214.039062 173.207031 188.367188 175.589844 161.554688 175.589844 C 96.960938 175.589844 49.453125 161.84375 38.25 147.558594 L 38.25 140.914062 C 38.25 139.398438 38.957031 137.804688 40.191406 136.183594 C 63.644531 151.511719 113.109375 159.4375 162.160156 159.4375 C 211.222656 159.4375 260.707031 151.507812 284.148438 136.171875 C 285.386719 137.792969 286.070312 139.386719 286.070312 140.90625 L 286.070312 145.867188 C 283.429688 150.503906 276.972656 155.160156 267.242188 159.34375 C 265.707031 159.996094 265 161.777344 265.660156 163.308594 C 266.3125 164.847656 268.09375 165.554688 269.625 164.890625 C 276.652344 161.863281 282.105469 158.53125 286.070312 154.984375 L 286.070312 191.691406 C 277.457031 189.070312 268.328125 187.640625 258.871094 187.640625 Z M 165.339844 278.136719 C 163.285156 278.171875 161.246094 278.226562 159.136719 278.226562 C 99.222656 278.226562 53.9375 266.992188 38.25 254.449219 L 38.25 243.753906 C 38.25 241.011719 40.347656 238.042969 44.285156 235.0625 C 69.078125 248.773438 115.8125 255.839844 162.160156 255.839844 C 164.378906 255.839844 166.589844 255.777344 168.804688 255.75 C 166.773438 262.898438 165.59375 270.398438 165.339844 278.136719 Z M 38.25 115.675781 L 38.25 59.675781 C 40.894531 61.824219 44.078125 63.894531 47.933594 65.878906 C 49.414062 66.644531 51.246094 66.066406 52.003906 64.574219 C 52.769531 63.085938 52.175781 61.269531 50.695312 60.507812 C 46.210938 58.203125 41.199219 55 38.25 51.207031 L 38.25 44.511719 C 38.25 31.285156 85.390625 12.835938 162.160156 12.835938 C 238.929688 12.835938 286.070312 31.277344 286.070312 44.503906 L 286.070312 49.171875 C 277.886719 64.144531 229.121094 79.175781 161.554688 79.175781 C 128.367188 79.175781 96.941406 75.507812 73.0625 68.855469 C 71.433594 68.394531 69.785156 69.351562 69.335938 70.949219 C 68.890625 72.5625 69.828125 74.222656 71.433594 74.671875 C 95.828125 81.46875 127.835938 85.214844 161.554688 85.214844 C 213.550781 85.214844 266.941406 75.484375 286.070312 58.589844 L 286.070312 115.671875 C 286.070312 128.894531 238.929688 147.34375 162.160156 147.34375 C 85.390625 147.34375 38.25 128.902344 38.25 115.675781 Z M 38.25 314.925781 L 38.25 262.132812 C 60.722656 276.609375 111.050781 284.265625 159.136719 284.265625 C 161.199219 284.265625 163.265625 284.21875 165.335938 284.1875 C 166.078125 307.9375 175.675781 329.449219 190.992188 345.574219 C 181.890625 346.183594 172.382812 346.597656 162.167969 346.597656 C 85.390625 346.597656 38.25 328.144531 38.25 314.925781 Z M 258.871094 362.773438 C 213.875 362.773438 177.273438 326.203125 177.273438 281.246094 C 177.273438 236.289062 213.875 199.71875 258.871094 199.71875 C 303.863281 199.71875 340.46875 236.285156 340.46875 281.246094 C 340.46875 326.207031 303.863281 362.773438 258.871094 362.773438 Z M 258.871094 362.773438 "/>
</g>
<path style=" stroke:none;fill-rule:nonzero;fill:rgb(100%,100%,100%);fill-opacity:1;" d="M 263.457031 204 C 262.234375 204 261.015625 204.03125 259.796875 204.089844 C 258.578125 204.148438 257.363281 204.238281 256.148438 204.359375 C 254.9375 204.480469 253.726562 204.628906 252.519531 204.808594 C 251.3125 204.984375 250.109375 205.195312 248.914062 205.433594 C 247.71875 205.671875 246.527344 205.9375 245.34375 206.234375 C 244.160156 206.53125 242.984375 206.855469 241.816406 207.210938 C 240.652344 207.5625 239.492188 207.945312 238.34375 208.355469 C 237.195312 208.769531 236.058594 209.207031 234.929688 209.675781 C 233.804688 210.140625 232.6875 210.636719 231.585938 211.15625 C 230.484375 211.679688 229.394531 212.226562 228.320312 212.800781 C 227.242188 213.375 226.183594 213.976562 225.136719 214.605469 C 224.089844 215.230469 223.058594 215.882812 222.042969 216.5625 C 221.03125 217.238281 220.03125 217.941406 219.054688 218.667969 C 218.074219 219.394531 217.113281 220.144531 216.167969 220.917969 C 215.226562 221.691406 214.304688 222.488281 213.398438 223.308594 C 212.496094 224.128906 211.613281 224.96875 210.75 225.832031 C 209.886719 226.695312 209.046875 227.578125 208.226562 228.480469 C 207.40625 229.386719 206.609375 230.308594 205.835938 231.25 C 205.0625 232.195312 204.3125 233.15625 203.585938 234.136719 C 202.859375 235.117188 202.15625 236.113281 201.480469 237.128906 C 200.800781 238.140625 200.148438 239.171875 199.523438 240.21875 C 198.894531 241.265625 198.292969 242.324219 197.71875 243.402344 C 197.144531 244.476562 196.59375 245.566406 196.074219 246.667969 C 195.550781 247.773438 195.058594 248.886719 194.589844 250.015625 C 194.125 251.140625 193.6875 252.277344 193.273438 253.425781 C 192.863281 254.574219 192.480469 255.734375 192.128906 256.902344 C 191.773438 258.066406 191.449219 259.242188 191.152344 260.425781 C 190.855469 261.609375 190.585938 262.800781 190.351562 263.996094 C 190.113281 265.191406 189.902344 266.394531 189.722656 267.601562 C 189.546875 268.808594 189.394531 270.019531 189.277344 271.230469 C 189.15625 272.445312 189.066406 273.664062 189.007812 274.878906 C 188.949219 276.097656 188.917969 277.316406 188.917969 278.539062 C 188.917969 279.757812 188.949219 280.976562 189.007812 282.195312 C 189.066406 283.414062 189.15625 284.628906 189.277344 285.84375 C 189.394531 287.058594 189.546875 288.269531 189.722656 289.476562 C 189.902344 290.683594 190.113281 291.882812 190.351562 293.078125 C 190.585938 294.277344 190.855469 295.464844 191.152344 296.648438 C 191.449219 297.832031 191.773438 299.007812 192.128906 300.175781 C 192.480469 301.34375 192.863281 302.5 193.273438 303.648438 C 193.6875 304.796875 194.125 305.9375 194.589844 307.0625 C 195.058594 308.191406 195.550781 309.304688 196.074219 310.40625 C 196.59375 311.511719 197.144531 312.597656 197.71875 313.675781 C 198.292969 314.75 198.894531 315.8125 199.523438 316.859375 C 200.148438 317.90625 200.800781 318.933594 201.480469 319.949219 C 202.15625 320.964844 202.859375 321.960938 203.585938 322.941406 C 204.3125 323.921875 205.0625 324.882812 205.835938 325.824219 C 206.609375 326.769531 207.40625 327.691406 208.226562 328.59375 C 209.046875 329.5 209.886719 330.382812 210.75 331.246094 C 211.613281 332.105469 212.496094 332.949219 213.398438 333.765625 C 214.304688 334.585938 215.226562 335.382812 216.167969 336.15625 C 217.113281 336.929688 218.074219 337.679688 219.054688 338.40625 C 220.03125 339.132812 221.03125 339.835938 222.042969 340.515625 C 223.058594 341.191406 224.089844 341.84375 225.136719 342.472656 C 226.183594 343.097656 227.242188 343.699219 228.320312 344.273438 C 229.394531 344.851562 230.484375 345.398438 231.585938 345.917969 C 232.6875 346.441406 233.804688 346.9375 234.929688 347.402344 C 236.058594 347.871094 237.195312 348.308594 238.34375 348.71875 C 239.492188 349.128906 240.652344 349.511719 241.816406 349.867188 C 242.984375 350.222656 244.160156 350.546875 245.34375 350.84375 C 246.527344 351.140625 247.71875 351.40625 248.914062 351.644531 C 250.109375 351.882812 251.3125 352.089844 252.519531 352.269531 C 253.726562 352.449219 254.9375 352.597656 256.148438 352.71875 C 257.363281 352.835938 258.578125 352.925781 259.796875 352.988281 C 261.015625 353.046875 262.234375 353.078125 263.457031 353.078125 C 264.675781 353.078125 265.894531 353.046875 267.113281 352.988281 C 268.332031 352.925781 269.546875 352.835938 270.761719 352.71875 C 271.976562 352.597656 273.1875 352.449219 274.394531 352.269531 C 275.597656 352.089844 276.800781 351.882812 277.996094 351.644531 C 279.195312 351.40625 280.382812 351.140625 281.566406 350.84375 C 282.75 350.546875 283.925781 350.222656 285.09375 349.867188 C 286.261719 349.511719 287.417969 349.128906 288.566406 348.71875 C 289.714844 348.308594 290.851562 347.871094 291.980469 347.402344 C 293.105469 346.9375 294.222656 346.441406 295.324219 345.917969 C 296.425781 345.398438 297.515625 344.851562 298.59375 344.273438 C 299.667969 343.699219 300.730469 343.097656 301.777344 342.472656 C 302.820312 341.84375 303.851562 341.191406 304.867188 340.515625 C 305.882812 339.835938 306.878906 339.132812 307.859375 338.40625 C 308.835938 337.679688 309.800781 336.929688 310.742188 336.15625 C 311.683594 335.382812 312.609375 334.585938 313.511719 333.765625 C 314.417969 332.949219 315.300781 332.105469 316.160156 331.246094 C 317.023438 330.382812 317.867188 329.5 318.683594 328.59375 C 319.503906 327.691406 320.300781 326.769531 321.074219 325.824219 C 321.847656 324.882812 322.597656 323.921875 323.324219 322.941406 C 324.050781 321.960938 324.753906 320.964844 325.433594 319.949219 C 326.109375 318.933594 326.761719 317.90625 327.390625 316.859375 C 328.015625 315.8125 328.617188 314.75 329.191406 313.675781 C 329.765625 312.597656 330.316406 311.511719 330.835938 310.40625 C 331.359375 309.304688 331.851562 308.191406 332.320312 307.0625 C 332.785156 305.9375 333.226562 304.796875 333.636719 303.648438 C 334.046875 302.5 334.429688 301.34375 334.785156 300.175781 C 335.136719 299.007812 335.464844 297.832031 335.761719 296.648438 C 336.054688 295.464844 336.324219 294.277344 336.5625 293.078125 C 336.800781 291.882812 337.007812 290.683594 337.1875 289.476562 C 337.367188 288.269531 337.515625 287.058594 337.636719 285.84375 C 337.753906 284.628906 337.84375 283.414062 337.902344 282.195312 C 337.964844 280.976562 337.992188 279.757812 337.992188 278.539062 C 337.992188 277.316406 337.964844 276.097656 337.902344 274.878906 C 337.84375 273.664062 337.753906 272.445312 337.636719 271.230469 C 337.515625 270.019531 337.367188 268.808594 337.1875 267.601562 C 337.007812 266.394531 336.800781 265.191406 336.5625 263.996094 C 336.324219 262.800781 336.054688 261.609375 335.761719 260.425781 C 335.464844 259.242188 335.136719 258.066406 334.785156 256.902344 C 334.429688 255.734375 334.046875 254.574219 333.636719 253.425781 C 333.226562 252.277344 332.785156 251.140625 332.320312 250.015625 C 331.851562 248.886719 331.359375 247.773438 330.835938 246.667969 C 330.316406 245.566406 329.765625 244.476562 329.191406 243.402344 C 328.617188 242.324219 328.015625 241.265625 327.390625 240.21875 C 326.761719 239.171875 326.109375 238.140625 325.433594 237.128906 C 324.753906 236.113281 324.050781 235.117188 323.324219 234.136719 C 322.597656 233.15625 321.847656 232.195312 321.074219 231.25 C 320.300781 230.308594 319.503906 229.386719 318.683594 228.480469 C 317.867188 227.578125 317.023438 226.695312 316.160156 225.832031 C 315.300781 224.96875 314.417969 224.128906 313.511719 223.308594 C 312.609375 222.488281 311.683594 221.691406 310.742188 220.917969 C 309.800781 220.144531 308.835938 219.394531 307.859375 218.667969 C 306.878906 217.941406 305.882812 217.238281 304.867188 216.5625 C 303.851562 215.882812 302.820312 215.230469 301.777344 214.605469 C 300.730469 213.976562 299.667969 213.375 298.59375 212.800781 C 297.515625 212.226562 296.425781 211.679688 295.324219 211.15625 C 294.222656 210.636719 293.105469 210.140625 291.980469 209.675781 C 290.851562 209.207031 289.714844 208.769531 288.566406 208.355469 C 287.417969 207.945312 286.261719 207.5625 285.09375 207.210938 C 283.925781 206.855469 282.75 206.53125 281.566406 206.234375 C 280.382812 205.9375 279.195312 205.671875 277.996094 205.433594 C 276.800781 205.195312 275.597656 204.984375 274.394531 204.808594 C 273.1875 204.628906 271.976562 204.480469 270.761719 204.359375 C 269.546875 204.238281 268.332031 204.148438 267.113281 204.089844 C 265.894531 204.03125 264.675781 204 263.457031 204 Z M 263.457031 204 "/>
<g clip-path="url(#clip2)" clip-rule="nonzero">
<path style=" stroke:none;fill-rule:nonzero;fill:rgb(59.609985%,84.309387%,89.408875%);fill-opacity:1;" d="M 303.085938 272.078125 L 269.417969 272.078125 L 269.417969 237.421875 C 269.417969 233.351562 266.121094 230.054688 262.050781 230.054688 C 257.984375 230.054688 254.683594 233.351562 254.683594 237.421875 L 254.683594 272.078125 L 221.015625 272.078125 C 216.945312 272.078125 213.648438 275.378906 213.648438 279.445312 C 213.648438 283.515625 216.945312 286.8125 221.015625 286.8125 L 254.683594 286.8125 L 254.683594 319.496094 C 254.683594 323.566406 257.984375 326.863281 262.050781 326.863281 C 266.121094 326.863281 269.417969 323.566406 269.417969 319.496094 L 269.417969 286.8125 L 303.085938 286.8125 C 307.15625 286.8125 310.453125 283.515625 310.453125 279.445312 C 310.453125 275.378906 307.15625 272.078125 303.085938 272.078125 Z M 303.085938 272.078125 "/>
</g>
<g clip-path="url(#clip3)" clip-rule="nonzero">
<path style=" stroke:none;fill-rule:nonzero;fill:rgb(32.939148%,32.939148%,32.939148%);fill-opacity:1;" d="M 308.203125 264.734375 C 296.367188 264.734375 284.53125 264.734375 272.695312 264.734375 C 274.007812 266.042969 275.324219 267.351562 276.636719 268.664062 C 276.636719 256.855469 276.636719 245.046875 276.636719 233.242188 C 276.636719 231.097656 274.84375 229.3125 272.695312 229.3125 C 266.167969 229.3125 259.636719 229.3125 253.109375 229.3125 C 250.960938 229.3125 249.167969 231.097656 249.167969 233.242188 C 249.167969 245.046875 249.167969 256.855469 249.167969 268.664062 C 250.480469 267.351562 251.792969 266.042969 253.109375 264.734375 C 241.273438 264.734375 229.4375 264.734375 217.601562 264.734375 C 215.453125 264.734375 213.664062 266.519531 213.664062 268.664062 C 213.664062 275.175781 213.664062 281.691406 213.664062 288.203125 C 213.664062 290.347656 215.453125 292.132812 217.601562 292.132812 C 229.4375 292.132812 241.273438 292.132812 253.109375 292.132812 C 251.792969 290.824219 250.480469 289.515625 249.167969 288.203125 C 249.167969 300.011719 249.167969 311.820312 249.167969 323.628906 C 249.167969 325.769531 250.960938 327.554688 253.109375 327.554688 C 259.636719 327.554688 266.167969 327.554688 272.695312 327.554688 C 274.84375 327.554688 276.636719 325.769531 276.636719 323.628906 C 276.636719 311.820312 276.636719 300.011719 276.636719 288.203125 C 275.320312 289.515625 274.007812 290.824219 272.695312 292.136719 C 284.53125 292.136719 296.367188 292.136719 308.203125 292.136719 C 310.347656 292.136719 312.140625 290.347656 312.140625 288.207031 C 312.140625 281.691406 312.140625 275.175781 312.140625 268.664062 C 312.140625 263.59375 304.265625 263.59375 304.265625 268.664062 C 304.265625 275.175781 304.265625 281.691406 304.265625 288.207031 C 305.578125 286.894531 306.890625 285.585938 308.203125 284.273438 C 296.367188 284.273438 284.53125 284.273438 272.695312 284.273438 C 270.550781 284.273438 268.757812 286.0625 268.757812 288.207031 C 268.757812 300.011719 268.757812 311.820312 268.757812 323.628906 C 270.070312 322.316406 271.382812 321.007812 272.695312 319.699219 C 266.167969 319.699219 259.636719 319.699219 253.109375 319.699219 C 254.421875 321.007812 255.734375 322.316406 257.046875 323.628906 C 257.046875 311.820312 257.046875 300.011719 257.046875 288.207031 C 257.046875 286.0625 255.257812 284.273438 253.109375 284.273438 C 241.273438 284.273438 229.4375 284.273438 217.601562 284.273438 C 218.914062 285.585938 220.226562 286.894531 221.539062 288.207031 C 221.539062 281.691406 221.539062 275.175781 221.539062 268.664062 C 220.226562 269.972656 218.914062 271.285156 217.601562 272.59375 C 229.4375 272.59375 241.273438 272.59375 253.109375 272.59375 C 255.253906 272.59375 257.046875 270.804688 257.046875 268.664062 C 257.046875 256.855469 257.046875 245.050781 257.046875 233.242188 C 255.734375 234.550781 254.421875 235.863281 253.109375 237.171875 C 259.636719 237.171875 266.167969 237.171875 272.695312 237.171875 C 271.382812 235.863281 270.070312 234.550781 268.757812 233.242188 C 268.757812 245.050781 268.757812 256.855469 268.757812 268.664062 C 268.757812 270.804688 270.550781 272.59375 272.695312 272.59375 C 284.53125 272.59375 296.367188 272.59375 308.203125 272.59375 C 313.28125 272.59375 313.28125 264.734375 308.203125 264.734375 Z M 308.203125 264.734375 "/>
</g>
</g>
</svg>
