<?xml version="1.0" encoding="UTF-8"?>
<svg xmlns="http://www.w3.org/2000/svg" xmlns:xlink="http://www.w3.org/1999/xlink" width="375pt" height="374.999991pt" viewBox="0 0 375 374.999991" version="1.2">
<defs>
<clipPath id="clip1">
  <path d="M 1 1 L 374 1 L 374 374 L 1 374 Z M 1 1 "/>
</clipPath>
<clipPath id="clip2">
  <path d="M 187.058594 -157.878906 L 532.304688 187.363281 L 187.058594 532.609375 L -158.1875 187.363281 Z M 187.058594 -157.878906 "/>
</clipPath>
<clipPath id="clip3">
  <path d="M 187.058594 -157.878906 L 532.304688 187.363281 L 187.058594 532.609375 L -158.1875 187.363281 Z M 187.058594 -157.878906 "/>
</clipPath>
</defs>
<g id="surface1">
<g clip-path="url(#clip1)" clip-rule="nonzero">
<g clip-path="url(#clip2)" clip-rule="nonzero">
<g clip-path="url(#clip3)" clip-rule="nonzero">
<path style=" stroke:none;fill-rule:nonzero;fill:rgb(100%,100%,100%);fill-opacity:1;" d="M 359.679688 295.253906 L 251.792969 187.363281 L 359.679688 79.476562 C 377.558594 61.597656 377.558594 32.621094 359.679688 14.742188 C 341.804688 -3.132812 312.824219 -3.132812 294.949219 14.742188 L 187.058594 122.632812 L 79.167969 14.742188 C 61.292969 -3.132812 32.3125 -3.132812 14.4375 14.742188 C -3.441406 32.621094 -3.441406 61.597656 14.4375 79.476562 L 122.324219 187.363281 L 14.4375 295.253906 C -3.441406 313.132812 -3.441406 342.109375 14.4375 359.988281 C 32.3125 377.863281 61.292969 377.863281 79.167969 359.988281 L 187.058594 252.097656 L 294.949219 359.988281 C 312.824219 377.863281 341.804688 377.863281 359.679688 359.988281 C 377.558594 342.109375 377.558594 313.132812 359.679688 295.253906 Z M 359.679688 295.253906 "/>
</g>
</g>
</g>
</g>
</svg>
