<?xml version="1.0" encoding="UTF-8"?>
<svg xmlns="http://www.w3.org/2000/svg" xmlns:xlink="http://www.w3.org/1999/xlink" width="375pt" height="374.999991pt" viewBox="0 0 375 374.999991" version="1.2">
<g id="surface1">
<path style=" stroke:none;fill-rule:nonzero;fill:rgb(100%,100%,100%);fill-opacity:1;" d="M 13.417969 203.839844 C 41.554688 223.335938 56.265625 226.867188 80.515625 267.734375 C 104.765625 308.601562 109.011719 336.40625 115.394531 341.519531 C 121.773438 346.628906 153.683594 340.242188 170.277344 331.300781 C 186.871094 322.359375 187.492188 317.425781 202.984375 281.171875 C 224.464844 230.917969 259.347656 169.210938 286.152344 133.453125 C 312.957031 97.691406 369.386719 50.65625 371.941406 41.71875 C 374.492188 32.777344 347.6875 28.625 322.160156 36.289062 C 296.632812 43.949219 242.863281 103.132812 210.390625 149.695312 C 174.320312 201.429688 161.5 245.097656 155.121094 243.816406 C 148.738281 242.539062 136.269531 216.5 118.398438 197.347656 C 100.527344 178.1875 81.703125 165.210938 60.003906 169.042969 C 38.304688 172.875 0.4375 194.851562 13.417969 203.839844 "/>
</g>
</svg>
