<?xml version="1.0" encoding="utf-8"?>
<!-- Generator: Adobe Illustrator 18.1.0, SVG Export Plug-In . SVG Version: 6.00 Build 0)  -->
<!DOCTYPE svg PUBLIC "-//W3C//DTD SVG 1.1//EN" "http://www.w3.org/Graphics/SVG/1.1/DTD/svg11.dtd">
<svg version="1.1" id="Calque_1" xmlns="http://www.w3.org/2000/svg" xmlns:xlink="http://www.w3.org/1999/xlink" x="0px" y="0px"
	 viewBox="-948 2579.3 512 512" enable-background="new -948 2579.3 512 512" xml:space="preserve">
<g id="Calque_1_1_">
	<path id="time-3-icon_1_" fill="#008AC9" d="M-693.5,3015.3c-97.5,0-176.5-78.9-176.5-176.5c0-97.5,78.9-176.5,176.5-176.5
		c97.5,0,176.5,78.9,176.5,176.5C-517,2936.3-595.9,3015.3-693.5,3015.3z"/>
	<path id="time-3-icon" d="M-692,2629.3c-113.8,0-206,92.2-206,206s92.2,206,206,206c113.8,0,206-92.2,206-206
		S-578.2,2629.3-692,2629.3z M-692,2996.3c-89,0-161-72-161-161c0-89,72-161,161-161c89,0,161,72,161,161
		C-531,2924.3-603,2996.3-692,2996.3z"/>
	<g>
		<circle fill="#FFFFFF" cx="-690.1" cy="2724.1" r="20.1"/>
		<circle fill="#FFFFFF" cx="-690.1" cy="2943.3" r="20.1"/>
		<circle fill="#FFFFFF" cx="-580.5" cy="2833.7" r="20.1"/>
		<circle fill="#FFFFFF" cx="-799.8" cy="2833.7" r="20.1"/>
		<path fill="#FFFFFF" d="M-630.9,2892.9l-4.8-16.6l-4,4l-19.4-19.4c5.7-6.7,9.3-15.1,9.7-24.4h27.9v5.6l15.2-8.3l-15.2-8.3v5.6
			h-28.1c-0.8-9.1-4.4-17.4-10.2-23.8l20.1-20.1l4,4l4.8-16.6l-16.6,4.8l4,4l-20.1,20.1c-6.5-5.6-14.7-9.1-23.7-9.7v-28.7h5.6
			l-8.3-15.2l-8.3,15.2h5.6v28.6c-9.1,0.6-17.3,4.1-23.8,9.7l-20.1-20.1l4-4l-16.6-4.8l4.8,16.6l4-4l20.1,20.1
			c-5.8,6.4-9.5,14.7-10.2,23.8h-28v-5.6l-15.2,8.3l15.2,8.3v-5.6h27.8c0.5,9.3,4,17.8,9.7,24.4l-19.4,19.4l-4-4l-4.8,16.6l16.6-4.8
			l-4-4l19.4-19.4c6.6,5.9,15.1,9.7,24.5,10.3v27.3h-5.6l8.3,15.2l8.3-15.2h-5.6V2875c9.4-0.6,17.9-4.4,24.5-10.3l19.4,19.4l-4,4
			L-630.9,2892.9z"/>
		<circle fill="#FFFFFF" cx="-612.6" cy="2756.2" r="20.1"/>
		<circle fill="#FFFFFF" cx="-767.7" cy="2911.2" r="20.1"/>
		<circle fill="#FFFFFF" cx="-612.6" cy="2911.2" r="20.1"/>
		<circle fill="#FFFFFF" cx="-767.7" cy="2756.2" r="20.1"/>
	</g>
</g>
</svg>
