<?xml version="1.0" encoding="utf-8"?>
<!-- Generator: Adobe Illustrator 19.1.0, SVG Export Plug-In . SVG Version: 6.00 Build 0)  -->
<svg version="1.1" id="Calque_1" xmlns="http://www.w3.org/2000/svg" xmlns:xlink="http://www.w3.org/1999/xlink" x="0px" y="0px"
	 viewBox="-41 164.9 512 512" style="enable-background:new -41 164.9 512 512;" xml:space="preserve">
<style type="text/css">
	.st0{fill:#468847;}
	.st1{fill:#FFFFFF;}
</style>
<g id="Calque_2">
</g>
<g id="Calque_1_1_">
	<path id="time-3-icon_1_" class="st0" d="M213.5,600.9C116,600.9,37,521.9,37,424.4c0-97.5,78.9-176.5,176.5-176.5
		c97.5,0,176.5,78.9,176.5,176.5C390,521.9,311.1,600.9,213.5,600.9z"/>
	<path id="time-3-icon" d="M215,214.9c-113.8,0-206,92.2-206,206s92.2,206,206,206c113.8,0,206-92.2,206-206S328.8,214.9,215,214.9z
		 M215,581.9c-89,0-161-72-161-161c0-89,72-161,161-161c89,0,161,72,161,161C376,509.9,304,581.9,215,581.9z"/>
</g>
<path id="retweet-2-icon" class="st1" d="M208.1,371.8L171.2,335h37L208.1,371.8L208.1,371.8z M223.2,335v36.9h28.4V335H223.2z
	 M215,509.4v-36.9h-27.1v36.9H215z M327.3,458.6V335h-60.7v36.9h23.9v86.8h-31.6l50.4,50.4l50.2-50.4H327.3z M172.9,509.4v-36.9
	h-25.3v-87.1h31.6L128.8,335l-50.2,50.4h32.2v124H172.9L172.9,509.4z M230,472.5v36.9h36.9L230,472.5z"/>
<g id="Calque_3">
</g>
</svg>
