<?xml version="1.0" encoding="utf-8"?>
<!-- Generator: Adobe Illustrator 17.1.0, SVG Export Plug-In . SVG Version: 6.00 Build 0)  -->
<!DOCTYPE svg PUBLIC "-//W3C//DTD SVG 1.1//EN" "http://www.w3.org/Graphics/SVG/1.1/DTD/svg11.dtd">
<svg version="1.1" id="Calque_1" xmlns="http://www.w3.org/2000/svg" xmlns:xlink="http://www.w3.org/1999/xlink" x="0px" y="0px"
	 viewBox="0 0 512 512" enable-background="new 0 0 512 512" xml:space="preserve">
<path id="support" fill="#FFFFFF" d="M360.3,151.9V50H50v310.1h101.7V462H462V151.9H360.3z M90,320.1V90h230.3v61.9H151.7v168.3
	L90,320.1L90,320.1z M422,422H191.7V191.9H422V422z"/>
<path id="paint" fill="#FFFFFF" d="M393.2,260.6l-40.9-49.8l-24.8,20.4l-6.8-8.3c-3.7-4.6-10.5-5.2-15.1-1.5L214.6,296
	c-4.5,3.7-5.2,10.5-1.4,15.1l20.5,24.9c3.7,4.6,10.5,5.2,15.1,1.5l90.9-74.7c4.5-3.7,5.2-10.5,1.4-15.1l-6.8-8.3l16.5-13.6
	l27.3,33.2l-74.4,61.1l13.6,16.6l-4.1,3.4c-2.3,1.9-2.6,5.3-0.7,7.5l34.1,41.5c1.9,2.3,5.3,2.6,7.5,0.8l16.5-13.6
	c2.3-1.9,2.6-5.3,0.7-7.5l-34.1-41.5c-1.9-2.3-5.3-2.6-7.5-0.8l-4.1,3.4l-6.8-8.3L393.2,260.6z M319.2,237.9l-90.9,74.7l-6.8-8.3
	l90.9-74.7L319.2,237.9z"/>
</svg>
