<?xml version="1.0" encoding="utf-8"?>
<!-- Generator: Adobe Illustrator 16.2.0, SVG Export Plug-In . SVG Version: 6.00 Build 0)  -->
<!DOCTYPE svg PUBLIC "-//W3C//DTD SVG 1.1//EN" "http://www.w3.org/Graphics/SVG/1.1/DTD/svg11.dtd">
<svg version="1.1" id="edit_txt_button" xmlns="http://www.w3.org/2000/svg" xmlns:xlink="http://www.w3.org/1999/xlink" x="0px" y="0px"
	 width="14px" height="14px" viewBox="0 0 14 14" enable-background="new 0 0 14 14" xml:space="preserve">
<g>
	<path d="M5.421,10.057l-0.864,3.115H1.712L5.421,1.036h3.601l3.763,12.136H9.833l-0.937-3.115H5.421z M8.5,8.004L7.744,5.43
		c-0.216-0.72-0.432-1.621-0.612-2.341H7.096c-0.18,0.72-0.359,1.639-0.558,2.341L5.817,8.004H8.5z"/>
</g>
<g>
	<path fill="#353535" d="M5.296,9.953l-0.864,3.115H1.587L5.296,0.933h3.601l3.763,12.136H9.708L8.771,9.953H5.296z M8.375,7.9
		L7.619,5.326c-0.216-0.72-0.432-1.621-0.612-2.341H6.971c-0.18,0.72-0.359,1.639-0.558,2.341L5.692,7.9H8.375z"/>
</g>
</svg>
