<?xml version="1.0" encoding="utf-8"?>
<!-- Generator: Adobe Illustrator 16.2.0, SVG Export Plug-In . SVG Version: 6.00 Build 0)  -->
<!DOCTYPE svg PUBLIC "-//W3C//DTD SVG 1.1//EN" "http://www.w3.org/Graphics/SVG/1.1/DTD/svg11.dtd">
<svg version="1.1" xmlns="http://www.w3.org/2000/svg" xmlns:xlink="http://www.w3.org/1999/xlink" x="0px" y="0px" width="512px"
	 height="512px" viewBox="0 0 512 512" enable-background="new 0 0 512 512" xml:space="preserve">
<g id="Calque_2">
</g>
<g id="Calque_1">
	<path id="time-3-icon_1_" fill="#468847" d="M254.5,436C156.955,436,78,357.059,78,259.5C78,161.955,156.941,83,254.5,83
		C352.043,83,431,161.939,431,259.5C431,357.044,352.058,436,254.5,436z"/>
	<path id="time-3-icon" d="M256,50C142.229,50,50,142.229,50,256c0,113.771,92.229,206,206,206c113.77,0,206-92.229,206-206
		C462,142.229,369.77,50,256,50z M256,417c-88.979,0-161-72.008-161-161c0-88.979,72.008-161,161-161c88.977,0,161,72.007,161,161
		C417,344.977,344.99,417,256,417z"/>
	<g>
		<path fill="#FFFFFF" d="M178.905,217.742c0,0,23.763-85.27,100.645-67.099l5.062,2.504l6.942-25.456l26.037,67.117l-63.069,23.722
			l9.839-23.144C264.363,195.387,239.259,166.038,178.905,217.742z"/>
		<path fill="#FFFFFF" d="M325.35,203.786c0,0,66.593,58.317,16.943,119.767l-4.446,3.479l19.946,17.275l-71.775-5.564l5.904-67.126
			l16.605,18.884C308.528,290.501,345.85,280.567,325.35,203.786z"/>
		<path fill="#FFFFFF" d="M264.59,341.451c0,0-86.134,20.4-107.378-55.688l-0.252-5.638l-25.645,6.223l46.179-55.227l51.243,43.745
			l-25.013,2.575C203.723,277.44,190.159,313.599,264.59,341.451z"/>
	</g>
</g>
<g id="Calque_3">
</g>
</svg>
