<?xml version="1.0" encoding="utf-8"?>
<!-- Generator: Adobe Illustrator 16.2.0, SVG Export Plug-In . SVG Version: 6.00 Build 0)  -->
<!DOCTYPE svg PUBLIC "-//W3C//DTD SVG 1.1//EN" "http://www.w3.org/Graphics/SVG/1.1/DTD/svg11.dtd">
<svg version="1.1" id="Calque_1" xmlns="http://www.w3.org/2000/svg" xmlns:xlink="http://www.w3.org/1999/xlink" x="0px" y="0px"
	 width="512px" height="512px" viewBox="0 0 512 512" enable-background="new 0 0 512 512" xml:space="preserve">
<g id="Calque_2">
</g>
<g id="Calque_1_1_">
	<path id="time-3-icon_1_" fill="#468847" d="M254.5,436C156.955,436,78,357.059,78,259.5C78,161.955,156.941,83,254.5,83
		C352.043,83,431,161.939,431,259.5C431,357.044,352.058,436,254.5,436z"/>
	<path id="time-3-icon" d="M256,50C142.229,50,50,142.229,50,256c0,113.771,92.229,206,206,206c113.77,0,206-92.229,206-206
		C462,142.229,369.77,50,256,50z M256,417c-88.979,0-161-72.008-161-161c0-88.979,72.008-161,161-161c88.977,0,161,72.007,161,161
		C417,344.977,344.99,417,256,417z"/>
</g>
<g>
	<path fill="#FFFFFF" d="M312.228,224.872c-6.646-13.169-10.328-16.372-17.323-16.365c-6.59,0-16.139,2.825-33.887,2.825h-0.58
		c-18.051-0.062-27.721-2.933-34.383-2.933c-7.064,0-10.731,3.227-17.409,16.458c-12.046,23.829-19.396,62.839-19.396,88.076
		c0,52.401,31.854,56.951,71.188,56.951c39.318,0,71.187-4.55,71.187-56.951C331.625,287.71,324.259,248.717,312.228,224.872z
		 M260.438,362.773c-37.516,0-64.077-3.574-64.077-49.84c0-23.567,6.972-61.741,18.654-84.858
		c6.329-12.549,8.292-12.549,11.047-12.549c2.036,0,4.784,0.386,8.232,0.866c6.112,0.851,14.468,2.027,26.12,2.073h0.603
		c11.545,0,19.791-1.145,25.834-1.98c3.396-0.48,6.072-0.851,8.068-0.851c2.725,0,4.674,0,10.958,12.456
		c11.682,23.133,18.645,61.3,18.645,84.843C324.506,359.199,297.953,362.773,260.438,362.773z"/>
	<path fill="#FFFFFF" d="M244.12,156.361c1.641,1.927,3.815,4.016,6.097,6.011c-10.663,2.739-18.259,9.595-18.259,17.664l0,0l0,0
		v19.769c0,3.821,12.75,6.931,28.48,6.931c15.729,0,28.48-3.11,28.48-6.931v-19.769v-0.008c0-8.063-7.606-14.917-18.269-17.656
		c2.283-2.011,4.465-4.092,6.089-6.019h21.664c3.931,0,7.117-3.188,7.117-7.118s-3.186-7.119-7.117-7.119h-85.432
		c-1.408,0-2.776,0.418-3.945,1.192l-28.479,18.987c-3.274,2.183-4.156,6.6-1.974,9.872c1.37,2.059,3.637,3.173,5.934,3.173
		c1.354,0,2.723-0.387,3.938-1.2l26.677-17.787h28.998V156.361L244.12,156.361z"/>
	<path fill="#FFFFFF" d="M313.211,274.974H207.647c-2.667,13.757-4.161,27.389-4.161,37.958c0,36.271,14.916,42.723,56.952,42.723
		c42.034,0,56.95-6.452,56.95-42.723C317.388,302.363,315.887,288.731,313.211,274.974z M280.514,281.436
		c2.894,0,5.23,2.344,5.23,5.244c0,2.901-2.337,5.245-5.23,5.245s-5.245-2.344-5.245-5.245
		C275.269,283.78,277.62,281.436,280.514,281.436z M278.634,328.684c-6.646,0-12.046-5.401-12.046-12.053
		c0-6.655,5.408-12.055,12.046-12.055c6.662,0,12.063,5.399,12.063,12.055C290.697,323.283,285.296,328.684,278.634,328.684z
		 M298.402,304.569c-4.254,0-7.705-3.459-7.705-7.715c0-4.246,3.451-7.706,7.705-7.706c4.257,0,7.722,3.452,7.722,7.706
		C306.123,301.126,302.658,304.569,298.402,304.569z"/>
</g>
<g id="Calque_3">
</g>
</svg>
