<?xml version="1.0" encoding="utf-8"?>
<!-- Generator: Adobe Illustrator 16.2.0, SVG Export Plug-In . SVG Version: 6.00 Build 0)  -->
<!DOCTYPE svg PUBLIC "-//W3C//DTD SVG 1.1//EN" "http://www.w3.org/Graphics/SVG/1.1/DTD/svg11.dtd">
<svg version="1.1" id="Calque_1" xmlns="http://www.w3.org/2000/svg" xmlns:xlink="http://www.w3.org/1999/xlink" x="0px" y="0px"
	 width="512px" height="512px" viewBox="0 0 512 512" enable-background="new 0 0 512 512" xml:space="preserve">
<g id="Calque_2">
	<circle fill="#008AC9" cx="256" cy="256" r="206"/>
</g>
<path id="retweet-4-icon" stroke="#797979" stroke-miterlimit="10" d="M373.38,138.62c64.872,64.874,64.88,169.878,0,234.76
	c-64.874,64.874-169.878,64.882-234.76,0c-64.872-64.874-64.88-169.878,0-234.76C203.492,73.749,308.496,73.739,373.38,138.62z
	 M256,50C142.229,50,50,142.229,50,256c0,113.771,92.229,206,206,206c113.771,0,206-92.229,206-206C462,142.229,369.771,50,256,50z"
	/>
<g id="Layer_8">
	<path fill="#FFFFFF" d="M251.768,197.071v16.368c-0.005,8.473-25.198,15.344-56.268,15.344c-31.077,0-56.263-6.871-56.268-15.344
		v-16.368c0,8.476,25.191,15.347,56.268,15.347C226.576,212.417,251.768,205.547,251.768,197.071z M251.768,193.973
		c0,8.476-25.191,15.346-56.268,15.346c-31.077,0-56.268-6.87-56.268-15.346c0-8.477,25.191-15.347,56.268-15.347
		C226.576,178.626,251.768,185.496,251.768,193.973z M222.661,193.098l-49.43-3.372l-1.68,3.021l1.833,0.256
		c2.511,0.354,5.7,1.128,4.22,3.769l-0.461,0.821l9.137,0.624l0.462-0.823c0.634-1.141,0.832-2.118,0.592-2.953l33.311,2.273
		L222.661,193.098z M195.5,232.963c-31.077,0-56.268-6.869-56.268-15.346v16.368c0.005,8.472,25.191,15.343,56.268,15.343
		c31.07,0,56.263-6.871,56.268-15.343v-16.368C251.768,226.094,226.573,232.963,195.5,232.963z M195.5,253.626
		c-31.077,0-56.268-6.871-56.268-15.347v16.369c0.005,8.473,25.191,15.342,56.268,15.342c31.07,0,56.263-6.869,56.268-15.342
		v-16.369C251.768,246.756,226.573,253.626,195.5,253.626z M195.5,273.935c-31.077,0-56.268-6.871-56.268-15.346v16.367
		c0.005,8.471,25.191,15.346,56.268,15.346c31.07,0,56.263-6.875,56.268-15.346V258.59
		C251.768,267.072,226.573,273.935,195.5,273.935z M195.5,293.996c-31.077,0-56.268-6.869-56.268-15.344v16.365
		c0.005,8.475,25.191,15.346,56.268,15.346c31.07,0,56.263-6.871,56.268-15.346v-16.365
		C251.768,287.127,226.573,293.996,195.5,293.996z M195.5,314.025c-31.077,0-56.268-6.871-56.268-15.35v16.371
		c0.005,8.471,25.191,15.342,56.268,15.342c31.07,0,56.263-6.871,56.268-15.342v-16.371
		C251.768,307.154,226.573,314.025,195.5,314.025z M259.542,198.167h0.411v0.416c8.916,1.622,19.633,2.572,31.163,2.572
		c31.068,0,56.255-6.869,56.268-15.342v-16.37c0,8.476-25.193,15.347-56.268,15.347c-31.075,0-56.268-6.874-56.268-15.35v6.158
		c13.502,3.247,25.105,9.057,25.105,19.467C259.953,196.155,259.788,197.174,259.542,198.167z M234.848,166.343
		c0-8.476,25.193-15.345,56.268-15.345c31.074,0,56.268,6.87,56.268,15.345c0,8.479-25.193,15.35-56.268,15.35
		C260.041,181.693,234.848,174.821,234.848,166.343z M263.945,167.216l49.431,3.372l1.688-3.018l-1.838-0.253
		c-2.52-0.356-5.694-1.129-4.227-3.771l0.468-0.825l-9.138-0.621l-0.454,0.824c-0.642,1.141-0.837,2.119-0.599,2.954l-33.309-2.273
		L263.945,167.216z M291.116,221.698c31.068,0,56.255-6.87,56.268-15.343v-16.369c0,8.476-25.193,15.347-56.268,15.347
		c-11.53,0-22.247-0.953-31.163-2.577v11.775c-0.006,1.486-0.259,2.868-0.706,4.175h0.706v0.415
		C268.869,220.751,279.586,221.698,291.116,221.698z M259.953,239.374v0.418c8.916,1.621,19.633,2.572,31.163,2.572
		c31.068,0,56.255-6.87,56.268-15.341v-16.37c0,8.479-25.193,15.349-56.268,15.349c-11.53,0-22.247-0.947-31.163-2.573v11.649
		c-0.006,1.534-0.282,2.96-0.757,4.298h0.757V239.374z M347.384,245.775v-14.812c0,5.12-9.225,9.641-23.354,12.429
		C330.234,243.669,338.84,244.311,347.384,245.775z M259.953,253.812c5.466-3.719,13.626-6.141,22.059-7.714
		c-8.047-0.358-15.535-1.174-22.059-2.361V253.812z M315.466,283.115c-31.081,0-56.27-6.869-56.27-15.35v16.371
		c0.013,8.475,25.195,15.344,56.27,15.344c31.075,0,56.263-6.869,56.269-15.344v-16.371
		C371.735,276.246,346.541,283.115,315.466,283.115z M315.466,249.328c31.075,0,56.269,6.87,56.269,15.343
		c0,8.477-25.193,15.35-56.269,15.35c-31.081,0-56.27-6.873-56.27-15.35C259.197,256.198,284.392,249.328,315.466,249.328z
		 M323.632,264.203l-33.31-2.273l-2.015,3.611l49.431,3.375l1.682-3.021l-1.834-0.25c-2.505-0.357-5.692-1.129-4.218-3.773
		l0.459-0.82l-9.136-0.621l-0.454,0.82C323.589,262.392,323.393,263.371,323.632,264.203z M315.466,303.658
		c-31.081,0-56.27-6.873-56.27-15.348v16.373c0.013,8.475,25.195,15.344,56.27,15.344c31.075,0,56.263-6.869,56.269-15.344v-16.365
		C371.735,296.785,346.541,303.658,315.466,303.658z M315.466,324.324c-31.081,0-56.27-6.871-56.27-15.346v16.365
		c0.013,8.475,25.195,15.346,56.27,15.346c31.075,0,56.263-6.871,56.269-15.346v-16.365
		C371.735,317.459,346.541,324.324,315.466,324.324z M315.466,344.638c-31.081,0-56.27-6.873-56.27-15.348v16.371
		c0.013,8.469,25.195,15.34,56.27,15.34c31.075,0,56.263-6.871,56.269-15.34v-16.371
		C371.735,337.765,346.541,344.638,315.466,344.638z"/>
</g>
</svg>
