<?xml version="1.0" encoding="utf-8"?>
<!-- Generator: Adobe Illustrator 16.2.0, SVG Export Plug-In . SVG Version: 6.00 Build 0)  -->
<!DOCTYPE svg PUBLIC "-//W3C//DTD SVG 1.1//EN" "http://www.w3.org/Graphics/SVG/1.1/DTD/svg11.dtd">
<svg version="1.1" xmlns="http://www.w3.org/2000/svg" xmlns:xlink="http://www.w3.org/1999/xlink" x="0px" y="0px" width="512px"
	 height="512px" viewBox="0 0 512 512" enable-background="new 0 0 512 512" xml:space="preserve">
<g id="Calque_2">
</g>
<g id="Calque_1">
	<path id="time-3-icon_1_" fill="#468847" d="M254.5,436C156.955,436,78,357.059,78,259.5C78,161.955,156.941,83,254.5,83
		C352.043,83,431,161.939,431,259.5C431,357.044,352.058,436,254.5,436z"/>
	<path id="time-3-icon" d="M256,50C142.229,50,50,142.229,50,256c0,113.771,92.229,206,206,206c113.77,0,206-92.229,206-206
		C462,142.229,369.77,50,256,50z M256,417c-88.979,0-161-72.008-161-161c0-88.979,72.008-161,161-161c88.977,0,161,72.007,161,161
		C417,344.977,344.99,417,256,417z"/>
	<path fill="#FFFFFF" d="M366.192,264.905c-0.961-9.534-9.494-16.495-19.048-15.527l-25.882,2.641l-0.098-0.76l20.527-2.087
		c8.354-0.853,14.35-9.282,13.368-18.835c-0.975-9.554-8.524-16.607-16.893-15.753l-68.686,7.005l-9.752,0.146
		c0,0,14.105-6.394,3.268-57.412c-10.811-51.006-39.382-31.853-39.382-31.853s-0.38,43.569-1.913,49.754
		c-1.55,6.186-35.063,71.392-35.063,71.392c0,3.447-20.762,6.898-20.749,10.376c0.245,29.984,0,55.639,0,86.701
		c22.268-5.82,34.175,11.654,81.749,11.654c15.539,0,34.968-2.531,51.322-5.233l42.826-4.367
		c7.428-0.759,12.654-9.109,11.688-18.663c-0.75-7.37-5.03-13.202-10.359-15.164l5.394-0.553
		c8.479-0.872,14.583-9.301,13.608-18.854c-0.847-8.19-6.672-14.198-13.646-15.31l2.188-0.221
		C360.215,282.999,367.168,274.461,366.192,264.905z"/>
</g>
<g id="Calque_3">
</g>
</svg>
