<?xml version="1.0" encoding="utf-8"?>
<!-- Generator: Adobe Illustrator 16.2.0, SVG Export Plug-In . SVG Version: 6.00 Build 0)  -->
<!DOCTYPE svg PUBLIC "-//W3C//DTD SVG 1.1//EN" "http://www.w3.org/Graphics/SVG/1.1/DTD/svg11.dtd">
<svg version="1.1" xmlns="http://www.w3.org/2000/svg" xmlns:xlink="http://www.w3.org/1999/xlink" x="0px" y="0px" width="512px"
	 height="512px" viewBox="0 0 512 512" enable-background="new 0 0 512 512" xml:space="preserve">
<g id="Calque_2">
</g>
<g id="Calque_1">
	<path id="time-3-icon_1_" fill="#008AC9" d="M254.5,436C156.955,436,78,357.059,78,259.5C78,161.955,156.941,83,254.5,83
		C352.043,83,431,161.939,431,259.5C431,357.044,352.058,436,254.5,436z"/>
	<path id="time-3-icon" d="M256,50C142.229,50,50,142.229,50,256c0,113.771,92.229,206,206,206c113.77,0,206-92.229,206-206
		C462,142.229,369.77,50,256,50z M256,417c-88.979,0-161-72.008-161-161c0-88.979,72.008-161,161-161c88.977,0,161,72.007,161,161
		C417,344.977,344.99,417,256,417z"/>
	<rect x="146.299" y="187.753" fill="#FFFFFF" width="38.964" height="80.606"/>
	<rect x="206.242" y="208.546" fill="#FFFFFF" width="38.964" height="59.813"/>
	<rect x="266.188" y="164.1" fill="#FFFFFF" width="38.964" height="104.259"/>
	<rect x="326.134" y="232.946" fill="#FFFFFF" width="38.967" height="35.414"/>
	<path fill="#FFFFFF" d="M185.263,307.6h-38.964c-4.46,0-8.081,3.622-8.081,8.08c0,4.463,3.62,8.081,8.081,8.081h38.968
		c4.46,0,8.08-3.618,8.08-8.081C193.346,311.223,189.726,307.6,185.263,307.6z"/>
	<path fill="#FFFFFF" d="M363.702,307.6H352.3v-11.402c0-4.458-3.62-8.08-8.079-8.08s-8.08,3.622-8.08,8.08V307.6h-11.403
		c-4.458,0-8.079,3.622-8.079,8.08c0,4.463,3.621,8.081,8.079,8.081h11.403v11.402c0,4.458,3.621,8.08,8.08,8.08
		s8.079-3.622,8.079-8.08v-11.402h11.402c4.459,0,8.08-3.618,8.08-8.081C371.782,311.223,368.166,307.6,363.702,307.6z"/>
</g>
<g id="Calque_3">
</g>
</svg>
