<?xml version="1.0" encoding="utf-8"?>
<!-- Generator: Adobe Illustrator 16.2.0, SVG Export Plug-In . SVG Version: 6.00 Build 0)  -->
<!DOCTYPE svg PUBLIC "-//W3C//DTD SVG 1.1//EN" "http://www.w3.org/Graphics/SVG/1.1/DTD/svg11.dtd">
<svg version="1.1" xmlns="http://www.w3.org/2000/svg" xmlns:xlink="http://www.w3.org/1999/xlink" x="0px" y="0px" width="512px"
	 height="512px" viewBox="0 0 512 512" enable-background="new 0 0 512 512" xml:space="preserve">
<g id="Calque_2">
</g>
<g id="Calque_1">
	<path id="time-3-icon_1_" fill="#468847" d="M254.5,436C156.955,436,78,357.059,78,259.5C78,161.955,156.941,83,254.5,83
		C352.043,83,431,161.939,431,259.5C431,357.044,352.058,436,254.5,436z"/>
	<path id="time-3-icon" d="M256,50C142.229,50,50,142.229,50,256c0,113.771,92.229,206,206,206c113.77,0,206-92.229,206-206
		C462,142.229,369.77,50,256,50z M256,417c-88.979,0-161-72.008-161-161c0-88.979,72.008-161,161-161c88.977,0,161,72.007,161,161
		C417,344.977,344.99,417,256,417z"/>
	<path fill="#FFFFFF" d="M360.551,320.846l-48.627-48.627c-3.48-3.306-7.546-4.959-12.189-4.959c-4.733,0-9.021,1.922-12.858,5.763
		l-34.291-34.293l16.883-16.879c1.248-1.252,1.874-2.769,1.874-4.556c0-1.786-0.626-3.304-1.874-4.555
		c0.175,0.179,0.713,0.736,1.605,1.675c0.892,0.939,1.474,1.497,1.743,1.676c0.269,0.178,0.78,0.624,1.539,1.338
		c0.764,0.714,1.36,1.161,1.812,1.338c0.449,0.178,1.052,0.445,1.813,0.804c0.759,0.356,1.493,0.602,2.209,0.736
		c0.714,0.134,1.52,0.201,2.412,0.201c3.392,0,6.429-1.25,9.107-3.751c0.27-0.268,1.073-1.004,2.412-2.21
		c1.34-1.208,2.254-2.054,2.746-2.546c0.49-0.492,1.229-1.317,2.212-2.478c0.982-1.161,1.676-2.144,2.078-2.948
		c0.397-0.802,0.8-1.785,1.204-2.947c0.4-1.161,0.601-2.321,0.601-3.482c0-3.573-1.249-6.61-3.751-9.111l-54.654-54.653
		c-2.502-2.5-5.538-3.75-9.109-3.75c-1.161,0-2.321,0.2-3.484,0.602c-1.161,0.401-2.143,0.804-2.946,1.205
		c-0.805,0.401-1.785,1.094-2.946,2.077s-1.986,1.72-2.478,2.211c-0.492,0.492-1.341,1.408-2.545,2.746
		c-1.207,1.341-1.944,2.145-2.211,2.413c-2.499,2.678-3.751,5.715-3.751,9.109c0,0.893,0.068,1.696,0.203,2.41
		c0.135,0.715,0.379,1.452,0.736,2.212c0.356,0.76,0.625,1.362,0.804,1.808c0.178,0.447,0.624,1.051,1.339,1.811
		c0.715,0.757,1.161,1.272,1.339,1.541c0.178,0.27,0.737,0.849,1.674,1.743c0.938,0.893,1.498,1.43,1.675,1.608
		c-1.25-1.251-2.769-1.876-4.555-1.876s-3.304,0.625-4.554,1.876l-46.625,46.618c-1.251,1.251-1.877,2.769-1.877,4.555
		c0,1.787,0.625,3.304,1.877,4.556c-0.18-0.18-0.716-0.738-1.609-1.675c-0.893-0.939-1.473-1.497-1.741-1.676
		c-0.269-0.178-0.781-0.623-1.541-1.338c-0.76-0.713-1.364-1.161-1.81-1.338c-0.445-0.177-1.048-0.445-1.808-0.804
		c-0.757-0.358-1.494-0.602-2.21-0.737c-0.713-0.134-1.517-0.201-2.41-0.201c-3.394,0-6.432,1.25-9.111,3.751
		c-0.267,0.268-1.072,1.006-2.411,2.211c-1.34,1.208-2.253,2.054-2.746,2.545c-0.491,0.492-1.227,1.317-2.209,2.479
		c-0.982,1.161-1.676,2.144-2.077,2.947c-0.401,0.802-0.802,1.786-1.206,2.947c-0.401,1.161-0.604,2.322-0.604,3.483
		c0,3.572,1.25,6.608,3.751,9.109l54.655,54.653c2.501,2.501,5.538,3.751,9.109,3.751c1.161,0,2.322-0.198,3.484-0.601
		c1.161-0.401,2.143-0.805,2.947-1.204c0.804-0.403,1.786-1.095,2.946-2.077s1.986-1.722,2.478-2.213
		c0.492-0.493,1.339-1.406,2.546-2.746c1.206-1.339,1.942-2.145,2.21-2.413c2.5-2.679,3.751-5.718,3.751-9.109
		c0-0.893-0.067-1.694-0.202-2.411s-0.38-1.451-0.737-2.212c-0.356-0.759-0.625-1.362-0.804-1.809
		c-0.177-0.446-0.623-1.05-1.338-1.812c-0.716-0.758-1.161-1.271-1.34-1.539c-0.178-0.27-0.737-0.85-1.674-1.744
		c-0.939-0.895-1.498-1.431-1.676-1.61c1.25,1.253,2.769,1.879,4.555,1.879c1.785,0,3.305-0.626,4.554-1.879l16.879-16.879
		l34.294,34.294c-3.84,3.84-5.761,8.124-5.761,12.856c0,4.825,1.698,8.843,5.091,12.059l48.629,48.759
		c3.304,3.305,7.321,4.96,12.056,4.96c4.644,0,8.705-1.655,12.189-4.96l14.333-14.469c3.305-3.306,4.958-7.32,4.958-12.057
		C365.516,328.392,363.863,324.326,360.551,320.846z"/>
</g>
<g id="Calque_3">
</g>
</svg>
