<?xml version="1.0" encoding="utf-8"?>
<!-- Generator: Adobe Illustrator 16.2.0, SVG Export Plug-In . SVG Version: 6.00 Build 0)  -->
<!DOCTYPE svg PUBLIC "-//W3C//DTD SVG 1.1//EN" "http://www.w3.org/Graphics/SVG/1.1/DTD/svg11.dtd">
<svg version="1.1" id="Calque_1" xmlns="http://www.w3.org/2000/svg" xmlns:xlink="http://www.w3.org/1999/xlink" x="0px" y="0px"
	 width="14px" height="14px" viewBox="0 0 14 14" enable-background="new 0 0 14 14" xml:space="preserve">
<g>
	<path d="M13,1v4.5l-1.621-1.62L8.895,6.364l-1.258-1.26l2.484-2.484L8.5,1H13z M3.88,2.62l2.484,2.484l-1.26,1.26L2.62,3.88L1,5.5
		V1h4.5L3.88,2.62z M11.379,10.121L13,8.5V13H8.5l1.621-1.621L7.637,8.895l1.258-1.258L11.379,10.121z M6.364,8.895L3.88,11.379
		L5.5,13H1V8.5l1.62,1.621l2.484-2.484L6.364,8.895z"/>
</g>
</svg>
