<?xml version="1.0" encoding="utf-8"?>
<!-- Generator: Adobe Illustrator 16.2.0, SVG Export Plug-In . SVG Version: 6.00 Build 0)  -->
<!DOCTYPE svg PUBLIC "-//W3C//DTD SVG 1.1//EN" "http://www.w3.org/Graphics/SVG/1.1/DTD/svg11.dtd">
<svg version="1.1" id="Calque_1" xmlns="http://www.w3.org/2000/svg" xmlns:xlink="http://www.w3.org/1999/xlink" x="0px" y="0px"
	 width="512px" height="512px" viewBox="0 0 512 512" enable-background="new 0 0 512 512" xml:space="preserve">
<g id="Calque_2">
</g>
<g id="Calque_1_1_">
	<path id="time-3-icon_1_" fill="#468847" d="M254.5,436C156.955,436,78,357.059,78,259.5C78,161.955,156.941,83,254.5,83
		C352.043,83,431,161.939,431,259.5C431,357.044,352.058,436,254.5,436z"/>
	<path id="time-3-icon" d="M256,50C142.229,50,50,142.229,50,256c0,113.771,92.229,206,206,206c113.77,0,206-92.229,206-206
		C462,142.229,369.77,50,256,50z M256,417c-88.979,0-161-72.008-161-161c0-88.979,72.008-161,161-161c88.977,0,161,72.007,161,161
		C417,344.977,344.99,417,256,417z"/>
</g>
<g id="Calque_3">
</g>
<path fill="#FFFFFF" d="M257.335,282.92c29.38,0,53.975-9.982,55.465-23.014c-4.371-12.255-9.133-25.621-13.815-38.753
	c-3.25,9.368-21.198,15.975-41.648,15.975c-20.443,0-38.394-6.609-41.646-15.975c-4.682,13.132-9.441,26.495-13.81,38.753
	C203.364,272.937,227.953,282.92,257.335,282.92z M257.335,200.502c13.809,0,26.639-4.276,30.391-10.914
	c-5.174-14.535-9.623-27.009-12.432-34.876c-1.864-5.246-10.328-7.969-17.959-7.969c-7.634,0-16.095,2.723-17.964,7.969
	c-2.807,7.867-7.249,20.341-12.434,34.876C230.696,196.225,243.531,200.502,257.335,200.502z M365.266,295.063l-46.158-18.591
	l5.314,14.831c-0.268,15.716-30.781,28.242-67.087,28.242c-36.302,0-66.821-12.526-67.084-28.242l5.31-14.831l-46.156,18.591
	c-12.941,5.215-13.483,14.871-1.205,21.453l86.811,46.549c12.279,6.581,32.373,6.581,44.65,0l86.81-46.549
	C378.754,309.934,378.209,300.278,365.266,295.063z"/>
</svg>
