<?xml version="1.0" encoding="utf-8"?>
<!-- Generator: Adobe Illustrator 16.2.0, SVG Export Plug-In . SVG Version: 6.00 Build 0)  -->
<!DOCTYPE svg PUBLIC "-//W3C//DTD SVG 1.1//EN" "http://www.w3.org/Graphics/SVG/1.1/DTD/svg11.dtd">
<svg version="1.1" xmlns="http://www.w3.org/2000/svg" xmlns:xlink="http://www.w3.org/1999/xlink" x="0px" y="0px" width="512px"
	 height="512px" viewBox="0 0 512 512" enable-background="new 0 0 512 512" xml:space="preserve">
<g id="Calque_2">
</g>
<g id="Calque_1">
	<path id="time-3-icon_1_" fill="#008AC9" d="M254.5,436C156.955,436,78,357.059,78,259.5C78,161.955,156.941,83,254.5,83
		C352.043,83,431,161.939,431,259.5C431,357.044,352.058,436,254.5,436z"/>
	<path id="time-3-icon" d="M256,50C142.229,50,50,142.229,50,256c0,113.771,92.229,206,206,206c113.77,0,206-92.229,206-206
		C462,142.229,369.77,50,256,50z M256,417c-88.979,0-161-72.008-161-161c0-88.979,72.008-161,161-161c88.977,0,161,72.007,161,161
		C417,344.977,344.99,417,256,417z"/>
	<path fill="#FFFFFF" d="M383.816,266.785c1.711,0.297,2.961,1.781,2.961,3.52v0.093c0,1.72-1.223,3.188-2.914,3.505
		c-37.093,6.938-124.97,21.35-134.611,21.35c-13.81,0-25-11.19-25-25c0-9.832,14.79-104.675,21.618-143.081
		c0.272-1.542,1.613-2.669,3.181-2.669h0.008c1.709,0,3.164,1.243,3.431,2.934l18.935,119.902L383.816,266.785z"/>
</g>
<g id="Calque_3">
</g>
</svg>
