<?xml version="1.0" encoding="utf-8"?>
<!-- Generator: Adobe Illustrator 19.1.0, SVG Export Plug-In . SVG Version: 6.00 Build 0)  -->
<svg version="1.1" id="Calque_1" xmlns="http://www.w3.org/2000/svg" xmlns:xlink="http://www.w3.org/1999/xlink" x="0px" y="0px"
	 viewBox="0 0 800 600" style="enable-background:new 0 0 800 600;" xml:space="preserve">
<style type="text/css">
	.st0{fill:#B8B8B8;}
	.st1{fill:#646569;}
	.st2{fill:#42AF49;}
	.st3{fill:#8FC23E;}
	.st4{fill:#42AE49;}
	.st5{fill:#40B4E5;}
	.st6{fill:#00A1DF;}
	.st7{fill:#00AEEF;}
	.st8{fill:#FFFFFF;}
</style>
<g>
	<g>
		<path class="st0" d="M602.7,459.1c43.1,0,83.7-16.8,114.2-47.3c30.4-30.4,47.1-70.9,47.1-114.2c0-43.3-16.7-83.9-47.1-114.2
			c-30.5-30.5-71.1-47.3-114.2-47.3c-43.1,0-83.7,16.8-114.2,47.3l-52.9,53H448l46.7-46.7c28.9-28.9,67.2-44.8,108-44.8
			c40.8,0,79.1,15.9,108,44.8c28.7,28.7,44.5,67,44.5,108c0,41-15.8,79.3-44.5,108c-28.9,28.9-67.2,44.8-108,44.8
			c-40.8,0-79.1-15.9-108-44.7L448,358.8h-12.5l53,53C519,442.3,559.5,459.1,602.7,459.1z"/>
		<g>
			<path class="st1" d="M676.8,312.3v-4.8h-14.4c-3.1,0-4.8-0.7-5.6-2c-0.8-1.2-0.8-2.9-0.8-4.6v-2.2c0-2.8,3.3-4.8,5.3-4.8v6.5
				c0,0.5,0,1,0.2,1.3c0.2,0.3,0.4,0.5,1,0.5h14.3v-4c0-2.8,2.5-4.3,5.1-4.3v8.3h1.8v5.1h-1.8v4.8H676.8z"/>
			<path class="st1" d="M593.7,293.9c2.3,0,3.6,0.6,4.3,1.7c0.6,1.1,0.6,2.5,0.6,4.2c0,1.6,0,3-0.6,4.1c-0.6,1.1-1.9,1.8-4.3,1.8
				h-15.8v2.9c0,2.3-1.4,3.7-3.3,3.7h-1.9v-18.4H593.7 M577.9,300.7h14.6c0.5,0,0.7-0.2,0.8-0.5c0.1-0.3,0.1-0.7,0.1-1.2h-15.5
				V300.7z"/>
			<path class="st1" d="M619,312.3h-19.3c0-3.8,2-5.2,4.9-5.2s14.4,0,14.4,0c0.5,0,0.6-0.1,0.7-0.2c0.1-0.1,0.1-0.4,0.1-0.7v-1.1
				c-0.2,0-0.5,0-0.7,0h-13.4c-1.7,0-3.1-0.5-4.2-1.5c-1-1-1.6-2.4-1.6-4.1v-5.4h5l0,4.6c0,0.4,0,0.8,0.1,0.9
				c0.1,0.2,0.2,0.3,0.6,0.3H619c0.7-0.1,0.7-0.2,0.8-0.6v-5.2h5.1v12.7c0,1.8-0.6,3.2-1.6,4.2C622.2,311.8,620.8,312.3,619,312.3
				L619,312.3z"/>
			<path class="st1" d="M645.2,312l-4.6-5.4c-0.3-0.4-1.1-1.1-1.6-1.9c-0.5,0.8-1.3,1.6-1.6,1.9c0,0-1.5,1.8-2.6,3.1
				c-1.1,1.3-3.1,2.3-5.2,2.3h-3.1l7.5-8.9l-7.5-9h6.3l4.6,5.3c0.3,0.4,1.2,1.2,1.6,2.1c0.5-0.8,1.3-1.7,1.6-2.1c0,0,2-2.2,2.7-3.2
				c0.8-0.9,2.6-2.1,4.9-2.1h3.3l-7.5,9l7.5,8.9H645.2z"/>
			<path class="st1" d="M554.4,292.4c-0.6,0.5-1.3,1.1-2,1.6l1.6,5.2c0,0.1,0,0.1,0,0.2l11.9-9.9h-2.9
				C559.7,289.4,556.7,290.5,554.4,292.4"/>
			<polygon class="st1" points="546.4,309.5 548.7,314.3 556.7,314.3 552.3,304.8 			"/>
			<path class="st2" d="M522.3,274c-0.6-1.3,0.1-2.3,1.4-2.3h17.9c1.4,0,2.8,1.1,3.2,2.4l7.9,25.5c0.4,1.3-0.1,3.1-1.2,4l-33.4,27
				c-1.1,0.9-3.1,1.6-4.4,1.6h-12.4c-1.4,0-1.6-0.7-0.6-1.6l32.6-26.9c1.1-0.9,1.5-2.6,0.9-3.9L522.3,274z"/>
			<path class="st3" d="M552.7,299.6l-1.5-4.7c-2.8,2.2-6,4.8-6,4.8c-0.8,0.7-1.4,1.3-1.7,2.2c-0.4,1.1,0.7,3.1,1,3.8l1.3,2.6
				l5.8-4.6C552.6,302.7,553.1,300.9,552.7,299.6"/>
			<rect x="587.6" y="320" class="st4" width="1.8" height="6.7"/>
			<path class="st4" d="M595.5,326.7h-1.6v-4.9c0-0.9,0.7-1.8,1.6-1.8c0.9,0,1.6,1,1.9,1.8l1.4,3.4l1.4-3.4c0.3-0.8,0.9-1.8,1.9-1.8
				c1,0,1.6,0.9,1.6,1.8v4.9H602v-4.9l-1.6,3.5c-0.4,1-0.8,1.6-1.7,1.6c-0.8,0-1.4-0.8-1.7-1.6l-1.5-3.5V326.7z"/>
			<path class="st4" d="M615.8,320c1.7,0,1.7,0.9,1.7,2.1c0,1.2,0,2.1-1.7,2.1h-6.1v2.5H608V320H615.8z M609.7,321.8v0.8h5.6
				c0.5,0,0.5-0.4,0.5-0.8H609.7z"/>
			<path class="st4" d="M621.8,320h7.5c1.6,0,1.6,0.5,1.6,2.1c0,0.8-0.1,0.8-0.4,1.2c0.2,0.3,0.4,0.4,0.4,0.9l0.3,2.5h-1.7l-0.3-2.5
				h-5.8v2.5h-1.7L621.8,320z M623.5,322.5h5.4c0.3,0,0.4-0.4,0.4-0.8h-5.8V322.5z"/>
			<path class="st4" d="M644.7,324.7c0,1.3-0.8,2-2.1,2h-5c-1.2,0-2.1-0.8-2.1-2V322c0.1-1.1,0.9-1.9,2.1-1.9h5
				c1.4,0,2.1,0.9,2.1,2.1V324.7z M643,322.3c0-0.3,0-0.6-0.4-0.6h-5c-0.4,0-0.4,0.2-0.4,0.4v2.2c0,0.3,0,0.6,0.4,0.6h5
				c0.4,0,0.4-0.2,0.4-0.5V322.3z"/>
			<path class="st4" d="M650.4,320l2.6,5l2.7-5h1.9l-2.7,5.2c-0.5,0.9-0.9,1.6-1.8,1.6c-0.9,0-1.4-0.7-1.9-1.6l-2.6-5.2H650.4z"/>
			<path class="st4" d="M670.7,320v1.7h-7.1c-0.4,0-0.4,0.3-0.4,0.6v0.2h7.4v1.7h-7.4v0.2c0,0.3,0,0.6,0.4,0.6h7.1v1.7h-7.1
				c-1.2,0-2.1-0.8-2.1-2.1v-2.4c0-1.2,0.9-2.1,2.1-2.1L670.7,320z"/>
			<path class="st4" d="M675,320h7.5c1.6,0,1.6,0.5,1.6,2.1c0,0.8-0.1,0.8-0.4,1.2c0.2,0.3,0.4,0.4,0.4,0.9l0.3,2.5h-1.7l-0.3-2.5
				h-5.8v2.5H675L675,320z M676.7,322.5h5.4c0.3,0,0.4-0.4,0.4-0.8h-5.8V322.5z"/>
		</g>
		<path class="st5" d="M306.9,405.5c-28.9,28.9-67.2,44.8-108,44.8c-40.8,0-79.1-15.9-108-44.8c-28.7-28.7-44.5-67-44.5-108
			c0-41,15.8-79.3,44.5-108c28.9-28.9,67.2-44.8,108-44.8c40.8,0,79.1,15.9,108,44.7l46.7,46.7h12.5l-52.9-53
			C282.7,152.8,242.1,136,199,136c-43.1,0-83.7,16.8-114.2,47.3c-30.4,30.4-47.1,70.9-47.1,114.2c0,43.3,16.7,83.9,47.1,114.2
			c30.5,30.5,71.1,47.3,114.2,47.3c43.1,0,83.7-16.8,114.2-47.3l53-53h-12.5L306.9,405.5z"/>
		<g>
			<g>
				<g>
					<g>
						<path class="st1" d="M306.8,312.1v-4.7h-14.3c-3.1,0-4.8-0.7-5.6-1.9l0,0c-0.8-1.2-0.8-2.8-0.8-4.4l0,0c0,0,0,0.5,0-2.2
							c0-2.7,3.3-4.6,5.3-4.6v6.3c0,0.5,0,1,0.2,1.3l0,0c0.2,0.3,0.4,0.5,1,0.5l0,0h14.2c0,0,0-1.1,0-3.9c0-2.8,2.5-4.2,5.1-4.2v8.1
							h1.8v5h-1.8v4.7H306.8L306.8,312.1z"/>
					</g>
				</g>
				<g>
					<path class="st1" d="M224.1,294.3c2.3,0,3.6,0.6,4.2,1.7l0,0c0.6,1.1,0.6,2.5,0.6,4.1l0,0c0,1.5,0,2.9-0.6,4l0,0
						c-0.6,1.1-1.9,1.8-4.2,1.7l0,0h-15.7c0,0,0,0.5,0,2.8c0,2.2-1.4,3.6-3.3,3.6c-1.9,0-1.9,0-1.9,0l0,0v-17.9H224.1 M208.4,300.9
						h14.5c0.5,0,0.7-0.2,0.8-0.5l0,0c0.1-0.3,0.1-0.7,0.1-1.1l0,0h-15.4V300.9L208.4,300.9z"/>
				</g>
				<g>
					<path class="st1" d="M249.3,312.1h-19.2c0-3.7,2-5.1,4.9-5.1c2.9,0,14.3,0,14.3,0c0.5,0,0.6-0.1,0.7-0.2l0,0
						c0.1-0.1,0.1-0.4,0.1-0.7l0,0V305c-0.2,0-0.5,0-0.7,0l0,0H236c-1.7,0-3.1-0.5-4.2-1.5l0,0c-1-1-1.6-2.4-1.6-4l0,0v-5.2h5l0,4.5
						c0,0.4,0,0.7,0.1,0.9l0,0c0.1,0.2,0.2,0.3,0.6,0.3l0,0h13.3c0.7-0.1,0.7-0.2,0.8-0.6l0,0v-5h5v12.3c0,1.7-0.6,3.1-1.6,4.1l0,0
						C252.5,311.6,251,312.1,249.3,312.1L249.3,312.1C249.3,312.1,249.3,312.1,249.3,312.1L249.3,312.1z"/>
				</g>
				<g>
					<path class="st1" d="M275.4,311.9l-4.5-5.2c-0.3-0.4-1.1-1.1-1.6-1.9l0,0c-0.5,0.8-1.3,1.5-1.6,1.9l0,0c0,0-1.5,1.8-2.6,3
						c-1.1,1.2-3.1,2.2-5.2,2.2c-2,0-3.1,0-3.1,0l7.5-8.7l-7.5-8.8h6.3l4.5,5.2c0.3,0.4,1.1,1.2,1.6,2l0,0c0.5-0.8,1.3-1.6,1.6-2
						l0,0c0,0,1.9-2.2,2.7-3.1c0.8-0.9,2.6-2.1,4.9-2.1c2.3,0,3.3,0,3.3,0l-7.5,8.8l7.5,8.7H275.4L275.4,311.9z"/>
				</g>
			</g>
			<g>
				<path class="st1" d="M184.9,292.8c-0.6,0.5-1.3,1-2,1.6l1.6,5.1c0,0.1,0,0.1,0,0.2l11.9-9.6h-2.9
					C190.2,290,187.3,291,184.9,292.8z"/>
				<polygon class="st1" points="177,309.4 179.3,314.1 187.3,314.1 182.8,304.8 				"/>
			</g>
			<g>
				<path class="st6" d="M153,274.9c-0.6-1.2,0.1-2.2,1.4-2.2h17.8c1.4,0,2.8,1.1,3.2,2.4l7.9,24.8c0.4,1.3-0.1,3.1-1.2,3.9
					L148.8,330c-1.1,0.8-3.1,1.5-4.4,1.5h-12.3c-1.4,0-1.6-0.7-0.6-1.6l32.5-26.2c1.1-0.9,1.5-2.6,0.9-3.8L153,274.9z"/>
			</g>
			<path class="st5" d="M183.3,299.8l-1.5-4.6c-2.8,2.1-6,4.6-6,4.6c-0.8,0.7-1.4,1.2-1.7,2.2c-0.4,1,0.7,3,1,3.7l1.2,2.5l5.7-4.5
				C183.2,302.9,183.7,301.1,183.3,299.8z"/>
			<g>
				<path class="st7" d="M238.6,319.6c1.8,0,1.8,0.9,1.8,2.1c0,1.2,0,2.1-1.8,2.1h-6.1v2.4h-1.8v-6.6H238.6z M232.5,321.3v0.8h5.7
					c0.5,0,0.5-0.4,0.5-0.8H232.5z"/>
				<path class="st7" d="M243,319.6h7.6c1.7,0,1.7,0.5,1.7,2.1c0,0.8-0.1,0.8-0.4,1.2c0.2,0.3,0.4,0.4,0.4,0.9l0.3,2.5h-1.7
					l-0.3-2.5h-5.8v2.5h-1.7L243,319.6z M244.7,322.1h5.4c0.3,0,0.4-0.4,0.4-0.8h-5.8V322.1z"/>
				<path class="st7" d="M264.4,324.2c0,1.3-0.8,2-2.1,2h-5.1c-1.2,0-2.1-0.8-2.1-2v-2.7c0.1-1.1,0.9-1.9,2.1-1.9h5.1
					c1.4,0,2.1,0.9,2.1,2.1V324.2z M262.6,321.9c0-0.3,0-0.6-0.4-0.6h-5.1c-0.4,0-0.4,0.2-0.4,0.4v2.2c0,0.3,0,0.6,0.4,0.6h5.1
					c0.4,0,0.4-0.2,0.4-0.5V321.9z"/>
				<path class="st7" d="M276.4,324.5v1.7h-7.3c-1.2,0-2.1-0.8-2.1-2v-2.7c0.1-1.1,0.9-1.9,2.1-1.9h7.3v1.7h-7.3
					c-0.4,0-0.4,0.2-0.4,0.4v2.2c0,0.3,0,0.6,0.4,0.6H276.4z"/>
				<path class="st7" d="M288.3,319.6v1.7h-7.2c-0.4,0-0.4,0.3-0.4,0.6v0.2h7.6v1.7h-7.6v0.2c0,0.3,0,0.6,0.4,0.6h7.2v1.7h-7.2
					c-1.3,0-2.1-0.8-2.1-2.1v-2.4c0-1.2,0.9-2.1,2.1-2.1L288.3,319.6z"/>
				<path class="st7" d="M298.7,322.1c2,0,2.2,0.9,2.2,2.1c0,1.2-0.3,2-2.2,2h-7.5v-1.7h7.5c0.5,0,0.5-0.3,0.6-0.8h-6.2
					c-1.9,0-2.3-0.9-2.3-2.1c0-1.3,0.2-2.1,2.3-2.1h7.4v1.7h-7.9c0,0.3,0,0.8,0.4,0.8H298.7z"/>
				<path class="st7" d="M311.5,322.1c2,0,2.2,0.9,2.2,2.1c0,1.2-0.3,2-2.2,2H304v-1.7h7.5c0.5,0,0.5-0.3,0.6-0.8h-6.2
					c-1.9,0-2.3-0.9-2.3-2.1c0-1.3,0.2-2.1,2.3-2.1h7.4v1.7h-7.9c0,0.3,0,0.8,0.4,0.8H311.5z"/>
			</g>
		</g>
	</g>
	<g>
		<circle class="st0" cx="486.7" cy="406.4" r="24.1"/>
		<path id="bar_chart_4_icon" class="st8" d="M480.7,418.8h-7.3v-7.1h7.3V418.8L480.7,418.8z M490.3,408.4h-7.4v10.4h7.4V408.4z
			 M499.7,403.8h-7.4v15h7.4V403.8z M499.9,390.7l-6,1l1.3,1.3l-9,8.6l-3.3-3.1l-9.1,9.1l2.2,2.2l6.8-6.8l3.4,3.2l11.2-10.9l1.3,1.3
			L499.9,390.7z"/>
	</g>
	<g>
		<circle class="st0" cx="712.8" cy="406.4" r="24.1"/>
		<path id="lifebuoy-icon" class="st8" d="M712.8,393c-7.4,0-13.4,6-13.4,13.4c0,7.4,6,13.4,13.4,13.4c7.4,0,13.4-6,13.4-13.4
			C726.2,399,720.2,393,712.8,393z M717.6,411.3c-2.7,2.7-7.1,2.7-9.8,0c-2.7-2.7-2.7-7.1,0-9.8c2.7-2.7,7.1-2.7,9.8,0
			C720.3,404.2,720.3,408.6,717.6,411.3z M718,395.9l-1.6,2.8c-2.3-1.1-4.9-1.1-7.2,0l-1.6-2.8C710.8,394.3,714.7,394.2,718,395.9z
			 M702.2,401.2l2.8,1.6c-1.1,2.3-1.1,5,0.1,7.3l-2.8,1.6C700.6,408.5,700.5,404.6,702.2,401.2z M707.6,417l1.6-2.8c2.2,1,4.8,1,7,0
			l1.6,2.8C714.7,418.6,710.9,418.6,707.6,417z M720.4,410.2c1.1-2.3,1.1-5,0.1-7.3l2.8-1.6c1.6,3.3,1.6,7.2-0.1,10.6L720.4,410.2z"
			/>
	</g>
	<g>
		<circle class="st0" cx="712.8" cy="184.4" r="24.1"/>
		<path class="st8" d="M703.1,185.8l10.8-10l3.1-2.8l4.7-4.3l-9.4,13.2l10.1-1.1l-17.9,18.8l10.1-14.8L703.1,185.8z"/>
	</g>
	<g>
		<circle class="st0" cx="486.7" cy="184.4" r="24.1"/>
		<path class="st8" d="M486.7,174.1c-6.9,0-13.4,3.3-17.4,8.9l-0.8,1.1l0.8,1.1c4,5.6,10.5,8.9,17.4,8.9s13.4-3.3,17.4-8.9l0.8-1.1
			L504,183C500,177.5,493.5,174.1,486.7,174.1z M492,181.5c0,1.1-0.9,2-2,2s-2-0.9-2-2s0.9-2,2-2S492,180.4,492,181.5z M486.7,190.3
			c-5.1,0-10-2.3-13.3-6.1c1.9-2.2,4.2-3.8,6.8-4.9c-0.4,0.9-0.6,1.9-0.6,2.9c0,3.9,3.2,7.1,7.1,7.1s7.1-3.2,7.1-7.1
			c0-1-0.2-2-0.6-2.9c2.6,1,5,2.7,6.8,4.9C496.7,188,491.8,190.3,486.7,190.3z"/>
	</g>
	<g>
		<circle class="st5" cx="82.8" cy="191.7" r="24.1"/>
		<path id="pencil-9-icon" class="st8" d="M85.5,183.1L72,196.7l-1.5,7.3l7.4-1.4L91.4,189L85.5,183.1z M73.5,198.2l12-12l0.7,0.7
			l-12,12L73.5,198.2z M76.4,201l-0.7-0.7l12-12l0.7,0.7L76.4,201z M95.4,185.1l-2.7,2.7l-5.9-5.9l2.7-2.7L95.4,185.1z"/>
	</g>
	<g>
		<circle class="st5" cx="308.9" cy="184.4" r="24.1"/>
		<path id="text-file-4-icon" class="st8" d="M314.3,189.6h-9V188h9V189.6z M314.3,186.6h-9V185h9V186.6z M314.3,183.6h-9V182h9
			V183.6z M312,174.6v4.6h4.6v13.1H303v-17.7H312 M313.4,172.5h-12.5v22h17.9v-16.6L313.4,172.5z"/>
	</g>
	<g>
		<circle class="st5" cx="82.8" cy="406.4" r="24.1"/>
		<path id="user-13-icon" class="st8" d="M97.4,415.5H90c0-8-4-4.2-4-11.2c0-2.5,1.7-3.9,3.8-3.9c3.2,0,5.3,3,2.4,8.6
			c-1,1.9,1,2.3,3.2,2.8C97.6,412.2,97.4,413.4,97.4,415.5z M85.4,410.8c-2.7-0.6-5.3-1.2-4.1-3.5c3.8-7.1,1-10.9-3-10.9
			c-4,0-6.7,3.9-3,10.9c1.3,2.3-1.4,2.9-4.1,3.5c-2.7,0.6-2.5,2.1-2.5,4.7h19.1C87.9,412.9,88.1,411.4,85.4,410.8z"/>
	</g>
	<g>
		<circle class="st5" cx="308.9" cy="406.4" r="24.1"/>
		<circle class="st8" cx="301.6" cy="394.8" r="1.9"/>
		<circle class="st8" cx="321" cy="414.1" r="1.9"/>
		<circle class="st8" cx="298.8" cy="412" r="1.9"/>
		<path class="st8" d="M304.4,398.6l-0.7-1.3c-0.2-0.3-0.5-0.4-0.9-0.3c-0.3,0.2-0.4,0.5-0.3,0.9l0.7,1.3c0.1,0.2,0.3,0.3,0.6,0.3
			c0.1,0,0.2,0,0.3-0.1C304.4,399.3,304.6,398.9,304.4,398.6z"/>
		<path class="st8" d="M305.1,402.6c0.1,0.2,0.3,0.3,0.6,0.3c0.1,0,0.2,0,0.3-0.1c0.3-0.2,0.4-0.6,0.3-0.9l-0.7-1.3
			c-0.2-0.3-0.5-0.4-0.9-0.3c-0.3,0.2-0.4,0.5-0.3,0.9L305.1,402.6z"/>
		<path class="st8" d="M318.1,411.9l-1.5-0.8c-0.3-0.2-0.7-0.1-0.9,0.2c-0.2,0.3-0.1,0.7,0.2,0.9l1.5,0.8c0.1,0.1,0.2,0.1,0.3,0.1
			c0.2,0,0.4-0.1,0.5-0.3C318.5,412.5,318.4,412.1,318.1,411.9z"/>
		<path class="st8" d="M314.4,409.8L313,409c-0.3-0.2-0.7-0.1-0.9,0.2c-0.2,0.3-0.1,0.7,0.2,0.9l1.5,0.8c0.1,0.1,0.2,0.1,0.3,0.1
			c0.2,0,0.4-0.1,0.6-0.3C314.8,410.4,314.7,410,314.4,409.8z"/>
		<path class="st8" d="M303.2,409l-1.5,0.8c-0.3,0.2-0.4,0.6-0.2,0.9c0.1,0.2,0.3,0.3,0.6,0.3c0.1,0,0.2,0,0.3-0.1l1.5-0.8
			c0.3-0.2,0.4-0.6,0.2-0.9C303.9,408.9,303.5,408.8,303.2,409z"/>
		<path class="st8" d="M322,395.5c0-1.6-1.3-2.8-2.8-2.8c-1.6,0-2.8,1.3-2.8,2.8c0,0.5,0.1,1,0.4,1.4l-6.5,6.8
			c-0.6-0.4-1.3-0.6-2-0.6c-2.1,0-3.9,1.7-3.9,3.9c0,2.1,1.7,3.9,3.9,3.9c0,0,0.1,0,0.1,0l1.4,5.7c-0.8,0.5-1.3,1.4-1.3,2.4
			c0,1.6,1.3,2.8,2.8,2.8c1.6,0,2.8-1.3,2.8-2.8c0-1.5-1.2-2.7-2.7-2.8l-1.4-5.7c1.3-0.6,2.1-2,2.1-3.5c0-0.8-0.2-1.5-0.7-2.2
			l6.5-6.8c0.4,0.2,0.8,0.3,1.2,0.3C320.7,398.3,322,397.1,322,395.5z M310.1,417.9c0.3-0.3,0.7-0.5,1.1-0.5c0.2,0,0.3,0,0.5,0.1
			c0.6,0.2,1.1,0.8,1.1,1.5c0,0.9-0.7,1.6-1.6,1.6s-1.6-0.7-1.6-1.6C309.7,418.5,309.8,418.2,310.1,417.9z M310.3,407.5
			c-0.1,0.4-0.3,0.8-0.6,1.1c-0.1,0.1-0.1,0.1-0.2,0.2c-0.4,0.3-0.8,0.4-1.3,0.4c-0.1,0-0.2,0-0.3,0c-0.5-0.1-0.9-0.3-1.2-0.6
			c-0.3-0.3-0.5-0.7-0.6-1.1c0-0.1-0.1-0.3-0.1-0.5c0-0.6,0.3-1.2,0.7-1.6c0.3-0.3,0.7-0.5,1.1-0.6c0.1,0,0.3,0,0.5,0
			c0.3,0,0.5,0.1,0.8,0.2c0.5,0.2,1,0.6,1.2,1.2c0.1,0.3,0.2,0.6,0.2,0.9C310.4,407.2,310.4,407.3,310.3,407.5z M319.1,397.1
			c-0.1,0-0.2,0-0.3,0c-0.6-0.1-1.1-0.6-1.2-1.2c0-0.1,0-0.2,0-0.4c0-0.9,0.7-1.6,1.6-1.6c0.9,0,1.6,0.7,1.6,1.6
			C320.7,396.4,320,397.1,319.1,397.1z"/>
	</g>
</g>
</svg>
