<?xml version="1.0" encoding="utf-8"?>
<!-- Generator: Adobe Illustrator 16.2.0, SVG Export Plug-In . SVG Version: 6.00 Build 0)  -->
<!DOCTYPE svg PUBLIC "-//W3C//DTD SVG 1.1//EN" "http://www.w3.org/Graphics/SVG/1.1/DTD/svg11.dtd">
<svg version="1.1" id="Calque_1" xmlns="http://www.w3.org/2000/svg" xmlns:xlink="http://www.w3.org/1999/xlink" x="0px" y="0px"
	 width="512px" height="512px" viewBox="0 0 512 512" enable-background="new 0 0 512 512" xml:space="preserve">
<g>
	<g>
		<path fill="#FFFFFF" d="M509.54,107.667c-6.333-2.369-2.822,5.096-8.309,3.559c-4.893,41.437-41.928,60.868-64.078,88.995
			c-13.351,8.556-26.595,17.608-40.346,26.111c-13.599,8.403-28.478,14.388-41.529,23.731
			c-16.614,2.175-31.743,11.915-48.652,17.801c-45.139,15.674-98.686,36.735-150.696,39.158c-49.993,2.32-93.793-5.838-119.85-34.41
			c34.563,0.936,78.96-7.172,102.048-13.057c1.481-0.396,2.176-0.246,4.746,1.186c45.434-10.233,86.573-25.561,122.226-37.968
			c-0.599-3.757,2.124-4.208,1.184-8.306c-31.101-2.28-61.806,17.697-96.119,23.732c-25.411,4.447-59.477,8.851-78.316,10.681
			c-12.014,1.134-29.762,5.681-40.347,14.237c-3.947-3.904-8.601,1.929-15.421,2.372c-8.555,0.546-18.793-6.33-23.738,0
			c0.501,3.857,2.471,6.229,4.753,8.309c-5.438,0.492-13.402-1.535-15.436,2.373c1.891,9.935,14.939,8.801,22.555,13.049
			c14.335,14.243,31.543,31.549,46.274,41.533c7.174,8.702,17.209,13.251,26.109,20.173c20.417,15.969,37.478,42.224,62.887,51.028
			c-3.211-11.426-17.449-11.823-21.356-22.549c-6.823-3.86-13.099-8.26-17.802-14.24c6.333,0.396,7.071,6.378,11.867,8.304
			c2.228-1.332,5.59-1.529,8.305-2.369c-1.031-12.908-18.441-15.329-28.477-24.92c-1.826-3.709-4.848-6.227-7.117-9.493
			c-2.965-0.148-3.66-2.227-5.934,0c3.257-3.168-1.385-2.572-1.189-5.934c-10.133-10.084-21.796-18.54-30.85-29.665
			c14.14,7.123,35.4,8.255,55.771,11.866c1.186-2.919,5.242,2.326,4.744-3.561c4.208,0.149-2.519,3.904,1.189,3.561
			c42.176,3.163,80.392-10.877,113.915-17.8c4.01-1.088,0.144-2.67,2.376-4.748c0.788,6.577,19.43-5.34,28.478-8.304
			c5.835-1.93,12.556-1.537,17.797-3.558c5.388-2.083,10.088-6.282,15.426-8.311c4.946-1.878,12.705-1.729,17.805-3.558
			c2.316-0.839,2.965-4.35,5.928-2.376c-0.299-0.739-0.54-1.284-0.791-1.683c-1.236-0.788-1.087-1.972,0,0
			c0.445,0.248,1.092,0.499,1.979,0.499c2.719,0,15.373-4.649,21.36-7.12c19.431-8.109,47.511-25.069,66.45-37.97
			c10.43-7.124,23.336-12.165,22.545-20.175c1.187,0.793,1.233,2.72,3.562,2.37c24.025-28.279,59.824-49.44,66.449-91.363
			C510.526,109.053,509.784,108.608,509.54,107.667z M193.899,240.568c-42.966,11.821-89.488,25.418-136.462,23.731
			C99.911,247.442,154.297,246.948,193.899,240.568z M103.714,348.55c-4.745-7.117-17.349-12.704-17.795-20.172
			C89.723,336.488,103.464,340.89,103.714,348.55z M30.15,278.544c2.271,7.663,15.373,10.675,15.425,16.609
			C41.419,289.369,27.675,286.946,30.15,278.544z M70.488,324.818c-2.521-5.833-13.895-8.994-13.051-14.24
			C60.158,316.167,71.626,319.281,70.488,324.818z"/>
	</g>
</g>
</svg>
