<?xml version="1.0" encoding="UTF-8" standalone="no"?>
<!DOCTYPE svg PUBLIC "-//W3C//DTD SVG 1.1//EN"
 "http://www.w3.org/Graphics/SVG/1.1/DTD/svg11.dtd">
<!-- Generated by graphviz version 2.43.0 (0)
 -->
<!-- Title: CallGraph Pages: 1 -->
<svg width="1178pt" height="440pt"
 viewBox="0.00 0.00 1178.00 440.00" xmlns="http://www.w3.org/2000/svg" xmlns:xlink="http://www.w3.org/1999/xlink">
<g id="graph0" class="graph" transform="scale(1 1) rotate(0) translate(4 436)">
<title>CallGraph</title>
<polygon fill="white" stroke="transparent" points="-4,4 -4,-436 1174,-436 1174,4 -4,4"/>
<!-- _ActionNotifications_act_create_notice_ -->
<g id="node1" class="node">
<title>_ActionNotifications_act_create_notice_</title>
<polygon fill="lightblue" stroke="white" points="257,-432 0,-432 0,-396 257,-396 257,-432"/>
<text text-anchor="middle" x="128.5" y="-410.3" font-family="Arial" font-size="14.00">_ActionNotifications_act_create_notice_</text>
</g>
<!-- _ActionNotifications_notify_by_role_ -->
<g id="node2" class="node">
<title>_ActionNotifications_notify_by_role_</title>
<polygon fill="lightblue" stroke="white" points="547.5,-36 313.5,-36 313.5,0 547.5,0 547.5,-36"/>
<text text-anchor="middle" x="430.5" y="-14.3" font-family="Arial" font-size="14.00">_ActionNotifications_notify_by_role_</text>
</g>
<!-- _ActionNotifications_act_create_notice_&#45;&gt;_ActionNotifications_notify_by_role_ -->
<g id="edge1" class="edge">
<title>_ActionNotifications_act_create_notice_&#45;&gt;_ActionNotifications_notify_by_role_</title>
<path fill="none" stroke="black" d="M141.67,-395.82C189.45,-333.48 353.86,-118.99 410.86,-44.63"/>
<polygon fill="black" stroke="black" points="413.95,-46.34 417.26,-36.27 408.4,-42.08 413.95,-46.34"/>
</g>
<!-- _ActionNotifications_act_start_processing_ -->
<g id="node3" class="node">
<title>_ActionNotifications_act_start_processing_</title>
<polygon fill="lightblue" stroke="white" points="568,-432 293,-432 293,-396 568,-396 568,-432"/>
<text text-anchor="middle" x="430.5" y="-410.3" font-family="Arial" font-size="14.00">_ActionNotifications_act_start_processing_</text>
</g>
<!-- _ActionNotifications_act_start_processing_&#45;&gt;_ActionNotifications_notify_by_role_ -->
<g id="edge2" class="edge">
<title>_ActionNotifications_act_start_processing_&#45;&gt;_ActionNotifications_notify_by_role_</title>
<path fill="none" stroke="black" d="M430.5,-395.82C430.5,-333.98 430.5,-122.47 430.5,-46.47"/>
<polygon fill="black" stroke="black" points="434,-46.27 430.5,-36.27 427,-46.27 434,-46.27"/>
</g>
<!-- _ActionNotifications_act_close_action_ -->
<g id="node4" class="node">
<title>_ActionNotifications_act_close_action_</title>
<polygon fill="lightblue" stroke="white" points="1150,-432 899,-432 899,-396 1150,-396 1150,-432"/>
<text text-anchor="middle" x="1024.5" y="-410.3" font-family="Arial" font-size="14.00">_ActionNotifications_act_close_action_</text>
</g>
<!-- _ActionNotifications_notifs_audits_autoclose_ -->
<g id="node5" class="node">
<title>_ActionNotifications_notifs_audits_autoclose_</title>
<polygon fill="lightblue" stroke="white" points="1170,-36 879,-36 879,0 1170,0 1170,-36"/>
<text text-anchor="middle" x="1024.5" y="-14.3" font-family="Arial" font-size="14.00">_ActionNotifications_notifs_audits_autoclose_</text>
</g>
<!-- _ActionNotifications_act_close_action_&#45;&gt;_ActionNotifications_notifs_audits_autoclose_ -->
<g id="edge3" class="edge">
<title>_ActionNotifications_act_close_action_&#45;&gt;_ActionNotifications_notifs_audits_autoclose_</title>
<path fill="none" stroke="black" d="M1024.5,-395.82C1024.5,-333.98 1024.5,-122.47 1024.5,-46.47"/>
<polygon fill="black" stroke="black" points="1028,-46.27 1024.5,-36.27 1021,-46.27 1028,-46.27"/>
</g>
<!-- _ActionNotifications_act_cancel_action_ -->
<g id="node6" class="node">
<title>_ActionNotifications_act_cancel_action_</title>
<polygon fill="lightblue" stroke="white" points="862.5,-432 604.5,-432 604.5,-396 862.5,-396 862.5,-432"/>
<text text-anchor="middle" x="733.5" y="-410.3" font-family="Arial" font-size="14.00">_ActionNotifications_act_cancel_action_</text>
</g>
<!-- _ActionNotifications_act_cancel_action_&#45;&gt;_ActionNotifications_notify_by_role_ -->
<g id="edge4" class="edge">
<title>_ActionNotifications_act_cancel_action_&#45;&gt;_ActionNotifications_notify_by_role_</title>
<path fill="none" stroke="black" d="M720.29,-395.82C672.34,-333.48 507.4,-118.99 450.21,-44.63"/>
<polygon fill="black" stroke="black" points="452.65,-42.07 443.78,-36.27 447.11,-46.33 452.65,-42.07"/>
</g>
</g>
</svg>
