<?xml version="1.0" encoding="UTF-8" standalone="no"?>
<!DOCTYPE svg PUBLIC "-//W3C//DTD SVG 1.1//EN"
 "http://www.w3.org/Graphics/SVG/1.1/DTD/svg11.dtd">
<!-- Generated by graphviz version 2.43.0 (0)
 -->
<!-- Title: CallGraph Pages: 1 -->
<svg width="830pt" height="1232pt"
 viewBox="0.00 0.00 829.50 1232.00" xmlns="http://www.w3.org/2000/svg" xmlns:xlink="http://www.w3.org/1999/xlink">
<g id="graph0" class="graph" transform="scale(1 1) rotate(0) translate(4 1228)">
<title>CallGraph</title>
<polygon fill="white" stroke="transparent" points="-4,4 -4,-1228 825.5,-1228 825.5,4 -4,4"/>
<!-- _ActorValidation_validate_ -->
<g id="node1" class="node">
<title>_ActorValidation_validate_</title>
<polygon fill="lightblue" stroke="white" points="542.5,-828 366.5,-828 366.5,-792 542.5,-792 542.5,-828"/>
<text text-anchor="middle" x="454.5" y="-806.3" font-family="Arial" font-size="14.00">_ActorValidation_validate_</text>
</g>
<!-- _ActorValidation_validate_responsibility_name_ -->
<g id="node2" class="node">
<title>_ActorValidation_validate_responsibility_name_</title>
<polygon fill="lightblue" stroke="white" points="303,-432 0,-432 0,-396 303,-396 303,-432"/>
<text text-anchor="middle" x="151.5" y="-410.3" font-family="Arial" font-size="14.00">_ActorValidation_validate_responsibility_name_</text>
</g>
<!-- _ActorValidation_validate_&#45;&gt;_ActorValidation_validate_responsibility_name_ -->
<g id="edge1" class="edge">
<title>_ActorValidation_validate_&#45;&gt;_ActorValidation_validate_responsibility_name_</title>
<path fill="none" stroke="black" d="M441.29,-791.82C393.34,-729.48 228.4,-514.99 171.21,-440.63"/>
<polygon fill="black" stroke="black" points="173.65,-438.07 164.78,-432.27 168.11,-442.33 173.65,-438.07"/>
</g>
<!-- _ActorValidation_validate_singular_ -->
<g id="node3" class="node">
<title>_ActorValidation_validate_singular_</title>
<polygon fill="lightblue" stroke="white" points="569.5,-432 339.5,-432 339.5,-396 569.5,-396 569.5,-432"/>
<text text-anchor="middle" x="454.5" y="-410.3" font-family="Arial" font-size="14.00">_ActorValidation_validate_singular_</text>
</g>
<!-- _ActorValidation_validate_&#45;&gt;_ActorValidation_validate_singular_ -->
<g id="edge2" class="edge">
<title>_ActorValidation_validate_&#45;&gt;_ActorValidation_validate_singular_</title>
<path fill="none" stroke="black" d="M454.5,-791.82C454.5,-729.98 454.5,-518.47 454.5,-442.47"/>
<polygon fill="black" stroke="black" points="458,-442.27 454.5,-432.27 451,-442.27 458,-442.27"/>
</g>
<!-- _ActorValidation_validate_plural_ -->
<g id="node4" class="node">
<title>_ActorValidation_validate_plural_</title>
<polygon fill="lightblue" stroke="white" points="821.5,-432 605.5,-432 605.5,-396 821.5,-396 821.5,-432"/>
<text text-anchor="middle" x="713.5" y="-410.3" font-family="Arial" font-size="14.00">_ActorValidation_validate_plural_</text>
</g>
<!-- _ActorValidation_validate_&#45;&gt;_ActorValidation_validate_plural_ -->
<g id="edge3" class="edge">
<title>_ActorValidation_validate_&#45;&gt;_ActorValidation_validate_plural_</title>
<path fill="none" stroke="black" d="M465.8,-791.82C506.69,-729.6 647.2,-515.86 696.35,-441.08"/>
<polygon fill="black" stroke="black" points="699.58,-442.55 702.15,-432.27 693.73,-438.71 699.58,-442.55"/>
</g>
<!-- _ActorValidation_full_responsibility_name_ -->
<g id="node6" class="node">
<title>_ActorValidation_full_responsibility_name_</title>
<polygon fill="lightblue" stroke="white" points="591.5,-36 317.5,-36 317.5,0 591.5,0 591.5,-36"/>
<text text-anchor="middle" x="454.5" y="-14.3" font-family="Arial" font-size="14.00">_ActorValidation_full_responsibility_name_</text>
</g>
<!-- _ActorValidation_validate_responsibility_name_&#45;&gt;_ActorValidation_full_responsibility_name_ -->
<g id="edge5" class="edge">
<title>_ActorValidation_validate_responsibility_name_&#45;&gt;_ActorValidation_full_responsibility_name_</title>
<path fill="none" stroke="black" d="M164.71,-395.82C212.66,-333.48 377.6,-118.99 434.79,-44.63"/>
<polygon fill="black" stroke="black" points="437.89,-46.33 441.22,-36.27 432.35,-42.07 437.89,-46.33"/>
</g>
<!-- _ActorValidation_validate_singular_&#45;&gt;_ActorValidation_full_responsibility_name_ -->
<g id="edge6" class="edge">
<title>_ActorValidation_validate_singular_&#45;&gt;_ActorValidation_full_responsibility_name_</title>
<path fill="none" stroke="black" d="M454.5,-395.82C454.5,-333.98 454.5,-122.47 454.5,-46.47"/>
<polygon fill="black" stroke="black" points="458,-46.27 454.5,-36.27 451,-46.27 458,-46.27"/>
</g>
<!-- _ActorValidation_validate_plural_&#45;&gt;_ActorValidation_full_responsibility_name_ -->
<g id="edge7" class="edge">
<title>_ActorValidation_validate_plural_&#45;&gt;_ActorValidation_full_responsibility_name_</title>
<path fill="none" stroke="black" d="M702.2,-395.82C661.31,-333.6 520.8,-119.86 471.65,-45.08"/>
<polygon fill="black" stroke="black" points="474.27,-42.71 465.85,-36.27 468.42,-46.55 474.27,-42.71"/>
</g>
<!-- _ActorValidation_validate_module_ -->
<g id="node5" class="node">
<title>_ActorValidation_validate_module_</title>
<polygon fill="lightblue" stroke="white" points="568.5,-1224 340.5,-1224 340.5,-1188 568.5,-1188 568.5,-1224"/>
<text text-anchor="middle" x="454.5" y="-1202.3" font-family="Arial" font-size="14.00">_ActorValidation_validate_module_</text>
</g>
<!-- _ActorValidation_validate_module_&#45;&gt;_ActorValidation_validate_ -->
<g id="edge4" class="edge">
<title>_ActorValidation_validate_module_&#45;&gt;_ActorValidation_validate_</title>
<path fill="none" stroke="black" d="M454.5,-1187.82C454.5,-1125.98 454.5,-914.47 454.5,-838.47"/>
<polygon fill="black" stroke="black" points="458,-838.27 454.5,-828.27 451,-838.27 458,-838.27"/>
</g>
</g>
</svg>
