<?xml version="1.0" encoding="UTF-8" standalone="no"?>
<!DOCTYPE svg PUBLIC "-//W3C//DTD SVG 1.1//EN"
 "http://www.w3.org/Graphics/SVG/1.1/DTD/svg11.dtd">
<!-- Generated by graphviz version 2.43.0 (0)
 -->
<!-- Title: CallGraph Pages: 1 -->
<svg width="5428pt" height="440pt"
 viewBox="0.00 0.00 5428.00 440.00" xmlns="http://www.w3.org/2000/svg" xmlns:xlink="http://www.w3.org/1999/xlink">
<g id="graph0" class="graph" transform="scale(1 1) rotate(0) translate(4 436)">
<title>CallGraph</title>
<polygon fill="white" stroke="transparent" points="-4,4 -4,-436 5424,-436 5424,4 -4,4"/>
<!-- _ActorsController_create_ -->
<g id="node1" class="node">
<title>_ActorsController_create_</title>
<polygon fill="lightblue" stroke="white" points="781,-432 608,-432 608,-396 781,-396 781,-432"/>
<text text-anchor="middle" x="694.5" y="-410.3" font-family="Arial" font-size="14.00">_ActorsController_create_</text>
</g>
<!-- _ActorsController_authorize_multiple_ -->
<g id="node2" class="node">
<title>_ActorsController_authorize_multiple_</title>
<polygon fill="lightblue" stroke="white" points="527.5,-36 281.5,-36 281.5,0 527.5,0 527.5,-36"/>
<text text-anchor="middle" x="404.5" y="-14.3" font-family="Arial" font-size="14.00">_ActorsController_authorize_multiple_</text>
</g>
<!-- _ActorsController_create_&#45;&gt;_ActorsController_authorize_multiple_ -->
<g id="edge1" class="edge">
<title>_ActorsController_create_&#45;&gt;_ActorsController_authorize_multiple_</title>
<path fill="none" stroke="black" d="M681.85,-395.82C635.97,-333.48 478.1,-118.99 423.36,-44.63"/>
<polygon fill="black" stroke="black" points="425.96,-42.25 417.21,-36.27 420.32,-46.4 425.96,-42.25"/>
</g>
<!-- _ActorsController_push_user_to_ -->
<g id="node3" class="node">
<title>_ActorsController_push_user_to_</title>
<polygon fill="lightblue" stroke="white" points="1069.5,-36 851.5,-36 851.5,0 1069.5,0 1069.5,-36"/>
<text text-anchor="middle" x="960.5" y="-14.3" font-family="Arial" font-size="14.00">_ActorsController_push_user_to_</text>
</g>
<!-- _ActorsController_create_&#45;&gt;_ActorsController_push_user_to_ -->
<g id="edge2" class="edge">
<title>_ActorsController_create_&#45;&gt;_ActorsController_push_user_to_</title>
<path fill="none" stroke="black" d="M706.1,-395.82C748.19,-333.48 892.99,-118.99 943.2,-44.63"/>
<polygon fill="black" stroke="black" points="946.14,-46.52 948.84,-36.27 940.34,-42.6 946.14,-46.52"/>
</g>
<!-- _ActorsController_wording_ -->
<g id="node4" class="node">
<title>_ActorsController_wording_</title>
<polygon fill="lightblue" stroke="white" points="1289,-36 1106,-36 1106,0 1289,0 1289,-36"/>
<text text-anchor="middle" x="1197.5" y="-14.3" font-family="Arial" font-size="14.00">_ActorsController_wording_</text>
</g>
<!-- _ActorsController_create_&#45;&gt;_ActorsController_wording_ -->
<g id="edge3" class="edge">
<title>_ActorsController_create_&#45;&gt;_ActorsController_wording_</title>
<path fill="none" stroke="black" d="M716.44,-395.82C796.84,-332.84 1075.51,-114.56 1167.66,-42.38"/>
<polygon fill="black" stroke="black" points="1170.02,-44.97 1175.73,-36.05 1165.7,-39.46 1170.02,-44.97"/>
</g>
<!-- _ActorsController_remove_user_from_ -->
<g id="node5" class="node">
<title>_ActorsController_remove_user_from_</title>
<polygon fill="lightblue" stroke="white" points="815,-36 564,-36 564,0 815,0 815,-36"/>
<text text-anchor="middle" x="689.5" y="-14.3" font-family="Arial" font-size="14.00">_ActorsController_remove_user_from_</text>
</g>
<!-- _ActorsController_create_&#45;&gt;_ActorsController_remove_user_from_ -->
<g id="edge4" class="edge">
<title>_ActorsController_create_&#45;&gt;_ActorsController_remove_user_from_</title>
<path fill="none" stroke="black" d="M694.28,-395.82C693.5,-333.98 690.81,-122.47 689.85,-46.47"/>
<polygon fill="black" stroke="black" points="693.35,-46.23 689.72,-36.27 686.35,-46.32 693.35,-46.23"/>
</g>
<!-- _ActorsController_create_group_ -->
<g id="node6" class="node">
<title>_ActorsController_create_group_</title>
<polygon fill="lightblue" stroke="white" points="1895,-432 1680,-432 1680,-396 1895,-396 1895,-432"/>
<text text-anchor="middle" x="1787.5" y="-410.3" font-family="Arial" font-size="14.00">_ActorsController_create_group_</text>
</g>
<!-- _ActorsController_authorize_group_ -->
<g id="node7" class="node">
<title>_ActorsController_authorize_group_</title>
<polygon fill="lightblue" stroke="white" points="2447,-36 2214,-36 2214,0 2447,0 2447,-36"/>
<text text-anchor="middle" x="2330.5" y="-14.3" font-family="Arial" font-size="14.00">_ActorsController_authorize_group_</text>
</g>
<!-- _ActorsController_create_group_&#45;&gt;_ActorsController_authorize_group_ -->
<g id="edge5" class="edge">
<title>_ActorsController_create_group_&#45;&gt;_ActorsController_authorize_group_</title>
<path fill="none" stroke="black" d="M1811.18,-395.82C1898.15,-332.71 2200.02,-113.68 2298.88,-41.94"/>
<polygon fill="black" stroke="black" points="2300.96,-44.76 2307,-36.05 2296.85,-39.09 2300.96,-44.76"/>
</g>
<!-- _ActorsController_push_group_to_ -->
<g id="node8" class="node">
<title>_ActorsController_push_group_to_</title>
<polygon fill="lightblue" stroke="white" points="1880.5,-36 1654.5,-36 1654.5,0 1880.5,0 1880.5,-36"/>
<text text-anchor="middle" x="1767.5" y="-14.3" font-family="Arial" font-size="14.00">_ActorsController_push_group_to_</text>
</g>
<!-- _ActorsController_create_group_&#45;&gt;_ActorsController_push_group_to_ -->
<g id="edge6" class="edge">
<title>_ActorsController_create_group_&#45;&gt;_ActorsController_push_group_to_</title>
<path fill="none" stroke="black" d="M1786.63,-395.82C1783.49,-333.98 1772.75,-122.47 1768.89,-46.47"/>
<polygon fill="black" stroke="black" points="1772.38,-46.08 1768.38,-36.27 1765.39,-46.44 1772.38,-46.08"/>
</g>
<!-- _ActorsController_destroy_ -->
<g id="node9" class="node">
<title>_ActorsController_destroy_</title>
<polygon fill="lightblue" stroke="white" points="1013.5,-432 833.5,-432 833.5,-396 1013.5,-396 1013.5,-432"/>
<text text-anchor="middle" x="923.5" y="-410.3" font-family="Arial" font-size="14.00">_ActorsController_destroy_</text>
</g>
<!-- _ActorsController_destroy_&#45;&gt;_ActorsController_authorize_multiple_ -->
<g id="edge7" class="edge">
<title>_ActorsController_destroy_&#45;&gt;_ActorsController_authorize_multiple_</title>
<path fill="none" stroke="black" d="M900.87,-395.82C817.82,-332.77 529.79,-114.12 435,-42.16"/>
<polygon fill="black" stroke="black" points="437.04,-39.31 426.96,-36.05 432.81,-44.89 437.04,-39.31"/>
</g>
<!-- _ActorsController_destroy_&#45;&gt;_ActorsController_push_user_to_ -->
<g id="edge10" class="edge">
<title>_ActorsController_destroy_&#45;&gt;_ActorsController_push_user_to_</title>
<path fill="none" stroke="black" d="M925.11,-395.82C930.92,-333.98 950.78,-122.47 957.92,-46.47"/>
<polygon fill="black" stroke="black" points="961.43,-46.56 958.88,-36.27 954.46,-45.9 961.43,-46.56"/>
</g>
<!-- _ActorsController_destroy_&#45;&gt;_ActorsController_wording_ -->
<g id="edge9" class="edge">
<title>_ActorsController_destroy_&#45;&gt;_ActorsController_wording_</title>
<path fill="none" stroke="black" d="M935.45,-395.82C978.8,-333.48 1127.96,-118.99 1179.68,-44.63"/>
<polygon fill="black" stroke="black" points="1182.65,-46.48 1185.49,-36.27 1176.9,-42.49 1182.65,-46.48"/>
</g>
<!-- _ActorsController_destroy_&#45;&gt;_ActorsController_remove_user_from_ -->
<g id="edge8" class="edge">
<title>_ActorsController_destroy_&#45;&gt;_ActorsController_remove_user_from_</title>
<path fill="none" stroke="black" d="M913.29,-395.82C876.35,-333.6 749.4,-119.86 704.99,-45.08"/>
<polygon fill="black" stroke="black" points="707.87,-43.08 699.76,-36.27 701.86,-46.66 707.87,-43.08"/>
</g>
<!-- _ActorsController_destroy_group_ -->
<g id="node10" class="node">
<title>_ActorsController_destroy_group_</title>
<polygon fill="lightblue" stroke="white" points="2156.5,-432 1934.5,-432 1934.5,-396 2156.5,-396 2156.5,-432"/>
<text text-anchor="middle" x="2045.5" y="-410.3" font-family="Arial" font-size="14.00">_ActorsController_destroy_group_</text>
</g>
<!-- _ActorsController_destroy_group_&#45;&gt;_ActorsController_authorize_group_ -->
<g id="edge11" class="edge">
<title>_ActorsController_destroy_group_&#45;&gt;_ActorsController_authorize_group_</title>
<path fill="none" stroke="black" d="M2057.93,-395.82C2103.02,-333.48 2258.17,-118.99 2311.96,-44.63"/>
<polygon fill="black" stroke="black" points="2314.98,-46.43 2318.01,-36.27 2309.31,-42.32 2314.98,-46.43"/>
</g>
<!-- _ActorsController_remove_group_from_ -->
<g id="node11" class="node">
<title>_ActorsController_remove_group_from_</title>
<polygon fill="lightblue" stroke="white" points="2176,-36 1917,-36 1917,0 2176,0 2176,-36"/>
<text text-anchor="middle" x="2046.5" y="-14.3" font-family="Arial" font-size="14.00">_ActorsController_remove_group_from_</text>
</g>
<!-- _ActorsController_destroy_group_&#45;&gt;_ActorsController_remove_group_from_ -->
<g id="edge12" class="edge">
<title>_ActorsController_destroy_group_&#45;&gt;_ActorsController_remove_group_from_</title>
<path fill="none" stroke="black" d="M2045.54,-395.82C2045.7,-333.98 2046.24,-122.47 2046.43,-46.47"/>
<polygon fill="black" stroke="black" points="2049.93,-46.28 2046.46,-36.27 2042.93,-46.26 2049.93,-46.28"/>
</g>
<!-- _ActorsController_accept_ -->
<g id="node12" class="node">
<title>_ActorsController_accept_</title>
<polygon fill="lightblue" stroke="white" points="3408.5,-432 3232.5,-432 3232.5,-396 3408.5,-396 3408.5,-432"/>
<text text-anchor="middle" x="3320.5" y="-410.3" font-family="Arial" font-size="14.00">_ActorsController_accept_</text>
</g>
<!-- _ActorsController_user_accept_ -->
<g id="node13" class="node">
<title>_ActorsController_user_accept_</title>
<polygon fill="lightblue" stroke="white" points="3168,-36 2959,-36 2959,0 3168,0 3168,-36"/>
<text text-anchor="middle" x="3063.5" y="-14.3" font-family="Arial" font-size="14.00">_ActorsController_user_accept_</text>
</g>
<!-- _ActorsController_accept_&#45;&gt;_ActorsController_user_accept_ -->
<g id="edge13" class="edge">
<title>_ActorsController_accept_&#45;&gt;_ActorsController_user_accept_</title>
<path fill="none" stroke="black" d="M3309.29,-395.82C3268.71,-333.6 3129.29,-119.86 3080.51,-45.08"/>
<polygon fill="black" stroke="black" points="3083.16,-42.74 3074.77,-36.27 3077.3,-46.56 3083.16,-42.74"/>
</g>
<!-- _ActorsController_wf_entity_state_to_partial_ -->
<g id="node14" class="node">
<title>_ActorsController_wf_entity_state_to_partial_</title>
<polygon fill="lightblue" stroke="white" points="4155,-36 3866,-36 3866,0 4155,0 4155,-36"/>
<text text-anchor="middle" x="4010.5" y="-14.3" font-family="Arial" font-size="14.00">_ActorsController_wf_entity_state_to_partial_</text>
</g>
<!-- _ActorsController_accept_&#45;&gt;_ActorsController_wf_entity_state_to_partial_ -->
<g id="edge14" class="edge">
<title>_ActorsController_accept_&#45;&gt;_ActorsController_wf_entity_state_to_partial_</title>
<path fill="none" stroke="black" d="M3350.59,-395.82C3461.56,-332.46 3847.79,-111.91 3971.83,-41.08"/>
<polygon fill="black" stroke="black" points="3973.69,-44.05 3980.64,-36.05 3970.22,-37.97 3973.69,-44.05"/>
</g>
<!-- _ActorsController_admin_accept_ -->
<g id="node15" class="node">
<title>_ActorsController_admin_accept_</title>
<polygon fill="lightblue" stroke="white" points="3731,-432 3510,-432 3510,-396 3731,-396 3731,-432"/>
<text text-anchor="middle" x="3620.5" y="-410.3" font-family="Arial" font-size="14.00">_ActorsController_admin_accept_</text>
</g>
<!-- _ActorsController_admin_accept_&#45;&gt;_ActorsController_wf_entity_state_to_partial_ -->
<g id="edge16" class="edge">
<title>_ActorsController_admin_accept_&#45;&gt;_ActorsController_wf_entity_state_to_partial_</title>
<path fill="none" stroke="black" d="M3637.51,-395.82C3699.47,-333.22 3913.25,-117.24 3986.02,-43.73"/>
<polygon fill="black" stroke="black" points="3988.85,-45.84 3993.4,-36.27 3983.88,-40.92 3988.85,-45.84"/>
</g>
<!-- _ActorsController_admin_accept_instead_of_ -->
<g id="node16" class="node">
<title>_ActorsController_admin_accept_instead_of_</title>
<polygon fill="lightblue" stroke="white" points="3494.5,-36 3204.5,-36 3204.5,0 3494.5,0 3494.5,-36"/>
<text text-anchor="middle" x="3349.5" y="-14.3" font-family="Arial" font-size="14.00">_ActorsController_admin_accept_instead_of_</text>
</g>
<!-- _ActorsController_admin_accept_&#45;&gt;_ActorsController_admin_accept_instead_of_ -->
<g id="edge15" class="edge">
<title>_ActorsController_admin_accept_&#45;&gt;_ActorsController_admin_accept_instead_of_</title>
<path fill="none" stroke="black" d="M3608.68,-395.82C3565.8,-333.48 3418.27,-118.99 3367.13,-44.63"/>
<polygon fill="black" stroke="black" points="3369.93,-42.53 3361.38,-36.27 3364.16,-46.5 3369.93,-42.53"/>
</g>
<!-- _ActorsController_admin_approve_ -->
<g id="node17" class="node">
<title>_ActorsController_admin_approve_</title>
<polygon fill="lightblue" stroke="white" points="4030.5,-432 3800.5,-432 3800.5,-396 4030.5,-396 4030.5,-432"/>
<text text-anchor="middle" x="3915.5" y="-410.3" font-family="Arial" font-size="14.00">_ActorsController_admin_approve_</text>
</g>
<!-- _ActorsController_admin_approve_&#45;&gt;_ActorsController_wf_entity_state_to_partial_ -->
<g id="edge18" class="edge">
<title>_ActorsController_admin_approve_&#45;&gt;_ActorsController_wf_entity_state_to_partial_</title>
<path fill="none" stroke="black" d="M3919.64,-395.82C3934.58,-333.86 3985.76,-121.6 4003.99,-46"/>
<polygon fill="black" stroke="black" points="4007.39,-46.82 4006.34,-36.27 4000.59,-45.17 4007.39,-46.82"/>
</g>
<!-- _ActorsController_admin_approve_instead_of_ -->
<g id="node18" class="node">
<title>_ActorsController_admin_approve_instead_of_</title>
<polygon fill="lightblue" stroke="white" points="3830,-36 3531,-36 3531,0 3830,0 3830,-36"/>
<text text-anchor="middle" x="3680.5" y="-14.3" font-family="Arial" font-size="14.00">_ActorsController_admin_approve_instead_of_</text>
</g>
<!-- _ActorsController_admin_approve_&#45;&gt;_ActorsController_admin_approve_instead_of_ -->
<g id="edge17" class="edge">
<title>_ActorsController_admin_approve_&#45;&gt;_ActorsController_admin_approve_instead_of_</title>
<path fill="none" stroke="black" d="M3905.25,-395.82C3868.14,-333.6 3740.66,-119.86 3696.06,-45.08"/>
<polygon fill="black" stroke="black" points="3698.93,-43.07 3690.8,-36.27 3692.92,-46.65 3698.93,-43.07"/>
</g>
<!-- _ActorsController_reject_ -->
<g id="node19" class="node">
<title>_ActorsController_reject_</title>
<polygon fill="lightblue" stroke="white" points="4307,-432 4138,-432 4138,-396 4307,-396 4307,-432"/>
<text text-anchor="middle" x="4222.5" y="-410.3" font-family="Arial" font-size="14.00">_ActorsController_reject_</text>
</g>
<!-- _ActorsController_reject_&#45;&gt;_ActorsController_wf_entity_state_to_partial_ -->
<g id="edge20" class="edge">
<title>_ActorsController_reject_&#45;&gt;_ActorsController_wf_entity_state_to_partial_</title>
<path fill="none" stroke="black" d="M4213.25,-395.82C4179.78,-333.6 4064.77,-119.86 4024.53,-45.08"/>
<polygon fill="black" stroke="black" points="4027.61,-43.42 4019.79,-36.27 4021.45,-46.74 4027.61,-43.42"/>
</g>
<!-- _ActorsController_user_reject_ -->
<g id="node20" class="node">
<title>_ActorsController_user_reject_</title>
<polygon fill="lightblue" stroke="white" points="4394,-36 4191,-36 4191,0 4394,0 4394,-36"/>
<text text-anchor="middle" x="4292.5" y="-14.3" font-family="Arial" font-size="14.00">_ActorsController_user_reject_</text>
</g>
<!-- _ActorsController_reject_&#45;&gt;_ActorsController_user_reject_ -->
<g id="edge19" class="edge">
<title>_ActorsController_reject_&#45;&gt;_ActorsController_user_reject_</title>
<path fill="none" stroke="black" d="M4225.55,-395.82C4236.54,-333.98 4274.12,-122.47 4287.62,-46.47"/>
<polygon fill="black" stroke="black" points="4291.13,-46.73 4289.43,-36.27 4284.24,-45.51 4291.13,-46.73"/>
</g>
<!-- _ActorsController_admin_reject_ -->
<g id="node21" class="node">
<title>_ActorsController_admin_reject_</title>
<polygon fill="lightblue" stroke="white" points="4618.5,-432 4404.5,-432 4404.5,-396 4618.5,-396 4618.5,-432"/>
<text text-anchor="middle" x="4511.5" y="-410.3" font-family="Arial" font-size="14.00">_ActorsController_admin_reject_</text>
</g>
<!-- _ActorsController_admin_reject_&#45;&gt;_ActorsController_wf_entity_state_to_partial_ -->
<g id="edge22" class="edge">
<title>_ActorsController_admin_reject_&#45;&gt;_ActorsController_wf_entity_state_to_partial_</title>
<path fill="none" stroke="black" d="M4489.65,-395.82C4409.57,-332.84 4132.01,-114.56 4040.22,-42.38"/>
<polygon fill="black" stroke="black" points="4042.21,-39.48 4032.18,-36.05 4037.88,-44.98 4042.21,-39.48"/>
</g>
<!-- _ActorsController_admin_reject_instead_of_ -->
<g id="node22" class="node">
<title>_ActorsController_admin_reject_instead_of_</title>
<polygon fill="lightblue" stroke="white" points="4714.5,-36 4430.5,-36 4430.5,0 4714.5,0 4714.5,-36"/>
<text text-anchor="middle" x="4572.5" y="-14.3" font-family="Arial" font-size="14.00">_ActorsController_admin_reject_instead_of_</text>
</g>
<!-- _ActorsController_admin_reject_&#45;&gt;_ActorsController_admin_reject_instead_of_ -->
<g id="edge21" class="edge">
<title>_ActorsController_admin_reject_&#45;&gt;_ActorsController_admin_reject_instead_of_</title>
<path fill="none" stroke="black" d="M4514.16,-395.82C4523.73,-333.98 4556.48,-122.47 4568.25,-46.47"/>
<polygon fill="black" stroke="black" points="4571.75,-46.69 4569.83,-36.27 4564.84,-45.62 4571.75,-46.69"/>
</g>
<!-- _ActorsController_admin_disapprove_ -->
<g id="node23" class="node">
<title>_ActorsController_admin_disapprove_</title>
<polygon fill="lightblue" stroke="white" points="4998,-432 4751,-432 4751,-396 4998,-396 4998,-432"/>
<text text-anchor="middle" x="4874.5" y="-410.3" font-family="Arial" font-size="14.00">_ActorsController_admin_disapprove_</text>
</g>
<!-- _ActorsController_admin_disapprove_&#45;&gt;_ActorsController_wf_entity_state_to_partial_ -->
<g id="edge24" class="edge">
<title>_ActorsController_admin_disapprove_&#45;&gt;_ActorsController_wf_entity_state_to_partial_</title>
<path fill="none" stroke="black" d="M4837.1,-395.94C4697.98,-332.5 4210.57,-110.24 4057.12,-40.26"/>
<polygon fill="black" stroke="black" points="4058.48,-37.03 4047.93,-36.07 4055.58,-43.4 4058.48,-37.03"/>
</g>
<!-- _ActorsController_admin_disapprove_instead_of_ -->
<g id="node24" class="node">
<title>_ActorsController_admin_disapprove_instead_of_</title>
<polygon fill="lightblue" stroke="white" points="5068,-36 4751,-36 4751,0 5068,0 5068,-36"/>
<text text-anchor="middle" x="4909.5" y="-14.3" font-family="Arial" font-size="14.00">_ActorsController_admin_disapprove_instead_of_</text>
</g>
<!-- _ActorsController_admin_disapprove_&#45;&gt;_ActorsController_admin_disapprove_instead_of_ -->
<g id="edge23" class="edge">
<title>_ActorsController_admin_disapprove_&#45;&gt;_ActorsController_admin_disapprove_instead_of_</title>
<path fill="none" stroke="black" d="M4876.03,-395.82C4881.52,-333.98 4900.31,-122.47 4907.06,-46.47"/>
<polygon fill="black" stroke="black" points="4910.57,-46.54 4907.97,-36.27 4903.59,-45.92 4910.57,-46.54"/>
</g>
<!-- _ActorsController_check_authorize_multiple_ -->
<g id="node25" class="node">
<title>_ActorsController_check_authorize_multiple_</title>
<polygon fill="lightblue" stroke="white" points="289,-432 0,-432 0,-396 289,-396 289,-432"/>
<text text-anchor="middle" x="144.5" y="-410.3" font-family="Arial" font-size="14.00">_ActorsController_check_authorize_multiple_</text>
</g>
<!-- _ActorsController_check_authorize_multiple_&#45;&gt;_ActorsController_authorize_multiple_ -->
<g id="edge25" class="edge">
<title>_ActorsController_check_authorize_multiple_&#45;&gt;_ActorsController_authorize_multiple_</title>
<path fill="none" stroke="black" d="M155.84,-395.82C196.98,-333.48 338.52,-118.99 387.59,-44.63"/>
<polygon fill="black" stroke="black" points="390.51,-46.55 393.1,-36.27 384.67,-42.69 390.51,-46.55"/>
</g>
<!-- _ActorsController_find_users_ -->
<g id="node26" class="node">
<title>_ActorsController_find_users_</title>
<polygon fill="lightblue" stroke="white" points="523.5,-432 325.5,-432 325.5,-396 523.5,-396 523.5,-432"/>
<text text-anchor="middle" x="424.5" y="-410.3" font-family="Arial" font-size="14.00">_ActorsController_find_users_</text>
</g>
<!-- _ActorsController_find_users_&#45;&gt;_ActorsController_authorize_multiple_ -->
<g id="edge26" class="edge">
<title>_ActorsController_find_users_&#45;&gt;_ActorsController_authorize_multiple_</title>
<path fill="none" stroke="black" d="M423.63,-395.82C420.49,-333.98 409.75,-122.47 405.89,-46.47"/>
<polygon fill="black" stroke="black" points="409.38,-46.08 405.38,-36.27 402.39,-46.44 409.38,-46.08"/>
</g>
<!-- _ActorsController_check_authorize_group_ -->
<g id="node27" class="node">
<title>_ActorsController_check_authorize_group_</title>
<polygon fill="lightblue" stroke="white" points="2468.5,-432 2192.5,-432 2192.5,-396 2468.5,-396 2468.5,-432"/>
<text text-anchor="middle" x="2330.5" y="-410.3" font-family="Arial" font-size="14.00">_ActorsController_check_authorize_group_</text>
</g>
<!-- _ActorsController_check_authorize_group_&#45;&gt;_ActorsController_authorize_group_ -->
<g id="edge27" class="edge">
<title>_ActorsController_check_authorize_group_&#45;&gt;_ActorsController_authorize_group_</title>
<path fill="none" stroke="black" d="M2330.5,-395.82C2330.5,-333.98 2330.5,-122.47 2330.5,-46.47"/>
<polygon fill="black" stroke="black" points="2334,-46.27 2330.5,-36.27 2327,-46.27 2334,-46.27"/>
</g>
<!-- _ActorsController_filter_users_not_actors_ -->
<g id="node28" class="node">
<title>_ActorsController_filter_users_not_actors_</title>
<polygon fill="lightblue" stroke="white" points="1329.5,-432 1057.5,-432 1057.5,-396 1329.5,-396 1329.5,-432"/>
<text text-anchor="middle" x="1193.5" y="-410.3" font-family="Arial" font-size="14.00">_ActorsController_filter_users_not_actors_</text>
</g>
<!-- _ActorsController_filter_users_not_actors_&#45;&gt;_ActorsController_wording_ -->
<g id="edge29" class="edge">
<title>_ActorsController_filter_users_not_actors_&#45;&gt;_ActorsController_wording_</title>
<path fill="none" stroke="black" d="M1193.67,-395.82C1194.3,-333.98 1196.45,-122.47 1197.22,-46.47"/>
<polygon fill="black" stroke="black" points="1200.72,-46.31 1197.32,-36.27 1193.72,-46.24 1200.72,-46.31"/>
</g>
<!-- _ActorsController_user_is_actor_of_ -->
<g id="node29" class="node">
<title>_ActorsController_user_is_actor_of_</title>
<polygon fill="lightblue" stroke="white" points="1588.5,-36 1352.5,-36 1352.5,0 1588.5,0 1588.5,-36"/>
<text text-anchor="middle" x="1470.5" y="-14.3" font-family="Arial" font-size="14.00">_ActorsController_user_is_actor_of_</text>
</g>
<!-- _ActorsController_filter_users_not_actors_&#45;&gt;_ActorsController_user_is_actor_of_ -->
<g id="edge28" class="edge">
<title>_ActorsController_filter_users_not_actors_&#45;&gt;_ActorsController_user_is_actor_of_</title>
<path fill="none" stroke="black" d="M1205.58,-395.82C1249.41,-333.48 1400.2,-118.99 1452.48,-44.63"/>
<polygon fill="black" stroke="black" points="1455.47,-46.47 1458.36,-36.27 1449.74,-42.44 1455.47,-46.47"/>
</g>
<!-- _ActorsController_require_group_not_actor_ -->
<g id="node30" class="node">
<title>_ActorsController_require_group_not_actor_</title>
<polygon fill="lightblue" stroke="white" points="3100.5,-432 2816.5,-432 2816.5,-396 3100.5,-396 3100.5,-432"/>
<text text-anchor="middle" x="2958.5" y="-410.3" font-family="Arial" font-size="14.00">_ActorsController_require_group_not_actor_</text>
</g>
<!-- _ActorsController_require_group_not_actor_&#45;&gt;_ActorsController_authorize_group_ -->
<g id="edge30" class="edge">
<title>_ActorsController_require_group_not_actor_&#45;&gt;_ActorsController_authorize_group_</title>
<path fill="none" stroke="black" d="M2931.11,-395.82C2830.32,-332.58 2480,-112.79 2366.38,-41.51"/>
<polygon fill="black" stroke="black" points="2368.01,-38.4 2357.68,-36.05 2364.29,-44.33 2368.01,-38.4"/>
</g>
<!-- _ActorsController_group_is_actor_of_ -->
<g id="node31" class="node">
<title>_ActorsController_group_is_actor_of_</title>
<polygon fill="lightblue" stroke="white" points="2922.5,-36 2678.5,-36 2678.5,0 2922.5,0 2922.5,-36"/>
<text text-anchor="middle" x="2800.5" y="-14.3" font-family="Arial" font-size="14.00">_ActorsController_group_is_actor_of_</text>
</g>
<!-- _ActorsController_require_group_not_actor_&#45;&gt;_ActorsController_group_is_actor_of_ -->
<g id="edge31" class="edge">
<title>_ActorsController_require_group_not_actor_&#45;&gt;_ActorsController_group_is_actor_of_</title>
<path fill="none" stroke="black" d="M2951.61,-395.82C2926.76,-333.86 2841.64,-121.6 2811.33,-46"/>
<polygon fill="black" stroke="black" points="2814.4,-44.25 2807.43,-36.27 2807.9,-46.86 2814.4,-44.25"/>
</g>
<!-- _ActorsController_require_group_is_actor_ -->
<g id="node32" class="node">
<title>_ActorsController_require_group_is_actor_</title>
<polygon fill="lightblue" stroke="white" points="2780,-432 2505,-432 2505,-396 2780,-396 2780,-432"/>
<text text-anchor="middle" x="2642.5" y="-410.3" font-family="Arial" font-size="14.00">_ActorsController_require_group_is_actor_</text>
</g>
<!-- _ActorsController_require_group_is_actor_&#45;&gt;_ActorsController_authorize_group_ -->
<g id="edge32" class="edge">
<title>_ActorsController_require_group_is_actor_&#45;&gt;_ActorsController_authorize_group_</title>
<path fill="none" stroke="black" d="M2628.89,-395.82C2579.43,-333.35 2408.99,-118.12 2350.44,-44.18"/>
<polygon fill="black" stroke="black" points="2353.13,-41.94 2344.18,-36.27 2347.64,-46.29 2353.13,-41.94"/>
</g>
<!-- _ActorsController_require_group_is_actor_&#45;&gt;_ActorsController_group_is_actor_of_ -->
<g id="edge33" class="edge">
<title>_ActorsController_require_group_is_actor_&#45;&gt;_ActorsController_group_is_actor_of_</title>
<path fill="none" stroke="black" d="M2649.39,-395.82C2674.24,-333.86 2759.36,-121.6 2789.67,-46"/>
<polygon fill="black" stroke="black" points="2793.1,-46.86 2793.57,-36.27 2786.6,-44.25 2793.1,-46.86"/>
</g>
<!-- _ActorsController_filter_users_are_actors_ -->
<g id="node33" class="node">
<title>_ActorsController_filter_users_are_actors_</title>
<polygon fill="lightblue" stroke="white" points="1639,-432 1366,-432 1366,-396 1639,-396 1639,-432"/>
<text text-anchor="middle" x="1502.5" y="-410.3" font-family="Arial" font-size="14.00">_ActorsController_filter_users_are_actors_</text>
</g>
<!-- _ActorsController_filter_users_are_actors_&#45;&gt;_ActorsController_wording_ -->
<g id="edge35" class="edge">
<title>_ActorsController_filter_users_are_actors_&#45;&gt;_ActorsController_wording_</title>
<path fill="none" stroke="black" d="M1489.2,-395.82C1440.94,-333.48 1274.9,-118.99 1217.34,-44.63"/>
<polygon fill="black" stroke="black" points="1219.76,-42.04 1210.87,-36.27 1214.23,-46.32 1219.76,-42.04"/>
</g>
<!-- _ActorsController_filter_users_are_actors_&#45;&gt;_ActorsController_user_is_actor_of_ -->
<g id="edge34" class="edge">
<title>_ActorsController_filter_users_are_actors_&#45;&gt;_ActorsController_user_is_actor_of_</title>
<path fill="none" stroke="black" d="M1501.1,-395.82C1496.08,-333.98 1478.9,-122.47 1472.73,-46.47"/>
<polygon fill="black" stroke="black" points="1476.2,-45.96 1471.9,-36.27 1469.22,-46.52 1476.2,-45.96"/>
</g>
<!-- _ActorsController_require_wf_entity_in_accept_state_ -->
<g id="node34" class="node">
<title>_ActorsController_require_wf_entity_in_accept_state_</title>
<polygon fill="lightblue" stroke="white" points="5420,-432 5079,-432 5079,-396 5420,-396 5420,-432"/>
<text text-anchor="middle" x="5249.5" y="-410.3" font-family="Arial" font-size="14.00">_ActorsController_require_wf_entity_in_accept_state_</text>
</g>
<!-- _ActorsController_wf_entity_in_accept_state_ -->
<g id="node35" class="node">
<title>_ActorsController_wf_entity_in_accept_state_</title>
<polygon fill="lightblue" stroke="white" points="5395,-36 5104,-36 5104,0 5395,0 5395,-36"/>
<text text-anchor="middle" x="5249.5" y="-14.3" font-family="Arial" font-size="14.00">_ActorsController_wf_entity_in_accept_state_</text>
</g>
<!-- _ActorsController_require_wf_entity_in_accept_state_&#45;&gt;_ActorsController_wf_entity_in_accept_state_ -->
<g id="edge36" class="edge">
<title>_ActorsController_require_wf_entity_in_accept_state_&#45;&gt;_ActorsController_wf_entity_in_accept_state_</title>
<path fill="none" stroke="black" d="M5249.5,-395.82C5249.5,-333.98 5249.5,-122.47 5249.5,-46.47"/>
<polygon fill="black" stroke="black" points="5253,-46.27 5249.5,-36.27 5246,-46.27 5253,-46.27"/>
</g>
</g>
</svg>
