<?xml version="1.0" encoding="UTF-8" standalone="no"?>
<!DOCTYPE svg PUBLIC "-//W3C//DTD SVG 1.1//EN"
 "http://www.w3.org/Graphics/SVG/1.1/DTD/svg11.dtd">
<!-- Generated by graphviz version 2.43.0 (0)
 -->
<!-- Title: CallGraph Pages: 1 -->
<svg width="1528pt" height="1232pt"
 viewBox="0.00 0.00 1527.50 1232.00" xmlns="http://www.w3.org/2000/svg" xmlns:xlink="http://www.w3.org/1999/xlink">
<g id="graph0" class="graph" transform="scale(1 1) rotate(0) translate(4 1228)">
<title>CallGraph</title>
<polygon fill="white" stroke="transparent" points="-4,4 -4,-1228 1523.5,-1228 1523.5,4 -4,4"/>
<!-- _ActorResponsibility_initialize_ -->
<g id="node1" class="node">
<title>_ActorResponsibility_initialize_</title>
<polygon fill="lightblue" stroke="white" points="1019.5,-1224 817.5,-1224 817.5,-1188 1019.5,-1188 1019.5,-1224"/>
<text text-anchor="middle" x="918.5" y="-1202.3" font-family="Arial" font-size="14.00">_ActorResponsibility_initialize_</text>
</g>
<!-- _ActorResponsibility_setup_for_entity_ -->
<g id="node2" class="node">
<title>_ActorResponsibility_setup_for_entity_</title>
<polygon fill="lightblue" stroke="white" points="1193.5,-828 943.5,-828 943.5,-792 1193.5,-792 1193.5,-828"/>
<text text-anchor="middle" x="1068.5" y="-806.3" font-family="Arial" font-size="14.00">_ActorResponsibility_setup_for_entity_</text>
</g>
<!-- _ActorResponsibility_initialize_&#45;&gt;_ActorResponsibility_setup_for_entity_ -->
<g id="edge1" class="edge">
<title>_ActorResponsibility_initialize_&#45;&gt;_ActorResponsibility_setup_for_entity_</title>
<path fill="none" stroke="black" d="M925.04,-1187.82C948.63,-1125.86 1029.44,-913.6 1058.22,-838"/>
<polygon fill="black" stroke="black" points="1061.64,-838.86 1061.92,-828.27 1055.09,-836.37 1061.64,-838.86"/>
</g>
<!-- _ActorResponsibility_setup_for_model_level_ -->
<g id="node3" class="node">
<title>_ActorResponsibility_setup_for_model_level_</title>
<polygon fill="lightblue" stroke="white" points="1519.5,-828 1229.5,-828 1229.5,-792 1519.5,-792 1519.5,-828"/>
<text text-anchor="middle" x="1374.5" y="-806.3" font-family="Arial" font-size="14.00">_ActorResponsibility_setup_for_model_level_</text>
</g>
<!-- _ActorResponsibility_initialize_&#45;&gt;_ActorResponsibility_setup_for_model_level_ -->
<g id="edge2" class="edge">
<title>_ActorResponsibility_initialize_&#45;&gt;_ActorResponsibility_setup_for_model_level_</title>
<path fill="none" stroke="black" d="M938.39,-1187.82C1011.21,-1124.9 1263.4,-906.99 1347.19,-834.59"/>
<polygon fill="black" stroke="black" points="1349.49,-837.24 1354.77,-828.05 1344.91,-831.94 1349.49,-837.24"/>
</g>
<!-- _ActorResponsibility_setup_for_module_level_ -->
<g id="node4" class="node">
<title>_ActorResponsibility_setup_for_module_level_</title>
<polygon fill="lightblue" stroke="white" points="595.5,-828 297.5,-828 297.5,-792 595.5,-792 595.5,-828"/>
<text text-anchor="middle" x="446.5" y="-806.3" font-family="Arial" font-size="14.00">_ActorResponsibility_setup_for_module_level_</text>
</g>
<!-- _ActorResponsibility_initialize_&#45;&gt;_ActorResponsibility_setup_for_module_level_ -->
<g id="edge3" class="edge">
<title>_ActorResponsibility_initialize_&#45;&gt;_ActorResponsibility_setup_for_module_level_</title>
<path fill="none" stroke="black" d="M897.92,-1187.82C822.54,-1124.9 561.5,-906.99 474.76,-834.59"/>
<polygon fill="black" stroke="black" points="476.85,-831.77 466.93,-828.05 472.36,-837.15 476.85,-831.77"/>
</g>
<!-- _ActorResponsibility_setup_for_app_level_ -->
<g id="node5" class="node">
<title>_ActorResponsibility_setup_for_app_level_</title>
<polygon fill="lightblue" stroke="white" points="907,-828 632,-828 632,-792 907,-792 907,-828"/>
<text text-anchor="middle" x="769.5" y="-806.3" font-family="Arial" font-size="14.00">_ActorResponsibility_setup_for_app_level_</text>
</g>
<!-- _ActorResponsibility_initialize_&#45;&gt;_ActorResponsibility_setup_for_app_level_ -->
<g id="edge4" class="edge">
<title>_ActorResponsibility_initialize_&#45;&gt;_ActorResponsibility_setup_for_app_level_</title>
<path fill="none" stroke="black" d="M912,-1187.82C888.57,-1125.86 808.3,-913.6 779.71,-838"/>
<polygon fill="black" stroke="black" points="782.84,-836.39 776.03,-828.27 776.3,-838.87 782.84,-836.39"/>
</g>
<!-- _ActorResponsibility_responsibility_writers_ -->
<g id="node6" class="node">
<title>_ActorResponsibility_responsibility_writers_</title>
<polygon fill="lightblue" stroke="white" points="899,-432 620,-432 620,-396 899,-396 899,-432"/>
<text text-anchor="middle" x="759.5" y="-410.3" font-family="Arial" font-size="14.00">_ActorResponsibility_responsibility_writers_</text>
</g>
<!-- _ActorResponsibility_setup_for_entity_&#45;&gt;_ActorResponsibility_responsibility_writers_ -->
<g id="edge5" class="edge">
<title>_ActorResponsibility_setup_for_entity_&#45;&gt;_ActorResponsibility_responsibility_writers_</title>
<path fill="none" stroke="black" d="M1055.02,-791.82C1006.03,-729.35 837.23,-514.12 779.24,-440.18"/>
<polygon fill="black" stroke="black" points="781.97,-437.98 773.05,-432.27 776.46,-442.3 781.97,-437.98"/>
</g>
<!-- _ActorResponsibility_user_in_responsibility_ -->
<g id="node7" class="node">
<title>_ActorResponsibility_user_in_responsibility_</title>
<polygon fill="lightblue" stroke="white" points="1219.5,-432 935.5,-432 935.5,-396 1219.5,-396 1219.5,-432"/>
<text text-anchor="middle" x="1077.5" y="-410.3" font-family="Arial" font-size="14.00">_ActorResponsibility_user_in_responsibility_</text>
</g>
<!-- _ActorResponsibility_setup_for_entity_&#45;&gt;_ActorResponsibility_user_in_responsibility_ -->
<g id="edge6" class="edge">
<title>_ActorResponsibility_setup_for_entity_&#45;&gt;_ActorResponsibility_user_in_responsibility_</title>
<path fill="none" stroke="black" d="M1068.89,-791.82C1070.3,-729.98 1075.14,-518.47 1076.87,-442.47"/>
<polygon fill="black" stroke="black" points="1080.38,-442.35 1077.11,-432.27 1073.38,-442.19 1080.38,-442.35"/>
</g>
<!-- _ActorResponsibility_setup_for_model_level_&#45;&gt;_ActorResponsibility_responsibility_writers_ -->
<g id="edge7" class="edge">
<title>_ActorResponsibility_setup_for_model_level_&#45;&gt;_ActorResponsibility_responsibility_writers_</title>
<path fill="none" stroke="black" d="M1347.68,-791.82C1248.97,-728.58 905.9,-508.79 794.64,-437.51"/>
<polygon fill="black" stroke="black" points="796.42,-434.5 786.12,-432.05 792.65,-440.39 796.42,-434.5"/>
</g>
<!-- _ActorResponsibility_setup_for_model_level_&#45;&gt;_ActorResponsibility_user_in_responsibility_ -->
<g id="edge8" class="edge">
<title>_ActorResponsibility_setup_for_model_level_&#45;&gt;_ActorResponsibility_user_in_responsibility_</title>
<path fill="none" stroke="black" d="M1361.55,-791.82C1314.56,-729.48 1152.87,-514.99 1096.82,-440.63"/>
<polygon fill="black" stroke="black" points="1099.34,-438.15 1090.52,-432.27 1093.75,-442.37 1099.34,-438.15"/>
</g>
<!-- _ActorResponsibility_setup_for_module_level_&#45;&gt;_ActorResponsibility_responsibility_writers_ -->
<g id="edge9" class="edge">
<title>_ActorResponsibility_setup_for_module_level_&#45;&gt;_ActorResponsibility_responsibility_writers_</title>
<path fill="none" stroke="black" d="M460.15,-791.82C509.77,-729.35 680.76,-514.12 739.5,-440.18"/>
<polygon fill="black" stroke="black" points="742.3,-442.28 745.78,-432.27 736.82,-437.93 742.3,-442.28"/>
</g>
<!-- _ActorResponsibility_setup_for_module_level_&#45;&gt;_ActorResponsibility_user_in_responsibility_ -->
<g id="edge10" class="edge">
<title>_ActorResponsibility_setup_for_module_level_&#45;&gt;_ActorResponsibility_user_in_responsibility_</title>
<path fill="none" stroke="black" d="M474.02,-791.82C575.29,-728.58 927.29,-508.79 1041.45,-437.51"/>
<polygon fill="black" stroke="black" points="1043.56,-440.32 1050.19,-432.05 1039.86,-434.38 1043.56,-440.32"/>
</g>
<!-- _ActorResponsibility_setup_for_app_level_&#45;&gt;_ActorResponsibility_responsibility_writers_ -->
<g id="edge11" class="edge">
<title>_ActorResponsibility_setup_for_app_level_&#45;&gt;_ActorResponsibility_responsibility_writers_</title>
<path fill="none" stroke="black" d="M769.06,-791.82C767.49,-729.98 762.13,-518.47 760.2,-442.47"/>
<polygon fill="black" stroke="black" points="763.69,-442.18 759.94,-432.27 756.69,-442.36 763.69,-442.18"/>
</g>
<!-- _ActorResponsibility_setup_for_app_level_&#45;&gt;_ActorResponsibility_user_in_responsibility_ -->
<g id="edge12" class="edge">
<title>_ActorResponsibility_setup_for_app_level_&#45;&gt;_ActorResponsibility_user_in_responsibility_</title>
<path fill="none" stroke="black" d="M782.93,-791.82C831.76,-729.35 1000.02,-514.12 1057.82,-440.18"/>
<polygon fill="black" stroke="black" points="1060.6,-442.31 1064,-432.27 1055.08,-438 1060.6,-442.31"/>
</g>
<!-- _ActorResponsibility_set_responsibility_ -->
<g id="node8" class="node">
<title>_ActorResponsibility_set_responsibility_</title>
<polygon fill="lightblue" stroke="white" points="257,-36 0,-36 0,0 257,0 257,-36"/>
<text text-anchor="middle" x="128.5" y="-14.3" font-family="Arial" font-size="14.00">_ActorResponsibility_set_responsibility_</text>
</g>
<!-- _ActorResponsibility_responsibility_writers_&#45;&gt;_ActorResponsibility_set_responsibility_ -->
<g id="edge13" class="edge">
<title>_ActorResponsibility_responsibility_writers_&#45;&gt;_ActorResponsibility_set_responsibility_</title>
<path fill="none" stroke="black" d="M731.98,-395.82C630.71,-332.58 278.71,-112.79 164.55,-41.51"/>
<polygon fill="black" stroke="black" points="166.14,-38.38 155.81,-36.05 162.44,-44.32 166.14,-38.38"/>
</g>
<!-- _ActorResponsibility_replace_responsibilities_ -->
<g id="node9" class="node">
<title>_ActorResponsibility_replace_responsibilities_</title>
<polygon fill="lightblue" stroke="white" points="587.5,-36 293.5,-36 293.5,0 587.5,0 587.5,-36"/>
<text text-anchor="middle" x="440.5" y="-14.3" font-family="Arial" font-size="14.00">_ActorResponsibility_replace_responsibilities_</text>
</g>
<!-- _ActorResponsibility_responsibility_writers_&#45;&gt;_ActorResponsibility_replace_responsibilities_ -->
<g id="edge14" class="edge">
<title>_ActorResponsibility_responsibility_writers_&#45;&gt;_ActorResponsibility_replace_responsibilities_</title>
<path fill="none" stroke="black" d="M745.59,-395.82C695.01,-333.35 520.75,-118.12 460.88,-44.18"/>
<polygon fill="black" stroke="black" points="463.5,-41.84 454.49,-36.27 458.06,-46.25 463.5,-41.84"/>
</g>
<!-- _ActorResponsibility_add_responsibilities_ -->
<g id="node10" class="node">
<title>_ActorResponsibility_add_responsibilities_</title>
<polygon fill="lightblue" stroke="white" points="895.5,-36 623.5,-36 623.5,0 895.5,0 895.5,-36"/>
<text text-anchor="middle" x="759.5" y="-14.3" font-family="Arial" font-size="14.00">_ActorResponsibility_add_responsibilities_</text>
</g>
<!-- _ActorResponsibility_responsibility_writers_&#45;&gt;_ActorResponsibility_add_responsibilities_ -->
<g id="edge15" class="edge">
<title>_ActorResponsibility_responsibility_writers_&#45;&gt;_ActorResponsibility_add_responsibilities_</title>
<path fill="none" stroke="black" d="M759.5,-395.82C759.5,-333.98 759.5,-122.47 759.5,-46.47"/>
<polygon fill="black" stroke="black" points="763,-46.27 759.5,-36.27 756,-46.27 763,-46.27"/>
</g>
<!-- _ActorResponsibility_add_responsibility_ -->
<g id="node11" class="node">
<title>_ActorResponsibility_add_responsibility_</title>
<polygon fill="lightblue" stroke="white" points="1193.5,-36 931.5,-36 931.5,0 1193.5,0 1193.5,-36"/>
<text text-anchor="middle" x="1062.5" y="-14.3" font-family="Arial" font-size="14.00">_ActorResponsibility_add_responsibility_</text>
</g>
<!-- _ActorResponsibility_responsibility_writers_&#45;&gt;_ActorResponsibility_add_responsibility_ -->
<g id="edge16" class="edge">
<title>_ActorResponsibility_responsibility_writers_&#45;&gt;_ActorResponsibility_add_responsibility_</title>
<path fill="none" stroke="black" d="M772.71,-395.82C820.66,-333.48 985.6,-118.99 1042.79,-44.63"/>
<polygon fill="black" stroke="black" points="1045.89,-46.33 1049.22,-36.27 1040.35,-42.07 1045.89,-46.33"/>
</g>
<!-- _ActorResponsibility_remove_responsibility_ -->
<g id="node12" class="node">
<title>_ActorResponsibility_remove_responsibility_</title>
<polygon fill="lightblue" stroke="white" points="1515,-36 1230,-36 1230,0 1515,0 1515,-36"/>
<text text-anchor="middle" x="1372.5" y="-14.3" font-family="Arial" font-size="14.00">_ActorResponsibility_remove_responsibility_</text>
</g>
<!-- _ActorResponsibility_responsibility_writers_&#45;&gt;_ActorResponsibility_remove_responsibility_ -->
<g id="edge17" class="edge">
<title>_ActorResponsibility_responsibility_writers_&#45;&gt;_ActorResponsibility_remove_responsibility_</title>
<path fill="none" stroke="black" d="M786.23,-395.82C884.62,-332.58 1226.57,-112.79 1337.48,-41.51"/>
<polygon fill="black" stroke="black" points="1339.45,-44.4 1345.97,-36.05 1335.67,-38.51 1339.45,-44.4"/>
</g>
</g>
</svg>
