<?xml version="1.0" encoding="UTF-8" standalone="no"?>
<!DOCTYPE svg PUBLIC "-//W3C//DTD SVG 1.1//EN"
 "http://www.w3.org/Graphics/SVG/1.1/DTD/svg11.dtd">
<!-- Generated by graphviz version 2.43.0 (0)
 -->
<!-- Title: CallGraph Pages: 1 -->
<svg width="986pt" height="440pt"
 viewBox="0.00 0.00 986.00 440.00" xmlns="http://www.w3.org/2000/svg" xmlns:xlink="http://www.w3.org/1999/xlink">
<g id="graph0" class="graph" transform="scale(1 1) rotate(0) translate(4 436)">
<title>CallGraph</title>
<polygon fill="white" stroke="transparent" points="-4,4 -4,-436 982,-436 982,4 -4,4"/>
<!-- _ActsController_create_ -->
<g id="node1" class="node">
<title>_ActsController_create_</title>
<polygon fill="lightblue" stroke="white" points="161,-432 0,-432 0,-396 161,-396 161,-432"/>
<text text-anchor="middle" x="80.5" y="-410.3" font-family="Arial" font-size="14.00">_ActsController_create_</text>
</g>
<!-- _ActsController_act_params_ -->
<g id="node2" class="node">
<title>_ActsController_act_params_</title>
<polygon fill="lightblue" stroke="white" points="272,-36 77,-36 77,0 272,0 272,-36"/>
<text text-anchor="middle" x="174.5" y="-14.3" font-family="Arial" font-size="14.00">_ActsController_act_params_</text>
</g>
<!-- _ActsController_create_&#45;&gt;_ActsController_act_params_ -->
<g id="edge1" class="edge">
<title>_ActsController_create_&#45;&gt;_ActsController_act_params_</title>
<path fill="none" stroke="black" d="M84.6,-395.82C99.38,-333.86 150.02,-121.6 168.06,-46"/>
<polygon fill="black" stroke="black" points="171.46,-46.81 170.38,-36.27 164.65,-45.19 171.46,-46.81"/>
</g>
<!-- _ActsController_update_ -->
<g id="node3" class="node">
<title>_ActsController_update_</title>
<polygon fill="lightblue" stroke="white" points="362,-432 197,-432 197,-396 362,-396 362,-432"/>
<text text-anchor="middle" x="279.5" y="-410.3" font-family="Arial" font-size="14.00">_ActsController_update_</text>
</g>
<!-- _ActsController_update_&#45;&gt;_ActsController_act_params_ -->
<g id="edge2" class="edge">
<title>_ActsController_update_&#45;&gt;_ActsController_act_params_</title>
<path fill="none" stroke="black" d="M274.92,-395.82C258.41,-333.86 201.84,-121.6 181.7,-46"/>
<polygon fill="black" stroke="black" points="185.06,-45.03 179.1,-36.27 178.3,-46.84 185.06,-45.03"/>
</g>
<!-- _ActsController_update_workflow_ -->
<g id="node4" class="node">
<title>_ActsController_update_workflow_</title>
<polygon fill="lightblue" stroke="white" points="634,-432 409,-432 409,-396 634,-396 634,-432"/>
<text text-anchor="middle" x="521.5" y="-410.3" font-family="Arial" font-size="14.00">_ActsController_update_workflow_</text>
</g>
<!-- _ActsController_validator_response_ -->
<g id="node5" class="node">
<title>_ActsController_validator_response_</title>
<polygon fill="lightblue" stroke="white" points="640.5,-36 402.5,-36 402.5,0 640.5,0 640.5,-36"/>
<text text-anchor="middle" x="521.5" y="-14.3" font-family="Arial" font-size="14.00">_ActsController_validator_response_</text>
</g>
<!-- _ActsController_update_workflow_&#45;&gt;_ActsController_validator_response_ -->
<g id="edge3" class="edge">
<title>_ActsController_update_workflow_&#45;&gt;_ActsController_validator_response_</title>
<path fill="none" stroke="black" d="M521.5,-395.82C521.5,-333.98 521.5,-122.47 521.5,-46.47"/>
<polygon fill="black" stroke="black" points="525,-46.27 521.5,-36.27 518,-46.27 525,-46.27"/>
</g>
<!-- _ActsController_update_responsibilities_ -->
<g id="node6" class="node">
<title>_ActsController_update_responsibilities_</title>
<polygon fill="lightblue" stroke="white" points="958,-432 697,-432 697,-396 958,-396 958,-432"/>
<text text-anchor="middle" x="827.5" y="-410.3" font-family="Arial" font-size="14.00">_ActsController_update_responsibilities_</text>
</g>
<!-- _ActsController_notify_update_responsibilities_ -->
<g id="node7" class="node">
<title>_ActsController_notify_update_responsibilities_</title>
<polygon fill="lightblue" stroke="white" points="978,-36 677,-36 677,0 978,0 978,-36"/>
<text text-anchor="middle" x="827.5" y="-14.3" font-family="Arial" font-size="14.00">_ActsController_notify_update_responsibilities_</text>
</g>
<!-- _ActsController_update_responsibilities_&#45;&gt;_ActsController_notify_update_responsibilities_ -->
<g id="edge4" class="edge">
<title>_ActsController_update_responsibilities_&#45;&gt;_ActsController_notify_update_responsibilities_</title>
<path fill="none" stroke="black" d="M827.5,-395.82C827.5,-333.98 827.5,-122.47 827.5,-46.47"/>
<polygon fill="black" stroke="black" points="831,-46.27 827.5,-36.27 824,-46.27 831,-46.27"/>
</g>
</g>
</svg>
