<?xml version="1.0" encoding="UTF-8" standalone="no"?>
<!DOCTYPE svg PUBLIC "-//W3C//DTD SVG 1.1//EN"
 "http://www.w3.org/Graphics/SVG/1.1/DTD/svg11.dtd">
<!-- Generated by graphviz version 2.43.0 (0)
 -->
<!-- Title: CallGraph Pages: 1 -->
<svg width="1679pt" height="440pt"
 viewBox="0.00 0.00 1679.00 440.00" xmlns="http://www.w3.org/2000/svg" xmlns:xlink="http://www.w3.org/1999/xlink">
<g id="graph0" class="graph" transform="scale(1 1) rotate(0) translate(4 436)">
<title>CallGraph</title>
<polygon fill="white" stroke="transparent" points="-4,4 -4,-436 1675,-436 1675,4 -4,4"/>
<!-- _AnnounceService -->
<g id="node1" class="node">
<title>_AnnounceService</title>
<polygon fill="lightblue" stroke="white" points="170.5,-432 40.5,-432 40.5,-396 170.5,-396 170.5,-432"/>
<text text-anchor="middle" x="105.5" y="-410.3" font-family="Arial" font-size="14.00">_AnnounceService</text>
</g>
<!-- _AnnounceService_create_announce_ -->
<g id="node2" class="node">
<title>_AnnounceService_create_announce_</title>
<polygon fill="lightblue" stroke="white" points="456,-432 207,-432 207,-396 456,-396 456,-432"/>
<text text-anchor="middle" x="331.5" y="-410.3" font-family="Arial" font-size="14.00">_AnnounceService_create_announce_</text>
</g>
<!-- _Seller_find_seller_ -->
<g id="node3" class="node">
<title>_Seller_find_seller_</title>
<polygon fill="lightblue" stroke="white" points="135,-36 0,-36 0,0 135,0 135,-36"/>
<text text-anchor="middle" x="67.5" y="-14.3" font-family="Arial" font-size="14.00">_Seller_find_seller_</text>
</g>
<!-- _AnnounceService_create_announce_&#45;&gt;_Seller_find_seller_ -->
<g id="edge1" class="edge">
<title>_AnnounceService_create_announce_&#45;&gt;_Seller_find_seller_</title>
<path fill="none" stroke="black" d="M319.99,-395.82C278.22,-333.48 134.5,-118.99 84.67,-44.63"/>
<polygon fill="black" stroke="black" points="87.55,-42.63 79.07,-36.27 81.73,-46.53 87.55,-42.63"/>
</g>
<!-- _Product_find_product_ -->
<g id="node4" class="node">
<title>_Product_find_product_</title>
<polygon fill="lightblue" stroke="white" points="687.5,-36 527.5,-36 527.5,0 687.5,0 687.5,-36"/>
<text text-anchor="middle" x="607.5" y="-14.3" font-family="Arial" font-size="14.00">_Product_find_product_</text>
</g>
<!-- _AnnounceService_create_announce_&#45;&gt;_Product_find_product_ -->
<g id="edge2" class="edge">
<title>_AnnounceService_create_announce_&#45;&gt;_Product_find_product_</title>
<path fill="none" stroke="black" d="M343.54,-395.82C387.21,-333.48 537.46,-118.99 589.55,-44.63"/>
<polygon fill="black" stroke="black" points="592.53,-46.47 595.4,-36.27 586.8,-42.46 592.53,-46.47"/>
</g>
<!-- _AnnounceManager_create_announce_manager_ -->
<g id="node5" class="node">
<title>_AnnounceManager_create_announce_manager_</title>
<polygon fill="lightblue" stroke="white" points="491.5,-36 171.5,-36 171.5,0 491.5,0 491.5,-36"/>
<text text-anchor="middle" x="331.5" y="-14.3" font-family="Arial" font-size="14.00">_AnnounceManager_create_announce_manager_</text>
</g>
<!-- _AnnounceService_create_announce_&#45;&gt;_AnnounceManager_create_announce_manager_ -->
<g id="edge3" class="edge">
<title>_AnnounceService_create_announce_&#45;&gt;_AnnounceManager_create_announce_manager_</title>
<path fill="none" stroke="black" d="M331.5,-395.82C331.5,-333.98 331.5,-122.47 331.5,-46.47"/>
<polygon fill="black" stroke="black" points="335,-46.27 331.5,-36.27 328,-46.27 335,-46.27"/>
</g>
<!-- _AnnounceService_update_announce_ -->
<g id="node6" class="node">
<title>_AnnounceService_update_announce_</title>
<polygon fill="lightblue" stroke="white" points="1012,-432 759,-432 759,-396 1012,-396 1012,-432"/>
<text text-anchor="middle" x="885.5" y="-410.3" font-family="Arial" font-size="14.00">_AnnounceService_update_announce_</text>
</g>
<!-- _AnnounceService_update_announce_&#45;&gt;_Product_find_product_ -->
<g id="edge5" class="edge">
<title>_AnnounceService_update_announce_&#45;&gt;_Product_find_product_</title>
<path fill="none" stroke="black" d="M873.38,-395.82C829.39,-333.48 678.05,-118.99 625.58,-44.63"/>
<polygon fill="black" stroke="black" points="628.31,-42.43 619.69,-36.27 622.59,-46.46 628.31,-42.43"/>
</g>
<!-- _AnnounceService_find_announce_ -->
<g id="node7" class="node">
<title>_AnnounceService_find_announce_</title>
<polygon fill="lightblue" stroke="white" points="1316,-36 1083,-36 1083,0 1316,0 1316,-36"/>
<text text-anchor="middle" x="1199.5" y="-14.3" font-family="Arial" font-size="14.00">_AnnounceService_find_announce_</text>
</g>
<!-- _AnnounceService_update_announce_&#45;&gt;_AnnounceService_find_announce_ -->
<g id="edge4" class="edge">
<title>_AnnounceService_update_announce_&#45;&gt;_AnnounceService_find_announce_</title>
<path fill="none" stroke="black" d="M899.19,-395.82C948.98,-333.35 1120.51,-118.12 1179.44,-44.18"/>
<polygon fill="black" stroke="black" points="1182.24,-46.28 1185.73,-36.27 1176.76,-41.91 1182.24,-46.28"/>
</g>
<!-- _AnnounceManager_update_announce_manager_ -->
<g id="node8" class="node">
<title>_AnnounceManager_update_announce_manager_</title>
<polygon fill="lightblue" stroke="white" points="1047,-36 724,-36 724,0 1047,0 1047,-36"/>
<text text-anchor="middle" x="885.5" y="-14.3" font-family="Arial" font-size="14.00">_AnnounceManager_update_announce_manager_</text>
</g>
<!-- _AnnounceService_update_announce_&#45;&gt;_AnnounceManager_update_announce_manager_ -->
<g id="edge6" class="edge">
<title>_AnnounceService_update_announce_&#45;&gt;_AnnounceManager_update_announce_manager_</title>
<path fill="none" stroke="black" d="M885.5,-395.82C885.5,-333.98 885.5,-122.47 885.5,-46.47"/>
<polygon fill="black" stroke="black" points="889,-46.27 885.5,-36.27 882,-46.27 889,-46.27"/>
</g>
<!-- _AnnounceService_delete_announce_ -->
<g id="node9" class="node">
<title>_AnnounceService_delete_announce_</title>
<polygon fill="lightblue" stroke="white" points="1479.5,-432 1231.5,-432 1231.5,-396 1479.5,-396 1479.5,-432"/>
<text text-anchor="middle" x="1355.5" y="-410.3" font-family="Arial" font-size="14.00">_AnnounceService_delete_announce_</text>
</g>
<!-- _AnnounceService_delete_announce_&#45;&gt;_AnnounceService_find_announce_ -->
<g id="edge7" class="edge">
<title>_AnnounceService_delete_announce_&#45;&gt;_AnnounceService_find_announce_</title>
<path fill="none" stroke="black" d="M1348.7,-395.82C1324.16,-333.86 1240.12,-121.6 1210.19,-46"/>
<polygon fill="black" stroke="black" points="1213.27,-44.28 1206.34,-36.27 1206.77,-46.86 1213.27,-44.28"/>
</g>
<!-- _AnnounceManager_delete_announce_manager_ -->
<g id="node10" class="node">
<title>_AnnounceManager_delete_announce_manager_</title>
<polygon fill="lightblue" stroke="white" points="1671,-36 1352,-36 1352,0 1671,0 1671,-36"/>
<text text-anchor="middle" x="1511.5" y="-14.3" font-family="Arial" font-size="14.00">_AnnounceManager_delete_announce_manager_</text>
</g>
<!-- _AnnounceService_delete_announce_&#45;&gt;_AnnounceManager_delete_announce_manager_ -->
<g id="edge8" class="edge">
<title>_AnnounceService_delete_announce_&#45;&gt;_AnnounceManager_delete_announce_manager_</title>
<path fill="none" stroke="black" d="M1362.3,-395.82C1386.84,-333.86 1470.88,-121.6 1500.81,-46"/>
<polygon fill="black" stroke="black" points="1504.23,-46.86 1504.66,-36.27 1497.73,-44.28 1504.23,-46.86"/>
</g>
</g>
</svg>
