<?xml version="1.0" encoding="UTF-8" standalone="no"?>
<!DOCTYPE svg PUBLIC "-//W3C//DTD SVG 1.1//EN"
 "http://www.w3.org/Graphics/SVG/1.1/DTD/svg11.dtd">
<!-- Generated by graphviz version 2.43.0 (0)
 -->
<!-- Title: CallGraph Pages: 1 -->
<svg width="1874pt" height="836pt"
 viewBox="0.00 0.00 1874.00 836.00" xmlns="http://www.w3.org/2000/svg" xmlns:xlink="http://www.w3.org/1999/xlink">
<g id="graph0" class="graph" transform="scale(1 1) rotate(0) translate(4 832)">
<title>CallGraph</title>
<polygon fill="white" stroke="transparent" points="-4,4 -4,-832 1870,-832 1870,4 -4,4"/>
<!-- _ApplicationHelper_modal_errors_ -->
<g id="node1" class="node">
<title>_ApplicationHelper_modal_errors_</title>
<polygon fill="lightblue" stroke="white" points="225,-828 0,-828 0,-792 225,-792 225,-828"/>
<text text-anchor="middle" x="112.5" y="-806.3" font-family="Arial" font-size="14.00">_ApplicationHelper_modal_errors_</text>
</g>
<!-- _ApplicationHelper_filter_errors_ -->
<g id="node2" class="node">
<title>_ApplicationHelper_filter_errors_</title>
<polygon fill="lightblue" stroke="white" points="219,-432 6,-432 6,-396 219,-396 219,-432"/>
<text text-anchor="middle" x="112.5" y="-410.3" font-family="Arial" font-size="14.00">_ApplicationHelper_filter_errors_</text>
</g>
<!-- _ApplicationHelper_modal_errors_&#45;&gt;_ApplicationHelper_filter_errors_ -->
<g id="edge1" class="edge">
<title>_ApplicationHelper_modal_errors_&#45;&gt;_ApplicationHelper_filter_errors_</title>
<path fill="none" stroke="black" d="M112.5,-791.82C112.5,-729.98 112.5,-518.47 112.5,-442.47"/>
<polygon fill="black" stroke="black" points="116,-442.27 112.5,-432.27 109,-442.27 116,-442.27"/>
</g>
<!-- _ApplicationHelper_parse_iso8601_ -->
<g id="node3" class="node">
<title>_ApplicationHelper_parse_iso8601_</title>
<polygon fill="lightblue" stroke="white" points="646,-828 413,-828 413,-792 646,-792 646,-828"/>
<text text-anchor="middle" x="529.5" y="-806.3" font-family="Arial" font-size="14.00">_ApplicationHelper_parse_iso8601_</text>
</g>
<!-- _ExternalUsersService_parse_ -->
<g id="node4" class="node">
<title>_ExternalUsersService_parse_</title>
<polygon fill="lightblue" stroke="white" points="458,-432 255,-432 255,-396 458,-396 458,-432"/>
<text text-anchor="middle" x="356.5" y="-410.3" font-family="Arial" font-size="14.00">_ExternalUsersService_parse_</text>
</g>
<!-- _ApplicationHelper_parse_iso8601_&#45;&gt;_ExternalUsersService_parse_ -->
<g id="edge2" class="edge">
<title>_ApplicationHelper_parse_iso8601_&#45;&gt;_ExternalUsersService_parse_</title>
<path fill="none" stroke="black" d="M521.96,-791.82C494.69,-729.73 401.17,-516.73 368.15,-441.54"/>
<polygon fill="black" stroke="black" points="371.31,-440.02 364.08,-432.27 364.9,-442.84 371.31,-440.02"/>
</g>
<!-- _SsoUsersService_parse_ -->
<g id="node5" class="node">
<title>_SsoUsersService_parse_</title>
<polygon fill="lightblue" stroke="white" points="670.5,-432 494.5,-432 494.5,-396 670.5,-396 670.5,-432"/>
<text text-anchor="middle" x="582.5" y="-410.3" font-family="Arial" font-size="14.00">_SsoUsersService_parse_</text>
</g>
<!-- _ApplicationHelper_parse_iso8601_&#45;&gt;_SsoUsersService_parse_ -->
<g id="edge3" class="edge">
<title>_ApplicationHelper_parse_iso8601_&#45;&gt;_SsoUsersService_parse_</title>
<path fill="none" stroke="black" d="M531.81,-791.82C540.13,-729.98 568.58,-518.47 578.8,-442.47"/>
<polygon fill="black" stroke="black" points="582.31,-442.65 580.18,-432.27 575.37,-441.72 582.31,-442.65"/>
</g>
<!-- _ApplicationHelper_list_favor_tag_ -->
<g id="node6" class="node">
<title>_ApplicationHelper_list_favor_tag_</title>
<polygon fill="lightblue" stroke="white" points="1006,-828 781,-828 781,-792 1006,-792 1006,-828"/>
<text text-anchor="middle" x="893.5" y="-806.3" font-family="Arial" font-size="14.00">_ApplicationHelper_list_favor_tag_</text>
</g>
<!-- _ApplicationHelper_directory_favor_links_ -->
<g id="node7" class="node">
<title>_ApplicationHelper_directory_favor_links_</title>
<polygon fill="lightblue" stroke="white" points="1028,-432 759,-432 759,-396 1028,-396 1028,-432"/>
<text text-anchor="middle" x="893.5" y="-410.3" font-family="Arial" font-size="14.00">_ApplicationHelper_directory_favor_links_</text>
</g>
<!-- _ApplicationHelper_list_favor_tag_&#45;&gt;_ApplicationHelper_directory_favor_links_ -->
<g id="edge4" class="edge">
<title>_ApplicationHelper_list_favor_tag_&#45;&gt;_ApplicationHelper_directory_favor_links_</title>
<path fill="none" stroke="black" d="M893.5,-791.82C893.5,-729.98 893.5,-518.47 893.5,-442.47"/>
<polygon fill="black" stroke="black" points="897,-442.27 893.5,-432.27 890,-442.27 897,-442.27"/>
</g>
<!-- _ApplicationHelper_humanize_log_ -->
<g id="node8" class="node">
<title>_ApplicationHelper_humanize_log_</title>
<polygon fill="lightblue" stroke="white" points="1272.5,-828 1042.5,-828 1042.5,-792 1272.5,-792 1272.5,-828"/>
<text text-anchor="middle" x="1157.5" y="-806.3" font-family="Arial" font-size="14.00">_ApplicationHelper_humanize_log_</text>
</g>
<!-- _ApplicationHelper_get_wf_entity_ -->
<g id="node9" class="node">
<title>_ApplicationHelper_get_wf_entity_</title>
<polygon fill="lightblue" stroke="white" points="1407.5,-432 1183.5,-432 1183.5,-396 1407.5,-396 1407.5,-432"/>
<text text-anchor="middle" x="1295.5" y="-410.3" font-family="Arial" font-size="14.00">_ApplicationHelper_get_wf_entity_</text>
</g>
<!-- _ApplicationHelper_humanize_log_&#45;&gt;_ApplicationHelper_get_wf_entity_ -->
<g id="edge5" class="edge">
<title>_ApplicationHelper_humanize_log_&#45;&gt;_ApplicationHelper_get_wf_entity_</title>
<path fill="none" stroke="black" d="M1163.52,-791.82C1185.22,-729.86 1259.56,-517.6 1286.04,-442"/>
<polygon fill="black" stroke="black" points="1289.45,-442.87 1289.45,-432.27 1282.84,-440.55 1289.45,-442.87"/>
</g>
<!-- _SearchController_document_ -->
<g id="node11" class="node">
<title>_SearchController_document_</title>
<polygon fill="lightblue" stroke="white" points="1283.5,-36 1083.5,-36 1083.5,0 1283.5,0 1283.5,-36"/>
<text text-anchor="middle" x="1183.5" y="-14.3" font-family="Arial" font-size="14.00">_SearchController_document_</text>
</g>
<!-- _ApplicationHelper_get_wf_entity_&#45;&gt;_SearchController_document_ -->
<g id="edge7" class="edge">
<title>_ApplicationHelper_get_wf_entity_&#45;&gt;_SearchController_document_</title>
<path fill="none" stroke="black" d="M1290.62,-395.82C1273,-333.86 1212.67,-121.6 1191.18,-46"/>
<polygon fill="black" stroke="black" points="1194.51,-44.94 1188.41,-36.27 1187.78,-46.85 1194.51,-44.94"/>
</g>
<!-- _SearchController_graph_ -->
<g id="node12" class="node">
<title>_SearchController_graph_</title>
<polygon fill="lightblue" stroke="white" points="1495,-36 1320,-36 1320,0 1495,0 1495,-36"/>
<text text-anchor="middle" x="1407.5" y="-14.3" font-family="Arial" font-size="14.00">_SearchController_graph_</text>
</g>
<!-- _ApplicationHelper_get_wf_entity_&#45;&gt;_SearchController_graph_ -->
<g id="edge8" class="edge">
<title>_ApplicationHelper_get_wf_entity_&#45;&gt;_SearchController_graph_</title>
<path fill="none" stroke="black" d="M1300.38,-395.82C1318,-333.86 1378.33,-121.6 1399.82,-46"/>
<polygon fill="black" stroke="black" points="1403.22,-46.85 1402.59,-36.27 1396.49,-44.94 1403.22,-46.85"/>
</g>
<!-- _ApplicationHelper_display_log_ -->
<g id="node10" class="node">
<title>_ApplicationHelper_display_log_</title>
<polygon fill="lightblue" stroke="white" points="1520.5,-828 1308.5,-828 1308.5,-792 1520.5,-792 1520.5,-828"/>
<text text-anchor="middle" x="1414.5" y="-806.3" font-family="Arial" font-size="14.00">_ApplicationHelper_display_log_</text>
</g>
<!-- _ApplicationHelper_display_log_&#45;&gt;_ApplicationHelper_get_wf_entity_ -->
<g id="edge6" class="edge">
<title>_ApplicationHelper_display_log_&#45;&gt;_ApplicationHelper_get_wf_entity_</title>
<path fill="none" stroke="black" d="M1409.31,-791.82C1390.6,-729.86 1326.49,-517.6 1303.66,-442"/>
<polygon fill="black" stroke="black" points="1306.96,-440.83 1300.72,-432.27 1300.26,-442.86 1306.96,-440.83"/>
</g>
<!-- _ApplicationHelper_modular_polymorphic_path_ -->
<g id="node13" class="node">
<title>_ApplicationHelper_modular_polymorphic_path_</title>
<polygon fill="lightblue" stroke="white" points="1866,-828 1557,-828 1557,-792 1866,-792 1866,-828"/>
<text text-anchor="middle" x="1711.5" y="-806.3" font-family="Arial" font-size="14.00">_ApplicationHelper_modular_polymorphic_path_</text>
</g>
<!-- _ApplicationHelper_modular_array_for_path_ -->
<g id="node14" class="node">
<title>_ApplicationHelper_modular_array_for_path_</title>
<polygon fill="lightblue" stroke="white" points="1856.5,-432 1566.5,-432 1566.5,-396 1856.5,-396 1856.5,-432"/>
<text text-anchor="middle" x="1711.5" y="-410.3" font-family="Arial" font-size="14.00">_ApplicationHelper_modular_array_for_path_</text>
</g>
<!-- _ApplicationHelper_modular_polymorphic_path_&#45;&gt;_ApplicationHelper_modular_array_for_path_ -->
<g id="edge9" class="edge">
<title>_ApplicationHelper_modular_polymorphic_path_&#45;&gt;_ApplicationHelper_modular_array_for_path_</title>
<path fill="none" stroke="black" d="M1711.5,-791.82C1711.5,-729.98 1711.5,-518.47 1711.5,-442.47"/>
<polygon fill="black" stroke="black" points="1715,-442.27 1711.5,-432.27 1708,-442.27 1715,-442.27"/>
</g>
</g>
</svg>
