<?xml version="1.0" encoding="UTF-8" standalone="no"?>
<!DOCTYPE svg PUBLIC "-//W3C//DTD SVG 1.1//EN"
 "http://www.w3.org/Graphics/SVG/1.1/DTD/svg11.dtd">
<!-- Generated by graphviz version 2.43.0 (0)
 -->
<!-- Title: CallGraph Pages: 1 -->
<svg width="359pt" height="836pt"
 viewBox="0.00 0.00 358.50 836.00" xmlns="http://www.w3.org/2000/svg" xmlns:xlink="http://www.w3.org/1999/xlink">
<g id="graph0" class="graph" transform="scale(1 1) rotate(0) translate(4 832)">
<title>CallGraph</title>
<polygon fill="white" stroke="transparent" points="-4,4 -4,-832 354.5,-832 354.5,4 -4,4"/>
<!-- _AttachmentsController_check_object_ -->
<g id="node1" class="node">
<title>_AttachmentsController_check_object_</title>
<polygon fill="lightblue" stroke="white" points="350.5,-828 98.5,-828 98.5,-792 350.5,-792 350.5,-828"/>
<text text-anchor="middle" x="224.5" y="-806.3" font-family="Arial" font-size="14.00">_AttachmentsController_check_object_</text>
</g>
<!-- _AttachmentsController_roles_or_users_ -->
<g id="node2" class="node">
<title>_AttachmentsController_roles_or_users_</title>
<polygon fill="lightblue" stroke="white" points="263,-432 0,-432 0,-396 263,-396 263,-432"/>
<text text-anchor="middle" x="131.5" y="-410.3" font-family="Arial" font-size="14.00">_AttachmentsController_roles_or_users_</text>
</g>
<!-- _AttachmentsController_check_object_&#45;&gt;_AttachmentsController_roles_or_users_ -->
<g id="edge1" class="edge">
<title>_AttachmentsController_check_object_&#45;&gt;_AttachmentsController_roles_or_users_</title>
<path fill="none" stroke="black" d="M220.44,-791.82C205.85,-729.98 155.92,-518.47 137.98,-442.47"/>
<polygon fill="black" stroke="black" points="141.28,-441.2 135.58,-432.27 134.47,-442.81 141.28,-441.2"/>
</g>
<!-- _AttachmentsController_matches_ -->
<g id="node3" class="node">
<title>_AttachmentsController_matches_</title>
<polygon fill="lightblue" stroke="white" points="337,-36 112,-36 112,0 337,0 337,-36"/>
<text text-anchor="middle" x="224.5" y="-14.3" font-family="Arial" font-size="14.00">_AttachmentsController_matches_</text>
</g>
<!-- _AttachmentsController_check_object_&#45;&gt;_AttachmentsController_matches_ -->
<g id="edge2" class="edge">
<title>_AttachmentsController_check_object_&#45;&gt;_AttachmentsController_matches_</title>
<path fill="none" stroke="black" d="M228.04,-791.82C238.79,-738.65 270.98,-571.94 281.5,-432 292.5,-285.69 250.34,-112.13 232.31,-46.21"/>
<polygon fill="black" stroke="black" points="235.59,-44.93 229.54,-36.23 228.84,-46.8 235.59,-44.93"/>
</g>
<!-- _AttachmentsController_roles_or_users_&#45;&gt;_AttachmentsController_matches_ -->
<g id="edge3" class="edge">
<title>_AttachmentsController_roles_or_users_&#45;&gt;_AttachmentsController_matches_</title>
<path fill="none" stroke="black" d="M135.56,-395.82C150.15,-333.98 200.08,-122.47 218.02,-46.47"/>
<polygon fill="black" stroke="black" points="221.53,-46.81 220.42,-36.27 214.72,-45.2 221.53,-46.81"/>
</g>
</g>
</svg>
