<?xml version="1.0" encoding="UTF-8" standalone="no"?>
<!DOCTYPE svg PUBLIC "-//W3C//DTD SVG 1.1//EN"
 "http://www.w3.org/Graphics/SVG/1.1/DTD/svg11.dtd">
<!-- Generated by graphviz version 2.43.0 (0)
 -->
<!-- Title: CallGraph Pages: 1 -->
<svg width="554pt" height="440pt"
 viewBox="0.00 0.00 553.50 440.00" xmlns="http://www.w3.org/2000/svg" xmlns:xlink="http://www.w3.org/1999/xlink">
<g id="graph0" class="graph" transform="scale(1 1) rotate(0) translate(4 436)">
<title>CallGraph</title>
<polygon fill="white" stroke="transparent" points="-4,4 -4,-436 549.5,-436 549.5,4 -4,4"/>
<!-- _AuditNotifications_audit_create_notice_ -->
<g id="node1" class="node">
<title>_AuditNotifications_audit_create_notice_</title>
<polygon fill="lightblue" stroke="white" points="261,-432 0,-432 0,-396 261,-396 261,-432"/>
<text text-anchor="middle" x="130.5" y="-410.3" font-family="Arial" font-size="14.00">_AuditNotifications_audit_create_notice_</text>
</g>
<!-- _AuditNotifications_notify_by_role_ -->
<g id="node2" class="node">
<title>_AuditNotifications_notify_by_role_</title>
<polygon fill="lightblue" stroke="white" points="389,-36 162,-36 162,0 389,0 389,-36"/>
<text text-anchor="middle" x="275.5" y="-14.3" font-family="Arial" font-size="14.00">_AuditNotifications_notify_by_role_</text>
</g>
<!-- _AuditNotifications_audit_create_notice_&#45;&gt;_AuditNotifications_notify_by_role_ -->
<g id="edge1" class="edge">
<title>_AuditNotifications_audit_create_notice_&#45;&gt;_AuditNotifications_notify_by_role_</title>
<path fill="none" stroke="black" d="M136.82,-395.82C159.63,-333.86 237.74,-121.6 265.56,-46"/>
<polygon fill="black" stroke="black" points="268.97,-46.87 269.14,-36.27 262.4,-44.45 268.97,-46.87"/>
</g>
<!-- _AuditNotifications_audit_finish_audit_ -->
<g id="node3" class="node">
<title>_AuditNotifications_audit_finish_audit_</title>
<polygon fill="lightblue" stroke="white" points="545.5,-432 297.5,-432 297.5,-396 545.5,-396 545.5,-432"/>
<text text-anchor="middle" x="421.5" y="-410.3" font-family="Arial" font-size="14.00">_AuditNotifications_audit_finish_audit_</text>
</g>
<!-- _AuditNotifications_audit_finish_audit_&#45;&gt;_AuditNotifications_notify_by_role_ -->
<g id="edge2" class="edge">
<title>_AuditNotifications_audit_finish_audit_&#45;&gt;_AuditNotifications_notify_by_role_</title>
<path fill="none" stroke="black" d="M415.13,-395.82C392.17,-333.86 313.52,-121.6 285.51,-46"/>
<polygon fill="black" stroke="black" points="288.66,-44.43 281.9,-36.27 282.09,-46.87 288.66,-44.43"/>
</g>
</g>
</svg>
