<?xml version="1.0" encoding="UTF-8" standalone="no"?>
<!DOCTYPE svg PUBLIC "-//W3C//DTD SVG 1.1//EN"
 "http://www.w3.org/Graphics/SVG/1.1/DTD/svg11.dtd">
<!-- Generated by graphviz version 2.43.0 (0)
 -->
<!-- Title: CallGraph Pages: 1 -->
<svg width="742pt" height="440pt"
 viewBox="0.00 0.00 741.50 440.00" xmlns="http://www.w3.org/2000/svg" xmlns:xlink="http://www.w3.org/1999/xlink">
<g id="graph0" class="graph" transform="scale(1 1) rotate(0) translate(4 436)">
<title>CallGraph</title>
<polygon fill="white" stroke="transparent" points="-4,4 -4,-436 737.5,-436 737.5,4 -4,4"/>
<!-- _AuditsController_create_ -->
<g id="node1" class="node">
<title>_AuditsController_create_</title>
<polygon fill="lightblue" stroke="white" points="173,-432 0,-432 0,-396 173,-396 173,-432"/>
<text text-anchor="middle" x="86.5" y="-410.3" font-family="Arial" font-size="14.00">_AuditsController_create_</text>
</g>
<!-- _AuditsController_audit_params_ -->
<g id="node2" class="node">
<title>_AuditsController_audit_params_</title>
<polygon fill="lightblue" stroke="white" points="290.5,-36 72.5,-36 72.5,0 290.5,0 290.5,-36"/>
<text text-anchor="middle" x="181.5" y="-14.3" font-family="Arial" font-size="14.00">_AuditsController_audit_params_</text>
</g>
<!-- _AuditsController_create_&#45;&gt;_AuditsController_audit_params_ -->
<g id="edge1" class="edge">
<title>_AuditsController_create_&#45;&gt;_AuditsController_audit_params_</title>
<path fill="none" stroke="black" d="M90.64,-395.82C105.58,-333.86 156.76,-121.6 174.99,-46"/>
<polygon fill="black" stroke="black" points="178.39,-46.82 177.34,-36.27 171.59,-45.17 178.39,-46.82"/>
</g>
<!-- _AuditsController_update_ -->
<g id="node3" class="node">
<title>_AuditsController_update_</title>
<polygon fill="lightblue" stroke="white" points="385.5,-432 209.5,-432 209.5,-396 385.5,-396 385.5,-432"/>
<text text-anchor="middle" x="297.5" y="-410.3" font-family="Arial" font-size="14.00">_AuditsController_update_</text>
</g>
<!-- _AuditsController_update_&#45;&gt;_AuditsController_audit_params_ -->
<g id="edge2" class="edge">
<title>_AuditsController_update_&#45;&gt;_AuditsController_audit_params_</title>
<path fill="none" stroke="black" d="M292.44,-395.82C274.2,-333.86 211.71,-121.6 189.45,-46"/>
<polygon fill="black" stroke="black" points="192.77,-44.88 186.59,-36.27 186.05,-46.85 192.77,-44.88"/>
</g>
<!-- _AuditsController_update_responsibilities_ -->
<g id="node4" class="node">
<title>_AuditsController_update_responsibilities_</title>
<polygon fill="lightblue" stroke="white" points="713.5,-432 441.5,-432 441.5,-396 713.5,-396 713.5,-432"/>
<text text-anchor="middle" x="577.5" y="-410.3" font-family="Arial" font-size="14.00">_AuditsController_update_responsibilities_</text>
</g>
<!-- _AuditsController_notify_update_responsibilities_ -->
<g id="node5" class="node">
<title>_AuditsController_notify_update_responsibilities_</title>
<polygon fill="lightblue" stroke="white" points="733.5,-36 421.5,-36 421.5,0 733.5,0 733.5,-36"/>
<text text-anchor="middle" x="577.5" y="-14.3" font-family="Arial" font-size="14.00">_AuditsController_notify_update_responsibilities_</text>
</g>
<!-- _AuditsController_update_responsibilities_&#45;&gt;_AuditsController_notify_update_responsibilities_ -->
<g id="edge3" class="edge">
<title>_AuditsController_update_responsibilities_&#45;&gt;_AuditsController_notify_update_responsibilities_</title>
<path fill="none" stroke="black" d="M577.5,-395.82C577.5,-333.98 577.5,-122.47 577.5,-46.47"/>
<polygon fill="black" stroke="black" points="581,-46.27 577.5,-36.27 574,-46.27 581,-46.27"/>
</g>
</g>
</svg>
