<?xml version="1.0" encoding="UTF-8" standalone="no"?>
<!DOCTYPE svg PUBLIC "-//W3C//DTD SVG 1.1//EN"
 "http://www.w3.org/Graphics/SVG/1.1/DTD/svg11.dtd">
<!-- Generated by graphviz version 2.43.0 (0)
 -->
<!-- Title: CallGraph Pages: 1 -->
<svg width="1680pt" height="1232pt"
 viewBox="0.00 0.00 1680.35 1232.00" xmlns="http://www.w3.org/2000/svg" xmlns:xlink="http://www.w3.org/1999/xlink">
<g id="graph0" class="graph" transform="scale(1 1) rotate(0) translate(4 1228)">
<title>CallGraph</title>
<polygon fill="white" stroke="transparent" points="-4,4 -4,-1228 1676.35,-1228 1676.35,4 -4,4"/>
<!-- _AuditElementsController_create_ -->
<g id="node1" class="node">
<title>_AuditElementsController_create_</title>
<polygon fill="lightblue" stroke="white" points="835.85,-1224 612.85,-1224 612.85,-1188 835.85,-1188 835.85,-1224"/>
<text text-anchor="middle" x="724.35" y="-1202.3" font-family="Arial" font-size="14.00">_AuditElementsController_create_</text>
</g>
<!-- _AuditElementsController_audit_element_params_ -->
<g id="node2" class="node">
<title>_AuditElementsController_audit_element_params_</title>
<polygon fill="lightblue" stroke="white" points="713.35,-828 389.35,-828 389.35,-792 713.35,-792 713.35,-828"/>
<text text-anchor="middle" x="551.35" y="-806.3" font-family="Arial" font-size="14.00">_AuditElementsController_audit_element_params_</text>
</g>
<!-- _AuditElementsController_create_&#45;&gt;_AuditElementsController_audit_element_params_ -->
<g id="edge1" class="edge">
<title>_AuditElementsController_create_&#45;&gt;_AuditElementsController_audit_element_params_</title>
<path fill="none" stroke="black" d="M716.8,-1187.82C689.54,-1125.73 596.02,-912.73 563,-837.54"/>
<polygon fill="black" stroke="black" points="566.16,-836.02 558.93,-828.27 559.75,-838.84 566.16,-836.02"/>
</g>
<!-- _AuditElementsController_element_with_process_ -->
<g id="node3" class="node">
<title>_AuditElementsController_element_with_process_</title>
<polygon fill="lightblue" stroke="white" points="353.35,-828 33.35,-828 33.35,-792 353.35,-792 353.35,-828"/>
<text text-anchor="middle" x="193.35" y="-806.3" font-family="Arial" font-size="14.00">_AuditElementsController_element_with_process_</text>
</g>
<!-- _AuditElementsController_create_&#45;&gt;_AuditElementsController_element_with_process_ -->
<g id="edge2" class="edge">
<title>_AuditElementsController_create_&#45;&gt;_AuditElementsController_element_with_process_</title>
<path fill="none" stroke="black" d="M701.19,-1187.82C616.22,-1124.77 321.54,-906.12 224.56,-834.16"/>
<polygon fill="black" stroke="black" points="226.44,-831.2 216.33,-828.05 222.27,-836.82 226.44,-831.2"/>
</g>
<!-- _AuditElementsController_assign_roles_ -->
<g id="node4" class="node">
<title>_AuditElementsController_assign_roles_</title>
<polygon fill="lightblue" stroke="white" points="1341.85,-828 1080.85,-828 1080.85,-792 1341.85,-792 1341.85,-828"/>
<text text-anchor="middle" x="1211.35" y="-806.3" font-family="Arial" font-size="14.00">_AuditElementsController_assign_roles_</text>
</g>
<!-- _AuditElementsController_create_&#45;&gt;_AuditElementsController_assign_roles_ -->
<g id="edge3" class="edge">
<title>_AuditElementsController_create_&#45;&gt;_AuditElementsController_assign_roles_</title>
<path fill="none" stroke="black" d="M745.59,-1187.82C823.43,-1124.84 1093.24,-906.56 1182.46,-834.38"/>
<polygon fill="black" stroke="black" points="1184.7,-837.06 1190.27,-828.05 1180.3,-831.62 1184.7,-837.06"/>
</g>
<!-- _AuditElementsController_create_field_value_ -->
<g id="node5" class="node">
<title>_AuditElementsController_create_field_value_</title>
<polygon fill="lightblue" stroke="white" points="1044.85,-828 749.85,-828 749.85,-792 1044.85,-792 1044.85,-828"/>
<text text-anchor="middle" x="897.35" y="-806.3" font-family="Arial" font-size="14.00">_AuditElementsController_create_field_value_</text>
</g>
<!-- _AuditElementsController_create_&#45;&gt;_AuditElementsController_create_field_value_ -->
<g id="edge4" class="edge">
<title>_AuditElementsController_create_&#45;&gt;_AuditElementsController_create_field_value_</title>
<path fill="none" stroke="black" d="M731.89,-1187.82C759.15,-1125.73 852.68,-912.73 885.69,-837.54"/>
<polygon fill="black" stroke="black" points="888.95,-838.84 889.76,-828.27 882.54,-836.02 888.95,-838.84"/>
</g>
<!-- _AuditElementsController_assign_provided_roles_ -->
<g id="node7" class="node">
<title>_AuditElementsController_assign_provided_roles_</title>
<polygon fill="lightblue" stroke="white" points="575.35,-432 255.35,-432 255.35,-396 575.35,-396 575.35,-432"/>
<text text-anchor="middle" x="415.35" y="-410.3" font-family="Arial" font-size="14.00">_AuditElementsController_assign_provided_roles_</text>
</g>
<!-- _AuditElementsController_assign_roles_&#45;&gt;_AuditElementsController_assign_provided_roles_ -->
<g id="edge9" class="edge">
<title>_AuditElementsController_assign_roles_&#45;&gt;_AuditElementsController_assign_provided_roles_</title>
<path fill="none" stroke="black" d="M1176.89,-791.94C1048.98,-728.63 601.46,-507.12 459.15,-436.68"/>
<polygon fill="black" stroke="black" points="460.35,-433.37 449.83,-432.07 457.24,-439.64 460.35,-433.37"/>
</g>
<!-- _AuditElementsController_default_auditor_ -->
<g id="node10" class="node">
<title>_AuditElementsController_default_auditor_</title>
<polygon fill="lightblue" stroke="white" points="1515.85,-432 1240.85,-432 1240.85,-396 1515.85,-396 1515.85,-432"/>
<text text-anchor="middle" x="1378.35" y="-410.3" font-family="Arial" font-size="14.00">_AuditElementsController_default_auditor_</text>
</g>
<!-- _AuditElementsController_assign_roles_&#45;&gt;_AuditElementsController_default_auditor_ -->
<g id="edge10" class="edge">
<title>_AuditElementsController_assign_roles_&#45;&gt;_AuditElementsController_default_auditor_</title>
<path fill="none" stroke="black" d="M1218.63,-791.82C1244.95,-729.73 1335.23,-516.73 1367.1,-441.54"/>
<polygon fill="black" stroke="black" points="1370.35,-442.85 1371.03,-432.27 1363.9,-440.11 1370.35,-442.85"/>
</g>
<!-- _AuditElementsController_default_domain_owner_ -->
<g id="node11" class="node">
<title>_AuditElementsController_default_domain_owner_</title>
<polygon fill="lightblue" stroke="white" points="1204.85,-432 881.85,-432 881.85,-396 1204.85,-396 1204.85,-432"/>
<text text-anchor="middle" x="1043.35" y="-410.3" font-family="Arial" font-size="14.00">_AuditElementsController_default_domain_owner_</text>
</g>
<!-- _AuditElementsController_assign_roles_&#45;&gt;_AuditElementsController_default_domain_owner_ -->
<g id="edge11" class="edge">
<title>_AuditElementsController_assign_roles_&#45;&gt;_AuditElementsController_default_domain_owner_</title>
<path fill="none" stroke="black" d="M1204.02,-791.82C1177.55,-729.73 1086.73,-516.73 1054.67,-441.54"/>
<polygon fill="black" stroke="black" points="1057.86,-440.1 1050.71,-432.27 1051.42,-442.85 1057.86,-440.1"/>
</g>
<!-- _AuditElementsController_update_ -->
<g id="node6" class="node">
<title>_AuditElementsController_update_</title>
<polygon fill="lightblue" stroke="white" points="306.85,-1224 79.85,-1224 79.85,-1188 306.85,-1188 306.85,-1224"/>
<text text-anchor="middle" x="193.35" y="-1202.3" font-family="Arial" font-size="14.00">_AuditElementsController_update_</text>
</g>
<!-- _AuditElementsController_update_&#45;&gt;_AuditElementsController_audit_element_params_ -->
<g id="edge5" class="edge">
<title>_AuditElementsController_update_&#45;&gt;_AuditElementsController_audit_element_params_</title>
<path fill="none" stroke="black" d="M208.96,-1187.82C265.83,-1125.22 462.08,-909.24 528.88,-835.73"/>
<polygon fill="black" stroke="black" points="531.52,-838.03 535.65,-828.27 526.34,-833.32 531.52,-838.03"/>
</g>
<!-- _AuditElementsController_update_&#45;&gt;_AuditElementsController_element_with_process_ -->
<g id="edge7" class="edge">
<title>_AuditElementsController_update_&#45;&gt;_AuditElementsController_element_with_process_</title>
<path fill="none" stroke="black" d="M193.35,-1187.82C193.35,-1125.98 193.35,-914.47 193.35,-838.47"/>
<polygon fill="black" stroke="black" points="196.85,-838.27 193.35,-828.27 189.85,-838.27 196.85,-838.27"/>
</g>
<!-- _AuditElementsController_update_&#45;&gt;_AuditElementsController_assign_provided_roles_ -->
<g id="edge6" class="edge">
<title>_AuditElementsController_update_&#45;&gt;_AuditElementsController_assign_provided_roles_</title>
<path fill="none" stroke="black" d="M175.2,-1187.69C118.01,-1130.94 -50.87,-945.4 15.35,-792 90.42,-618.07 289.6,-487.19 375.26,-437.18"/>
<polygon fill="black" stroke="black" points="377.25,-440.07 384.16,-432.04 373.75,-434.01 377.25,-440.07"/>
</g>
<!-- _AuditElementsController_destroy_ -->
<g id="node8" class="node">
<title>_AuditElementsController_destroy_</title>
<polygon fill="lightblue" stroke="white" points="1640.35,-1224 1410.35,-1224 1410.35,-1188 1640.35,-1188 1640.35,-1224"/>
<text text-anchor="middle" x="1525.35" y="-1202.3" font-family="Arial" font-size="14.00">_AuditElementsController_destroy_</text>
</g>
<!-- _AuditElementsController_delete_field_value_ -->
<g id="node9" class="node">
<title>_AuditElementsController_delete_field_value_</title>
<polygon fill="lightblue" stroke="white" points="1672.35,-828 1378.35,-828 1378.35,-792 1672.35,-792 1672.35,-828"/>
<text text-anchor="middle" x="1525.35" y="-806.3" font-family="Arial" font-size="14.00">_AuditElementsController_delete_field_value_</text>
</g>
<!-- _AuditElementsController_destroy_&#45;&gt;_AuditElementsController_delete_field_value_ -->
<g id="edge8" class="edge">
<title>_AuditElementsController_destroy_&#45;&gt;_AuditElementsController_delete_field_value_</title>
<path fill="none" stroke="black" d="M1525.35,-1187.82C1525.35,-1125.98 1525.35,-914.47 1525.35,-838.47"/>
<polygon fill="black" stroke="black" points="1528.85,-838.27 1525.35,-828.27 1521.85,-838.27 1528.85,-838.27"/>
</g>
<!-- _GraphsController_pilot_ -->
<g id="node12" class="node">
<title>_GraphsController_pilot_</title>
<polygon fill="lightblue" stroke="white" points="1126.85,-36 959.85,-36 959.85,0 1126.85,0 1126.85,-36"/>
<text text-anchor="middle" x="1043.35" y="-14.3" font-family="Arial" font-size="14.00">_GraphsController_pilot_</text>
</g>
<!-- _AuditElementsController_default_domain_owner_&#45;&gt;_GraphsController_pilot_ -->
<g id="edge12" class="edge">
<title>_AuditElementsController_default_domain_owner_&#45;&gt;_GraphsController_pilot_</title>
<path fill="none" stroke="black" d="M1043.35,-395.82C1043.35,-333.98 1043.35,-122.47 1043.35,-46.47"/>
<polygon fill="black" stroke="black" points="1046.85,-46.27 1043.35,-36.27 1039.85,-46.27 1046.85,-46.27"/>
</g>
</g>
</svg>
