<?xml version="1.0" encoding="UTF-8" standalone="no"?>
<!DOCTYPE svg PUBLIC "-//W3C//DTD SVG 1.1//EN"
 "http://www.w3.org/Graphics/SVG/1.1/DTD/svg11.dtd">
<!-- Generated by graphviz version 2.43.0 (0)
 -->
<!-- Title: CallGraph Pages: 1 -->
<svg width="685pt" height="836pt"
 viewBox="0.00 0.00 684.50 836.00" xmlns="http://www.w3.org/2000/svg" xmlns:xlink="http://www.w3.org/1999/xlink">
<g id="graph0" class="graph" transform="scale(1 1) rotate(0) translate(4 832)">
<title>CallGraph</title>
<polygon fill="white" stroke="transparent" points="-4,4 -4,-832 680.5,-832 680.5,4 -4,4"/>
<!-- _Bar_compute_and_print_ -->
<g id="node1" class="node">
<title>_Bar_compute_and_print_</title>
<polygon fill="lightblue" stroke="white" points="244.5,-828 68.5,-828 68.5,-792 244.5,-792 244.5,-828"/>
<text text-anchor="middle" x="156.5" y="-806.3" font-family="Arial" font-size="14.00">_Bar_compute_and_print_</text>
</g>
<!-- _Foo_multiply_x_ -->
<g id="node2" class="node">
<title>_Foo_multiply_x_</title>
<polygon fill="lightblue" stroke="white" points="123,-432 0,-432 0,-396 123,-396 123,-432"/>
<text text-anchor="middle" x="61.5" y="-410.3" font-family="Arial" font-size="14.00">_Foo_multiply_x_</text>
</g>
<!-- _Bar_compute_and_print_&#45;&gt;_Foo_multiply_x_ -->
<g id="edge1" class="edge">
<title>_Bar_compute_and_print_&#45;&gt;_Foo_multiply_x_</title>
<path fill="none" stroke="black" d="M152.36,-791.82C137.42,-729.86 86.24,-517.6 68.01,-442"/>
<polygon fill="black" stroke="black" points="71.41,-441.17 65.66,-432.27 64.61,-442.82 71.41,-441.17"/>
</g>
<!-- _Foo_print_x_ -->
<g id="node3" class="node">
<title>_Foo_print_x_</title>
<polygon fill="lightblue" stroke="white" points="262,-432 159,-432 159,-396 262,-396 262,-432"/>
<text text-anchor="middle" x="210.5" y="-410.3" font-family="Arial" font-size="14.00">_Foo_print_x_</text>
</g>
<!-- _Bar_compute_and_print_&#45;&gt;_Foo_print_x_ -->
<g id="edge2" class="edge">
<title>_Bar_compute_and_print_&#45;&gt;_Foo_print_x_</title>
<path fill="none" stroke="black" d="M158.86,-791.82C167.33,-729.98 196.32,-518.47 206.74,-442.47"/>
<polygon fill="black" stroke="black" points="210.24,-442.66 208.13,-432.27 203.31,-441.71 210.24,-442.66"/>
</g>
<!-- _Bar_update_x_ -->
<g id="node4" class="node">
<title>_Bar_update_x_</title>
<polygon fill="lightblue" stroke="white" points="414.5,-432 298.5,-432 298.5,-396 414.5,-396 414.5,-432"/>
<text text-anchor="middle" x="356.5" y="-410.3" font-family="Arial" font-size="14.00">_Bar_update_x_</text>
</g>
<!-- _Bar_randomMats_ -->
<g id="node5" class="node">
<title>_Bar_randomMats_</title>
<polygon fill="lightblue" stroke="white" points="425,-36 288,-36 288,0 425,0 425,-36"/>
<text text-anchor="middle" x="356.5" y="-14.3" font-family="Arial" font-size="14.00">_Bar_randomMats_</text>
</g>
<!-- _Bar_update_x_&#45;&gt;_Bar_randomMats_ -->
<g id="edge3" class="edge">
<title>_Bar_update_x_&#45;&gt;_Bar_randomMats_</title>
<path fill="none" stroke="black" d="M356.5,-395.82C356.5,-333.98 356.5,-122.47 356.5,-46.47"/>
<polygon fill="black" stroke="black" points="360,-46.27 356.5,-36.27 353,-46.27 360,-46.27"/>
</g>
<!-- _Bar_perform_operations_ -->
<g id="node6" class="node">
<title>_Bar_perform_operations_</title>
<polygon fill="lightblue" stroke="white" points="499.5,-828 321.5,-828 321.5,-792 499.5,-792 499.5,-828"/>
<text text-anchor="middle" x="410.5" y="-806.3" font-family="Arial" font-size="14.00">_Bar_perform_operations_</text>
</g>
<!-- _Bar_perform_operations_&#45;&gt;_Foo_print_x_ -->
<g id="edge7" class="edge">
<title>_Bar_perform_operations_&#45;&gt;_Foo_print_x_</title>
<path fill="none" stroke="black" d="M401.78,-791.82C370.26,-729.73 262.14,-516.73 223.97,-441.54"/>
<polygon fill="black" stroke="black" points="226.92,-439.61 219.27,-432.27 220.67,-442.77 226.92,-439.61"/>
</g>
<!-- _Bar_perform_operations_&#45;&gt;_Bar_update_x_ -->
<g id="edge6" class="edge">
<title>_Bar_perform_operations_&#45;&gt;_Bar_update_x_</title>
<path fill="none" stroke="black" d="M408.14,-791.82C399.67,-729.98 370.68,-518.47 360.26,-442.47"/>
<polygon fill="black" stroke="black" points="363.69,-441.71 358.87,-432.27 356.76,-442.66 363.69,-441.71"/>
</g>
<!-- _Foo_set_x_ -->
<g id="node7" class="node">
<title>_Foo_set_x_</title>
<polygon fill="lightblue" stroke="white" points="546,-432 451,-432 451,-396 546,-396 546,-432"/>
<text text-anchor="middle" x="498.5" y="-410.3" font-family="Arial" font-size="14.00">_Foo_set_x_</text>
</g>
<!-- _Bar_perform_operations_&#45;&gt;_Foo_set_x_ -->
<g id="edge4" class="edge">
<title>_Bar_perform_operations_&#45;&gt;_Foo_set_x_</title>
<path fill="none" stroke="black" d="M414.34,-791.82C428.15,-729.98 475.39,-518.47 492.36,-442.47"/>
<polygon fill="black" stroke="black" points="495.88,-442.8 494.64,-432.27 489.05,-441.27 495.88,-442.8"/>
</g>
<!-- _Foo_inc_x_ -->
<g id="node8" class="node">
<title>_Foo_inc_x_</title>
<polygon fill="lightblue" stroke="white" points="676.5,-432 582.5,-432 582.5,-396 676.5,-396 676.5,-432"/>
<text text-anchor="middle" x="629.5" y="-410.3" font-family="Arial" font-size="14.00">_Foo_inc_x_</text>
</g>
<!-- _Bar_perform_operations_&#45;&gt;_Foo_inc_x_ -->
<g id="edge5" class="edge">
<title>_Bar_perform_operations_&#45;&gt;_Foo_inc_x_</title>
<path fill="none" stroke="black" d="M420.05,-791.82C454.63,-729.6 573.44,-515.86 615,-441.08"/>
<polygon fill="black" stroke="black" points="618.1,-442.71 619.9,-432.27 611.98,-439.31 618.1,-442.71"/>
</g>
</g>
</svg>
