<?xml version="1.0" encoding="UTF-8" standalone="no"?>
<!DOCTYPE svg PUBLIC "-//W3C//DTD SVG 1.1//EN"
 "http://www.w3.org/Graphics/SVG/1.1/DTD/svg11.dtd">
<!-- Generated by graphviz version 2.43.0 (0)
 -->
<!-- Title: CallGraph Pages: 1 -->
<svg width="941pt" height="440pt"
 viewBox="0.00 0.00 940.50 440.00" xmlns="http://www.w3.org/2000/svg" xmlns:xlink="http://www.w3.org/1999/xlink">
<g id="graph0" class="graph" transform="scale(1 1) rotate(0) translate(4 436)">
<title>CallGraph</title>
<polygon fill="white" stroke="transparent" points="-4,4 -4,-436 936.5,-436 936.5,4 -4,4"/>
<!-- _Baz_print_x_ -->
<g id="node1" class="node">
<title>_Baz_print_x_</title>
<polygon fill="lightblue" stroke="white" points="306,-432 203,-432 203,-396 306,-396 306,-432"/>
<text text-anchor="middle" x="254.5" y="-410.3" font-family="Arial" font-size="14.00">_Baz_print_x_</text>
</g>
<!-- _Foo_print_x_ -->
<g id="node2" class="node">
<title>_Foo_print_x_</title>
<polygon fill="lightblue" stroke="white" points="302,-36 199,-36 199,0 302,0 302,-36"/>
<text text-anchor="middle" x="250.5" y="-14.3" font-family="Arial" font-size="14.00">_Foo_print_x_</text>
</g>
<!-- _Baz_print_x_&#45;&gt;_Foo_print_x_ -->
<g id="edge1" class="edge">
<title>_Baz_print_x_&#45;&gt;_Foo_print_x_</title>
<path fill="none" stroke="black" d="M254.33,-395.82C253.7,-333.98 251.55,-122.47 250.78,-46.47"/>
<polygon fill="black" stroke="black" points="254.28,-46.24 250.68,-36.27 247.28,-46.31 254.28,-46.24"/>
</g>
<!-- _Baz_multiply_x_by_10_ -->
<g id="node3" class="node">
<title>_Baz_multiply_x_by_10_</title>
<polygon fill="lightblue" stroke="white" points="167,-432 0,-432 0,-396 167,-396 167,-432"/>
<text text-anchor="middle" x="83.5" y="-410.3" font-family="Arial" font-size="14.00">_Baz_multiply_x_by_10_</text>
</g>
<!-- _Baz_multiply_x_by_10_&#45;&gt;_Foo_print_x_ -->
<g id="edge3" class="edge">
<title>_Baz_multiply_x_by_10_&#45;&gt;_Foo_print_x_</title>
<path fill="none" stroke="black" d="M90.78,-395.82C117.1,-333.73 207.38,-120.73 239.25,-45.54"/>
<polygon fill="black" stroke="black" points="242.5,-46.85 243.18,-36.27 236.05,-44.11 242.5,-46.85"/>
</g>
<!-- _Foo_multiply_x_ -->
<g id="node4" class="node">
<title>_Foo_multiply_x_</title>
<polygon fill="lightblue" stroke="white" points="154,-36 31,-36 31,0 154,0 154,-36"/>
<text text-anchor="middle" x="92.5" y="-14.3" font-family="Arial" font-size="14.00">_Foo_multiply_x_</text>
</g>
<!-- _Baz_multiply_x_by_10_&#45;&gt;_Foo_multiply_x_ -->
<g id="edge2" class="edge">
<title>_Baz_multiply_x_by_10_&#45;&gt;_Foo_multiply_x_</title>
<path fill="none" stroke="black" d="M83.89,-395.82C85.3,-333.98 90.14,-122.47 91.87,-46.47"/>
<polygon fill="black" stroke="black" points="95.38,-46.35 92.11,-36.27 88.38,-46.19 95.38,-46.35"/>
</g>
<!-- _Baz_process_ -->
<g id="node5" class="node">
<title>_Baz_process_</title>
<polygon fill="lightblue" stroke="white" points="452.5,-432 342.5,-432 342.5,-396 452.5,-396 452.5,-432"/>
<text text-anchor="middle" x="397.5" y="-410.3" font-family="Arial" font-size="14.00">_Baz_process_</text>
</g>
<!-- _Baz_process_&#45;&gt;_Foo_print_x_ -->
<g id="edge5" class="edge">
<title>_Baz_process_&#45;&gt;_Foo_print_x_</title>
<path fill="none" stroke="black" d="M391.09,-395.82C367.97,-333.86 288.78,-121.6 260.57,-46"/>
<polygon fill="black" stroke="black" points="263.72,-44.42 256.94,-36.27 257.16,-46.87 263.72,-44.42"/>
</g>
<!-- _Baz_process_&#45;&gt;_Foo_multiply_x_ -->
<g id="edge4" class="edge">
<title>_Baz_process_&#45;&gt;_Foo_multiply_x_</title>
<path fill="none" stroke="black" d="M384.2,-395.82C335.94,-333.48 169.9,-118.99 112.34,-44.63"/>
<polygon fill="black" stroke="black" points="114.76,-42.04 105.87,-36.27 109.23,-46.32 114.76,-42.04"/>
</g>
<!-- _Baz_update_x_ -->
<g id="node6" class="node">
<title>_Baz_update_x_</title>
<polygon fill="lightblue" stroke="white" points="456.5,-36 338.5,-36 338.5,0 456.5,0 456.5,-36"/>
<text text-anchor="middle" x="397.5" y="-14.3" font-family="Arial" font-size="14.00">_Baz_update_x_</text>
</g>
<!-- _Baz_process_&#45;&gt;_Baz_update_x_ -->
<g id="edge6" class="edge">
<title>_Baz_process_&#45;&gt;_Baz_update_x_</title>
<path fill="none" stroke="black" d="M397.5,-395.82C397.5,-333.98 397.5,-122.47 397.5,-46.47"/>
<polygon fill="black" stroke="black" points="401,-46.27 397.5,-36.27 394,-46.27 401,-46.27"/>
</g>
<!-- _Bar_perform_operations_ -->
<g id="node7" class="node">
<title>_Bar_perform_operations_</title>
<polygon fill="lightblue" stroke="white" points="670.5,-36 492.5,-36 492.5,0 670.5,0 670.5,-36"/>
<text text-anchor="middle" x="581.5" y="-14.3" font-family="Arial" font-size="14.00">_Bar_perform_operations_</text>
</g>
<!-- _Baz_process_&#45;&gt;_Bar_perform_operations_ -->
<g id="edge7" class="edge">
<title>_Baz_process_&#45;&gt;_Bar_perform_operations_</title>
<path fill="none" stroke="black" d="M405.52,-395.82C434.52,-333.73 533.99,-120.73 569.11,-45.54"/>
<polygon fill="black" stroke="black" points="572.37,-46.82 573.43,-36.27 566.03,-43.85 572.37,-46.82"/>
</g>
<!-- _Baz_perform_operations_ -->
<g id="node8" class="node">
<title>_Baz_perform_operations_</title>
<polygon fill="lightblue" stroke="white" points="844.5,-432 664.5,-432 664.5,-396 844.5,-396 844.5,-432"/>
<text text-anchor="middle" x="754.5" y="-410.3" font-family="Arial" font-size="14.00">_Baz_perform_operations_</text>
</g>
<!-- _Baz_perform_operations_&#45;&gt;_Foo_print_x_ -->
<g id="edge10" class="edge">
<title>_Baz_perform_operations_&#45;&gt;_Foo_print_x_</title>
<path fill="none" stroke="black" d="M732.52,-395.82C651.95,-332.84 372.73,-114.56 280.4,-42.38"/>
<polygon fill="black" stroke="black" points="282.35,-39.45 272.31,-36.05 278.03,-44.97 282.35,-39.45"/>
</g>
<!-- _Foo_set_x_ -->
<g id="node9" class="node">
<title>_Foo_set_x_</title>
<polygon fill="lightblue" stroke="white" points="802,-36 707,-36 707,0 802,0 802,-36"/>
<text text-anchor="middle" x="754.5" y="-14.3" font-family="Arial" font-size="14.00">_Foo_set_x_</text>
</g>
<!-- _Baz_perform_operations_&#45;&gt;_Foo_set_x_ -->
<g id="edge8" class="edge">
<title>_Baz_perform_operations_&#45;&gt;_Foo_set_x_</title>
<path fill="none" stroke="black" d="M754.5,-395.82C754.5,-333.98 754.5,-122.47 754.5,-46.47"/>
<polygon fill="black" stroke="black" points="758,-46.27 754.5,-36.27 751,-46.27 758,-46.27"/>
</g>
<!-- _Foo_inc_x_ -->
<g id="node10" class="node">
<title>_Foo_inc_x_</title>
<polygon fill="lightblue" stroke="white" points="932.5,-36 838.5,-36 838.5,0 932.5,0 932.5,-36"/>
<text text-anchor="middle" x="885.5" y="-14.3" font-family="Arial" font-size="14.00">_Foo_inc_x_</text>
</g>
<!-- _Baz_perform_operations_&#45;&gt;_Foo_inc_x_ -->
<g id="edge9" class="edge">
<title>_Baz_perform_operations_&#45;&gt;_Foo_inc_x_</title>
<path fill="none" stroke="black" d="M760.21,-395.82C780.81,-333.86 851.39,-121.6 876.52,-46"/>
<polygon fill="black" stroke="black" points="879.92,-46.87 879.76,-36.27 873.28,-44.66 879.92,-46.87"/>
</g>
</g>
</svg>
