<?xml version="1.0" encoding="UTF-8" standalone="no"?>
<!DOCTYPE svg PUBLIC "-//W3C//DTD SVG 1.1//EN"
 "http://www.w3.org/Graphics/SVG/1.1/DTD/svg11.dtd">
<!-- Generated by graphviz version 2.43.0 (0)
 -->
<!-- Title: CallGraph Pages: 1 -->
<svg width="403pt" height="440pt"
 viewBox="0.00 0.00 402.50 440.00" xmlns="http://www.w3.org/2000/svg" xmlns:xlink="http://www.w3.org/1999/xlink">
<g id="graph0" class="graph" transform="scale(1 1) rotate(0) translate(4 436)">
<title>CallGraph</title>
<polygon fill="white" stroke="transparent" points="-4,4 -4,-436 398.5,-436 398.5,4 -4,4"/>
<!-- _DashboardController -->
<g id="node1" class="node">
<title>_DashboardController</title>
<polygon fill="lightblue" stroke="white" points="149,-432 0,-432 0,-396 149,-396 149,-432"/>
<text text-anchor="middle" x="74.5" y="-410.3" font-family="Arial" font-size="14.00">_DashboardController</text>
</g>
<!-- _DashboardController_index_ -->
<g id="node2" class="node">
<title>_DashboardController_index_</title>
<polygon fill="lightblue" stroke="white" points="380.5,-432 184.5,-432 184.5,-396 380.5,-396 380.5,-432"/>
<text text-anchor="middle" x="282.5" y="-410.3" font-family="Arial" font-size="14.00">_DashboardController_index_</text>
</g>
<!-- _DashboardController_ownerless_ -->
<g id="node3" class="node">
<title>_DashboardController_ownerless_</title>
<polygon fill="lightblue" stroke="white" points="394.5,-36 170.5,-36 170.5,0 394.5,0 394.5,-36"/>
<text text-anchor="middle" x="282.5" y="-14.3" font-family="Arial" font-size="14.00">_DashboardController_ownerless_</text>
</g>
<!-- _DashboardController_index_&#45;&gt;_DashboardController_ownerless_ -->
<g id="edge1" class="edge">
<title>_DashboardController_index_&#45;&gt;_DashboardController_ownerless_</title>
<path fill="none" stroke="black" d="M282.5,-395.82C282.5,-333.98 282.5,-122.47 282.5,-46.47"/>
<polygon fill="black" stroke="black" points="286,-46.27 282.5,-36.27 279,-46.27 286,-46.27"/>
</g>
</g>
</svg>
