<?xml version="1.0" encoding="UTF-8" standalone="no"?>
<!DOCTYPE svg PUBLIC "-//W3C//DTD SVG 1.1//EN"
 "http://www.w3.org/Graphics/SVG/1.1/DTD/svg11.dtd">
<!-- Generated by graphviz version 2.43.0 (0)
 -->
<!-- Title: CallGraph Pages: 1 -->
<svg width="1106pt" height="440pt"
 viewBox="0.00 0.00 1105.50 440.00" xmlns="http://www.w3.org/2000/svg" xmlns:xlink="http://www.w3.org/1999/xlink">
<g id="graph0" class="graph" transform="scale(1 1) rotate(0) translate(4 436)">
<title>CallGraph</title>
<polygon fill="white" stroke="transparent" points="-4,4 -4,-436 1101.5,-436 1101.5,4 -4,4"/>
<!-- _DeliveryService -->
<g id="node1" class="node">
<title>_DeliveryService</title>
<polygon fill="lightblue" stroke="white" points="118,-432 0,-432 0,-396 118,-396 118,-432"/>
<text text-anchor="middle" x="59" y="-410.3" font-family="Arial" font-size="14.00">_DeliveryService</text>
</g>
<!-- _DeliveryService_schedule_delivery_ -->
<g id="node2" class="node">
<title>_DeliveryService_schedule_delivery_</title>
<polygon fill="lightblue" stroke="white" points="395.5,-432 154.5,-432 154.5,-396 395.5,-396 395.5,-432"/>
<text text-anchor="middle" x="275" y="-410.3" font-family="Arial" font-size="14.00">_DeliveryService_schedule_delivery_</text>
</g>
<!-- _DeliveryProcess_schedule_delivery_ -->
<g id="node3" class="node">
<title>_DeliveryProcess_schedule_delivery_</title>
<polygon fill="lightblue" stroke="white" points="397.5,-36 152.5,-36 152.5,0 397.5,0 397.5,-36"/>
<text text-anchor="middle" x="275" y="-14.3" font-family="Arial" font-size="14.00">_DeliveryProcess_schedule_delivery_</text>
</g>
<!-- _DeliveryService_schedule_delivery_&#45;&gt;_DeliveryProcess_schedule_delivery_ -->
<g id="edge1" class="edge">
<title>_DeliveryService_schedule_delivery_&#45;&gt;_DeliveryProcess_schedule_delivery_</title>
<path fill="none" stroke="black" d="M275,-395.82C275,-333.98 275,-122.47 275,-46.47"/>
<polygon fill="black" stroke="black" points="278.5,-46.27 275,-36.27 271.5,-46.27 278.5,-46.27"/>
</g>
<!-- _DeliveryService_update_delivery_status_ -->
<g id="node4" class="node">
<title>_DeliveryService_update_delivery_status_</title>
<polygon fill="lightblue" stroke="white" points="738,-432 466,-432 466,-396 738,-396 738,-432"/>
<text text-anchor="middle" x="602" y="-410.3" font-family="Arial" font-size="14.00">_DeliveryService_update_delivery_status_</text>
</g>
<!-- _DeliveryProcess_update_delivery_status_schedule_ -->
<g id="node5" class="node">
<title>_DeliveryProcess_update_delivery_status_schedule_</title>
<polygon fill="lightblue" stroke="white" points="770.5,-36 433.5,-36 433.5,0 770.5,0 770.5,-36"/>
<text text-anchor="middle" x="602" y="-14.3" font-family="Arial" font-size="14.00">_DeliveryProcess_update_delivery_status_schedule_</text>
</g>
<!-- _DeliveryService_update_delivery_status_&#45;&gt;_DeliveryProcess_update_delivery_status_schedule_ -->
<g id="edge2" class="edge">
<title>_DeliveryService_update_delivery_status_&#45;&gt;_DeliveryProcess_update_delivery_status_schedule_</title>
<path fill="none" stroke="black" d="M602,-395.82C602,-333.98 602,-122.47 602,-46.47"/>
<polygon fill="black" stroke="black" points="605.5,-46.27 602,-36.27 598.5,-46.27 605.5,-46.27"/>
</g>
<!-- _DeliveryService_cancel_delivery_ -->
<g id="node6" class="node">
<title>_DeliveryService_cancel_delivery_</title>
<polygon fill="lightblue" stroke="white" points="1065,-432 839,-432 839,-396 1065,-396 1065,-432"/>
<text text-anchor="middle" x="952" y="-410.3" font-family="Arial" font-size="14.00">_DeliveryService_cancel_delivery_</text>
</g>
<!-- _DeliveryProcess_cancel_delivery_schedule_ -->
<g id="node7" class="node">
<title>_DeliveryProcess_cancel_delivery_schedule_</title>
<polygon fill="lightblue" stroke="white" points="1097.5,-36 806.5,-36 806.5,0 1097.5,0 1097.5,-36"/>
<text text-anchor="middle" x="952" y="-14.3" font-family="Arial" font-size="14.00">_DeliveryProcess_cancel_delivery_schedule_</text>
</g>
<!-- _DeliveryService_cancel_delivery_&#45;&gt;_DeliveryProcess_cancel_delivery_schedule_ -->
<g id="edge3" class="edge">
<title>_DeliveryService_cancel_delivery_&#45;&gt;_DeliveryProcess_cancel_delivery_schedule_</title>
<path fill="none" stroke="black" d="M952,-395.82C952,-333.98 952,-122.47 952,-46.47"/>
<polygon fill="black" stroke="black" points="955.5,-46.27 952,-36.27 948.5,-46.27 955.5,-46.27"/>
</g>
</g>
</svg>
