<?xml version="1.0" encoding="UTF-8" standalone="no"?>
<!DOCTYPE svg PUBLIC "-//W3C//DTD SVG 1.1//EN"
 "http://www.w3.org/Graphics/SVG/1.1/DTD/svg11.dtd">
<!-- Generated by graphviz version 2.43.0 (0)
 -->
<!-- Title: CallGraph Pages: 1 -->
<svg width="1342pt" height="836pt"
 viewBox="0.00 0.00 1341.50 836.00" xmlns="http://www.w3.org/2000/svg" xmlns:xlink="http://www.w3.org/1999/xlink">
<g id="graph0" class="graph" transform="scale(1 1) rotate(0) translate(4 832)">
<title>CallGraph</title>
<polygon fill="white" stroke="transparent" points="-4,4 -4,-832 1337.5,-832 1337.5,4 -4,4"/>
<!-- _DeviseCustomMailer_confirmation_instructions_ -->
<g id="node1" class="node">
<title>_DeviseCustomMailer_confirmation_instructions_</title>
<polygon fill="lightblue" stroke="white" points="315,-828 0,-828 0,-792 315,-792 315,-828"/>
<text text-anchor="middle" x="157.5" y="-806.3" font-family="Arial" font-size="14.00">_DeviseCustomMailer_confirmation_instructions_</text>
</g>
<!-- _DeviseCustomMailer_add_inline_attachment_ -->
<g id="node2" class="node">
<title>_DeviseCustomMailer_add_inline_attachment_</title>
<polygon fill="lightblue" stroke="white" points="842.5,-432 540.5,-432 540.5,-396 842.5,-396 842.5,-432"/>
<text text-anchor="middle" x="691.5" y="-410.3" font-family="Arial" font-size="14.00">_DeviseCustomMailer_add_inline_attachment_</text>
</g>
<!-- _DeviseCustomMailer_confirmation_instructions_&#45;&gt;_DeviseCustomMailer_add_inline_attachment_ -->
<g id="edge1" class="edge">
<title>_DeviseCustomMailer_confirmation_instructions_&#45;&gt;_DeviseCustomMailer_add_inline_attachment_</title>
<path fill="none" stroke="black" d="M180.79,-791.82C266.23,-728.77 562.59,-510.12 660.11,-438.16"/>
<polygon fill="black" stroke="black" points="662.42,-440.8 668.39,-432.05 658.26,-435.17 662.42,-440.8"/>
</g>
<!-- _DeviseCustomMailer_customer_logo_for_mail_ -->
<g id="node6" class="node">
<title>_DeviseCustomMailer_customer_logo_for_mail_</title>
<polygon fill="lightblue" stroke="white" points="692,-36 381,-36 381,0 692,0 692,-36"/>
<text text-anchor="middle" x="536.5" y="-14.3" font-family="Arial" font-size="14.00">_DeviseCustomMailer_customer_logo_for_mail_</text>
</g>
<!-- _DeviseCustomMailer_add_inline_attachment_&#45;&gt;_DeviseCustomMailer_customer_logo_for_mail_ -->
<g id="edge5" class="edge">
<title>_DeviseCustomMailer_add_inline_attachment_&#45;&gt;_DeviseCustomMailer_customer_logo_for_mail_</title>
<path fill="none" stroke="black" d="M684.74,-395.82C660.37,-333.86 576.86,-121.6 547.12,-46"/>
<polygon fill="black" stroke="black" points="550.21,-44.3 543.3,-36.27 543.7,-46.86 550.21,-44.3"/>
</g>
<!-- _DeviseCustomMailer_mail_image_ -->
<g id="node7" class="node">
<title>_DeviseCustomMailer_mail_image_</title>
<polygon fill="lightblue" stroke="white" points="964.5,-36 728.5,-36 728.5,0 964.5,0 964.5,-36"/>
<text text-anchor="middle" x="846.5" y="-14.3" font-family="Arial" font-size="14.00">_DeviseCustomMailer_mail_image_</text>
</g>
<!-- _DeviseCustomMailer_add_inline_attachment_&#45;&gt;_DeviseCustomMailer_mail_image_ -->
<g id="edge6" class="edge">
<title>_DeviseCustomMailer_add_inline_attachment_&#45;&gt;_DeviseCustomMailer_mail_image_</title>
<path fill="none" stroke="black" d="M698.26,-395.82C722.63,-333.86 806.14,-121.6 835.88,-46"/>
<polygon fill="black" stroke="black" points="839.3,-46.86 839.7,-36.27 832.79,-44.3 839.3,-46.86"/>
</g>
<!-- _DeviseCustomMailer_reset_password_instructions_ -->
<g id="node3" class="node">
<title>_DeviseCustomMailer_reset_password_instructions_</title>
<polygon fill="lightblue" stroke="white" points="687.5,-828 351.5,-828 351.5,-792 687.5,-792 687.5,-828"/>
<text text-anchor="middle" x="519.5" y="-806.3" font-family="Arial" font-size="14.00">_DeviseCustomMailer_reset_password_instructions_</text>
</g>
<!-- _DeviseCustomMailer_reset_password_instructions_&#45;&gt;_DeviseCustomMailer_add_inline_attachment_ -->
<g id="edge2" class="edge">
<title>_DeviseCustomMailer_reset_password_instructions_&#45;&gt;_DeviseCustomMailer_add_inline_attachment_</title>
<path fill="none" stroke="black" d="M527,-791.82C554.1,-729.73 647.09,-516.73 679.91,-441.54"/>
<polygon fill="black" stroke="black" points="683.17,-442.84 683.96,-432.27 676.75,-440.04 683.17,-442.84"/>
</g>
<!-- _DeviseCustomMailer_unlock_instructions_ -->
<g id="node4" class="node">
<title>_DeviseCustomMailer_unlock_instructions_</title>
<polygon fill="lightblue" stroke="white" points="1003.5,-828 723.5,-828 723.5,-792 1003.5,-792 1003.5,-828"/>
<text text-anchor="middle" x="863.5" y="-806.3" font-family="Arial" font-size="14.00">_DeviseCustomMailer_unlock_instructions_</text>
</g>
<!-- _DeviseCustomMailer_unlock_instructions_&#45;&gt;_DeviseCustomMailer_add_inline_attachment_ -->
<g id="edge3" class="edge">
<title>_DeviseCustomMailer_unlock_instructions_&#45;&gt;_DeviseCustomMailer_add_inline_attachment_</title>
<path fill="none" stroke="black" d="M856,-791.82C828.9,-729.73 735.91,-516.73 703.09,-441.54"/>
<polygon fill="black" stroke="black" points="706.25,-440.04 699.04,-432.27 699.83,-442.84 706.25,-440.04"/>
</g>
<!-- _DeviseCustomMailer_invitation_instructions_ -->
<g id="node5" class="node">
<title>_DeviseCustomMailer_invitation_instructions_</title>
<polygon fill="lightblue" stroke="white" points="1333.5,-828 1039.5,-828 1039.5,-792 1333.5,-792 1333.5,-828"/>
<text text-anchor="middle" x="1186.5" y="-806.3" font-family="Arial" font-size="14.00">_DeviseCustomMailer_invitation_instructions_</text>
</g>
<!-- _DeviseCustomMailer_invitation_instructions_&#45;&gt;_DeviseCustomMailer_add_inline_attachment_ -->
<g id="edge4" class="edge">
<title>_DeviseCustomMailer_invitation_instructions_&#45;&gt;_DeviseCustomMailer_add_inline_attachment_</title>
<path fill="none" stroke="black" d="M1164.91,-791.82C1085.79,-728.84 811.55,-510.56 720.87,-438.38"/>
<polygon fill="black" stroke="black" points="722.93,-435.54 712.92,-432.05 718.57,-441.02 722.93,-435.54"/>
</g>
</g>
</svg>
