<?xml version="1.0" encoding="UTF-8" standalone="no"?>
<!DOCTYPE svg PUBLIC "-//W3C//DTD SVG 1.1//EN"
 "http://www.w3.org/Graphics/SVG/1.1/DTD/svg11.dtd">
<!-- Generated by graphviz version 2.43.0 (0)
 -->
<!-- Title: CallGraph Pages: 1 -->
<svg width="1809pt" height="1232pt"
 viewBox="0.00 0.00 1808.50 1232.00" xmlns="http://www.w3.org/2000/svg" xmlns:xlink="http://www.w3.org/1999/xlink">
<g id="graph0" class="graph" transform="scale(1 1) rotate(0) translate(4 1228)">
<title>CallGraph</title>
<polygon fill="white" stroke="transparent" points="-4,4 -4,-1228 1804.5,-1228 1804.5,4 -4,4"/>
<!-- _DirectoriesController_create_ -->
<g id="node1" class="node">
<title>_DirectoriesController_create_</title>
<polygon fill="lightblue" stroke="white" points="227,-1224 27,-1224 27,-1188 227,-1188 227,-1224"/>
<text text-anchor="middle" x="127" y="-1202.3" font-family="Arial" font-size="14.00">_DirectoriesController_create_</text>
</g>
<!-- _DirectoriesController_fill_errors_hash_ -->
<g id="node2" class="node">
<title>_DirectoriesController_fill_errors_hash_</title>
<polygon fill="lightblue" stroke="white" points="254,-828 0,-828 0,-792 254,-792 254,-828"/>
<text text-anchor="middle" x="127" y="-806.3" font-family="Arial" font-size="14.00">_DirectoriesController_fill_errors_hash_</text>
</g>
<!-- _DirectoriesController_create_&#45;&gt;_DirectoriesController_fill_errors_hash_ -->
<g id="edge1" class="edge">
<title>_DirectoriesController_create_&#45;&gt;_DirectoriesController_fill_errors_hash_</title>
<path fill="none" stroke="black" d="M127,-1187.82C127,-1125.98 127,-914.47 127,-838.47"/>
<polygon fill="black" stroke="black" points="130.5,-838.27 127,-828.27 123.5,-838.27 130.5,-838.27"/>
</g>
<!-- _DirectoriesController_delete_directories_ -->
<g id="node3" class="node">
<title>_DirectoriesController_delete_directories_</title>
<polygon fill="lightblue" stroke="white" points="847.5,-1224 578.5,-1224 578.5,-1188 847.5,-1188 847.5,-1224"/>
<text text-anchor="middle" x="713" y="-1202.3" font-family="Arial" font-size="14.00">_DirectoriesController_delete_directories_</text>
</g>
<!-- _DirectoriesController_list_show_definition_ -->
<g id="node4" class="node">
<title>_DirectoriesController_list_show_definition_</title>
<polygon fill="lightblue" stroke="white" points="850.5,-828 571.5,-828 571.5,-792 850.5,-792 850.5,-828"/>
<text text-anchor="middle" x="711" y="-806.3" font-family="Arial" font-size="14.00">_DirectoriesController_list_show_definition_</text>
</g>
<!-- _DirectoriesController_delete_directories_&#45;&gt;_DirectoriesController_list_show_definition_ -->
<g id="edge2" class="edge">
<title>_DirectoriesController_delete_directories_&#45;&gt;_DirectoriesController_list_show_definition_</title>
<path fill="none" stroke="black" d="M712.91,-1187.82C712.6,-1125.98 711.53,-914.47 711.14,-838.47"/>
<polygon fill="black" stroke="black" points="714.64,-838.26 711.09,-828.27 707.64,-838.29 714.64,-838.26"/>
</g>
<!-- _DirectoriesController_tree_view_search_ -->
<g id="node7" class="node">
<title>_DirectoriesController_tree_view_search_</title>
<polygon fill="lightblue" stroke="white" points="270,-432 2,-432 2,-396 270,-396 270,-432"/>
<text text-anchor="middle" x="136" y="-410.3" font-family="Arial" font-size="14.00">_DirectoriesController_tree_view_search_</text>
</g>
<!-- _DirectoriesController_list_show_definition_&#45;&gt;_DirectoriesController_tree_view_search_ -->
<g id="edge6" class="edge">
<title>_DirectoriesController_list_show_definition_&#45;&gt;_DirectoriesController_tree_view_search_</title>
<path fill="none" stroke="black" d="M685.92,-791.82C593.73,-728.65 273.53,-509.24 169.16,-437.72"/>
<polygon fill="black" stroke="black" points="171.11,-434.82 160.88,-432.05 167.16,-440.59 171.11,-434.82"/>
</g>
<!-- _DirectoriesController_order_children_by_type_ -->
<g id="node8" class="node">
<title>_DirectoriesController_order_children_by_type_</title>
<polygon fill="lightblue" stroke="white" points="683.5,-432 380.5,-432 380.5,-396 683.5,-396 683.5,-432"/>
<text text-anchor="middle" x="532" y="-410.3" font-family="Arial" font-size="14.00">_DirectoriesController_order_children_by_type_</text>
</g>
<!-- _DirectoriesController_list_show_definition_&#45;&gt;_DirectoriesController_order_children_by_type_ -->
<g id="edge7" class="edge">
<title>_DirectoriesController_list_show_definition_&#45;&gt;_DirectoriesController_order_children_by_type_</title>
<path fill="none" stroke="black" d="M703.19,-791.82C674.99,-729.73 578.22,-516.73 544.06,-441.54"/>
<polygon fill="black" stroke="black" points="547.17,-439.93 539.85,-432.27 540.8,-442.83 547.17,-439.93"/>
</g>
<!-- _DirectoriesController_order_children_by_created_at_ -->
<g id="node9" class="node">
<title>_DirectoriesController_order_children_by_created_at_</title>
<polygon fill="lightblue" stroke="white" points="1060.5,-432 719.5,-432 719.5,-396 1060.5,-396 1060.5,-432"/>
<text text-anchor="middle" x="890" y="-410.3" font-family="Arial" font-size="14.00">_DirectoriesController_order_children_by_created_at_</text>
</g>
<!-- _DirectoriesController_list_show_definition_&#45;&gt;_DirectoriesController_order_children_by_created_at_ -->
<g id="edge8" class="edge">
<title>_DirectoriesController_list_show_definition_&#45;&gt;_DirectoriesController_order_children_by_created_at_</title>
<path fill="none" stroke="black" d="M718.81,-791.82C747.01,-729.73 843.78,-516.73 877.94,-441.54"/>
<polygon fill="black" stroke="black" points="881.2,-442.83 882.15,-432.27 874.83,-439.93 881.2,-442.83"/>
</g>
<!-- _DirectoriesController_order_children_by_updated_at_ -->
<g id="node10" class="node">
<title>_DirectoriesController_order_children_by_updated_at_</title>
<polygon fill="lightblue" stroke="white" points="1441.5,-432 1096.5,-432 1096.5,-396 1441.5,-396 1441.5,-432"/>
<text text-anchor="middle" x="1269" y="-410.3" font-family="Arial" font-size="14.00">_DirectoriesController_order_children_by_updated_at_</text>
</g>
<!-- _DirectoriesController_list_show_definition_&#45;&gt;_DirectoriesController_order_children_by_updated_at_ -->
<g id="edge9" class="edge">
<title>_DirectoriesController_list_show_definition_&#45;&gt;_DirectoriesController_order_children_by_updated_at_</title>
<path fill="none" stroke="black" d="M735.34,-791.82C824.71,-728.71 1134.92,-509.68 1236.51,-437.94"/>
<polygon fill="black" stroke="black" points="1238.7,-440.68 1244.85,-432.05 1234.66,-434.96 1238.7,-440.68"/>
</g>
<!-- _DirectoriesController_order_children_by_title_ -->
<g id="node11" class="node">
<title>_DirectoriesController_order_children_by_title_</title>
<polygon fill="lightblue" stroke="white" points="882.5,-36 583.5,-36 583.5,0 882.5,0 882.5,-36"/>
<text text-anchor="middle" x="733" y="-14.3" font-family="Arial" font-size="14.00">_DirectoriesController_order_children_by_title_</text>
</g>
<!-- _DirectoriesController_list_show_definition_&#45;&gt;_DirectoriesController_order_children_by_title_ -->
<g id="edge10" class="edge">
<title>_DirectoriesController_list_show_definition_&#45;&gt;_DirectoriesController_order_children_by_title_</title>
<path fill="none" stroke="black" d="M674.75,-791.83C571.35,-740.24 287.11,-578.86 362,-396 431.2,-227.03 616.72,-93.11 696.12,-41.72"/>
<polygon fill="black" stroke="black" points="698.28,-44.49 704.81,-36.15 694.5,-38.6 698.28,-44.49"/>
</g>
<!-- _DirectoriesController_order_children_by_title_inv_ -->
<g id="node12" class="node">
<title>_DirectoriesController_order_children_by_title_inv_</title>
<polygon fill="lightblue" stroke="white" points="1800.5,-432 1477.5,-432 1477.5,-396 1800.5,-396 1800.5,-432"/>
<text text-anchor="middle" x="1639" y="-410.3" font-family="Arial" font-size="14.00">_DirectoriesController_order_children_by_title_inv_</text>
</g>
<!-- _DirectoriesController_list_show_definition_&#45;&gt;_DirectoriesController_order_children_by_title_inv_ -->
<g id="edge11" class="edge">
<title>_DirectoriesController_list_show_definition_&#45;&gt;_DirectoriesController_order_children_by_title_inv_</title>
<path fill="none" stroke="black" d="M751.17,-791.94C900.74,-728.44 1425.15,-505.79 1589.41,-436.05"/>
<polygon fill="black" stroke="black" points="1590.96,-439.2 1598.8,-432.07 1588.22,-432.76 1590.96,-439.2"/>
</g>
<!-- _DirectoriesController_move_directories_ -->
<g id="node5" class="node">
<title>_DirectoriesController_move_directories_</title>
<polygon fill="lightblue" stroke="white" points="542,-1224 276,-1224 276,-1188 542,-1188 542,-1224"/>
<text text-anchor="middle" x="409" y="-1202.3" font-family="Arial" font-size="14.00">_DirectoriesController_move_directories_</text>
</g>
<!-- _DirectoriesController_move_directories_&#45;&gt;_DirectoriesController_fill_errors_hash_ -->
<g id="edge3" class="edge">
<title>_DirectoriesController_move_directories_&#45;&gt;_DirectoriesController_fill_errors_hash_</title>
<path fill="none" stroke="black" d="M396.7,-1187.82C352.08,-1125.48 198.57,-910.99 145.34,-836.63"/>
<polygon fill="black" stroke="black" points="148.03,-834.37 139.36,-828.27 142.34,-838.44 148.03,-834.37"/>
</g>
<!-- _DirectoriesController_move_directories_&#45;&gt;_DirectoriesController_list_show_definition_ -->
<g id="edge4" class="edge">
<title>_DirectoriesController_move_directories_&#45;&gt;_DirectoriesController_list_show_definition_</title>
<path fill="none" stroke="black" d="M422.17,-1187.82C469.95,-1125.48 634.36,-910.99 691.36,-836.63"/>
<polygon fill="black" stroke="black" points="694.45,-838.34 697.76,-828.27 688.9,-834.08 694.45,-838.34"/>
</g>
<!-- _DirectoriesController_modal_errors_ -->
<g id="node6" class="node">
<title>_DirectoriesController_modal_errors_</title>
<polygon fill="lightblue" stroke="white" points="532,-828 290,-828 290,-792 532,-792 532,-828"/>
<text text-anchor="middle" x="411" y="-806.3" font-family="Arial" font-size="14.00">_DirectoriesController_modal_errors_</text>
</g>
<!-- _DirectoriesController_move_directories_&#45;&gt;_DirectoriesController_modal_errors_ -->
<g id="edge5" class="edge">
<title>_DirectoriesController_move_directories_&#45;&gt;_DirectoriesController_modal_errors_</title>
<path fill="none" stroke="black" d="M409.09,-1187.82C409.4,-1125.98 410.47,-914.47 410.86,-838.47"/>
<polygon fill="black" stroke="black" points="414.36,-838.29 410.91,-828.27 407.36,-838.26 414.36,-838.29"/>
</g>
<!-- _DirectoriesController_order_children_by_type_&#45;&gt;_DirectoriesController_order_children_by_title_ -->
<g id="edge12" class="edge">
<title>_DirectoriesController_order_children_by_type_&#45;&gt;_DirectoriesController_order_children_by_title_</title>
<path fill="none" stroke="black" d="M540.77,-395.82C572.44,-333.73 681.1,-120.73 719.46,-45.54"/>
<polygon fill="black" stroke="black" points="722.76,-46.77 724.19,-36.27 716.53,-43.59 722.76,-46.77"/>
</g>
<!-- _DirectoriesController_order_children_by_created_at_&#45;&gt;_DirectoriesController_order_children_by_title_ -->
<g id="edge14" class="edge">
<title>_DirectoriesController_order_children_by_created_at_&#45;&gt;_DirectoriesController_order_children_by_title_</title>
<path fill="none" stroke="black" d="M883.15,-395.82C858.46,-333.86 773.88,-121.6 743.76,-46"/>
<polygon fill="black" stroke="black" points="746.84,-44.27 739.88,-36.27 740.33,-46.86 746.84,-44.27"/>
</g>
<!-- _ActorsController_reject_ -->
<g id="node13" class="node">
<title>_ActorsController_reject_</title>
<polygon fill="lightblue" stroke="white" points="1131.5,-36 962.5,-36 962.5,0 1131.5,0 1131.5,-36"/>
<text text-anchor="middle" x="1047" y="-14.3" font-family="Arial" font-size="14.00">_ActorsController_reject_</text>
</g>
<!-- _DirectoriesController_order_children_by_created_at_&#45;&gt;_ActorsController_reject_ -->
<g id="edge13" class="edge">
<title>_DirectoriesController_order_children_by_created_at_&#45;&gt;_ActorsController_reject_</title>
<path fill="none" stroke="black" d="M896.85,-395.82C921.54,-333.86 1006.12,-121.6 1036.24,-46"/>
<polygon fill="black" stroke="black" points="1039.67,-46.86 1040.12,-36.27 1033.16,-44.27 1039.67,-46.86"/>
</g>
<!-- _DirectoriesController_order_children_by_updated_at_&#45;&gt;_DirectoriesController_order_children_by_title_ -->
<g id="edge16" class="edge">
<title>_DirectoriesController_order_children_by_updated_at_&#45;&gt;_DirectoriesController_order_children_by_title_</title>
<path fill="none" stroke="black" d="M1245.62,-395.82C1159.86,-332.77 862.4,-114.12 764.5,-42.16"/>
<polygon fill="black" stroke="black" points="766.33,-39.15 756.2,-36.05 762.18,-44.79 766.33,-39.15"/>
</g>
<!-- _DirectoriesController_order_children_by_updated_at_&#45;&gt;_ActorsController_reject_ -->
<g id="edge15" class="edge">
<title>_DirectoriesController_order_children_by_updated_at_&#45;&gt;_ActorsController_reject_</title>
<path fill="none" stroke="black" d="M1259.32,-395.82C1224.26,-333.6 1103.83,-119.86 1061.7,-45.08"/>
<polygon fill="black" stroke="black" points="1064.69,-43.27 1056.73,-36.27 1058.59,-46.7 1064.69,-43.27"/>
</g>
</g>
</svg>
