<?xml version="1.0" encoding="UTF-8" standalone="no"?>
<!DOCTYPE svg PUBLIC "-//W3C//DTD SVG 1.1//EN"
 "http://www.w3.org/Graphics/SVG/1.1/DTD/svg11.dtd">
<!-- Generated by graphviz version 2.43.0 (0)
 -->
<!-- Title: CallGraph Pages: 1 -->
<svg width="824pt" height="440pt"
 viewBox="0.00 0.00 824.00 440.00" xmlns="http://www.w3.org/2000/svg" xmlns:xlink="http://www.w3.org/1999/xlink">
<g id="graph0" class="graph" transform="scale(1 1) rotate(0) translate(4 436)">
<title>CallGraph</title>
<polygon fill="white" stroke="transparent" points="-4,4 -4,-436 820,-436 820,4 -4,4"/>
<!-- _DirectoriesHelper_print_title_for_ -->
<g id="node1" class="node">
<title>_DirectoriesHelper_print_title_for_</title>
<polygon fill="lightblue" stroke="white" points="237.5,-432 16.5,-432 16.5,-396 237.5,-396 237.5,-432"/>
<text text-anchor="middle" x="127" y="-410.3" font-family="Arial" font-size="14.00">_DirectoriesHelper_print_title_for_</text>
</g>
<!-- _DirectoriesHelper_truncate_print_title_ -->
<g id="node2" class="node">
<title>_DirectoriesHelper_truncate_print_title_</title>
<polygon fill="lightblue" stroke="white" points="254,-36 0,-36 0,0 254,0 254,-36"/>
<text text-anchor="middle" x="127" y="-14.3" font-family="Arial" font-size="14.00">_DirectoriesHelper_truncate_print_title_</text>
</g>
<!-- _DirectoriesHelper_print_title_for_&#45;&gt;_DirectoriesHelper_truncate_print_title_ -->
<g id="edge1" class="edge">
<title>_DirectoriesHelper_print_title_for_&#45;&gt;_DirectoriesHelper_truncate_print_title_</title>
<path fill="none" stroke="black" d="M127,-395.82C127,-333.98 127,-122.47 127,-46.47"/>
<polygon fill="black" stroke="black" points="130.5,-46.27 127,-36.27 123.5,-46.27 130.5,-46.27"/>
</g>
<!-- _DirectoriesHelper_set_directory_ -->
<g id="node3" class="node">
<title>_DirectoriesHelper_set_directory_</title>
<polygon fill="lightblue" stroke="white" points="801.5,-432 580.5,-432 580.5,-396 801.5,-396 801.5,-432"/>
<text text-anchor="middle" x="691" y="-410.3" font-family="Arial" font-size="14.00">_DirectoriesHelper_set_directory_</text>
</g>
<!-- _DirectoriesHelper_render_for_html_ -->
<g id="node4" class="node">
<title>_DirectoriesHelper_render_for_html_</title>
<polygon fill="lightblue" stroke="white" points="529.5,-36 290.5,-36 290.5,0 529.5,0 529.5,-36"/>
<text text-anchor="middle" x="410" y="-14.3" font-family="Arial" font-size="14.00">_DirectoriesHelper_render_for_html_</text>
</g>
<!-- _DirectoriesHelper_set_directory_&#45;&gt;_DirectoriesHelper_render_for_html_ -->
<g id="edge2" class="edge">
<title>_DirectoriesHelper_set_directory_&#45;&gt;_DirectoriesHelper_render_for_html_</title>
<path fill="none" stroke="black" d="M678.75,-395.82C634.28,-333.48 481.31,-118.99 428.28,-44.63"/>
<polygon fill="black" stroke="black" points="430.98,-42.38 422.32,-36.27 425.28,-46.45 430.98,-42.38"/>
</g>
<!-- _DirectoriesHelper_directory_children_ -->
<g id="node5" class="node">
<title>_DirectoriesHelper_directory_children_</title>
<polygon fill="lightblue" stroke="white" points="816,-36 566,-36 566,0 816,0 816,-36"/>
<text text-anchor="middle" x="691" y="-14.3" font-family="Arial" font-size="14.00">_DirectoriesHelper_directory_children_</text>
</g>
<!-- _DirectoriesHelper_set_directory_&#45;&gt;_DirectoriesHelper_directory_children_ -->
<g id="edge3" class="edge">
<title>_DirectoriesHelper_set_directory_&#45;&gt;_DirectoriesHelper_directory_children_</title>
<path fill="none" stroke="black" d="M685.05,-395.82C675.46,-333.98 675,-122.47 683.69,-46.47"/>
<polygon fill="black" stroke="black" points="687.2,-46.65 685.04,-36.27 680.26,-45.73 687.2,-46.65"/>
</g>
<!-- _DirectoriesHelper_directory_children_&#45;&gt;_DirectoriesHelper_set_directory_ -->
<g id="edge4" class="edge">
<title>_DirectoriesHelper_directory_children_&#45;&gt;_DirectoriesHelper_set_directory_</title>
<path fill="none" stroke="black" d="M696.96,-36.27C706.55,-98.25 706.99,-309.78 698.3,-385.64"/>
<polygon fill="black" stroke="black" points="694.79,-385.44 696.95,-395.82 701.73,-386.36 694.79,-385.44"/>
</g>
</g>
</svg>
