<?xml version="1.0" encoding="UTF-8" standalone="no"?>
<!DOCTYPE svg PUBLIC "-//W3C//DTD SVG 1.1//EN"
 "http://www.w3.org/Graphics/SVG/1.1/DTD/svg11.dtd">
<!-- Generated by graphviz version 2.43.0 (0)
 -->
<!-- Title: CallGraph Pages: 1 -->
<svg width="2792pt" height="440pt"
 viewBox="0.00 0.00 2792.00 440.00" xmlns="http://www.w3.org/2000/svg" xmlns:xlink="http://www.w3.org/1999/xlink">
<g id="graph0" class="graph" transform="scale(1 1) rotate(0) translate(4 436)">
<title>CallGraph</title>
<polygon fill="white" stroke="transparent" points="-4,4 -4,-436 2788,-436 2788,4 -4,4"/>
<!-- _DocumentsController_create_ -->
<g id="node1" class="node">
<title>_DocumentsController_create_</title>
<polygon fill="lightblue" stroke="white" points="228,-432 24,-432 24,-396 228,-396 228,-432"/>
<text text-anchor="middle" x="126" y="-410.3" font-family="Arial" font-size="14.00">_DocumentsController_create_</text>
</g>
<!-- _DocumentsController_document_params_ -->
<g id="node2" class="node">
<title>_DocumentsController_document_params_</title>
<polygon fill="lightblue" stroke="white" points="508,-36 228,-36 228,0 508,0 508,-36"/>
<text text-anchor="middle" x="368" y="-14.3" font-family="Arial" font-size="14.00">_DocumentsController_document_params_</text>
</g>
<!-- _DocumentsController_create_&#45;&gt;_DocumentsController_document_params_ -->
<g id="edge1" class="edge">
<title>_DocumentsController_create_&#45;&gt;_DocumentsController_document_params_</title>
<path fill="none" stroke="black" d="M136.55,-395.82C174.77,-333.6 306.05,-119.86 351.98,-45.08"/>
<polygon fill="black" stroke="black" points="355.14,-46.63 357.39,-36.27 349.17,-42.96 355.14,-46.63"/>
</g>
<!-- _SearchController_directory_ -->
<g id="node3" class="node">
<title>_SearchController_directory_</title>
<polygon fill="lightblue" stroke="white" points="192,-36 0,-36 0,0 192,0 192,-36"/>
<text text-anchor="middle" x="96" y="-14.3" font-family="Arial" font-size="14.00">_SearchController_directory_</text>
</g>
<!-- _DocumentsController_create_&#45;&gt;_SearchController_directory_ -->
<g id="edge2" class="edge">
<title>_DocumentsController_create_&#45;&gt;_SearchController_directory_</title>
<path fill="none" stroke="black" d="M124.69,-395.82C119.98,-333.98 103.88,-122.47 98.09,-46.47"/>
<polygon fill="black" stroke="black" points="101.56,-45.98 97.32,-36.27 94.58,-46.51 101.56,-45.98"/>
</g>
<!-- _DocumentsController_fill_errors_hash_ -->
<g id="node4" class="node">
<title>_DocumentsController_fill_errors_hash_</title>
<polygon fill="lightblue" stroke="white" points="803.5,-36 544.5,-36 544.5,0 803.5,0 803.5,-36"/>
<text text-anchor="middle" x="674" y="-14.3" font-family="Arial" font-size="14.00">_DocumentsController_fill_errors_hash_</text>
</g>
<!-- _DocumentsController_create_&#45;&gt;_DocumentsController_fill_errors_hash_ -->
<g id="edge3" class="edge">
<title>_DocumentsController_create_&#45;&gt;_DocumentsController_fill_errors_hash_</title>
<path fill="none" stroke="black" d="M149.9,-395.82C237.67,-332.71 542.32,-113.68 642.09,-41.94"/>
<polygon fill="black" stroke="black" points="644.21,-44.73 650.28,-36.05 640.12,-39.05 644.21,-44.73"/>
</g>
<!-- _DocumentsController_update_ -->
<g id="node5" class="node">
<title>_DocumentsController_update_</title>
<polygon fill="lightblue" stroke="white" points="472,-432 264,-432 264,-396 472,-396 472,-432"/>
<text text-anchor="middle" x="368" y="-410.3" font-family="Arial" font-size="14.00">_DocumentsController_update_</text>
</g>
<!-- _DocumentsController_update_&#45;&gt;_DocumentsController_document_params_ -->
<g id="edge4" class="edge">
<title>_DocumentsController_update_&#45;&gt;_DocumentsController_document_params_</title>
<path fill="none" stroke="black" d="M368,-395.82C368,-333.98 368,-122.47 368,-46.47"/>
<polygon fill="black" stroke="black" points="371.5,-46.27 368,-36.27 364.5,-46.27 371.5,-46.27"/>
</g>
<!-- _DocumentsController_update_tags_ -->
<g id="node6" class="node">
<title>_DocumentsController_update_tags_</title>
<polygon fill="lightblue" stroke="white" points="1363.5,-432 1122.5,-432 1122.5,-396 1363.5,-396 1363.5,-432"/>
<text text-anchor="middle" x="1243" y="-410.3" font-family="Arial" font-size="14.00">_DocumentsController_update_tags_</text>
</g>
<!-- _ExternalUsersService_parse_ -->
<g id="node7" class="node">
<title>_ExternalUsersService_parse_</title>
<polygon fill="lightblue" stroke="white" points="1121.5,-36 918.5,-36 918.5,0 1121.5,0 1121.5,-36"/>
<text text-anchor="middle" x="1020" y="-14.3" font-family="Arial" font-size="14.00">_ExternalUsersService_parse_</text>
</g>
<!-- _DocumentsController_update_tags_&#45;&gt;_ExternalUsersService_parse_ -->
<g id="edge5" class="edge">
<title>_DocumentsController_update_tags_&#45;&gt;_ExternalUsersService_parse_</title>
<path fill="none" stroke="black" d="M1233.27,-395.82C1198.06,-333.6 1077.09,-119.86 1034.76,-45.08"/>
<polygon fill="black" stroke="black" points="1037.75,-43.25 1029.78,-36.27 1031.66,-46.7 1037.75,-43.25"/>
</g>
<!-- _SsoUsersService_parse_ -->
<g id="node8" class="node">
<title>_SsoUsersService_parse_</title>
<polygon fill="lightblue" stroke="white" points="1334,-36 1158,-36 1158,0 1334,0 1334,-36"/>
<text text-anchor="middle" x="1246" y="-14.3" font-family="Arial" font-size="14.00">_SsoUsersService_parse_</text>
</g>
<!-- _DocumentsController_update_tags_&#45;&gt;_SsoUsersService_parse_ -->
<g id="edge6" class="edge">
<title>_DocumentsController_update_tags_&#45;&gt;_SsoUsersService_parse_</title>
<path fill="none" stroke="black" d="M1243.13,-395.82C1243.6,-333.98 1245.21,-122.47 1245.79,-46.47"/>
<polygon fill="black" stroke="black" points="1249.29,-46.3 1245.87,-36.27 1242.29,-46.25 1249.29,-46.3"/>
</g>
<!-- _DocumentsController_update_actual_url_ -->
<g id="node9" class="node">
<title>_DocumentsController_update_actual_url_</title>
<polygon fill="lightblue" stroke="white" points="782,-432 508,-432 508,-396 782,-396 782,-432"/>
<text text-anchor="middle" x="645" y="-410.3" font-family="Arial" font-size="14.00">_DocumentsController_update_actual_url_</text>
</g>
<!-- _DocumentsController_update_actual_url_&#45;&gt;_DocumentsController_document_params_ -->
<g id="edge7" class="edge">
<title>_DocumentsController_update_actual_url_&#45;&gt;_DocumentsController_document_params_</title>
<path fill="none" stroke="black" d="M632.92,-395.82C589.09,-333.48 438.3,-118.99 386.02,-44.63"/>
<polygon fill="black" stroke="black" points="388.76,-42.44 380.14,-36.27 383.03,-46.47 388.76,-42.44"/>
</g>
<!-- _DocumentsController_update_actual_url_&#45;&gt;_DocumentsController_fill_errors_hash_ -->
<g id="edge8" class="edge">
<title>_DocumentsController_update_actual_url_&#45;&gt;_DocumentsController_fill_errors_hash_</title>
<path fill="none" stroke="black" d="M646.26,-395.82C650.82,-333.98 666.38,-122.47 671.98,-46.47"/>
<polygon fill="black" stroke="black" points="675.49,-46.5 672.73,-36.27 668.5,-45.99 675.49,-46.5"/>
</g>
<!-- _DocumentsController_move_document_ -->
<g id="node10" class="node">
<title>_DocumentsController_move_document_</title>
<polygon fill="lightblue" stroke="white" points="1086,-432 818,-432 818,-396 1086,-396 1086,-432"/>
<text text-anchor="middle" x="952" y="-410.3" font-family="Arial" font-size="14.00">_DocumentsController_move_document_</text>
</g>
<!-- _DocumentsController_move_document_&#45;&gt;_DocumentsController_fill_errors_hash_ -->
<g id="edge9" class="edge">
<title>_DocumentsController_move_document_&#45;&gt;_DocumentsController_fill_errors_hash_</title>
<path fill="none" stroke="black" d="M939.88,-395.82C895.89,-333.48 744.55,-118.99 692.08,-44.63"/>
<polygon fill="black" stroke="black" points="694.81,-42.43 686.19,-36.27 689.09,-46.46 694.81,-42.43"/>
</g>
<!-- _DocumentsController_start_wf_ -->
<g id="node11" class="node">
<title>_DocumentsController_start_wf_</title>
<polygon fill="lightblue" stroke="white" points="1614,-432 1400,-432 1400,-396 1614,-396 1614,-432"/>
<text text-anchor="middle" x="1507" y="-410.3" font-family="Arial" font-size="14.00">_DocumentsController_start_wf_</text>
</g>
<!-- _DocumentsController_author_ -->
<g id="node12" class="node">
<title>_DocumentsController_author_</title>
<polygon fill="lightblue" stroke="white" points="1577.5,-36 1372.5,-36 1372.5,0 1577.5,0 1577.5,-36"/>
<text text-anchor="middle" x="1475" y="-14.3" font-family="Arial" font-size="14.00">_DocumentsController_author_</text>
</g>
<!-- _DocumentsController_start_wf_&#45;&gt;_DocumentsController_author_ -->
<g id="edge10" class="edge">
<title>_DocumentsController_start_wf_&#45;&gt;_DocumentsController_author_</title>
<path fill="none" stroke="black" d="M1505.6,-395.82C1500.58,-333.98 1483.4,-122.47 1477.23,-46.47"/>
<polygon fill="black" stroke="black" points="1480.7,-45.96 1476.4,-36.27 1473.72,-46.52 1480.7,-45.96"/>
</g>
<!-- _GraphsController_author_ -->
<g id="node13" class="node">
<title>_GraphsController_author_</title>
<polygon fill="lightblue" stroke="white" points="1794.5,-36 1613.5,-36 1613.5,0 1794.5,0 1794.5,-36"/>
<text text-anchor="middle" x="1704" y="-14.3" font-family="Arial" font-size="14.00">_GraphsController_author_</text>
</g>
<!-- _DocumentsController_start_wf_&#45;&gt;_GraphsController_author_ -->
<g id="edge11" class="edge">
<title>_DocumentsController_start_wf_&#45;&gt;_GraphsController_author_</title>
<path fill="none" stroke="black" d="M1515.59,-395.82C1546.63,-333.73 1653.13,-120.73 1690.73,-45.54"/>
<polygon fill="black" stroke="black" points="1694.02,-46.78 1695.36,-36.27 1687.76,-43.65 1694.02,-46.78"/>
</g>
<!-- _DocumentsController_wf_entity_state_to_partial_ -->
<g id="node14" class="node">
<title>_DocumentsController_wf_entity_state_to_partial_</title>
<polygon fill="lightblue" stroke="white" points="2156,-36 1836,-36 1836,0 2156,0 2156,-36"/>
<text text-anchor="middle" x="1996" y="-14.3" font-family="Arial" font-size="14.00">_DocumentsController_wf_entity_state_to_partial_</text>
</g>
<!-- _DocumentsController_start_wf_&#45;&gt;_DocumentsController_wf_entity_state_to_partial_ -->
<g id="edge12" class="edge">
<title>_DocumentsController_start_wf_&#45;&gt;_DocumentsController_wf_entity_state_to_partial_</title>
<path fill="none" stroke="black" d="M1528.33,-395.82C1606.49,-332.84 1877.4,-114.56 1966.99,-42.38"/>
<polygon fill="black" stroke="black" points="1969.25,-45.05 1974.84,-36.05 1964.85,-39.6 1969.25,-45.05"/>
</g>
<!-- _DocumentsController_unlock_ -->
<g id="node15" class="node">
<title>_DocumentsController_unlock_</title>
<polygon fill="lightblue" stroke="white" points="1856,-432 1650,-432 1650,-396 1856,-396 1856,-432"/>
<text text-anchor="middle" x="1753" y="-410.3" font-family="Arial" font-size="14.00">_DocumentsController_unlock_</text>
</g>
<!-- _DocumentsController_unlock_&#45;&gt;_DocumentsController_wf_entity_state_to_partial_ -->
<g id="edge13" class="edge">
<title>_DocumentsController_unlock_&#45;&gt;_DocumentsController_wf_entity_state_to_partial_</title>
<path fill="none" stroke="black" d="M1763.6,-395.82C1801.97,-333.6 1933.79,-119.86 1979.91,-45.08"/>
<polygon fill="black" stroke="black" points="1983.08,-46.62 1985.35,-36.27 1977.12,-42.95 1983.08,-46.62"/>
</g>
<!-- _DocumentsController_deactivate_ -->
<g id="node16" class="node">
<title>_DocumentsController_deactivate_</title>
<polygon fill="lightblue" stroke="white" points="2120,-432 1892,-432 1892,-396 2120,-396 2120,-432"/>
<text text-anchor="middle" x="2006" y="-410.3" font-family="Arial" font-size="14.00">_DocumentsController_deactivate_</text>
</g>
<!-- _DocumentsController_deactivate_&#45;&gt;_DocumentsController_wf_entity_state_to_partial_ -->
<g id="edge14" class="edge">
<title>_DocumentsController_deactivate_&#45;&gt;_DocumentsController_wf_entity_state_to_partial_</title>
<path fill="none" stroke="black" d="M2005.56,-395.82C2003.99,-333.98 1998.63,-122.47 1996.7,-46.47"/>
<polygon fill="black" stroke="black" points="2000.19,-46.18 1996.44,-36.27 1993.19,-46.36 2000.19,-46.18"/>
</g>
<!-- _DocumentsController_activate_ -->
<g id="node17" class="node">
<title>_DocumentsController_activate_</title>
<polygon fill="lightblue" stroke="white" points="2369.5,-432 2156.5,-432 2156.5,-396 2369.5,-396 2369.5,-432"/>
<text text-anchor="middle" x="2263" y="-410.3" font-family="Arial" font-size="14.00">_DocumentsController_activate_</text>
</g>
<!-- _DocumentsController_activate_&#45;&gt;_DocumentsController_wf_entity_state_to_partial_ -->
<g id="edge15" class="edge">
<title>_DocumentsController_activate_&#45;&gt;_DocumentsController_wf_entity_state_to_partial_</title>
<path fill="none" stroke="black" d="M2251.36,-395.82C2209.11,-333.48 2063.76,-118.99 2013.37,-44.63"/>
<polygon fill="black" stroke="black" points="2016.21,-42.59 2007.71,-36.27 2010.42,-46.52 2016.21,-42.59"/>
</g>
<!-- _DocumentsController_require_document_in_accept_state_ -->
<g id="node18" class="node">
<title>_DocumentsController_require_document_in_accept_state_</title>
<polygon fill="lightblue" stroke="white" points="2784,-432 2406,-432 2406,-396 2784,-396 2784,-432"/>
<text text-anchor="middle" x="2595" y="-410.3" font-family="Arial" font-size="14.00">_DocumentsController_require_document_in_accept_state_</text>
</g>
<!-- _DocumentsController_document_unlockable_ -->
<g id="node19" class="node">
<title>_DocumentsController_document_unlockable_</title>
<polygon fill="lightblue" stroke="white" points="2744.5,-36 2445.5,-36 2445.5,0 2744.5,0 2744.5,-36"/>
<text text-anchor="middle" x="2595" y="-14.3" font-family="Arial" font-size="14.00">_DocumentsController_document_unlockable_</text>
</g>
<!-- _DocumentsController_require_document_in_accept_state_&#45;&gt;_DocumentsController_document_unlockable_ -->
<g id="edge16" class="edge">
<title>_DocumentsController_require_document_in_accept_state_&#45;&gt;_DocumentsController_document_unlockable_</title>
<path fill="none" stroke="black" d="M2595,-395.82C2595,-333.98 2595,-122.47 2595,-46.47"/>
<polygon fill="black" stroke="black" points="2598.5,-46.27 2595,-36.27 2591.5,-46.27 2598.5,-46.27"/>
</g>
</g>
</svg>
