<?xml version="1.0" encoding="UTF-8" standalone="no"?>
<!DOCTYPE svg PUBLIC "-//W3C//DTD SVG 1.1//EN"
 "http://www.w3.org/Graphics/SVG/1.1/DTD/svg11.dtd">
<!-- Generated by graphviz version 2.43.0 (0)
 -->
<!-- Title: CallGraph Pages: 1 -->
<svg width="1043pt" height="440pt"
 viewBox="0.00 0.00 1042.50 440.00" xmlns="http://www.w3.org/2000/svg" xmlns:xlink="http://www.w3.org/1999/xlink">
<g id="graph0" class="graph" transform="scale(1 1) rotate(0) translate(4 436)">
<title>CallGraph</title>
<polygon fill="white" stroke="transparent" points="-4,4 -4,-436 1038.5,-436 1038.5,4 -4,4"/>
<!-- _EventsController_create_ -->
<g id="node1" class="node">
<title>_EventsController_create_</title>
<polygon fill="lightblue" stroke="white" points="176,-432 0,-432 0,-396 176,-396 176,-432"/>
<text text-anchor="middle" x="88" y="-410.3" font-family="Arial" font-size="14.00">_EventsController_create_</text>
</g>
<!-- _EventsController_event_params_ -->
<g id="node2" class="node">
<title>_EventsController_event_params_</title>
<polygon fill="lightblue" stroke="white" points="296.5,-36 71.5,-36 71.5,0 296.5,0 296.5,-36"/>
<text text-anchor="middle" x="184" y="-14.3" font-family="Arial" font-size="14.00">_EventsController_event_params_</text>
</g>
<!-- _EventsController_create_&#45;&gt;_EventsController_event_params_ -->
<g id="edge1" class="edge">
<title>_EventsController_create_&#45;&gt;_EventsController_event_params_</title>
<path fill="none" stroke="black" d="M92.19,-395.82C107.28,-333.86 159,-121.6 177.42,-46"/>
<polygon fill="black" stroke="black" points="180.82,-46.82 179.79,-36.27 174.02,-45.16 180.82,-46.82"/>
</g>
<!-- _EventsController_update_ -->
<g id="node3" class="node">
<title>_EventsController_update_</title>
<polygon fill="lightblue" stroke="white" points="392,-432 212,-432 212,-396 392,-396 392,-432"/>
<text text-anchor="middle" x="302" y="-410.3" font-family="Arial" font-size="14.00">_EventsController_update_</text>
</g>
<!-- _EventsController_update_&#45;&gt;_EventsController_event_params_ -->
<g id="edge2" class="edge">
<title>_EventsController_update_&#45;&gt;_EventsController_event_params_</title>
<path fill="none" stroke="black" d="M296.85,-395.82C278.3,-333.86 214.73,-121.6 192.09,-46"/>
<polygon fill="black" stroke="black" points="195.4,-44.85 189.17,-36.27 188.69,-46.86 195.4,-44.85"/>
</g>
<!-- _EventsController_update_responsibilities_ -->
<g id="node4" class="node">
<title>_EventsController_update_responsibilities_</title>
<polygon fill="lightblue" stroke="white" points="725,-432 449,-432 449,-396 725,-396 725,-432"/>
<text text-anchor="middle" x="587" y="-410.3" font-family="Arial" font-size="14.00">_EventsController_update_responsibilities_</text>
</g>
<!-- _EventsController_notify_update_responsibilities_ -->
<g id="node5" class="node">
<title>_EventsController_notify_update_responsibilities_</title>
<polygon fill="lightblue" stroke="white" points="745,-36 429,-36 429,0 745,0 745,-36"/>
<text text-anchor="middle" x="587" y="-14.3" font-family="Arial" font-size="14.00">_EventsController_notify_update_responsibilities_</text>
</g>
<!-- _EventsController_update_responsibilities_&#45;&gt;_EventsController_notify_update_responsibilities_ -->
<g id="edge3" class="edge">
<title>_EventsController_update_responsibilities_&#45;&gt;_EventsController_notify_update_responsibilities_</title>
<path fill="none" stroke="black" d="M587,-395.82C587,-333.98 587,-122.47 587,-46.47"/>
<polygon fill="black" stroke="black" points="590.5,-46.27 587,-36.27 583.5,-46.27 590.5,-46.27"/>
</g>
<!-- _EventsController_update_workflow_ -->
<g id="node6" class="node">
<title>_EventsController_update_workflow_</title>
<polygon fill="lightblue" stroke="white" points="1028,-432 788,-432 788,-396 1028,-396 1028,-432"/>
<text text-anchor="middle" x="908" y="-410.3" font-family="Arial" font-size="14.00">_EventsController_update_workflow_</text>
</g>
<!-- _EventsController_validator_response_ -->
<g id="node7" class="node">
<title>_EventsController_validator_response_</title>
<polygon fill="lightblue" stroke="white" points="1034.5,-36 781.5,-36 781.5,0 1034.5,0 1034.5,-36"/>
<text text-anchor="middle" x="908" y="-14.3" font-family="Arial" font-size="14.00">_EventsController_validator_response_</text>
</g>
<!-- _EventsController_update_workflow_&#45;&gt;_EventsController_validator_response_ -->
<g id="edge4" class="edge">
<title>_EventsController_update_workflow_&#45;&gt;_EventsController_validator_response_</title>
<path fill="none" stroke="black" d="M908,-395.82C908,-333.98 908,-122.47 908,-46.47"/>
<polygon fill="black" stroke="black" points="911.5,-46.27 908,-36.27 904.5,-46.27 911.5,-46.27"/>
</g>
</g>
</svg>
