<?xml version="1.0" encoding="UTF-8" standalone="no"?>
<!DOCTYPE svg PUBLIC "-//W3C//DTD SVG 1.1//EN"
 "http://www.w3.org/Graphics/SVG/1.1/DTD/svg11.dtd">
<!-- Generated by graphviz version 2.43.0 (0)
 -->
<!-- Title: CallGraph Pages: 1 -->
<svg width="3094pt" height="836pt"
 viewBox="0.00 0.00 3094.00 836.00" xmlns="http://www.w3.org/2000/svg" xmlns:xlink="http://www.w3.org/1999/xlink">
<g id="graph0" class="graph" transform="scale(1 1) rotate(0) translate(4 832)">
<title>CallGraph</title>
<polygon fill="white" stroke="transparent" points="-4,4 -4,-832 3090,-832 3090,4 -4,4"/>
<!-- _EventNotifications_event_create_notice_ -->
<g id="node1" class="node">
<title>_EventNotifications_event_create_notice_</title>
<polygon fill="lightblue" stroke="white" points="269,-828 0,-828 0,-792 269,-792 269,-828"/>
<text text-anchor="middle" x="134.5" y="-806.3" font-family="Arial" font-size="14.00">_EventNotifications_event_create_notice_</text>
</g>
<!-- _EventNotifications_notify_by_role_ -->
<g id="node2" class="node">
<title>_EventNotifications_notify_by_role_</title>
<polygon fill="lightblue" stroke="white" points="566,-432 335,-432 335,-396 566,-396 566,-432"/>
<text text-anchor="middle" x="450.5" y="-410.3" font-family="Arial" font-size="14.00">_EventNotifications_notify_by_role_</text>
</g>
<!-- _EventNotifications_event_create_notice_&#45;&gt;_EventNotifications_notify_by_role_ -->
<g id="edge1" class="edge">
<title>_EventNotifications_event_create_notice_&#45;&gt;_EventNotifications_notify_by_role_</title>
<path fill="none" stroke="black" d="M148.28,-791.82C198.38,-729.35 371.01,-514.12 430.31,-440.18"/>
<polygon fill="black" stroke="black" points="433.12,-442.26 436.65,-432.27 427.66,-437.88 433.12,-442.26"/>
</g>
<!-- _EventNotifications_event_close_event_ -->
<g id="node3" class="node">
<title>_EventNotifications_event_close_event_</title>
<polygon fill="lightblue" stroke="white" points="1185.5,-828 925.5,-828 925.5,-792 1185.5,-792 1185.5,-828"/>
<text text-anchor="middle" x="1055.5" y="-806.3" font-family="Arial" font-size="14.00">_EventNotifications_event_close_event_</text>
</g>
<!-- _EventNotifications_notifs_audits_autoclose_ -->
<g id="node4" class="node">
<title>_EventNotifications_notifs_audits_autoclose_</title>
<polygon fill="lightblue" stroke="white" points="1268.5,-432 980.5,-432 980.5,-396 1268.5,-396 1268.5,-432"/>
<text text-anchor="middle" x="1124.5" y="-410.3" font-family="Arial" font-size="14.00">_EventNotifications_notifs_audits_autoclose_</text>
</g>
<!-- _EventNotifications_event_close_event_&#45;&gt;_EventNotifications_notifs_audits_autoclose_ -->
<g id="edge2" class="edge">
<title>_EventNotifications_event_close_event_&#45;&gt;_EventNotifications_notifs_audits_autoclose_</title>
<path fill="none" stroke="black" d="M1058.51,-791.82C1069.34,-729.98 1106.38,-518.47 1119.69,-442.47"/>
<polygon fill="black" stroke="black" points="1123.2,-442.73 1121.47,-432.27 1116.3,-441.52 1123.2,-442.73"/>
</g>
<!-- _EventNotifications_event_force_close_ -->
<g id="node5" class="node">
<title>_EventNotifications_event_force_close_</title>
<polygon fill="lightblue" stroke="white" points="889,-828 632,-828 632,-792 889,-792 889,-828"/>
<text text-anchor="middle" x="760.5" y="-806.3" font-family="Arial" font-size="14.00">_EventNotifications_event_force_close_</text>
</g>
<!-- _EventNotifications_event_force_close_&#45;&gt;_EventNotifications_notify_by_role_ -->
<g id="edge4" class="edge">
<title>_EventNotifications_event_force_close_&#45;&gt;_EventNotifications_notify_by_role_</title>
<path fill="none" stroke="black" d="M746.98,-791.82C697.83,-729.35 528.49,-514.12 470.31,-440.18"/>
<polygon fill="black" stroke="black" points="473.03,-437.97 464.09,-432.27 467.52,-442.3 473.03,-437.97"/>
</g>
<!-- _EventNotifications_event_force_close_&#45;&gt;_EventNotifications_notifs_audits_autoclose_ -->
<g id="edge3" class="edge">
<title>_EventNotifications_event_force_close_&#45;&gt;_EventNotifications_notifs_audits_autoclose_</title>
<path fill="none" stroke="black" d="M776.37,-791.82C834.2,-729.22 1033.74,-513.24 1101.66,-439.73"/>
<polygon fill="black" stroke="black" points="1104.33,-441.99 1108.54,-432.27 1099.18,-437.24 1104.33,-441.99"/>
</g>
<!-- _EventNotifications_event_approve_force_close_ -->
<g id="node6" class="node">
<title>_EventNotifications_event_approve_force_close_</title>
<polygon fill="lightblue" stroke="white" points="1535,-828 1222,-828 1222,-792 1535,-792 1535,-828"/>
<text text-anchor="middle" x="1378.5" y="-806.3" font-family="Arial" font-size="14.00">_EventNotifications_event_approve_force_close_</text>
</g>
<!-- _EventNotifications_event_approve_force_close_&#45;&gt;_EventNotifications_notifs_audits_autoclose_ -->
<g id="edge6" class="edge">
<title>_EventNotifications_event_approve_force_close_&#45;&gt;_EventNotifications_notifs_audits_autoclose_</title>
<path fill="none" stroke="black" d="M1367.42,-791.82C1327.32,-729.6 1189.52,-515.86 1141.31,-441.08"/>
<polygon fill="black" stroke="black" points="1144,-438.78 1135.64,-432.27 1138.11,-442.57 1144,-438.78"/>
</g>
<!-- _EventNotifications_log_validator_operation_ -->
<g id="node7" class="node">
<title>_EventNotifications_log_validator_operation_</title>
<polygon fill="lightblue" stroke="white" points="2031,-36 1744,-36 1744,0 2031,0 2031,-36"/>
<text text-anchor="middle" x="1887.5" y="-14.3" font-family="Arial" font-size="14.00">_EventNotifications_log_validator_operation_</text>
</g>
<!-- _EventNotifications_event_approve_force_close_&#45;&gt;_EventNotifications_log_validator_operation_ -->
<g id="edge5" class="edge">
<title>_EventNotifications_event_approve_force_close_&#45;&gt;_EventNotifications_log_validator_operation_</title>
<path fill="none" stroke="black" d="M1403.33,-791.74C1471.27,-743.22 1661.88,-598.25 1762.5,-432 1841.84,-300.9 1874.2,-115.62 1884,-46.45"/>
<polygon fill="black" stroke="black" points="1887.49,-46.75 1885.38,-36.37 1880.55,-45.8 1887.49,-46.75"/>
</g>
<!-- _EventNotifications_event_refuse_force_close_ -->
<g id="node8" class="node">
<title>_EventNotifications_event_refuse_force_close_</title>
<polygon fill="lightblue" stroke="white" points="1744.5,-432 1442.5,-432 1442.5,-396 1744.5,-396 1744.5,-432"/>
<text text-anchor="middle" x="1593.5" y="-410.3" font-family="Arial" font-size="14.00">_EventNotifications_event_refuse_force_close_</text>
</g>
<!-- _EventNotifications_event_refuse_force_close_&#45;&gt;_EventNotifications_log_validator_operation_ -->
<g id="edge7" class="edge">
<title>_EventNotifications_event_refuse_force_close_&#45;&gt;_EventNotifications_log_validator_operation_</title>
<path fill="none" stroke="black" d="M1606.32,-395.82C1652.84,-333.48 1812.89,-118.99 1868.38,-44.63"/>
<polygon fill="black" stroke="black" points="1871.44,-46.38 1874.61,-36.27 1865.83,-42.19 1871.44,-46.38"/>
</g>
<!-- _EventNotifications_event_start_processing_ -->
<g id="node9" class="node">
<title>_EventNotifications_event_start_processing_</title>
<polygon fill="lightblue" stroke="white" points="2769,-432 2482,-432 2482,-396 2769,-396 2769,-432"/>
<text text-anchor="middle" x="2625.5" y="-410.3" font-family="Arial" font-size="14.00">_EventNotifications_event_start_processing_</text>
</g>
<!-- _EventNotifications_notify_event_actors_ -->
<g id="node10" class="node">
<title>_EventNotifications_notify_event_actors_</title>
<polygon fill="lightblue" stroke="white" points="2757.5,-36 2493.5,-36 2493.5,0 2757.5,0 2757.5,-36"/>
<text text-anchor="middle" x="2625.5" y="-14.3" font-family="Arial" font-size="14.00">_EventNotifications_notify_event_actors_</text>
</g>
<!-- _EventNotifications_event_start_processing_&#45;&gt;_EventNotifications_notify_event_actors_ -->
<g id="edge8" class="edge">
<title>_EventNotifications_event_start_processing_&#45;&gt;_EventNotifications_notify_event_actors_</title>
<path fill="none" stroke="black" d="M2625.5,-395.82C2625.5,-333.98 2625.5,-122.47 2625.5,-46.47"/>
<polygon fill="black" stroke="black" points="2629,-46.27 2625.5,-36.27 2622,-46.27 2629,-46.27"/>
</g>
<!-- _EventNotifications_event_admin_approve_ -->
<g id="node11" class="node">
<title>_EventNotifications_event_admin_approve_</title>
<polygon fill="lightblue" stroke="white" points="3086,-432 2805,-432 2805,-396 3086,-396 3086,-432"/>
<text text-anchor="middle" x="2945.5" y="-410.3" font-family="Arial" font-size="14.00">_EventNotifications_event_admin_approve_</text>
</g>
<!-- _EventNotifications_event_admin_approve_&#45;&gt;_EventNotifications_notify_event_actors_ -->
<g id="edge9" class="edge">
<title>_EventNotifications_event_admin_approve_&#45;&gt;_EventNotifications_notify_event_actors_</title>
<path fill="none" stroke="black" d="M2931.54,-395.82C2880.81,-333.35 2706,-118.12 2645.95,-44.18"/>
<polygon fill="black" stroke="black" points="2648.55,-41.83 2639.53,-36.27 2643.12,-46.24 2648.55,-41.83"/>
</g>
<!-- _EventNotifications_event_back_to_analysis_ -->
<g id="node12" class="node">
<title>_EventNotifications_event_back_to_analysis_</title>
<polygon fill="lightblue" stroke="white" points="596,-828 305,-828 305,-792 596,-792 596,-828"/>
<text text-anchor="middle" x="450.5" y="-806.3" font-family="Arial" font-size="14.00">_EventNotifications_event_back_to_analysis_</text>
</g>
<!-- _EventNotifications_event_back_to_analysis_&#45;&gt;_EventNotifications_notify_by_role_ -->
<g id="edge10" class="edge">
<title>_EventNotifications_event_back_to_analysis_&#45;&gt;_EventNotifications_notify_by_role_</title>
<path fill="none" stroke="black" d="M450.5,-791.82C450.5,-729.98 450.5,-518.47 450.5,-442.47"/>
<polygon fill="black" stroke="black" points="454,-442.27 450.5,-432.27 447,-442.27 454,-442.27"/>
</g>
<!-- _EventNotifications_event_approve_action_plan_ -->
<g id="node13" class="node">
<title>_EventNotifications_event_approve_action_plan_</title>
<polygon fill="lightblue" stroke="white" points="2446,-432 2133,-432 2133,-396 2446,-396 2446,-432"/>
<text text-anchor="middle" x="2289.5" y="-410.3" font-family="Arial" font-size="14.00">_EventNotifications_event_approve_action_plan_</text>
</g>
<!-- _EventNotifications_event_approve_action_plan_&#45;&gt;_EventNotifications_log_validator_operation_ -->
<g id="edge11" class="edge">
<title>_EventNotifications_event_approve_action_plan_&#45;&gt;_EventNotifications_log_validator_operation_</title>
<path fill="none" stroke="black" d="M2271.97,-395.82C2207.98,-333.1 1986.84,-116.37 1912.28,-43.28"/>
<polygon fill="black" stroke="black" points="1914.72,-40.77 1905.12,-36.27 1909.82,-45.77 1914.72,-40.77"/>
</g>
<!-- _EventNotifications_event_approve_action_plan_&#45;&gt;_EventNotifications_notify_event_actors_ -->
<g id="edge12" class="edge">
<title>_EventNotifications_event_approve_action_plan_&#45;&gt;_EventNotifications_notify_event_actors_</title>
<path fill="none" stroke="black" d="M2304.15,-395.82C2357.42,-333.35 2540.97,-118.12 2604.03,-44.18"/>
<polygon fill="black" stroke="black" points="2606.94,-46.15 2610.77,-36.27 2601.62,-41.61 2606.94,-46.15"/>
</g>
<!-- _EventNotifications_event_approve_closure_ -->
<g id="node14" class="node">
<title>_EventNotifications_event_approve_closure_</title>
<polygon fill="lightblue" stroke="white" points="1858,-828 1571,-828 1571,-792 1858,-792 1858,-828"/>
<text text-anchor="middle" x="1714.5" y="-806.3" font-family="Arial" font-size="14.00">_EventNotifications_event_approve_closure_</text>
</g>
<!-- _EventNotifications_event_approve_closure_&#45;&gt;_EventNotifications_notifs_audits_autoclose_ -->
<g id="edge14" class="edge">
<title>_EventNotifications_event_approve_closure_&#45;&gt;_EventNotifications_notifs_audits_autoclose_</title>
<path fill="none" stroke="black" d="M1688.77,-791.82C1594.17,-728.65 1265.61,-509.24 1158.53,-437.72"/>
<polygon fill="black" stroke="black" points="1160.29,-434.69 1150.03,-432.05 1156.41,-440.52 1160.29,-434.69"/>
</g>
<!-- _EventNotifications_notifs_and_logs_ -->
<g id="node15" class="node">
<title>_EventNotifications_notifs_and_logs_</title>
<polygon fill="lightblue" stroke="white" points="2096.5,-432 1854.5,-432 1854.5,-396 2096.5,-396 2096.5,-432"/>
<text text-anchor="middle" x="1975.5" y="-410.3" font-family="Arial" font-size="14.00">_EventNotifications_notifs_and_logs_</text>
</g>
<!-- _EventNotifications_event_approve_closure_&#45;&gt;_EventNotifications_notifs_and_logs_ -->
<g id="edge13" class="edge">
<title>_EventNotifications_event_approve_closure_&#45;&gt;_EventNotifications_notifs_and_logs_</title>
<path fill="none" stroke="black" d="M1725.88,-791.82C1767.18,-729.48 1909.26,-514.99 1958.52,-440.63"/>
<polygon fill="black" stroke="black" points="1961.45,-442.54 1964.06,-432.27 1955.62,-438.68 1961.45,-442.54"/>
</g>
<!-- _EventNotifications_notifs_and_logs_&#45;&gt;_EventNotifications_log_validator_operation_ -->
<g id="edge17" class="edge">
<title>_EventNotifications_notifs_and_logs_&#45;&gt;_EventNotifications_log_validator_operation_</title>
<path fill="none" stroke="black" d="M1971.66,-395.82C1957.85,-333.98 1910.61,-122.47 1893.64,-46.47"/>
<polygon fill="black" stroke="black" points="1896.95,-45.27 1891.36,-36.27 1890.12,-46.8 1896.95,-45.27"/>
</g>
<!-- _EventNotifications_event_refuse_closure_ -->
<g id="node16" class="node">
<title>_EventNotifications_event_refuse_closure_</title>
<polygon fill="lightblue" stroke="white" points="2508.5,-828 2232.5,-828 2232.5,-792 2508.5,-792 2508.5,-828"/>
<text text-anchor="middle" x="2370.5" y="-806.3" font-family="Arial" font-size="14.00">_EventNotifications_event_refuse_closure_</text>
</g>
<!-- _EventNotifications_event_refuse_closure_&#45;&gt;_EventNotifications_notifs_and_logs_ -->
<g id="edge15" class="edge">
<title>_EventNotifications_event_refuse_closure_&#45;&gt;_EventNotifications_notifs_and_logs_</title>
<path fill="none" stroke="black" d="M2353.27,-791.82C2290.52,-729.22 2073.99,-513.24 2000.29,-439.73"/>
<polygon fill="black" stroke="black" points="2002.37,-436.86 1992.82,-432.27 1997.43,-441.81 2002.37,-436.86"/>
</g>
<!-- _EventNotifications_event_refuse_action_plan_ -->
<g id="node17" class="node">
<title>_EventNotifications_event_refuse_action_plan_</title>
<polygon fill="lightblue" stroke="white" points="2196.5,-828 1894.5,-828 1894.5,-792 2196.5,-792 2196.5,-828"/>
<text text-anchor="middle" x="2045.5" y="-806.3" font-family="Arial" font-size="14.00">_EventNotifications_event_refuse_action_plan_</text>
</g>
<!-- _EventNotifications_event_refuse_action_plan_&#45;&gt;_EventNotifications_notifs_and_logs_ -->
<g id="edge16" class="edge">
<title>_EventNotifications_event_refuse_action_plan_&#45;&gt;_EventNotifications_notifs_and_logs_</title>
<path fill="none" stroke="black" d="M2042.45,-791.82C2031.46,-729.98 1993.88,-518.47 1980.38,-442.47"/>
<polygon fill="black" stroke="black" points="1983.76,-441.51 1978.57,-432.27 1976.87,-442.73 1983.76,-441.51"/>
</g>
</g>
</svg>
