<?xml version="1.0" encoding="UTF-8" standalone="no"?>
<!DOCTYPE svg PUBLIC "-//W3C//DTD SVG 1.1//EN"
 "http://www.w3.org/Graphics/SVG/1.1/DTD/svg11.dtd">
<!-- Generated by graphviz version 2.43.0 (0)
 -->
<!-- Title: CallGraph Pages: 1 -->
<svg width="1799pt" height="2873pt"
 viewBox="0.00 0.00 1799.24 2872.69" xmlns="http://www.w3.org/2000/svg" xmlns:xlink="http://www.w3.org/1999/xlink">
<g id="graph0" class="graph" transform="scale(1 1) rotate(0) translate(4 2868.69)">
<title>CallGraph</title>
<polygon fill="white" stroke="transparent" points="-4,4 -4,-2868.69 1795.24,-2868.69 1795.24,4 -4,4"/>
<!-- _ExternalUsersService_process_data_ -->
<g id="node1" class="node">
<title>_ExternalUsersService_process_data_</title>
<polygon fill="lightblue" stroke="white" points="790.74,-2808 540.74,-2808 540.74,-2772 790.74,-2772 790.74,-2808"/>
<text text-anchor="middle" x="665.74" y="-2786.3" font-family="Arial" font-size="14.00">_ExternalUsersService_process_data_</text>
</g>
<!-- _ExternalUsersService_user_email_ -->
<g id="node2" class="node">
<title>_ExternalUsersService_user_email_</title>
<polygon fill="lightblue" stroke="white" points="1410.74,-36 1174.74,-36 1174.74,0 1410.74,0 1410.74,-36"/>
<text text-anchor="middle" x="1292.74" y="-14.3" font-family="Arial" font-size="14.00">_ExternalUsersService_user_email_</text>
</g>
<!-- _ExternalUsersService_process_data_&#45;&gt;_ExternalUsersService_user_email_ -->
<g id="edge1" class="edge">
<title>_ExternalUsersService_process_data_&#45;&gt;_ExternalUsersService_user_email_</title>
<path fill="none" stroke="black" d="M635.35,-2771.87C508.36,-2697.8 26.74,-2391.06 26.74,-1999 26.74,-1999 26.74,-1999 26.74,-809 26.74,-624.71 -52.32,-539.15 63.74,-396 206.83,-219.51 899.75,-85.28 1177.37,-37.73"/>
<polygon fill="black" stroke="black" points="1178.2,-41.14 1187.47,-36.01 1177.02,-34.24 1178.2,-41.14"/>
</g>
<!-- _ExternalUsersService_cannot_reactivate_ -->
<g id="node3" class="node">
<title>_ExternalUsersService_cannot_reactivate_</title>
<polygon fill="lightblue" stroke="white" points="1530.24,-2412 1255.24,-2412 1255.24,-2376 1530.24,-2376 1530.24,-2412"/>
<text text-anchor="middle" x="1392.74" y="-2390.3" font-family="Arial" font-size="14.00">_ExternalUsersService_cannot_reactivate_</text>
</g>
<!-- _ExternalUsersService_process_data_&#45;&gt;_ExternalUsersService_cannot_reactivate_ -->
<g id="edge2" class="edge">
<title>_ExternalUsersService_process_data_&#45;&gt;_ExternalUsersService_cannot_reactivate_</title>
<path fill="none" stroke="black" d="M697.45,-2771.82C814.48,-2708.39 1222.12,-2487.47 1352.39,-2416.87"/>
<polygon fill="black" stroke="black" points="1354.16,-2419.89 1361.28,-2412.05 1350.82,-2413.74 1354.16,-2419.89"/>
</g>
<!-- _ExternalUsersService_existing_user_ -->
<g id="node4" class="node">
<title>_ExternalUsersService_existing_user_</title>
<polygon fill="lightblue" stroke="white" points="329.74,-432 81.74,-432 81.74,-396 329.74,-396 329.74,-432"/>
<text text-anchor="middle" x="205.74" y="-410.3" font-family="Arial" font-size="14.00">_ExternalUsersService_existing_user_</text>
</g>
<!-- _ExternalUsersService_process_data_&#45;&gt;_ExternalUsersService_existing_user_ -->
<g id="edge3" class="edge">
<title>_ExternalUsersService_process_data_&#45;&gt;_ExternalUsersService_existing_user_</title>
<path fill="none" stroke="black" d="M646.56,-2771.85C591.85,-2721.89 433.62,-2570.04 349.74,-2412 260.25,-2243.38 231.74,-2189.9 231.74,-1999 231.74,-1999 231.74,-1999 231.74,-1205 231.74,-906.07 212.92,-543.87 207.31,-442.51"/>
<polygon fill="black" stroke="black" points="210.78,-442.02 206.73,-432.23 203.79,-442.41 210.78,-442.02"/>
</g>
<!-- _ExternalUsersService_update_existing_user_ -->
<g id="node5" class="node">
<title>_ExternalUsersService_update_existing_user_</title>
<polygon fill="lightblue" stroke="white" points="665.24,-2412 368.24,-2412 368.24,-2376 665.24,-2376 665.24,-2412"/>
<text text-anchor="middle" x="516.74" y="-2390.3" font-family="Arial" font-size="14.00">_ExternalUsersService_update_existing_user_</text>
</g>
<!-- _ExternalUsersService_process_data_&#45;&gt;_ExternalUsersService_update_existing_user_ -->
<g id="edge4" class="edge">
<title>_ExternalUsersService_process_data_&#45;&gt;_ExternalUsersService_update_existing_user_</title>
<path fill="none" stroke="black" d="M659.25,-2771.82C635.82,-2709.86 555.54,-2497.6 526.96,-2422"/>
<polygon fill="black" stroke="black" points="530.09,-2420.39 523.28,-2412.27 523.54,-2422.87 530.09,-2420.39"/>
</g>
<!-- _ExternalUsersService_user_limit_reached_ -->
<g id="node6" class="node">
<title>_ExternalUsersService_user_limit_reached_</title>
<polygon fill="lightblue" stroke="white" points="1570.74,-2016 1286.74,-2016 1286.74,-1980 1570.74,-1980 1570.74,-2016"/>
<text text-anchor="middle" x="1428.74" y="-1994.3" font-family="Arial" font-size="14.00">_ExternalUsersService_user_limit_reached_</text>
</g>
<!-- _ExternalUsersService_process_data_&#45;&gt;_ExternalUsersService_user_limit_reached_ -->
<g id="edge5" class="edge">
<title>_ExternalUsersService_process_data_&#45;&gt;_ExternalUsersService_user_limit_reached_</title>
<path fill="none" stroke="black" d="M682.39,-2771.77C781.13,-2669.54 1289.52,-2143.16 1405.27,-2023.31"/>
<polygon fill="black" stroke="black" points="1407.89,-2025.63 1412.32,-2016.01 1402.85,-2020.77 1407.89,-2025.63"/>
</g>
<!-- _ExternalUsersService_new_user_ -->
<g id="node7" class="node">
<title>_ExternalUsersService_new_user_</title>
<polygon fill="lightblue" stroke="white" points="928.24,-2412 701.24,-2412 701.24,-2376 928.24,-2376 928.24,-2412"/>
<text text-anchor="middle" x="814.74" y="-2390.3" font-family="Arial" font-size="14.00">_ExternalUsersService_new_user_</text>
</g>
<!-- _ExternalUsersService_process_data_&#45;&gt;_ExternalUsersService_new_user_ -->
<g id="edge6" class="edge">
<title>_ExternalUsersService_process_data_&#45;&gt;_ExternalUsersService_new_user_</title>
<path fill="none" stroke="black" d="M672.24,-2771.82C695.67,-2709.86 775.94,-2497.6 804.53,-2422"/>
<polygon fill="black" stroke="black" points="807.95,-2422.87 808.21,-2412.27 801.4,-2420.39 807.95,-2422.87"/>
</g>
<!-- _ExternalUsersService_cannot_reactivate_&#45;&gt;_ExternalUsersService_user_limit_reached_ -->
<g id="edge11" class="edge">
<title>_ExternalUsersService_cannot_reactivate_&#45;&gt;_ExternalUsersService_user_limit_reached_</title>
<path fill="none" stroke="black" d="M1394.31,-2375.82C1399.96,-2313.98 1419.29,-2102.47 1426.23,-2026.47"/>
<polygon fill="black" stroke="black" points="1429.74,-2026.55 1427.17,-2016.27 1422.77,-2025.91 1429.74,-2026.55"/>
</g>
<!-- _ExternalUsersService_existing_user_&#45;&gt;_ExternalUsersService_user_email_ -->
<g id="edge9" class="edge">
<title>_ExternalUsersService_existing_user_&#45;&gt;_ExternalUsersService_user_email_</title>
<path fill="none" stroke="black" d="M252.8,-395.94C428.43,-332.28 1045.32,-108.68 1236.09,-39.53"/>
<polygon fill="black" stroke="black" points="1237.44,-42.77 1245.65,-36.07 1235.06,-36.19 1237.44,-42.77"/>
</g>
<!-- _ExternalUsersService_update_existing_user_&#45;&gt;_ExternalUsersService_existing_user_ -->
<g id="edge12" class="edge">
<title>_ExternalUsersService_update_existing_user_&#45;&gt;_ExternalUsersService_existing_user_</title>
<path fill="none" stroke="black" d="M512.72,-2375.88C493.36,-2291.99 410.74,-1915.74 410.74,-1603 410.74,-1603 410.74,-1603 410.74,-1205 410.74,-895.74 261.74,-539.59 217.8,-441.29"/>
<polygon fill="black" stroke="black" points="220.95,-439.77 213.66,-432.09 214.57,-442.64 220.95,-439.77"/>
</g>
<!-- _ExternalUsersService_attributes_to_update_ -->
<g id="node9" class="node">
<title>_ExternalUsersService_attributes_to_update_</title>
<polygon fill="lightblue" stroke="white" points="924.74,-2016 632.74,-2016 632.74,-1980 924.74,-1980 924.74,-2016"/>
<text text-anchor="middle" x="778.74" y="-1994.3" font-family="Arial" font-size="14.00">_ExternalUsersService_attributes_to_update_</text>
</g>
<!-- _ExternalUsersService_update_existing_user_&#45;&gt;_ExternalUsersService_attributes_to_update_ -->
<g id="edge13" class="edge">
<title>_ExternalUsersService_update_existing_user_&#45;&gt;_ExternalUsersService_attributes_to_update_</title>
<path fill="none" stroke="black" d="M528.17,-2375.82C569.62,-2313.48 712.25,-2098.99 761.7,-2024.63"/>
<polygon fill="black" stroke="black" points="764.64,-2026.54 767.26,-2016.27 758.81,-2022.66 764.64,-2026.54"/>
</g>
<!-- _ExternalUsersService_new_user_attributes_ -->
<g id="node8" class="node">
<title>_ExternalUsersService_new_user_attributes_</title>
<polygon fill="lightblue" stroke="white" points="1250.74,-2016 960.74,-2016 960.74,-1980 1250.74,-1980 1250.74,-2016"/>
<text text-anchor="middle" x="1105.74" y="-1994.3" font-family="Arial" font-size="14.00">_ExternalUsersService_new_user_attributes_</text>
</g>
<!-- _ExternalUsersService_new_user_&#45;&gt;_ExternalUsersService_new_user_attributes_ -->
<g id="edge7" class="edge">
<title>_ExternalUsersService_new_user_&#45;&gt;_ExternalUsersService_new_user_attributes_</title>
<path fill="none" stroke="black" d="M827.44,-2375.82C873.48,-2313.48 1031.89,-2098.99 1086.82,-2024.63"/>
<polygon fill="black" stroke="black" points="1089.86,-2026.4 1092.99,-2016.27 1084.23,-2022.24 1089.86,-2026.4"/>
</g>
<!-- _ExternalUsersService_new_user_&#45;&gt;_ExternalUsersService_attributes_to_update_ -->
<g id="edge8" class="edge">
<title>_ExternalUsersService_new_user_&#45;&gt;_ExternalUsersService_attributes_to_update_</title>
<path fill="none" stroke="black" d="M813.17,-2375.82C807.52,-2313.98 788.2,-2102.47 781.25,-2026.47"/>
<polygon fill="black" stroke="black" points="784.72,-2025.91 780.32,-2016.27 777.75,-2026.55 784.72,-2025.91"/>
</g>
<!-- _ExternalUsersService_new_user_attributes_&#45;&gt;_ExternalUsersService_user_email_ -->
<g id="edge14" class="edge">
<title>_ExternalUsersService_new_user_attributes_&#45;&gt;_ExternalUsersService_user_email_</title>
<path fill="none" stroke="black" d="M1119.29,-1979.8C1181.97,-1898.44 1440.74,-1542.19 1440.74,-1207 1440.74,-1207 1440.74,-1207 1440.74,-809 1440.74,-504.42 1333.15,-144.91 1301.44,-45.57"/>
<polygon fill="black" stroke="black" points="1304.76,-44.46 1298.37,-36.01 1298.1,-46.6 1304.76,-44.46"/>
</g>
<!-- _ExternalUsersService_generated_password_ -->
<g id="node11" class="node">
<title>_ExternalUsersService_generated_password_</title>
<polygon fill="lightblue" stroke="white" points="1791.24,-1620 1496.24,-1620 1496.24,-1584 1791.24,-1584 1791.24,-1620"/>
<text text-anchor="middle" x="1643.74" y="-1598.3" font-family="Arial" font-size="14.00">_ExternalUsersService_generated_password_</text>
</g>
<!-- _ExternalUsersService_new_user_attributes_&#45;&gt;_ExternalUsersService_generated_password_ -->
<g id="edge15" class="edge">
<title>_ExternalUsersService_new_user_attributes_&#45;&gt;_ExternalUsersService_generated_password_</title>
<path fill="none" stroke="black" d="M1129.21,-1979.82C1215.29,-1916.77 1513.87,-1698.12 1612.12,-1626.16"/>
<polygon fill="black" stroke="black" points="1614.46,-1628.78 1620.46,-1620.05 1610.33,-1623.14 1614.46,-1628.78"/>
</g>
<!-- _ExternalUsersService_tracked_attributes_ -->
<g id="node12" class="node">
<title>_ExternalUsersService_tracked_attributes_</title>
<polygon fill="lightblue" stroke="white" points="1059.74,-1620 783.74,-1620 783.74,-1584 1059.74,-1584 1059.74,-1620"/>
<text text-anchor="middle" x="921.74" y="-1598.3" font-family="Arial" font-size="14.00">_ExternalUsersService_tracked_attributes_</text>
</g>
<!-- _ExternalUsersService_attributes_to_update_&#45;&gt;_ExternalUsersService_tracked_attributes_ -->
<g id="edge16" class="edge">
<title>_ExternalUsersService_attributes_to_update_&#45;&gt;_ExternalUsersService_tracked_attributes_</title>
<path fill="none" stroke="black" d="M784.98,-1979.82C807.47,-1917.86 884.51,-1705.6 911.94,-1630"/>
<polygon fill="black" stroke="black" points="915.35,-1630.87 915.48,-1620.27 908.77,-1628.48 915.35,-1630.87"/>
</g>
<!-- _ExternalUsersService_sso_settings_ -->
<g id="node10" class="node">
<title>_ExternalUsersService_sso_settings_</title>
<polygon fill="lightblue" stroke="white" points="1070.74,-2808 826.74,-2808 826.74,-2772 1070.74,-2772 1070.74,-2808"/>
<text text-anchor="middle" x="948.74" y="-2786.3" font-family="Arial" font-size="14.00">_ExternalUsersService_sso_settings_</text>
</g>
<!-- _ExternalUsersService_sso_settings_&#45;&gt;_ExternalUsersService_sso_settings_ -->
<g id="edge10" class="edge">
<title>_ExternalUsersService_sso_settings_&#45;&gt;_ExternalUsersService_sso_settings_</title>
<path fill="none" stroke="black" d="M959.71,-2808.16C1014.74,-2888.58 1106.74,-2882.52 1106.74,-2790 1106.74,-2700.73 1021.1,-2691.96 965.65,-2763.68"/>
<polygon fill="black" stroke="black" points="962.77,-2761.69 959.71,-2771.84 968.43,-2765.81 962.77,-2761.69"/>
</g>
<!-- _ExternalUsersService_user_first_name_ -->
<g id="node13" class="node">
<title>_ExternalUsersService_user_first_name_</title>
<polygon fill="lightblue" stroke="white" points="1268.74,-828 1002.74,-828 1002.74,-792 1268.74,-792 1268.74,-828"/>
<text text-anchor="middle" x="1135.74" y="-806.3" font-family="Arial" font-size="14.00">_ExternalUsersService_user_first_name_</text>
</g>
<!-- _ExternalUsersService_tracked_attributes_&#45;&gt;_ExternalUsersService_user_first_name_ -->
<g id="edge17" class="edge">
<title>_ExternalUsersService_tracked_attributes_&#45;&gt;_ExternalUsersService_user_first_name_</title>
<path fill="none" stroke="black" d="M926.41,-1583.77C953.91,-1482.25 1094.71,-962.49 1128.46,-837.88"/>
<polygon fill="black" stroke="black" points="1131.9,-838.58 1131.14,-828.01 1125.14,-836.75 1131.9,-838.58"/>
</g>
<!-- _ExternalUsersService_user_last_name_ -->
<g id="node14" class="node">
<title>_ExternalUsersService_user_last_name_</title>
<polygon fill="lightblue" stroke="white" points="1376.74,-1224 1110.74,-1224 1110.74,-1188 1376.74,-1188 1376.74,-1224"/>
<text text-anchor="middle" x="1243.74" y="-1202.3" font-family="Arial" font-size="14.00">_ExternalUsersService_user_last_name_</text>
</g>
<!-- _ExternalUsersService_tracked_attributes_&#45;&gt;_ExternalUsersService_user_last_name_ -->
<g id="edge18" class="edge">
<title>_ExternalUsersService_tracked_attributes_&#45;&gt;_ExternalUsersService_user_last_name_</title>
<path fill="none" stroke="black" d="M935.79,-1583.82C986.84,-1521.35 1162.74,-1306.12 1223.17,-1232.18"/>
<polygon fill="black" stroke="black" points="1226.01,-1234.23 1229.63,-1224.27 1220.59,-1229.8 1226.01,-1234.23"/>
</g>
<!-- _ExternalUsersService_optional_attributes_ -->
<g id="node15" class="node">
<title>_ExternalUsersService_optional_attributes_</title>
<polygon fill="lightblue" stroke="white" points="945.24,-1224 666.24,-1224 666.24,-1188 945.24,-1188 945.24,-1224"/>
<text text-anchor="middle" x="805.74" y="-1202.3" font-family="Arial" font-size="14.00">_ExternalUsersService_optional_attributes_</text>
</g>
<!-- _ExternalUsersService_tracked_attributes_&#45;&gt;_ExternalUsersService_optional_attributes_ -->
<g id="edge19" class="edge">
<title>_ExternalUsersService_tracked_attributes_&#45;&gt;_ExternalUsersService_optional_attributes_</title>
<path fill="none" stroke="black" d="M916.69,-1583.82C898.44,-1521.86 835.95,-1309.6 813.69,-1234"/>
<polygon fill="black" stroke="black" points="817.01,-1232.88 810.83,-1224.27 810.3,-1234.85 817.01,-1232.88"/>
</g>
<!-- _ExternalUsersService_user_first_name_&#45;&gt;_ExternalUsersService_user_email_ -->
<g id="edge20" class="edge">
<title>_ExternalUsersService_user_first_name_&#45;&gt;_ExternalUsersService_user_email_</title>
<path fill="none" stroke="black" d="M1142.76,-791.7C1163.87,-738.84 1227.06,-574.41 1255.74,-432 1284.63,-288.61 1290.97,-112.66 1292.36,-46.17"/>
<polygon fill="black" stroke="black" points="1295.86,-46.17 1292.55,-36.11 1288.86,-46.04 1295.86,-46.17"/>
</g>
<!-- _ExternalUsersService_user_last_name_&#45;&gt;_ExternalUsersService_user_email_ -->
<g id="edge21" class="edge">
<title>_ExternalUsersService_user_last_name_&#45;&gt;_ExternalUsersService_user_email_</title>
<path fill="none" stroke="black" d="M1246.37,-1187.77C1254.35,-1134.46 1278.3,-967.4 1286.74,-828 1305.3,-521.61 1296.55,-148.78 1293.59,-46.22"/>
<polygon fill="black" stroke="black" points="1297.08,-45.99 1293.29,-36.1 1290.09,-46.2 1297.08,-45.99"/>
</g>
<!-- _ExternalUsersService_prepared_pair_ -->
<g id="node16" class="node">
<title>_ExternalUsersService_prepared_pair_</title>
<polygon fill="lightblue" stroke="white" points="922.24,-828 669.24,-828 669.24,-792 922.24,-792 922.24,-828"/>
<text text-anchor="middle" x="795.74" y="-806.3" font-family="Arial" font-size="14.00">_ExternalUsersService_prepared_pair_</text>
</g>
<!-- _ExternalUsersService_optional_attributes_&#45;&gt;_ExternalUsersService_prepared_pair_ -->
<g id="edge22" class="edge">
<title>_ExternalUsersService_optional_attributes_&#45;&gt;_ExternalUsersService_prepared_pair_</title>
<path fill="none" stroke="black" d="M805.31,-1187.82C803.74,-1125.98 798.37,-914.47 796.44,-838.47"/>
<polygon fill="black" stroke="black" points="799.94,-838.18 796.18,-828.27 792.94,-838.36 799.94,-838.18"/>
</g>
<!-- _ExternalUsersService_prepared_pair_&#45;&gt;_ExternalUsersService_existing_user_ -->
<g id="edge24" class="edge">
<title>_ExternalUsersService_prepared_pair_&#45;&gt;_ExternalUsersService_existing_user_</title>
<path fill="none" stroke="black" d="M770.01,-791.82C675.42,-728.65 346.86,-509.24 239.77,-437.72"/>
<polygon fill="black" stroke="black" points="241.54,-434.69 231.28,-432.05 237.65,-440.52 241.54,-434.69"/>
</g>
<!-- _ExternalUsersService_parse_ -->
<g id="node17" class="node">
<title>_ExternalUsersService_parse_</title>
<polygon fill="lightblue" stroke="white" points="897.24,-432 694.24,-432 694.24,-396 897.24,-396 897.24,-432"/>
<text text-anchor="middle" x="795.74" y="-410.3" font-family="Arial" font-size="14.00">_ExternalUsersService_parse_</text>
</g>
<!-- _ExternalUsersService_prepared_pair_&#45;&gt;_ExternalUsersService_parse_ -->
<g id="edge23" class="edge">
<title>_ExternalUsersService_prepared_pair_&#45;&gt;_ExternalUsersService_parse_</title>
<path fill="none" stroke="black" d="M795.74,-791.82C795.74,-729.98 795.74,-518.47 795.74,-442.47"/>
<polygon fill="black" stroke="black" points="799.24,-442.27 795.74,-432.27 792.24,-442.27 799.24,-442.27"/>
</g>
<!-- _ExternalUsersService_find_or_create_groups_ -->
<g id="node18" class="node">
<title>_ExternalUsersService_find_or_create_groups_</title>
<polygon fill="lightblue" stroke="white" points="1237.74,-432 933.74,-432 933.74,-396 1237.74,-396 1237.74,-432"/>
<text text-anchor="middle" x="1085.74" y="-410.3" font-family="Arial" font-size="14.00">_ExternalUsersService_find_or_create_groups_</text>
</g>
<!-- _ExternalUsersService_prepared_pair_&#45;&gt;_ExternalUsersService_find_or_create_groups_ -->
<g id="edge25" class="edge">
<title>_ExternalUsersService_prepared_pair_&#45;&gt;_ExternalUsersService_find_or_create_groups_</title>
<path fill="none" stroke="black" d="M808.39,-791.82C854.28,-729.48 1012.15,-514.99 1066.88,-440.63"/>
<polygon fill="black" stroke="black" points="1069.92,-442.4 1073.03,-432.27 1064.28,-438.25 1069.92,-442.4"/>
</g>
<!-- _ExternalUsersService_find_or_create_roles_ -->
<g id="node19" class="node">
<title>_ExternalUsersService_find_or_create_roles_</title>
<polygon fill="lightblue" stroke="white" points="657.74,-432 365.74,-432 365.74,-396 657.74,-396 657.74,-432"/>
<text text-anchor="middle" x="511.74" y="-410.3" font-family="Arial" font-size="14.00">_ExternalUsersService_find_or_create_roles_</text>
</g>
<!-- _ExternalUsersService_prepared_pair_&#45;&gt;_ExternalUsersService_find_or_create_roles_ -->
<g id="edge26" class="edge">
<title>_ExternalUsersService_prepared_pair_&#45;&gt;_ExternalUsersService_find_or_create_roles_</title>
<path fill="none" stroke="black" d="M783.36,-791.82C738.42,-729.48 583.82,-514.99 530.22,-440.63"/>
<polygon fill="black" stroke="black" points="532.88,-438.34 524.2,-432.27 527.2,-442.43 532.88,-438.34"/>
</g>
</g>
</svg>
