<?xml version="1.0" encoding="UTF-8" standalone="no"?>
<!DOCTYPE svg PUBLIC "-//W3C//DTD SVG 1.1//EN"
 "http://www.w3.org/Graphics/SVG/1.1/DTD/svg11.dtd">
<!-- Generated by graphviz version 2.43.0 (0)
 -->
<!-- Title: CallGraph Pages: 1 -->
<svg width="1386pt" height="1232pt"
 viewBox="0.00 0.00 1386.00 1232.00" xmlns="http://www.w3.org/2000/svg" xmlns:xlink="http://www.w3.org/1999/xlink">
<g id="graph0" class="graph" transform="scale(1 1) rotate(0) translate(4 1228)">
<title>CallGraph</title>
<polygon fill="white" stroke="transparent" points="-4,4 -4,-1228 1382,-1228 1382,4 -4,4"/>
<!-- _FieldValueValidator_validate_ -->
<g id="node1" class="node">
<title>_FieldValueValidator_validate_</title>
<polygon fill="lightblue" stroke="white" points="536.5,-1224 335.5,-1224 335.5,-1188 536.5,-1188 536.5,-1224"/>
<text text-anchor="middle" x="436" y="-1202.3" font-family="Arial" font-size="14.00">_FieldValueValidator_validate_</text>
</g>
<!-- _FieldValueValidator_field_value_membership_ -->
<g id="node2" class="node">
<title>_FieldValueValidator_field_value_membership_</title>
<polygon fill="lightblue" stroke="white" points="302,-432 0,-432 0,-396 302,-396 302,-432"/>
<text text-anchor="middle" x="151" y="-410.3" font-family="Arial" font-size="14.00">_FieldValueValidator_field_value_membership_</text>
</g>
<!-- _FieldValueValidator_validate_&#45;&gt;_FieldValueValidator_field_value_membership_ -->
<g id="edge1" class="edge">
<title>_FieldValueValidator_validate_&#45;&gt;_FieldValueValidator_field_value_membership_</title>
<path fill="none" stroke="black" d="M429.78,-1187.77C393.12,-1086.15 205.27,-565.45 160.56,-441.5"/>
<polygon fill="black" stroke="black" points="163.82,-440.23 157.14,-432.01 157.24,-442.6 163.82,-440.23"/>
</g>
<!-- _FieldValueValidator_field_type_consistency_ -->
<g id="node3" class="node">
<title>_FieldValueValidator_field_type_consistency_</title>
<polygon fill="lightblue" stroke="white" points="732,-828 442,-828 442,-792 732,-792 732,-828"/>
<text text-anchor="middle" x="587" y="-806.3" font-family="Arial" font-size="14.00">_FieldValueValidator_field_type_consistency_</text>
</g>
<!-- _FieldValueValidator_validate_&#45;&gt;_FieldValueValidator_field_type_consistency_ -->
<g id="edge2" class="edge">
<title>_FieldValueValidator_validate_&#45;&gt;_FieldValueValidator_field_type_consistency_</title>
<path fill="none" stroke="black" d="M442.59,-1187.82C466.33,-1125.86 547.68,-913.6 576.65,-838"/>
<polygon fill="black" stroke="black" points="580.07,-838.86 580.38,-828.27 573.53,-836.36 580.07,-838.86"/>
</g>
<!-- _FieldValueValidator_find_entity_ -->
<g id="node4" class="node">
<title>_FieldValueValidator_find_entity_</title>
<polygon fill="lightblue" stroke="white" points="259,-36 43,-36 43,0 259,0 259,-36"/>
<text text-anchor="middle" x="151" y="-14.3" font-family="Arial" font-size="14.00">_FieldValueValidator_find_entity_</text>
</g>
<!-- _FieldValueValidator_field_value_membership_&#45;&gt;_FieldValueValidator_find_entity_ -->
<g id="edge3" class="edge">
<title>_FieldValueValidator_field_value_membership_&#45;&gt;_FieldValueValidator_find_entity_</title>
<path fill="none" stroke="black" d="M151,-395.82C151,-333.98 151,-122.47 151,-46.47"/>
<polygon fill="black" stroke="black" points="154.5,-46.27 151,-36.27 147.5,-46.27 154.5,-46.27"/>
</g>
<!-- _FieldValueValidator_field_type_consistency_&#45;&gt;_FieldValueValidator_field_value_membership_ -->
<g id="edge8" class="edge">
<title>_FieldValueValidator_field_type_consistency_&#45;&gt;_FieldValueValidator_field_value_membership_</title>
<path fill="none" stroke="black" d="M567.99,-791.82C498.58,-729.1 258.75,-512.37 177.87,-439.28"/>
<polygon fill="black" stroke="black" points="179.88,-436.38 170.11,-432.27 175.19,-441.58 179.88,-436.38"/>
</g>
<!-- _FieldValueValidator_check_value_ -->
<g id="node5" class="node">
<title>_FieldValueValidator_check_value_</title>
<polygon fill="lightblue" stroke="white" points="568,-432 338,-432 338,-396 568,-396 568,-432"/>
<text text-anchor="middle" x="453" y="-410.3" font-family="Arial" font-size="14.00">_FieldValueValidator_check_value_</text>
</g>
<!-- _FieldValueValidator_field_type_consistency_&#45;&gt;_FieldValueValidator_check_value_ -->
<g id="edge4" class="edge">
<title>_FieldValueValidator_field_type_consistency_&#45;&gt;_FieldValueValidator_check_value_</title>
<path fill="none" stroke="black" d="M581.16,-791.82C560.08,-729.86 487.89,-517.6 462.18,-442"/>
<polygon fill="black" stroke="black" points="465.41,-440.61 458.87,-432.27 458.78,-442.87 465.41,-440.61"/>
</g>
<!-- _FieldValueValidator_check_object_ -->
<g id="node6" class="node">
<title>_FieldValueValidator_check_object_</title>
<polygon fill="lightblue" stroke="white" points="837.5,-432 604.5,-432 604.5,-396 837.5,-396 837.5,-432"/>
<text text-anchor="middle" x="721" y="-410.3" font-family="Arial" font-size="14.00">_FieldValueValidator_check_object_</text>
</g>
<!-- _FieldValueValidator_field_type_consistency_&#45;&gt;_FieldValueValidator_check_object_ -->
<g id="edge5" class="edge">
<title>_FieldValueValidator_field_type_consistency_&#45;&gt;_FieldValueValidator_check_object_</title>
<path fill="none" stroke="black" d="M592.84,-791.82C613.92,-729.86 686.11,-517.6 711.82,-442"/>
<polygon fill="black" stroke="black" points="715.22,-442.87 715.13,-432.27 708.59,-440.61 715.22,-442.87"/>
</g>
<!-- _FieldValueValidator_check_date_ -->
<g id="node7" class="node">
<title>_FieldValueValidator_check_date_</title>
<polygon fill="lightblue" stroke="white" points="1098,-432 874,-432 874,-396 1098,-396 1098,-432"/>
<text text-anchor="middle" x="986" y="-410.3" font-family="Arial" font-size="14.00">_FieldValueValidator_check_date_</text>
</g>
<!-- _FieldValueValidator_field_type_consistency_&#45;&gt;_FieldValueValidator_check_date_ -->
<g id="edge6" class="edge">
<title>_FieldValueValidator_field_type_consistency_&#45;&gt;_FieldValueValidator_check_date_</title>
<path fill="none" stroke="black" d="M604.4,-791.82C667.79,-729.22 886.51,-513.24 960.96,-439.73"/>
<polygon fill="black" stroke="black" points="963.85,-441.79 968.51,-432.27 958.93,-436.81 963.85,-441.79"/>
</g>
<!-- _FieldValueValidator_check_number_ -->
<g id="node8" class="node">
<title>_FieldValueValidator_check_number_</title>
<polygon fill="lightblue" stroke="white" points="1378,-432 1134,-432 1134,-396 1378,-396 1378,-432"/>
<text text-anchor="middle" x="1256" y="-410.3" font-family="Arial" font-size="14.00">_FieldValueValidator_check_number_</text>
</g>
<!-- _FieldValueValidator_field_type_consistency_&#45;&gt;_FieldValueValidator_check_number_ -->
<g id="edge7" class="edge">
<title>_FieldValueValidator_field_type_consistency_&#45;&gt;_FieldValueValidator_check_number_</title>
<path fill="none" stroke="black" d="M616.18,-791.82C723.65,-728.52 1097.49,-508.35 1218.14,-437.3"/>
<polygon fill="black" stroke="black" points="1220.21,-440.14 1227.05,-432.05 1216.65,-434.11 1220.21,-440.14"/>
</g>
<!-- _FieldValueValidator_add_errors_ -->
<g id="node9" class="node">
<title>_FieldValueValidator_add_errors_</title>
<polygon fill="lightblue" stroke="white" points="963,-36 743,-36 743,0 963,0 963,-36"/>
<text text-anchor="middle" x="853" y="-14.3" font-family="Arial" font-size="14.00">_FieldValueValidator_add_errors_</text>
</g>
<!-- _FieldValueValidator_check_value_&#45;&gt;_FieldValueValidator_add_errors_ -->
<g id="edge9" class="edge">
<title>_FieldValueValidator_check_value_&#45;&gt;_FieldValueValidator_add_errors_</title>
<path fill="none" stroke="black" d="M470.44,-395.82C533.99,-333.22 753.26,-117.24 827.9,-43.73"/>
<polygon fill="black" stroke="black" points="830.8,-45.78 835.46,-36.27 825.88,-40.8 830.8,-45.78"/>
</g>
<!-- _FieldValueValidator_check_object_&#45;&gt;_FieldValueValidator_add_errors_ -->
<g id="edge10" class="edge">
<title>_FieldValueValidator_check_object_&#45;&gt;_FieldValueValidator_add_errors_</title>
<path fill="none" stroke="black" d="M726.76,-395.82C747.51,-333.86 818.63,-121.6 843.95,-46"/>
<polygon fill="black" stroke="black" points="847.35,-46.87 847.21,-36.27 840.72,-44.64 847.35,-46.87"/>
</g>
<!-- _FieldValueValidator_check_date_&#45;&gt;_FieldValueValidator_add_errors_ -->
<g id="edge11" class="edge">
<title>_FieldValueValidator_check_date_&#45;&gt;_FieldValueValidator_add_errors_</title>
<path fill="none" stroke="black" d="M980.2,-395.82C959.28,-333.86 887.63,-121.6 862.12,-46"/>
<polygon fill="black" stroke="black" points="865.35,-44.63 858.83,-36.27 858.71,-46.87 865.35,-44.63"/>
</g>
<!-- _FieldValueValidator_check_number_&#45;&gt;_FieldValueValidator_add_errors_ -->
<g id="edge12" class="edge">
<title>_FieldValueValidator_check_number_&#45;&gt;_FieldValueValidator_add_errors_</title>
<path fill="none" stroke="black" d="M1238.42,-395.82C1174.27,-333.1 952.59,-116.37 877.84,-43.28"/>
<polygon fill="black" stroke="black" points="880.27,-40.76 870.67,-36.27 875.37,-45.77 880.27,-40.76"/>
</g>
</g>
</svg>
