<?xml version="1.0" encoding="UTF-8" standalone="no"?>
<!DOCTYPE svg PUBLIC "-//W3C//DTD SVG 1.1//EN"
 "http://www.w3.org/Graphics/SVG/1.1/DTD/svg11.dtd">
<!-- Generated by graphviz version 2.43.0 (0)
 -->
<!-- Title: CallGraph Pages: 1 -->
<svg width="530pt" height="440pt"
 viewBox="0.00 0.00 529.50 440.00" xmlns="http://www.w3.org/2000/svg" xmlns:xlink="http://www.w3.org/1999/xlink">
<g id="graph0" class="graph" transform="scale(1 1) rotate(0) translate(4 436)">
<title>CallGraph</title>
<polygon fill="white" stroke="transparent" points="-4,4 -4,-436 525.5,-436 525.5,4 -4,4"/>
<!-- _FieldValueCodec_encode_values_ -->
<g id="node1" class="node">
<title>_FieldValueCodec_encode_values_</title>
<polygon fill="lightblue" stroke="white" points="232,-432 0,-432 0,-396 232,-396 232,-432"/>
<text text-anchor="middle" x="116" y="-410.3" font-family="Arial" font-size="14.00">_FieldValueCodec_encode_values_</text>
</g>
<!-- _FieldValueCodec_encode_value_ -->
<g id="node2" class="node">
<title>_FieldValueCodec_encode_value_</title>
<polygon fill="lightblue" stroke="white" points="228.5,-36 3.5,-36 3.5,0 228.5,0 228.5,-36"/>
<text text-anchor="middle" x="116" y="-14.3" font-family="Arial" font-size="14.00">_FieldValueCodec_encode_value_</text>
</g>
<!-- _FieldValueCodec_encode_values_&#45;&gt;_FieldValueCodec_encode_value_ -->
<g id="edge1" class="edge">
<title>_FieldValueCodec_encode_values_&#45;&gt;_FieldValueCodec_encode_value_</title>
<path fill="none" stroke="black" d="M116,-395.82C116,-333.98 116,-122.47 116,-46.47"/>
<polygon fill="black" stroke="black" points="119.5,-46.27 116,-36.27 112.5,-46.27 119.5,-46.27"/>
</g>
<!-- _FieldValueCodec_decode_hash_ -->
<g id="node3" class="node">
<title>_FieldValueCodec_decode_hash_</title>
<polygon fill="lightblue" stroke="white" points="504,-432 282,-432 282,-396 504,-396 504,-432"/>
<text text-anchor="middle" x="393" y="-410.3" font-family="Arial" font-size="14.00">_FieldValueCodec_decode_hash_</text>
</g>
<!-- _FieldValueCodec_decode_json_value_ -->
<g id="node4" class="node">
<title>_FieldValueCodec_decode_json_value_</title>
<polygon fill="lightblue" stroke="white" points="521.5,-36 264.5,-36 264.5,0 521.5,0 521.5,-36"/>
<text text-anchor="middle" x="393" y="-14.3" font-family="Arial" font-size="14.00">_FieldValueCodec_decode_json_value_</text>
</g>
<!-- _FieldValueCodec_decode_hash_&#45;&gt;_FieldValueCodec_decode_json_value_ -->
<g id="edge2" class="edge">
<title>_FieldValueCodec_decode_hash_&#45;&gt;_FieldValueCodec_decode_json_value_</title>
<path fill="none" stroke="black" d="M393,-395.82C393,-333.98 393,-122.47 393,-46.47"/>
<polygon fill="black" stroke="black" points="396.5,-46.27 393,-36.27 389.5,-46.27 396.5,-46.27"/>
</g>
</g>
</svg>
