<?xml version="1.0" encoding="UTF-8" standalone="no"?>
<!DOCTYPE svg PUBLIC "-//W3C//DTD SVG 1.1//EN"
 "http://www.w3.org/Graphics/SVG/1.1/DTD/svg11.dtd">
<!-- Generated by graphviz version 2.43.0 (0)
 -->
<!-- Title: CallGraph Pages: 1 -->
<svg width="442pt" height="836pt"
 viewBox="0.00 0.00 441.50 836.00" xmlns="http://www.w3.org/2000/svg" xmlns:xlink="http://www.w3.org/1999/xlink">
<g id="graph0" class="graph" transform="scale(1 1) rotate(0) translate(4 832)">
<title>CallGraph</title>
<polygon fill="white" stroke="transparent" points="-4,4 -4,-832 437.5,-832 437.5,4 -4,4"/>
<!-- _Foo_set_x_ -->
<g id="node1" class="node">
<title>_Foo_set_x_</title>
<polygon fill="lightblue" stroke="white" points="228,-828 133,-828 133,-792 228,-792 228,-828"/>
<text text-anchor="middle" x="180.5" y="-806.3" font-family="Arial" font-size="14.00">_Foo_set_x_</text>
</g>
<!-- _Foo_initialize_x_ -->
<g id="node2" class="node">
<title>_Foo_initialize_x_</title>
<polygon fill="lightblue" stroke="white" points="125,-432 0,-432 0,-396 125,-396 125,-432"/>
<text text-anchor="middle" x="62.5" y="-410.3" font-family="Arial" font-size="14.00">_Foo_initialize_x_</text>
</g>
<!-- _Foo_set_x_&#45;&gt;_Foo_initialize_x_ -->
<g id="edge1" class="edge">
<title>_Foo_set_x_&#45;&gt;_Foo_initialize_x_</title>
<path fill="none" stroke="black" d="M175.35,-791.82C156.8,-729.86 93.23,-517.6 70.59,-442"/>
<polygon fill="black" stroke="black" points="73.9,-440.85 67.67,-432.27 67.19,-442.86 73.9,-440.85"/>
</g>
<!-- _Foo_perform_computations_ -->
<g id="node3" class="node">
<title>_Foo_perform_computations_</title>
<polygon fill="lightblue" stroke="white" points="433.5,-432 235.5,-432 235.5,-396 433.5,-396 433.5,-432"/>
<text text-anchor="middle" x="334.5" y="-410.3" font-family="Arial" font-size="14.00">_Foo_perform_computations_</text>
</g>
<!-- _Foo_set_x_&#45;&gt;_Foo_perform_computations_ -->
<g id="edge2" class="edge">
<title>_Foo_set_x_&#45;&gt;_Foo_perform_computations_</title>
<path fill="none" stroke="black" d="M187.22,-791.82C211.43,-729.86 294.4,-517.6 323.95,-442"/>
<polygon fill="black" stroke="black" points="327.37,-442.86 327.75,-432.27 320.85,-440.31 327.37,-442.86"/>
</g>
<!-- _Foo_inc_x_ -->
<g id="node4" class="node">
<title>_Foo_inc_x_</title>
<polygon fill="lightblue" stroke="white" points="232.5,-36 138.5,-36 138.5,0 232.5,0 232.5,-36"/>
<text text-anchor="middle" x="185.5" y="-14.3" font-family="Arial" font-size="14.00">_Foo_inc_x_</text>
</g>
<!-- _Foo_perform_computations_&#45;&gt;_Foo_inc_x_ -->
<g id="edge3" class="edge">
<title>_Foo_perform_computations_&#45;&gt;_Foo_inc_x_</title>
<path fill="none" stroke="black" d="M328,-395.82C304.57,-333.86 224.3,-121.6 195.71,-46"/>
<polygon fill="black" stroke="black" points="198.84,-44.39 192.03,-36.27 192.3,-46.87 198.84,-44.39"/>
</g>
<!-- _Foo_multiply_x_ -->
<g id="node5" class="node">
<title>_Foo_multiply_x_</title>
<polygon fill="lightblue" stroke="white" points="396,-36 273,-36 273,0 396,0 396,-36"/>
<text text-anchor="middle" x="334.5" y="-14.3" font-family="Arial" font-size="14.00">_Foo_multiply_x_</text>
</g>
<!-- _Foo_perform_computations_&#45;&gt;_Foo_multiply_x_ -->
<g id="edge4" class="edge">
<title>_Foo_perform_computations_&#45;&gt;_Foo_multiply_x_</title>
<path fill="none" stroke="black" d="M334.5,-395.82C334.5,-333.98 334.5,-122.47 334.5,-46.47"/>
<polygon fill="black" stroke="black" points="338,-46.27 334.5,-36.27 331,-46.27 338,-46.27"/>
</g>
<!-- _Foo_inc_x_&#45;&gt;_Foo_set_x_ -->
<g id="edge5" class="edge">
<title>_Foo_inc_x_&#45;&gt;_Foo_set_x_</title>
<path fill="none" stroke="black" d="M185.39,-36.01C184.75,-136.8 181.47,-655.6 180.67,-781.46"/>
<polygon fill="black" stroke="black" points="177.17,-781.74 180.61,-791.77 184.17,-781.79 177.17,-781.74"/>
</g>
</g>
</svg>
