<?xml version="1.0" encoding="UTF-8" standalone="no"?>
<!DOCTYPE svg PUBLIC "-//W3C//DTD SVG 1.1//EN"
 "http://www.w3.org/Graphics/SVG/1.1/DTD/svg11.dtd">
<!-- Generated by graphviz version 2.43.0 (0)
 -->
<!-- Title: CallGraph Pages: 1 -->
<svg width="5018pt" height="1289pt"
 viewBox="0.00 0.00 5018.00 1288.69" xmlns="http://www.w3.org/2000/svg" xmlns:xlink="http://www.w3.org/1999/xlink">
<g id="graph0" class="graph" transform="scale(1 1) rotate(0) translate(4 1284.69)">
<title>CallGraph</title>
<polygon fill="white" stroke="transparent" points="-4,4 -4,-1284.69 5014,-1284.69 5014,4 -4,4"/>
<!-- _GraphsController_create_ -->
<g id="node1" class="node">
<title>_GraphsController_create_</title>
<polygon fill="lightblue" stroke="white" points="386.5,-1224 206.5,-1224 206.5,-1188 386.5,-1188 386.5,-1224"/>
<text text-anchor="middle" x="296.5" y="-1202.3" font-family="Arial" font-size="14.00">_GraphsController_create_</text>
</g>
<!-- _GraphsController_consolidate_ -->
<g id="node2" class="node">
<title>_GraphsController_consolidate_</title>
<polygon fill="lightblue" stroke="white" points="376,-828 165,-828 165,-792 376,-792 376,-828"/>
<text text-anchor="middle" x="270.5" y="-806.3" font-family="Arial" font-size="14.00">_GraphsController_consolidate_</text>
</g>
<!-- _GraphsController_create_&#45;&gt;_GraphsController_consolidate_ -->
<g id="edge1" class="edge">
<title>_GraphsController_create_&#45;&gt;_GraphsController_consolidate_</title>
<path fill="none" stroke="black" d="M295.37,-1187.82C291.29,-1125.98 277.33,-914.47 272.31,-838.47"/>
<polygon fill="black" stroke="black" points="275.79,-838.02 271.64,-828.27 268.81,-838.48 275.79,-838.02"/>
</g>
<!-- _GraphsController_graph_params_ -->
<g id="node3" class="node">
<title>_GraphsController_graph_params_</title>
<polygon fill="lightblue" stroke="white" points="642.5,-828 412.5,-828 412.5,-792 642.5,-792 642.5,-828"/>
<text text-anchor="middle" x="527.5" y="-806.3" font-family="Arial" font-size="14.00">_GraphsController_graph_params_</text>
</g>
<!-- _GraphsController_create_&#45;&gt;_GraphsController_graph_params_ -->
<g id="edge2" class="edge">
<title>_GraphsController_create_&#45;&gt;_GraphsController_graph_params_</title>
<path fill="none" stroke="black" d="M306.57,-1187.82C343.05,-1125.6 468.37,-911.86 512.21,-837.08"/>
<polygon fill="black" stroke="black" points="515.33,-838.67 517.37,-828.27 509.3,-835.13 515.33,-838.67"/>
</g>
<!-- _Graph_directory_ -->
<g id="node4" class="node">
<title>_Graph_directory_</title>
<polygon fill="lightblue" stroke="white" points="129,-828 0,-828 0,-792 129,-792 129,-828"/>
<text text-anchor="middle" x="64.5" y="-806.3" font-family="Arial" font-size="14.00">_Graph_directory_</text>
</g>
<!-- _GraphsController_create_&#45;&gt;_Graph_directory_ -->
<g id="edge3" class="edge">
<title>_GraphsController_create_&#45;&gt;_Graph_directory_</title>
<path fill="none" stroke="black" d="M286.38,-1187.82C249.75,-1125.6 123.89,-911.86 79.86,-837.08"/>
<polygon fill="black" stroke="black" points="82.76,-835.11 74.67,-828.27 76.73,-838.67 82.76,-835.11"/>
</g>
<!-- _GraphsController_fill_errors_hash_ -->
<g id="node5" class="node">
<title>_GraphsController_fill_errors_hash_</title>
<polygon fill="lightblue" stroke="white" points="914,-828 679,-828 679,-792 914,-792 914,-828"/>
<text text-anchor="middle" x="796.5" y="-806.3" font-family="Arial" font-size="14.00">_GraphsController_fill_errors_hash_</text>
</g>
<!-- _GraphsController_create_&#45;&gt;_GraphsController_fill_errors_hash_ -->
<g id="edge4" class="edge">
<title>_GraphsController_create_&#45;&gt;_GraphsController_fill_errors_hash_</title>
<path fill="none" stroke="black" d="M318.31,-1187.82C398.23,-1124.84 675.24,-906.56 766.84,-834.38"/>
<polygon fill="black" stroke="black" points="769.17,-836.99 774.86,-828.05 764.84,-831.49 769.17,-836.99"/>
</g>
<!-- _GraphsController_update_ -->
<g id="node6" class="node">
<title>_GraphsController_update_</title>
<polygon fill="lightblue" stroke="white" points="867.5,-1224 683.5,-1224 683.5,-1188 867.5,-1188 867.5,-1224"/>
<text text-anchor="middle" x="775.5" y="-1202.3" font-family="Arial" font-size="14.00">_GraphsController_update_</text>
</g>
<!-- _GraphsController_update_&#45;&gt;_GraphsController_graph_params_ -->
<g id="edge5" class="edge">
<title>_GraphsController_update_&#45;&gt;_GraphsController_graph_params_</title>
<path fill="none" stroke="black" d="M764.68,-1187.82C725.53,-1125.6 590.99,-911.86 543.92,-837.08"/>
<polygon fill="black" stroke="black" points="546.66,-834.87 538.37,-828.27 540.74,-838.6 546.66,-834.87"/>
</g>
<!-- _GraphsController_update_&#45;&gt;_GraphsController_fill_errors_hash_ -->
<g id="edge6" class="edge">
<title>_GraphsController_update_&#45;&gt;_GraphsController_fill_errors_hash_</title>
<path fill="none" stroke="black" d="M776.42,-1187.82C779.71,-1125.98 790.99,-914.47 795.04,-838.47"/>
<polygon fill="black" stroke="black" points="798.54,-838.45 795.58,-828.27 791.55,-838.07 798.54,-838.45"/>
</g>
<!-- _GraphsController_format_for_bip_ -->
<g id="node7" class="node">
<title>_GraphsController_format_for_bip_</title>
<polygon fill="lightblue" stroke="white" points="1180.5,-828 950.5,-828 950.5,-792 1180.5,-792 1180.5,-828"/>
<text text-anchor="middle" x="1065.5" y="-806.3" font-family="Arial" font-size="14.00">_GraphsController_format_for_bip_</text>
</g>
<!-- _GraphsController_update_&#45;&gt;_GraphsController_format_for_bip_ -->
<g id="edge7" class="edge">
<title>_GraphsController_update_&#45;&gt;_GraphsController_format_for_bip_</title>
<path fill="none" stroke="black" d="M788.15,-1187.82C834.03,-1125.48 991.9,-910.99 1046.64,-836.63"/>
<polygon fill="black" stroke="black" points="1049.68,-838.4 1052.79,-828.27 1044.04,-834.25 1049.68,-838.4"/>
</g>
<!-- _GraphsController_generate_svg_ -->
<g id="node8" class="node">
<title>_GraphsController_generate_svg_</title>
<polygon fill="lightblue" stroke="white" points="1410.5,-1224 1186.5,-1224 1186.5,-1188 1410.5,-1188 1410.5,-1224"/>
<text text-anchor="middle" x="1298.5" y="-1202.3" font-family="Arial" font-size="14.00">_GraphsController_generate_svg_</text>
</g>
<!-- _GraphsController_svg_ -->
<g id="node9" class="node">
<title>_GraphsController_svg_</title>
<polygon fill="lightblue" stroke="white" points="1380.5,-828 1216.5,-828 1216.5,-792 1380.5,-792 1380.5,-828"/>
<text text-anchor="middle" x="1298.5" y="-806.3" font-family="Arial" font-size="14.00">_GraphsController_svg_</text>
</g>
<!-- _GraphsController_generate_svg_&#45;&gt;_GraphsController_svg_ -->
<g id="edge8" class="edge">
<title>_GraphsController_generate_svg_&#45;&gt;_GraphsController_svg_</title>
<path fill="none" stroke="black" d="M1298.5,-1187.82C1298.5,-1125.98 1298.5,-914.47 1298.5,-838.47"/>
<polygon fill="black" stroke="black" points="1302,-838.27 1298.5,-828.27 1295,-838.27 1302,-838.27"/>
</g>
<!-- _GraphsController_generate_all_svg_ -->
<g id="node10" class="node">
<title>_GraphsController_generate_all_svg_</title>
<polygon fill="lightblue" stroke="white" points="1952,-1224 1707,-1224 1707,-1188 1952,-1188 1952,-1224"/>
<text text-anchor="middle" x="1829.5" y="-1202.3" font-family="Arial" font-size="14.00">_GraphsController_generate_all_svg_</text>
</g>
<!-- _GraphsController_generate_all_svg_params_ -->
<g id="node11" class="node">
<title>_GraphsController_generate_all_svg_params_</title>
<polygon fill="lightblue" stroke="white" points="1716,-828 1417,-828 1417,-792 1716,-792 1716,-828"/>
<text text-anchor="middle" x="1566.5" y="-806.3" font-family="Arial" font-size="14.00">_GraphsController_generate_all_svg_params_</text>
</g>
<!-- _GraphsController_generate_all_svg_&#45;&gt;_GraphsController_generate_all_svg_params_ -->
<g id="edge9" class="edge">
<title>_GraphsController_generate_all_svg_&#45;&gt;_GraphsController_generate_all_svg_params_</title>
<path fill="none" stroke="black" d="M1818.03,-1187.82C1776.42,-1125.48 1633.24,-910.99 1583.61,-836.63"/>
<polygon fill="black" stroke="black" points="1586.49,-834.65 1578.03,-828.27 1580.67,-838.53 1586.49,-834.65"/>
</g>
<!-- _DocumentsController_author_ -->
<g id="node12" class="node">
<title>_DocumentsController_author_</title>
<polygon fill="lightblue" stroke="white" points="1957,-828 1752,-828 1752,-792 1957,-792 1957,-828"/>
<text text-anchor="middle" x="1854.5" y="-806.3" font-family="Arial" font-size="14.00">_DocumentsController_author_</text>
</g>
<!-- _GraphsController_generate_all_svg_&#45;&gt;_DocumentsController_author_ -->
<g id="edge10" class="edge">
<title>_GraphsController_generate_all_svg_&#45;&gt;_DocumentsController_author_</title>
<path fill="none" stroke="black" d="M1830.59,-1187.82C1834.51,-1125.98 1847.93,-914.47 1852.76,-838.47"/>
<polygon fill="black" stroke="black" points="1856.26,-838.48 1853.4,-828.27 1849.28,-838.03 1856.26,-838.48"/>
</g>
<!-- _GraphsController_author_ -->
<g id="node13" class="node">
<title>_GraphsController_author_</title>
<polygon fill="lightblue" stroke="white" points="2174,-828 1993,-828 1993,-792 2174,-792 2174,-828"/>
<text text-anchor="middle" x="2083.5" y="-806.3" font-family="Arial" font-size="14.00">_GraphsController_author_</text>
</g>
<!-- _GraphsController_generate_all_svg_&#45;&gt;_GraphsController_author_ -->
<g id="edge11" class="edge">
<title>_GraphsController_generate_all_svg_&#45;&gt;_GraphsController_author_</title>
<path fill="none" stroke="black" d="M1840.58,-1187.82C1880.68,-1125.6 2018.48,-911.86 2066.69,-837.08"/>
<polygon fill="black" stroke="black" points="2069.89,-838.57 2072.36,-828.27 2064,-834.78 2069.89,-838.57"/>
</g>
<!-- _GraphsController_isParamAsArrayOfInteger_ -->
<g id="node33" class="node">
<title>_GraphsController_isParamAsArrayOfInteger_</title>
<polygon fill="lightblue" stroke="white" points="1715.5,-432 1417.5,-432 1417.5,-396 1715.5,-396 1715.5,-432"/>
<text text-anchor="middle" x="1566.5" y="-410.3" font-family="Arial" font-size="14.00">_GraphsController_isParamAsArrayOfInteger_</text>
</g>
<!-- _GraphsController_generate_all_svg_params_&#45;&gt;_GraphsController_isParamAsArrayOfInteger_ -->
<g id="edge33" class="edge">
<title>_GraphsController_generate_all_svg_params_&#45;&gt;_GraphsController_isParamAsArrayOfInteger_</title>
<path fill="none" stroke="black" d="M1566.5,-791.82C1566.5,-729.98 1566.5,-518.47 1566.5,-442.47"/>
<polygon fill="black" stroke="black" points="1570,-442.27 1566.5,-432.27 1563,-442.27 1570,-442.27"/>
</g>
<!-- _GraphsController_save_ -->
<g id="node14" class="node">
<title>_GraphsController_save_</title>
<polygon fill="lightblue" stroke="white" points="4151,-1224 3980,-1224 3980,-1188 4151,-1188 4151,-1224"/>
<text text-anchor="middle" x="4065.5" y="-1202.3" font-family="Arial" font-size="14.00">_GraphsController_save_</text>
</g>
<!-- _ExternalUsersService_parse_ -->
<g id="node15" class="node">
<title>_ExternalUsersService_parse_</title>
<polygon fill="lightblue" stroke="white" points="3408,-828 3205,-828 3205,-792 3408,-792 3408,-828"/>
<text text-anchor="middle" x="3306.5" y="-806.3" font-family="Arial" font-size="14.00">_ExternalUsersService_parse_</text>
</g>
<!-- _GraphsController_save_&#45;&gt;_ExternalUsersService_parse_ -->
<g id="edge12" class="edge">
<title>_GraphsController_save_&#45;&gt;_ExternalUsersService_parse_</title>
<path fill="none" stroke="black" d="M4032.4,-1187.82C3910.09,-1124.33 3483.78,-903.03 3348.22,-832.66"/>
<polygon fill="black" stroke="black" points="3349.84,-829.55 3339.35,-828.05 3346.61,-835.77 3349.84,-829.55"/>
</g>
<!-- _SsoUsersService_parse_ -->
<g id="node16" class="node">
<title>_SsoUsersService_parse_</title>
<polygon fill="lightblue" stroke="white" points="3620.5,-828 3444.5,-828 3444.5,-792 3620.5,-792 3620.5,-828"/>
<text text-anchor="middle" x="3532.5" y="-806.3" font-family="Arial" font-size="14.00">_SsoUsersService_parse_</text>
</g>
<!-- _GraphsController_save_&#45;&gt;_SsoUsersService_parse_ -->
<g id="edge13" class="edge">
<title>_GraphsController_save_&#45;&gt;_SsoUsersService_parse_</title>
<path fill="none" stroke="black" d="M4042.25,-1187.82C3956.97,-1124.77 3661.17,-906.12 3563.83,-834.16"/>
<polygon fill="black" stroke="black" points="3565.69,-831.18 3555.57,-828.05 3561.53,-836.81 3565.69,-831.18"/>
</g>
<!-- _GraphsController_bad_save_request_ -->
<g id="node17" class="node">
<title>_GraphsController_bad_save_request_</title>
<polygon fill="lightblue" stroke="white" points="4192.5,-828 3938.5,-828 3938.5,-792 4192.5,-792 4192.5,-828"/>
<text text-anchor="middle" x="4065.5" y="-806.3" font-family="Arial" font-size="14.00">_GraphsController_bad_save_request_</text>
</g>
<!-- _GraphsController_save_&#45;&gt;_GraphsController_bad_save_request_ -->
<g id="edge14" class="edge">
<title>_GraphsController_save_&#45;&gt;_GraphsController_bad_save_request_</title>
<path fill="none" stroke="black" d="M4065.5,-1187.82C4065.5,-1125.98 4065.5,-914.47 4065.5,-838.47"/>
<polygon fill="black" stroke="black" points="4069,-838.27 4065.5,-828.27 4062,-838.27 4069,-838.27"/>
</g>
<!-- _GraphsController_handle_bad_save_request_ -->
<g id="node18" class="node">
<title>_GraphsController_handle_bad_save_request_</title>
<polygon fill="lightblue" stroke="white" points="4604.5,-828 4302.5,-828 4302.5,-792 4604.5,-792 4604.5,-828"/>
<text text-anchor="middle" x="4453.5" y="-806.3" font-family="Arial" font-size="14.00">_GraphsController_handle_bad_save_request_</text>
</g>
<!-- _GraphsController_save_&#45;&gt;_GraphsController_handle_bad_save_request_ -->
<g id="edge15" class="edge">
<title>_GraphsController_save_&#45;&gt;_GraphsController_handle_bad_save_request_</title>
<path fill="none" stroke="black" d="M4082.42,-1187.82C4144.06,-1125.22 4356.75,-909.24 4429.15,-835.73"/>
<polygon fill="black" stroke="black" points="4431.97,-837.85 4436.49,-828.27 4426.98,-832.94 4431.97,-837.85"/>
</g>
<!-- _GraphsController_save_element_ -->
<g id="node19" class="node">
<title>_GraphsController_save_element_</title>
<polygon fill="lightblue" stroke="white" points="3884,-828 3657,-828 3657,-792 3884,-792 3884,-828"/>
<text text-anchor="middle" x="3770.5" y="-806.3" font-family="Arial" font-size="14.00">_GraphsController_save_element_</text>
</g>
<!-- _GraphsController_save_&#45;&gt;_GraphsController_save_element_ -->
<g id="edge16" class="edge">
<title>_GraphsController_save_&#45;&gt;_GraphsController_save_element_</title>
<path fill="none" stroke="black" d="M4052.63,-1187.82C4005.96,-1125.48 3845.37,-910.99 3789.69,-836.63"/>
<polygon fill="black" stroke="black" points="3792.23,-834.18 3783.43,-828.27 3786.63,-838.38 3792.23,-834.18"/>
</g>
<!-- _GraphsController_get_graph_elements_ -->
<g id="node20" class="node">
<title>_GraphsController_get_graph_elements_</title>
<polygon fill="lightblue" stroke="white" points="4497.5,-432 4231.5,-432 4231.5,-396 4497.5,-396 4497.5,-432"/>
<text text-anchor="middle" x="4364.5" y="-410.3" font-family="Arial" font-size="14.00">_GraphsController_get_graph_elements_</text>
</g>
<!-- _GraphsController_save_&#45;&gt;_GraphsController_get_graph_elements_ -->
<g id="edge17" class="edge">
<title>_GraphsController_save_&#45;&gt;_GraphsController_get_graph_elements_</title>
<path fill="none" stroke="black" d="M4072.21,-1187.74C4092.96,-1134.33 4157.84,-967.03 4210.5,-828 4265.56,-682.63 4330.2,-507.93 4354.55,-441.97"/>
<polygon fill="black" stroke="black" points="4357.93,-442.93 4358.11,-432.34 4351.36,-440.5 4357.93,-442.93"/>
</g>
<!-- _GraphsController_get_customer_colors_ -->
<g id="node21" class="node">
<title>_GraphsController_get_customer_colors_</title>
<polygon fill="lightblue" stroke="white" points="4803,-432 4534,-432 4534,-396 4803,-396 4803,-432"/>
<text text-anchor="middle" x="4668.5" y="-410.3" font-family="Arial" font-size="14.00">_GraphsController_get_customer_colors_</text>
</g>
<!-- _GraphsController_save_&#45;&gt;_GraphsController_get_customer_colors_ -->
<g id="edge18" class="edge">
<title>_GraphsController_save_&#45;&gt;_GraphsController_get_customer_colors_</title>
<path fill="none" stroke="black" d="M4115.2,-1187.94C4227.67,-1146.44 4501.31,-1028.65 4622.5,-828 4698.98,-701.38 4682.46,-512.67 4672.85,-442.54"/>
<polygon fill="black" stroke="black" points="4676.27,-441.73 4671.38,-432.33 4669.34,-442.72 4676.27,-441.73"/>
</g>
<!-- _GraphsController_handle_bad_save_request_&#45;&gt;_GraphsController_get_graph_elements_ -->
<g id="edge36" class="edge">
<title>_GraphsController_handle_bad_save_request_&#45;&gt;_GraphsController_get_graph_elements_</title>
<path fill="none" stroke="black" d="M4449.62,-791.82C4435.65,-729.98 4387.87,-518.47 4370.7,-442.47"/>
<polygon fill="black" stroke="black" points="4374.02,-441.26 4368.4,-432.27 4367.19,-442.8 4374.02,-441.26"/>
</g>
<!-- _GraphsController_handle_bad_save_request_&#45;&gt;_GraphsController_get_customer_colors_ -->
<g id="edge37" class="edge">
<title>_GraphsController_handle_bad_save_request_&#45;&gt;_GraphsController_get_customer_colors_</title>
<path fill="none" stroke="black" d="M4462.88,-791.82C4496.82,-729.6 4613.46,-515.86 4654.27,-441.08"/>
<polygon fill="black" stroke="black" points="4657.36,-442.73 4659.07,-432.27 4651.21,-439.38 4657.36,-442.73"/>
</g>
<!-- _GraphsController_save_element_&#45;&gt;_GraphsController_save_element_ -->
<g id="edge38" class="edge">
<title>_GraphsController_save_element_&#45;&gt;_GraphsController_save_element_</title>
<path fill="none" stroke="black" d="M3780.88,-828.16C3832.95,-908.58 3920,-902.52 3920,-810 3920,-720.91 3839.29,-711.99 3786.81,-783.24"/>
<polygon fill="black" stroke="black" points="3783.68,-781.62 3780.88,-791.84 3789.44,-785.6 3783.68,-781.62"/>
</g>
<!-- _GraphsController_update_arrows_from_to_ -->
<g id="node36" class="node">
<title>_GraphsController_update_arrows_from_to_</title>
<polygon fill="lightblue" stroke="white" points="3583.5,-432 3297.5,-432 3297.5,-396 3583.5,-396 3583.5,-432"/>
<text text-anchor="middle" x="3440.5" y="-410.3" font-family="Arial" font-size="14.00">_GraphsController_update_arrows_from_to_</text>
</g>
<!-- _GraphsController_save_element_&#45;&gt;_GraphsController_update_arrows_from_to_ -->
<g id="edge39" class="edge">
<title>_GraphsController_save_element_&#45;&gt;_GraphsController_update_arrows_from_to_</title>
<path fill="none" stroke="black" d="M3756.11,-791.82C3703.79,-729.35 3523.52,-514.12 3461.59,-440.18"/>
<polygon fill="black" stroke="black" points="3464.07,-437.69 3454.97,-432.27 3458.71,-442.19 3464.07,-437.69"/>
</g>
<!-- _GraphsController_update_lanes_from_to_ -->
<g id="node37" class="node">
<title>_GraphsController_update_lanes_from_to_</title>
<polygon fill="lightblue" stroke="white" points="3261.5,-432 2983.5,-432 2983.5,-396 3261.5,-396 3261.5,-432"/>
<text text-anchor="middle" x="3122.5" y="-410.3" font-family="Arial" font-size="14.00">_GraphsController_update_lanes_from_to_</text>
</g>
<!-- _GraphsController_save_element_&#45;&gt;_GraphsController_update_lanes_from_to_ -->
<g id="edge40" class="edge">
<title>_GraphsController_save_element_&#45;&gt;_GraphsController_update_lanes_from_to_</title>
<path fill="none" stroke="black" d="M3742.24,-791.82C3638.13,-728.52 3276.04,-508.35 3159.17,-437.3"/>
<polygon fill="black" stroke="black" points="3160.91,-434.26 3150.54,-432.05 3157.27,-440.24 3160.91,-434.26"/>
</g>
<!-- _GraphsController_update_pastilles_from_to_ -->
<g id="node38" class="node">
<title>_GraphsController_update_pastilles_from_to_</title>
<polygon fill="lightblue" stroke="white" points="3913.5,-432 3619.5,-432 3619.5,-396 3913.5,-396 3913.5,-432"/>
<text text-anchor="middle" x="3766.5" y="-410.3" font-family="Arial" font-size="14.00">_GraphsController_update_pastilles_from_to_</text>
</g>
<!-- _GraphsController_save_element_&#45;&gt;_GraphsController_update_pastilles_from_to_ -->
<g id="edge41" class="edge">
<title>_GraphsController_save_element_&#45;&gt;_GraphsController_update_pastilles_from_to_</title>
<path fill="none" stroke="black" d="M3770.33,-791.82C3769.7,-729.98 3767.55,-518.47 3766.78,-442.47"/>
<polygon fill="black" stroke="black" points="3770.28,-442.24 3766.68,-432.27 3763.28,-442.31 3770.28,-442.24"/>
</g>
<!-- _GraphsController_validate_element_ -->
<g id="node39" class="node">
<title>_GraphsController_validate_element_</title>
<polygon fill="lightblue" stroke="white" points="4195,-432 3950,-432 3950,-396 4195,-396 4195,-432"/>
<text text-anchor="middle" x="4072.5" y="-410.3" font-family="Arial" font-size="14.00">_GraphsController_validate_element_</text>
</g>
<!-- _GraphsController_save_element_&#45;&gt;_GraphsController_validate_element_ -->
<g id="edge42" class="edge">
<title>_GraphsController_save_element_&#45;&gt;_GraphsController_validate_element_</title>
<path fill="none" stroke="black" d="M3783.67,-791.82C3831.45,-729.48 3995.86,-514.99 4052.86,-440.63"/>
<polygon fill="black" stroke="black" points="4055.95,-442.34 4059.26,-432.27 4050.4,-438.08 4055.95,-442.34"/>
</g>
<!-- _SearchController_all_ -->
<g id="node34" class="node">
<title>_SearchController_all_</title>
<polygon fill="lightblue" stroke="white" points="4643.5,-36 4489.5,-36 4489.5,0 4643.5,0 4643.5,-36"/>
<text text-anchor="middle" x="4566.5" y="-14.3" font-family="Arial" font-size="14.00">_SearchController_all_</text>
</g>
<!-- _GraphsController_get_customer_colors_&#45;&gt;_SearchController_all_ -->
<g id="edge34" class="edge">
<title>_GraphsController_get_customer_colors_&#45;&gt;_SearchController_all_</title>
<path fill="none" stroke="black" d="M4664.05,-395.82C4648.01,-333.86 4593.06,-121.6 4573.49,-46"/>
<polygon fill="black" stroke="black" points="4576.87,-45.08 4570.97,-36.27 4570.09,-46.83 4576.87,-45.08"/>
</g>
<!-- _SettingsController_colors_ -->
<g id="node35" class="node">
<title>_SettingsController_colors_</title>
<polygon fill="lightblue" stroke="white" points="4861.5,-36 4679.5,-36 4679.5,0 4861.5,0 4861.5,-36"/>
<text text-anchor="middle" x="4770.5" y="-14.3" font-family="Arial" font-size="14.00">_SettingsController_colors_</text>
</g>
<!-- _GraphsController_get_customer_colors_&#45;&gt;_SettingsController_colors_ -->
<g id="edge35" class="edge">
<title>_GraphsController_get_customer_colors_&#45;&gt;_SettingsController_colors_</title>
<path fill="none" stroke="black" d="M4672.95,-395.82C4688.99,-333.86 4743.94,-121.6 4763.51,-46"/>
<polygon fill="black" stroke="black" points="4766.91,-46.83 4766.03,-36.27 4760.13,-45.08 4766.91,-46.83"/>
</g>
<!-- _GraphsController_move_graph_ -->
<g id="node22" class="node">
<title>_GraphsController_move_graph_</title>
<polygon fill="lightblue" stroke="white" points="1121.5,-1224 903.5,-1224 903.5,-1188 1121.5,-1188 1121.5,-1224"/>
<text text-anchor="middle" x="1012.5" y="-1202.3" font-family="Arial" font-size="14.00">_GraphsController_move_graph_</text>
</g>
<!-- _GraphsController_move_graph_&#45;&gt;_GraphsController_fill_errors_hash_ -->
<g id="edge19" class="edge">
<title>_GraphsController_move_graph_&#45;&gt;_GraphsController_fill_errors_hash_</title>
<path fill="none" stroke="black" d="M1003.08,-1187.82C968.97,-1125.6 851.79,-911.86 810.8,-837.08"/>
<polygon fill="black" stroke="black" points="813.85,-835.36 805.97,-828.27 807.71,-838.72 813.85,-835.36"/>
</g>
<!-- _GraphsController_update_tags_ -->
<g id="node23" class="node">
<title>_GraphsController_update_tags_</title>
<polygon fill="lightblue" stroke="white" points="3528,-1224 3311,-1224 3311,-1188 3528,-1188 3528,-1224"/>
<text text-anchor="middle" x="3419.5" y="-1202.3" font-family="Arial" font-size="14.00">_GraphsController_update_tags_</text>
</g>
<!-- _GraphsController_update_tags_&#45;&gt;_ExternalUsersService_parse_ -->
<g id="edge20" class="edge">
<title>_GraphsController_update_tags_&#45;&gt;_ExternalUsersService_parse_</title>
<path fill="none" stroke="black" d="M3414.57,-1187.82C3396.8,-1125.86 3335.93,-913.6 3314.24,-838"/>
<polygon fill="black" stroke="black" points="3317.58,-836.92 3311.45,-828.27 3310.85,-838.85 3317.58,-836.92"/>
</g>
<!-- _GraphsController_update_tags_&#45;&gt;_SsoUsersService_parse_ -->
<g id="edge21" class="edge">
<title>_GraphsController_update_tags_&#45;&gt;_SsoUsersService_parse_</title>
<path fill="none" stroke="black" d="M3424.43,-1187.82C3442.2,-1125.86 3503.07,-913.6 3524.76,-838"/>
<polygon fill="black" stroke="black" points="3528.15,-838.85 3527.55,-828.27 3521.42,-836.92 3528.15,-838.85"/>
</g>
<!-- _GraphsController_deactivate_ -->
<g id="node24" class="node">
<title>_GraphsController_deactivate_</title>
<polygon fill="lightblue" stroke="white" points="3274.5,-1224 3070.5,-1224 3070.5,-1188 3274.5,-1188 3274.5,-1224"/>
<text text-anchor="middle" x="3172.5" y="-1202.3" font-family="Arial" font-size="14.00">_GraphsController_deactivate_</text>
</g>
<!-- _GraphsController_wf_entity_state_to_partial_ -->
<g id="node25" class="node">
<title>_GraphsController_wf_entity_state_to_partial_</title>
<polygon fill="lightblue" stroke="white" points="2781.5,-828 2485.5,-828 2485.5,-792 2781.5,-792 2781.5,-828"/>
<text text-anchor="middle" x="2633.5" y="-806.3" font-family="Arial" font-size="14.00">_GraphsController_wf_entity_state_to_partial_</text>
</g>
<!-- _GraphsController_deactivate_&#45;&gt;_GraphsController_wf_entity_state_to_partial_ -->
<g id="edge22" class="edge">
<title>_GraphsController_deactivate_&#45;&gt;_GraphsController_wf_entity_state_to_partial_</title>
<path fill="none" stroke="black" d="M3148.99,-1187.82C3062.75,-1124.77 2763.62,-906.12 2665.18,-834.16"/>
<polygon fill="black" stroke="black" points="2666.97,-831.13 2656.83,-828.05 2662.83,-836.78 2666.97,-831.13"/>
</g>
<!-- _GraphsController_activate_ -->
<g id="node26" class="node">
<title>_GraphsController_activate_</title>
<polygon fill="lightblue" stroke="white" points="2404,-1224 2215,-1224 2215,-1188 2404,-1188 2404,-1224"/>
<text text-anchor="middle" x="2309.5" y="-1202.3" font-family="Arial" font-size="14.00">_GraphsController_activate_</text>
</g>
<!-- _GraphsController_activate_&#45;&gt;_GraphsController_wf_entity_state_to_partial_ -->
<g id="edge23" class="edge">
<title>_GraphsController_activate_&#45;&gt;_GraphsController_wf_entity_state_to_partial_</title>
<path fill="none" stroke="black" d="M2323.63,-1187.82C2375,-1125.35 2551.99,-910.12 2612.8,-836.18"/>
<polygon fill="black" stroke="black" points="2615.65,-838.22 2619.3,-828.27 2610.24,-833.77 2615.65,-838.22"/>
</g>
<!-- _GraphsController_start_wf_ -->
<g id="node27" class="node">
<title>_GraphsController_start_wf_</title>
<polygon fill="lightblue" stroke="white" points="2178.5,-1224 1988.5,-1224 1988.5,-1188 2178.5,-1188 2178.5,-1224"/>
<text text-anchor="middle" x="2083.5" y="-1202.3" font-family="Arial" font-size="14.00">_GraphsController_start_wf_</text>
</g>
<!-- _GraphsController_start_wf_&#45;&gt;_DocumentsController_author_ -->
<g id="edge24" class="edge">
<title>_GraphsController_start_wf_&#45;&gt;_DocumentsController_author_</title>
<path fill="none" stroke="black" d="M2073.51,-1187.82C2037.35,-1125.6 1913.12,-911.86 1869.66,-837.08"/>
<polygon fill="black" stroke="black" points="1872.59,-835.16 1864.54,-828.27 1866.54,-838.68 1872.59,-835.16"/>
</g>
<!-- _GraphsController_start_wf_&#45;&gt;_GraphsController_author_ -->
<g id="edge25" class="edge">
<title>_GraphsController_start_wf_&#45;&gt;_GraphsController_author_</title>
<path fill="none" stroke="black" d="M2083.5,-1187.82C2083.5,-1125.98 2083.5,-914.47 2083.5,-838.47"/>
<polygon fill="black" stroke="black" points="2087,-838.27 2083.5,-828.27 2080,-838.27 2087,-838.27"/>
</g>
<!-- _GraphsController_start_wf_&#45;&gt;_GraphsController_wf_entity_state_to_partial_ -->
<g id="edge26" class="edge">
<title>_GraphsController_start_wf_&#45;&gt;_GraphsController_wf_entity_state_to_partial_</title>
<path fill="none" stroke="black" d="M2107.49,-1187.82C2195.58,-1124.71 2501.34,-905.68 2601.48,-833.94"/>
<polygon fill="black" stroke="black" points="2603.61,-836.72 2609.7,-828.05 2599.53,-831.03 2603.61,-836.72"/>
</g>
<!-- _GraphsController_reset_ -->
<g id="node28" class="node">
<title>_GraphsController_reset_</title>
<polygon fill="lightblue" stroke="white" points="2613,-1224 2440,-1224 2440,-1188 2613,-1188 2613,-1224"/>
<text text-anchor="middle" x="2526.5" y="-1202.3" font-family="Arial" font-size="14.00">_GraphsController_reset_</text>
</g>
<!-- _GraphsController_reset_&#45;&gt;_GraphsController_wf_entity_state_to_partial_ -->
<g id="edge27" class="edge">
<title>_GraphsController_reset_&#45;&gt;_GraphsController_wf_entity_state_to_partial_</title>
<path fill="none" stroke="black" d="M2531.17,-1187.82C2547.99,-1125.86 2605.64,-913.6 2626.17,-838"/>
<polygon fill="black" stroke="black" points="2629.57,-838.84 2628.81,-828.27 2622.81,-837.01 2629.57,-838.84"/>
</g>
<!-- _GraphsController_duplicate_ -->
<g id="node29" class="node">
<title>_GraphsController_duplicate_</title>
<polygon fill="lightblue" stroke="white" points="636,-1224 439,-1224 439,-1188 636,-1188 636,-1224"/>
<text text-anchor="middle" x="537.5" y="-1202.3" font-family="Arial" font-size="14.00">_GraphsController_duplicate_</text>
</g>
<!-- _GraphsController_duplicate_&#45;&gt;_GraphsController_graph_params_ -->
<g id="edge28" class="edge">
<title>_GraphsController_duplicate_&#45;&gt;_GraphsController_graph_params_</title>
<path fill="none" stroke="black" d="M537.06,-1187.82C535.49,-1125.98 530.13,-914.47 528.2,-838.47"/>
<polygon fill="black" stroke="black" points="531.69,-838.18 527.94,-828.27 524.69,-838.36 531.69,-838.18"/>
</g>
<!-- _GraphsController_duplicate_&#45;&gt;_GraphsController_fill_errors_hash_ -->
<g id="edge29" class="edge">
<title>_GraphsController_duplicate_&#45;&gt;_GraphsController_fill_errors_hash_</title>
<path fill="none" stroke="black" d="M548.8,-1187.82C589.69,-1125.6 730.2,-911.86 779.35,-837.08"/>
<polygon fill="black" stroke="black" points="782.58,-838.55 785.15,-828.27 776.73,-834.71 782.58,-838.55"/>
</g>
<!-- _GraphsController_unlock_ -->
<g id="node30" class="node">
<title>_GraphsController_unlock_</title>
<polygon fill="lightblue" stroke="white" points="2831.5,-1224 2649.5,-1224 2649.5,-1188 2831.5,-1188 2831.5,-1224"/>
<text text-anchor="middle" x="2740.5" y="-1202.3" font-family="Arial" font-size="14.00">_GraphsController_unlock_</text>
</g>
<!-- _GraphsController_unlock_&#45;&gt;_GraphsController_wf_entity_state_to_partial_ -->
<g id="edge30" class="edge">
<title>_GraphsController_unlock_&#45;&gt;_GraphsController_wf_entity_state_to_partial_</title>
<path fill="none" stroke="black" d="M2735.83,-1187.82C2719.01,-1125.86 2661.36,-913.6 2640.83,-838"/>
<polygon fill="black" stroke="black" points="2644.19,-837.01 2638.19,-828.27 2637.43,-838.84 2644.19,-837.01"/>
</g>
<!-- _GraphsController_lock_ -->
<g id="node31" class="node">
<title>_GraphsController_lock_</title>
<polygon fill="lightblue" stroke="white" points="3035,-1224 2868,-1224 2868,-1188 3035,-1188 3035,-1224"/>
<text text-anchor="middle" x="2951.5" y="-1202.3" font-family="Arial" font-size="14.00">_GraphsController_lock_</text>
</g>
<!-- _GraphsController_lock_&#45;&gt;_GraphsController_wf_entity_state_to_partial_ -->
<g id="edge31" class="edge">
<title>_GraphsController_lock_&#45;&gt;_GraphsController_wf_entity_state_to_partial_</title>
<path fill="none" stroke="black" d="M2937.63,-1187.82C2887.21,-1125.35 2713.5,-910.12 2653.82,-836.18"/>
<polygon fill="black" stroke="black" points="2656.45,-833.86 2647.44,-828.27 2651,-838.25 2656.45,-833.86"/>
</g>
<!-- _GraphsController_steps_ -->
<g id="node32" class="node">
<title>_GraphsController_steps_</title>
<polygon fill="lightblue" stroke="white" points="4495,-1224 4320,-1224 4320,-1188 4495,-1188 4495,-1224"/>
<text text-anchor="middle" x="4407.5" y="-1202.3" font-family="Arial" font-size="14.00">_GraphsController_steps_</text>
</g>
<!-- _GraphsController_steps_&#45;&gt;_GraphsController_steps_ -->
<g id="edge32" class="edge">
<title>_GraphsController_steps_&#45;&gt;_GraphsController_steps_</title>
<path fill="none" stroke="black" d="M4416.07,-1224.16C4459.09,-1304.58 4531,-1298.52 4531,-1206 4531,-1117.09 4464.6,-1108.03 4421.24,-1178.81"/>
<polygon fill="black" stroke="black" points="4418,-1177.42 4416.07,-1187.84 4424.08,-1180.9 4418,-1177.42"/>
</g>
<!-- _GraphsController_require_graph_in_accept_state_ -->
<g id="node40" class="node">
<title>_GraphsController_require_graph_in_accept_state_</title>
<polygon fill="lightblue" stroke="white" points="5010,-1224 4681,-1224 4681,-1188 5010,-1188 5010,-1224"/>
<text text-anchor="middle" x="4845.5" y="-1202.3" font-family="Arial" font-size="14.00">_GraphsController_require_graph_in_accept_state_</text>
</g>
<!-- _GraphsController_graph_unlockable_ -->
<g id="node41" class="node">
<title>_GraphsController_graph_unlockable_</title>
<polygon fill="lightblue" stroke="white" points="4970,-828 4721,-828 4721,-792 4970,-792 4970,-828"/>
<text text-anchor="middle" x="4845.5" y="-806.3" font-family="Arial" font-size="14.00">_GraphsController_graph_unlockable_</text>
</g>
<!-- _GraphsController_require_graph_in_accept_state_&#45;&gt;_GraphsController_graph_unlockable_ -->
<g id="edge43" class="edge">
<title>_GraphsController_require_graph_in_accept_state_&#45;&gt;_GraphsController_graph_unlockable_</title>
<path fill="none" stroke="black" d="M4845.5,-1187.82C4845.5,-1125.98 4845.5,-914.47 4845.5,-838.47"/>
<polygon fill="black" stroke="black" points="4849,-838.27 4845.5,-828.27 4842,-838.27 4849,-838.27"/>
</g>
</g>
</svg>
