<?xml version="1.0" encoding="UTF-8" standalone="no"?>
<!DOCTYPE svg PUBLIC "-//W3C//DTD SVG 1.1//EN"
 "http://www.w3.org/Graphics/SVG/1.1/DTD/svg11.dtd">
<!-- Generated by graphviz version 2.43.0 (0)
 -->
<!-- Title: CallGraph Pages: 1 -->
<svg width="380pt" height="440pt"
 viewBox="0.00 0.00 380.00 440.00" xmlns="http://www.w3.org/2000/svg" xmlns:xlink="http://www.w3.org/1999/xlink">
<g id="graph0" class="graph" transform="scale(1 1) rotate(0) translate(4 436)">
<title>CallGraph</title>
<polygon fill="white" stroke="transparent" points="-4,4 -4,-436 376,-436 376,4 -4,4"/>
<!-- _GraphBackgroundsController_new_ -->
<g id="node1" class="node">
<title>_GraphBackgroundsController_new_</title>
<polygon fill="lightblue" stroke="white" points="298.5,-432 59.5,-432 59.5,-396 298.5,-396 298.5,-432"/>
<text text-anchor="middle" x="179" y="-410.3" font-family="Arial" font-size="14.00">_GraphBackgroundsController_new_</text>
</g>
<!-- _SearchController_all_ -->
<g id="node2" class="node">
<title>_SearchController_all_</title>
<polygon fill="lightblue" stroke="white" points="154,-36 0,-36 0,0 154,0 154,-36"/>
<text text-anchor="middle" x="77" y="-14.3" font-family="Arial" font-size="14.00">_SearchController_all_</text>
</g>
<!-- _GraphBackgroundsController_new_&#45;&gt;_SearchController_all_ -->
<g id="edge1" class="edge">
<title>_GraphBackgroundsController_new_&#45;&gt;_SearchController_all_</title>
<path fill="none" stroke="black" d="M174.55,-395.82C158.51,-333.86 103.56,-121.6 83.99,-46"/>
<polygon fill="black" stroke="black" points="87.37,-45.08 81.47,-36.27 80.59,-46.83 87.37,-45.08"/>
</g>
<!-- _SettingsController_colors_ -->
<g id="node3" class="node">
<title>_SettingsController_colors_</title>
<polygon fill="lightblue" stroke="white" points="372,-36 190,-36 190,0 372,0 372,-36"/>
<text text-anchor="middle" x="281" y="-14.3" font-family="Arial" font-size="14.00">_SettingsController_colors_</text>
</g>
<!-- _GraphBackgroundsController_new_&#45;&gt;_SettingsController_colors_ -->
<g id="edge2" class="edge">
<title>_GraphBackgroundsController_new_&#45;&gt;_SettingsController_colors_</title>
<path fill="none" stroke="black" d="M183.45,-395.82C199.49,-333.86 254.44,-121.6 274.01,-46"/>
<polygon fill="black" stroke="black" points="277.41,-46.83 276.53,-36.27 270.63,-45.08 277.41,-46.83"/>
</g>
</g>
</svg>
