<?xml version="1.0" encoding="UTF-8" standalone="no"?>
<!DOCTYPE svg PUBLIC "-//W3C//DTD SVG 1.1//EN"
 "http://www.w3.org/Graphics/SVG/1.1/DTD/svg11.dtd">
<!-- Generated by graphviz version 2.43.0 (0)
 -->
<!-- Title: CallGraph Pages: 1 -->
<svg width="510pt" height="1232pt"
 viewBox="0.00 0.00 510.00 1232.00" xmlns="http://www.w3.org/2000/svg" xmlns:xlink="http://www.w3.org/1999/xlink">
<g id="graph0" class="graph" transform="scale(1 1) rotate(0) translate(4 1228)">
<title>CallGraph</title>
<polygon fill="white" stroke="transparent" points="-4,4 -4,-1228 506,-1228 506,4 -4,4"/>
<!-- _GraphqlController_execute_ -->
<g id="node1" class="node">
<title>_GraphqlController_execute_</title>
<polygon fill="lightblue" stroke="white" points="346,-1224 152,-1224 152,-1188 346,-1188 346,-1224"/>
<text text-anchor="middle" x="249" y="-1202.3" font-family="Arial" font-size="14.00">_GraphqlController_execute_</text>
</g>
<!-- _GraphqlController_execute_multi_ -->
<g id="node2" class="node">
<title>_GraphqlController_execute_multi_</title>
<polygon fill="lightblue" stroke="white" points="230,-828 0,-828 0,-792 230,-792 230,-828"/>
<text text-anchor="middle" x="115" y="-806.3" font-family="Arial" font-size="14.00">_GraphqlController_execute_multi_</text>
</g>
<!-- _GraphqlController_execute_&#45;&gt;_GraphqlController_execute_multi_ -->
<g id="edge1" class="edge">
<title>_GraphqlController_execute_&#45;&gt;_GraphqlController_execute_multi_</title>
<path fill="none" stroke="black" d="M243.16,-1187.82C222.08,-1125.86 149.89,-913.6 124.18,-838"/>
<polygon fill="black" stroke="black" points="127.41,-836.61 120.87,-828.27 120.78,-838.87 127.41,-836.61"/>
</g>
<!-- _GraphqlController_execute_single_ -->
<g id="node3" class="node">
<title>_GraphqlController_execute_single_</title>
<polygon fill="lightblue" stroke="white" points="502,-828 266,-828 266,-792 502,-792 502,-828"/>
<text text-anchor="middle" x="384" y="-806.3" font-family="Arial" font-size="14.00">_GraphqlController_execute_single_</text>
</g>
<!-- _GraphqlController_execute_&#45;&gt;_GraphqlController_execute_single_ -->
<g id="edge2" class="edge">
<title>_GraphqlController_execute_&#45;&gt;_GraphqlController_execute_single_</title>
<path fill="none" stroke="black" d="M254.89,-1187.82C276.12,-1125.86 348.85,-913.6 374.75,-838"/>
<polygon fill="black" stroke="black" points="378.15,-838.87 378.08,-828.27 371.53,-836.6 378.15,-838.87"/>
</g>
<!-- _GraphqlController_ensure_hash_ -->
<g id="node4" class="node">
<title>_GraphqlController_ensure_hash_</title>
<polygon fill="lightblue" stroke="white" points="361,-432 137,-432 137,-396 361,-396 361,-432"/>
<text text-anchor="middle" x="249" y="-410.3" font-family="Arial" font-size="14.00">_GraphqlController_ensure_hash_</text>
</g>
<!-- _GraphqlController_execute_multi_&#45;&gt;_GraphqlController_ensure_hash_ -->
<g id="edge4" class="edge">
<title>_GraphqlController_execute_multi_&#45;&gt;_GraphqlController_ensure_hash_</title>
<path fill="none" stroke="black" d="M120.84,-791.82C141.92,-729.86 214.11,-517.6 239.82,-442"/>
<polygon fill="black" stroke="black" points="243.22,-442.87 243.13,-432.27 236.59,-440.61 243.22,-442.87"/>
</g>
<!-- _GraphqlController_execute_single_&#45;&gt;_GraphqlController_ensure_hash_ -->
<g id="edge3" class="edge">
<title>_GraphqlController_execute_single_&#45;&gt;_GraphqlController_ensure_hash_</title>
<path fill="none" stroke="black" d="M378.11,-791.82C356.88,-729.86 284.15,-517.6 258.25,-442"/>
<polygon fill="black" stroke="black" points="261.47,-440.6 254.92,-432.27 254.85,-442.87 261.47,-440.6"/>
</g>
<!-- _GraphqlController_ensure_hash_&#45;&gt;_GraphqlController_ensure_hash_ -->
<g id="edge5" class="edge">
<title>_GraphqlController_ensure_hash_&#45;&gt;_GraphqlController_ensure_hash_</title>
<path fill="none" stroke="black" d="M259.28,-432.16C310.82,-512.58 397,-506.52 397,-414 397,-324.91 317.1,-315.99 265.15,-387.24"/>
<polygon fill="black" stroke="black" points="262.03,-385.61 259.28,-395.84 267.81,-389.56 262.03,-385.61"/>
</g>
<!-- _ExternalUsersService_parse_ -->
<g id="node5" class="node">
<title>_ExternalUsersService_parse_</title>
<polygon fill="lightblue" stroke="white" points="237.5,-36 34.5,-36 34.5,0 237.5,0 237.5,-36"/>
<text text-anchor="middle" x="136" y="-14.3" font-family="Arial" font-size="14.00">_ExternalUsersService_parse_</text>
</g>
<!-- _GraphqlController_ensure_hash_&#45;&gt;_ExternalUsersService_parse_ -->
<g id="edge6" class="edge">
<title>_GraphqlController_ensure_hash_&#45;&gt;_ExternalUsersService_parse_</title>
<path fill="none" stroke="black" d="M244.07,-395.82C226.3,-333.86 165.43,-121.6 143.74,-46"/>
<polygon fill="black" stroke="black" points="147.08,-44.92 140.95,-36.27 140.35,-46.85 147.08,-44.92"/>
</g>
<!-- _SsoUsersService_parse_ -->
<g id="node6" class="node">
<title>_SsoUsersService_parse_</title>
<polygon fill="lightblue" stroke="white" points="450,-36 274,-36 274,0 450,0 450,-36"/>
<text text-anchor="middle" x="362" y="-14.3" font-family="Arial" font-size="14.00">_SsoUsersService_parse_</text>
</g>
<!-- _GraphqlController_ensure_hash_&#45;&gt;_SsoUsersService_parse_ -->
<g id="edge7" class="edge">
<title>_GraphqlController_ensure_hash_&#45;&gt;_SsoUsersService_parse_</title>
<path fill="none" stroke="black" d="M253.93,-395.82C271.7,-333.86 332.57,-121.6 354.26,-46"/>
<polygon fill="black" stroke="black" points="357.65,-46.85 357.05,-36.27 350.92,-44.92 357.65,-46.85"/>
</g>
</g>
</svg>
