<?xml version="1.0" encoding="UTF-8" standalone="no"?>
<!DOCTYPE svg PUBLIC "-//W3C//DTD SVG 1.1//EN"
 "http://www.w3.org/Graphics/SVG/1.1/DTD/svg11.dtd">
<!-- Generated by graphviz version 2.43.0 (0)
 -->
<!-- Title: CallGraph Pages: 1 -->
<svg width="697pt" height="440pt"
 viewBox="0.00 0.00 697.00 440.00" xmlns="http://www.w3.org/2000/svg" xmlns:xlink="http://www.w3.org/1999/xlink">
<g id="graph0" class="graph" transform="scale(1 1) rotate(0) translate(4 436)">
<title>CallGraph</title>
<polygon fill="white" stroke="transparent" points="-4,4 -4,-436 693,-436 693,4 -4,4"/>
<!-- _GroupsController_create_ -->
<g id="node1" class="node">
<title>_GroupsController_create_</title>
<polygon fill="lightblue" stroke="white" points="180,-432 0,-432 0,-396 180,-396 180,-432"/>
<text text-anchor="middle" x="90" y="-410.3" font-family="Arial" font-size="14.00">_GroupsController_create_</text>
</g>
<!-- _GroupsController_group_params_ -->
<g id="node2" class="node">
<title>_GroupsController_group_params_</title>
<polygon fill="lightblue" stroke="white" points="307,-36 77,-36 77,0 307,0 307,-36"/>
<text text-anchor="middle" x="192" y="-14.3" font-family="Arial" font-size="14.00">_GroupsController_group_params_</text>
</g>
<!-- _GroupsController_create_&#45;&gt;_GroupsController_group_params_ -->
<g id="edge1" class="edge">
<title>_GroupsController_create_&#45;&gt;_GroupsController_group_params_</title>
<path fill="none" stroke="black" d="M94.45,-395.82C110.49,-333.86 165.44,-121.6 185.01,-46"/>
<polygon fill="black" stroke="black" points="188.41,-46.83 187.53,-36.27 181.63,-45.08 188.41,-46.83"/>
</g>
<!-- _GroupsController_update_ -->
<g id="node3" class="node">
<title>_GroupsController_update_</title>
<polygon fill="lightblue" stroke="white" points="400,-432 216,-432 216,-396 400,-396 400,-432"/>
<text text-anchor="middle" x="308" y="-410.3" font-family="Arial" font-size="14.00">_GroupsController_update_</text>
</g>
<!-- _GroupsController_update_&#45;&gt;_GroupsController_group_params_ -->
<g id="edge2" class="edge">
<title>_GroupsController_update_&#45;&gt;_GroupsController_group_params_</title>
<path fill="none" stroke="black" d="M302.94,-395.82C284.7,-333.86 222.21,-121.6 199.95,-46"/>
<polygon fill="black" stroke="black" points="203.27,-44.88 197.09,-36.27 196.55,-46.85 203.27,-44.88"/>
</g>
<!-- _GroupsController_list_orders_add_ -->
<g id="node4" class="node">
<title>_GroupsController_list_orders_add_</title>
<polygon fill="lightblue" stroke="white" points="684.5,-432 449.5,-432 449.5,-396 684.5,-396 684.5,-432"/>
<text text-anchor="middle" x="567" y="-410.3" font-family="Arial" font-size="14.00">_GroupsController_list_orders_add_</text>
</g>
<!-- _GroupsController_list_orders_show_ -->
<g id="node5" class="node">
<title>_GroupsController_list_orders_show_</title>
<polygon fill="lightblue" stroke="white" points="689,-36 445,-36 445,0 689,0 689,-36"/>
<text text-anchor="middle" x="567" y="-14.3" font-family="Arial" font-size="14.00">_GroupsController_list_orders_show_</text>
</g>
<!-- _GroupsController_list_orders_add_&#45;&gt;_GroupsController_list_orders_show_ -->
<g id="edge3" class="edge">
<title>_GroupsController_list_orders_add_&#45;&gt;_GroupsController_list_orders_show_</title>
<path fill="none" stroke="black" d="M567,-395.82C567,-333.98 567,-122.47 567,-46.47"/>
<polygon fill="black" stroke="black" points="570.5,-46.27 567,-36.27 563.5,-46.27 570.5,-46.27"/>
</g>
</g>
</svg>
