<?xml version="1.0" encoding="UTF-8" standalone="no"?>
<!DOCTYPE svg PUBLIC "-//W3C//DTD SVG 1.1//EN"
 "http://www.w3.org/Graphics/SVG/1.1/DTD/svg11.dtd">
<!-- Generated by graphviz version 2.43.0 (0)
 -->
<!-- Title: CallGraph Pages: 1 -->
<svg width="1066pt" height="1232pt"
 viewBox="0.00 0.00 1065.50 1232.00" xmlns="http://www.w3.org/2000/svg" xmlns:xlink="http://www.w3.org/1999/xlink">
<g id="graph0" class="graph" transform="scale(1 1) rotate(0) translate(4 1228)">
<title>CallGraph</title>
<polygon fill="white" stroke="transparent" points="-4,4 -4,-1228 1061.5,-1228 1061.5,4 -4,4"/>
<!-- _HeaderHelper_header_helper_options_ -->
<g id="node1" class="node">
<title>_HeaderHelper_header_helper_options_</title>
<polygon fill="lightblue" stroke="white" points="489.5,-1224 228.5,-1224 228.5,-1188 489.5,-1188 489.5,-1224"/>
<text text-anchor="middle" x="359" y="-1202.3" font-family="Arial" font-size="14.00">_HeaderHelper_header_helper_options_</text>
</g>
<!-- _HeaderHelper_online_help_item_ -->
<g id="node2" class="node">
<title>_HeaderHelper_online_help_item_</title>
<polygon fill="lightblue" stroke="white" points="226,-828 0,-828 0,-792 226,-792 226,-828"/>
<text text-anchor="middle" x="113" y="-806.3" font-family="Arial" font-size="14.00">_HeaderHelper_online_help_item_</text>
</g>
<!-- _HeaderHelper_header_helper_options_&#45;&gt;_HeaderHelper_online_help_item_ -->
<g id="edge1" class="edge">
<title>_HeaderHelper_header_helper_options_&#45;&gt;_HeaderHelper_online_help_item_</title>
<path fill="none" stroke="black" d="M348.27,-1187.82C309.43,-1125.6 175.97,-911.86 129.29,-837.08"/>
<polygon fill="black" stroke="black" points="132.05,-834.9 123.78,-828.27 126.11,-838.61 132.05,-834.9"/>
</g>
<!-- _HeaderHelper_contact_referent_ -->
<g id="node3" class="node">
<title>_HeaderHelper_contact_referent_</title>
<polygon fill="lightblue" stroke="white" points="505.5,-432 284.5,-432 284.5,-396 505.5,-396 505.5,-432"/>
<text text-anchor="middle" x="395" y="-410.3" font-family="Arial" font-size="14.00">_HeaderHelper_contact_referent_</text>
</g>
<!-- _HeaderHelper_header_helper_options_&#45;&gt;_HeaderHelper_contact_referent_ -->
<g id="edge2" class="edge">
<title>_HeaderHelper_header_helper_options_&#45;&gt;_HeaderHelper_contact_referent_</title>
<path fill="none" stroke="black" d="M354.89,-1187.68C341.93,-1130.93 303.69,-945.4 319,-792 332.29,-658.85 371.35,-503.13 387.68,-441.78"/>
<polygon fill="black" stroke="black" points="391.07,-442.67 390.28,-432.1 384.31,-440.85 391.07,-442.67"/>
</g>
<!-- _HeaderHelper_referent_item_ -->
<g id="node4" class="node">
<title>_HeaderHelper_referent_item_</title>
<polygon fill="lightblue" stroke="white" points="539.5,-828 336.5,-828 336.5,-792 539.5,-792 539.5,-828"/>
<text text-anchor="middle" x="438" y="-806.3" font-family="Arial" font-size="14.00">_HeaderHelper_referent_item_</text>
</g>
<!-- _HeaderHelper_header_helper_options_&#45;&gt;_HeaderHelper_referent_item_ -->
<g id="edge3" class="edge">
<title>_HeaderHelper_header_helper_options_&#45;&gt;_HeaderHelper_referent_item_</title>
<path fill="none" stroke="black" d="M362.45,-1187.82C374.84,-1125.98 417.25,-914.47 432.49,-838.47"/>
<polygon fill="black" stroke="black" points="436,-838.77 434.54,-828.27 429.14,-837.39 436,-838.77"/>
</g>
<!-- _HeaderHelper_power_user_items_ -->
<g id="node5" class="node">
<title>_HeaderHelper_power_user_items_</title>
<polygon fill="lightblue" stroke="white" points="810,-828 576,-828 576,-792 810,-792 810,-828"/>
<text text-anchor="middle" x="693" y="-806.3" font-family="Arial" font-size="14.00">_HeaderHelper_power_user_items_</text>
</g>
<!-- _HeaderHelper_header_helper_options_&#45;&gt;_HeaderHelper_power_user_items_ -->
<g id="edge4" class="edge">
<title>_HeaderHelper_header_helper_options_&#45;&gt;_HeaderHelper_power_user_items_</title>
<path fill="none" stroke="black" d="M373.57,-1187.82C426.52,-1125.35 608.98,-910.12 671.66,-836.18"/>
<polygon fill="black" stroke="black" points="674.56,-838.16 678.36,-828.27 669.22,-833.64 674.56,-838.16"/>
</g>
<!-- _HeaderHelper_language_prefix_ -->
<g id="node6" class="node">
<title>_HeaderHelper_language_prefix_</title>
<polygon fill="lightblue" stroke="white" points="762.5,-36 543.5,-36 543.5,0 762.5,0 762.5,-36"/>
<text text-anchor="middle" x="653" y="-14.3" font-family="Arial" font-size="14.00">_HeaderHelper_language_prefix_</text>
</g>
<!-- _HeaderHelper_online_help_item_&#45;&gt;_HeaderHelper_language_prefix_ -->
<g id="edge5" class="edge">
<title>_HeaderHelper_online_help_item_&#45;&gt;_HeaderHelper_language_prefix_</title>
<path fill="none" stroke="black" d="M102.59,-791.96C67.99,-732.92 -36.74,-533.28 40,-396 156.71,-187.2 441.72,-79.85 578.01,-38.99"/>
<polygon fill="black" stroke="black" points="579.36,-42.24 587.96,-36.05 577.38,-35.53 579.36,-42.24"/>
</g>
<!-- _HeaderHelper_user_prefix_ -->
<g id="node7" class="node">
<title>_HeaderHelper_user_prefix_</title>
<polygon fill="lightblue" stroke="white" points="248,-432 58,-432 58,-396 248,-396 248,-432"/>
<text text-anchor="middle" x="153" y="-410.3" font-family="Arial" font-size="14.00">_HeaderHelper_user_prefix_</text>
</g>
<!-- _HeaderHelper_online_help_item_&#45;&gt;_HeaderHelper_user_prefix_ -->
<g id="edge6" class="edge">
<title>_HeaderHelper_online_help_item_&#45;&gt;_HeaderHelper_user_prefix_</title>
<path fill="none" stroke="black" d="M114.74,-791.82C121.02,-729.98 142.5,-518.47 150.21,-442.47"/>
<polygon fill="black" stroke="black" points="153.72,-442.58 151.25,-432.27 146.75,-441.87 153.72,-442.58"/>
</g>
<!-- _HeaderHelper_referent_item_&#45;&gt;_HeaderHelper_contact_referent_ -->
<g id="edge7" class="edge">
<title>_HeaderHelper_referent_item_&#45;&gt;_HeaderHelper_contact_referent_</title>
<path fill="none" stroke="black" d="M436.12,-791.82C429.38,-729.98 406.29,-518.47 398,-442.47"/>
<polygon fill="black" stroke="black" points="401.45,-441.83 396.89,-432.27 394.49,-442.59 401.45,-441.83"/>
</g>
<!-- _HeaderHelper_contact_us_item_ -->
<g id="node8" class="node">
<title>_HeaderHelper_contact_us_item_</title>
<polygon fill="lightblue" stroke="white" points="764,-432 542,-432 542,-396 764,-396 764,-432"/>
<text text-anchor="middle" x="653" y="-410.3" font-family="Arial" font-size="14.00">_HeaderHelper_contact_us_item_</text>
</g>
<!-- _HeaderHelper_power_user_items_&#45;&gt;_HeaderHelper_contact_us_item_ -->
<g id="edge8" class="edge">
<title>_HeaderHelper_power_user_items_&#45;&gt;_HeaderHelper_contact_us_item_</title>
<path fill="none" stroke="black" d="M691.26,-791.82C684.98,-729.98 663.5,-518.47 655.79,-442.47"/>
<polygon fill="black" stroke="black" points="659.25,-441.87 654.75,-432.27 652.28,-442.58 659.25,-441.87"/>
</g>
<!-- _HeaderHelper_customer_space_item_ -->
<g id="node9" class="node">
<title>_HeaderHelper_customer_space_item_</title>
<polygon fill="lightblue" stroke="white" points="1057.5,-432 800.5,-432 800.5,-396 1057.5,-396 1057.5,-432"/>
<text text-anchor="middle" x="929" y="-410.3" font-family="Arial" font-size="14.00">_HeaderHelper_customer_space_item_</text>
</g>
<!-- _HeaderHelper_power_user_items_&#45;&gt;_HeaderHelper_customer_space_item_ -->
<g id="edge9" class="edge">
<title>_HeaderHelper_power_user_items_&#45;&gt;_HeaderHelper_customer_space_item_</title>
<path fill="none" stroke="black" d="M703.29,-791.82C740.56,-729.6 868.59,-515.86 913.38,-441.08"/>
<polygon fill="black" stroke="black" points="916.52,-442.65 918.65,-432.27 910.51,-439.05 916.52,-442.65"/>
</g>
<!-- _HeaderHelper_contact_us_item_&#45;&gt;_HeaderHelper_language_prefix_ -->
<g id="edge10" class="edge">
<title>_HeaderHelper_contact_us_item_&#45;&gt;_HeaderHelper_language_prefix_</title>
<path fill="none" stroke="black" d="M653,-395.82C653,-333.98 653,-122.47 653,-46.47"/>
<polygon fill="black" stroke="black" points="656.5,-46.27 653,-36.27 649.5,-46.27 656.5,-46.27"/>
</g>
<!-- _HeaderHelper_customer_space_item_&#45;&gt;_HeaderHelper_language_prefix_ -->
<g id="edge11" class="edge">
<title>_HeaderHelper_customer_space_item_&#45;&gt;_HeaderHelper_language_prefix_</title>
<path fill="none" stroke="black" d="M916.96,-395.82C873.29,-333.48 723.04,-118.99 670.95,-44.63"/>
<polygon fill="black" stroke="black" points="673.7,-42.46 665.1,-36.27 667.97,-46.47 673.7,-42.46"/>
</g>
</g>
</svg>
