<?xml version="1.0" encoding="UTF-8" standalone="no"?>
<!DOCTYPE svg PUBLIC "-//W3C//DTD SVG 1.1//EN"
 "http://www.w3.org/Graphics/SVG/1.1/DTD/svg11.dtd">
<!-- Generated by graphviz version 2.43.0 (0)
 -->
<!-- Title: CallGraph Pages: 1 -->
<svg width="630pt" height="440pt"
 viewBox="0.00 0.00 629.50 440.00" xmlns="http://www.w3.org/2000/svg" xmlns:xlink="http://www.w3.org/1999/xlink">
<g id="graph0" class="graph" transform="scale(1 1) rotate(0) translate(4 436)">
<title>CallGraph</title>
<polygon fill="white" stroke="transparent" points="-4,4 -4,-436 625.5,-436 625.5,4 -4,4"/>
<!-- _ImproverHelper_date_as_block_with_reminder_ -->
<g id="node1" class="node">
<title>_ImproverHelper_date_as_block_with_reminder_</title>
<polygon fill="lightblue" stroke="white" points="313,-432 0,-432 0,-396 313,-396 313,-432"/>
<text text-anchor="middle" x="156.5" y="-410.3" font-family="Arial" font-size="14.00">_ImproverHelper_date_as_block_with_reminder_</text>
</g>
<!-- _ImproverHelper_reminder_pull_link_for_ -->
<g id="node2" class="node">
<title>_ImproverHelper_reminder_pull_link_for_</title>
<polygon fill="lightblue" stroke="white" points="289.5,-36 23.5,-36 23.5,0 289.5,0 289.5,-36"/>
<text text-anchor="middle" x="156.5" y="-14.3" font-family="Arial" font-size="14.00">_ImproverHelper_reminder_pull_link_for_</text>
</g>
<!-- _ImproverHelper_date_as_block_with_reminder_&#45;&gt;_ImproverHelper_reminder_pull_link_for_ -->
<g id="edge1" class="edge">
<title>_ImproverHelper_date_as_block_with_reminder_&#45;&gt;_ImproverHelper_reminder_pull_link_for_</title>
<path fill="none" stroke="black" d="M156.5,-395.82C156.5,-333.98 156.5,-122.47 156.5,-46.47"/>
<polygon fill="black" stroke="black" points="160,-46.27 156.5,-36.27 153,-46.27 160,-46.27"/>
</g>
<!-- _ImproverHelper_improver_print_title_for_ -->
<g id="node3" class="node">
<title>_ImproverHelper_improver_print_title_for_</title>
<polygon fill="lightblue" stroke="white" points="621.5,-432 349.5,-432 349.5,-396 621.5,-396 621.5,-432"/>
<text text-anchor="middle" x="485.5" y="-410.3" font-family="Arial" font-size="14.00">_ImproverHelper_improver_print_title_for_</text>
</g>
<!-- _ImproverHelper_truncate_print_title_ -->
<g id="node4" class="node">
<title>_ImproverHelper_truncate_print_title_</title>
<polygon fill="lightblue" stroke="white" points="607.5,-36 363.5,-36 363.5,0 607.5,0 607.5,-36"/>
<text text-anchor="middle" x="485.5" y="-14.3" font-family="Arial" font-size="14.00">_ImproverHelper_truncate_print_title_</text>
</g>
<!-- _ImproverHelper_improver_print_title_for_&#45;&gt;_ImproverHelper_truncate_print_title_ -->
<g id="edge2" class="edge">
<title>_ImproverHelper_improver_print_title_for_&#45;&gt;_ImproverHelper_truncate_print_title_</title>
<path fill="none" stroke="black" d="M485.5,-395.82C485.5,-333.98 485.5,-122.47 485.5,-46.47"/>
<polygon fill="black" stroke="black" points="489,-46.27 485.5,-36.27 482,-46.27 489,-46.27"/>
</g>
</g>
</svg>
