<?xml version="1.0" encoding="UTF-8" standalone="no"?>
<!DOCTYPE svg PUBLIC "-//W3C//DTD SVG 1.1//EN"
 "http://www.w3.org/Graphics/SVG/1.1/DTD/svg11.dtd">
<!-- Generated by graphviz version 2.43.0 (0)
 -->
<!-- Title: CallGraph Pages: 1 -->
<svg width="1283pt" height="440pt"
 viewBox="0.00 0.00 1282.50 440.00" xmlns="http://www.w3.org/2000/svg" xmlns:xlink="http://www.w3.org/1999/xlink">
<g id="graph0" class="graph" transform="scale(1 1) rotate(0) translate(4 436)">
<title>CallGraph</title>
<polygon fill="white" stroke="transparent" points="-4,4 -4,-436 1278.5,-436 1278.5,4 -4,4"/>
<!-- _LdapSettingsController_index_ -->
<g id="node1" class="node">
<title>_LdapSettingsController_index_</title>
<polygon fill="lightblue" stroke="white" points="209,-432 0,-432 0,-396 209,-396 209,-432"/>
<text text-anchor="middle" x="104.5" y="-410.3" font-family="Arial" font-size="14.00">_LdapSettingsController_index_</text>
</g>
<!-- _SessionsController_ldap_settings_ -->
<g id="node2" class="node">
<title>_SessionsController_ldap_settings_</title>
<polygon fill="lightblue" stroke="white" points="667.5,-36 435.5,-36 435.5,0 667.5,0 667.5,-36"/>
<text text-anchor="middle" x="551.5" y="-14.3" font-family="Arial" font-size="14.00">_SessionsController_ldap_settings_</text>
</g>
<!-- _LdapSettingsController_index_&#45;&gt;_SessionsController_ldap_settings_ -->
<g id="edge1" class="edge">
<title>_LdapSettingsController_index_&#45;&gt;_SessionsController_ldap_settings_</title>
<path fill="none" stroke="black" d="M123.99,-395.82C195.3,-332.96 442.09,-115.43 524.48,-42.81"/>
<polygon fill="black" stroke="black" points="526.97,-45.29 532.15,-36.05 522.34,-40.04 526.97,-45.29"/>
</g>
<!-- _LdapSettingsController_new_ -->
<g id="node3" class="node">
<title>_LdapSettingsController_new_</title>
<polygon fill="lightblue" stroke="white" points="446,-432 245,-432 245,-396 446,-396 446,-432"/>
<text text-anchor="middle" x="345.5" y="-410.3" font-family="Arial" font-size="14.00">_LdapSettingsController_new_</text>
</g>
<!-- _LdapSettingsController_new_&#45;&gt;_SessionsController_ldap_settings_ -->
<g id="edge2" class="edge">
<title>_LdapSettingsController_new_&#45;&gt;_SessionsController_ldap_settings_</title>
<path fill="none" stroke="black" d="M354.48,-395.82C386.95,-333.73 498.31,-120.73 537.62,-45.54"/>
<polygon fill="black" stroke="black" points="540.94,-46.76 542.47,-36.27 534.73,-43.51 540.94,-46.76"/>
</g>
<!-- _LdapSettingsController_create_ -->
<g id="node4" class="node">
<title>_LdapSettingsController_create_</title>
<polygon fill="lightblue" stroke="white" points="1020.5,-432 806.5,-432 806.5,-396 1020.5,-396 1020.5,-432"/>
<text text-anchor="middle" x="913.5" y="-410.3" font-family="Arial" font-size="14.00">_LdapSettingsController_create_</text>
</g>
<!-- _LdapSettingsController_create_&#45;&gt;_SessionsController_ldap_settings_ -->
<g id="edge3" class="edge">
<title>_LdapSettingsController_create_&#45;&gt;_SessionsController_ldap_settings_</title>
<path fill="none" stroke="black" d="M897.71,-395.82C840.2,-333.22 641.76,-117.24 574.22,-43.73"/>
<polygon fill="black" stroke="black" points="576.71,-41.27 567.37,-36.27 571.56,-46.01 576.71,-41.27"/>
</g>
<!-- _LdapSettingsController_ldap_settings_params_ -->
<g id="node5" class="node">
<title>_LdapSettingsController_ldap_settings_params_</title>
<polygon fill="lightblue" stroke="white" points="1143,-36 834,-36 834,0 1143,0 1143,-36"/>
<text text-anchor="middle" x="988.5" y="-14.3" font-family="Arial" font-size="14.00">_LdapSettingsController_ldap_settings_params_</text>
</g>
<!-- _LdapSettingsController_create_&#45;&gt;_LdapSettingsController_ldap_settings_params_ -->
<g id="edge4" class="edge">
<title>_LdapSettingsController_create_&#45;&gt;_LdapSettingsController_ldap_settings_params_</title>
<path fill="none" stroke="black" d="M916.77,-395.82C928.54,-333.98 968.8,-122.47 983.27,-46.47"/>
<polygon fill="black" stroke="black" points="986.78,-46.75 985.21,-36.27 979.9,-45.44 986.78,-46.75"/>
</g>
<!-- _LdapSettingsController_update_ -->
<g id="node6" class="node">
<title>_LdapSettingsController_update_</title>
<polygon fill="lightblue" stroke="white" points="1274.5,-432 1056.5,-432 1056.5,-396 1274.5,-396 1274.5,-432"/>
<text text-anchor="middle" x="1165.5" y="-410.3" font-family="Arial" font-size="14.00">_LdapSettingsController_update_</text>
</g>
<!-- _LdapSettingsController_update_&#45;&gt;_LdapSettingsController_ldap_settings_params_ -->
<g id="edge5" class="edge">
<title>_LdapSettingsController_update_&#45;&gt;_LdapSettingsController_ldap_settings_params_</title>
<path fill="none" stroke="black" d="M1157.78,-395.82C1129.89,-333.73 1034.2,-120.73 1000.42,-45.54"/>
<polygon fill="black" stroke="black" points="1003.55,-43.96 996.26,-36.27 997.17,-46.83 1003.55,-43.96"/>
</g>
<!-- _LdapSettingsController_load_ldap_settings_ -->
<g id="node7" class="node">
<title>_LdapSettingsController_load_ldap_settings_</title>
<polygon fill="lightblue" stroke="white" points="771,-432 482,-432 482,-396 771,-396 771,-432"/>
<text text-anchor="middle" x="626.5" y="-410.3" font-family="Arial" font-size="14.00">_LdapSettingsController_load_ldap_settings_</text>
</g>
<!-- _LdapSettingsController_load_ldap_settings_&#45;&gt;_SessionsController_ldap_settings_ -->
<g id="edge6" class="edge">
<title>_LdapSettingsController_load_ldap_settings_&#45;&gt;_SessionsController_ldap_settings_</title>
<path fill="none" stroke="black" d="M623.23,-395.82C611.46,-333.98 571.2,-122.47 556.73,-46.47"/>
<polygon fill="black" stroke="black" points="560.1,-45.44 554.79,-36.27 553.22,-46.75 560.1,-45.44"/>
</g>
</g>
</svg>
