<?xml version="1.0" encoding="UTF-8" standalone="no"?>
<!DOCTYPE svg PUBLIC "-//W3C//DTD SVG 1.1//EN"
 "http://www.w3.org/Graphics/SVG/1.1/DTD/svg11.dtd">
<!-- Generated by graphviz version 2.43.0 (0)
 -->
<!-- Title: CallGraph Pages: 1 -->
<svg width="325pt" height="836pt"
 viewBox="0.00 0.00 325.00 836.00" xmlns="http://www.w3.org/2000/svg" xmlns:xlink="http://www.w3.org/1999/xlink">
<g id="graph0" class="graph" transform="scale(1 1) rotate(0) translate(4 832)">
<title>CallGraph</title>
<polygon fill="white" stroke="transparent" points="-4,4 -4,-832 321,-832 321,4 -4,4"/>
<!-- _MissingTranslationsController_create_ -->
<g id="node1" class="node">
<title>_MissingTranslationsController_create_</title>
<polygon fill="lightblue" stroke="white" points="286,-828 31,-828 31,-792 286,-792 286,-828"/>
<text text-anchor="middle" x="158.5" y="-806.3" font-family="Arial" font-size="14.00">_MissingTranslationsController_create_</text>
</g>
<!-- _MissingTranslationsController_message_ -->
<g id="node2" class="node">
<title>_MissingTranslationsController_message_</title>
<polygon fill="lightblue" stroke="white" points="295,-432 22,-432 22,-396 295,-396 295,-432"/>
<text text-anchor="middle" x="158.5" y="-410.3" font-family="Arial" font-size="14.00">_MissingTranslationsController_message_</text>
</g>
<!-- _MissingTranslationsController_create_&#45;&gt;_MissingTranslationsController_message_ -->
<g id="edge1" class="edge">
<title>_MissingTranslationsController_create_&#45;&gt;_MissingTranslationsController_message_</title>
<path fill="none" stroke="black" d="M158.5,-791.82C158.5,-729.98 158.5,-518.47 158.5,-442.47"/>
<polygon fill="black" stroke="black" points="162,-442.27 158.5,-432.27 155,-442.27 162,-442.27"/>
</g>
<!-- _MissingTranslationsController_missing_params_ -->
<g id="node3" class="node">
<title>_MissingTranslationsController_missing_params_</title>
<polygon fill="lightblue" stroke="white" points="317,-36 0,-36 0,0 317,0 317,-36"/>
<text text-anchor="middle" x="158.5" y="-14.3" font-family="Arial" font-size="14.00">_MissingTranslationsController_missing_params_</text>
</g>
<!-- _MissingTranslationsController_message_&#45;&gt;_MissingTranslationsController_missing_params_ -->
<g id="edge2" class="edge">
<title>_MissingTranslationsController_message_&#45;&gt;_MissingTranslationsController_missing_params_</title>
<path fill="none" stroke="black" d="M158.5,-395.82C158.5,-333.98 158.5,-122.47 158.5,-46.47"/>
<polygon fill="black" stroke="black" points="162,-46.27 158.5,-36.27 155,-46.27 162,-46.27"/>
</g>
</g>
</svg>
