<?xml version="1.0" encoding="UTF-8" standalone="no"?>
<!DOCTYPE svg PUBLIC "-//W3C//DTD SVG 1.1//EN"
 "http://www.w3.org/Graphics/SVG/1.1/DTD/svg11.dtd">
<!-- Generated by graphviz version 2.43.0 (0)
 -->
<!-- Title: CallGraph Pages: 1 -->
<svg width="1023pt" height="836pt"
 viewBox="0.00 0.00 1023.00 836.00" xmlns="http://www.w3.org/2000/svg" xmlns:xlink="http://www.w3.org/1999/xlink">
<g id="graph0" class="graph" transform="scale(1 1) rotate(0) translate(4 832)">
<title>CallGraph</title>
<polygon fill="white" stroke="transparent" points="-4,4 -4,-832 1019,-832 1019,4 -4,4"/>
<!-- _NotifierService_log_operation_ -->
<g id="node1" class="node">
<title>_NotifierService_log_operation_</title>
<polygon fill="lightblue" stroke="white" points="326,-828 117,-828 117,-792 326,-792 326,-828"/>
<text text-anchor="middle" x="221.5" y="-806.3" font-family="Arial" font-size="14.00">_NotifierService_log_operation_</text>
</g>
<!-- _NotifierService_filter_fieldables_ -->
<g id="node2" class="node">
<title>_NotifierService_filter_fieldables_</title>
<polygon fill="lightblue" stroke="white" points="217,-432 0,-432 0,-396 217,-396 217,-432"/>
<text text-anchor="middle" x="108.5" y="-410.3" font-family="Arial" font-size="14.00">_NotifierService_filter_fieldables_</text>
</g>
<!-- _NotifierService_log_operation_&#45;&gt;_NotifierService_filter_fieldables_ -->
<g id="edge1" class="edge">
<title>_NotifierService_log_operation_&#45;&gt;_NotifierService_filter_fieldables_</title>
<path fill="none" stroke="black" d="M216.57,-791.82C198.8,-729.86 137.93,-517.6 116.24,-442"/>
<polygon fill="black" stroke="black" points="119.58,-440.92 113.45,-432.27 112.85,-442.85 119.58,-440.92"/>
</g>
<!-- _NotifierService_filter_attributes_ -->
<g id="node3" class="node">
<title>_NotifierService_filter_attributes_</title>
<polygon fill="lightblue" stroke="white" points="468,-432 253,-432 253,-396 468,-396 468,-432"/>
<text text-anchor="middle" x="360.5" y="-410.3" font-family="Arial" font-size="14.00">_NotifierService_filter_attributes_</text>
</g>
<!-- _NotifierService_log_operation_&#45;&gt;_NotifierService_filter_attributes_ -->
<g id="edge2" class="edge">
<title>_NotifierService_log_operation_&#45;&gt;_NotifierService_filter_attributes_</title>
<path fill="none" stroke="black" d="M227.56,-791.82C249.42,-729.86 324.3,-517.6 350.97,-442"/>
<polygon fill="black" stroke="black" points="354.38,-442.87 354.41,-432.27 347.78,-440.54 354.38,-442.87"/>
</g>
<!-- _NotifierService_notify_update_responsibilities_ -->
<g id="node4" class="node">
<title>_NotifierService_notify_update_responsibilities_</title>
<polygon fill="lightblue" stroke="white" points="767.5,-828 463.5,-828 463.5,-792 767.5,-792 767.5,-828"/>
<text text-anchor="middle" x="615.5" y="-806.3" font-family="Arial" font-size="14.00">_NotifierService_notify_update_responsibilities_</text>
</g>
<!-- _NotifierService_email_and_notif_for_ -->
<g id="node5" class="node">
<title>_NotifierService_email_and_notif_for_</title>
<polygon fill="lightblue" stroke="white" points="840.5,-432 594.5,-432 594.5,-396 840.5,-396 840.5,-432"/>
<text text-anchor="middle" x="717.5" y="-410.3" font-family="Arial" font-size="14.00">_NotifierService_email_and_notif_for_</text>
</g>
<!-- _NotifierService_notify_update_responsibilities_&#45;&gt;_NotifierService_email_and_notif_for_ -->
<g id="edge3" class="edge">
<title>_NotifierService_notify_update_responsibilities_&#45;&gt;_NotifierService_email_and_notif_for_</title>
<path fill="none" stroke="black" d="M619.95,-791.82C635.99,-729.86 690.94,-517.6 710.51,-442"/>
<polygon fill="black" stroke="black" points="713.91,-442.83 713.03,-432.27 707.13,-441.08 713.91,-442.83"/>
</g>
<!-- _NotifierService_create_notification_ -->
<g id="node7" class="node">
<title>_NotifierService_create_notification_</title>
<polygon fill="lightblue" stroke="white" points="835.5,-36 599.5,-36 599.5,0 835.5,0 835.5,-36"/>
<text text-anchor="middle" x="717.5" y="-14.3" font-family="Arial" font-size="14.00">_NotifierService_create_notification_</text>
</g>
<!-- _NotifierService_email_and_notif_for_&#45;&gt;_NotifierService_create_notification_ -->
<g id="edge5" class="edge">
<title>_NotifierService_email_and_notif_for_&#45;&gt;_NotifierService_create_notification_</title>
<path fill="none" stroke="black" d="M717.5,-395.82C717.5,-333.98 717.5,-122.47 717.5,-46.47"/>
<polygon fill="black" stroke="black" points="721,-46.27 717.5,-36.27 714,-46.27 721,-46.27"/>
</g>
<!-- _NotifierService_notify_by_role_ -->
<g id="node6" class="node">
<title>_NotifierService_notify_by_role_</title>
<polygon fill="lightblue" stroke="white" points="1015,-828 804,-828 804,-792 1015,-792 1015,-828"/>
<text text-anchor="middle" x="909.5" y="-806.3" font-family="Arial" font-size="14.00">_NotifierService_notify_by_role_</text>
</g>
<!-- _NotifierService_notify_by_role_&#45;&gt;_NotifierService_email_and_notif_for_ -->
<g id="edge4" class="edge">
<title>_NotifierService_notify_by_role_&#45;&gt;_NotifierService_email_and_notif_for_</title>
<path fill="none" stroke="black" d="M901.13,-791.82C870.87,-729.73 767.07,-516.73 730.43,-441.54"/>
<polygon fill="black" stroke="black" points="733.44,-439.73 725.92,-432.27 727.15,-442.8 733.44,-439.73"/>
</g>
</g>
</svg>
