<?xml version="1.0" encoding="UTF-8" standalone="no"?>
<!DOCTYPE svg PUBLIC "-//W3C//DTD SVG 1.1//EN"
 "http://www.w3.org/Graphics/SVG/1.1/DTD/svg11.dtd">
<!-- Generated by graphviz version 2.43.0 (0)
 -->
<!-- Title: CallGraph Pages: 1 -->
<svg width="540pt" height="440pt"
 viewBox="0.00 0.00 540.00 440.00" xmlns="http://www.w3.org/2000/svg" xmlns:xlink="http://www.w3.org/1999/xlink">
<g id="graph0" class="graph" transform="scale(1 1) rotate(0) translate(4 436)">
<title>CallGraph</title>
<polygon fill="white" stroke="transparent" points="-4,4 -4,-436 536,-436 536,4 -4,4"/>
<!-- _NotificationMailer_bulk_email_ -->
<g id="node1" class="node">
<title>_NotificationMailer_bulk_email_</title>
<polygon fill="lightblue" stroke="white" points="246,-432 37,-432 37,-396 246,-396 246,-432"/>
<text text-anchor="middle" x="141.5" y="-410.3" font-family="Arial" font-size="14.00">_NotificationMailer_bulk_email_</text>
</g>
<!-- _NotificationMailer_addressee_uniqueness_ -->
<g id="node2" class="node">
<title>_NotificationMailer_addressee_uniqueness_</title>
<polygon fill="lightblue" stroke="white" points="283,-36 0,-36 0,0 283,0 283,-36"/>
<text text-anchor="middle" x="141.5" y="-14.3" font-family="Arial" font-size="14.00">_NotificationMailer_addressee_uniqueness_</text>
</g>
<!-- _NotificationMailer_bulk_email_&#45;&gt;_NotificationMailer_addressee_uniqueness_ -->
<g id="edge1" class="edge">
<title>_NotificationMailer_bulk_email_&#45;&gt;_NotificationMailer_addressee_uniqueness_</title>
<path fill="none" stroke="black" d="M141.5,-395.82C141.5,-333.98 141.5,-122.47 141.5,-46.47"/>
<polygon fill="black" stroke="black" points="145,-46.27 141.5,-36.27 138,-46.27 145,-46.27"/>
</g>
<!-- _NotificationMailer_entity_ -->
<g id="node3" class="node">
<title>_NotificationMailer_entity_</title>
<polygon fill="lightblue" stroke="white" points="513.5,-432 337.5,-432 337.5,-396 513.5,-396 513.5,-432"/>
<text text-anchor="middle" x="425.5" y="-410.3" font-family="Arial" font-size="14.00">_NotificationMailer_entity_</text>
</g>
<!-- _NotificationMailer_send_email_ -->
<g id="node4" class="node">
<title>_NotificationMailer_send_email_</title>
<polygon fill="lightblue" stroke="white" points="532,-36 319,-36 319,0 532,0 532,-36"/>
<text text-anchor="middle" x="425.5" y="-14.3" font-family="Arial" font-size="14.00">_NotificationMailer_send_email_</text>
</g>
<!-- _NotificationMailer_entity_&#45;&gt;_NotificationMailer_send_email_ -->
<g id="edge2" class="edge">
<title>_NotificationMailer_entity_&#45;&gt;_NotificationMailer_send_email_</title>
<path fill="none" stroke="black" d="M425.5,-395.82C425.5,-333.98 425.5,-122.47 425.5,-46.47"/>
<polygon fill="black" stroke="black" points="429,-46.27 425.5,-36.27 422,-46.27 429,-46.27"/>
</g>
</g>
</svg>
