<?xml version="1.0" encoding="UTF-8" standalone="no"?>
<!DOCTYPE svg PUBLIC "-//W3C//DTD SVG 1.1//EN"
 "http://www.w3.org/Graphics/SVG/1.1/DTD/svg11.dtd">
<!-- Generated by graphviz version 2.43.0 (0)
 -->
<!-- Title: CallGraph Pages: 1 -->
<svg width="2069pt" height="440pt"
 viewBox="0.00 0.00 2069.00 440.00" xmlns="http://www.w3.org/2000/svg" xmlns:xlink="http://www.w3.org/1999/xlink">
<g id="graph0" class="graph" transform="scale(1 1) rotate(0) translate(4 436)">
<title>CallGraph</title>
<polygon fill="white" stroke="transparent" points="-4,4 -4,-436 2065,-436 2065,4 -4,4"/>
<!-- _NotificationsHelper_notification_subject_ -->
<g id="node1" class="node">
<title>_NotificationsHelper_notification_subject_</title>
<polygon fill="lightblue" stroke="white" points="877,-432 610,-432 610,-396 877,-396 877,-432"/>
<text text-anchor="middle" x="743.5" y="-410.3" font-family="Arial" font-size="14.00">_NotificationsHelper_notification_subject_</text>
</g>
<!-- _NotificationsHelper_notification_i18n_scope_ -->
<g id="node2" class="node">
<title>_NotificationsHelper_notification_i18n_scope_</title>
<polygon fill="lightblue" stroke="white" points="885,-36 592,-36 592,0 885,0 885,-36"/>
<text text-anchor="middle" x="738.5" y="-14.3" font-family="Arial" font-size="14.00">_NotificationsHelper_notification_i18n_scope_</text>
</g>
<!-- _NotificationsHelper_notification_subject_&#45;&gt;_NotificationsHelper_notification_i18n_scope_ -->
<g id="edge1" class="edge">
<title>_NotificationsHelper_notification_subject_&#45;&gt;_NotificationsHelper_notification_i18n_scope_</title>
<path fill="none" stroke="black" d="M743.28,-395.82C742.5,-333.98 739.81,-122.47 738.85,-46.47"/>
<polygon fill="black" stroke="black" points="742.35,-46.23 738.72,-36.27 735.35,-46.32 742.35,-46.23"/>
</g>
<!-- _NotificationsHelper_notification_i18n_locale_ -->
<g id="node3" class="node">
<title>_NotificationsHelper_notification_i18n_locale_</title>
<polygon fill="lightblue" stroke="white" points="556,-36 263,-36 263,0 556,0 556,-36"/>
<text text-anchor="middle" x="409.5" y="-14.3" font-family="Arial" font-size="14.00">_NotificationsHelper_notification_i18n_locale_</text>
</g>
<!-- _NotificationsHelper_notification_subject_&#45;&gt;_NotificationsHelper_notification_i18n_locale_ -->
<g id="edge2" class="edge">
<title>_NotificationsHelper_notification_subject_&#45;&gt;_NotificationsHelper_notification_i18n_locale_</title>
<path fill="none" stroke="black" d="M728.93,-395.82C675.98,-333.35 493.52,-118.12 430.84,-44.18"/>
<polygon fill="black" stroke="black" points="433.28,-41.64 424.14,-36.27 427.94,-46.16 433.28,-41.64"/>
</g>
<!-- _NotificationsHelper_notification_i18n_entity_ -->
<g id="node4" class="node">
<title>_NotificationsHelper_notification_i18n_entity_</title>
<polygon fill="lightblue" stroke="white" points="1211.5,-36 921.5,-36 921.5,0 1211.5,0 1211.5,-36"/>
<text text-anchor="middle" x="1066.5" y="-14.3" font-family="Arial" font-size="14.00">_NotificationsHelper_notification_i18n_entity_</text>
</g>
<!-- _NotificationsHelper_notification_subject_&#45;&gt;_NotificationsHelper_notification_i18n_entity_ -->
<g id="edge3" class="edge">
<title>_NotificationsHelper_notification_subject_&#45;&gt;_NotificationsHelper_notification_i18n_entity_</title>
<path fill="none" stroke="black" d="M757.59,-395.82C808.8,-333.35 985.24,-118.12 1045.86,-44.18"/>
<polygon fill="black" stroke="black" points="1048.71,-46.23 1052.34,-36.27 1043.29,-41.79 1048.71,-46.23"/>
</g>
<!-- _NotificationsHelper_notification_body_ -->
<g id="node5" class="node">
<title>_NotificationsHelper_notification_body_</title>
<polygon fill="lightblue" stroke="white" points="1344.5,-432 1090.5,-432 1090.5,-396 1344.5,-396 1344.5,-432"/>
<text text-anchor="middle" x="1217.5" y="-410.3" font-family="Arial" font-size="14.00">_NotificationsHelper_notification_body_</text>
</g>
<!-- _NotificationsHelper_notification_body_&#45;&gt;_NotificationsHelper_notification_i18n_scope_ -->
<g id="edge4" class="edge">
<title>_NotificationsHelper_notification_body_&#45;&gt;_NotificationsHelper_notification_i18n_scope_</title>
<path fill="none" stroke="black" d="M1196.61,-395.82C1120.12,-332.9 855.2,-114.99 767.18,-42.59"/>
<polygon fill="black" stroke="black" points="769.18,-39.7 759.23,-36.05 764.73,-45.11 769.18,-39.7"/>
</g>
<!-- _NotificationsHelper_notification_body_&#45;&gt;_NotificationsHelper_notification_i18n_locale_ -->
<g id="edge5" class="edge">
<title>_NotificationsHelper_notification_body_&#45;&gt;_NotificationsHelper_notification_i18n_locale_</title>
<path fill="none" stroke="black" d="M1182.52,-395.94C1052.55,-332.57 597.51,-110.68 453.53,-40.47"/>
<polygon fill="black" stroke="black" points="455.03,-37.31 444.51,-36.07 451.96,-43.6 455.03,-37.31"/>
</g>
<!-- _NotificationsHelper_notification_body_&#45;&gt;_NotificationsHelper_notification_i18n_entity_ -->
<g id="edge6" class="edge">
<title>_NotificationsHelper_notification_body_&#45;&gt;_NotificationsHelper_notification_i18n_entity_</title>
<path fill="none" stroke="black" d="M1210.91,-395.82C1187.17,-333.86 1105.82,-121.6 1076.85,-46"/>
<polygon fill="black" stroke="black" points="1079.97,-44.36 1073.12,-36.27 1073.43,-46.86 1079.97,-44.36"/>
</g>
<!-- _ApplicationHelper_render_for_html_ -->
<g id="node6" class="node">
<title>_ApplicationHelper_render_for_html_</title>
<polygon fill="lightblue" stroke="white" points="1489,-36 1248,-36 1248,0 1489,0 1489,-36"/>
<text text-anchor="middle" x="1368.5" y="-14.3" font-family="Arial" font-size="14.00">_ApplicationHelper_render_for_html_</text>
</g>
<!-- _NotificationsHelper_notification_body_&#45;&gt;_ApplicationHelper_render_for_html_ -->
<g id="edge7" class="edge">
<title>_NotificationsHelper_notification_body_&#45;&gt;_ApplicationHelper_render_for_html_</title>
<path fill="none" stroke="black" d="M1224.09,-395.82C1247.83,-333.86 1329.18,-121.6 1358.15,-46"/>
<polygon fill="black" stroke="black" points="1361.57,-46.86 1361.88,-36.27 1355.03,-44.36 1361.57,-46.86"/>
</g>
<!-- _NotificationsHelper_need_body2_ -->
<g id="node7" class="node">
<title>_NotificationsHelper_need_body2_</title>
<polygon fill="lightblue" stroke="white" points="1752,-36 1525,-36 1525,0 1752,0 1752,-36"/>
<text text-anchor="middle" x="1638.5" y="-14.3" font-family="Arial" font-size="14.00">_NotificationsHelper_need_body2_</text>
</g>
<!-- _NotificationsHelper_notification_body_&#45;&gt;_NotificationsHelper_need_body2_ -->
<g id="edge8" class="edge">
<title>_NotificationsHelper_notification_body_&#45;&gt;_NotificationsHelper_need_body2_</title>
<path fill="none" stroke="black" d="M1235.86,-395.82C1302.88,-333.1 1534.46,-116.37 1612.55,-43.28"/>
<polygon fill="black" stroke="black" points="1615.13,-45.66 1620.04,-36.27 1610.35,-40.55 1615.13,-45.66"/>
</g>
<!-- _MissingTranslationsController_message_ -->
<g id="node8" class="node">
<title>_MissingTranslationsController_message_</title>
<polygon fill="lightblue" stroke="white" points="2061,-36 1788,-36 1788,0 2061,0 2061,-36"/>
<text text-anchor="middle" x="1924.5" y="-14.3" font-family="Arial" font-size="14.00">_MissingTranslationsController_message_</text>
</g>
<!-- _NotificationsHelper_notification_body_&#45;&gt;_MissingTranslationsController_message_ -->
<g id="edge9" class="edge">
<title>_NotificationsHelper_notification_body_&#45;&gt;_MissingTranslationsController_message_</title>
<path fill="none" stroke="black" d="M1248.33,-395.82C1362.03,-332.46 1757.78,-111.91 1884.87,-41.08"/>
<polygon fill="black" stroke="black" points="1886.87,-43.98 1893.9,-36.05 1883.46,-37.86 1886.87,-43.98"/>
</g>
<!-- _NotificationsHelper_generate_extra_html_message_ -->
<g id="node9" class="node">
<title>_NotificationsHelper_generate_extra_html_message_</title>
<polygon fill="lightblue" stroke="white" points="573.5,-432 233.5,-432 233.5,-396 573.5,-396 573.5,-432"/>
<text text-anchor="middle" x="403.5" y="-410.3" font-family="Arial" font-size="14.00">_NotificationsHelper_generate_extra_html_message_</text>
</g>
<!-- _NotificationsHelper_generate_extra_html_message_&#45;&gt;_NotificationsHelper_notification_i18n_scope_ -->
<g id="edge11" class="edge">
<title>_NotificationsHelper_generate_extra_html_message_&#45;&gt;_NotificationsHelper_notification_i18n_scope_</title>
<path fill="none" stroke="black" d="M418.11,-395.82C471.22,-333.35 654.23,-118.12 717.09,-44.18"/>
<polygon fill="black" stroke="black" points="720,-46.16 723.81,-36.27 714.67,-41.62 720,-46.16"/>
</g>
<!-- _NotificationsHelper_generate_extra_html_message_&#45;&gt;_NotificationsHelper_notification_i18n_locale_ -->
<g id="edge12" class="edge">
<title>_NotificationsHelper_generate_extra_html_message_&#45;&gt;_NotificationsHelper_notification_i18n_locale_</title>
<path fill="none" stroke="black" d="M403.76,-395.82C404.7,-333.98 407.92,-122.47 409.08,-46.47"/>
<polygon fill="black" stroke="black" points="412.58,-46.33 409.24,-36.27 405.58,-46.22 412.58,-46.33"/>
</g>
<!-- _NotificationsHelper_lined_format_ -->
<g id="node10" class="node">
<title>_NotificationsHelper_lined_format_</title>
<polygon fill="lightblue" stroke="white" points="227,-36 0,-36 0,0 227,0 227,-36"/>
<text text-anchor="middle" x="113.5" y="-14.3" font-family="Arial" font-size="14.00">_NotificationsHelper_lined_format_</text>
</g>
<!-- _NotificationsHelper_generate_extra_html_message_&#45;&gt;_NotificationsHelper_lined_format_ -->
<g id="edge10" class="edge">
<title>_NotificationsHelper_generate_extra_html_message_&#45;&gt;_NotificationsHelper_lined_format_</title>
<path fill="none" stroke="black" d="M390.85,-395.82C344.97,-333.48 187.1,-118.99 132.36,-44.63"/>
<polygon fill="black" stroke="black" points="134.96,-42.25 126.21,-36.27 129.32,-46.4 134.96,-42.25"/>
</g>
</g>
</svg>
