<?xml version="1.0" encoding="UTF-8" standalone="no"?>
<!DOCTYPE svg PUBLIC "-//W3C//DTD SVG 1.1//EN"
 "http://www.w3.org/Graphics/SVG/1.1/DTD/svg11.dtd">
<!-- Generated by graphviz version 2.43.0 (0)
 -->
<!-- Title: CallGraph Pages: 1 -->
<svg width="2624pt" height="497pt"
 viewBox="0.00 0.00 2624.00 496.69" xmlns="http://www.w3.org/2000/svg" xmlns:xlink="http://www.w3.org/1999/xlink">
<g id="graph0" class="graph" transform="scale(1 1) rotate(0) translate(4 492.69)">
<title>CallGraph</title>
<polygon fill="white" stroke="transparent" points="-4,4 -4,-492.69 2620,-492.69 2620,4 -4,4"/>
<!-- _NotificationsController_destroy_invalid_notifications_ -->
<g id="node1" class="node">
<title>_NotificationsController_destroy_invalid_notifications_</title>
<polygon fill="lightblue" stroke="white" points="340,-432 0,-432 0,-396 340,-396 340,-432"/>
<text text-anchor="middle" x="170" y="-410.3" font-family="Arial" font-size="14.00">_NotificationsController_destroy_invalid_notifications_</text>
</g>
<!-- _NotificationsController_destroy_invalid_notifications_&#45;&gt;_NotificationsController_destroy_invalid_notifications_ -->
<g id="edge1" class="edge">
<title>_NotificationsController_destroy_invalid_notifications_&#45;&gt;_NotificationsController_destroy_invalid_notifications_</title>
<path fill="none" stroke="black" d="M184.3,-432.16C256.05,-512.58 376,-506.52 376,-414 376,-324.37 263.43,-315.89 191.17,-388.55"/>
<polygon fill="black" stroke="black" points="188.61,-386.16 184.3,-395.84 193.71,-390.96 188.61,-386.16"/>
</g>
<!-- _NotifierService_destroy_invalid_notifications_ -->
<g id="node2" class="node">
<title>_NotifierService_destroy_invalid_notifications_</title>
<polygon fill="lightblue" stroke="white" points="318,-36 22,-36 22,0 318,0 318,-36"/>
<text text-anchor="middle" x="170" y="-14.3" font-family="Arial" font-size="14.00">_NotifierService_destroy_invalid_notifications_</text>
</g>
<!-- _NotificationsController_destroy_invalid_notifications_&#45;&gt;_NotifierService_destroy_invalid_notifications_ -->
<g id="edge2" class="edge">
<title>_NotificationsController_destroy_invalid_notifications_&#45;&gt;_NotifierService_destroy_invalid_notifications_</title>
<path fill="none" stroke="black" d="M170,-395.82C170,-333.98 170,-122.47 170,-46.47"/>
<polygon fill="black" stroke="black" points="173.5,-46.27 170,-36.27 166.5,-46.27 173.5,-46.27"/>
</g>
<!-- _NotificationsController_list_index_definition_ -->
<g id="node3" class="node">
<title>_NotificationsController_list_index_definition_</title>
<polygon fill="lightblue" stroke="white" points="1693.5,-432 1404.5,-432 1404.5,-396 1693.5,-396 1693.5,-432"/>
<text text-anchor="middle" x="1549" y="-410.3" font-family="Arial" font-size="14.00">_NotificationsController_list_index_definition_</text>
</g>
<!-- _NotificationsController_notification_type_ -->
<g id="node4" class="node">
<title>_NotificationsController_notification_type_</title>
<polygon fill="lightblue" stroke="white" points="999.5,-36 730.5,-36 730.5,0 999.5,0 999.5,-36"/>
<text text-anchor="middle" x="865" y="-14.3" font-family="Arial" font-size="14.00">_NotificationsController_notification_type_</text>
</g>
<!-- _NotificationsController_list_index_definition_&#45;&gt;_NotificationsController_notification_type_ -->
<g id="edge3" class="edge">
<title>_NotificationsController_list_index_definition_&#45;&gt;_NotificationsController_notification_type_</title>
<path fill="none" stroke="black" d="M1519.17,-395.82C1409.17,-332.46 1026.3,-111.91 903.34,-41.08"/>
<polygon fill="black" stroke="black" points="905.01,-38.01 894.6,-36.05 901.52,-44.08 905.01,-38.01"/>
</g>
<!-- _NotificationsController_order_by_created_at_ -->
<g id="node5" class="node">
<title>_NotificationsController_order_by_created_at_</title>
<polygon fill="lightblue" stroke="white" points="694,-36 398,-36 398,0 694,0 694,-36"/>
<text text-anchor="middle" x="546" y="-14.3" font-family="Arial" font-size="14.00">_NotificationsController_order_by_created_at_</text>
</g>
<!-- _NotificationsController_list_index_definition_&#45;&gt;_NotificationsController_order_by_created_at_ -->
<g id="edge4" class="edge">
<title>_NotificationsController_list_index_definition_&#45;&gt;_NotificationsController_order_by_created_at_</title>
<path fill="none" stroke="black" d="M1505.58,-395.94C1343.68,-332.35 775.44,-109.13 598.8,-39.74"/>
<polygon fill="black" stroke="black" points="600.04,-36.47 589.45,-36.07 597.48,-42.98 600.04,-36.47"/>
</g>
<!-- _NotificationsController_order_by_checked_at_inv_ -->
<g id="node6" class="node">
<title>_NotificationsController_order_by_checked_at_inv_</title>
<polygon fill="lightblue" stroke="white" points="1362,-36 1036,-36 1036,0 1362,0 1362,-36"/>
<text text-anchor="middle" x="1199" y="-14.3" font-family="Arial" font-size="14.00">_NotificationsController_order_by_checked_at_inv_</text>
</g>
<!-- _NotificationsController_list_index_definition_&#45;&gt;_NotificationsController_order_by_checked_at_inv_ -->
<g id="edge5" class="edge">
<title>_NotificationsController_list_index_definition_&#45;&gt;_NotificationsController_order_by_checked_at_inv_</title>
<path fill="none" stroke="black" d="M1533.74,-395.82C1478.25,-333.35 1287.05,-118.12 1221.36,-44.18"/>
<polygon fill="black" stroke="black" points="1223.6,-41.43 1214.34,-36.27 1218.37,-46.07 1223.6,-41.43"/>
</g>
<!-- _NotificationsController_order_by_checked_at_ -->
<g id="node7" class="node">
<title>_NotificationsController_order_by_checked_at_</title>
<polygon fill="lightblue" stroke="white" points="1699.5,-36 1398.5,-36 1398.5,0 1699.5,0 1699.5,-36"/>
<text text-anchor="middle" x="1549" y="-14.3" font-family="Arial" font-size="14.00">_NotificationsController_order_by_checked_at_</text>
</g>
<!-- _NotificationsController_list_index_definition_&#45;&gt;_NotificationsController_order_by_checked_at_ -->
<g id="edge6" class="edge">
<title>_NotificationsController_list_index_definition_&#45;&gt;_NotificationsController_order_by_checked_at_</title>
<path fill="none" stroke="black" d="M1549,-395.82C1549,-333.98 1549,-122.47 1549,-46.47"/>
<polygon fill="black" stroke="black" points="1552.5,-46.27 1549,-36.27 1545.5,-46.27 1552.5,-46.27"/>
</g>
<!-- _NotificationsController_order_by_from_ -->
<g id="node8" class="node">
<title>_NotificationsController_order_by_from_</title>
<polygon fill="lightblue" stroke="white" points="1996,-36 1736,-36 1736,0 1996,0 1996,-36"/>
<text text-anchor="middle" x="1866" y="-14.3" font-family="Arial" font-size="14.00">_NotificationsController_order_by_from_</text>
</g>
<!-- _NotificationsController_list_index_definition_&#45;&gt;_NotificationsController_order_by_from_ -->
<g id="edge7" class="edge">
<title>_NotificationsController_list_index_definition_&#45;&gt;_NotificationsController_order_by_from_</title>
<path fill="none" stroke="black" d="M1562.82,-395.82C1613.08,-333.35 1786.25,-118.12 1845.74,-44.18"/>
<polygon fill="black" stroke="black" points="1848.56,-46.26 1852.1,-36.27 1843.11,-41.87 1848.56,-46.26"/>
</g>
<!-- _NotificationsController_order_by_body_ -->
<g id="node9" class="node">
<title>_NotificationsController_order_by_body_</title>
<polygon fill="lightblue" stroke="white" points="2293.5,-36 2032.5,-36 2032.5,0 2293.5,0 2293.5,-36"/>
<text text-anchor="middle" x="2163" y="-14.3" font-family="Arial" font-size="14.00">_NotificationsController_order_by_body_</text>
</g>
<!-- _NotificationsController_list_index_definition_&#45;&gt;_NotificationsController_order_by_body_ -->
<g id="edge8" class="edge">
<title>_NotificationsController_list_index_definition_&#45;&gt;_NotificationsController_order_by_body_</title>
<path fill="none" stroke="black" d="M1575.78,-395.82C1674.32,-332.58 2016.83,-112.79 2127.92,-41.51"/>
<polygon fill="black" stroke="black" points="2129.9,-44.4 2136.43,-36.05 2126.12,-38.51 2129.9,-44.4"/>
</g>
<!-- _NotificationsController_order_by_body_inv_ -->
<g id="node10" class="node">
<title>_NotificationsController_order_by_body_inv_</title>
<polygon fill="lightblue" stroke="white" points="2616,-36 2330,-36 2330,0 2616,0 2616,-36"/>
<text text-anchor="middle" x="2473" y="-14.3" font-family="Arial" font-size="14.00">_NotificationsController_order_by_body_inv_</text>
</g>
<!-- _NotificationsController_list_index_definition_&#45;&gt;_NotificationsController_order_by_body_inv_ -->
<g id="edge9" class="edge">
<title>_NotificationsController_list_index_definition_&#45;&gt;_NotificationsController_order_by_body_inv_</title>
<path fill="none" stroke="black" d="M1589,-395.94C1737.93,-332.44 2260.07,-109.79 2423.63,-40.05"/>
<polygon fill="black" stroke="black" points="2425.14,-43.21 2432.97,-36.07 2422.4,-36.77 2425.14,-43.21"/>
</g>
<!-- _NotificationsController_list_preview_definition_ -->
<g id="node11" class="node">
<title>_NotificationsController_list_preview_definition_</title>
<polygon fill="lightblue" stroke="white" points="697.5,-432 394.5,-432 394.5,-396 697.5,-396 697.5,-432"/>
<text text-anchor="middle" x="546" y="-410.3" font-family="Arial" font-size="14.00">_NotificationsController_list_preview_definition_</text>
</g>
<!-- _NotificationsController_list_preview_definition_&#45;&gt;_NotificationsController_order_by_created_at_ -->
<g id="edge10" class="edge">
<title>_NotificationsController_list_preview_definition_&#45;&gt;_NotificationsController_order_by_created_at_</title>
<path fill="none" stroke="black" d="M546,-395.82C546,-333.98 546,-122.47 546,-46.47"/>
<polygon fill="black" stroke="black" points="549.5,-46.27 546,-36.27 542.5,-46.27 549.5,-46.27"/>
</g>
</g>
</svg>
