<?xml version="1.0" encoding="UTF-8" standalone="no"?>
<!DOCTYPE svg PUBLIC "-//W3C//DTD SVG 1.1//EN"
 "http://www.w3.org/Graphics/SVG/1.1/DTD/svg11.dtd">
<!-- Generated by graphviz version 2.43.0 (0)
 -->
<!-- Title: CallGraph Pages: 1 -->
<svg width="581pt" height="440pt"
 viewBox="0.00 0.00 580.50 440.00" xmlns="http://www.w3.org/2000/svg" xmlns:xlink="http://www.w3.org/1999/xlink">
<g id="graph0" class="graph" transform="scale(1 1) rotate(0) translate(4 436)">
<title>CallGraph</title>
<polygon fill="white" stroke="transparent" points="-4,4 -4,-436 576.5,-436 576.5,4 -4,4"/>
<!-- _PasswordsController_create_ -->
<g id="node1" class="node">
<title>_PasswordsController_create_</title>
<polygon fill="lightblue" stroke="white" points="235,-432 34,-432 34,-396 235,-396 235,-432"/>
<text text-anchor="middle" x="134.5" y="-410.3" font-family="Arial" font-size="14.00">_PasswordsController_create_</text>
</g>
<!-- _PasswordsController_resource_params_ -->
<g id="node2" class="node">
<title>_PasswordsController_resource_params_</title>
<polygon fill="lightblue" stroke="white" points="269,-36 0,-36 0,0 269,0 269,-36"/>
<text text-anchor="middle" x="134.5" y="-14.3" font-family="Arial" font-size="14.00">_PasswordsController_resource_params_</text>
</g>
<!-- _PasswordsController_create_&#45;&gt;_PasswordsController_resource_params_ -->
<g id="edge1" class="edge">
<title>_PasswordsController_create_&#45;&gt;_PasswordsController_resource_params_</title>
<path fill="none" stroke="black" d="M134.5,-395.82C134.5,-333.98 134.5,-122.47 134.5,-46.47"/>
<polygon fill="black" stroke="black" points="138,-46.27 134.5,-36.27 131,-46.27 138,-46.27"/>
</g>
<!-- _PasswordsController_add_inline_attachment_ -->
<g id="node3" class="node">
<title>_PasswordsController_add_inline_attachment_</title>
<polygon fill="lightblue" stroke="white" points="572.5,-432 272.5,-432 272.5,-396 572.5,-396 572.5,-432"/>
<text text-anchor="middle" x="422.5" y="-410.3" font-family="Arial" font-size="14.00">_PasswordsController_add_inline_attachment_</text>
</g>
<!-- _PasswordsController_load_image_ -->
<g id="node4" class="node">
<title>_PasswordsController_load_image_</title>
<polygon fill="lightblue" stroke="white" points="539.5,-36 305.5,-36 305.5,0 539.5,0 539.5,-36"/>
<text text-anchor="middle" x="422.5" y="-14.3" font-family="Arial" font-size="14.00">_PasswordsController_load_image_</text>
</g>
<!-- _PasswordsController_add_inline_attachment_&#45;&gt;_PasswordsController_load_image_ -->
<g id="edge2" class="edge">
<title>_PasswordsController_add_inline_attachment_&#45;&gt;_PasswordsController_load_image_</title>
<path fill="none" stroke="black" d="M422.5,-395.82C422.5,-333.98 422.5,-122.47 422.5,-46.47"/>
<polygon fill="black" stroke="black" points="426,-46.27 422.5,-36.27 419,-46.27 426,-46.27"/>
</g>
</g>
</svg>
