<?xml version="1.0" encoding="UTF-8" standalone="no"?>
<!DOCTYPE svg PUBLIC "-//W3C//DTD SVG 1.1//EN"
 "http://www.w3.org/Graphics/SVG/1.1/DTD/svg11.dtd">
<!-- Generated by graphviz version 2.43.0 (0)
 -->
<!-- Title: CallGraph Pages: 1 -->
<svg width="1986pt" height="836pt"
 viewBox="0.00 0.00 1985.50 836.00" xmlns="http://www.w3.org/2000/svg" xmlns:xlink="http://www.w3.org/1999/xlink">
<g id="graph0" class="graph" transform="scale(1 1) rotate(0) translate(4 832)">
<title>CallGraph</title>
<polygon fill="white" stroke="transparent" points="-4,4 -4,-832 1981.5,-832 1981.5,4 -4,4"/>
<!-- _PasswordPolicyValidator_validate_each_ -->
<g id="node1" class="node">
<title>_PasswordPolicyValidator_validate_each_</title>
<polygon fill="lightblue" stroke="white" points="1117,-828 847,-828 847,-792 1117,-792 1117,-828"/>
<text text-anchor="middle" x="982" y="-806.3" font-family="Arial" font-size="14.00">_PasswordPolicyValidator_validate_each_</text>
</g>
<!-- _PasswordPolicyValidator_should_comply_with_pwd_format_ -->
<g id="node2" class="node">
<title>_PasswordPolicyValidator_should_comply_with_pwd_format_</title>
<polygon fill="lightblue" stroke="white" points="388,-432 0,-432 0,-396 388,-396 388,-432"/>
<text text-anchor="middle" x="194" y="-410.3" font-family="Arial" font-size="14.00">_PasswordPolicyValidator_should_comply_with_pwd_format_</text>
</g>
<!-- _PasswordPolicyValidator_validate_each_&#45;&gt;_PasswordPolicyValidator_should_comply_with_pwd_format_ -->
<g id="edge1" class="edge">
<title>_PasswordPolicyValidator_validate_each_&#45;&gt;_PasswordPolicyValidator_should_comply_with_pwd_format_</title>
<path fill="none" stroke="black" d="M947.89,-791.94C821.26,-728.63 378.25,-507.12 237.36,-436.68"/>
<polygon fill="black" stroke="black" points="238.65,-433.41 228.14,-432.07 235.52,-439.67 238.65,-433.41"/>
</g>
<!-- _PasswordPolicyValidator_should_not_be_previous_pwd_ -->
<g id="node3" class="node">
<title>_PasswordPolicyValidator_should_not_be_previous_pwd_</title>
<polygon fill="lightblue" stroke="white" points="790,-432 424,-432 424,-396 790,-396 790,-432"/>
<text text-anchor="middle" x="607" y="-410.3" font-family="Arial" font-size="14.00">_PasswordPolicyValidator_should_not_be_previous_pwd_</text>
</g>
<!-- _PasswordPolicyValidator_validate_each_&#45;&gt;_PasswordPolicyValidator_should_not_be_previous_pwd_ -->
<g id="edge2" class="edge">
<title>_PasswordPolicyValidator_validate_each_&#45;&gt;_PasswordPolicyValidator_should_not_be_previous_pwd_</title>
<path fill="none" stroke="black" d="M965.65,-791.82C906.07,-729.22 700.51,-513.24 630.54,-439.73"/>
<polygon fill="black" stroke="black" points="632.87,-437.1 623.44,-432.27 627.8,-441.93 632.87,-437.1"/>
</g>
<!-- _PasswordPolicyValidator_should_not_be_login_ -->
<g id="node4" class="node">
<title>_PasswordPolicyValidator_should_not_be_login_</title>
<polygon fill="lightblue" stroke="white" points="1137.5,-432 826.5,-432 826.5,-396 1137.5,-396 1137.5,-432"/>
<text text-anchor="middle" x="982" y="-410.3" font-family="Arial" font-size="14.00">_PasswordPolicyValidator_should_not_be_login_</text>
</g>
<!-- _PasswordPolicyValidator_validate_each_&#45;&gt;_PasswordPolicyValidator_should_not_be_login_ -->
<g id="edge3" class="edge">
<title>_PasswordPolicyValidator_validate_each_&#45;&gt;_PasswordPolicyValidator_should_not_be_login_</title>
<path fill="none" stroke="black" d="M982,-791.82C982,-729.98 982,-518.47 982,-442.47"/>
<polygon fill="black" stroke="black" points="985.5,-442.27 982,-432.27 978.5,-442.27 985.5,-442.27"/>
</g>
<!-- _PasswordPolicyValidator_should_not_be_inverted_login_ -->
<g id="node5" class="node">
<title>_PasswordPolicyValidator_should_not_be_inverted_login_</title>
<polygon fill="lightblue" stroke="white" points="1540.5,-432 1173.5,-432 1173.5,-396 1540.5,-396 1540.5,-432"/>
<text text-anchor="middle" x="1357" y="-410.3" font-family="Arial" font-size="14.00">_PasswordPolicyValidator_should_not_be_inverted_login_</text>
</g>
<!-- _PasswordPolicyValidator_validate_each_&#45;&gt;_PasswordPolicyValidator_should_not_be_inverted_login_ -->
<g id="edge4" class="edge">
<title>_PasswordPolicyValidator_validate_each_&#45;&gt;_PasswordPolicyValidator_should_not_be_inverted_login_</title>
<path fill="none" stroke="black" d="M998.35,-791.82C1057.93,-729.22 1263.49,-513.24 1333.46,-439.73"/>
<polygon fill="black" stroke="black" points="1336.2,-441.93 1340.56,-432.27 1331.13,-437.1 1336.2,-441.93"/>
</g>
<!-- _PasswordPolicyValidator_should_not_contain_common_word_ -->
<g id="node6" class="node">
<title>_PasswordPolicyValidator_should_not_contain_common_word_</title>
<polygon fill="lightblue" stroke="white" points="1977.5,-432 1576.5,-432 1576.5,-396 1977.5,-396 1977.5,-432"/>
<text text-anchor="middle" x="1777" y="-410.3" font-family="Arial" font-size="14.00">_PasswordPolicyValidator_should_not_contain_common_word_</text>
</g>
<!-- _PasswordPolicyValidator_validate_each_&#45;&gt;_PasswordPolicyValidator_should_not_contain_common_word_ -->
<g id="edge5" class="edge">
<title>_PasswordPolicyValidator_validate_each_&#45;&gt;_PasswordPolicyValidator_should_not_contain_common_word_</title>
<path fill="none" stroke="black" d="M1016.42,-791.94C1144.17,-728.63 1591.12,-507.12 1733.25,-436.68"/>
<polygon fill="black" stroke="black" points="1735.15,-439.65 1742.56,-432.07 1732.04,-433.37 1735.15,-439.65"/>
</g>
<!-- _PasswordPolicyValidator_add_error_msg_ -->
<g id="node7" class="node">
<title>_PasswordPolicyValidator_add_error_msg_</title>
<polygon fill="lightblue" stroke="white" points="1121.5,-36 842.5,-36 842.5,0 1121.5,0 1121.5,-36"/>
<text text-anchor="middle" x="982" y="-14.3" font-family="Arial" font-size="14.00">_PasswordPolicyValidator_add_error_msg_</text>
</g>
<!-- _PasswordPolicyValidator_should_comply_with_pwd_format_&#45;&gt;_PasswordPolicyValidator_add_error_msg_ -->
<g id="edge6" class="edge">
<title>_PasswordPolicyValidator_should_comply_with_pwd_format_&#45;&gt;_PasswordPolicyValidator_add_error_msg_</title>
<path fill="none" stroke="black" d="M228.11,-395.94C354.74,-332.63 797.75,-111.12 938.64,-40.68"/>
<polygon fill="black" stroke="black" points="940.48,-43.67 947.86,-36.07 937.35,-37.41 940.48,-43.67"/>
</g>
<!-- _PasswordPolicyValidator_should_not_be_previous_pwd_&#45;&gt;_PasswordPolicyValidator_add_error_msg_ -->
<g id="edge7" class="edge">
<title>_PasswordPolicyValidator_should_not_be_previous_pwd_&#45;&gt;_PasswordPolicyValidator_add_error_msg_</title>
<path fill="none" stroke="black" d="M623.35,-395.82C682.93,-333.22 888.49,-117.24 958.46,-43.73"/>
<polygon fill="black" stroke="black" points="961.2,-45.93 965.56,-36.27 956.13,-41.1 961.2,-45.93"/>
</g>
<!-- _PasswordPolicyValidator_should_not_be_login_&#45;&gt;_PasswordPolicyValidator_add_error_msg_ -->
<g id="edge8" class="edge">
<title>_PasswordPolicyValidator_should_not_be_login_&#45;&gt;_PasswordPolicyValidator_add_error_msg_</title>
<path fill="none" stroke="black" d="M982,-395.82C982,-333.98 982,-122.47 982,-46.47"/>
<polygon fill="black" stroke="black" points="985.5,-46.27 982,-36.27 978.5,-46.27 985.5,-46.27"/>
</g>
<!-- _PasswordPolicyValidator_should_not_be_inverted_login_&#45;&gt;_PasswordPolicyValidator_add_error_msg_ -->
<g id="edge9" class="edge">
<title>_PasswordPolicyValidator_should_not_be_inverted_login_&#45;&gt;_PasswordPolicyValidator_add_error_msg_</title>
<path fill="none" stroke="black" d="M1340.65,-395.82C1281.07,-333.22 1075.51,-117.24 1005.54,-43.73"/>
<polygon fill="black" stroke="black" points="1007.87,-41.1 998.44,-36.27 1002.8,-45.93 1007.87,-41.1"/>
</g>
<!-- _PasswordPolicyValidator_should_not_contain_common_word_&#45;&gt;_PasswordPolicyValidator_add_error_msg_ -->
<g id="edge10" class="edge">
<title>_PasswordPolicyValidator_should_not_contain_common_word_&#45;&gt;_PasswordPolicyValidator_add_error_msg_</title>
<path fill="none" stroke="black" d="M1742.58,-395.94C1614.83,-332.63 1167.88,-111.12 1025.75,-40.68"/>
<polygon fill="black" stroke="black" points="1026.96,-37.37 1016.44,-36.07 1023.85,-43.65 1026.96,-37.37"/>
</g>
</g>
</svg>
