<?xml version="1.0" encoding="UTF-8" standalone="no"?>
<!DOCTYPE svg PUBLIC "-//W3C//DTD SVG 1.1//EN"
 "http://www.w3.org/Graphics/SVG/1.1/DTD/svg11.dtd">
<!-- Generated by graphviz version 2.43.0 (0)
 -->
<!-- Title: CallGraph Pages: 1 -->
<svg width="760pt" height="440pt"
 viewBox="0.00 0.00 760.00 440.00" xmlns="http://www.w3.org/2000/svg" xmlns:xlink="http://www.w3.org/1999/xlink">
<g id="graph0" class="graph" transform="scale(1 1) rotate(0) translate(4 436)">
<title>CallGraph</title>
<polygon fill="white" stroke="transparent" points="-4,4 -4,-436 756,-436 756,4 -4,4"/>
<!-- _PilotController_new_ -->
<g id="node1" class="node">
<title>_PilotController_new_</title>
<polygon fill="lightblue" stroke="white" points="149,-432 0,-432 0,-396 149,-396 149,-432"/>
<text text-anchor="middle" x="74.5" y="-410.3" font-family="Arial" font-size="14.00">_PilotController_new_</text>
</g>
<!-- _PilotController_open_form_pilot_ -->
<g id="node2" class="node">
<title>_PilotController_open_form_pilot_</title>
<polygon fill="lightblue" stroke="white" points="317,-36 96,-36 96,0 317,0 317,-36"/>
<text text-anchor="middle" x="206.5" y="-14.3" font-family="Arial" font-size="14.00">_PilotController_open_form_pilot_</text>
</g>
<!-- _PilotController_new_&#45;&gt;_PilotController_open_form_pilot_ -->
<g id="edge1" class="edge">
<title>_PilotController_new_&#45;&gt;_PilotController_open_form_pilot_</title>
<path fill="none" stroke="black" d="M80.26,-395.82C101.01,-333.86 172.13,-121.6 197.45,-46"/>
<polygon fill="black" stroke="black" points="200.85,-46.87 200.71,-36.27 194.22,-44.64 200.85,-46.87"/>
</g>
<!-- _PilotController_edit_ -->
<g id="node3" class="node">
<title>_PilotController_edit_</title>
<polygon fill="lightblue" stroke="white" points="331.5,-432 185.5,-432 185.5,-396 331.5,-396 331.5,-432"/>
<text text-anchor="middle" x="258.5" y="-410.3" font-family="Arial" font-size="14.00">_PilotController_edit_</text>
</g>
<!-- _PilotController_edit_&#45;&gt;_PilotController_open_form_pilot_ -->
<g id="edge2" class="edge">
<title>_PilotController_edit_&#45;&gt;_PilotController_open_form_pilot_</title>
<path fill="none" stroke="black" d="M256.23,-395.82C248.07,-333.98 220.16,-122.47 210.13,-46.47"/>
<polygon fill="black" stroke="black" points="213.56,-45.73 208.78,-36.27 206.62,-46.65 213.56,-45.73"/>
</g>
<!-- _PilotController_create_ -->
<g id="node4" class="node">
<title>_PilotController_create_</title>
<polygon fill="lightblue" stroke="white" points="551,-432 390,-432 390,-396 551,-396 551,-432"/>
<text text-anchor="middle" x="470.5" y="-410.3" font-family="Arial" font-size="14.00">_PilotController_create_</text>
</g>
<!-- _PilotController_set_pilot_ -->
<g id="node5" class="node">
<title>_PilotController_set_pilot_</title>
<polygon fill="lightblue" stroke="white" points="608.5,-36 434.5,-36 434.5,0 608.5,0 608.5,-36"/>
<text text-anchor="middle" x="521.5" y="-14.3" font-family="Arial" font-size="14.00">_PilotController_set_pilot_</text>
</g>
<!-- _PilotController_create_&#45;&gt;_PilotController_set_pilot_ -->
<g id="edge3" class="edge">
<title>_PilotController_create_&#45;&gt;_PilotController_set_pilot_</title>
<path fill="none" stroke="black" d="M472.72,-395.82C480.73,-333.98 508.11,-122.47 517.94,-46.47"/>
<polygon fill="black" stroke="black" points="521.45,-46.64 519.26,-36.27 514.51,-45.74 521.45,-46.64"/>
</g>
<!-- _PilotController_update_ -->
<g id="node6" class="node">
<title>_PilotController_update_</title>
<polygon fill="lightblue" stroke="white" points="752,-432 587,-432 587,-396 752,-396 752,-432"/>
<text text-anchor="middle" x="669.5" y="-410.3" font-family="Arial" font-size="14.00">_PilotController_update_</text>
</g>
<!-- _PilotController_update_&#45;&gt;_PilotController_set_pilot_ -->
<g id="edge4" class="edge">
<title>_PilotController_update_&#45;&gt;_PilotController_set_pilot_</title>
<path fill="none" stroke="black" d="M663.05,-395.82C639.77,-333.86 560.04,-121.6 531.64,-46"/>
<polygon fill="black" stroke="black" points="534.78,-44.4 527.99,-36.27 528.23,-46.87 534.78,-44.4"/>
</g>
</g>
</svg>
