<?xml version="1.0" encoding="UTF-8" standalone="no"?>
<!DOCTYPE svg PUBLIC "-//W3C//DTD SVG 1.1//EN"
 "http://www.w3.org/Graphics/SVG/1.1/DTD/svg11.dtd">
<!-- Generated by graphviz version 2.43.0 (0)
 -->
<!-- Title: CallGraph Pages: 1 -->
<svg width="951pt" height="440pt"
 viewBox="0.00 0.00 951.00 440.00" xmlns="http://www.w3.org/2000/svg" xmlns:xlink="http://www.w3.org/1999/xlink">
<g id="graph0" class="graph" transform="scale(1 1) rotate(0) translate(4 436)">
<title>CallGraph</title>
<polygon fill="white" stroke="transparent" points="-4,4 -4,-436 947,-436 947,4 -4,4"/>
<!-- _PrintController_preferences_ -->
<g id="node1" class="node">
<title>_PrintController_preferences_</title>
<polygon fill="lightblue" stroke="white" points="220,-432 23,-432 23,-396 220,-396 220,-432"/>
<text text-anchor="middle" x="121.5" y="-410.3" font-family="Arial" font-size="14.00">_PrintController_preferences_</text>
</g>
<!-- _PrintController_list_index_definition_ -->
<g id="node2" class="node">
<title>_PrintController_list_index_definition_</title>
<polygon fill="lightblue" stroke="white" points="243,-36 0,-36 0,0 243,0 243,-36"/>
<text text-anchor="middle" x="121.5" y="-14.3" font-family="Arial" font-size="14.00">_PrintController_list_index_definition_</text>
</g>
<!-- _PrintController_preferences_&#45;&gt;_PrintController_list_index_definition_ -->
<g id="edge1" class="edge">
<title>_PrintController_preferences_&#45;&gt;_PrintController_list_index_definition_</title>
<path fill="none" stroke="black" d="M121.5,-395.82C121.5,-333.98 121.5,-122.47 121.5,-46.47"/>
<polygon fill="black" stroke="black" points="125,-46.27 121.5,-36.27 118,-46.27 125,-46.27"/>
</g>
<!-- _PrintController_print_ -->
<g id="node3" class="node">
<title>_PrintController_print_</title>
<polygon fill="lightblue" stroke="white" points="569.5,-432 417.5,-432 417.5,-396 569.5,-396 569.5,-432"/>
<text text-anchor="middle" x="493.5" y="-410.3" font-family="Arial" font-size="14.00">_PrintController_print_</text>
</g>
<!-- _PrintController_print_&#45;&gt;_PrintController_list_index_definition_ -->
<g id="edge2" class="edge">
<title>_PrintController_print_&#45;&gt;_PrintController_list_index_definition_</title>
<path fill="none" stroke="black" d="M477.28,-395.82C418.18,-333.22 214.26,-117.24 144.85,-43.73"/>
<polygon fill="black" stroke="black" points="147.22,-41.14 137.81,-36.27 142.13,-45.95 147.22,-41.14"/>
</g>
<!-- _ExternalUsersService_parse_ -->
<g id="node4" class="node">
<title>_ExternalUsersService_parse_</title>
<polygon fill="lightblue" stroke="white" points="482,-36 279,-36 279,0 482,0 482,-36"/>
<text text-anchor="middle" x="380.5" y="-14.3" font-family="Arial" font-size="14.00">_ExternalUsersService_parse_</text>
</g>
<!-- _PrintController_print_&#45;&gt;_ExternalUsersService_parse_ -->
<g id="edge3" class="edge">
<title>_PrintController_print_&#45;&gt;_ExternalUsersService_parse_</title>
<path fill="none" stroke="black" d="M488.57,-395.82C470.8,-333.86 409.93,-121.6 388.24,-46"/>
<polygon fill="black" stroke="black" points="391.58,-44.92 385.45,-36.27 384.85,-46.85 391.58,-44.92"/>
</g>
<!-- _SsoUsersService_parse_ -->
<g id="node5" class="node">
<title>_SsoUsersService_parse_</title>
<polygon fill="lightblue" stroke="white" points="694.5,-36 518.5,-36 518.5,0 694.5,0 694.5,-36"/>
<text text-anchor="middle" x="606.5" y="-14.3" font-family="Arial" font-size="14.00">_SsoUsersService_parse_</text>
</g>
<!-- _PrintController_print_&#45;&gt;_SsoUsersService_parse_ -->
<g id="edge4" class="edge">
<title>_PrintController_print_&#45;&gt;_SsoUsersService_parse_</title>
<path fill="none" stroke="black" d="M498.43,-395.82C516.2,-333.86 577.07,-121.6 598.76,-46"/>
<polygon fill="black" stroke="black" points="602.15,-46.85 601.55,-36.27 595.42,-44.92 602.15,-46.85"/>
</g>
<!-- _PrintController_build_filename_ -->
<g id="node6" class="node">
<title>_PrintController_build_filename_</title>
<polygon fill="lightblue" stroke="white" points="943,-36 730,-36 730,0 943,0 943,-36"/>
<text text-anchor="middle" x="836.5" y="-14.3" font-family="Arial" font-size="14.00">_PrintController_build_filename_</text>
</g>
<!-- _PrintController_print_&#45;&gt;_PrintController_build_filename_ -->
<g id="edge5" class="edge">
<title>_PrintController_print_&#45;&gt;_PrintController_build_filename_</title>
<path fill="none" stroke="black" d="M508.46,-395.82C562.84,-333.35 750.21,-118.12 814.58,-44.18"/>
<polygon fill="black" stroke="black" points="817.54,-46.11 821.46,-36.27 812.26,-41.52 817.54,-46.11"/>
</g>
</g>
</svg>
