<?xml version="1.0" encoding="UTF-8" standalone="no"?>
<!DOCTYPE svg PUBLIC "-//W3C//DTD SVG 1.1//EN"
 "http://www.w3.org/Graphics/SVG/1.1/DTD/svg11.dtd">
<!-- Generated by graphviz version 2.43.0 (0)
 -->
<!-- Title: CallGraph Pages: 1 -->
<svg width="580pt" height="440pt"
 viewBox="0.00 0.00 579.50 440.00" xmlns="http://www.w3.org/2000/svg" xmlns:xlink="http://www.w3.org/1999/xlink">
<g id="graph0" class="graph" transform="scale(1 1) rotate(0) translate(4 436)">
<title>CallGraph</title>
<polygon fill="white" stroke="transparent" points="-4,4 -4,-436 575.5,-436 575.5,4 -4,4"/>
<!-- _PublisherController_user_accept_ -->
<g id="node1" class="node">
<title>_PublisherController_user_accept_</title>
<polygon fill="lightblue" stroke="white" points="227,-432 0,-432 0,-396 227,-396 227,-432"/>
<text text-anchor="middle" x="113.5" y="-410.3" font-family="Arial" font-size="14.00">_PublisherController_user_accept_</text>
</g>
<!-- _PublisherController_parse_iso8601_ -->
<g id="node2" class="node">
<title>_PublisherController_parse_iso8601_</title>
<polygon fill="lightblue" stroke="white" points="386.5,-36 144.5,-36 144.5,0 386.5,0 386.5,-36"/>
<text text-anchor="middle" x="265.5" y="-14.3" font-family="Arial" font-size="14.00">_PublisherController_parse_iso8601_</text>
</g>
<!-- _PublisherController_user_accept_&#45;&gt;_PublisherController_parse_iso8601_ -->
<g id="edge1" class="edge">
<title>_PublisherController_user_accept_&#45;&gt;_PublisherController_parse_iso8601_</title>
<path fill="none" stroke="black" d="M120.13,-395.82C144.03,-333.86 225.92,-121.6 255.08,-46"/>
<polygon fill="black" stroke="black" points="258.5,-46.86 258.84,-36.27 251.97,-44.34 258.5,-46.86"/>
</g>
<!-- _PublisherController_admin_accept_instead_of_ -->
<g id="node3" class="node">
<title>_PublisherController_admin_accept_instead_of_</title>
<polygon fill="lightblue" stroke="white" points="571.5,-432 263.5,-432 263.5,-396 571.5,-396 571.5,-432"/>
<text text-anchor="middle" x="417.5" y="-410.3" font-family="Arial" font-size="14.00">_PublisherController_admin_accept_instead_of_</text>
</g>
<!-- _PublisherController_admin_accept_instead_of_&#45;&gt;_PublisherController_parse_iso8601_ -->
<g id="edge2" class="edge">
<title>_PublisherController_admin_accept_instead_of_&#45;&gt;_PublisherController_parse_iso8601_</title>
<path fill="none" stroke="black" d="M410.87,-395.82C386.97,-333.86 305.08,-121.6 275.92,-46"/>
<polygon fill="black" stroke="black" points="279.03,-44.34 272.16,-36.27 272.5,-46.86 279.03,-44.34"/>
</g>
</g>
</svg>
