<?xml version="1.0" encoding="UTF-8" standalone="no"?>
<!DOCTYPE svg PUBLIC "-//W3C//DTD SVG 1.1//EN"
 "http://www.w3.org/Graphics/SVG/1.1/DTD/svg11.dtd">
<!-- Generated by graphviz version 2.43.0 (0)
 -->
<!-- Title: CallGraph Pages: 1 -->
<svg width="3164pt" height="836pt"
 viewBox="0.00 0.00 3163.50 836.00" xmlns="http://www.w3.org/2000/svg" xmlns:xlink="http://www.w3.org/1999/xlink">
<g id="graph0" class="graph" transform="scale(1 1) rotate(0) translate(4 832)">
<title>CallGraph</title>
<polygon fill="white" stroke="transparent" points="-4,4 -4,-832 3159.5,-832 3159.5,4 -4,4"/>
<!-- _RegistrationsController_update_password_ -->
<g id="node1" class="node">
<title>_RegistrationsController_update_password_</title>
<polygon fill="lightblue" stroke="white" points="302,-828 19,-828 19,-792 302,-792 302,-828"/>
<text text-anchor="middle" x="160.5" y="-806.3" font-family="Arial" font-size="14.00">_RegistrationsController_update_password_</text>
</g>
<!-- _RegistrationsController_user_password_params_ -->
<g id="node2" class="node">
<title>_RegistrationsController_user_password_params_</title>
<polygon fill="lightblue" stroke="white" points="321,-432 0,-432 0,-396 321,-396 321,-432"/>
<text text-anchor="middle" x="160.5" y="-410.3" font-family="Arial" font-size="14.00">_RegistrationsController_user_password_params_</text>
</g>
<!-- _RegistrationsController_update_password_&#45;&gt;_RegistrationsController_user_password_params_ -->
<g id="edge1" class="edge">
<title>_RegistrationsController_update_password_&#45;&gt;_RegistrationsController_user_password_params_</title>
<path fill="none" stroke="black" d="M160.5,-791.82C160.5,-729.98 160.5,-518.47 160.5,-442.47"/>
<polygon fill="black" stroke="black" points="164,-442.27 160.5,-432.27 157,-442.27 164,-442.27"/>
</g>
<!-- _RegistrationsController_update_ -->
<g id="node3" class="node">
<title>_RegistrationsController_update_</title>
<polygon fill="lightblue" stroke="white" points="1737.5,-828 1519.5,-828 1519.5,-792 1737.5,-792 1737.5,-828"/>
<text text-anchor="middle" x="1628.5" y="-806.3" font-family="Arial" font-size="14.00">_RegistrationsController_update_</text>
</g>
<!-- _RegistrationsController_can_change_pyx4_module_responsibilities_ -->
<g id="node4" class="node">
<title>_RegistrationsController_can_change_pyx4_module_responsibilities_</title>
<polygon fill="lightblue" stroke="white" points="791.5,-432 357.5,-432 357.5,-396 791.5,-396 791.5,-432"/>
<text text-anchor="middle" x="574.5" y="-410.3" font-family="Arial" font-size="14.00">_RegistrationsController_can_change_pyx4_module_responsibilities_</text>
</g>
<!-- _RegistrationsController_update_&#45;&gt;_RegistrationsController_can_change_pyx4_module_responsibilities_ -->
<g id="edge2" class="edge">
<title>_RegistrationsController_update_&#45;&gt;_RegistrationsController_can_change_pyx4_module_responsibilities_</title>
<path fill="none" stroke="black" d="M1582.87,-791.94C1412.66,-728.31 815.01,-504.91 629.71,-435.64"/>
<polygon fill="black" stroke="black" points="630.76,-432.29 620.16,-432.07 628.3,-438.85 630.76,-432.29"/>
</g>
<!-- _RegistrationsController_update_user_profile_ -->
<g id="node5" class="node">
<title>_RegistrationsController_update_user_profile_</title>
<polygon fill="lightblue" stroke="white" points="1123.5,-432 827.5,-432 827.5,-396 1123.5,-396 1123.5,-432"/>
<text text-anchor="middle" x="975.5" y="-410.3" font-family="Arial" font-size="14.00">_RegistrationsController_update_user_profile_</text>
</g>
<!-- _RegistrationsController_update_&#45;&gt;_RegistrationsController_update_user_profile_ -->
<g id="edge3" class="edge">
<title>_RegistrationsController_update_&#45;&gt;_RegistrationsController_update_user_profile_</title>
<path fill="none" stroke="black" d="M1600.02,-791.82C1495.11,-728.52 1130.22,-508.35 1012.45,-437.3"/>
<polygon fill="black" stroke="black" points="1014.13,-434.22 1003.76,-432.05 1010.51,-440.21 1014.13,-434.22"/>
</g>
<!-- _RegistrationsController_update_improver_profile_ -->
<g id="node6" class="node">
<title>_RegistrationsController_update_improver_profile_</title>
<polygon fill="lightblue" stroke="white" points="1483,-432 1160,-432 1160,-396 1483,-396 1483,-432"/>
<text text-anchor="middle" x="1321.5" y="-410.3" font-family="Arial" font-size="14.00">_RegistrationsController_update_improver_profile_</text>
</g>
<!-- _RegistrationsController_update_&#45;&gt;_RegistrationsController_update_improver_profile_ -->
<g id="edge4" class="edge">
<title>_RegistrationsController_update_&#45;&gt;_RegistrationsController_update_improver_profile_</title>
<path fill="none" stroke="black" d="M1615.11,-791.82C1566.44,-729.35 1398.73,-514.12 1341.12,-440.18"/>
<polygon fill="black" stroke="black" points="1343.87,-438.01 1334.96,-432.27 1338.34,-442.31 1343.87,-438.01"/>
</g>
<!-- _RegistrationsController_update_user_ -->
<g id="node7" class="node">
<title>_RegistrationsController_update_user_</title>
<polygon fill="lightblue" stroke="white" points="1845,-432 1594,-432 1594,-396 1845,-396 1845,-432"/>
<text text-anchor="middle" x="1719.5" y="-410.3" font-family="Arial" font-size="14.00">_RegistrationsController_update_user_</text>
</g>
<!-- _RegistrationsController_update_&#45;&gt;_RegistrationsController_update_user_ -->
<g id="edge5" class="edge">
<title>_RegistrationsController_update_&#45;&gt;_RegistrationsController_update_user_</title>
<path fill="none" stroke="black" d="M1632.47,-791.82C1646.75,-729.98 1695.6,-518.47 1713.16,-442.47"/>
<polygon fill="black" stroke="black" points="1716.67,-442.8 1715.51,-432.27 1709.85,-441.23 1716.67,-442.8"/>
</g>
<!-- _RegistrationsController_user_params_ -->
<g id="node8" class="node">
<title>_RegistrationsController_user_params_</title>
<polygon fill="lightblue" stroke="white" points="1449.5,-36 1193.5,-36 1193.5,0 1449.5,0 1449.5,-36"/>
<text text-anchor="middle" x="1321.5" y="-14.3" font-family="Arial" font-size="14.00">_RegistrationsController_user_params_</text>
</g>
<!-- _RegistrationsController_update_&#45;&gt;_RegistrationsController_user_params_ -->
<g id="edge6" class="edge">
<title>_RegistrationsController_update_&#45;&gt;_RegistrationsController_user_params_</title>
<path fill="none" stroke="black" d="M1624.11,-791.79C1609.33,-734.59 1559.01,-546.01 1500.5,-396 1447.64,-260.49 1367.6,-105.66 1335.52,-45.16"/>
<polygon fill="black" stroke="black" points="1338.58,-43.46 1330.8,-36.27 1332.4,-46.75 1338.58,-43.46"/>
</g>
<!-- _RegistrationsController_user_params_without_rights_ -->
<g id="node9" class="node">
<title>_RegistrationsController_user_params_without_rights_</title>
<polygon fill="lightblue" stroke="white" points="2228,-432 1881,-432 1881,-396 2228,-396 2228,-432"/>
<text text-anchor="middle" x="2054.5" y="-410.3" font-family="Arial" font-size="14.00">_RegistrationsController_user_params_without_rights_</text>
</g>
<!-- _RegistrationsController_update_&#45;&gt;_RegistrationsController_user_params_without_rights_ -->
<g id="edge7" class="edge">
<title>_RegistrationsController_update_&#45;&gt;_RegistrationsController_user_params_without_rights_</title>
<path fill="none" stroke="black" d="M1647.08,-791.82C1714.89,-729.1 1949.22,-512.37 2028.24,-439.28"/>
<polygon fill="black" stroke="black" points="2030.86,-441.63 2035.82,-432.27 2026.11,-436.49 2030.86,-441.63"/>
</g>
<!-- _RegistrationsController_add_max_users_errors_ -->
<g id="node10" class="node">
<title>_RegistrationsController_add_max_users_errors_</title>
<polygon fill="lightblue" stroke="white" points="2579.5,-432 2263.5,-432 2263.5,-396 2579.5,-396 2579.5,-432"/>
<text text-anchor="middle" x="2421.5" y="-410.3" font-family="Arial" font-size="14.00">_RegistrationsController_add_max_users_errors_</text>
</g>
<!-- _RegistrationsController_update_&#45;&gt;_RegistrationsController_add_max_users_errors_ -->
<g id="edge8" class="edge">
<title>_RegistrationsController_update_&#45;&gt;_RegistrationsController_add_max_users_errors_</title>
<path fill="none" stroke="black" d="M1662.83,-791.94C1790.26,-728.63 2236.08,-507.12 2377.86,-436.68"/>
<polygon fill="black" stroke="black" points="2379.75,-439.65 2387.14,-432.07 2376.63,-433.38 2379.75,-439.65"/>
</g>
<!-- _RegistrationsController_respond_bip_error_ -->
<g id="node11" class="node">
<title>_RegistrationsController_respond_bip_error_</title>
<polygon fill="lightblue" stroke="white" points="2903,-432 2616,-432 2616,-396 2903,-396 2903,-432"/>
<text text-anchor="middle" x="2759.5" y="-410.3" font-family="Arial" font-size="14.00">_RegistrationsController_respond_bip_error_</text>
</g>
<!-- _RegistrationsController_update_&#45;&gt;_RegistrationsController_respond_bip_error_ -->
<g id="edge9" class="edge">
<title>_RegistrationsController_update_&#45;&gt;_RegistrationsController_respond_bip_error_</title>
<path fill="none" stroke="black" d="M1677.46,-791.94C1860.29,-728.25 2502.69,-504.46 2700.85,-435.43"/>
<polygon fill="black" stroke="black" points="2702.21,-438.66 2710.5,-432.07 2699.91,-432.05 2702.21,-438.66"/>
</g>
<!-- _RegistrationsController_update_user_profile_&#45;&gt;_RegistrationsController_user_params_ -->
<g id="edge11" class="edge">
<title>_RegistrationsController_update_user_profile_&#45;&gt;_RegistrationsController_user_params_</title>
<path fill="none" stroke="black" d="M990.59,-395.82C1045.45,-333.35 1234.46,-118.12 1299.39,-44.18"/>
<polygon fill="black" stroke="black" points="1302.36,-46.1 1306.33,-36.27 1297.1,-41.48 1302.36,-46.1"/>
</g>
<!-- _RegistrationsController_update_improver_profile_&#45;&gt;_RegistrationsController_user_params_ -->
<g id="edge12" class="edge">
<title>_RegistrationsController_update_improver_profile_&#45;&gt;_RegistrationsController_user_params_</title>
<path fill="none" stroke="black" d="M1321.5,-395.82C1321.5,-333.98 1321.5,-122.47 1321.5,-46.47"/>
<polygon fill="black" stroke="black" points="1325,-46.27 1321.5,-36.27 1318,-46.27 1325,-46.27"/>
</g>
<!-- _RegistrationsController_improver_responsibilities_in_params_ -->
<g id="node14" class="node">
<title>_RegistrationsController_improver_responsibilities_in_params_</title>
<polygon fill="lightblue" stroke="white" points="1918,-36 1521,-36 1521,0 1918,0 1918,-36"/>
<text text-anchor="middle" x="1719.5" y="-14.3" font-family="Arial" font-size="14.00">_RegistrationsController_improver_responsibilities_in_params_</text>
</g>
<!-- _RegistrationsController_update_user_&#45;&gt;_RegistrationsController_improver_responsibilities_in_params_ -->
<g id="edge13" class="edge">
<title>_RegistrationsController_update_user_&#45;&gt;_RegistrationsController_improver_responsibilities_in_params_</title>
<path fill="none" stroke="black" d="M1719.5,-395.82C1719.5,-333.98 1719.5,-122.47 1719.5,-46.47"/>
<polygon fill="black" stroke="black" points="1723,-46.27 1719.5,-36.27 1716,-46.27 1723,-46.27"/>
</g>
<!-- _RegistrationsController_restore_ -->
<g id="node12" class="node">
<title>_RegistrationsController_restore_</title>
<polygon fill="lightblue" stroke="white" points="3155.5,-828 2937.5,-828 2937.5,-792 3155.5,-792 3155.5,-828"/>
<text text-anchor="middle" x="3046.5" y="-806.3" font-family="Arial" font-size="14.00">_RegistrationsController_restore_</text>
</g>
<!-- _Notificationmailer_inform_user_ -->
<g id="node13" class="node">
<title>_Notificationmailer_inform_user_</title>
<polygon fill="lightblue" stroke="white" points="3154,-432 2939,-432 2939,-396 3154,-396 3154,-432"/>
<text text-anchor="middle" x="3046.5" y="-410.3" font-family="Arial" font-size="14.00">_Notificationmailer_inform_user_</text>
</g>
<!-- _RegistrationsController_restore_&#45;&gt;_Notificationmailer_inform_user_ -->
<g id="edge10" class="edge">
<title>_RegistrationsController_restore_&#45;&gt;_Notificationmailer_inform_user_</title>
<path fill="none" stroke="black" d="M3046.5,-791.82C3046.5,-729.98 3046.5,-518.47 3046.5,-442.47"/>
<polygon fill="black" stroke="black" points="3050,-442.27 3046.5,-432.27 3043,-442.27 3050,-442.27"/>
</g>
</g>
</svg>
