<?xml version="1.0" encoding="UTF-8" standalone="no"?>
<!DOCTYPE svg PUBLIC "-//W3C//DTD SVG 1.1//EN"
 "http://www.w3.org/Graphics/SVG/1.1/DTD/svg11.dtd">
<!-- Generated by graphviz version 2.43.0 (0)
 -->
<!-- Title: CallGraph Pages: 1 -->
<svg width="803pt" height="836pt"
 viewBox="0.00 0.00 802.50 836.00" xmlns="http://www.w3.org/2000/svg" xmlns:xlink="http://www.w3.org/1999/xlink">
<g id="graph0" class="graph" transform="scale(1 1) rotate(0) translate(4 832)">
<title>CallGraph</title>
<polygon fill="white" stroke="transparent" points="-4,4 -4,-832 798.5,-832 798.5,4 -4,4"/>
<!-- _RepositoryHelper_repository_dynasty_ -->
<g id="node1" class="node">
<title>_RepositoryHelper_repository_dynasty_</title>
<polygon fill="lightblue" stroke="white" points="370,-828 113,-828 113,-792 370,-792 370,-828"/>
<text text-anchor="middle" x="241.5" y="-806.3" font-family="Arial" font-size="14.00">_RepositoryHelper_repository_dynasty_</text>
</g>
<!-- _RepositoryHelper_repository_dynasty_list_ -->
<g id="node2" class="node">
<title>_RepositoryHelper_repository_dynasty_list_</title>
<polygon fill="lightblue" stroke="white" points="382,-432 101,-432 101,-396 382,-396 382,-432"/>
<text text-anchor="middle" x="241.5" y="-410.3" font-family="Arial" font-size="14.00">_RepositoryHelper_repository_dynasty_list_</text>
</g>
<!-- _RepositoryHelper_repository_dynasty_&#45;&gt;_RepositoryHelper_repository_dynasty_list_ -->
<g id="edge1" class="edge">
<title>_RepositoryHelper_repository_dynasty_&#45;&gt;_RepositoryHelper_repository_dynasty_list_</title>
<path fill="none" stroke="black" d="M241.5,-791.82C241.5,-729.98 241.5,-518.47 241.5,-442.47"/>
<polygon fill="black" stroke="black" points="245,-442.27 241.5,-432.27 238,-442.27 245,-442.27"/>
</g>
<!-- _RepositoryHelper_repository_dynasty_list_&#45;&gt;_RepositoryHelper_repository_dynasty_list_ -->
<g id="edge4" class="edge">
<title>_RepositoryHelper_repository_dynasty_list_&#45;&gt;_RepositoryHelper_repository_dynasty_list_</title>
<path fill="none" stroke="black" d="M253.75,-432.16C315.23,-512.58 418,-506.52 418,-414 418,-324.73 322.33,-315.96 260.38,-387.68"/>
<polygon fill="black" stroke="black" points="257.34,-385.87 253.75,-395.84 262.78,-390.28 257.34,-385.87"/>
</g>
<!-- _RepositoryHelper_directory_has_children_ -->
<g id="node5" class="node">
<title>_RepositoryHelper_directory_has_children_</title>
<polygon fill="lightblue" stroke="white" points="279,-36 0,-36 0,0 279,0 279,-36"/>
<text text-anchor="middle" x="139.5" y="-14.3" font-family="Arial" font-size="14.00">_RepositoryHelper_directory_has_children_</text>
</g>
<!-- _RepositoryHelper_repository_dynasty_list_&#45;&gt;_RepositoryHelper_directory_has_children_ -->
<g id="edge3" class="edge">
<title>_RepositoryHelper_repository_dynasty_list_&#45;&gt;_RepositoryHelper_directory_has_children_</title>
<path fill="none" stroke="black" d="M237.05,-395.82C221.01,-333.86 166.06,-121.6 146.49,-46"/>
<polygon fill="black" stroke="black" points="149.87,-45.08 143.97,-36.27 143.09,-46.83 149.87,-45.08"/>
</g>
<!-- _RepositoryHelper_graphs_list_ -->
<g id="node6" class="node">
<title>_RepositoryHelper_graphs_list_</title>
<polygon fill="lightblue" stroke="white" points="524,-36 315,-36 315,0 524,0 524,-36"/>
<text text-anchor="middle" x="419.5" y="-14.3" font-family="Arial" font-size="14.00">_RepositoryHelper_graphs_list_</text>
</g>
<!-- _RepositoryHelper_repository_dynasty_list_&#45;&gt;_RepositoryHelper_graphs_list_ -->
<g id="edge5" class="edge">
<title>_RepositoryHelper_repository_dynasty_list_&#45;&gt;_RepositoryHelper_graphs_list_</title>
<path fill="none" stroke="black" d="M249.26,-395.82C277.31,-333.73 373.54,-120.73 407.51,-45.54"/>
<polygon fill="black" stroke="black" points="410.77,-46.83 411.7,-36.27 404.39,-43.95 410.77,-46.83"/>
</g>
<!-- _RepositoryHelper_documents_list_ -->
<g id="node7" class="node">
<title>_RepositoryHelper_documents_list_</title>
<polygon fill="lightblue" stroke="white" points="794.5,-36 560.5,-36 560.5,0 794.5,0 794.5,-36"/>
<text text-anchor="middle" x="677.5" y="-14.3" font-family="Arial" font-size="14.00">_RepositoryHelper_documents_list_</text>
</g>
<!-- _RepositoryHelper_repository_dynasty_list_&#45;&gt;_RepositoryHelper_documents_list_ -->
<g id="edge6" class="edge">
<title>_RepositoryHelper_repository_dynasty_list_&#45;&gt;_RepositoryHelper_documents_list_</title>
<path fill="none" stroke="black" d="M260.51,-395.82C329.92,-333.1 569.75,-116.37 650.63,-43.28"/>
<polygon fill="black" stroke="black" points="653.31,-45.58 658.39,-36.27 648.62,-40.38 653.31,-45.58"/>
</g>
<!-- _RepositoryHelper_repository_content_ -->
<g id="node3" class="node">
<title>_RepositoryHelper_repository_content_</title>
<polygon fill="lightblue" stroke="white" points="702.5,-828 448.5,-828 448.5,-792 702.5,-792 702.5,-828"/>
<text text-anchor="middle" x="575.5" y="-806.3" font-family="Arial" font-size="14.00">_RepositoryHelper_repository_content_</text>
</g>
<!-- _RepositoryHelper_repository_content_list_ -->
<g id="node4" class="node">
<title>_RepositoryHelper_repository_content_list_</title>
<polygon fill="lightblue" stroke="white" points="714.5,-432 436.5,-432 436.5,-396 714.5,-396 714.5,-432"/>
<text text-anchor="middle" x="575.5" y="-410.3" font-family="Arial" font-size="14.00">_RepositoryHelper_repository_content_list_</text>
</g>
<!-- _RepositoryHelper_repository_content_&#45;&gt;_RepositoryHelper_repository_content_list_ -->
<g id="edge2" class="edge">
<title>_RepositoryHelper_repository_content_&#45;&gt;_RepositoryHelper_repository_content_list_</title>
<path fill="none" stroke="black" d="M575.5,-791.82C575.5,-729.98 575.5,-518.47 575.5,-442.47"/>
<polygon fill="black" stroke="black" points="579,-442.27 575.5,-432.27 572,-442.27 579,-442.27"/>
</g>
<!-- _RepositoryHelper_repository_content_list_&#45;&gt;_RepositoryHelper_directory_has_children_ -->
<g id="edge9" class="edge">
<title>_RepositoryHelper_repository_content_list_&#45;&gt;_RepositoryHelper_directory_has_children_</title>
<path fill="none" stroke="black" d="M556.49,-395.82C487.08,-333.1 247.25,-116.37 166.37,-43.28"/>
<polygon fill="black" stroke="black" points="168.38,-40.38 158.61,-36.27 163.69,-45.58 168.38,-40.38"/>
</g>
<!-- _RepositoryHelper_repository_content_list_&#45;&gt;_RepositoryHelper_graphs_list_ -->
<g id="edge7" class="edge">
<title>_RepositoryHelper_repository_content_list_&#45;&gt;_RepositoryHelper_graphs_list_</title>
<path fill="none" stroke="black" d="M568.7,-395.82C544.16,-333.86 460.12,-121.6 430.19,-46"/>
<polygon fill="black" stroke="black" points="433.27,-44.28 426.34,-36.27 426.77,-46.86 433.27,-44.28"/>
</g>
<!-- _RepositoryHelper_repository_content_list_&#45;&gt;_RepositoryHelper_documents_list_ -->
<g id="edge8" class="edge">
<title>_RepositoryHelper_repository_content_list_&#45;&gt;_RepositoryHelper_documents_list_</title>
<path fill="none" stroke="black" d="M579.95,-395.82C595.99,-333.86 650.94,-121.6 670.51,-46"/>
<polygon fill="black" stroke="black" points="673.91,-46.83 673.03,-36.27 667.13,-45.08 673.91,-46.83"/>
</g>
</g>
</svg>
