<?xml version="1.0" encoding="UTF-8" standalone="no"?>
<!DOCTYPE svg PUBLIC "-//W3C//DTD SVG 1.1//EN"
 "http://www.w3.org/Graphics/SVG/1.1/DTD/svg11.dtd">
<!-- Generated by graphviz version 2.43.0 (0)
 -->
<!-- Title: CallGraph Pages: 1 -->
<svg width="2937pt" height="497pt"
 viewBox="0.00 0.00 2936.50 496.69" xmlns="http://www.w3.org/2000/svg" xmlns:xlink="http://www.w3.org/1999/xlink">
<g id="graph0" class="graph" transform="scale(1 1) rotate(0) translate(4 492.69)">
<title>CallGraph</title>
<polygon fill="white" stroke="transparent" points="-4,4 -4,-492.69 2932.5,-492.69 2932.5,4 -4,4"/>
<!-- _ResourcesController_absolute_url_ -->
<g id="node1" class="node">
<title>_ResourcesController_absolute_url_</title>
<polygon fill="lightblue" stroke="white" points="236,-432 0,-432 0,-396 236,-396 236,-432"/>
<text text-anchor="middle" x="118" y="-410.3" font-family="Arial" font-size="14.00">_ResourcesController_absolute_url_</text>
</g>
<!-- _ResourcesController_absolute_url_&#45;&gt;_ResourcesController_absolute_url_ -->
<g id="edge1" class="edge">
<title>_ResourcesController_absolute_url_&#45;&gt;_ResourcesController_absolute_url_</title>
<path fill="none" stroke="black" d="M128.69,-432.16C182.33,-512.58 272,-506.52 272,-414 272,-324.73 188.52,-315.96 134.48,-387.68"/>
<polygon fill="black" stroke="black" points="131.62,-385.66 128.69,-395.84 137.33,-389.7 131.62,-385.66"/>
</g>
<!-- _ResourcesController_create_ -->
<g id="node2" class="node">
<title>_ResourcesController_create_</title>
<polygon fill="lightblue" stroke="white" points="490,-432 290,-432 290,-396 490,-396 490,-432"/>
<text text-anchor="middle" x="390" y="-410.3" font-family="Arial" font-size="14.00">_ResourcesController_create_</text>
</g>
<!-- _ResourcesController_resource_params_ -->
<g id="node3" class="node">
<title>_ResourcesController_resource_params_</title>
<polygon fill="lightblue" stroke="white" points="888,-36 620,-36 620,0 888,0 888,-36"/>
<text text-anchor="middle" x="754" y="-14.3" font-family="Arial" font-size="14.00">_ResourcesController_resource_params_</text>
</g>
<!-- _ResourcesController_create_&#45;&gt;_ResourcesController_resource_params_ -->
<g id="edge2" class="edge">
<title>_ResourcesController_create_&#45;&gt;_ResourcesController_resource_params_</title>
<path fill="none" stroke="black" d="M405.87,-395.82C463.7,-333.22 663.24,-117.24 731.16,-43.73"/>
<polygon fill="black" stroke="black" points="733.83,-45.99 738.04,-36.27 728.68,-41.24 733.83,-45.99"/>
</g>
<!-- _ResourcesController_delete_ -->
<g id="node4" class="node">
<title>_ResourcesController_delete_</title>
<polygon fill="lightblue" stroke="white" points="1499.5,-432 1300.5,-432 1300.5,-396 1499.5,-396 1499.5,-432"/>
<text text-anchor="middle" x="1400" y="-410.3" font-family="Arial" font-size="14.00">_ResourcesController_delete_</text>
</g>
<!-- _ResourcesController_humanize_delete_error_ -->
<g id="node5" class="node">
<title>_ResourcesController_humanize_delete_error_</title>
<polygon fill="lightblue" stroke="white" points="1551,-36 1249,-36 1249,0 1551,0 1551,-36"/>
<text text-anchor="middle" x="1400" y="-14.3" font-family="Arial" font-size="14.00">_ResourcesController_humanize_delete_error_</text>
</g>
<!-- _ResourcesController_delete_&#45;&gt;_ResourcesController_humanize_delete_error_ -->
<g id="edge3" class="edge">
<title>_ResourcesController_delete_&#45;&gt;_ResourcesController_humanize_delete_error_</title>
<path fill="none" stroke="black" d="M1400,-395.82C1400,-333.98 1400,-122.47 1400,-46.47"/>
<polygon fill="black" stroke="black" points="1403.5,-46.27 1400,-36.27 1396.5,-46.27 1403.5,-46.27"/>
</g>
<!-- _ResourcesController_update_ -->
<g id="node6" class="node">
<title>_ResourcesController_update_</title>
<polygon fill="lightblue" stroke="white" points="729.5,-432 526.5,-432 526.5,-396 729.5,-396 729.5,-432"/>
<text text-anchor="middle" x="628" y="-410.3" font-family="Arial" font-size="14.00">_ResourcesController_update_</text>
</g>
<!-- _ResourcesController_update_&#45;&gt;_ResourcesController_resource_params_ -->
<g id="edge4" class="edge">
<title>_ResourcesController_update_&#45;&gt;_ResourcesController_resource_params_</title>
<path fill="none" stroke="black" d="M633.5,-395.82C653.31,-333.86 721.19,-121.6 745.36,-46"/>
<polygon fill="black" stroke="black" points="748.76,-46.86 748.48,-36.27 742.1,-44.73 748.76,-46.86"/>
</g>
<!-- _ResourcesController_update_tags_ -->
<g id="node7" class="node">
<title>_ResourcesController_update_tags_</title>
<polygon fill="lightblue" stroke="white" points="1920,-432 1684,-432 1684,-396 1920,-396 1920,-432"/>
<text text-anchor="middle" x="1802" y="-410.3" font-family="Arial" font-size="14.00">_ResourcesController_update_tags_</text>
</g>
<!-- _ExternalUsersService_parse_ -->
<g id="node8" class="node">
<title>_ExternalUsersService_parse_</title>
<polygon fill="lightblue" stroke="white" points="1790.5,-36 1587.5,-36 1587.5,0 1790.5,0 1790.5,-36"/>
<text text-anchor="middle" x="1689" y="-14.3" font-family="Arial" font-size="14.00">_ExternalUsersService_parse_</text>
</g>
<!-- _ResourcesController_update_tags_&#45;&gt;_ExternalUsersService_parse_ -->
<g id="edge5" class="edge">
<title>_ResourcesController_update_tags_&#45;&gt;_ExternalUsersService_parse_</title>
<path fill="none" stroke="black" d="M1797.07,-395.82C1779.3,-333.86 1718.43,-121.6 1696.74,-46"/>
<polygon fill="black" stroke="black" points="1700.08,-44.92 1693.95,-36.27 1693.35,-46.85 1700.08,-44.92"/>
</g>
<!-- _SsoUsersService_parse_ -->
<g id="node9" class="node">
<title>_SsoUsersService_parse_</title>
<polygon fill="lightblue" stroke="white" points="2003,-36 1827,-36 1827,0 2003,0 2003,-36"/>
<text text-anchor="middle" x="1915" y="-14.3" font-family="Arial" font-size="14.00">_SsoUsersService_parse_</text>
</g>
<!-- _ResourcesController_update_tags_&#45;&gt;_SsoUsersService_parse_ -->
<g id="edge6" class="edge">
<title>_ResourcesController_update_tags_&#45;&gt;_SsoUsersService_parse_</title>
<path fill="none" stroke="black" d="M1806.93,-395.82C1824.7,-333.86 1885.57,-121.6 1907.26,-46"/>
<polygon fill="black" stroke="black" points="1910.65,-46.85 1910.05,-36.27 1903.92,-44.92 1910.65,-46.85"/>
</g>
<!-- _ResourcesController_update_url_ -->
<g id="node10" class="node">
<title>_ResourcesController_update_url_</title>
<polygon fill="lightblue" stroke="white" points="992,-432 766,-432 766,-396 992,-396 992,-432"/>
<text text-anchor="middle" x="879" y="-410.3" font-family="Arial" font-size="14.00">_ResourcesController_update_url_</text>
</g>
<!-- _ResourcesController_update_url_&#45;&gt;_ResourcesController_resource_params_ -->
<g id="edge7" class="edge">
<title>_ResourcesController_update_url_&#45;&gt;_ResourcesController_resource_params_</title>
<path fill="none" stroke="black" d="M873.55,-395.82C853.89,-333.86 786.55,-121.6 762.57,-46"/>
<polygon fill="black" stroke="black" points="765.84,-44.75 759.48,-36.27 759.17,-46.86 765.84,-44.75"/>
</g>
<!-- _ResourcesController_update_logo_ -->
<g id="node11" class="node">
<title>_ResourcesController_update_logo_</title>
<polygon fill="lightblue" stroke="white" points="1264,-432 1028,-432 1028,-396 1264,-396 1264,-432"/>
<text text-anchor="middle" x="1146" y="-410.3" font-family="Arial" font-size="14.00">_ResourcesController_update_logo_</text>
</g>
<!-- _ResourcesController_update_logo_&#45;&gt;_ResourcesController_resource_params_ -->
<g id="edge8" class="edge">
<title>_ResourcesController_update_logo_&#45;&gt;_ResourcesController_resource_params_</title>
<path fill="none" stroke="black" d="M1128.9,-395.82C1066.63,-333.22 851.74,-117.24 778.6,-43.73"/>
<polygon fill="black" stroke="black" points="780.72,-40.89 771.19,-36.27 775.76,-45.83 780.72,-40.89"/>
</g>
<!-- _ResourcesController_reactivate_ -->
<g id="node12" class="node">
<title>_ResourcesController_reactivate_</title>
<polygon fill="lightblue" stroke="white" points="2290.5,-432 2069.5,-432 2069.5,-396 2290.5,-396 2290.5,-432"/>
<text text-anchor="middle" x="2180" y="-410.3" font-family="Arial" font-size="14.00">_ResourcesController_reactivate_</text>
</g>
<!-- _ResourcesController_reactivate_resource_ -->
<g id="node13" class="node">
<title>_ResourcesController_reactivate_resource_</title>
<polygon fill="lightblue" stroke="white" points="2320.5,-36 2039.5,-36 2039.5,0 2320.5,0 2320.5,-36"/>
<text text-anchor="middle" x="2180" y="-14.3" font-family="Arial" font-size="14.00">_ResourcesController_reactivate_resource_</text>
</g>
<!-- _ResourcesController_reactivate_&#45;&gt;_ResourcesController_reactivate_resource_ -->
<g id="edge9" class="edge">
<title>_ResourcesController_reactivate_&#45;&gt;_ResourcesController_reactivate_resource_</title>
<path fill="none" stroke="black" d="M2180,-395.82C2180,-333.98 2180,-122.47 2180,-46.47"/>
<polygon fill="black" stroke="black" points="2183.5,-46.27 2180,-36.27 2176.5,-46.27 2183.5,-46.27"/>
</g>
<!-- _ResourcesController_list_index_definition_ -->
<g id="node14" class="node">
<title>_ResourcesController_list_index_definition_</title>
<polygon fill="lightblue" stroke="white" points="2782,-432 2502,-432 2502,-396 2782,-396 2782,-432"/>
<text text-anchor="middle" x="2642" y="-410.3" font-family="Arial" font-size="14.00">_ResourcesController_list_index_definition_</text>
</g>
<!-- _ResourcesController_power_user_tabs_ -->
<g id="node15" class="node">
<title>_ResourcesController_power_user_tabs_</title>
<polygon fill="lightblue" stroke="white" points="2623,-36 2357,-36 2357,0 2623,0 2623,-36"/>
<text text-anchor="middle" x="2490" y="-14.3" font-family="Arial" font-size="14.00">_ResourcesController_power_user_tabs_</text>
</g>
<!-- _ResourcesController_list_index_definition_&#45;&gt;_ResourcesController_power_user_tabs_ -->
<g id="edge10" class="edge">
<title>_ResourcesController_list_index_definition_&#45;&gt;_ResourcesController_power_user_tabs_</title>
<path fill="none" stroke="black" d="M2635.37,-395.82C2611.47,-333.86 2529.58,-121.6 2500.42,-46"/>
<polygon fill="black" stroke="black" points="2503.53,-44.34 2496.66,-36.27 2497,-46.86 2503.53,-44.34"/>
</g>
<!-- _ResourcesController_simple_user_tabs_ -->
<g id="node16" class="node">
<title>_ResourcesController_simple_user_tabs_</title>
<polygon fill="lightblue" stroke="white" points="2928.5,-36 2659.5,-36 2659.5,0 2928.5,0 2928.5,-36"/>
<text text-anchor="middle" x="2794" y="-14.3" font-family="Arial" font-size="14.00">_ResourcesController_simple_user_tabs_</text>
</g>
<!-- _ResourcesController_list_index_definition_&#45;&gt;_ResourcesController_simple_user_tabs_ -->
<g id="edge11" class="edge">
<title>_ResourcesController_list_index_definition_&#45;&gt;_ResourcesController_simple_user_tabs_</title>
<path fill="none" stroke="black" d="M2648.63,-395.82C2672.53,-333.86 2754.42,-121.6 2783.58,-46"/>
<polygon fill="black" stroke="black" points="2787,-46.86 2787.34,-36.27 2780.47,-44.34 2787,-46.86"/>
</g>
</g>
</svg>
