<?xml version="1.0" encoding="UTF-8" standalone="no"?>
<!DOCTYPE svg PUBLIC "-//W3C//DTD SVG 1.1//EN"
 "http://www.w3.org/Graphics/SVG/1.1/DTD/svg11.dtd">
<!-- Generated by graphviz version 2.43.0 (0)
 -->
<!-- Title: CallGraph Pages: 1 -->
<svg width="1149pt" height="836pt"
 viewBox="0.00 0.00 1149.00 836.00" xmlns="http://www.w3.org/2000/svg" xmlns:xlink="http://www.w3.org/1999/xlink">
<g id="graph0" class="graph" transform="scale(1 1) rotate(0) translate(4 832)">
<title>CallGraph</title>
<polygon fill="white" stroke="transparent" points="-4,4 -4,-832 1145,-832 1145,4 -4,4"/>
<!-- _ResponsibilityValidation_defined_responsibility_ -->
<g id="node1" class="node">
<title>_ResponsibilityValidation_defined_responsibility_</title>
<polygon fill="lightblue" stroke="white" points="311,-828 0,-828 0,-792 311,-792 311,-828"/>
<text text-anchor="middle" x="155.5" y="-806.3" font-family="Arial" font-size="14.00">_ResponsibilityValidation_defined_responsibility_</text>
</g>
<!-- _ResponsibilityValidation_responsibility_config_for_ -->
<g id="node2" class="node">
<title>_ResponsibilityValidation_responsibility_config_for_</title>
<polygon fill="lightblue" stroke="white" points="471.5,-432 145.5,-432 145.5,-396 471.5,-396 471.5,-432"/>
<text text-anchor="middle" x="308.5" y="-410.3" font-family="Arial" font-size="14.00">_ResponsibilityValidation_responsibility_config_for_</text>
</g>
<!-- _ResponsibilityValidation_defined_responsibility_&#45;&gt;_ResponsibilityValidation_responsibility_config_for_ -->
<g id="edge1" class="edge">
<title>_ResponsibilityValidation_defined_responsibility_&#45;&gt;_ResponsibilityValidation_responsibility_config_for_</title>
<path fill="none" stroke="black" d="M162.17,-791.82C186.23,-729.86 268.66,-517.6 298.01,-442"/>
<polygon fill="black" stroke="black" points="301.43,-442.86 301.79,-432.27 294.91,-440.33 301.43,-442.86"/>
</g>
<!-- _ResponsibilityValidation_responsibility_level_ -->
<g id="node4" class="node">
<title>_ResponsibilityValidation_responsibility_level_</title>
<polygon fill="lightblue" stroke="white" points="822.5,-36 528.5,-36 528.5,0 822.5,0 822.5,-36"/>
<text text-anchor="middle" x="675.5" y="-14.3" font-family="Arial" font-size="14.00">_ResponsibilityValidation_responsibility_level_</text>
</g>
<!-- _ResponsibilityValidation_responsibility_config_for_&#45;&gt;_ResponsibilityValidation_responsibility_level_ -->
<g id="edge5" class="edge">
<title>_ResponsibilityValidation_responsibility_config_for_&#45;&gt;_ResponsibilityValidation_responsibility_level_</title>
<path fill="none" stroke="black" d="M324.51,-395.82C382.81,-333.22 583.99,-117.24 652.47,-43.73"/>
<polygon fill="black" stroke="black" points="655.16,-45.98 659.41,-36.27 650.03,-41.21 655.16,-45.98"/>
</g>
<!-- _ResponsibilityValidation_valid_responsibility_name_ -->
<g id="node3" class="node">
<title>_ResponsibilityValidation_valid_responsibility_name_</title>
<polygon fill="lightblue" stroke="white" points="843.5,-432 507.5,-432 507.5,-396 843.5,-396 843.5,-432"/>
<text text-anchor="middle" x="675.5" y="-410.3" font-family="Arial" font-size="14.00">_ResponsibilityValidation_valid_responsibility_name_</text>
</g>
<!-- _ResponsibilityValidation_valid_responsibility_name_&#45;&gt;_ResponsibilityValidation_responsibility_level_ -->
<g id="edge2" class="edge">
<title>_ResponsibilityValidation_valid_responsibility_name_&#45;&gt;_ResponsibilityValidation_responsibility_level_</title>
<path fill="none" stroke="black" d="M675.5,-395.82C675.5,-333.98 675.5,-122.47 675.5,-46.47"/>
<polygon fill="black" stroke="black" points="679,-46.27 675.5,-36.27 672,-46.27 679,-46.27"/>
</g>
<!-- _ResponsibilityValidation_module_level_ -->
<g id="node5" class="node">
<title>_ResponsibilityValidation_module_level_</title>
<polygon fill="lightblue" stroke="white" points="1141,-432 880,-432 880,-396 1141,-396 1141,-432"/>
<text text-anchor="middle" x="1010.5" y="-410.3" font-family="Arial" font-size="14.00">_ResponsibilityValidation_module_level_</text>
</g>
<!-- _ResponsibilityValidation_module_level_&#45;&gt;_ResponsibilityValidation_responsibility_level_ -->
<g id="edge3" class="edge">
<title>_ResponsibilityValidation_module_level_&#45;&gt;_ResponsibilityValidation_responsibility_level_</title>
<path fill="none" stroke="black" d="M995.89,-395.82C942.78,-333.35 759.77,-118.12 696.91,-44.18"/>
<polygon fill="black" stroke="black" points="699.33,-41.62 690.19,-36.27 694,-46.16 699.33,-41.62"/>
</g>
<!-- _ResponsibilityValidation_singular_ -->
<g id="node6" class="node">
<title>_ResponsibilityValidation_singular_</title>
<polygon fill="lightblue" stroke="white" points="575.5,-828 347.5,-828 347.5,-792 575.5,-792 575.5,-828"/>
<text text-anchor="middle" x="461.5" y="-806.3" font-family="Arial" font-size="14.00">_ResponsibilityValidation_singular_</text>
</g>
<!-- _ResponsibilityValidation_singular_&#45;&gt;_ResponsibilityValidation_responsibility_config_for_ -->
<g id="edge4" class="edge">
<title>_ResponsibilityValidation_singular_&#45;&gt;_ResponsibilityValidation_responsibility_config_for_</title>
<path fill="none" stroke="black" d="M454.83,-791.82C430.77,-729.86 348.34,-517.6 318.99,-442"/>
<polygon fill="black" stroke="black" points="322.09,-440.33 315.21,-432.27 315.57,-442.86 322.09,-440.33"/>
</g>
</g>
</svg>
