<?xml version="1.0" encoding="UTF-8" standalone="no"?>
<!DOCTYPE svg PUBLIC "-//W3C//DTD SVG 1.1//EN"
 "http://www.w3.org/Graphics/SVG/1.1/DTD/svg11.dtd">
<!-- Generated by graphviz version 2.43.0 (0)
 -->
<!-- Title: CallGraph Pages: 1 -->
<svg width="3022pt" height="836pt"
 viewBox="0.00 0.00 3021.50 836.00" xmlns="http://www.w3.org/2000/svg" xmlns:xlink="http://www.w3.org/1999/xlink">
<g id="graph0" class="graph" transform="scale(1 1) rotate(0) translate(4 832)">
<title>CallGraph</title>
<polygon fill="white" stroke="transparent" points="-4,4 -4,-832 3017.5,-832 3017.5,4 -4,4"/>
<!-- _RolesController_index_ -->
<g id="node1" class="node">
<title>_RolesController_index_</title>
<polygon fill="lightblue" stroke="white" points="200,-828 36,-828 36,-792 200,-792 200,-828"/>
<text text-anchor="middle" x="118" y="-806.3" font-family="Arial" font-size="14.00">_RolesController_index_</text>
</g>
<!-- _RolesController_export_file_name_ -->
<g id="node2" class="node">
<title>_RolesController_export_file_name_</title>
<polygon fill="lightblue" stroke="white" points="236,-432 0,-432 0,-396 236,-396 236,-432"/>
<text text-anchor="middle" x="118" y="-410.3" font-family="Arial" font-size="14.00">_RolesController_export_file_name_</text>
</g>
<!-- _RolesController_index_&#45;&gt;_RolesController_export_file_name_ -->
<g id="edge1" class="edge">
<title>_RolesController_index_&#45;&gt;_RolesController_export_file_name_</title>
<path fill="none" stroke="black" d="M118,-791.82C118,-729.98 118,-518.47 118,-442.47"/>
<polygon fill="black" stroke="black" points="121.5,-442.27 118,-432.27 114.5,-442.27 121.5,-442.27"/>
</g>
<!-- _RolesController_create_ -->
<g id="node3" class="node">
<title>_RolesController_create_</title>
<polygon fill="lightblue" stroke="white" points="461,-828 291,-828 291,-792 461,-792 461,-828"/>
<text text-anchor="middle" x="376" y="-806.3" font-family="Arial" font-size="14.00">_RolesController_create_</text>
</g>
<!-- _RolesController_role_params_ -->
<g id="node4" class="node">
<title>_RolesController_role_params_</title>
<polygon fill="lightblue" stroke="white" points="480,-432 272,-432 272,-396 480,-396 480,-432"/>
<text text-anchor="middle" x="376" y="-410.3" font-family="Arial" font-size="14.00">_RolesController_role_params_</text>
</g>
<!-- _RolesController_create_&#45;&gt;_RolesController_role_params_ -->
<g id="edge2" class="edge">
<title>_RolesController_create_&#45;&gt;_RolesController_role_params_</title>
<path fill="none" stroke="black" d="M376,-791.82C376,-729.98 376,-518.47 376,-442.47"/>
<polygon fill="black" stroke="black" points="379.5,-442.27 376,-432.27 372.5,-442.27 379.5,-442.27"/>
</g>
<!-- _RolesController_show_properties_ -->
<g id="node5" class="node">
<title>_RolesController_show_properties_</title>
<polygon fill="lightblue" stroke="white" points="983.5,-432 752.5,-432 752.5,-396 983.5,-396 983.5,-432"/>
<text text-anchor="middle" x="868" y="-410.3" font-family="Arial" font-size="14.00">_RolesController_show_properties_</text>
</g>
<!-- _RolesController_scoped_graphs_ -->
<g id="node6" class="node">
<title>_RolesController_scoped_graphs_</title>
<polygon fill="lightblue" stroke="white" points="1128,-36 904,-36 904,0 1128,0 1128,-36"/>
<text text-anchor="middle" x="1016" y="-14.3" font-family="Arial" font-size="14.00">_RolesController_scoped_graphs_</text>
</g>
<!-- _RolesController_show_properties_&#45;&gt;_RolesController_scoped_graphs_ -->
<g id="edge3" class="edge">
<title>_RolesController_show_properties_&#45;&gt;_RolesController_scoped_graphs_</title>
<path fill="none" stroke="black" d="M874.45,-395.82C897.73,-333.86 977.46,-121.6 1005.86,-46"/>
<polygon fill="black" stroke="black" points="1009.27,-46.87 1009.51,-36.27 1002.72,-44.4 1009.27,-46.87"/>
</g>
<!-- _RolesController_show_ -->
<g id="node7" class="node">
<title>_RolesController_show_</title>
<polygon fill="lightblue" stroke="white" points="1081,-828 917,-828 917,-792 1081,-792 1081,-828"/>
<text text-anchor="middle" x="999" y="-806.3" font-family="Arial" font-size="14.00">_RolesController_show_</text>
</g>
<!-- _RolesController_build_role_and_properties_ -->
<g id="node8" class="node">
<title>_RolesController_build_role_and_properties_</title>
<polygon fill="lightblue" stroke="white" points="1308,-432 1020,-432 1020,-396 1308,-396 1308,-432"/>
<text text-anchor="middle" x="1164" y="-410.3" font-family="Arial" font-size="14.00">_RolesController_build_role_and_properties_</text>
</g>
<!-- _RolesController_show_&#45;&gt;_RolesController_build_role_and_properties_ -->
<g id="edge4" class="edge">
<title>_RolesController_show_&#45;&gt;_RolesController_build_role_and_properties_</title>
<path fill="none" stroke="black" d="M1006.2,-791.82C1032.2,-729.73 1121.4,-516.73 1152.88,-441.54"/>
<polygon fill="black" stroke="black" points="1156.13,-442.85 1156.77,-432.27 1149.68,-440.15 1156.13,-442.85"/>
</g>
<!-- _RolesController_build_role_and_properties_&#45;&gt;_RolesController_scoped_graphs_ -->
<g id="edge13" class="edge">
<title>_RolesController_build_role_and_properties_&#45;&gt;_RolesController_scoped_graphs_</title>
<path fill="none" stroke="black" d="M1157.55,-395.82C1134.27,-333.86 1054.54,-121.6 1026.14,-46"/>
<polygon fill="black" stroke="black" points="1029.28,-44.4 1022.49,-36.27 1022.73,-46.87 1029.28,-44.4"/>
</g>
<!-- _RolesController_update_ -->
<g id="node9" class="node">
<title>_RolesController_update_</title>
<polygon fill="lightblue" stroke="white" points="686.5,-828 513.5,-828 513.5,-792 686.5,-792 686.5,-828"/>
<text text-anchor="middle" x="600" y="-806.3" font-family="Arial" font-size="14.00">_RolesController_update_</text>
</g>
<!-- _RolesController_update_&#45;&gt;_RolesController_role_params_ -->
<g id="edge6" class="edge">
<title>_RolesController_update_&#45;&gt;_RolesController_role_params_</title>
<path fill="none" stroke="black" d="M590.23,-791.82C554.86,-729.6 433.34,-515.86 390.83,-441.08"/>
<polygon fill="black" stroke="black" points="393.81,-439.24 385.82,-432.27 387.72,-442.7 393.81,-439.24"/>
</g>
<!-- _RolesController_consolidate_ -->
<g id="node10" class="node">
<title>_RolesController_consolidate_</title>
<polygon fill="lightblue" stroke="white" points="716,-432 516,-432 516,-396 716,-396 716,-432"/>
<text text-anchor="middle" x="616" y="-410.3" font-family="Arial" font-size="14.00">_RolesController_consolidate_</text>
</g>
<!-- _RolesController_update_&#45;&gt;_RolesController_consolidate_ -->
<g id="edge5" class="edge">
<title>_RolesController_update_&#45;&gt;_RolesController_consolidate_</title>
<path fill="none" stroke="black" d="M600.7,-791.82C603.21,-729.98 611.8,-518.47 614.88,-442.47"/>
<polygon fill="black" stroke="black" points="618.39,-442.41 615.3,-432.27 611.4,-442.12 618.39,-442.41"/>
</g>
<!-- _RolesController_update_tags_ -->
<g id="node11" class="node">
<title>_RolesController_update_tags_</title>
<polygon fill="lightblue" stroke="white" points="1662,-828 1456,-828 1456,-792 1662,-792 1662,-828"/>
<text text-anchor="middle" x="1559" y="-806.3" font-family="Arial" font-size="14.00">_RolesController_update_tags_</text>
</g>
<!-- _ExternalUsersService_parse_ -->
<g id="node12" class="node">
<title>_ExternalUsersService_parse_</title>
<polygon fill="lightblue" stroke="white" points="1547.5,-432 1344.5,-432 1344.5,-396 1547.5,-396 1547.5,-432"/>
<text text-anchor="middle" x="1446" y="-410.3" font-family="Arial" font-size="14.00">_ExternalUsersService_parse_</text>
</g>
<!-- _RolesController_update_tags_&#45;&gt;_ExternalUsersService_parse_ -->
<g id="edge7" class="edge">
<title>_RolesController_update_tags_&#45;&gt;_ExternalUsersService_parse_</title>
<path fill="none" stroke="black" d="M1554.07,-791.82C1536.3,-729.86 1475.43,-517.6 1453.74,-442"/>
<polygon fill="black" stroke="black" points="1457.08,-440.92 1450.95,-432.27 1450.35,-442.85 1457.08,-440.92"/>
</g>
<!-- _SsoUsersService_parse_ -->
<g id="node13" class="node">
<title>_SsoUsersService_parse_</title>
<polygon fill="lightblue" stroke="white" points="1760,-432 1584,-432 1584,-396 1760,-396 1760,-432"/>
<text text-anchor="middle" x="1672" y="-410.3" font-family="Arial" font-size="14.00">_SsoUsersService_parse_</text>
</g>
<!-- _RolesController_update_tags_&#45;&gt;_SsoUsersService_parse_ -->
<g id="edge8" class="edge">
<title>_RolesController_update_tags_&#45;&gt;_SsoUsersService_parse_</title>
<path fill="none" stroke="black" d="M1563.93,-791.82C1581.7,-729.86 1642.57,-517.6 1664.26,-442"/>
<polygon fill="black" stroke="black" points="1667.65,-442.85 1667.05,-432.27 1660.92,-440.92 1667.65,-442.85"/>
</g>
<!-- _RolesController_delete_ -->
<g id="node14" class="node">
<title>_RolesController_delete_</title>
<polygon fill="lightblue" stroke="white" points="2016.5,-828 1847.5,-828 1847.5,-792 2016.5,-792 2016.5,-828"/>
<text text-anchor="middle" x="1932" y="-806.3" font-family="Arial" font-size="14.00">_RolesController_delete_</text>
</g>
<!-- _RolesController_humanize_delete_error_ -->
<g id="node15" class="node">
<title>_RolesController_humanize_delete_error_</title>
<polygon fill="lightblue" stroke="white" points="2068,-432 1796,-432 1796,-396 2068,-396 2068,-432"/>
<text text-anchor="middle" x="1932" y="-410.3" font-family="Arial" font-size="14.00">_RolesController_humanize_delete_error_</text>
</g>
<!-- _RolesController_delete_&#45;&gt;_RolesController_humanize_delete_error_ -->
<g id="edge9" class="edge">
<title>_RolesController_delete_&#45;&gt;_RolesController_humanize_delete_error_</title>
<path fill="none" stroke="black" d="M1932,-791.82C1932,-729.98 1932,-518.47 1932,-442.47"/>
<polygon fill="black" stroke="black" points="1935.5,-442.27 1932,-432.27 1928.5,-442.27 1935.5,-442.27"/>
</g>
<!-- _RolesController_print_ -->
<g id="node16" class="node">
<title>_RolesController_print_</title>
<polygon fill="lightblue" stroke="white" points="1275,-828 1117,-828 1117,-792 1275,-792 1275,-828"/>
<text text-anchor="middle" x="1196" y="-806.3" font-family="Arial" font-size="14.00">_RolesController_print_</text>
</g>
<!-- _RolesController_print_&#45;&gt;_RolesController_build_role_and_properties_ -->
<g id="edge10" class="edge">
<title>_RolesController_print_&#45;&gt;_RolesController_build_role_and_properties_</title>
<path fill="none" stroke="black" d="M1194.6,-791.82C1189.58,-729.98 1172.4,-518.47 1166.23,-442.47"/>
<polygon fill="black" stroke="black" points="1169.7,-441.96 1165.4,-432.27 1162.72,-442.52 1169.7,-441.96"/>
</g>
<!-- _RolesController_reactivate_one_ -->
<g id="node17" class="node">
<title>_RolesController_reactivate_one_</title>
<polygon fill="lightblue" stroke="white" points="2273.5,-828 2052.5,-828 2052.5,-792 2273.5,-792 2273.5,-828"/>
<text text-anchor="middle" x="2163" y="-806.3" font-family="Arial" font-size="14.00">_RolesController_reactivate_one_</text>
</g>
<!-- _RolesController_reactivate_role_ -->
<g id="node18" class="node">
<title>_RolesController_reactivate_role_</title>
<polygon fill="lightblue" stroke="white" points="2372.5,-432 2151.5,-432 2151.5,-396 2372.5,-396 2372.5,-432"/>
<text text-anchor="middle" x="2262" y="-410.3" font-family="Arial" font-size="14.00">_RolesController_reactivate_role_</text>
</g>
<!-- _RolesController_reactivate_one_&#45;&gt;_RolesController_reactivate_role_ -->
<g id="edge11" class="edge">
<title>_RolesController_reactivate_one_&#45;&gt;_RolesController_reactivate_role_</title>
<path fill="none" stroke="black" d="M2167.32,-791.82C2182.89,-729.86 2236.22,-517.6 2255.21,-442"/>
<polygon fill="black" stroke="black" points="2258.62,-442.82 2257.66,-432.27 2251.83,-441.12 2258.62,-442.82"/>
</g>
<!-- _RolesController_reactivate_ -->
<g id="node19" class="node">
<title>_RolesController_reactivate_</title>
<polygon fill="lightblue" stroke="white" points="2500.5,-828 2309.5,-828 2309.5,-792 2500.5,-792 2500.5,-828"/>
<text text-anchor="middle" x="2405" y="-806.3" font-family="Arial" font-size="14.00">_RolesController_reactivate_</text>
</g>
<!-- _RolesController_reactivate_&#45;&gt;_RolesController_reactivate_role_ -->
<g id="edge12" class="edge">
<title>_RolesController_reactivate_&#45;&gt;_RolesController_reactivate_role_</title>
<path fill="none" stroke="black" d="M2398.76,-791.82C2376.28,-729.86 2299.24,-517.6 2271.8,-442"/>
<polygon fill="black" stroke="black" points="2274.97,-440.48 2268.27,-432.27 2268.39,-442.87 2274.97,-440.48"/>
</g>
<!-- _RolesController_list_index_definition_ -->
<g id="node20" class="node">
<title>_RolesController_list_index_definition_</title>
<polygon fill="lightblue" stroke="white" points="2791,-828 2541,-828 2541,-792 2791,-792 2791,-828"/>
<text text-anchor="middle" x="2666" y="-806.3" font-family="Arial" font-size="14.00">_RolesController_list_index_definition_</text>
</g>
<!-- _RolesController_power_user_tabs_ -->
<g id="node21" class="node">
<title>_RolesController_power_user_tabs_</title>
<polygon fill="lightblue" stroke="white" points="2738,-432 2502,-432 2502,-396 2738,-396 2738,-432"/>
<text text-anchor="middle" x="2620" y="-410.3" font-family="Arial" font-size="14.00">_RolesController_power_user_tabs_</text>
</g>
<!-- _RolesController_list_index_definition_&#45;&gt;_RolesController_power_user_tabs_ -->
<g id="edge14" class="edge">
<title>_RolesController_list_index_definition_&#45;&gt;_RolesController_power_user_tabs_</title>
<path fill="none" stroke="black" d="M2663.99,-791.82C2656.77,-729.98 2632.08,-518.47 2623.21,-442.47"/>
<polygon fill="black" stroke="black" points="2626.65,-441.8 2622.02,-432.27 2619.7,-442.61 2626.65,-441.8"/>
</g>
<!-- _RolesController_simple_user_tabs_ -->
<g id="node22" class="node">
<title>_RolesController_simple_user_tabs_</title>
<polygon fill="lightblue" stroke="white" points="3013.5,-432 2774.5,-432 2774.5,-396 3013.5,-396 3013.5,-432"/>
<text text-anchor="middle" x="2894" y="-410.3" font-family="Arial" font-size="14.00">_RolesController_simple_user_tabs_</text>
</g>
<!-- _RolesController_list_index_definition_&#45;&gt;_RolesController_simple_user_tabs_ -->
<g id="edge15" class="edge">
<title>_RolesController_list_index_definition_&#45;&gt;_RolesController_simple_user_tabs_</title>
<path fill="none" stroke="black" d="M2675.94,-791.82C2711.94,-729.6 2835.63,-515.86 2878.91,-441.08"/>
<polygon fill="black" stroke="black" points="2882.02,-442.68 2884,-432.27 2875.97,-439.18 2882.02,-442.68"/>
</g>
</g>
</svg>
