<?xml version="1.0" encoding="UTF-8" standalone="no"?>
<!DOCTYPE svg PUBLIC "-//W3C//DTD SVG 1.1//EN"
 "http://www.w3.org/Graphics/SVG/1.1/DTD/svg11.dtd">
<!-- Generated by graphviz version 2.43.0 (0)
 -->
<!-- Title: CallGraph Pages: 1 -->
<svg width="546pt" height="440pt"
 viewBox="0.00 0.00 545.50 440.00" xmlns="http://www.w3.org/2000/svg" xmlns:xlink="http://www.w3.org/1999/xlink">
<g id="graph0" class="graph" transform="scale(1 1) rotate(0) translate(4 436)">
<title>CallGraph</title>
<polygon fill="white" stroke="transparent" points="-4,4 -4,-436 541.5,-436 541.5,4 -4,4"/>
<!-- _SamlNormalizerService_initialize_ -->
<g id="node1" class="node">
<title>_SamlNormalizerService_initialize_</title>
<polygon fill="lightblue" stroke="white" points="237,-432 7,-432 7,-396 237,-396 237,-432"/>
<text text-anchor="middle" x="122" y="-410.3" font-family="Arial" font-size="14.00">_SamlNormalizerService_initialize_</text>
</g>
<!-- _ExternalUsersService_sso_settings_ -->
<g id="node2" class="node">
<title>_ExternalUsersService_sso_settings_</title>
<polygon fill="lightblue" stroke="white" points="244,-36 0,-36 0,0 244,0 244,-36"/>
<text text-anchor="middle" x="122" y="-14.3" font-family="Arial" font-size="14.00">_ExternalUsersService_sso_settings_</text>
</g>
<!-- _SamlNormalizerService_initialize_&#45;&gt;_ExternalUsersService_sso_settings_ -->
<g id="edge1" class="edge">
<title>_SamlNormalizerService_initialize_&#45;&gt;_ExternalUsersService_sso_settings_</title>
<path fill="none" stroke="black" d="M122,-395.82C122,-333.98 122,-122.47 122,-46.47"/>
<polygon fill="black" stroke="black" points="125.5,-46.27 122,-36.27 118.5,-46.27 125.5,-46.27"/>
</g>
<!-- _SamlNormalizerService_find_value_ -->
<g id="node3" class="node">
<title>_SamlNormalizerService_find_value_</title>
<polygon fill="lightblue" stroke="white" points="530.5,-432 287.5,-432 287.5,-396 530.5,-396 530.5,-432"/>
<text text-anchor="middle" x="409" y="-410.3" font-family="Arial" font-size="14.00">_SamlNormalizerService_find_value_</text>
</g>
<!-- _SamlNormalizerService_sso_settings_ -->
<g id="node4" class="node">
<title>_SamlNormalizerService_sso_settings_</title>
<polygon fill="lightblue" stroke="white" points="537.5,-36 280.5,-36 280.5,0 537.5,0 537.5,-36"/>
<text text-anchor="middle" x="409" y="-14.3" font-family="Arial" font-size="14.00">_SamlNormalizerService_sso_settings_</text>
</g>
<!-- _SamlNormalizerService_find_value_&#45;&gt;_SamlNormalizerService_sso_settings_ -->
<g id="edge2" class="edge">
<title>_SamlNormalizerService_find_value_&#45;&gt;_SamlNormalizerService_sso_settings_</title>
<path fill="none" stroke="black" d="M409,-395.82C409,-333.98 409,-122.47 409,-46.47"/>
<polygon fill="black" stroke="black" points="412.5,-46.27 409,-36.27 405.5,-46.27 412.5,-46.27"/>
</g>
</g>
</svg>
