<?xml version="1.0" encoding="UTF-8" standalone="no"?>
<!DOCTYPE svg PUBLIC "-//W3C//DTD SVG 1.1//EN"
 "http://www.w3.org/Graphics/SVG/1.1/DTD/svg11.dtd">
<!-- Generated by graphviz version 2.43.0 (0)
 -->
<!-- Title: CallGraph Pages: 1 -->
<svg width="1244pt" height="440pt"
 viewBox="0.00 0.00 1244.00 440.00" xmlns="http://www.w3.org/2000/svg" xmlns:xlink="http://www.w3.org/1999/xlink">
<g id="graph0" class="graph" transform="scale(1 1) rotate(0) translate(4 436)">
<title>CallGraph</title>
<polygon fill="white" stroke="transparent" points="-4,4 -4,-436 1240,-436 1240,4 -4,4"/>
<!-- _ScanInstance_clear_ -->
<g id="node1" class="node">
<title>_ScanInstance_clear_</title>
<polygon fill="lightblue" stroke="white" points="152.5,-432 2.5,-432 2.5,-396 152.5,-396 152.5,-432"/>
<text text-anchor="middle" x="77.5" y="-410.3" font-family="Arial" font-size="14.00">_ScanInstance_clear_</text>
</g>
<!-- _ScanInstance_clear_errors_ -->
<g id="node2" class="node">
<title>_ScanInstance_clear_errors_</title>
<polygon fill="lightblue" stroke="white" points="193,-36 0,-36 0,0 193,0 193,-36"/>
<text text-anchor="middle" x="96.5" y="-14.3" font-family="Arial" font-size="14.00">_ScanInstance_clear_errors_</text>
</g>
<!-- _ScanInstance_clear_&#45;&gt;_ScanInstance_clear_errors_ -->
<g id="edge1" class="edge">
<title>_ScanInstance_clear_&#45;&gt;_ScanInstance_clear_errors_</title>
<path fill="none" stroke="black" d="M78.33,-395.82C81.31,-333.98 91.51,-122.47 95.18,-46.47"/>
<polygon fill="black" stroke="black" points="98.68,-46.43 95.67,-36.27 91.69,-46.09 98.68,-46.43"/>
</g>
<!-- _ScanInstance_auto_set_error_pastilles_to_unknown_ -->
<g id="node3" class="node">
<title>_ScanInstance_auto_set_error_pastilles_to_unknown_</title>
<polygon fill="lightblue" stroke="white" points="533,-432 188,-432 188,-396 533,-396 533,-432"/>
<text text-anchor="middle" x="360.5" y="-410.3" font-family="Arial" font-size="14.00">_ScanInstance_auto_set_error_pastilles_to_unknown_</text>
</g>
<!-- _SearchController_graph_ -->
<g id="node4" class="node">
<title>_SearchController_graph_</title>
<polygon fill="lightblue" stroke="white" points="435,-36 260,-36 260,0 435,0 435,-36"/>
<text text-anchor="middle" x="347.5" y="-14.3" font-family="Arial" font-size="14.00">_SearchController_graph_</text>
</g>
<!-- _ScanInstance_auto_set_error_pastilles_to_unknown_&#45;&gt;_SearchController_graph_ -->
<g id="edge2" class="edge">
<title>_ScanInstance_auto_set_error_pastilles_to_unknown_&#45;&gt;_SearchController_graph_</title>
<path fill="none" stroke="black" d="M359.93,-395.82C357.89,-333.98 350.91,-122.47 348.41,-46.47"/>
<polygon fill="black" stroke="black" points="351.9,-46.15 348.07,-36.27 344.9,-46.38 351.9,-46.15"/>
</g>
<!-- _ScanInstance_scan_ -->
<g id="node5" class="node">
<title>_ScanInstance_scan_</title>
<polygon fill="lightblue" stroke="white" points="730,-432 581,-432 581,-396 730,-396 730,-432"/>
<text text-anchor="middle" x="655.5" y="-410.3" font-family="Arial" font-size="14.00">_ScanInstance_scan_</text>
</g>
<!-- _ScanInstance_scan_&#45;&gt;_ScanInstance_clear_errors_ -->
<g id="edge3" class="edge">
<title>_ScanInstance_scan_&#45;&gt;_ScanInstance_clear_errors_</title>
<path fill="none" stroke="black" d="M631.12,-395.82C541.58,-332.71 230.82,-113.68 129.05,-41.94"/>
<polygon fill="black" stroke="black" points="130.88,-38.95 120.69,-36.05 126.85,-44.67 130.88,-38.95"/>
</g>
<!-- _ScanInstance_scan_&#45;&gt;_SearchController_graph_ -->
<g id="edge6" class="edge">
<title>_ScanInstance_scan_&#45;&gt;_SearchController_graph_</title>
<path fill="none" stroke="black" d="M642.07,-395.82C593.24,-333.35 424.98,-118.12 367.18,-44.18"/>
<polygon fill="black" stroke="black" points="369.92,-42 361,-36.27 364.4,-46.31 369.92,-42"/>
</g>
<!-- _ScanInstance_check_not_linked_or_linked_entity_exists_ -->
<g id="node6" class="node">
<title>_ScanInstance_check_not_linked_or_linked_entity_exists_</title>
<polygon fill="lightblue" stroke="white" points="840,-36 471,-36 471,0 840,0 840,-36"/>
<text text-anchor="middle" x="655.5" y="-14.3" font-family="Arial" font-size="14.00">_ScanInstance_check_not_linked_or_linked_entity_exists_</text>
</g>
<!-- _ScanInstance_scan_&#45;&gt;_ScanInstance_check_not_linked_or_linked_entity_exists_ -->
<g id="edge4" class="edge">
<title>_ScanInstance_scan_&#45;&gt;_ScanInstance_check_not_linked_or_linked_entity_exists_</title>
<path fill="none" stroke="black" d="M655.5,-395.82C655.5,-333.98 655.5,-122.47 655.5,-46.47"/>
<polygon fill="black" stroke="black" points="659,-46.27 655.5,-36.27 652,-46.27 659,-46.27"/>
</g>
<!-- _SearchController_role_ -->
<g id="node7" class="node">
<title>_SearchController_role_</title>
<polygon fill="lightblue" stroke="white" points="1039,-36 876,-36 876,0 1039,0 1039,-36"/>
<text text-anchor="middle" x="957.5" y="-14.3" font-family="Arial" font-size="14.00">_SearchController_role_</text>
</g>
<!-- _ScanInstance_scan_&#45;&gt;_SearchController_role_ -->
<g id="edge5" class="edge">
<title>_ScanInstance_scan_&#45;&gt;_SearchController_role_</title>
<path fill="none" stroke="black" d="M668.67,-395.82C716.45,-333.48 880.86,-118.99 937.86,-44.63"/>
<polygon fill="black" stroke="black" points="940.95,-46.34 944.26,-36.27 935.4,-42.08 940.95,-46.34"/>
</g>
<!-- _ScanInstance_results_ -->
<g id="node8" class="node">
<title>_ScanInstance_results_</title>
<polygon fill="lightblue" stroke="white" points="1236,-36 1075,-36 1075,0 1236,0 1236,-36"/>
<text text-anchor="middle" x="1155.5" y="-14.3" font-family="Arial" font-size="14.00">_ScanInstance_results_</text>
</g>
<!-- _ScanInstance_scan_&#45;&gt;_ScanInstance_results_ -->
<g id="edge7" class="edge">
<title>_ScanInstance_scan_&#45;&gt;_ScanInstance_results_</title>
<path fill="none" stroke="black" d="M677.31,-395.82C757.23,-332.84 1034.24,-114.56 1125.84,-42.38"/>
<polygon fill="black" stroke="black" points="1128.17,-44.99 1133.86,-36.05 1123.84,-39.49 1128.17,-44.99"/>
</g>
</g>
</svg>
