<?xml version="1.0" encoding="UTF-8" standalone="no"?>
<!DOCTYPE svg PUBLIC "-//W3C//DTD SVG 1.1//EN"
 "http://www.w3.org/Graphics/SVG/1.1/DTD/svg11.dtd">
<!-- Generated by graphviz version 2.43.0 (0)
 -->
<!-- Title: CallGraph Pages: 1 -->
<svg width="1685pt" height="440pt"
 viewBox="0.00 0.00 1685.00 440.00" xmlns="http://www.w3.org/2000/svg" xmlns:xlink="http://www.w3.org/1999/xlink">
<g id="graph0" class="graph" transform="scale(1 1) rotate(0) translate(4 436)">
<title>CallGraph</title>
<polygon fill="white" stroke="transparent" points="-4,4 -4,-436 1681,-436 1681,4 -4,4"/>
<!-- _SearchController_graph_ -->
<g id="node1" class="node">
<title>_SearchController_graph_</title>
<polygon fill="lightblue" stroke="white" points="175,-432 0,-432 0,-396 175,-396 175,-432"/>
<text text-anchor="middle" x="87.5" y="-410.3" font-family="Arial" font-size="14.00">_SearchController_graph_</text>
</g>
<!-- _ScanInstance_results_ -->
<g id="node2" class="node">
<title>_ScanInstance_results_</title>
<polygon fill="lightblue" stroke="white" points="945,-36 784,-36 784,0 945,0 945,-36"/>
<text text-anchor="middle" x="864.5" y="-14.3" font-family="Arial" font-size="14.00">_ScanInstance_results_</text>
</g>
<!-- _SearchController_graph_&#45;&gt;_ScanInstance_results_ -->
<g id="edge1" class="edge">
<title>_SearchController_graph_&#45;&gt;_ScanInstance_results_</title>
<path fill="none" stroke="black" d="M121.14,-395.94C245.99,-332.63 682.83,-111.12 821.74,-40.68"/>
<polygon fill="black" stroke="black" points="823.5,-43.71 830.84,-36.07 820.34,-37.47 823.5,-43.71"/>
</g>
<!-- _SearchController_document_ -->
<g id="node3" class="node">
<title>_SearchController_document_</title>
<polygon fill="lightblue" stroke="white" points="411.5,-432 211.5,-432 211.5,-396 411.5,-396 411.5,-432"/>
<text text-anchor="middle" x="311.5" y="-410.3" font-family="Arial" font-size="14.00">_SearchController_document_</text>
</g>
<!-- _SearchController_document_&#45;&gt;_ScanInstance_results_ -->
<g id="edge2" class="edge">
<title>_SearchController_document_&#45;&gt;_ScanInstance_results_</title>
<path fill="none" stroke="black" d="M335.62,-395.82C424.19,-332.71 731.62,-113.68 832.3,-41.94"/>
<polygon fill="black" stroke="black" points="834.45,-44.7 840.57,-36.05 830.39,-39 834.45,-44.7"/>
</g>
<!-- _SearchController_directory_ -->
<g id="node4" class="node">
<title>_SearchController_directory_</title>
<polygon fill="lightblue" stroke="white" points="639.5,-432 447.5,-432 447.5,-396 639.5,-396 639.5,-432"/>
<text text-anchor="middle" x="543.5" y="-410.3" font-family="Arial" font-size="14.00">_SearchController_directory_</text>
</g>
<!-- _SearchController_directory_&#45;&gt;_ScanInstance_results_ -->
<g id="edge3" class="edge">
<title>_SearchController_directory_&#45;&gt;_ScanInstance_results_</title>
<path fill="none" stroke="black" d="M557.5,-395.82C608.39,-333.35 783.75,-118.12 843.99,-44.18"/>
<polygon fill="black" stroke="black" points="846.82,-46.24 850.43,-36.27 841.4,-41.82 846.82,-46.24"/>
</g>
<!-- _SearchController_role_ -->
<g id="node5" class="node">
<title>_SearchController_role_</title>
<polygon fill="lightblue" stroke="white" points="839,-432 676,-432 676,-396 839,-396 839,-432"/>
<text text-anchor="middle" x="757.5" y="-410.3" font-family="Arial" font-size="14.00">_SearchController_role_</text>
</g>
<!-- _SearchController_role_&#45;&gt;_ScanInstance_results_ -->
<g id="edge4" class="edge">
<title>_SearchController_role_&#45;&gt;_ScanInstance_results_</title>
<path fill="none" stroke="black" d="M762.17,-395.82C778.99,-333.86 836.64,-121.6 857.17,-46"/>
<polygon fill="black" stroke="black" points="860.57,-46.84 859.81,-36.27 853.81,-45.01 860.57,-46.84"/>
</g>
<!-- _SearchController_resource_ -->
<g id="node6" class="node">
<title>_SearchController_resource_</title>
<polygon fill="lightblue" stroke="white" points="1068,-432 875,-432 875,-396 1068,-396 1068,-432"/>
<text text-anchor="middle" x="971.5" y="-410.3" font-family="Arial" font-size="14.00">_SearchController_resource_</text>
</g>
<!-- _SearchController_resource_&#45;&gt;_ScanInstance_results_ -->
<g id="edge5" class="edge">
<title>_SearchController_resource_&#45;&gt;_ScanInstance_results_</title>
<path fill="none" stroke="black" d="M966.83,-395.82C950.01,-333.86 892.36,-121.6 871.83,-46"/>
<polygon fill="black" stroke="black" points="875.19,-45.01 869.19,-36.27 868.43,-46.84 875.19,-45.01"/>
</g>
<!-- _SearchController_tag_ -->
<g id="node7" class="node">
<title>_SearchController_tag_</title>
<polygon fill="lightblue" stroke="white" points="1263,-432 1104,-432 1104,-396 1263,-396 1263,-432"/>
<text text-anchor="middle" x="1183.5" y="-410.3" font-family="Arial" font-size="14.00">_SearchController_tag_</text>
</g>
<!-- _SearchController_tag_&#45;&gt;_ScanInstance_results_ -->
<g id="edge6" class="edge">
<title>_SearchController_tag_&#45;&gt;_ScanInstance_results_</title>
<path fill="none" stroke="black" d="M1169.59,-395.82C1119.01,-333.35 944.75,-118.12 884.88,-44.18"/>
<polygon fill="black" stroke="black" points="887.5,-41.84 878.49,-36.27 882.06,-46.25 887.5,-41.84"/>
</g>
<!-- _SearchController_user_ -->
<g id="node8" class="node">
<title>_SearchController_user_</title>
<polygon fill="lightblue" stroke="white" points="1466,-432 1299,-432 1299,-396 1466,-396 1466,-432"/>
<text text-anchor="middle" x="1382.5" y="-410.3" font-family="Arial" font-size="14.00">_SearchController_user_</text>
</g>
<!-- _SearchController_user_&#45;&gt;_ScanInstance_results_ -->
<g id="edge7" class="edge">
<title>_SearchController_user_&#45;&gt;_ScanInstance_results_</title>
<path fill="none" stroke="black" d="M1359.91,-395.82C1277.02,-332.77 989.55,-114.12 894.95,-42.16"/>
<polygon fill="black" stroke="black" points="897,-39.32 886.92,-36.05 892.76,-44.89 897,-39.32"/>
</g>
<!-- _SearchController_group_ -->
<g id="node9" class="node">
<title>_SearchController_group_</title>
<polygon fill="lightblue" stroke="white" points="1677,-432 1502,-432 1502,-396 1677,-396 1677,-432"/>
<text text-anchor="middle" x="1589.5" y="-410.3" font-family="Arial" font-size="14.00">_SearchController_group_</text>
</g>
<!-- _SearchController_group_&#45;&gt;_ScanInstance_results_ -->
<g id="edge8" class="edge">
<title>_SearchController_group_&#45;&gt;_ScanInstance_results_</title>
<path fill="none" stroke="black" d="M1557.88,-395.82C1441.17,-332.39 1034.65,-111.47 904.74,-40.87"/>
<polygon fill="black" stroke="black" points="906.33,-37.75 895.88,-36.05 902.99,-43.9 906.33,-37.75"/>
</g>
</g>
</svg>
