<?xml version="1.0" encoding="UTF-8" standalone="no"?>
<!DOCTYPE svg PUBLIC "-//W3C//DTD SVG 1.1//EN"
 "http://www.w3.org/Graphics/SVG/1.1/DTD/svg11.dtd">
<!-- Generated by graphviz version 2.43.0 (0)
 -->
<!-- Title: CallGraph Pages: 1 -->
<svg width="1000pt" height="893pt"
 viewBox="0.00 0.00 1000.00 892.62" xmlns="http://www.w3.org/2000/svg" xmlns:xlink="http://www.w3.org/1999/xlink">
<g id="graph0" class="graph" transform="scale(1 1) rotate(0) translate(4 888.62)">
<title>CallGraph</title>
<polygon fill="white" stroke="transparent" points="-4,4 -4,-888.62 996,-888.62 996,4 -4,4"/>
<!-- _SessionsController_setup_ -->
<g id="node1" class="node">
<title>_SessionsController_setup_</title>
<polygon fill="lightblue" stroke="white" points="254.5,-884.62 69.5,-884.62 69.5,-848.62 254.5,-848.62 254.5,-884.62"/>
<text text-anchor="middle" x="162" y="-862.92" font-family="Arial" font-size="14.00">_SessionsController_setup_</text>
</g>
<!-- _SessionsController_use_customer_ldap_params_ -->
<g id="node2" class="node">
<title>_SessionsController_use_customer_ldap_params_</title>
<polygon fill="lightblue" stroke="white" points="324,-488.62 0,-488.62 0,-452.62 324,-452.62 324,-488.62"/>
<text text-anchor="middle" x="162" y="-466.92" font-family="Arial" font-size="14.00">_SessionsController_use_customer_ldap_params_</text>
</g>
<!-- _SessionsController_setup_&#45;&gt;_SessionsController_use_customer_ldap_params_ -->
<g id="edge1" class="edge">
<title>_SessionsController_setup_&#45;&gt;_SessionsController_use_customer_ldap_params_</title>
<path fill="none" stroke="black" d="M162,-848.44C162,-786.61 162,-575.09 162,-499.09"/>
<polygon fill="black" stroke="black" points="165.5,-498.89 162,-488.89 158.5,-498.89 165.5,-498.89"/>
</g>
<!-- _SessionsController_ldap_settings_ -->
<g id="node7" class="node">
<title>_SessionsController_ldap_settings_</title>
<polygon fill="lightblue" stroke="white" points="278,-92.62 46,-92.62 46,-56.62 278,-56.62 278,-92.62"/>
<text text-anchor="middle" x="162" y="-70.92" font-family="Arial" font-size="14.00">_SessionsController_ldap_settings_</text>
</g>
<!-- _SessionsController_use_customer_ldap_params_&#45;&gt;_SessionsController_ldap_settings_ -->
<g id="edge4" class="edge">
<title>_SessionsController_use_customer_ldap_params_&#45;&gt;_SessionsController_ldap_settings_</title>
<path fill="none" stroke="black" d="M162,-452.44C162,-390.61 162,-179.09 162,-103.09"/>
<polygon fill="black" stroke="black" points="165.5,-102.89 162,-92.89 158.5,-102.89 165.5,-102.89"/>
</g>
<!-- _SessionsController_new_ -->
<g id="node3" class="node">
<title>_SessionsController_new_</title>
<polygon fill="lightblue" stroke="white" points="598.5,-884.62 421.5,-884.62 421.5,-848.62 598.5,-848.62 598.5,-884.62"/>
<text text-anchor="middle" x="510" y="-862.92" font-family="Arial" font-size="14.00">_SessionsController_new_</text>
</g>
<!-- _SessionsController_initialize_devise_session_ -->
<g id="node4" class="node">
<title>_SessionsController_initialize_devise_session_</title>
<polygon fill="lightblue" stroke="white" points="660,-488.62 360,-488.62 360,-452.62 660,-452.62 660,-488.62"/>
<text text-anchor="middle" x="510" y="-466.92" font-family="Arial" font-size="14.00">_SessionsController_initialize_devise_session_</text>
</g>
<!-- _SessionsController_new_&#45;&gt;_SessionsController_initialize_devise_session_ -->
<g id="edge2" class="edge">
<title>_SessionsController_new_&#45;&gt;_SessionsController_initialize_devise_session_</title>
<path fill="none" stroke="black" d="M510,-848.44C510,-786.61 510,-575.09 510,-499.09"/>
<polygon fill="black" stroke="black" points="513.5,-498.89 510,-488.89 506.5,-498.89 513.5,-498.89"/>
</g>
<!-- _SessionsController_destroy_ -->
<g id="node5" class="node">
<title>_SessionsController_destroy_</title>
<polygon fill="lightblue" stroke="white" points="942.5,-884.62 745.5,-884.62 745.5,-848.62 942.5,-848.62 942.5,-884.62"/>
<text text-anchor="middle" x="844" y="-862.92" font-family="Arial" font-size="14.00">_SessionsController_destroy_</text>
</g>
<!-- _SessionsController_destroy_devise_session_ -->
<g id="node6" class="node">
<title>_SessionsController_destroy_devise_session_</title>
<polygon fill="lightblue" stroke="white" points="992,-488.62 696,-488.62 696,-452.62 992,-452.62 992,-488.62"/>
<text text-anchor="middle" x="844" y="-466.92" font-family="Arial" font-size="14.00">_SessionsController_destroy_devise_session_</text>
</g>
<!-- _SessionsController_destroy_&#45;&gt;_SessionsController_destroy_devise_session_ -->
<g id="edge3" class="edge">
<title>_SessionsController_destroy_&#45;&gt;_SessionsController_destroy_devise_session_</title>
<path fill="none" stroke="black" d="M844,-848.44C844,-786.61 844,-575.09 844,-499.09"/>
<polygon fill="black" stroke="black" points="847.5,-498.89 844,-488.89 840.5,-498.89 847.5,-498.89"/>
</g>
<!-- _SessionsController_ldap_settings_&#45;&gt;_SessionsController_ldap_settings_ -->
<g id="edge5" class="edge">
<title>_SessionsController_ldap_settings_&#45;&gt;_SessionsController_ldap_settings_</title>
<path fill="none" stroke="black" d="M172.55,-92.78C225.49,-173.2 314,-167.14 314,-74.62 314,14.47 231.94,23.39 178.59,-47.86"/>
<polygon fill="black" stroke="black" points="175.43,-46.26 172.55,-56.46 181.16,-50.29 175.43,-46.26"/>
</g>
</g>
</svg>
