<?xml version="1.0" encoding="UTF-8" standalone="no"?>
<!DOCTYPE svg PUBLIC "-//W3C//DTD SVG 1.1//EN"
 "http://www.w3.org/Graphics/SVG/1.1/DTD/svg11.dtd">
<!-- Generated by graphviz version 2.43.0 (0)
 -->
<!-- Title: CallGraph Pages: 1 -->
<svg width="9252pt" height="836pt"
 viewBox="0.00 0.00 9251.50 836.00" xmlns="http://www.w3.org/2000/svg" xmlns:xlink="http://www.w3.org/1999/xlink">
<g id="graph0" class="graph" transform="scale(1 1) rotate(0) translate(4 832)">
<title>CallGraph</title>
<polygon fill="white" stroke="transparent" points="-4,4 -4,-832 9247.5,-832 9247.5,4 -4,4"/>
<!-- _SettingsController_update_ -->
<g id="node1" class="node">
<title>_SettingsController_update_</title>
<polygon fill="lightblue" stroke="white" points="188,-828 0,-828 0,-792 188,-792 188,-828"/>
<text text-anchor="middle" x="94" y="-806.3" font-family="Arial" font-size="14.00">_SettingsController_update_</text>
</g>
<!-- _SettingsController_settings_params_ -->
<g id="node2" class="node">
<title>_SettingsController_settings_params_</title>
<polygon fill="lightblue" stroke="white" points="458,-432 212,-432 212,-396 458,-396 458,-432"/>
<text text-anchor="middle" x="335" y="-410.3" font-family="Arial" font-size="14.00">_SettingsController_settings_params_</text>
</g>
<!-- _SettingsController_update_&#45;&gt;_SettingsController_settings_params_ -->
<g id="edge1" class="edge">
<title>_SettingsController_update_&#45;&gt;_SettingsController_settings_params_</title>
<path fill="none" stroke="black" d="M104.51,-791.82C142.56,-729.6 273.31,-515.86 319.05,-441.08"/>
<polygon fill="black" stroke="black" points="322.2,-442.63 324.43,-432.27 316.23,-438.98 322.2,-442.63"/>
</g>
<!-- _SettingsController_update_authentication_strategy_ -->
<g id="node3" class="node">
<title>_SettingsController_update_authentication_strategy_</title>
<polygon fill="lightblue" stroke="white" points="1213.5,-828 878.5,-828 878.5,-792 1213.5,-792 1213.5,-828"/>
<text text-anchor="middle" x="1046" y="-806.3" font-family="Arial" font-size="14.00">_SettingsController_update_authentication_strategy_</text>
</g>
<!-- _SettingsController_authentication_strategy_params_ -->
<g id="node4" class="node">
<title>_SettingsController_authentication_strategy_params_</title>
<polygon fill="lightblue" stroke="white" points="1215.5,-432 876.5,-432 876.5,-396 1215.5,-396 1215.5,-432"/>
<text text-anchor="middle" x="1046" y="-410.3" font-family="Arial" font-size="14.00">_SettingsController_authentication_strategy_params_</text>
</g>
<!-- _SettingsController_update_authentication_strategy_&#45;&gt;_SettingsController_authentication_strategy_params_ -->
<g id="edge2" class="edge">
<title>_SettingsController_update_authentication_strategy_&#45;&gt;_SettingsController_authentication_strategy_params_</title>
<path fill="none" stroke="black" d="M1046,-791.82C1046,-729.98 1046,-518.47 1046,-442.47"/>
<polygon fill="black" stroke="black" points="1049.5,-442.27 1046,-432.27 1042.5,-442.27 1049.5,-442.27"/>
</g>
<!-- _SettingsController_update_logo_ -->
<g id="node5" class="node">
<title>_SettingsController_update_logo_</title>
<polygon fill="lightblue" stroke="white" points="445.5,-828 224.5,-828 224.5,-792 445.5,-792 445.5,-828"/>
<text text-anchor="middle" x="335" y="-806.3" font-family="Arial" font-size="14.00">_SettingsController_update_logo_</text>
</g>
<!-- _SettingsController_update_logo_&#45;&gt;_SettingsController_settings_params_ -->
<g id="edge3" class="edge">
<title>_SettingsController_update_logo_&#45;&gt;_SettingsController_settings_params_</title>
<path fill="none" stroke="black" d="M335,-791.82C335,-729.98 335,-518.47 335,-442.47"/>
<polygon fill="black" stroke="black" points="338.5,-442.27 335,-432.27 331.5,-442.27 338.5,-442.27"/>
</g>
<!-- _SettingsController_update_nickname_ -->
<g id="node6" class="node">
<title>_SettingsController_update_nickname_</title>
<polygon fill="lightblue" stroke="white" points="1842,-828 1588,-828 1588,-792 1842,-792 1842,-828"/>
<text text-anchor="middle" x="1715" y="-806.3" font-family="Arial" font-size="14.00">_SettingsController_update_nickname_</text>
</g>
<!-- _SettingsController_settings_general_ -->
<g id="node7" class="node">
<title>_SettingsController_settings_general_</title>
<polygon fill="lightblue" stroke="white" points="1513.5,-432 1268.5,-432 1268.5,-396 1513.5,-396 1513.5,-432"/>
<text text-anchor="middle" x="1391" y="-410.3" font-family="Arial" font-size="14.00">_SettingsController_settings_general_</text>
</g>
<!-- _SettingsController_update_nickname_&#45;&gt;_SettingsController_settings_general_ -->
<g id="edge4" class="edge">
<title>_SettingsController_update_nickname_&#45;&gt;_SettingsController_settings_general_</title>
<path fill="none" stroke="black" d="M1700.87,-791.82C1649.5,-729.35 1472.51,-514.12 1411.7,-440.18"/>
<polygon fill="black" stroke="black" points="1414.26,-437.77 1405.2,-432.27 1408.85,-442.22 1414.26,-437.77"/>
</g>
<!-- _SettingsController_build_validation_error_or_failure_ -->
<g id="node8" class="node">
<title>_SettingsController_build_validation_error_or_failure_</title>
<polygon fill="lightblue" stroke="white" points="1888.5,-432 1549.5,-432 1549.5,-396 1888.5,-396 1888.5,-432"/>
<text text-anchor="middle" x="1719" y="-410.3" font-family="Arial" font-size="14.00">_SettingsController_build_validation_error_or_failure_</text>
</g>
<!-- _SettingsController_update_nickname_&#45;&gt;_SettingsController_build_validation_error_or_failure_ -->
<g id="edge5" class="edge">
<title>_SettingsController_update_nickname_&#45;&gt;_SettingsController_build_validation_error_or_failure_</title>
<path fill="none" stroke="black" d="M1715.17,-791.82C1715.8,-729.98 1717.95,-518.47 1718.72,-442.47"/>
<polygon fill="black" stroke="black" points="1722.22,-442.31 1718.82,-432.27 1715.22,-442.24 1722.22,-442.31"/>
</g>
<!-- _SettingsController_update_referent_contact_ -->
<g id="node9" class="node">
<title>_SettingsController_update_referent_contact_</title>
<polygon fill="lightblue" stroke="white" points="1542.5,-828 1249.5,-828 1249.5,-792 1542.5,-792 1542.5,-828"/>
<text text-anchor="middle" x="1396" y="-806.3" font-family="Arial" font-size="14.00">_SettingsController_update_referent_contact_</text>
</g>
<!-- _SettingsController_update_referent_contact_&#45;&gt;_SettingsController_settings_general_ -->
<g id="edge6" class="edge">
<title>_SettingsController_update_referent_contact_&#45;&gt;_SettingsController_settings_general_</title>
<path fill="none" stroke="black" d="M1395.78,-791.82C1395,-729.98 1392.31,-518.47 1391.35,-442.47"/>
<polygon fill="black" stroke="black" points="1394.85,-442.23 1391.22,-432.27 1387.85,-442.32 1394.85,-442.23"/>
</g>
<!-- _SettingsController_update_referent_contact_&#45;&gt;_SettingsController_build_validation_error_or_failure_ -->
<g id="edge7" class="edge">
<title>_SettingsController_update_referent_contact_&#45;&gt;_SettingsController_build_validation_error_or_failure_</title>
<path fill="none" stroke="black" d="M1410.09,-791.82C1461.3,-729.35 1637.74,-514.12 1698.36,-440.18"/>
<polygon fill="black" stroke="black" points="1701.21,-442.23 1704.84,-432.27 1695.79,-437.79 1701.21,-442.23"/>
</g>
<!-- _SettingsController_serve_logo_ -->
<g id="node10" class="node">
<title>_SettingsController_serve_logo_</title>
<polygon fill="lightblue" stroke="white" points="4314,-828 4102,-828 4102,-792 4314,-792 4314,-828"/>
<text text-anchor="middle" x="4208" y="-806.3" font-family="Arial" font-size="14.00">_SettingsController_serve_logo_</text>
</g>
<!-- _ActsController_show_ -->
<g id="node11" class="node">
<title>_ActsController_show_</title>
<polygon fill="lightblue" stroke="white" points="2432.5,-432 2277.5,-432 2277.5,-396 2432.5,-396 2432.5,-432"/>
<text text-anchor="middle" x="2355" y="-410.3" font-family="Arial" font-size="14.00">_ActsController_show_</text>
</g>
<!-- _SettingsController_serve_logo_&#45;&gt;_ActsController_show_ -->
<g id="edge8" class="edge">
<title>_SettingsController_serve_logo_&#45;&gt;_ActsController_show_</title>
<path fill="none" stroke="black" d="M4127.78,-791.94C3825.59,-727.69 2757.11,-500.5 2442.67,-433.64"/>
<polygon fill="black" stroke="black" points="2443.2,-430.18 2432.69,-431.52 2441.75,-437.02 2443.2,-430.18"/>
</g>
<!-- _AuditsController_show_ -->
<g id="node12" class="node">
<title>_AuditsController_show_</title>
<polygon fill="lightblue" stroke="white" points="2635.5,-432 2468.5,-432 2468.5,-396 2635.5,-396 2635.5,-432"/>
<text text-anchor="middle" x="2552" y="-410.3" font-family="Arial" font-size="14.00">_AuditsController_show_</text>
</g>
<!-- _SettingsController_serve_logo_&#45;&gt;_AuditsController_show_ -->
<g id="edge9" class="edge">
<title>_SettingsController_serve_logo_&#45;&gt;_AuditsController_show_</title>
<path fill="none" stroke="black" d="M4136.31,-791.94C3867.28,-727.93 2918.66,-502.24 2633.6,-434.42"/>
<polygon fill="black" stroke="black" points="2634.28,-430.98 2623.74,-432.07 2632.66,-437.79 2634.28,-430.98"/>
</g>
<!-- _DirectoriesController_show_ -->
<g id="node13" class="node">
<title>_DirectoriesController_show_</title>
<polygon fill="lightblue" stroke="white" points="2865,-432 2671,-432 2671,-396 2865,-396 2865,-432"/>
<text text-anchor="middle" x="2768" y="-410.3" font-family="Arial" font-size="14.00">_DirectoriesController_show_</text>
</g>
<!-- _SettingsController_serve_logo_&#45;&gt;_DirectoriesController_show_ -->
<g id="edge10" class="edge">
<title>_SettingsController_serve_logo_&#45;&gt;_DirectoriesController_show_</title>
<path fill="none" stroke="black" d="M4145.66,-791.94C3912.07,-728.03 3089.28,-502.9 2840.06,-434.72"/>
<polygon fill="black" stroke="black" points="2840.96,-431.33 2830.39,-432.07 2839.11,-438.08 2840.96,-431.33"/>
</g>
<!-- _DocumentsController_show_ -->
<g id="node14" class="node">
<title>_DocumentsController_show_</title>
<polygon fill="lightblue" stroke="white" points="3099,-432 2901,-432 2901,-396 3099,-396 3099,-432"/>
<text text-anchor="middle" x="3000" y="-410.3" font-family="Arial" font-size="14.00">_DocumentsController_show_</text>
</g>
<!-- _SettingsController_serve_logo_&#45;&gt;_DocumentsController_show_ -->
<g id="edge11" class="edge">
<title>_SettingsController_serve_logo_&#45;&gt;_DocumentsController_show_</title>
<path fill="none" stroke="black" d="M4155.71,-791.94C3960.23,-728.19 3272.93,-504.02 3062.01,-435.23"/>
<polygon fill="black" stroke="black" points="3062.93,-431.84 3052.34,-432.07 3060.76,-438.5 3062.93,-431.84"/>
</g>
<!-- _EventsController_show_ -->
<g id="node15" class="node">
<title>_EventsController_show_</title>
<polygon fill="lightblue" stroke="white" points="3305,-432 3135,-432 3135,-396 3305,-396 3305,-432"/>
<text text-anchor="middle" x="3220" y="-410.3" font-family="Arial" font-size="14.00">_EventsController_show_</text>
</g>
<!-- _SettingsController_serve_logo_&#45;&gt;_EventsController_show_ -->
<g id="edge12" class="edge">
<title>_SettingsController_serve_logo_&#45;&gt;_EventsController_show_</title>
<path fill="none" stroke="black" d="M4165.23,-791.94C4005.83,-728.38 3446.56,-505.35 3272.27,-435.85"/>
<polygon fill="black" stroke="black" points="3273.39,-432.52 3262.8,-432.07 3270.8,-439.02 3273.39,-432.52"/>
</g>
<!-- _GraphBackgroundsController_show_ -->
<g id="node16" class="node">
<title>_GraphBackgroundsController_show_</title>
<polygon fill="lightblue" stroke="white" points="3587,-432 3341,-432 3341,-396 3587,-396 3587,-432"/>
<text text-anchor="middle" x="3464" y="-410.3" font-family="Arial" font-size="14.00">_GraphBackgroundsController_show_</text>
</g>
<!-- _SettingsController_serve_logo_&#45;&gt;_GraphBackgroundsController_show_ -->
<g id="edge13" class="edge">
<title>_SettingsController_serve_logo_&#45;&gt;_GraphBackgroundsController_show_</title>
<path fill="none" stroke="black" d="M4175.55,-791.82C4055.79,-728.39 3638.61,-507.47 3505.3,-436.87"/>
<polygon fill="black" stroke="black" points="3506.67,-433.64 3496.2,-432.05 3503.4,-439.82 3506.67,-433.64"/>
</g>
<!-- _GraphsController_show_ -->
<g id="node17" class="node">
<title>_GraphsController_show_</title>
<polygon fill="lightblue" stroke="white" points="3797,-432 3623,-432 3623,-396 3797,-396 3797,-432"/>
<text text-anchor="middle" x="3710" y="-410.3" font-family="Arial" font-size="14.00">_GraphsController_show_</text>
</g>
<!-- _SettingsController_serve_logo_&#45;&gt;_GraphsController_show_ -->
<g id="edge14" class="edge">
<title>_SettingsController_serve_logo_&#45;&gt;_GraphsController_show_</title>
<path fill="none" stroke="black" d="M4186.28,-791.82C4106.68,-728.84 3830.78,-510.56 3739.55,-438.38"/>
<polygon fill="black" stroke="black" points="3741.57,-435.51 3731.55,-432.05 3737.22,-441 3741.57,-435.51"/>
</g>
<!-- _GroupdocumentsController_show_ -->
<g id="node18" class="node">
<title>_GroupdocumentsController_show_</title>
<polygon fill="lightblue" stroke="white" points="4067,-432 3833,-432 3833,-396 4067,-396 4067,-432"/>
<text text-anchor="middle" x="3950" y="-410.3" font-family="Arial" font-size="14.00">_GroupdocumentsController_show_</text>
</g>
<!-- _SettingsController_serve_logo_&#45;&gt;_GroupdocumentsController_show_ -->
<g id="edge15" class="edge">
<title>_SettingsController_serve_logo_&#45;&gt;_GroupdocumentsController_show_</title>
<path fill="none" stroke="black" d="M4196.75,-791.82C4156.01,-729.6 4016.05,-515.86 3967.08,-441.08"/>
<polygon fill="black" stroke="black" points="3969.72,-438.72 3961.31,-432.27 3963.86,-442.56 3969.72,-438.72"/>
</g>
<!-- _GroupgraphsController_show_ -->
<g id="node19" class="node">
<title>_GroupgraphsController_show_</title>
<polygon fill="lightblue" stroke="white" points="4312.5,-432 4103.5,-432 4103.5,-396 4312.5,-396 4312.5,-432"/>
<text text-anchor="middle" x="4208" y="-410.3" font-family="Arial" font-size="14.00">_GroupgraphsController_show_</text>
</g>
<!-- _SettingsController_serve_logo_&#45;&gt;_GroupgraphsController_show_ -->
<g id="edge16" class="edge">
<title>_SettingsController_serve_logo_&#45;&gt;_GroupgraphsController_show_</title>
<path fill="none" stroke="black" d="M4208,-791.82C4208,-729.98 4208,-518.47 4208,-442.47"/>
<polygon fill="black" stroke="black" points="4211.5,-442.27 4208,-432.27 4204.5,-442.27 4211.5,-442.27"/>
</g>
<!-- _PartialsController_show_ -->
<g id="node20" class="node">
<title>_PartialsController_show_</title>
<polygon fill="lightblue" stroke="white" points="4523,-432 4349,-432 4349,-396 4523,-396 4523,-432"/>
<text text-anchor="middle" x="4436" y="-410.3" font-family="Arial" font-size="14.00">_PartialsController_show_</text>
</g>
<!-- _SettingsController_serve_logo_&#45;&gt;_PartialsController_show_ -->
<g id="edge17" class="edge">
<title>_SettingsController_serve_logo_&#45;&gt;_PartialsController_show_</title>
<path fill="none" stroke="black" d="M4217.94,-791.82C4253.94,-729.6 4377.63,-515.86 4420.91,-441.08"/>
<polygon fill="black" stroke="black" points="4424.02,-442.68 4426,-432.27 4417.97,-439.18 4424.02,-442.68"/>
</g>
<!-- _RecordingsController_show_ -->
<g id="node21" class="node">
<title>_RecordingsController_show_</title>
<polygon fill="lightblue" stroke="white" points="4756.5,-432 4559.5,-432 4559.5,-396 4756.5,-396 4756.5,-432"/>
<text text-anchor="middle" x="4658" y="-410.3" font-family="Arial" font-size="14.00">_RecordingsController_show_</text>
</g>
<!-- _SettingsController_serve_logo_&#45;&gt;_RecordingsController_show_ -->
<g id="edge18" class="edge">
<title>_SettingsController_serve_logo_&#45;&gt;_RecordingsController_show_</title>
<path fill="none" stroke="black" d="M4227.63,-791.82C4299.41,-728.96 4547.86,-511.43 4630.8,-438.81"/>
<polygon fill="black" stroke="black" points="4633.31,-441.27 4638.52,-432.05 4628.7,-436.01 4633.31,-441.27"/>
</g>
<!-- _ResourcesController_show_ -->
<g id="node22" class="node">
<title>_ResourcesController_show_</title>
<polygon fill="lightblue" stroke="white" points="4987,-432 4793,-432 4793,-396 4987,-396 4987,-432"/>
<text text-anchor="middle" x="4890" y="-410.3" font-family="Arial" font-size="14.00">_ResourcesController_show_</text>
</g>
<!-- _SettingsController_serve_logo_&#45;&gt;_ResourcesController_show_ -->
<g id="edge19" class="edge">
<title>_SettingsController_serve_logo_&#45;&gt;_ResourcesController_show_</title>
<path fill="none" stroke="black" d="M4237.74,-791.82C4347.42,-728.46 4729.17,-507.91 4851.78,-437.08"/>
<polygon fill="black" stroke="black" points="4853.58,-440.08 4860.48,-432.05 4850.07,-434.02 4853.58,-440.08"/>
</g>
<!-- _RolesController_show_ -->
<g id="node23" class="node">
<title>_RolesController_show_</title>
<polygon fill="lightblue" stroke="white" points="5187,-432 5023,-432 5023,-396 5187,-396 5187,-432"/>
<text text-anchor="middle" x="5105" y="-410.3" font-family="Arial" font-size="14.00">_RolesController_show_</text>
</g>
<!-- _SettingsController_serve_logo_&#45;&gt;_RolesController_show_ -->
<g id="edge20" class="edge">
<title>_SettingsController_serve_logo_&#45;&gt;_RolesController_show_</title>
<path fill="none" stroke="black" d="M4246.83,-791.94C4391.26,-728.5 4897.28,-506.24 5056.59,-436.26"/>
<polygon fill="black" stroke="black" points="5058.39,-439.3 5066.14,-432.07 5055.58,-432.89 5058.39,-439.3"/>
</g>
<!-- _TagsController_show_ -->
<g id="node24" class="node">
<title>_TagsController_show_</title>
<polygon fill="lightblue" stroke="white" points="5381,-432 5223,-432 5223,-396 5381,-396 5381,-432"/>
<text text-anchor="middle" x="5302" y="-410.3" font-family="Arial" font-size="14.00">_TagsController_show_</text>
</g>
<!-- _SettingsController_serve_logo_&#45;&gt;_TagsController_show_ -->
<g id="edge21" class="edge">
<title>_SettingsController_serve_logo_&#45;&gt;_TagsController_show_</title>
<path fill="none" stroke="black" d="M4255.36,-791.94C4432.12,-728.28 5052.98,-504.68 5244.98,-435.53"/>
<polygon fill="black" stroke="black" points="5246.38,-438.75 5254.6,-432.07 5244.01,-432.17 5246.38,-438.75"/>
</g>
<!-- _NotificationsController_preview_ -->
<g id="node25" class="node">
<title>_NotificationsController_preview_</title>
<polygon fill="lightblue" stroke="white" points="5635,-432 5417,-432 5417,-396 5635,-396 5635,-432"/>
<text text-anchor="middle" x="5526" y="-410.3" font-family="Arial" font-size="14.00">_NotificationsController_preview_</text>
</g>
<!-- _SettingsController_serve_logo_&#45;&gt;_NotificationsController_preview_ -->
<g id="edge22" class="edge">
<title>_SettingsController_serve_logo_&#45;&gt;_NotificationsController_preview_</title>
<path fill="none" stroke="black" d="M4265.06,-791.94C4478.54,-728.12 5229.71,-503.57 5459.02,-435.02"/>
<polygon fill="black" stroke="black" points="5460.32,-438.29 5468.9,-432.07 5458.32,-431.58 5460.32,-438.29"/>
</g>
<!-- _PrintController_print_ -->
<g id="node26" class="node">
<title>_PrintController_print_</title>
<polygon fill="lightblue" stroke="white" points="5823,-432 5671,-432 5671,-396 5823,-396 5823,-432"/>
<text text-anchor="middle" x="5747" y="-410.3" font-family="Arial" font-size="14.00">_PrintController_print_</text>
</g>
<!-- _SettingsController_serve_logo_&#45;&gt;_PrintController_print_ -->
<g id="edge23" class="edge">
<title>_SettingsController_serve_logo_&#45;&gt;_PrintController_print_</title>
<path fill="none" stroke="black" d="M4274.62,-791.94C4524.4,-728 5404.51,-502.68 5670.38,-434.62"/>
<polygon fill="black" stroke="black" points="5671.5,-437.94 5680.32,-432.07 5669.77,-431.16 5671.5,-437.94"/>
</g>
<!-- _RolesController_print_ -->
<g id="node27" class="node">
<title>_RolesController_print_</title>
<polygon fill="lightblue" stroke="white" points="6017,-432 5859,-432 5859,-396 6017,-396 6017,-432"/>
<text text-anchor="middle" x="5938" y="-410.3" font-family="Arial" font-size="14.00">_RolesController_print_</text>
</g>
<!-- _SettingsController_serve_logo_&#45;&gt;_RolesController_print_ -->
<g id="edge24" class="edge">
<title>_SettingsController_serve_logo_&#45;&gt;_RolesController_print_</title>
<path fill="none" stroke="black" d="M4282.89,-791.94C4564.08,-727.9 5555.94,-502.01 5853.19,-434.31"/>
<polygon fill="black" stroke="black" points="5854.08,-437.7 5863.05,-432.07 5852.52,-430.88 5854.08,-437.7"/>
</g>
<!-- _SettingsController_change_time_zone_ -->
<g id="node28" class="node">
<title>_SettingsController_change_time_zone_</title>
<polygon fill="lightblue" stroke="white" points="6342.5,-828 6081.5,-828 6081.5,-792 6342.5,-792 6342.5,-828"/>
<text text-anchor="middle" x="6212" y="-806.3" font-family="Arial" font-size="14.00">_SettingsController_change_time_zone_</text>
</g>
<!-- _SettingsController_settings_time_zone_params_ -->
<g id="node29" class="node">
<title>_SettingsController_settings_time_zone_params_</title>
<polygon fill="lightblue" stroke="white" points="6370.5,-432 6053.5,-432 6053.5,-396 6370.5,-396 6370.5,-432"/>
<text text-anchor="middle" x="6212" y="-410.3" font-family="Arial" font-size="14.00">_SettingsController_settings_time_zone_params_</text>
</g>
<!-- _SettingsController_change_time_zone_&#45;&gt;_SettingsController_settings_time_zone_params_ -->
<g id="edge25" class="edge">
<title>_SettingsController_change_time_zone_&#45;&gt;_SettingsController_settings_time_zone_params_</title>
<path fill="none" stroke="black" d="M6212,-791.82C6212,-729.98 6212,-518.47 6212,-442.47"/>
<polygon fill="black" stroke="black" points="6215.5,-442.27 6212,-432.27 6208.5,-442.27 6215.5,-442.27"/>
</g>
<!-- _SettingsController_change_logo_usage_ -->
<g id="node30" class="node">
<title>_SettingsController_change_logo_usage_</title>
<polygon fill="lightblue" stroke="white" points="6702,-828 6434,-828 6434,-792 6702,-792 6702,-828"/>
<text text-anchor="middle" x="6568" y="-806.3" font-family="Arial" font-size="14.00">_SettingsController_change_logo_usage_</text>
</g>
<!-- _SettingsController_settings_logo_usage_params_ -->
<g id="node31" class="node">
<title>_SettingsController_settings_logo_usage_params_</title>
<polygon fill="lightblue" stroke="white" points="6729.5,-432 6406.5,-432 6406.5,-396 6729.5,-396 6729.5,-432"/>
<text text-anchor="middle" x="6568" y="-410.3" font-family="Arial" font-size="14.00">_SettingsController_settings_logo_usage_params_</text>
</g>
<!-- _SettingsController_change_logo_usage_&#45;&gt;_SettingsController_settings_logo_usage_params_ -->
<g id="edge26" class="edge">
<title>_SettingsController_change_logo_usage_&#45;&gt;_SettingsController_settings_logo_usage_params_</title>
<path fill="none" stroke="black" d="M6568,-791.82C6568,-729.98 6568,-518.47 6568,-442.47"/>
<polygon fill="black" stroke="black" points="6571.5,-442.27 6568,-432.27 6564.5,-442.27 6571.5,-442.27"/>
</g>
<!-- _SettingsController_edit_print_footer_ -->
<g id="node32" class="node">
<title>_SettingsController_edit_print_footer_</title>
<polygon fill="lightblue" stroke="white" points="7049,-828 6805,-828 6805,-792 7049,-792 7049,-828"/>
<text text-anchor="middle" x="6927" y="-806.3" font-family="Arial" font-size="14.00">_SettingsController_edit_print_footer_</text>
</g>
<!-- _SettingsController_settings_print_footer_params_ -->
<g id="node33" class="node">
<title>_SettingsController_settings_print_footer_params_</title>
<polygon fill="lightblue" stroke="white" points="7088,-432 6766,-432 6766,-396 7088,-396 7088,-432"/>
<text text-anchor="middle" x="6927" y="-410.3" font-family="Arial" font-size="14.00">_SettingsController_settings_print_footer_params_</text>
</g>
<!-- _SettingsController_edit_print_footer_&#45;&gt;_SettingsController_settings_print_footer_params_ -->
<g id="edge27" class="edge">
<title>_SettingsController_edit_print_footer_&#45;&gt;_SettingsController_settings_print_footer_params_</title>
<path fill="none" stroke="black" d="M6927,-791.82C6927,-729.98 6927,-518.47 6927,-442.47"/>
<polygon fill="black" stroke="black" points="6930.5,-442.27 6927,-432.27 6923.5,-442.27 6930.5,-442.27"/>
</g>
<!-- _SettingsController_change_approved_read_ -->
<g id="node34" class="node">
<title>_SettingsController_change_approved_read_</title>
<polygon fill="lightblue" stroke="white" points="7440.5,-828 7151.5,-828 7151.5,-792 7440.5,-792 7440.5,-828"/>
<text text-anchor="middle" x="7296" y="-806.3" font-family="Arial" font-size="14.00">_SettingsController_change_approved_read_</text>
</g>
<!-- _SettingsController_settings_approved_read_params_ -->
<g id="node35" class="node">
<title>_SettingsController_settings_approved_read_params_</title>
<polygon fill="lightblue" stroke="white" points="7468,-432 7124,-432 7124,-396 7468,-396 7468,-432"/>
<text text-anchor="middle" x="7296" y="-410.3" font-family="Arial" font-size="14.00">_SettingsController_settings_approved_read_params_</text>
</g>
<!-- _SettingsController_change_approved_read_&#45;&gt;_SettingsController_settings_approved_read_params_ -->
<g id="edge28" class="edge">
<title>_SettingsController_change_approved_read_&#45;&gt;_SettingsController_settings_approved_read_params_</title>
<path fill="none" stroke="black" d="M7296,-791.82C7296,-729.98 7296,-518.47 7296,-442.47"/>
<polygon fill="black" stroke="black" points="7299.5,-442.27 7296,-432.27 7292.5,-442.27 7299.5,-442.27"/>
</g>
<!-- _SettingsController_update_owner_users_management_ -->
<g id="node36" class="node">
<title>_SettingsController_update_owner_users_management_</title>
<polygon fill="lightblue" stroke="white" points="842,-828 482,-828 482,-792 842,-792 842,-828"/>
<text text-anchor="middle" x="662" y="-806.3" font-family="Arial" font-size="14.00">_SettingsController_update_owner_users_management_</text>
</g>
<!-- _SettingsController_update_owner_users_management_&#45;&gt;_SettingsController_settings_params_ -->
<g id="edge29" class="edge">
<title>_SettingsController_update_owner_users_management_&#45;&gt;_SettingsController_settings_params_</title>
<path fill="none" stroke="black" d="M647.74,-791.82C595.9,-729.35 417.26,-514.12 355.89,-440.18"/>
<polygon fill="black" stroke="black" points="358.42,-437.73 349.34,-432.27 353.03,-442.2 358.42,-437.73"/>
</g>
<!-- _SettingsController_update_password_policy_ -->
<g id="node37" class="node">
<title>_SettingsController_update_password_policy_</title>
<polygon fill="lightblue" stroke="white" points="7811.5,-828 7516.5,-828 7516.5,-792 7811.5,-792 7811.5,-828"/>
<text text-anchor="middle" x="7664" y="-806.3" font-family="Arial" font-size="14.00">_SettingsController_update_password_policy_</text>
</g>
<!-- _SettingsController_settings_pwd_policy_params_ -->
<g id="node38" class="node">
<title>_SettingsController_settings_pwd_policy_params_</title>
<polygon fill="lightblue" stroke="white" points="7824,-432 7504,-432 7504,-396 7824,-396 7824,-432"/>
<text text-anchor="middle" x="7664" y="-410.3" font-family="Arial" font-size="14.00">_SettingsController_settings_pwd_policy_params_</text>
</g>
<!-- _SettingsController_update_password_policy_&#45;&gt;_SettingsController_settings_pwd_policy_params_ -->
<g id="edge30" class="edge">
<title>_SettingsController_update_password_policy_&#45;&gt;_SettingsController_settings_pwd_policy_params_</title>
<path fill="none" stroke="black" d="M7664,-791.82C7664,-729.98 7664,-518.47 7664,-442.47"/>
<polygon fill="black" stroke="black" points="7667.5,-442.27 7664,-432.27 7660.5,-442.27 7667.5,-442.27"/>
</g>
<!-- _SettingsController_update_user_deactivation_ -->
<g id="node39" class="node">
<title>_SettingsController_update_user_deactivation_</title>
<polygon fill="lightblue" stroke="white" points="8163.5,-828 7862.5,-828 7862.5,-792 8163.5,-792 8163.5,-828"/>
<text text-anchor="middle" x="8013" y="-806.3" font-family="Arial" font-size="14.00">_SettingsController_update_user_deactivation_</text>
</g>
<!-- _SettingsController_user_deactivation_params_ -->
<g id="node40" class="node">
<title>_SettingsController_user_deactivation_params_</title>
<polygon fill="lightblue" stroke="white" points="8165.5,-432 7860.5,-432 7860.5,-396 8165.5,-396 8165.5,-432"/>
<text text-anchor="middle" x="8013" y="-410.3" font-family="Arial" font-size="14.00">_SettingsController_user_deactivation_params_</text>
</g>
<!-- _SettingsController_update_user_deactivation_&#45;&gt;_SettingsController_user_deactivation_params_ -->
<g id="edge31" class="edge">
<title>_SettingsController_update_user_deactivation_&#45;&gt;_SettingsController_user_deactivation_params_</title>
<path fill="none" stroke="black" d="M8013,-791.82C8013,-729.98 8013,-518.47 8013,-442.47"/>
<polygon fill="black" stroke="black" points="8016.5,-442.27 8013,-432.27 8009.5,-442.27 8016.5,-442.27"/>
</g>
<!-- _SettingsController_update_deactivation_period_ -->
<g id="node41" class="node">
<title>_SettingsController_update_deactivation_period_</title>
<polygon fill="lightblue" stroke="white" points="2215,-828 1903,-828 1903,-792 2215,-792 2215,-828"/>
<text text-anchor="middle" x="2059" y="-806.3" font-family="Arial" font-size="14.00">_SettingsController_update_deactivation_period_</text>
</g>
<!-- _SettingsController_update_deactivation_period_&#45;&gt;_SettingsController_build_validation_error_or_failure_ -->
<g id="edge33" class="edge">
<title>_SettingsController_update_deactivation_period_&#45;&gt;_SettingsController_build_validation_error_or_failure_</title>
<path fill="none" stroke="black" d="M2044.17,-791.82C1990.27,-729.35 1804.53,-514.12 1740.73,-440.18"/>
<polygon fill="black" stroke="black" points="1743.09,-437.56 1733.91,-432.27 1737.79,-442.13 1743.09,-437.56"/>
</g>
<!-- _SettingsController_deactivation_period_params_ -->
<g id="node42" class="node">
<title>_SettingsController_deactivation_period_params_</title>
<polygon fill="lightblue" stroke="white" points="2241.5,-432 1924.5,-432 1924.5,-396 2241.5,-396 2241.5,-432"/>
<text text-anchor="middle" x="2083" y="-410.3" font-family="Arial" font-size="14.00">_SettingsController_deactivation_period_params_</text>
</g>
<!-- _SettingsController_update_deactivation_period_&#45;&gt;_SettingsController_deactivation_period_params_ -->
<g id="edge32" class="edge">
<title>_SettingsController_update_deactivation_period_&#45;&gt;_SettingsController_deactivation_period_params_</title>
<path fill="none" stroke="black" d="M2060.05,-791.82C2063.81,-729.98 2076.7,-518.47 2081.33,-442.47"/>
<polygon fill="black" stroke="black" points="2084.83,-442.47 2081.95,-432.27 2077.85,-442.04 2084.83,-442.47"/>
</g>
<!-- _SettingsController_update_colors_ -->
<g id="node43" class="node">
<title>_SettingsController_update_colors_</title>
<polygon fill="lightblue" stroke="white" points="8632.5,-828 8401.5,-828 8401.5,-792 8632.5,-792 8632.5,-828"/>
<text text-anchor="middle" x="8517" y="-806.3" font-family="Arial" font-size="14.00">_SettingsController_update_colors_</text>
</g>
<!-- _SettingsController_colors_ -->
<g id="node44" class="node">
<title>_SettingsController_colors_</title>
<polygon fill="lightblue" stroke="white" points="8858,-432 8676,-432 8676,-396 8858,-396 8858,-432"/>
<text text-anchor="middle" x="8767" y="-410.3" font-family="Arial" font-size="14.00">_SettingsController_colors_</text>
</g>
<!-- _SettingsController_update_colors_&#45;&gt;_SettingsController_colors_ -->
<g id="edge34" class="edge">
<title>_SettingsController_update_colors_&#45;&gt;_SettingsController_colors_</title>
<path fill="none" stroke="black" d="M8527.9,-791.82C8567.38,-729.6 8703,-515.86 8750.45,-441.08"/>
<polygon fill="black" stroke="black" points="8753.64,-442.59 8756.04,-432.27 8747.73,-438.84 8753.64,-442.59"/>
</g>
<!-- _ExternalUsersService_parse_ -->
<g id="node45" class="node">
<title>_ExternalUsersService_parse_</title>
<polygon fill="lightblue" stroke="white" points="8404.5,-432 8201.5,-432 8201.5,-396 8404.5,-396 8404.5,-432"/>
<text text-anchor="middle" x="8303" y="-410.3" font-family="Arial" font-size="14.00">_ExternalUsersService_parse_</text>
</g>
<!-- _SettingsController_update_colors_&#45;&gt;_ExternalUsersService_parse_ -->
<g id="edge35" class="edge">
<title>_SettingsController_update_colors_&#45;&gt;_ExternalUsersService_parse_</title>
<path fill="none" stroke="black" d="M8507.67,-791.82C8473.88,-729.6 8357.78,-515.86 8317.17,-441.08"/>
<polygon fill="black" stroke="black" points="8320.23,-439.39 8312.38,-432.27 8314.08,-442.73 8320.23,-439.39"/>
</g>
<!-- _SsoUsersService_parse_ -->
<g id="node46" class="node">
<title>_SsoUsersService_parse_</title>
<polygon fill="lightblue" stroke="white" points="8617,-432 8441,-432 8441,-396 8617,-396 8617,-432"/>
<text text-anchor="middle" x="8529" y="-410.3" font-family="Arial" font-size="14.00">_SsoUsersService_parse_</text>
</g>
<!-- _SettingsController_update_colors_&#45;&gt;_SsoUsersService_parse_ -->
<g id="edge36" class="edge">
<title>_SettingsController_update_colors_&#45;&gt;_SsoUsersService_parse_</title>
<path fill="none" stroke="black" d="M8517.52,-791.82C8519.41,-729.98 8525.85,-518.47 8528.16,-442.47"/>
<polygon fill="black" stroke="black" points="8531.67,-442.38 8528.47,-432.27 8524.67,-442.16 8531.67,-442.38"/>
</g>
<!-- _SettingsController_colors_&#45;&gt;_SettingsController_colors_ -->
<g id="edge41" class="edge">
<title>_SettingsController_colors_&#45;&gt;_SettingsController_colors_</title>
<path fill="none" stroke="black" d="M8775.82,-432.16C8820.05,-512.58 8894,-506.52 8894,-414 8894,-325.09 8825.71,-316.03 8781.13,-386.81"/>
<polygon fill="black" stroke="black" points="8777.87,-385.45 8775.82,-395.84 8783.91,-389 8777.87,-385.45"/>
</g>
<!-- _SearchController_all_ -->
<g id="node50" class="node">
<title>_SearchController_all_</title>
<polygon fill="lightblue" stroke="white" points="8844,-36 8690,-36 8690,0 8844,0 8844,-36"/>
<text text-anchor="middle" x="8767" y="-14.3" font-family="Arial" font-size="14.00">_SearchController_all_</text>
</g>
<!-- _SettingsController_colors_&#45;&gt;_SearchController_all_ -->
<g id="edge40" class="edge">
<title>_SettingsController_colors_&#45;&gt;_SearchController_all_</title>
<path fill="none" stroke="black" d="M8767,-395.82C8767,-333.98 8767,-122.47 8767,-46.47"/>
<polygon fill="black" stroke="black" points="8770.5,-46.27 8767,-36.27 8763.5,-46.27 8770.5,-46.27"/>
</g>
<!-- _SettingsController_toggle_color_ -->
<g id="node47" class="node">
<title>_SettingsController_toggle_color_</title>
<polygon fill="lightblue" stroke="white" points="9172,-828 8952,-828 8952,-792 9172,-792 9172,-828"/>
<text text-anchor="middle" x="9062" y="-806.3" font-family="Arial" font-size="14.00">_SettingsController_toggle_color_</text>
</g>
<!-- _SettingsController_toggle_color_&#45;&gt;_SettingsController_colors_ -->
<g id="edge38" class="edge">
<title>_SettingsController_toggle_color_&#45;&gt;_SettingsController_colors_</title>
<path fill="none" stroke="black" d="M9049.13,-791.82C9002.46,-729.48 8841.87,-514.99 8786.19,-440.63"/>
<polygon fill="black" stroke="black" points="8788.73,-438.18 8779.93,-432.27 8783.13,-442.38 8788.73,-438.18"/>
</g>
<!-- _SettingsController_settings_palette_color_params_ -->
<g id="node48" class="node">
<title>_SettingsController_settings_palette_color_params_</title>
<polygon fill="lightblue" stroke="white" points="9243.5,-432 8912.5,-432 8912.5,-396 9243.5,-396 9243.5,-432"/>
<text text-anchor="middle" x="9078" y="-410.3" font-family="Arial" font-size="14.00">_SettingsController_settings_palette_color_params_</text>
</g>
<!-- _SettingsController_toggle_color_&#45;&gt;_SettingsController_settings_palette_color_params_ -->
<g id="edge37" class="edge">
<title>_SettingsController_toggle_color_&#45;&gt;_SettingsController_settings_palette_color_params_</title>
<path fill="none" stroke="black" d="M9062.7,-791.82C9065.21,-729.98 9073.8,-518.47 9076.88,-442.47"/>
<polygon fill="black" stroke="black" points="9080.39,-442.41 9077.3,-432.27 9073.4,-442.12 9080.39,-442.41"/>
</g>
<!-- _SettingsController_delete_color_ -->
<g id="node49" class="node">
<title>_SettingsController_delete_color_</title>
<polygon fill="lightblue" stroke="white" points="8889,-828 8669,-828 8669,-792 8889,-792 8889,-828"/>
<text text-anchor="middle" x="8779" y="-806.3" font-family="Arial" font-size="14.00">_SettingsController_delete_color_</text>
</g>
<!-- _SettingsController_delete_color_&#45;&gt;_SettingsController_colors_ -->
<g id="edge39" class="edge">
<title>_SettingsController_delete_color_&#45;&gt;_SettingsController_colors_</title>
<path fill="none" stroke="black" d="M8778.48,-791.82C8776.59,-729.98 8770.15,-518.47 8767.84,-442.47"/>
<polygon fill="black" stroke="black" points="8771.33,-442.16 8767.53,-432.27 8764.33,-442.38 8771.33,-442.16"/>
</g>
</g>
</svg>
