<?xml version="1.0" encoding="UTF-8" standalone="no"?>
<!DOCTYPE svg PUBLIC "-//W3C//DTD SVG 1.1//EN"
 "http://www.w3.org/Graphics/SVG/1.1/DTD/svg11.dtd">
<!-- Generated by graphviz version 2.43.0 (0)
 -->
<!-- Title: CallGraph Pages: 1 -->
<svg width="1098pt" height="440pt"
 viewBox="0.00 0.00 1098.00 440.00" xmlns="http://www.w3.org/2000/svg" xmlns:xlink="http://www.w3.org/1999/xlink">
<g id="graph0" class="graph" transform="scale(1 1) rotate(0) translate(4 436)">
<title>CallGraph</title>
<polygon fill="white" stroke="transparent" points="-4,4 -4,-436 1094,-436 1094,4 -4,4"/>
<!-- _SignupsController_create_ -->
<g id="node1" class="node">
<title>_SignupsController_create_</title>
<polygon fill="lightblue" stroke="white" points="245.5,-432 61.5,-432 61.5,-396 245.5,-396 245.5,-432"/>
<text text-anchor="middle" x="153.5" y="-410.3" font-family="Arial" font-size="14.00">_SignupsController_create_</text>
</g>
<!-- _SignupsController_create_params_ -->
<g id="node2" class="node">
<title>_SignupsController_create_params_</title>
<polygon fill="lightblue" stroke="white" points="237,-36 0,-36 0,0 237,0 237,-36"/>
<text text-anchor="middle" x="118.5" y="-14.3" font-family="Arial" font-size="14.00">_SignupsController_create_params_</text>
</g>
<!-- _SignupsController_create_&#45;&gt;_SignupsController_create_params_ -->
<g id="edge1" class="edge">
<title>_SignupsController_create_&#45;&gt;_SignupsController_create_params_</title>
<path fill="none" stroke="black" d="M151.97,-395.82C146.48,-333.98 127.69,-122.47 120.94,-46.47"/>
<polygon fill="black" stroke="black" points="124.41,-45.92 120.03,-36.27 117.43,-46.54 124.41,-45.92"/>
</g>
<!-- _SignupsController_generate_url_ -->
<g id="node3" class="node">
<title>_SignupsController_generate_url_</title>
<polygon fill="lightblue" stroke="white" points="779.5,-36 557.5,-36 557.5,0 779.5,0 779.5,-36"/>
<text text-anchor="middle" x="668.5" y="-14.3" font-family="Arial" font-size="14.00">_SignupsController_generate_url_</text>
</g>
<!-- _SignupsController_create_&#45;&gt;_SignupsController_generate_url_ -->
<g id="edge2" class="edge">
<title>_SignupsController_create_&#45;&gt;_SignupsController_generate_url_</title>
<path fill="none" stroke="black" d="M175.96,-395.82C258.37,-332.77 544.17,-114.12 638.23,-42.16"/>
<polygon fill="black" stroke="black" points="640.4,-44.91 646.21,-36.05 636.14,-39.35 640.4,-44.91"/>
</g>
<!-- _SignupsController_signup_params_ -->
<g id="node4" class="node">
<title>_SignupsController_signup_params_</title>
<polygon fill="lightblue" stroke="white" points="512,-36 273,-36 273,0 512,0 512,-36"/>
<text text-anchor="middle" x="392.5" y="-14.3" font-family="Arial" font-size="14.00">_SignupsController_signup_params_</text>
</g>
<!-- _SignupsController_create_&#45;&gt;_SignupsController_signup_params_ -->
<g id="edge3" class="edge">
<title>_SignupsController_create_&#45;&gt;_SignupsController_signup_params_</title>
<path fill="none" stroke="black" d="M163.92,-395.82C201.66,-333.6 331.32,-119.86 376.68,-45.08"/>
<polygon fill="black" stroke="black" points="379.83,-46.64 382.02,-36.27 373.84,-43.01 379.83,-46.64"/>
</g>
<!-- _SignupsController_authorize_remote_host_ -->
<g id="node5" class="node">
<title>_SignupsController_authorize_remote_host_</title>
<polygon fill="lightblue" stroke="white" points="815,-432 530,-432 530,-396 815,-396 815,-432"/>
<text text-anchor="middle" x="672.5" y="-410.3" font-family="Arial" font-size="14.00">_SignupsController_authorize_remote_host_</text>
</g>
<!-- _SignupsController_authorize_remote_host_&#45;&gt;_SignupsController_generate_url_ -->
<g id="edge5" class="edge">
<title>_SignupsController_authorize_remote_host_&#45;&gt;_SignupsController_generate_url_</title>
<path fill="none" stroke="black" d="M672.33,-395.82C671.7,-333.98 669.55,-122.47 668.78,-46.47"/>
<polygon fill="black" stroke="black" points="672.28,-46.24 668.68,-36.27 665.28,-46.31 672.28,-46.24"/>
</g>
<!-- _SignupsController_authorize_remote_host_&#45;&gt;_SignupsController_signup_params_ -->
<g id="edge6" class="edge">
<title>_SignupsController_authorize_remote_host_&#45;&gt;_SignupsController_signup_params_</title>
<path fill="none" stroke="black" d="M660.29,-395.82C615.99,-333.48 463.56,-118.99 410.71,-44.63"/>
<polygon fill="black" stroke="black" points="413.42,-42.4 404.78,-36.27 407.72,-46.45 413.42,-42.4"/>
</g>
<!-- _SignupsController_remote_host_ -->
<g id="node6" class="node">
<title>_SignupsController_remote_host_</title>
<polygon fill="lightblue" stroke="white" points="1057.5,-36 835.5,-36 835.5,0 1057.5,0 1057.5,-36"/>
<text text-anchor="middle" x="946.5" y="-14.3" font-family="Arial" font-size="14.00">_SignupsController_remote_host_</text>
</g>
<!-- _SignupsController_authorize_remote_host_&#45;&gt;_SignupsController_remote_host_ -->
<g id="edge4" class="edge">
<title>_SignupsController_authorize_remote_host_&#45;&gt;_SignupsController_remote_host_</title>
<path fill="none" stroke="black" d="M684.45,-395.82C727.8,-333.48 876.96,-118.99 928.68,-44.63"/>
<polygon fill="black" stroke="black" points="931.65,-46.48 934.49,-36.27 925.9,-42.49 931.65,-46.48"/>
</g>
<!-- _SignupsController_set_signup_ -->
<g id="node7" class="node">
<title>_SignupsController_set_signup_</title>
<polygon fill="lightblue" stroke="white" points="493.5,-432 281.5,-432 281.5,-396 493.5,-396 493.5,-432"/>
<text text-anchor="middle" x="387.5" y="-410.3" font-family="Arial" font-size="14.00">_SignupsController_set_signup_</text>
</g>
<!-- _SignupsController_set_signup_&#45;&gt;_SignupsController_signup_params_ -->
<g id="edge7" class="edge">
<title>_SignupsController_set_signup_&#45;&gt;_SignupsController_signup_params_</title>
<path fill="none" stroke="black" d="M387.72,-395.82C388.5,-333.98 391.19,-122.47 392.15,-46.47"/>
<polygon fill="black" stroke="black" points="395.65,-46.32 392.28,-36.27 388.65,-46.23 395.65,-46.32"/>
</g>
<!-- _SignupsController_log_registration_ -->
<g id="node8" class="node">
<title>_SignupsController_log_registration_</title>
<polygon fill="lightblue" stroke="white" points="1090,-432 851,-432 851,-396 1090,-396 1090,-432"/>
<text text-anchor="middle" x="970.5" y="-410.3" font-family="Arial" font-size="14.00">_SignupsController_log_registration_</text>
</g>
<!-- _SignupsController_log_registration_&#45;&gt;_SignupsController_remote_host_ -->
<g id="edge8" class="edge">
<title>_SignupsController_log_registration_&#45;&gt;_SignupsController_remote_host_</title>
<path fill="none" stroke="black" d="M969.45,-395.82C965.69,-333.98 952.8,-122.47 948.17,-46.47"/>
<polygon fill="black" stroke="black" points="951.65,-46.04 947.55,-36.27 944.67,-46.47 951.65,-46.04"/>
</g>
</g>
</svg>
