<?xml version="1.0" encoding="UTF-8" standalone="no"?>
<!DOCTYPE svg PUBLIC "-//W3C//DTD SVG 1.1//EN"
 "http://www.w3.org/Graphics/SVG/1.1/DTD/svg11.dtd">
<!-- Generated by graphviz version 2.43.0 (0)
 -->
<!-- Title: CallGraph Pages: 1 -->
<svg width="546pt" height="440pt"
 viewBox="0.00 0.00 546.00 440.00" xmlns="http://www.w3.org/2000/svg" xmlns:xlink="http://www.w3.org/1999/xlink">
<g id="graph0" class="graph" transform="scale(1 1) rotate(0) translate(4 436)">
<title>CallGraph</title>
<polygon fill="white" stroke="transparent" points="-4,4 -4,-436 542,-436 542,4 -4,4"/>
<!-- _SpaController_check_improver_access_ -->
<g id="node1" class="node">
<title>_SpaController_check_improver_access_</title>
<polygon fill="lightblue" stroke="white" points="267,-432 0,-432 0,-396 267,-396 267,-432"/>
<text text-anchor="middle" x="133.5" y="-410.3" font-family="Arial" font-size="14.00">_SpaController_check_improver_access_</text>
</g>
<!-- _SpaController_respond_unauthorized_ -->
<g id="node2" class="node">
<title>_SpaController_respond_unauthorized_</title>
<polygon fill="lightblue" stroke="white" points="404.5,-36 148.5,-36 148.5,0 404.5,0 404.5,-36"/>
<text text-anchor="middle" x="276.5" y="-14.3" font-family="Arial" font-size="14.00">_SpaController_respond_unauthorized_</text>
</g>
<!-- _SpaController_check_improver_access_&#45;&gt;_SpaController_respond_unauthorized_ -->
<g id="edge1" class="edge">
<title>_SpaController_check_improver_access_&#45;&gt;_SpaController_respond_unauthorized_</title>
<path fill="none" stroke="black" d="M139.74,-395.82C162.22,-333.86 239.26,-121.6 266.7,-46"/>
<polygon fill="black" stroke="black" points="270.11,-46.87 270.23,-36.27 263.53,-44.48 270.11,-46.87"/>
</g>
<!-- _SpaController_check_risk_access_ -->
<g id="node3" class="node">
<title>_SpaController_check_risk_access_</title>
<polygon fill="lightblue" stroke="white" points="538,-432 303,-432 303,-396 538,-396 538,-432"/>
<text text-anchor="middle" x="420.5" y="-410.3" font-family="Arial" font-size="14.00">_SpaController_check_risk_access_</text>
</g>
<!-- _SpaController_check_risk_access_&#45;&gt;_SpaController_respond_unauthorized_ -->
<g id="edge2" class="edge">
<title>_SpaController_check_risk_access_&#45;&gt;_SpaController_respond_unauthorized_</title>
<path fill="none" stroke="black" d="M414.22,-395.82C391.57,-333.86 314,-121.6 286.37,-46"/>
<polygon fill="black" stroke="black" points="289.53,-44.46 282.81,-36.27 282.96,-46.87 289.53,-44.46"/>
</g>
</g>
</svg>
