<?xml version="1.0" encoding="UTF-8" standalone="no"?>
<!DOCTYPE svg PUBLIC "-//W3C//DTD SVG 1.1//EN"
 "http://www.w3.org/Graphics/SVG/1.1/DTD/svg11.dtd">
<!-- Generated by graphviz version 2.43.0 (0)
 -->
<!-- Title: CallGraph Pages: 1 -->
<svg width="586pt" height="440pt"
 viewBox="0.00 0.00 586.00 440.00" xmlns="http://www.w3.org/2000/svg" xmlns:xlink="http://www.w3.org/1999/xlink">
<g id="graph0" class="graph" transform="scale(1 1) rotate(0) translate(4 436)">
<title>CallGraph</title>
<polygon fill="white" stroke="transparent" points="-4,4 -4,-436 582,-436 582,4 -4,4"/>
<!-- _SsoSettingsController_edit_ -->
<g id="node1" class="node">
<title>_SsoSettingsController_edit_</title>
<polygon fill="lightblue" stroke="white" points="217.5,-432 26.5,-432 26.5,-396 217.5,-396 217.5,-432"/>
<text text-anchor="middle" x="122" y="-410.3" font-family="Arial" font-size="14.00">_SsoSettingsController_edit_</text>
</g>
<!-- _ExternalUsersService_sso_settings_ -->
<g id="node2" class="node">
<title>_ExternalUsersService_sso_settings_</title>
<polygon fill="lightblue" stroke="white" points="244,-36 0,-36 0,0 244,0 244,-36"/>
<text text-anchor="middle" x="122" y="-14.3" font-family="Arial" font-size="14.00">_ExternalUsersService_sso_settings_</text>
</g>
<!-- _SsoSettingsController_edit_&#45;&gt;_ExternalUsersService_sso_settings_ -->
<g id="edge1" class="edge">
<title>_SsoSettingsController_edit_&#45;&gt;_ExternalUsersService_sso_settings_</title>
<path fill="none" stroke="black" d="M122,-395.82C122,-333.98 122,-122.47 122,-46.47"/>
<polygon fill="black" stroke="black" points="125.5,-46.27 122,-36.27 118.5,-46.27 125.5,-46.27"/>
</g>
<!-- _SsoSettingsController_update_ -->
<g id="node3" class="node">
<title>_SsoSettingsController_update_</title>
<polygon fill="lightblue" stroke="white" points="499.5,-432 288.5,-432 288.5,-396 499.5,-396 499.5,-432"/>
<text text-anchor="middle" x="394" y="-410.3" font-family="Arial" font-size="14.00">_SsoSettingsController_update_</text>
</g>
<!-- _SsoSettingsController_update_&#45;&gt;_ExternalUsersService_sso_settings_ -->
<g id="edge2" class="edge">
<title>_SsoSettingsController_update_&#45;&gt;_ExternalUsersService_sso_settings_</title>
<path fill="none" stroke="black" d="M382.14,-395.82C339.1,-333.48 191.03,-118.99 139.69,-44.63"/>
<polygon fill="black" stroke="black" points="142.49,-42.51 133.92,-36.27 136.73,-46.49 142.49,-42.51"/>
</g>
<!-- _SsoSettingsController_sso_settings_params_ -->
<g id="node4" class="node">
<title>_SsoSettingsController_sso_settings_params_</title>
<polygon fill="lightblue" stroke="white" points="578,-36 280,-36 280,0 578,0 578,-36"/>
<text text-anchor="middle" x="429" y="-14.3" font-family="Arial" font-size="14.00">_SsoSettingsController_sso_settings_params_</text>
</g>
<!-- _SsoSettingsController_update_&#45;&gt;_SsoSettingsController_sso_settings_params_ -->
<g id="edge3" class="edge">
<title>_SsoSettingsController_update_&#45;&gt;_SsoSettingsController_sso_settings_params_</title>
<path fill="none" stroke="black" d="M395.53,-395.82C401.02,-333.98 419.81,-122.47 426.56,-46.47"/>
<polygon fill="black" stroke="black" points="430.07,-46.54 427.47,-36.27 423.09,-45.92 430.07,-46.54"/>
</g>
</g>
</svg>
