<?xml version="1.0" encoding="UTF-8" standalone="no"?>
<!DOCTYPE svg PUBLIC "-//W3C//DTD SVG 1.1//EN"
 "http://www.w3.org/Graphics/SVG/1.1/DTD/svg11.dtd">
<!-- Generated by graphviz version 2.43.0 (0)
 -->
<!-- Title: CallGraph Pages: 1 -->
<svg width="1770pt" height="2420pt"
 viewBox="0.00 0.00 1770.43 2420.00" xmlns="http://www.w3.org/2000/svg" xmlns:xlink="http://www.w3.org/1999/xlink">
<g id="graph0" class="graph" transform="scale(1 1) rotate(0) translate(4 2416)">
<title>CallGraph</title>
<polygon fill="white" stroke="transparent" points="-4,4 -4,-2416 1766.43,-2416 1766.43,4 -4,4"/>
<!-- _SsoUsersService_load_saml_data_ -->
<g id="node1" class="node">
<title>_SsoUsersService_load_saml_data_</title>
<polygon fill="lightblue" stroke="white" points="546.43,-2412 307.43,-2412 307.43,-2376 546.43,-2376 546.43,-2412"/>
<text text-anchor="middle" x="426.93" y="-2390.3" font-family="Arial" font-size="14.00">_SsoUsersService_load_saml_data_</text>
</g>
<!-- _SsoUsersService_user_email_ -->
<g id="node2" class="node">
<title>_SsoUsersService_user_email_</title>
<polygon fill="lightblue" stroke="white" points="1290.43,-36 1081.43,-36 1081.43,0 1290.43,0 1290.43,-36"/>
<text text-anchor="middle" x="1185.93" y="-14.3" font-family="Arial" font-size="14.00">_SsoUsersService_user_email_</text>
</g>
<!-- _SsoUsersService_load_saml_data_&#45;&gt;_SsoUsersService_user_email_ -->
<g id="edge1" class="edge">
<title>_SsoUsersService_load_saml_data_&#45;&gt;_SsoUsersService_user_email_</title>
<path fill="none" stroke="black" d="M410.21,-2375.74C334.32,-2295.52 25.93,-1948.3 25.93,-1603 25.93,-1603 25.93,-1603 25.93,-809 25.93,-624.71 -51.24,-540.66 62.93,-396 312.76,-79.44 838.73,-26.64 1071.24,-19.27"/>
<polygon fill="black" stroke="black" points="1071.52,-22.76 1081.41,-18.97 1071.31,-15.76 1071.52,-22.76"/>
</g>
<!-- _SsoUsersService_existing_user_ -->
<g id="node3" class="node">
<title>_SsoUsersService_existing_user_</title>
<polygon fill="lightblue" stroke="white" points="302.93,-432 80.93,-432 80.93,-396 302.93,-396 302.93,-432"/>
<text text-anchor="middle" x="191.93" y="-410.3" font-family="Arial" font-size="14.00">_SsoUsersService_existing_user_</text>
</g>
<!-- _SsoUsersService_load_saml_data_&#45;&gt;_SsoUsersService_existing_user_ -->
<g id="edge2" class="edge">
<title>_SsoUsersService_load_saml_data_&#45;&gt;_SsoUsersService_existing_user_</title>
<path fill="none" stroke="black" d="M416.27,-2375.96C365.98,-2293.91 154.93,-1930.1 154.93,-1603 154.93,-1603 154.93,-1603 154.93,-1205 154.93,-905.6 181.78,-543.08 189.74,-442.19"/>
<polygon fill="black" stroke="black" points="193.22,-442.47 190.53,-432.22 186.25,-441.91 193.22,-442.47"/>
</g>
<!-- _SsoUsersService_update_existing_user_ -->
<g id="node4" class="node">
<title>_SsoUsersService_update_existing_user_</title>
<polygon fill="lightblue" stroke="white" points="562.43,-2016 291.43,-2016 291.43,-1980 562.43,-1980 562.43,-2016"/>
<text text-anchor="middle" x="426.93" y="-1994.3" font-family="Arial" font-size="14.00">_SsoUsersService_update_existing_user_</text>
</g>
<!-- _SsoUsersService_load_saml_data_&#45;&gt;_SsoUsersService_update_existing_user_ -->
<g id="edge3" class="edge">
<title>_SsoUsersService_load_saml_data_&#45;&gt;_SsoUsersService_update_existing_user_</title>
<path fill="none" stroke="black" d="M426.93,-2375.82C426.93,-2313.98 426.93,-2102.47 426.93,-2026.47"/>
<polygon fill="black" stroke="black" points="430.43,-2026.27 426.93,-2016.27 423.43,-2026.27 430.43,-2026.27"/>
</g>
<!-- _SsoUsersService_user_limit_reached_ -->
<g id="node5" class="node">
<title>_SsoUsersService_user_limit_reached_</title>
<polygon fill="lightblue" stroke="white" points="1102.43,-2016 845.43,-2016 845.43,-1980 1102.43,-1980 1102.43,-2016"/>
<text text-anchor="middle" x="973.93" y="-1994.3" font-family="Arial" font-size="14.00">_SsoUsersService_user_limit_reached_</text>
</g>
<!-- _SsoUsersService_load_saml_data_&#45;&gt;_SsoUsersService_user_limit_reached_ -->
<g id="edge4" class="edge">
<title>_SsoUsersService_load_saml_data_&#45;&gt;_SsoUsersService_user_limit_reached_</title>
<path fill="none" stroke="black" d="M450.79,-2375.82C538.4,-2312.71 842.49,-2093.68 942.08,-2021.94"/>
<polygon fill="black" stroke="black" points="944.19,-2024.74 950.26,-2016.05 940.1,-2019.06 944.19,-2024.74"/>
</g>
<!-- _SsoUsersService_new_user_ -->
<g id="node6" class="node">
<title>_SsoUsersService_new_user_</title>
<polygon fill="lightblue" stroke="white" points="809.43,-2016 608.43,-2016 608.43,-1980 809.43,-1980 809.43,-2016"/>
<text text-anchor="middle" x="708.93" y="-1994.3" font-family="Arial" font-size="14.00">_SsoUsersService_new_user_</text>
</g>
<!-- _SsoUsersService_load_saml_data_&#45;&gt;_SsoUsersService_new_user_ -->
<g id="edge5" class="edge">
<title>_SsoUsersService_load_saml_data_&#45;&gt;_SsoUsersService_new_user_</title>
<path fill="none" stroke="black" d="M439.23,-2375.82C483.85,-2313.48 637.37,-2098.99 690.59,-2024.63"/>
<polygon fill="black" stroke="black" points="693.6,-2026.44 696.57,-2016.27 687.9,-2022.37 693.6,-2026.44"/>
</g>
<!-- _SsoUsersService_existing_user_&#45;&gt;_SsoUsersService_user_email_ -->
<g id="edge8" class="edge">
<title>_SsoUsersService_existing_user_&#45;&gt;_SsoUsersService_user_email_</title>
<path fill="none" stroke="black" d="M234.96,-395.94C395.33,-332.38 957.99,-109.35 1133.34,-39.85"/>
<polygon fill="black" stroke="black" points="1134.86,-43.01 1142.87,-36.07 1132.28,-36.5 1134.86,-43.01"/>
</g>
<!-- _SsoUsersService_update_existing_user_&#45;&gt;_SsoUsersService_existing_user_ -->
<g id="edge10" class="edge">
<title>_SsoUsersService_update_existing_user_&#45;&gt;_SsoUsersService_existing_user_</title>
<path fill="none" stroke="black" d="M424.37,-1979.77C401.01,-1822.52 224.95,-637.28 195.97,-442.15"/>
<polygon fill="black" stroke="black" points="199.41,-441.54 194.48,-432.16 192.49,-442.57 199.41,-441.54"/>
</g>
<!-- _SsoUsersService_tracked_attributes_ -->
<g id="node8" class="node">
<title>_SsoUsersService_tracked_attributes_</title>
<polygon fill="lightblue" stroke="white" points="838.93,-1620 588.93,-1620 588.93,-1584 838.93,-1584 838.93,-1620"/>
<text text-anchor="middle" x="713.93" y="-1598.3" font-family="Arial" font-size="14.00">_SsoUsersService_tracked_attributes_</text>
</g>
<!-- _SsoUsersService_update_existing_user_&#45;&gt;_SsoUsersService_tracked_attributes_ -->
<g id="edge11" class="edge">
<title>_SsoUsersService_update_existing_user_&#45;&gt;_SsoUsersService_tracked_attributes_</title>
<path fill="none" stroke="black" d="M439.45,-1979.82C484.86,-1917.48 641.1,-1702.99 695.27,-1628.63"/>
<polygon fill="black" stroke="black" points="698.29,-1630.42 701.35,-1620.27 692.63,-1626.3 698.29,-1630.42"/>
</g>
<!-- _SsoUsersService_check_activation_status_ -->
<g id="node9" class="node">
<title>_SsoUsersService_check_activation_status_</title>
<polygon fill="lightblue" stroke="white" points="569.93,-828 283.93,-828 283.93,-792 569.93,-792 569.93,-828"/>
<text text-anchor="middle" x="426.93" y="-806.3" font-family="Arial" font-size="14.00">_SsoUsersService_check_activation_status_</text>
</g>
<!-- _SsoUsersService_update_existing_user_&#45;&gt;_SsoUsersService_check_activation_status_ -->
<g id="edge12" class="edge">
<title>_SsoUsersService_update_existing_user_&#45;&gt;_SsoUsersService_check_activation_status_</title>
<path fill="none" stroke="black" d="M426.93,-1979.78C426.93,-1848.2 426.93,-1002.84 426.93,-838.62"/>
<polygon fill="black" stroke="black" points="430.43,-838.39 426.93,-828.39 423.43,-838.39 430.43,-838.39"/>
</g>
<!-- _SsoUsersService_default_attributes_ -->
<g id="node7" class="node">
<title>_SsoUsersService_default_attributes_</title>
<polygon fill="lightblue" stroke="white" points="1560.93,-1620 1314.93,-1620 1314.93,-1584 1560.93,-1584 1560.93,-1620"/>
<text text-anchor="middle" x="1437.93" y="-1598.3" font-family="Arial" font-size="14.00">_SsoUsersService_default_attributes_</text>
</g>
<!-- _SsoUsersService_new_user_&#45;&gt;_SsoUsersService_default_attributes_ -->
<g id="edge6" class="edge">
<title>_SsoUsersService_new_user_&#45;&gt;_SsoUsersService_default_attributes_</title>
<path fill="none" stroke="black" d="M740.73,-1979.82C858.08,-1916.39 1266.84,-1695.47 1397.47,-1624.87"/>
<polygon fill="black" stroke="black" points="1399.25,-1627.89 1406.38,-1620.05 1395.92,-1621.73 1399.25,-1627.89"/>
</g>
<!-- _SsoUsersService_new_user_&#45;&gt;_SsoUsersService_tracked_attributes_ -->
<g id="edge7" class="edge">
<title>_SsoUsersService_new_user_&#45;&gt;_SsoUsersService_tracked_attributes_</title>
<path fill="none" stroke="black" d="M709.15,-1979.82C709.94,-1917.98 712.62,-1706.47 713.58,-1630.47"/>
<polygon fill="black" stroke="black" points="717.09,-1630.32 713.71,-1620.27 710.09,-1630.23 717.09,-1630.32"/>
</g>
<!-- _SsoUsersService_default_attributes_&#45;&gt;_SsoUsersService_user_email_ -->
<g id="edge13" class="edge">
<title>_SsoUsersService_default_attributes_&#45;&gt;_SsoUsersService_user_email_</title>
<path fill="none" stroke="black" d="M1437.27,-1583.81C1432.85,-1475.19 1404.43,-873.55 1301.93,-396 1273.13,-261.82 1218.34,-106.68 1195.89,-45.63"/>
<polygon fill="black" stroke="black" points="1199.09,-44.17 1192.34,-36 1192.52,-46.6 1199.09,-44.17"/>
</g>
<!-- _SsoUsersService_generated_password_ -->
<g id="node10" class="node">
<title>_SsoUsersService_generated_password_</title>
<polygon fill="lightblue" stroke="white" points="1762.43,-1224 1493.43,-1224 1493.43,-1188 1762.43,-1188 1762.43,-1224"/>
<text text-anchor="middle" x="1627.93" y="-1202.3" font-family="Arial" font-size="14.00">_SsoUsersService_generated_password_</text>
</g>
<!-- _SsoUsersService_default_attributes_&#45;&gt;_SsoUsersService_generated_password_ -->
<g id="edge14" class="edge">
<title>_SsoUsersService_default_attributes_&#45;&gt;_SsoUsersService_generated_password_</title>
<path fill="none" stroke="black" d="M1446.22,-1583.82C1476.16,-1521.73 1578.88,-1308.73 1615.13,-1233.54"/>
<polygon fill="black" stroke="black" points="1618.41,-1234.8 1619.6,-1224.27 1612.11,-1231.76 1618.41,-1234.8"/>
</g>
<!-- _SsoUsersService_user_first_name_ -->
<g id="node11" class="node">
<title>_SsoUsersService_user_first_name_</title>
<polygon fill="lightblue" stroke="white" points="1106.93,-1224 866.93,-1224 866.93,-1188 1106.93,-1188 1106.93,-1224"/>
<text text-anchor="middle" x="986.93" y="-1202.3" font-family="Arial" font-size="14.00">_SsoUsersService_user_first_name_</text>
</g>
<!-- _SsoUsersService_tracked_attributes_&#45;&gt;_SsoUsersService_user_first_name_ -->
<g id="edge15" class="edge">
<title>_SsoUsersService_tracked_attributes_&#45;&gt;_SsoUsersService_user_first_name_</title>
<path fill="none" stroke="black" d="M725.84,-1583.82C769.03,-1521.48 917.65,-1306.99 969.18,-1232.63"/>
<polygon fill="black" stroke="black" points="972.15,-1234.49 974.96,-1224.27 966.39,-1230.5 972.15,-1234.49"/>
</g>
<!-- _SsoUsersService_user_last_name_ -->
<g id="node12" class="node">
<title>_SsoUsersService_user_last_name_</title>
<polygon fill="lightblue" stroke="white" points="1382.43,-1224 1143.43,-1224 1143.43,-1188 1382.43,-1188 1382.43,-1224"/>
<text text-anchor="middle" x="1262.93" y="-1202.3" font-family="Arial" font-size="14.00">_SsoUsersService_user_last_name_</text>
</g>
<!-- _SsoUsersService_tracked_attributes_&#45;&gt;_SsoUsersService_user_last_name_ -->
<g id="edge16" class="edge">
<title>_SsoUsersService_tracked_attributes_&#45;&gt;_SsoUsersService_user_last_name_</title>
<path fill="none" stroke="black" d="M737.88,-1583.82C825.81,-1520.71 1131.01,-1301.68 1230.97,-1229.94"/>
<polygon fill="black" stroke="black" points="1233.09,-1232.73 1239.17,-1224.05 1229.01,-1227.04 1233.09,-1232.73"/>
</g>
<!-- _SsoUsersService_attributes_map_ -->
<g id="node13" class="node">
<title>_SsoUsersService_attributes_map_</title>
<polygon fill="lightblue" stroke="white" points="830.43,-1224 597.43,-1224 597.43,-1188 830.43,-1188 830.43,-1224"/>
<text text-anchor="middle" x="713.93" y="-1202.3" font-family="Arial" font-size="14.00">_SsoUsersService_attributes_map_</text>
</g>
<!-- _SsoUsersService_tracked_attributes_&#45;&gt;_SsoUsersService_attributes_map_ -->
<g id="edge17" class="edge">
<title>_SsoUsersService_tracked_attributes_&#45;&gt;_SsoUsersService_attributes_map_</title>
<path fill="none" stroke="black" d="M713.93,-1583.82C713.93,-1521.98 713.93,-1310.47 713.93,-1234.47"/>
<polygon fill="black" stroke="black" points="717.43,-1234.27 713.93,-1224.27 710.43,-1234.27 717.43,-1234.27"/>
</g>
<!-- _SsoUsersService_check_activation_status_&#45;&gt;_SsoUsersService_existing_user_ -->
<g id="edge9" class="edge">
<title>_SsoUsersService_check_activation_status_&#45;&gt;_SsoUsersService_existing_user_</title>
<path fill="none" stroke="black" d="M416.68,-791.82C379.58,-729.6 252.09,-515.86 207.49,-441.08"/>
<polygon fill="black" stroke="black" points="210.36,-439.07 202.24,-432.27 204.35,-442.65 210.36,-439.07"/>
</g>
<!-- _SsoUsersService_user_first_name_&#45;&gt;_SsoUsersService_user_email_ -->
<g id="edge19" class="edge">
<title>_SsoUsersService_user_first_name_&#45;&gt;_SsoUsersService_user_email_</title>
<path fill="none" stroke="black" d="M988.67,-1187.95C994.6,-1131.25 1015.51,-944.05 1047.93,-792 1082.59,-629.48 1118.95,-595.45 1148.93,-432 1175.33,-288.13 1183.13,-112.46 1185.23,-46.11"/>
<polygon fill="black" stroke="black" points="1188.73,-46.17 1185.53,-36.07 1181.73,-45.96 1188.73,-46.17"/>
</g>
<!-- _SsoUsersService_sso_settings_ -->
<g id="node14" class="node">
<title>_SsoUsersService_sso_settings_</title>
<polygon fill="lightblue" stroke="white" points="1283.93,-828 1065.93,-828 1065.93,-792 1283.93,-792 1283.93,-828"/>
<text text-anchor="middle" x="1174.93" y="-806.3" font-family="Arial" font-size="14.00">_SsoUsersService_sso_settings_</text>
</g>
<!-- _SsoUsersService_user_first_name_&#45;&gt;_SsoUsersService_sso_settings_ -->
<g id="edge18" class="edge">
<title>_SsoUsersService_user_first_name_&#45;&gt;_SsoUsersService_sso_settings_</title>
<path fill="none" stroke="black" d="M995.13,-1187.82C1024.76,-1125.73 1126.39,-912.73 1162.27,-837.54"/>
<polygon fill="black" stroke="black" points="1165.54,-838.81 1166.69,-828.27 1159.23,-835.79 1165.54,-838.81"/>
</g>
<!-- _SsoUsersService_user_last_name_&#45;&gt;_SsoUsersService_user_email_ -->
<g id="edge21" class="edge">
<title>_SsoUsersService_user_last_name_&#45;&gt;_SsoUsersService_user_email_</title>
<path fill="none" stroke="black" d="M1265.36,-1187.76C1272.72,-1134.43 1294.75,-967.31 1301.93,-828 1317.91,-518.36 1222.09,-147.89 1193.69,-46.04"/>
<polygon fill="black" stroke="black" points="1197.02,-44.93 1190.94,-36.25 1190.28,-46.82 1197.02,-44.93"/>
</g>
<!-- _SsoUsersService_user_last_name_&#45;&gt;_SsoUsersService_sso_settings_ -->
<g id="edge20" class="edge">
<title>_SsoUsersService_user_last_name_&#45;&gt;_SsoUsersService_sso_settings_</title>
<path fill="none" stroke="black" d="M1259.1,-1187.82C1245.28,-1125.98 1198.04,-914.47 1181.07,-838.47"/>
<polygon fill="black" stroke="black" points="1184.39,-837.27 1178.79,-828.27 1177.56,-838.8 1184.39,-837.27"/>
</g>
<!-- _SsoUsersService_attributes_map_&#45;&gt;_SsoUsersService_sso_settings_ -->
<g id="edge22" class="edge">
<title>_SsoUsersService_attributes_map_&#45;&gt;_SsoUsersService_sso_settings_</title>
<path fill="none" stroke="black" d="M734.04,-1187.82C807.66,-1124.9 1062.61,-906.99 1147.33,-834.59"/>
<polygon fill="black" stroke="black" points="1149.65,-837.21 1154.98,-828.05 1145.11,-831.89 1149.65,-837.21"/>
</g>
<!-- _SsoUsersService_prepared_pair_ -->
<g id="node15" class="node">
<title>_SsoUsersService_prepared_pair_</title>
<polygon fill="lightblue" stroke="white" points="833.43,-828 606.43,-828 606.43,-792 833.43,-792 833.43,-828"/>
<text text-anchor="middle" x="719.93" y="-806.3" font-family="Arial" font-size="14.00">_SsoUsersService_prepared_pair_</text>
</g>
<!-- _SsoUsersService_attributes_map_&#45;&gt;_SsoUsersService_prepared_pair_ -->
<g id="edge23" class="edge">
<title>_SsoUsersService_attributes_map_&#45;&gt;_SsoUsersService_prepared_pair_</title>
<path fill="none" stroke="black" d="M714.19,-1187.82C715.14,-1125.98 718.36,-914.47 719.51,-838.47"/>
<polygon fill="black" stroke="black" points="723.02,-838.33 719.67,-828.27 716.02,-838.22 723.02,-838.33"/>
</g>
<!-- _SsoUsersService_prepared_pair_&#45;&gt;_SsoUsersService_existing_user_ -->
<g id="edge25" class="edge">
<title>_SsoUsersService_prepared_pair_&#45;&gt;_SsoUsersService_existing_user_</title>
<path fill="none" stroke="black" d="M696.91,-791.82C612.42,-728.77 319.4,-510.12 222.97,-438.16"/>
<polygon fill="black" stroke="black" points="224.89,-435.23 214.78,-432.05 220.71,-440.84 224.89,-435.23"/>
</g>
<!-- _SsoUsersService_parse_ -->
<g id="node16" class="node">
<title>_SsoUsersService_parse_</title>
<polygon fill="lightblue" stroke="white" points="1130.93,-432 954.93,-432 954.93,-396 1130.93,-396 1130.93,-432"/>
<text text-anchor="middle" x="1042.93" y="-410.3" font-family="Arial" font-size="14.00">_SsoUsersService_parse_</text>
</g>
<!-- _SsoUsersService_prepared_pair_&#45;&gt;_SsoUsersService_parse_ -->
<g id="edge24" class="edge">
<title>_SsoUsersService_prepared_pair_&#45;&gt;_SsoUsersService_parse_</title>
<path fill="none" stroke="black" d="M734.02,-791.82C785.23,-729.35 961.68,-514.12 1022.29,-440.18"/>
<polygon fill="black" stroke="black" points="1025.14,-442.23 1028.77,-432.27 1019.73,-437.79 1025.14,-442.23"/>
</g>
<!-- _SsoUsersService_find_or_create_groups_ -->
<g id="node17" class="node">
<title>_SsoUsersService_find_or_create_groups_</title>
<polygon fill="lightblue" stroke="white" points="616.93,-432 338.93,-432 338.93,-396 616.93,-396 616.93,-432"/>
<text text-anchor="middle" x="477.93" y="-410.3" font-family="Arial" font-size="14.00">_SsoUsersService_find_or_create_groups_</text>
</g>
<!-- _SsoUsersService_prepared_pair_&#45;&gt;_SsoUsersService_find_or_create_groups_ -->
<g id="edge26" class="edge">
<title>_SsoUsersService_prepared_pair_&#45;&gt;_SsoUsersService_find_or_create_groups_</title>
<path fill="none" stroke="black" d="M709.38,-791.82C671.17,-729.6 539.88,-515.86 493.95,-441.08"/>
<polygon fill="black" stroke="black" points="496.76,-438.96 488.54,-432.27 490.79,-442.63 496.76,-438.96"/>
</g>
<!-- _SsoUsersService_find_or_create_roles_ -->
<g id="node18" class="node">
<title>_SsoUsersService_find_or_create_roles_</title>
<polygon fill="lightblue" stroke="white" points="918.93,-432 652.93,-432 652.93,-396 918.93,-396 918.93,-432"/>
<text text-anchor="middle" x="785.93" y="-410.3" font-family="Arial" font-size="14.00">_SsoUsersService_find_or_create_roles_</text>
</g>
<!-- _SsoUsersService_prepared_pair_&#45;&gt;_SsoUsersService_find_or_create_roles_ -->
<g id="edge27" class="edge">
<title>_SsoUsersService_prepared_pair_&#45;&gt;_SsoUsersService_find_or_create_roles_</title>
<path fill="none" stroke="black" d="M722.81,-791.82C733.17,-729.98 768.6,-518.47 781.33,-442.47"/>
<polygon fill="black" stroke="black" points="784.84,-442.71 783.04,-432.27 777.94,-441.56 784.84,-442.71"/>
</g>
</g>
</svg>
