<?xml version="1.0" encoding="UTF-8" standalone="no"?>
<!DOCTYPE svg PUBLIC "-//W3C//DTD SVG 1.1//EN"
 "http://www.w3.org/Graphics/SVG/1.1/DTD/svg11.dtd">
<!-- Generated by graphviz version 2.43.0 (0)
 -->
<!-- Title: CallGraph Pages: 1 -->
<svg width="402pt" height="440pt"
 viewBox="0.00 0.00 401.50 440.00" xmlns="http://www.w3.org/2000/svg" xmlns:xlink="http://www.w3.org/1999/xlink">
<g id="graph0" class="graph" transform="scale(1 1) rotate(0) translate(4 436)">
<title>CallGraph</title>
<polygon fill="white" stroke="transparent" points="-4,4 -4,-436 397.5,-436 397.5,4 -4,4"/>
<!-- _TagsHelper_tags_labels_for_js_ -->
<g id="node1" class="node">
<title>_TagsHelper_tags_labels_for_js_</title>
<polygon fill="lightblue" stroke="white" points="292,-432 76,-432 76,-396 292,-396 292,-432"/>
<text text-anchor="middle" x="184" y="-410.3" font-family="Arial" font-size="14.00">_TagsHelper_tags_labels_for_js_</text>
</g>
<!-- _SearchController_all_ -->
<g id="node2" class="node">
<title>_SearchController_all_</title>
<polygon fill="lightblue" stroke="white" points="154,-36 0,-36 0,0 154,0 154,-36"/>
<text text-anchor="middle" x="77" y="-14.3" font-family="Arial" font-size="14.00">_SearchController_all_</text>
</g>
<!-- _TagsHelper_tags_labels_for_js_&#45;&gt;_SearchController_all_ -->
<g id="edge1" class="edge">
<title>_TagsHelper_tags_labels_for_js_&#45;&gt;_SearchController_all_</title>
<path fill="none" stroke="black" d="M179.33,-395.82C162.51,-333.86 104.86,-121.6 84.33,-46"/>
<polygon fill="black" stroke="black" points="87.69,-45.01 81.69,-36.27 80.93,-46.84 87.69,-45.01"/>
</g>
<!-- _TagsHelper_render_for_html_ -->
<g id="node3" class="node">
<title>_TagsHelper_render_for_html_</title>
<polygon fill="lightblue" stroke="white" points="393.5,-36 190.5,-36 190.5,0 393.5,0 393.5,-36"/>
<text text-anchor="middle" x="292" y="-14.3" font-family="Arial" font-size="14.00">_TagsHelper_render_for_html_</text>
</g>
<!-- _TagsHelper_tags_labels_for_js_&#45;&gt;_TagsHelper_render_for_html_ -->
<g id="edge2" class="edge">
<title>_TagsHelper_tags_labels_for_js_&#45;&gt;_TagsHelper_render_for_html_</title>
<path fill="none" stroke="black" d="M188.71,-395.82C205.69,-333.86 263.88,-121.6 284.6,-46"/>
<polygon fill="black" stroke="black" points="288,-46.84 287.27,-36.27 281.25,-44.99 288,-46.84"/>
</g>
</g>
</svg>
