<?xml version="1.0" encoding="UTF-8" standalone="no"?>
<!DOCTYPE svg PUBLIC "-//W3C//DTD SVG 1.1//EN"
 "http://www.w3.org/Graphics/SVG/1.1/DTD/svg11.dtd">
<!-- Generated by graphviz version 2.43.0 (0)
 -->
<!-- Title: CallGraph Pages: 1 -->
<svg width="1683pt" height="836pt"
 viewBox="0.00 0.00 1682.50 836.00" xmlns="http://www.w3.org/2000/svg" xmlns:xlink="http://www.w3.org/1999/xlink">
<g id="graph0" class="graph" transform="scale(1 1) rotate(0) translate(4 832)">
<title>CallGraph</title>
<polygon fill="white" stroke="transparent" points="-4,4 -4,-832 1678.5,-832 1678.5,4 -4,4"/>
<!-- _TasksHelper_task_message_ -->
<g id="node1" class="node">
<title>_TasksHelper_task_message_</title>
<polygon fill="lightblue" stroke="white" points="966,-828 765,-828 765,-792 966,-792 966,-828"/>
<text text-anchor="middle" x="865.5" y="-806.3" font-family="Arial" font-size="14.00">_TasksHelper_task_message_</text>
</g>
<!-- _TasksHelper_task_url_ -->
<g id="node2" class="node">
<title>_TasksHelper_task_url_</title>
<polygon fill="lightblue" stroke="white" points="193,-432 32,-432 32,-396 193,-396 193,-432"/>
<text text-anchor="middle" x="112.5" y="-410.3" font-family="Arial" font-size="14.00">_TasksHelper_task_url_</text>
</g>
<!-- _TasksHelper_task_message_&#45;&gt;_TasksHelper_task_url_ -->
<g id="edge1" class="edge">
<title>_TasksHelper_task_message_&#45;&gt;_TasksHelper_task_url_</title>
<path fill="none" stroke="black" d="M832.66,-791.82C711.44,-728.39 289.23,-507.47 154.3,-436.87"/>
<polygon fill="black" stroke="black" points="155.57,-433.59 145.09,-432.05 152.33,-439.79 155.57,-433.59"/>
</g>
<!-- _TasksHelper_task_i18n_scope_ -->
<g id="node3" class="node">
<title>_TasksHelper_task_i18n_scope_</title>
<polygon fill="lightblue" stroke="white" points="460,-432 245,-432 245,-396 460,-396 460,-432"/>
<text text-anchor="middle" x="352.5" y="-410.3" font-family="Arial" font-size="14.00">_TasksHelper_task_i18n_scope_</text>
</g>
<!-- _TasksHelper_task_message_&#45;&gt;_TasksHelper_task_i18n_scope_ -->
<g id="edge2" class="edge">
<title>_TasksHelper_task_message_&#45;&gt;_TasksHelper_task_i18n_scope_</title>
<path fill="none" stroke="black" d="M843.13,-791.82C761.04,-728.77 476.34,-510.12 382.65,-438.16"/>
<polygon fill="black" stroke="black" points="384.76,-435.37 374.7,-432.05 380.5,-440.92 384.76,-435.37"/>
</g>
<!-- _TasksHelper_task_i18n_taskable_ -->
<g id="node4" class="node">
<title>_TasksHelper_task_i18n_taskable_</title>
<polygon fill="lightblue" stroke="white" points="725,-432 496,-432 496,-396 725,-396 725,-432"/>
<text text-anchor="middle" x="610.5" y="-410.3" font-family="Arial" font-size="14.00">_TasksHelper_task_i18n_taskable_</text>
</g>
<!-- _TasksHelper_task_message_&#45;&gt;_TasksHelper_task_i18n_taskable_ -->
<g id="edge3" class="edge">
<title>_TasksHelper_task_message_&#45;&gt;_TasksHelper_task_i18n_taskable_</title>
<path fill="none" stroke="black" d="M854.38,-791.82C814.11,-729.6 675.78,-515.86 627.38,-441.08"/>
<polygon fill="black" stroke="black" points="630.05,-438.77 621.68,-432.27 624.17,-442.57 630.05,-438.77"/>
</g>
<!-- _TasksHelper_render_for_html_ -->
<g id="node5" class="node">
<title>_TasksHelper_render_for_html_</title>
<polygon fill="lightblue" stroke="white" points="970,-432 761,-432 761,-396 970,-396 970,-432"/>
<text text-anchor="middle" x="865.5" y="-410.3" font-family="Arial" font-size="14.00">_TasksHelper_render_for_html_</text>
</g>
<!-- _TasksHelper_task_message_&#45;&gt;_TasksHelper_render_for_html_ -->
<g id="edge4" class="edge">
<title>_TasksHelper_task_message_&#45;&gt;_TasksHelper_render_for_html_</title>
<path fill="none" stroke="black" d="M865.5,-791.82C865.5,-729.98 865.5,-518.47 865.5,-442.47"/>
<polygon fill="black" stroke="black" points="869,-442.27 865.5,-432.27 862,-442.27 869,-442.27"/>
</g>
<!-- _TasksHelper_entity_title_ -->
<g id="node6" class="node">
<title>_TasksHelper_entity_title_</title>
<polygon fill="lightblue" stroke="white" points="1180.5,-432 1006.5,-432 1006.5,-396 1180.5,-396 1180.5,-432"/>
<text text-anchor="middle" x="1093.5" y="-410.3" font-family="Arial" font-size="14.00">_TasksHelper_entity_title_</text>
</g>
<!-- _TasksHelper_task_message_&#45;&gt;_TasksHelper_entity_title_ -->
<g id="edge5" class="edge">
<title>_TasksHelper_task_message_&#45;&gt;_TasksHelper_entity_title_</title>
<path fill="none" stroke="black" d="M875.44,-791.82C911.44,-729.6 1035.13,-515.86 1078.41,-441.08"/>
<polygon fill="black" stroke="black" points="1081.52,-442.68 1083.5,-432.27 1075.47,-439.18 1081.52,-442.68"/>
</g>
<!-- _TasksHelper_task_highlight_date_ -->
<g id="node7" class="node">
<title>_TasksHelper_task_highlight_date_</title>
<polygon fill="lightblue" stroke="white" points="1446.5,-432 1216.5,-432 1216.5,-396 1446.5,-396 1446.5,-432"/>
<text text-anchor="middle" x="1331.5" y="-410.3" font-family="Arial" font-size="14.00">_TasksHelper_task_highlight_date_</text>
</g>
<!-- _TasksHelper_task_message_&#45;&gt;_TasksHelper_task_highlight_date_ -->
<g id="edge6" class="edge">
<title>_TasksHelper_task_message_&#45;&gt;_TasksHelper_task_highlight_date_</title>
<path fill="none" stroke="black" d="M885.82,-791.82C960.24,-728.9 1217.96,-510.99 1303.59,-438.59"/>
<polygon fill="black" stroke="black" points="1305.96,-441.18 1311.33,-432.05 1301.44,-435.84 1305.96,-441.18"/>
</g>
<!-- _TasksHelper_message_for_ -->
<g id="node8" class="node">
<title>_TasksHelper_message_for_</title>
<polygon fill="lightblue" stroke="white" points="1674.5,-432 1482.5,-432 1482.5,-396 1674.5,-396 1674.5,-432"/>
<text text-anchor="middle" x="1578.5" y="-410.3" font-family="Arial" font-size="14.00">_TasksHelper_message_for_</text>
</g>
<!-- _TasksHelper_task_message_&#45;&gt;_TasksHelper_message_for_ -->
<g id="edge7" class="edge">
<title>_TasksHelper_task_message_&#45;&gt;_TasksHelper_message_for_</title>
<path fill="none" stroke="black" d="M896.6,-791.82C1011.26,-728.46 1410.36,-507.91 1538.54,-437.08"/>
<polygon fill="black" stroke="black" points="1540.58,-439.95 1547.64,-432.05 1537.2,-433.82 1540.58,-439.95"/>
</g>
<!-- _TasksHelper_task_module_ -->
<g id="node9" class="node">
<title>_TasksHelper_task_module_</title>
<polygon fill="lightblue" stroke="white" points="191,-36 0,-36 0,0 191,0 191,-36"/>
<text text-anchor="middle" x="95.5" y="-14.3" font-family="Arial" font-size="14.00">_TasksHelper_task_module_</text>
</g>
<!-- _TasksHelper_task_url_&#45;&gt;_TasksHelper_task_module_ -->
<g id="edge8" class="edge">
<title>_TasksHelper_task_url_&#45;&gt;_TasksHelper_task_module_</title>
<path fill="none" stroke="black" d="M111.76,-395.82C109.09,-333.98 99.96,-122.47 96.69,-46.47"/>
<polygon fill="black" stroke="black" points="100.17,-46.11 96.25,-36.27 93.18,-46.42 100.17,-46.11"/>
</g>
<!-- _TasksHelper_audit_task_i18n_scope_ -->
<g id="node10" class="node">
<title>_TasksHelper_audit_task_i18n_scope_</title>
<polygon fill="lightblue" stroke="white" points="478,-36 227,-36 227,0 478,0 478,-36"/>
<text text-anchor="middle" x="352.5" y="-14.3" font-family="Arial" font-size="14.00">_TasksHelper_audit_task_i18n_scope_</text>
</g>
<!-- _TasksHelper_task_i18n_scope_&#45;&gt;_TasksHelper_audit_task_i18n_scope_ -->
<g id="edge9" class="edge">
<title>_TasksHelper_task_i18n_scope_&#45;&gt;_TasksHelper_audit_task_i18n_scope_</title>
<path fill="none" stroke="black" d="M352.5,-395.82C352.5,-333.98 352.5,-122.47 352.5,-46.47"/>
<polygon fill="black" stroke="black" points="356,-46.27 352.5,-36.27 349,-46.27 356,-46.27"/>
</g>
<!-- _TasksHelper_entity_confirmation_task_i18n_scope_ -->
<g id="node11" class="node">
<title>_TasksHelper_entity_confirmation_task_i18n_scope_</title>
<polygon fill="lightblue" stroke="white" points="850.5,-36 514.5,-36 514.5,0 850.5,0 850.5,-36"/>
<text text-anchor="middle" x="682.5" y="-14.3" font-family="Arial" font-size="14.00">_TasksHelper_entity_confirmation_task_i18n_scope_</text>
</g>
<!-- _TasksHelper_task_i18n_scope_&#45;&gt;_TasksHelper_entity_confirmation_task_i18n_scope_ -->
<g id="edge10" class="edge">
<title>_TasksHelper_task_i18n_scope_&#45;&gt;_TasksHelper_entity_confirmation_task_i18n_scope_</title>
<path fill="none" stroke="black" d="M366.89,-395.82C419.21,-333.35 599.48,-118.12 661.41,-44.18"/>
<polygon fill="black" stroke="black" points="664.29,-46.19 668.03,-36.27 658.93,-41.69 664.29,-46.19"/>
</g>
</g>
</svg>
