<?xml version="1.0" encoding="UTF-8" standalone="no"?>
<!DOCTYPE svg PUBLIC "-//W3C//DTD SVG 1.1//EN"
 "http://www.w3.org/Graphics/SVG/1.1/DTD/svg11.dtd">
<!-- Generated by graphviz version 2.43.0 (0)
 -->
<!-- Title: CallGraph Pages: 1 -->
<svg width="1300pt" height="1232pt"
 viewBox="0.00 0.00 1299.50 1232.00" xmlns="http://www.w3.org/2000/svg" xmlns:xlink="http://www.w3.org/1999/xlink">
<g id="graph0" class="graph" transform="scale(1 1) rotate(0) translate(4 1228)">
<title>CallGraph</title>
<polygon fill="white" stroke="transparent" points="-4,4 -4,-1228 1295.5,-1228 1295.5,4 -4,4"/>
<!-- _TasksController_index_ -->
<g id="node1" class="node">
<title>_TasksController_index_</title>
<polygon fill="lightblue" stroke="white" points="671.5,-1224 507.5,-1224 507.5,-1188 671.5,-1188 671.5,-1224"/>
<text text-anchor="middle" x="589.5" y="-1202.3" font-family="Arial" font-size="14.00">_TasksController_index_</text>
</g>
<!-- _TasksController_tasks_for_graph_ -->
<g id="node2" class="node">
<title>_TasksController_tasks_for_graph_</title>
<polygon fill="lightblue" stroke="white" points="229,-36 0,-36 0,0 229,0 229,-36"/>
<text text-anchor="middle" x="114.5" y="-14.3" font-family="Arial" font-size="14.00">_TasksController_tasks_for_graph_</text>
</g>
<!-- _TasksController_index_&#45;&gt;_TasksController_tasks_for_graph_ -->
<g id="edge1" class="edge">
<title>_TasksController_index_&#45;&gt;_TasksController_tasks_for_graph_</title>
<path fill="none" stroke="black" d="M567.29,-1187.89C505.83,-1139.19 332.86,-992.68 253.5,-828 117.72,-546.23 112.59,-152.95 113.89,-46.49"/>
<polygon fill="black" stroke="black" points="117.39,-46.33 114.05,-36.28 110.39,-46.22 117.39,-46.33"/>
</g>
<!-- _TasksController_tasks_for_document_ -->
<g id="node3" class="node">
<title>_TasksController_tasks_for_document_</title>
<polygon fill="lightblue" stroke="white" points="519.5,-36 265.5,-36 265.5,0 519.5,0 519.5,-36"/>
<text text-anchor="middle" x="392.5" y="-14.3" font-family="Arial" font-size="14.00">_TasksController_tasks_for_document_</text>
</g>
<!-- _TasksController_index_&#45;&gt;_TasksController_tasks_for_document_ -->
<g id="edge2" class="edge">
<title>_TasksController_index_&#45;&gt;_TasksController_tasks_for_document_</title>
<path fill="none" stroke="black" d="M588.16,-1187.8C581.28,-1101.89 548.03,-711.02 488.5,-396 463.37,-263 418.75,-107.2 400.56,-45.8"/>
<polygon fill="black" stroke="black" points="403.88,-44.7 397.68,-36.11 397.18,-46.7 403.88,-44.7"/>
</g>
<!-- _TasksController_tasks_for_event_ -->
<g id="node4" class="node">
<title>_TasksController_tasks_for_event_</title>
<polygon fill="lightblue" stroke="white" points="783,-36 556,-36 556,0 783,0 783,-36"/>
<text text-anchor="middle" x="669.5" y="-14.3" font-family="Arial" font-size="14.00">_TasksController_tasks_for_event_</text>
</g>
<!-- _TasksController_index_&#45;&gt;_TasksController_tasks_for_event_ -->
<g id="edge3" class="edge">
<title>_TasksController_index_&#45;&gt;_TasksController_tasks_for_event_</title>
<path fill="none" stroke="black" d="M590.66,-1187.78C599.54,-1056.2 656.56,-210.84 667.64,-46.62"/>
<polygon fill="black" stroke="black" points="671.15,-46.61 668.33,-36.39 664.16,-46.13 671.15,-46.61"/>
</g>
<!-- _TasksController_tasks_for_audit_ -->
<g id="node5" class="node">
<title>_TasksController_tasks_for_audit_</title>
<polygon fill="lightblue" stroke="white" points="1043.5,-36 819.5,-36 819.5,0 1043.5,0 1043.5,-36"/>
<text text-anchor="middle" x="931.5" y="-14.3" font-family="Arial" font-size="14.00">_TasksController_tasks_for_audit_</text>
</g>
<!-- _TasksController_index_&#45;&gt;_TasksController_tasks_for_audit_ -->
<g id="edge4" class="edge">
<title>_TasksController_index_&#45;&gt;_TasksController_tasks_for_audit_</title>
<path fill="none" stroke="black" d="M601,-1187.77C654.11,-1107.05 875.98,-756.61 947.5,-432 978.87,-289.62 950.36,-113.08 937.27,-46.3"/>
<polygon fill="black" stroke="black" points="940.64,-45.31 935.24,-36.19 933.77,-46.68 940.64,-45.31"/>
</g>
<!-- _TasksController_tasks_for_act_ -->
<g id="node6" class="node">
<title>_TasksController_tasks_for_act_</title>
<polygon fill="lightblue" stroke="white" points="1291.5,-36 1079.5,-36 1079.5,0 1291.5,0 1291.5,-36"/>
<text text-anchor="middle" x="1185.5" y="-14.3" font-family="Arial" font-size="14.00">_TasksController_tasks_for_act_</text>
</g>
<!-- _TasksController_index_&#45;&gt;_TasksController_tasks_for_act_ -->
<g id="edge5" class="edge">
<title>_TasksController_index_&#45;&gt;_TasksController_tasks_for_act_</title>
<path fill="none" stroke="black" d="M602.6,-1187.65C641.73,-1135.33 759.96,-973.68 838.5,-828 997.66,-532.77 1138.95,-149.18 1176.04,-45.69"/>
<polygon fill="black" stroke="black" points="1179.42,-46.63 1179.49,-36.04 1172.83,-44.28 1179.42,-46.63"/>
</g>
<!-- _TasksController_tasks_for_improver_ -->
<g id="node7" class="node">
<title>_TasksController_tasks_for_improver_</title>
<polygon fill="lightblue" stroke="white" points="929.5,-432 681.5,-432 681.5,-396 929.5,-396 929.5,-432"/>
<text text-anchor="middle" x="805.5" y="-410.3" font-family="Arial" font-size="14.00">_TasksController_tasks_for_improver_</text>
</g>
<!-- _TasksController_index_&#45;&gt;_TasksController_tasks_for_improver_ -->
<g id="edge6" class="edge">
<title>_TasksController_index_&#45;&gt;_TasksController_tasks_for_improver_</title>
<path fill="none" stroke="black" d="M594.21,-1187.77C621.97,-1086.25 764.08,-566.49 798.15,-441.88"/>
<polygon fill="black" stroke="black" points="801.59,-442.58 800.85,-432.01 794.84,-440.73 801.59,-442.58"/>
</g>
<!-- _TasksController_tasks_for_process_ -->
<g id="node8" class="node">
<title>_TasksController_tasks_for_process_</title>
<polygon fill="lightblue" stroke="white" points="470.5,-432 228.5,-432 228.5,-396 470.5,-396 470.5,-432"/>
<text text-anchor="middle" x="349.5" y="-410.3" font-family="Arial" font-size="14.00">_TasksController_tasks_for_process_</text>
</g>
<!-- _TasksController_index_&#45;&gt;_TasksController_tasks_for_process_ -->
<g id="edge7" class="edge">
<title>_TasksController_index_&#45;&gt;_TasksController_tasks_for_process_</title>
<path fill="none" stroke="black" d="M566.6,-1187.85C504.35,-1139.61 332.63,-995.28 271.5,-828 220.18,-687.55 301,-507.32 335.29,-440.99"/>
<polygon fill="black" stroke="black" points="338.44,-442.53 340,-432.05 332.24,-439.27 338.44,-442.53"/>
</g>
<!-- _TasksController_tasks_for_all_ -->
<g id="node9" class="node">
<title>_TasksController_tasks_for_all_</title>
<polygon fill="lightblue" stroke="white" points="497.5,-828 289.5,-828 289.5,-792 497.5,-792 497.5,-828"/>
<text text-anchor="middle" x="393.5" y="-806.3" font-family="Arial" font-size="14.00">_TasksController_tasks_for_all_</text>
</g>
<!-- _TasksController_index_&#45;&gt;_TasksController_tasks_for_all_ -->
<g id="edge8" class="edge">
<title>_TasksController_index_&#45;&gt;_TasksController_tasks_for_all_</title>
<path fill="none" stroke="black" d="M580.95,-1187.82C550.07,-1125.73 444.11,-912.73 406.7,-837.54"/>
<polygon fill="black" stroke="black" points="409.68,-835.67 402.09,-828.27 403.41,-838.79 409.68,-835.67"/>
</g>
<!-- _TasksController_tasks_for_improver_&#45;&gt;_TasksController_tasks_for_event_ -->
<g id="edge12" class="edge">
<title>_TasksController_tasks_for_improver_&#45;&gt;_TasksController_tasks_for_event_</title>
<path fill="none" stroke="black" d="M799.57,-395.82C778.18,-333.86 704.91,-121.6 678.82,-46"/>
<polygon fill="black" stroke="black" points="682.03,-44.58 675.46,-36.27 675.42,-46.87 682.03,-44.58"/>
</g>
<!-- _TasksController_tasks_for_improver_&#45;&gt;_TasksController_tasks_for_audit_ -->
<g id="edge13" class="edge">
<title>_TasksController_tasks_for_improver_&#45;&gt;_TasksController_tasks_for_audit_</title>
<path fill="none" stroke="black" d="M811,-395.82C830.81,-333.86 898.69,-121.6 922.86,-46"/>
<polygon fill="black" stroke="black" points="926.26,-46.86 925.98,-36.27 919.6,-44.73 926.26,-46.86"/>
</g>
<!-- _TasksController_tasks_for_improver_&#45;&gt;_TasksController_tasks_for_act_ -->
<g id="edge11" class="edge">
<title>_TasksController_tasks_for_improver_&#45;&gt;_TasksController_tasks_for_act_</title>
<path fill="none" stroke="black" d="M822.07,-395.82C882.44,-333.22 1090.75,-117.24 1161.65,-43.73"/>
<polygon fill="black" stroke="black" points="1164.42,-45.9 1168.84,-36.27 1159.38,-41.04 1164.42,-45.9"/>
</g>
<!-- _TasksController_tasks_for_process_&#45;&gt;_TasksController_tasks_for_graph_ -->
<g id="edge14" class="edge">
<title>_TasksController_tasks_for_process_&#45;&gt;_TasksController_tasks_for_graph_</title>
<path fill="none" stroke="black" d="M339.25,-395.82C302.14,-333.6 174.66,-119.86 130.06,-45.08"/>
<polygon fill="black" stroke="black" points="132.93,-43.07 124.8,-36.27 126.92,-46.65 132.93,-43.07"/>
</g>
<!-- _TasksController_tasks_for_process_&#45;&gt;_TasksController_tasks_for_document_ -->
<g id="edge15" class="edge">
<title>_TasksController_tasks_for_process_&#45;&gt;_TasksController_tasks_for_document_</title>
<path fill="none" stroke="black" d="M351.38,-395.82C358.12,-333.98 381.21,-122.47 389.5,-46.47"/>
<polygon fill="black" stroke="black" points="393.01,-46.59 390.61,-36.27 386.05,-45.83 393.01,-46.59"/>
</g>
<!-- _TasksController_tasks_for_all_&#45;&gt;_TasksController_tasks_for_improver_ -->
<g id="edge10" class="edge">
<title>_TasksController_tasks_for_all_&#45;&gt;_TasksController_tasks_for_improver_</title>
<path fill="none" stroke="black" d="M411.47,-791.82C477.05,-729.1 703.68,-512.37 780.11,-439.28"/>
<polygon fill="black" stroke="black" points="782.63,-441.71 787.44,-432.27 777.79,-436.66 782.63,-441.71"/>
</g>
<!-- _TasksController_tasks_for_all_&#45;&gt;_TasksController_tasks_for_process_ -->
<g id="edge9" class="edge">
<title>_TasksController_tasks_for_all_&#45;&gt;_TasksController_tasks_for_process_</title>
<path fill="none" stroke="black" d="M391.58,-791.82C384.68,-729.98 361.05,-518.47 352.57,-442.47"/>
<polygon fill="black" stroke="black" points="356.02,-441.82 351.43,-432.27 349.06,-442.6 356.02,-441.82"/>
</g>
</g>
</svg>
