<?xml version="1.0" encoding="UTF-8" standalone="no"?>
<!DOCTYPE svg PUBLIC "-//W3C//DTD SVG 1.1//EN"
 "http://www.w3.org/Graphics/SVG/1.1/DTD/svg11.dtd">
<!-- Generated by graphviz version 2.43.0 (0)
 -->
<!-- Title: CallGraph Pages: 1 -->
<svg width="992pt" height="440pt"
 viewBox="0.00 0.00 992.00 440.00" xmlns="http://www.w3.org/2000/svg" xmlns:xlink="http://www.w3.org/1999/xlink">
<g id="graph0" class="graph" transform="scale(1 1) rotate(0) translate(4 436)">
<title>CallGraph</title>
<polygon fill="white" stroke="transparent" points="-4,4 -4,-436 988,-436 988,4 -4,4"/>
<!-- _TransactionService -->
<g id="node1" class="node">
<title>_TransactionService</title>
<polygon fill="lightblue" stroke="white" points="140,-432 0,-432 0,-396 140,-396 140,-432"/>
<text text-anchor="middle" x="70" y="-410.3" font-family="Arial" font-size="14.00">_TransactionService</text>
</g>
<!-- _TransactionService_initiate_transaction_ -->
<g id="node2" class="node">
<title>_TransactionService_initiate_transaction_</title>
<polygon fill="lightblue" stroke="white" points="443.5,-432 176.5,-432 176.5,-396 443.5,-396 443.5,-432"/>
<text text-anchor="middle" x="310" y="-410.3" font-family="Arial" font-size="14.00">_TransactionService_initiate_transaction_</text>
</g>
<!-- _Buyer_find_buyer_ -->
<g id="node3" class="node">
<title>_Buyer_find_buyer_</title>
<polygon fill="lightblue" stroke="white" points="241.5,-36 104.5,-36 104.5,0 241.5,0 241.5,-36"/>
<text text-anchor="middle" x="173" y="-14.3" font-family="Arial" font-size="14.00">_Buyer_find_buyer_</text>
</g>
<!-- _TransactionService_initiate_transaction_&#45;&gt;_Buyer_find_buyer_ -->
<g id="edge1" class="edge">
<title>_TransactionService_initiate_transaction_&#45;&gt;_Buyer_find_buyer_</title>
<path fill="none" stroke="black" d="M304.03,-395.82C282.48,-333.86 208.68,-121.6 182.39,-46"/>
<polygon fill="black" stroke="black" points="185.6,-44.57 179.01,-36.27 178.98,-46.87 185.6,-44.57"/>
</g>
<!-- _TransactionManager_initiate_transaction_manager_ -->
<g id="node4" class="node">
<title>_TransactionManager_initiate_transaction_manager_</title>
<polygon fill="lightblue" stroke="white" points="616,-36 278,-36 278,0 616,0 616,-36"/>
<text text-anchor="middle" x="447" y="-14.3" font-family="Arial" font-size="14.00">_TransactionManager_initiate_transaction_manager_</text>
</g>
<!-- _TransactionService_initiate_transaction_&#45;&gt;_TransactionManager_initiate_transaction_manager_ -->
<g id="edge2" class="edge">
<title>_TransactionService_initiate_transaction_&#45;&gt;_TransactionManager_initiate_transaction_manager_</title>
<path fill="none" stroke="black" d="M315.97,-395.82C337.52,-333.86 411.32,-121.6 437.61,-46"/>
<polygon fill="black" stroke="black" points="441.02,-46.87 440.99,-36.27 434.4,-44.57 441.02,-46.87"/>
</g>
<!-- _TransactionService_process_payment_ -->
<g id="node5" class="node">
<title>_TransactionService_process_payment_</title>
<polygon fill="lightblue" stroke="white" points="949,-432 687,-432 687,-396 949,-396 949,-432"/>
<text text-anchor="middle" x="818" y="-410.3" font-family="Arial" font-size="14.00">_TransactionService_process_payment_</text>
</g>
<!-- _TransactionManager_process_payment_manager_ -->
<g id="node6" class="node">
<title>_TransactionManager_process_payment_manager_</title>
<polygon fill="lightblue" stroke="white" points="984,-36 652,-36 652,0 984,0 984,-36"/>
<text text-anchor="middle" x="818" y="-14.3" font-family="Arial" font-size="14.00">_TransactionManager_process_payment_manager_</text>
</g>
<!-- _TransactionService_process_payment_&#45;&gt;_TransactionManager_process_payment_manager_ -->
<g id="edge3" class="edge">
<title>_TransactionService_process_payment_&#45;&gt;_TransactionManager_process_payment_manager_</title>
<path fill="none" stroke="black" d="M818,-395.82C818,-333.98 818,-122.47 818,-46.47"/>
<polygon fill="black" stroke="black" points="821.5,-46.27 818,-36.27 814.5,-46.27 821.5,-46.27"/>
</g>
</g>
</svg>
