<?xml version="1.0" encoding="UTF-8" standalone="no"?>
<!DOCTYPE svg PUBLIC "-//W3C//DTD SVG 1.1//EN"
 "http://www.w3.org/Graphics/SVG/1.1/DTD/svg11.dtd">
<!-- Generated by graphviz version 2.43.0 (0)
 -->
<!-- Title: CallGraph Pages: 1 -->
<svg width="1275pt" height="1232pt"
 viewBox="0.00 0.00 1275.00 1232.00" xmlns="http://www.w3.org/2000/svg" xmlns:xlink="http://www.w3.org/1999/xlink">
<g id="graph0" class="graph" transform="scale(1 1) rotate(0) translate(4 1228)">
<title>CallGraph</title>
<polygon fill="white" stroke="transparent" points="-4,4 -4,-1228 1271,-1228 1271,4 -4,4"/>
<!-- _TransitionAnalyzer_analyze_event_ -->
<g id="node1" class="node">
<title>_TransitionAnalyzer_analyze_event_</title>
<polygon fill="lightblue" stroke="white" points="914,-1224 676,-1224 676,-1188 914,-1188 914,-1224"/>
<text text-anchor="middle" x="795" y="-1202.3" font-family="Arial" font-size="14.00">_TransitionAnalyzer_analyze_event_</text>
</g>
<!-- _TransitionAnalyzer_when_under_analysis_ -->
<g id="node2" class="node">
<title>_TransitionAnalyzer_when_under_analysis_</title>
<polygon fill="lightblue" stroke="white" points="935.5,-828 654.5,-828 654.5,-792 935.5,-792 935.5,-828"/>
<text text-anchor="middle" x="795" y="-806.3" font-family="Arial" font-size="14.00">_TransitionAnalyzer_when_under_analysis_</text>
</g>
<!-- _TransitionAnalyzer_analyze_event_&#45;&gt;_TransitionAnalyzer_when_under_analysis_ -->
<g id="edge1" class="edge">
<title>_TransitionAnalyzer_analyze_event_&#45;&gt;_TransitionAnalyzer_when_under_analysis_</title>
<path fill="none" stroke="black" d="M795,-1187.82C795,-1125.98 795,-914.47 795,-838.47"/>
<polygon fill="black" stroke="black" points="798.5,-838.27 795,-828.27 791.5,-838.27 798.5,-838.27"/>
</g>
<!-- _TransitionAnalyzer_check_start_processing_ -->
<g id="node3" class="node">
<title>_TransitionAnalyzer_check_start_processing_</title>
<polygon fill="lightblue" stroke="white" points="603.5,-432 310.5,-432 310.5,-396 603.5,-396 603.5,-432"/>
<text text-anchor="middle" x="457" y="-410.3" font-family="Arial" font-size="14.00">_TransitionAnalyzer_check_start_processing_</text>
</g>
<!-- _TransitionAnalyzer_when_under_analysis_&#45;&gt;_TransitionAnalyzer_check_start_processing_ -->
<g id="edge2" class="edge">
<title>_TransitionAnalyzer_when_under_analysis_&#45;&gt;_TransitionAnalyzer_check_start_processing_</title>
<path fill="none" stroke="black" d="M780.26,-791.82C726.67,-729.35 542.03,-514.12 478.6,-440.18"/>
<polygon fill="black" stroke="black" points="480.99,-437.58 471.82,-432.27 475.67,-442.14 480.99,-437.58"/>
</g>
<!-- _TransitionAnalyzer_check_close_event_ -->
<g id="node4" class="node">
<title>_TransitionAnalyzer_check_close_event_</title>
<polygon fill="lightblue" stroke="white" points="1267,-432 1001,-432 1001,-396 1267,-396 1267,-432"/>
<text text-anchor="middle" x="1134" y="-410.3" font-family="Arial" font-size="14.00">_TransitionAnalyzer_check_close_event_</text>
</g>
<!-- _TransitionAnalyzer_when_under_analysis_&#45;&gt;_TransitionAnalyzer_check_close_event_ -->
<g id="edge3" class="edge">
<title>_TransitionAnalyzer_when_under_analysis_&#45;&gt;_TransitionAnalyzer_check_close_event_</title>
<path fill="none" stroke="black" d="M809.78,-791.82C863.53,-729.35 1048.72,-514.12 1112.34,-440.18"/>
<polygon fill="black" stroke="black" points="1115.27,-442.14 1119.14,-432.27 1109.96,-437.57 1115.27,-442.14"/>
</g>
<!-- _TransitionAnalyzer_actions_ -->
<g id="node7" class="node">
<title>_TransitionAnalyzer_actions_</title>
<polygon fill="lightblue" stroke="white" points="349,-36 155,-36 155,0 349,0 349,-36"/>
<text text-anchor="middle" x="252" y="-14.3" font-family="Arial" font-size="14.00">_TransitionAnalyzer_actions_</text>
</g>
<!-- _TransitionAnalyzer_check_start_processing_&#45;&gt;_TransitionAnalyzer_actions_ -->
<g id="edge9" class="edge">
<title>_TransitionAnalyzer_check_start_processing_&#45;&gt;_TransitionAnalyzer_actions_</title>
<path fill="none" stroke="black" d="M448.06,-395.82C415.76,-333.73 304.93,-120.73 265.81,-45.54"/>
<polygon fill="black" stroke="black" points="268.71,-43.53 260.99,-36.27 262.5,-46.76 268.71,-43.53"/>
</g>
<!-- _TransitionAnalyzer_no_cim_mode_ -->
<g id="node10" class="node">
<title>_TransitionAnalyzer_no_cim_mode_</title>
<polygon fill="lightblue" stroke="white" points="960.5,-36 723.5,-36 723.5,0 960.5,0 960.5,-36"/>
<text text-anchor="middle" x="842" y="-14.3" font-family="Arial" font-size="14.00">_TransitionAnalyzer_no_cim_mode_</text>
</g>
<!-- _TransitionAnalyzer_check_start_processing_&#45;&gt;_TransitionAnalyzer_no_cim_mode_ -->
<g id="edge8" class="edge">
<title>_TransitionAnalyzer_check_start_processing_&#45;&gt;_TransitionAnalyzer_no_cim_mode_</title>
<path fill="none" stroke="black" d="M473.79,-395.82C534.95,-333.22 746,-117.24 817.84,-43.73"/>
<polygon fill="black" stroke="black" points="820.64,-45.87 825.12,-36.27 815.63,-40.98 820.64,-45.87"/>
</g>
<!-- _TransitionAnalyzer_no_actions_ -->
<g id="node9" class="node">
<title>_TransitionAnalyzer_no_actions_</title>
<polygon fill="lightblue" stroke="white" points="1227,-36 1011,-36 1011,0 1227,0 1227,-36"/>
<text text-anchor="middle" x="1119" y="-14.3" font-family="Arial" font-size="14.00">_TransitionAnalyzer_no_actions_</text>
</g>
<!-- _TransitionAnalyzer_check_close_event_&#45;&gt;_TransitionAnalyzer_no_actions_ -->
<g id="edge11" class="edge">
<title>_TransitionAnalyzer_check_close_event_&#45;&gt;_TransitionAnalyzer_no_actions_</title>
<path fill="none" stroke="black" d="M1133.35,-395.82C1130.99,-333.98 1122.94,-122.47 1120.05,-46.47"/>
<polygon fill="black" stroke="black" points="1123.54,-46.13 1119.66,-36.27 1116.54,-46.4 1123.54,-46.13"/>
</g>
<!-- _TransitionAnalyzer_check_close_event_&#45;&gt;_TransitionAnalyzer_no_cim_mode_ -->
<g id="edge10" class="edge">
<title>_TransitionAnalyzer_check_close_event_&#45;&gt;_TransitionAnalyzer_no_cim_mode_</title>
<path fill="none" stroke="black" d="M1121.27,-395.82C1075.06,-333.48 916.1,-118.99 860.99,-44.63"/>
<polygon fill="black" stroke="black" points="863.57,-42.22 854.8,-36.27 857.94,-46.39 863.57,-42.22"/>
</g>
<!-- _TransitionAnalyzer_check_ask_approval_ -->
<g id="node5" class="node">
<title>_TransitionAnalyzer_check_ask_approval_</title>
<polygon fill="lightblue" stroke="white" points="274,-432 0,-432 0,-396 274,-396 274,-432"/>
<text text-anchor="middle" x="137" y="-410.3" font-family="Arial" font-size="14.00">_TransitionAnalyzer_check_ask_approval_</text>
</g>
<!-- _TransitionAnalyzer_cim_mode_ -->
<g id="node6" class="node">
<title>_TransitionAnalyzer_cim_mode_</title>
<polygon fill="lightblue" stroke="white" points="658.5,-36 443.5,-36 443.5,0 658.5,0 658.5,-36"/>
<text text-anchor="middle" x="551" y="-14.3" font-family="Arial" font-size="14.00">_TransitionAnalyzer_cim_mode_</text>
</g>
<!-- _TransitionAnalyzer_check_ask_approval_&#45;&gt;_TransitionAnalyzer_cim_mode_ -->
<g id="edge4" class="edge">
<title>_TransitionAnalyzer_check_ask_approval_&#45;&gt;_TransitionAnalyzer_cim_mode_</title>
<path fill="none" stroke="black" d="M155.06,-395.82C220.96,-333.1 448.69,-116.37 525.48,-43.28"/>
<polygon fill="black" stroke="black" points="528.02,-45.7 532.85,-36.27 523.19,-40.63 528.02,-45.7"/>
</g>
<!-- _TransitionAnalyzer_check_ask_approval_&#45;&gt;_TransitionAnalyzer_actions_ -->
<g id="edge5" class="edge">
<title>_TransitionAnalyzer_check_ask_approval_&#45;&gt;_TransitionAnalyzer_actions_</title>
<path fill="none" stroke="black" d="M142.02,-395.82C160.1,-333.86 222.05,-121.6 244.12,-46"/>
<polygon fill="black" stroke="black" points="247.52,-46.85 246.96,-36.27 240.8,-44.89 247.52,-46.85"/>
</g>
<!-- _TransitionAnalyzer_check_ask_closure_approval_ -->
<g id="node8" class="node">
<title>_TransitionAnalyzer_check_ask_closure_approval_</title>
<polygon fill="lightblue" stroke="white" points="964.5,-432 639.5,-432 639.5,-396 964.5,-396 964.5,-432"/>
<text text-anchor="middle" x="802" y="-410.3" font-family="Arial" font-size="14.00">_TransitionAnalyzer_check_ask_closure_approval_</text>
</g>
<!-- _TransitionAnalyzer_check_ask_closure_approval_&#45;&gt;_TransitionAnalyzer_cim_mode_ -->
<g id="edge6" class="edge">
<title>_TransitionAnalyzer_check_ask_closure_approval_&#45;&gt;_TransitionAnalyzer_cim_mode_</title>
<path fill="none" stroke="black" d="M791.05,-395.82C751.42,-333.6 615.25,-119.86 567.62,-45.08"/>
<polygon fill="black" stroke="black" points="570.33,-42.83 562,-36.27 564.43,-46.59 570.33,-42.83"/>
</g>
<!-- _TransitionAnalyzer_check_ask_closure_approval_&#45;&gt;_TransitionAnalyzer_no_actions_ -->
<g id="edge7" class="edge">
<title>_TransitionAnalyzer_check_ask_closure_approval_&#45;&gt;_TransitionAnalyzer_no_actions_</title>
<path fill="none" stroke="black" d="M815.82,-395.82C866.08,-333.35 1039.25,-118.12 1098.74,-44.18"/>
<polygon fill="black" stroke="black" points="1101.56,-46.26 1105.1,-36.27 1096.11,-41.87 1101.56,-46.26"/>
</g>
</g>
</svg>
