<?xml version="1.0" encoding="UTF-8" standalone="no"?>
<!DOCTYPE svg PUBLIC "-//W3C//DTD SVG 1.1//EN"
 "http://www.w3.org/Graphics/SVG/1.1/DTD/svg11.dtd">
<!-- Generated by graphviz version 2.43.0 (0)
 -->
<!-- Title: CallGraph Pages: 1 -->
<svg width="2579pt" height="440pt"
 viewBox="0.00 0.00 2579.00 440.00" xmlns="http://www.w3.org/2000/svg" xmlns:xlink="http://www.w3.org/1999/xlink">
<g id="graph0" class="graph" transform="scale(1 1) rotate(0) translate(4 436)">
<title>CallGraph</title>
<polygon fill="white" stroke="transparent" points="-4,4 -4,-436 2575,-436 2575,4 -4,4"/>
<!-- _UsersController_index_ -->
<g id="node1" class="node">
<title>_UsersController_index_</title>
<polygon fill="lightblue" stroke="white" points="209,-432 44,-432 44,-396 209,-396 209,-432"/>
<text text-anchor="middle" x="126.5" y="-410.3" font-family="Arial" font-size="14.00">_UsersController_index_</text>
</g>
<!-- _UsersController_generate_file_name_ -->
<g id="node2" class="node">
<title>_UsersController_generate_file_name_</title>
<polygon fill="lightblue" stroke="white" points="253,-36 0,-36 0,0 253,0 253,-36"/>
<text text-anchor="middle" x="126.5" y="-14.3" font-family="Arial" font-size="14.00">_UsersController_generate_file_name_</text>
</g>
<!-- _UsersController_index_&#45;&gt;_UsersController_generate_file_name_ -->
<g id="edge1" class="edge">
<title>_UsersController_index_&#45;&gt;_UsersController_generate_file_name_</title>
<path fill="none" stroke="black" d="M126.5,-395.82C126.5,-333.98 126.5,-122.47 126.5,-46.47"/>
<polygon fill="black" stroke="black" points="130,-46.27 126.5,-36.27 123,-46.27 130,-46.27"/>
</g>
<!-- _UsersController_create_random_ -->
<g id="node3" class="node">
<title>_UsersController_create_random_</title>
<polygon fill="lightblue" stroke="white" points="987.5,-432 763.5,-432 763.5,-396 987.5,-396 987.5,-432"/>
<text text-anchor="middle" x="875.5" y="-410.3" font-family="Arial" font-size="14.00">_UsersController_create_random_</text>
</g>
<!-- _ExternalUsersService_parse_ -->
<g id="node4" class="node">
<title>_ExternalUsersService_parse_</title>
<polygon fill="lightblue" stroke="white" points="719,-36 516,-36 516,0 719,0 719,-36"/>
<text text-anchor="middle" x="617.5" y="-14.3" font-family="Arial" font-size="14.00">_ExternalUsersService_parse_</text>
</g>
<!-- _UsersController_create_random_&#45;&gt;_ExternalUsersService_parse_ -->
<g id="edge2" class="edge">
<title>_UsersController_create_random_&#45;&gt;_ExternalUsersService_parse_</title>
<path fill="none" stroke="black" d="M864.25,-395.82C823.51,-333.6 683.55,-119.86 634.58,-45.08"/>
<polygon fill="black" stroke="black" points="637.22,-42.72 628.81,-36.27 631.36,-46.56 637.22,-42.72"/>
</g>
<!-- _SsoUsersService_parse_ -->
<g id="node5" class="node">
<title>_SsoUsersService_parse_</title>
<polygon fill="lightblue" stroke="white" points="942.5,-36 766.5,-36 766.5,0 942.5,0 942.5,-36"/>
<text text-anchor="middle" x="854.5" y="-14.3" font-family="Arial" font-size="14.00">_SsoUsersService_parse_</text>
</g>
<!-- _UsersController_create_random_&#45;&gt;_SsoUsersService_parse_ -->
<g id="edge3" class="edge">
<title>_UsersController_create_random_&#45;&gt;_SsoUsersService_parse_</title>
<path fill="none" stroke="black" d="M874.58,-395.82C871.29,-333.98 860.01,-122.47 855.96,-46.47"/>
<polygon fill="black" stroke="black" points="859.45,-46.07 855.42,-36.27 852.46,-46.45 859.45,-46.07"/>
</g>
<!-- _UsersController_search_ -->
<g id="node6" class="node">
<title>_UsersController_search_</title>
<polygon fill="lightblue" stroke="white" points="1456,-432 1283,-432 1283,-396 1456,-396 1456,-432"/>
<text text-anchor="middle" x="1369.5" y="-410.3" font-family="Arial" font-size="14.00">_UsersController_search_</text>
</g>
<!-- _ActorsController_reject_ -->
<g id="node7" class="node">
<title>_ActorsController_reject_</title>
<polygon fill="lightblue" stroke="white" points="1454,-36 1285,-36 1285,0 1454,0 1454,-36"/>
<text text-anchor="middle" x="1369.5" y="-14.3" font-family="Arial" font-size="14.00">_ActorsController_reject_</text>
</g>
<!-- _UsersController_search_&#45;&gt;_ActorsController_reject_ -->
<g id="edge4" class="edge">
<title>_UsersController_search_&#45;&gt;_ActorsController_reject_</title>
<path fill="none" stroke="black" d="M1369.5,-395.82C1369.5,-333.98 1369.5,-122.47 1369.5,-46.47"/>
<polygon fill="black" stroke="black" points="1373,-46.27 1369.5,-36.27 1366,-46.27 1373,-46.27"/>
</g>
<!-- _UsersController_update_groups_ -->
<g id="node8" class="node">
<title>_UsersController_update_groups_</title>
<polygon fill="lightblue" stroke="white" points="1247,-432 1024,-432 1024,-396 1247,-396 1247,-432"/>
<text text-anchor="middle" x="1135.5" y="-410.3" font-family="Arial" font-size="14.00">_UsersController_update_groups_</text>
</g>
<!-- _UsersController_update_groups_&#45;&gt;_ExternalUsersService_parse_ -->
<g id="edge5" class="edge">
<title>_UsersController_update_groups_&#45;&gt;_ExternalUsersService_parse_</title>
<path fill="none" stroke="black" d="M1112.91,-395.82C1030.02,-332.77 742.55,-114.12 647.95,-42.16"/>
<polygon fill="black" stroke="black" points="650,-39.32 639.92,-36.05 645.76,-44.89 650,-39.32"/>
</g>
<!-- _UsersController_update_groups_&#45;&gt;_SsoUsersService_parse_ -->
<g id="edge6" class="edge">
<title>_UsersController_update_groups_&#45;&gt;_SsoUsersService_parse_</title>
<path fill="none" stroke="black" d="M1123.25,-395.82C1078.78,-333.48 925.81,-118.99 872.78,-44.63"/>
<polygon fill="black" stroke="black" points="875.48,-42.38 866.82,-36.27 869.78,-46.45 875.48,-42.38"/>
</g>
<!-- _UsersController_link_roles_ -->
<g id="node9" class="node">
<title>_UsersController_link_roles_</title>
<polygon fill="lightblue" stroke="white" points="1697.5,-432 1507.5,-432 1507.5,-396 1697.5,-396 1697.5,-432"/>
<text text-anchor="middle" x="1602.5" y="-410.3" font-family="Arial" font-size="14.00">_UsersController_link_roles_</text>
</g>
<!-- _UsersController_fill_errors_hash_ -->
<g id="node10" class="node">
<title>_UsersController_fill_errors_hash_</title>
<polygon fill="lightblue" stroke="white" points="1715,-36 1490,-36 1490,0 1715,0 1715,-36"/>
<text text-anchor="middle" x="1602.5" y="-14.3" font-family="Arial" font-size="14.00">_UsersController_fill_errors_hash_</text>
</g>
<!-- _UsersController_link_roles_&#45;&gt;_UsersController_fill_errors_hash_ -->
<g id="edge7" class="edge">
<title>_UsersController_link_roles_&#45;&gt;_UsersController_fill_errors_hash_</title>
<path fill="none" stroke="black" d="M1602.5,-395.82C1602.5,-333.98 1602.5,-122.47 1602.5,-46.47"/>
<polygon fill="black" stroke="black" points="1606,-46.27 1602.5,-36.27 1599,-46.27 1606,-46.27"/>
</g>
<!-- _UsersController_unlink_roles_ -->
<g id="node11" class="node">
<title>_UsersController_unlink_roles_</title>
<polygon fill="lightblue" stroke="white" points="450,-432 245,-432 245,-396 450,-396 450,-432"/>
<text text-anchor="middle" x="347.5" y="-410.3" font-family="Arial" font-size="14.00">_UsersController_unlink_roles_</text>
</g>
<!-- _UsersController_unlink_roles_&#45;&gt;_ExternalUsersService_parse_ -->
<g id="edge8" class="edge">
<title>_UsersController_unlink_roles_&#45;&gt;_ExternalUsersService_parse_</title>
<path fill="none" stroke="black" d="M359.28,-395.82C401.99,-333.48 548.98,-118.99 599.94,-44.63"/>
<polygon fill="black" stroke="black" points="602.9,-46.5 605.66,-36.27 597.12,-42.54 602.9,-46.5"/>
</g>
<!-- _UsersController_unlink_roles_&#45;&gt;_SsoUsersService_parse_ -->
<g id="edge9" class="edge">
<title>_UsersController_unlink_roles_&#45;&gt;_SsoUsersService_parse_</title>
<path fill="none" stroke="black" d="M369.61,-395.82C450.66,-332.84 731.54,-114.56 824.42,-42.38"/>
<polygon fill="black" stroke="black" points="826.81,-44.95 832.56,-36.05 822.51,-39.42 826.81,-44.95"/>
</g>
<!-- _UsersController_list_linked_graphs_ -->
<g id="node12" class="node">
<title>_UsersController_list_linked_graphs_</title>
<polygon fill="lightblue" stroke="white" points="727,-432 486,-432 486,-396 727,-396 727,-432"/>
<text text-anchor="middle" x="606.5" y="-410.3" font-family="Arial" font-size="14.00">_UsersController_list_linked_graphs_</text>
</g>
<!-- _UsersController_list_linked_graphs_&#45;&gt;_ExternalUsersService_parse_ -->
<g id="edge10" class="edge">
<title>_UsersController_list_linked_graphs_&#45;&gt;_ExternalUsersService_parse_</title>
<path fill="none" stroke="black" d="M606.98,-395.82C608.71,-333.98 614.61,-122.47 616.73,-46.47"/>
<polygon fill="black" stroke="black" points="620.24,-46.37 617.02,-36.27 613.24,-46.17 620.24,-46.37"/>
</g>
<!-- _UsersController_list_linked_graphs_&#45;&gt;_SsoUsersService_parse_ -->
<g id="edge11" class="edge">
<title>_UsersController_list_linked_graphs_&#45;&gt;_SsoUsersService_parse_</title>
<path fill="none" stroke="black" d="M617.32,-395.82C656.47,-333.6 791.01,-119.86 838.08,-45.08"/>
<polygon fill="black" stroke="black" points="841.26,-46.6 843.63,-36.27 835.34,-42.87 841.26,-46.6"/>
</g>
<!-- _UsersController_update_avatar_ -->
<g id="node13" class="node">
<title>_UsersController_update_avatar_</title>
<polygon fill="lightblue" stroke="white" points="1967,-432 1748,-432 1748,-396 1967,-396 1967,-432"/>
<text text-anchor="middle" x="1857.5" y="-410.3" font-family="Arial" font-size="14.00">_UsersController_update_avatar_</text>
</g>
<!-- _UsersController_user_params_ -->
<g id="node14" class="node">
<title>_UsersController_user_params_</title>
<polygon fill="lightblue" stroke="white" points="1963.5,-36 1751.5,-36 1751.5,0 1963.5,0 1963.5,-36"/>
<text text-anchor="middle" x="1857.5" y="-14.3" font-family="Arial" font-size="14.00">_UsersController_user_params_</text>
</g>
<!-- _UsersController_update_avatar_&#45;&gt;_UsersController_user_params_ -->
<g id="edge12" class="edge">
<title>_UsersController_update_avatar_&#45;&gt;_UsersController_user_params_</title>
<path fill="none" stroke="black" d="M1857.5,-395.82C1857.5,-333.98 1857.5,-122.47 1857.5,-46.47"/>
<polygon fill="black" stroke="black" points="1861,-46.27 1857.5,-36.27 1854,-46.27 1861,-46.27"/>
</g>
<!-- _UsersController_update_metadata_ -->
<g id="node15" class="node">
<title>_UsersController_update_metadata_</title>
<polygon fill="lightblue" stroke="white" points="2252,-432 2013,-432 2013,-396 2252,-396 2252,-432"/>
<text text-anchor="middle" x="2132.5" y="-410.3" font-family="Arial" font-size="14.00">_UsersController_update_metadata_</text>
</g>
<!-- _UsersController_general_user_params_ -->
<g id="node16" class="node">
<title>_UsersController_general_user_params_</title>
<polygon fill="lightblue" stroke="white" points="2265,-36 2000,-36 2000,0 2265,0 2265,-36"/>
<text text-anchor="middle" x="2132.5" y="-14.3" font-family="Arial" font-size="14.00">_UsersController_general_user_params_</text>
</g>
<!-- _UsersController_update_metadata_&#45;&gt;_UsersController_general_user_params_ -->
<g id="edge13" class="edge">
<title>_UsersController_update_metadata_&#45;&gt;_UsersController_general_user_params_</title>
<path fill="none" stroke="black" d="M2132.5,-395.82C2132.5,-333.98 2132.5,-122.47 2132.5,-46.47"/>
<polygon fill="black" stroke="black" points="2136,-46.27 2132.5,-36.27 2129,-46.27 2136,-46.27"/>
</g>
<!-- _UsersController_list_role_add_definition_ -->
<g id="node17" class="node">
<title>_UsersController_list_role_add_definition_</title>
<polygon fill="lightblue" stroke="white" points="2571,-432 2300,-432 2300,-396 2571,-396 2571,-432"/>
<text text-anchor="middle" x="2435.5" y="-410.3" font-family="Arial" font-size="14.00">_UsersController_list_role_add_definition_</text>
</g>
<!-- _UsersController_list_link_role_definition_ -->
<g id="node18" class="node">
<title>_UsersController_list_link_role_definition_</title>
<polygon fill="lightblue" stroke="white" points="2570,-36 2301,-36 2301,0 2570,0 2570,-36"/>
<text text-anchor="middle" x="2435.5" y="-14.3" font-family="Arial" font-size="14.00">_UsersController_list_link_role_definition_</text>
</g>
<!-- _UsersController_list_role_add_definition_&#45;&gt;_UsersController_list_link_role_definition_ -->
<g id="edge14" class="edge">
<title>_UsersController_list_role_add_definition_&#45;&gt;_UsersController_list_link_role_definition_</title>
<path fill="none" stroke="black" d="M2435.5,-395.82C2435.5,-333.98 2435.5,-122.47 2435.5,-46.47"/>
<polygon fill="black" stroke="black" points="2439,-46.27 2435.5,-36.27 2432,-46.27 2439,-46.27"/>
</g>
</g>
</svg>
