<?xml version="1.0" encoding="UTF-8" standalone="no"?>
<!DOCTYPE svg PUBLIC "-//W3C//DTD SVG 1.1//EN"
 "http://www.w3.org/Graphics/SVG/1.1/DTD/svg11.dtd">
<!-- Generated by graphviz version 2.43.0 (0)
 -->
<!-- Title: CallGraph Pages: 1 -->
<svg width="2284pt" height="440pt"
 viewBox="0.00 0.00 2284.00 440.00" xmlns="http://www.w3.org/2000/svg" xmlns:xlink="http://www.w3.org/1999/xlink">
<g id="graph0" class="graph" transform="scale(1 1) rotate(0) translate(4 436)">
<title>CallGraph</title>
<polygon fill="white" stroke="transparent" points="-4,4 -4,-436 2280,-436 2280,4 -4,4"/>
<!-- _UsersHelper_humanize_user_mail_weekly_day_ -->
<g id="node1" class="node">
<title>_UsersHelper_humanize_user_mail_weekly_day_</title>
<polygon fill="lightblue" stroke="white" points="321.5,-432 3.5,-432 3.5,-396 321.5,-396 321.5,-432"/>
<text text-anchor="middle" x="162.5" y="-410.3" font-family="Arial" font-size="14.00">_UsersHelper_humanize_user_mail_weekly_day_</text>
</g>
<!-- _UsersHelper_humanize_user_mail_weekly_days_ -->
<g id="node2" class="node">
<title>_UsersHelper_humanize_user_mail_weekly_days_</title>
<polygon fill="lightblue" stroke="white" points="325,-36 0,-36 0,0 325,0 325,-36"/>
<text text-anchor="middle" x="162.5" y="-14.3" font-family="Arial" font-size="14.00">_UsersHelper_humanize_user_mail_weekly_days_</text>
</g>
<!-- _UsersHelper_humanize_user_mail_weekly_day_&#45;&gt;_UsersHelper_humanize_user_mail_weekly_days_ -->
<g id="edge1" class="edge">
<title>_UsersHelper_humanize_user_mail_weekly_day_&#45;&gt;_UsersHelper_humanize_user_mail_weekly_days_</title>
<path fill="none" stroke="black" d="M162.5,-395.82C162.5,-333.98 162.5,-122.47 162.5,-46.47"/>
<polygon fill="black" stroke="black" points="166,-46.27 162.5,-36.27 159,-46.27 166,-46.27"/>
</g>
<!-- _UsersHelper_humanize_user_mail_locale_hour_ -->
<g id="node3" class="node">
<title>_UsersHelper_humanize_user_mail_locale_hour_</title>
<polygon fill="lightblue" stroke="white" points="682,-432 365,-432 365,-396 682,-396 682,-432"/>
<text text-anchor="middle" x="523.5" y="-410.3" font-family="Arial" font-size="14.00">_UsersHelper_humanize_user_mail_locale_hour_</text>
</g>
<!-- _UsersHelper_humanize_user_mail_locale_hours_ -->
<g id="node4" class="node">
<title>_UsersHelper_humanize_user_mail_locale_hours_</title>
<polygon fill="lightblue" stroke="white" points="685.5,-36 361.5,-36 361.5,0 685.5,0 685.5,-36"/>
<text text-anchor="middle" x="523.5" y="-14.3" font-family="Arial" font-size="14.00">_UsersHelper_humanize_user_mail_locale_hours_</text>
</g>
<!-- _UsersHelper_humanize_user_mail_locale_hour_&#45;&gt;_UsersHelper_humanize_user_mail_locale_hours_ -->
<g id="edge2" class="edge">
<title>_UsersHelper_humanize_user_mail_locale_hour_&#45;&gt;_UsersHelper_humanize_user_mail_locale_hours_</title>
<path fill="none" stroke="black" d="M523.5,-395.82C523.5,-333.98 523.5,-122.47 523.5,-46.47"/>
<polygon fill="black" stroke="black" points="527,-46.27 523.5,-36.27 520,-46.27 527,-46.27"/>
</g>
<!-- _UsersHelper_humanize_user_time_zone_ -->
<g id="node5" class="node">
<title>_UsersHelper_humanize_user_time_zone_</title>
<polygon fill="lightblue" stroke="white" points="996.5,-432 718.5,-432 718.5,-396 996.5,-396 996.5,-432"/>
<text text-anchor="middle" x="857.5" y="-410.3" font-family="Arial" font-size="14.00">_UsersHelper_humanize_user_time_zone_</text>
</g>
<!-- _SearchController_all_ -->
<g id="node6" class="node">
<title>_SearchController_all_</title>
<polygon fill="lightblue" stroke="white" points="934.5,-36 780.5,-36 780.5,0 934.5,0 934.5,-36"/>
<text text-anchor="middle" x="857.5" y="-14.3" font-family="Arial" font-size="14.00">_SearchController_all_</text>
</g>
<!-- _UsersHelper_humanize_user_time_zone_&#45;&gt;_SearchController_all_ -->
<g id="edge3" class="edge">
<title>_UsersHelper_humanize_user_time_zone_&#45;&gt;_SearchController_all_</title>
<path fill="none" stroke="black" d="M857.5,-395.82C857.5,-333.98 857.5,-122.47 857.5,-46.47"/>
<polygon fill="black" stroke="black" points="861,-46.27 857.5,-36.27 854,-46.27 861,-46.27"/>
</g>
<!-- _UsersHelper_user_avatar_ -->
<g id="node7" class="node">
<title>_UsersHelper_user_avatar_</title>
<polygon fill="lightblue" stroke="white" points="1327,-432 1142,-432 1142,-396 1327,-396 1327,-432"/>
<text text-anchor="middle" x="1234.5" y="-410.3" font-family="Arial" font-size="14.00">_UsersHelper_user_avatar_</text>
</g>
<!-- _UsersHelper_user_avatar_url_ -->
<g id="node8" class="node">
<title>_UsersHelper_user_avatar_url_</title>
<polygon fill="lightblue" stroke="white" points="1178.5,-36 970.5,-36 970.5,0 1178.5,0 1178.5,-36"/>
<text text-anchor="middle" x="1074.5" y="-14.3" font-family="Arial" font-size="14.00">_UsersHelper_user_avatar_url_</text>
</g>
<!-- _UsersHelper_user_avatar_&#45;&gt;_UsersHelper_user_avatar_url_ -->
<g id="edge4" class="edge">
<title>_UsersHelper_user_avatar_&#45;&gt;_UsersHelper_user_avatar_url_</title>
<path fill="none" stroke="black" d="M1227.52,-395.82C1202.31,-333.73 1115.81,-120.73 1085.28,-45.54"/>
<polygon fill="black" stroke="black" points="1088.52,-44.22 1081.51,-36.27 1082.03,-46.86 1088.52,-44.22"/>
</g>
<!-- _UsersHelper_user_avatar_image_tag_ -->
<g id="node9" class="node">
<title>_UsersHelper_user_avatar_image_tag_</title>
<polygon fill="lightblue" stroke="white" points="1472,-36 1215,-36 1215,0 1472,0 1472,-36"/>
<text text-anchor="middle" x="1343.5" y="-14.3" font-family="Arial" font-size="14.00">_UsersHelper_user_avatar_image_tag_</text>
</g>
<!-- _UsersHelper_user_avatar_&#45;&gt;_UsersHelper_user_avatar_image_tag_ -->
<g id="edge5" class="edge">
<title>_UsersHelper_user_avatar_&#45;&gt;_UsersHelper_user_avatar_image_tag_</title>
<path fill="none" stroke="black" d="M1239.25,-395.82C1256.39,-333.86 1315.12,-121.6 1336.03,-46"/>
<polygon fill="black" stroke="black" points="1339.43,-46.84 1338.72,-36.27 1332.68,-44.98 1339.43,-46.84"/>
</g>
<!-- _UsersHelper_user_profile_badge_ -->
<g id="node10" class="node">
<title>_UsersHelper_user_profile_badge_</title>
<polygon fill="lightblue" stroke="white" points="1749.5,-432 1519.5,-432 1519.5,-396 1749.5,-396 1749.5,-432"/>
<text text-anchor="middle" x="1634.5" y="-410.3" font-family="Arial" font-size="14.00">_UsersHelper_user_profile_badge_</text>
</g>
<!-- _UsersHelper_user_profile_badge_url_ -->
<g id="node11" class="node">
<title>_UsersHelper_user_profile_badge_url_</title>
<polygon fill="lightblue" stroke="white" points="1760.5,-36 1508.5,-36 1508.5,0 1760.5,0 1760.5,-36"/>
<text text-anchor="middle" x="1634.5" y="-14.3" font-family="Arial" font-size="14.00">_UsersHelper_user_profile_badge_url_</text>
</g>
<!-- _UsersHelper_user_profile_badge_&#45;&gt;_UsersHelper_user_profile_badge_url_ -->
<g id="edge6" class="edge">
<title>_UsersHelper_user_profile_badge_&#45;&gt;_UsersHelper_user_profile_badge_url_</title>
<path fill="none" stroke="black" d="M1634.5,-395.82C1634.5,-333.98 1634.5,-122.47 1634.5,-46.47"/>
<polygon fill="black" stroke="black" points="1638,-46.27 1634.5,-36.27 1631,-46.27 1638,-46.27"/>
</g>
<!-- _UsersHelper_translate_errors_ -->
<g id="node12" class="node">
<title>_UsersHelper_translate_errors_</title>
<polygon fill="lightblue" stroke="white" points="1995,-432 1786,-432 1786,-396 1995,-396 1995,-432"/>
<text text-anchor="middle" x="1890.5" y="-410.3" font-family="Arial" font-size="14.00">_UsersHelper_translate_errors_</text>
</g>
<!-- _UsersHelper_build_msg_ -->
<g id="node13" class="node">
<title>_UsersHelper_build_msg_</title>
<polygon fill="lightblue" stroke="white" points="2109.5,-36 1933.5,-36 1933.5,0 2109.5,0 2109.5,-36"/>
<text text-anchor="middle" x="2021.5" y="-14.3" font-family="Arial" font-size="14.00">_UsersHelper_build_msg_</text>
</g>
<!-- _UsersHelper_translate_errors_&#45;&gt;_UsersHelper_build_msg_ -->
<g id="edge7" class="edge">
<title>_UsersHelper_translate_errors_&#45;&gt;_UsersHelper_build_msg_</title>
<path fill="none" stroke="black" d="M1896.21,-395.82C1916.81,-333.86 1987.39,-121.6 2012.52,-46"/>
<polygon fill="black" stroke="black" points="2015.92,-46.87 2015.76,-36.27 2009.28,-44.66 2015.92,-46.87"/>
</g>
<!-- _UsersHelper_show_freemium_msg_ -->
<g id="node14" class="node">
<title>_UsersHelper_show_freemium_msg_</title>
<polygon fill="lightblue" stroke="white" points="2276,-432 2031,-432 2031,-396 2276,-396 2276,-432"/>
<text text-anchor="middle" x="2153.5" y="-410.3" font-family="Arial" font-size="14.00">_UsersHelper_show_freemium_msg_</text>
</g>
<!-- _UsersHelper_show_freemium_msg_&#45;&gt;_UsersHelper_build_msg_ -->
<g id="edge8" class="edge">
<title>_UsersHelper_show_freemium_msg_&#45;&gt;_UsersHelper_build_msg_</title>
<path fill="none" stroke="black" d="M2147.74,-395.82C2126.99,-333.86 2055.87,-121.6 2030.55,-46"/>
<polygon fill="black" stroke="black" points="2033.78,-44.64 2027.29,-36.27 2027.15,-46.87 2033.78,-44.64"/>
</g>
</g>
</svg>
