<?xml version="1.0" encoding="UTF-8" standalone="no"?>
<!DOCTYPE svg PUBLIC "-//W3C//DTD SVG 1.1//EN"
 "http://www.w3.org/Graphics/SVG/1.1/DTD/svg11.dtd">
<!-- Generated by graphviz version 2.43.0 (0)
 -->
<!-- Title: CallGraph Pages: 1 -->
<svg width="793pt" height="440pt"
 viewBox="0.00 0.00 792.50 440.00" xmlns="http://www.w3.org/2000/svg" xmlns:xlink="http://www.w3.org/1999/xlink">
<g id="graph0" class="graph" transform="scale(1 1) rotate(0) translate(4 436)">
<title>CallGraph</title>
<polygon fill="white" stroke="transparent" points="-4,4 -4,-436 788.5,-436 788.5,4 -4,4"/>
<!-- _ViewersController_create_role_ -->
<g id="node1" class="node">
<title>_ViewersController_create_role_</title>
<polygon fill="lightblue" stroke="white" points="353.5,-432 140.5,-432 140.5,-396 353.5,-396 353.5,-432"/>
<text text-anchor="middle" x="247" y="-410.3" font-family="Arial" font-size="14.00">_ViewersController_create_role_</text>
</g>
<!-- _ViewersController_authorize_role_ -->
<g id="node2" class="node">
<title>_ViewersController_authorize_role_</title>
<polygon fill="lightblue" stroke="white" points="491.5,-36 260.5,-36 260.5,0 491.5,0 491.5,-36"/>
<text text-anchor="middle" x="376" y="-14.3" font-family="Arial" font-size="14.00">_ViewersController_authorize_role_</text>
</g>
<!-- _ViewersController_create_role_&#45;&gt;_ViewersController_authorize_role_ -->
<g id="edge1" class="edge">
<title>_ViewersController_create_role_&#45;&gt;_ViewersController_authorize_role_</title>
<path fill="none" stroke="black" d="M252.63,-395.82C272.91,-333.86 342.41,-121.6 367.16,-46"/>
<polygon fill="black" stroke="black" points="370.56,-46.87 370.34,-36.27 363.91,-44.69 370.56,-46.87"/>
</g>
<!-- _ViewersController_push_role_to_ -->
<g id="node3" class="node">
<title>_ViewersController_push_role_to_</title>
<polygon fill="lightblue" stroke="white" points="224,-36 0,-36 0,0 224,0 224,-36"/>
<text text-anchor="middle" x="112" y="-14.3" font-family="Arial" font-size="14.00">_ViewersController_push_role_to_</text>
</g>
<!-- _ViewersController_create_role_&#45;&gt;_ViewersController_push_role_to_ -->
<g id="edge2" class="edge">
<title>_ViewersController_create_role_&#45;&gt;_ViewersController_push_role_to_</title>
<path fill="none" stroke="black" d="M241.11,-395.82C219.88,-333.86 147.15,-121.6 121.25,-46"/>
<polygon fill="black" stroke="black" points="124.47,-44.6 117.92,-36.27 117.85,-46.87 124.47,-44.6"/>
</g>
<!-- _ViewersController_destroy_role_ -->
<g id="node4" class="node">
<title>_ViewersController_destroy_role_</title>
<polygon fill="lightblue" stroke="white" points="615,-432 395,-432 395,-396 615,-396 615,-432"/>
<text text-anchor="middle" x="505" y="-410.3" font-family="Arial" font-size="14.00">_ViewersController_destroy_role_</text>
</g>
<!-- _ViewersController_destroy_role_&#45;&gt;_ViewersController_authorize_role_ -->
<g id="edge3" class="edge">
<title>_ViewersController_destroy_role_&#45;&gt;_ViewersController_authorize_role_</title>
<path fill="none" stroke="black" d="M499.37,-395.82C479.09,-333.86 409.59,-121.6 384.84,-46"/>
<polygon fill="black" stroke="black" points="388.09,-44.69 381.66,-36.27 381.44,-46.87 388.09,-44.69"/>
</g>
<!-- _ViewersController_remove_role_from_ -->
<g id="node5" class="node">
<title>_ViewersController_remove_role_from_</title>
<polygon fill="lightblue" stroke="white" points="784.5,-36 527.5,-36 527.5,0 784.5,0 784.5,-36"/>
<text text-anchor="middle" x="656" y="-14.3" font-family="Arial" font-size="14.00">_ViewersController_remove_role_from_</text>
</g>
<!-- _ViewersController_destroy_role_&#45;&gt;_ViewersController_remove_role_from_ -->
<g id="edge4" class="edge">
<title>_ViewersController_destroy_role_&#45;&gt;_ViewersController_remove_role_from_</title>
<path fill="none" stroke="black" d="M511.59,-395.82C535.33,-333.86 616.68,-121.6 645.65,-46"/>
<polygon fill="black" stroke="black" points="649.07,-46.86 649.38,-36.27 642.53,-44.36 649.07,-46.86"/>
</g>
</g>
</svg>
