<?xml version="1.0" encoding="UTF-8" standalone="no"?>
<!DOCTYPE svg PUBLIC "-//W3C//DTD SVG 1.1//EN"
 "http://www.w3.org/Graphics/SVG/1.1/DTD/svg11.dtd">
<!-- Generated by graphviz version 2.43.0 (0)
 -->
<!-- Title: CallGraph Pages: 1 -->
<svg width="426pt" height="440pt"
 viewBox="0.00 0.00 425.50 440.00" xmlns="http://www.w3.org/2000/svg" xmlns:xlink="http://www.w3.org/1999/xlink">
<g id="graph0" class="graph" transform="scale(1 1) rotate(0) translate(4 436)">
<title>CallGraph</title>
<polygon fill="white" stroke="transparent" points="-4,4 -4,-436 421.5,-436 421.5,4 -4,4"/>
<!-- _WebfontHelper_generate_webfonts_ -->
<g id="node1" class="node">
<title>_WebfontHelper_generate_webfonts_</title>
<polygon fill="lightblue" stroke="white" points="325.5,-432 81.5,-432 81.5,-396 325.5,-396 325.5,-432"/>
<text text-anchor="middle" x="203.5" y="-410.3" font-family="Arial" font-size="14.00">_WebfontHelper_generate_webfonts_</text>
</g>
<!-- _WebfontHelper_base_url_ -->
<g id="node2" class="node">
<title>_WebfontHelper_base_url_</title>
<polygon fill="lightblue" stroke="white" points="181,-36 0,-36 0,0 181,0 181,-36"/>
<text text-anchor="middle" x="90.5" y="-14.3" font-family="Arial" font-size="14.00">_WebfontHelper_base_url_</text>
</g>
<!-- _WebfontHelper_generate_webfonts_&#45;&gt;_WebfontHelper_base_url_ -->
<g id="edge1" class="edge">
<title>_WebfontHelper_generate_webfonts_&#45;&gt;_WebfontHelper_base_url_</title>
<path fill="none" stroke="black" d="M198.57,-395.82C180.8,-333.86 119.93,-121.6 98.24,-46"/>
<polygon fill="black" stroke="black" points="101.58,-44.92 95.45,-36.27 94.85,-46.85 101.58,-44.92"/>
</g>
<!-- _WebfontHelper_font_variant_ -->
<g id="node3" class="node">
<title>_WebfontHelper_font_variant_</title>
<polygon fill="lightblue" stroke="white" points="417.5,-36 217.5,-36 217.5,0 417.5,0 417.5,-36"/>
<text text-anchor="middle" x="317.5" y="-14.3" font-family="Arial" font-size="14.00">_WebfontHelper_font_variant_</text>
</g>
<!-- _WebfontHelper_generate_webfonts_&#45;&gt;_WebfontHelper_font_variant_ -->
<g id="edge2" class="edge">
<title>_WebfontHelper_generate_webfonts_&#45;&gt;_WebfontHelper_font_variant_</title>
<path fill="none" stroke="black" d="M208.47,-395.82C226.4,-333.86 287.81,-121.6 309.69,-46"/>
<polygon fill="black" stroke="black" points="313.08,-46.85 312.5,-36.27 306.36,-44.91 313.08,-46.85"/>
</g>
</g>
</svg>
