<?xml version="1.0" encoding="utf-8"?>
<!-- Generator: Adobe Illustrator 16.2.0, SVG Export Plug-In . SVG Version: 6.00 Build 0)  -->
<!DOCTYPE svg PUBLIC "-//W3C//DTD SVG 1.1//EN" "http://www.w3.org/Graphics/SVG/1.1/DTD/svg11.dtd">
<svg version="1.1" id="Calque_1" xmlns="http://www.w3.org/2000/svg" xmlns:xlink="http://www.w3.org/1999/xlink" x="0px" y="0px"
	 width="268.601px" height="346.901px" viewBox="0 0 268.601 346.901" enable-background="new 0 0 268.601 346.901"
	 xml:space="preserve">
<g>
	<g>
		<g>
			<g>
				<path fill="#404040" d="M251.049,310.304v-11.41h-34.688c-7.536,0-11.556-1.678-13.619-4.604l0,0
					c-2.034-2.922-1.978-6.722-1.995-10.724l0,0c0,0,0,1.307,0-5.237s7.954-11.214,12.854-11.214v15.324
					c-0.01,1.282,0.076,2.445,0.467,3.169l0,0c0.386,0.698,0.938,1.146,2.515,1.171l0,0h34.467c0,0,0-2.775,0-9.467
					c0-6.688,6.069-10.197,12.273-10.197v19.664h4.358v12.111h-4.358v11.414H251.049L251.049,310.304z"/>
			</g>
		</g>
		<g>
			<path fill="#404040" d="M50.639,267.059c5.618-0.013,8.73,1.402,10.283,4.018l0,0c1.521,2.586,1.471,5.97,1.481,9.838l0,0
				c-0.011,3.667,0.036,7.077-1.474,9.732l0,0c-1.537,2.685-4.663,4.255-10.291,4.231l0,0H12.562c0,0,0,1.289,0,6.718
				c0,5.425-3.295,8.708-7.949,8.708c-4.652,0-4.613,0-4.613,0l0,0v-43.245H50.639 M12.562,283.164h35.145
				c1.249-0.045,1.578-0.428,1.924-1.23l0,0c0.252-0.677,0.313-1.657,0.322-2.709l0,0H12.562V283.164L12.562,283.164z"/>
		</g>
		<g>
			<path fill="#404040" d="M111.724,310.304H65.101c0-8.901,4.804-12.335,11.881-12.335c7.078,0,34.626-0.001,34.626-0.001
				c1.14-0.021,1.411-0.277,1.582-0.553l0,0c0.187-0.298,0.23-0.934,0.221-1.693l0,0v-2.661c-0.553,0.04-1.115,0.067-1.686,0.067
				l0,0H79.458c-4.042,0-7.557-1.268-10.062-3.586l0,0c-2.509-2.328-3.97-5.702-3.964-9.762l0,0v-12.666h12.17l-0.005,10.857
				c-0.003,0.989,0.091,1.771,0.335,2.182l0,0c0.235,0.385,0.498,0.609,1.469,0.635l0,0h32.205c1.78-0.121,1.632-0.445,1.856-1.459
				l0,0v-12.215h12.229v29.848c0.004,4.182-1.378,7.564-3.854,9.857l0,0c-2.467,2.299-5.969,3.484-10.099,3.484l0,0
				C111.738,310.304,111.73,310.304,111.724,310.304L111.724,310.304z"/>
		</g>
		<g>
			<path fill="#404040" d="M174.902,309.806l-10.987-12.691c-0.714-0.868-2.771-2.699-3.906-4.552l0,0
				c-1.134,1.853-3.193,3.685-3.911,4.558l0,0c0,0-3.583,4.277-6.32,7.299c-2.738,3.021-7.583,5.385-12.533,5.385
				c-4.951,0-7.422,0-7.422,0l18.095-21.08l-18.082-21.297h15.271l10.994,12.525c0.733,0.887,2.78,2.896,3.907,4.827l0,0
				c1.127-1.931,3.176-3.94,3.91-4.835l0,0c0,0,4.72-5.244,6.548-7.459c1.823-2.214,6.371-5.061,11.824-5.061
				c5.451,0,7.897,0,7.897,0l-18.09,21.299l18.102,21.082H174.902L174.902,309.806z"/>
		</g>
	</g>
	<g>
		<polygon fill="#404040" points="189.267,149.739 198.492,168.843 230.904,168.843 212.947,131.066 		"/>
		<path fill="#404040" d="M221.447,82.104c-2.554,2.008-5.315,4.189-8.002,6.319L220,109.006c0.072,0.228,0.124,0.463,0.188,0.694
			l48.413-39.292h-11.767C243.009,70.408,231.13,74.488,221.447,82.104z"/>
	</g>
	<g>
		<path fill="#009FE3" d="M91.327,9.134C88.943,4.117,91.542,0,97.102,0h72.409c5.562,0,11.48,4.335,13.169,9.626l32.174,101.02
			c1.687,5.304-0.502,12.439-4.863,15.876L74.439,233.404c-4.365,3.441-12.478,6.245-18.034,6.245H6.23
			c-5.556,0-6.568-2.847-2.244-6.335l132.166-106.697c4.325-3.487,5.918-10.453,3.535-15.472L91.327,9.134z"/>
	</g>
	<path fill="#00B6ED" d="M214.854,110.646l-5.969-18.737c-11.229,8.735-24.271,18.833-24.271,18.833
		c-3.298,2.671-5.52,4.986-6.944,8.902c-1.525,4.194,2.669,12.288,3.916,14.954l5.089,10.309l23.313-18.384
		C214.352,123.085,216.54,115.95,214.854,110.646z"/>
</g>
<g>
	<path fill="#404040" d="M5.019,341.306c0.346-0.76,0.813-1.119,1.785-1.705l4.276-2.545h5.089l-8.446,4.942l8.525,4.902h-5.155
		l-4.449-2.544c-0.826-0.467-1.305-0.866-1.625-1.625v4.169H2.274v-9.845h2.744V341.306z"/>
	<path fill="#404040" d="M36.654,337.043v2.53H26.01c-0.533,0-0.6,0.4-0.6,0.826v0.32h11.243v2.544H25.424v0.227
		c0,0.479,0.066,0.839,0.586,0.839h10.644v2.571H26.01c-1.878,0-3.157-1.239-3.157-3.13v-3.57c0-1.759,1.359-3.145,3.157-3.145
		L36.654,337.043z"/>
	<path fill="#404040" d="M57.019,337.043v2.53H46.375c-0.533,0-0.6,0.4-0.6,0.826v0.32h11.243v2.544h-11.23v0.227
		c0,0.479,0.067,0.839,0.586,0.839h10.644v2.571H46.375c-1.878,0-3.157-1.239-3.157-3.13v-3.57c0-1.759,1.359-3.145,3.157-3.145
		L57.019,337.043z"/>
	<path fill="#404040" d="M75.425,337.031c2.611,0,2.611,1.278,2.611,3.104c0,1.731,0,3.13-2.611,3.13h-9.138v3.637H63.65v-9.87
		H75.425z M66.287,339.574v1.253h8.446c0.692,0,0.692-0.64,0.692-1.253H66.287z"/>
	<path fill="#404040" d="M96.623,337.056h13.974v2.518h-5.728v7.327h-2.478v-7.3h-5.768V337.056z"/>
	<path fill="#404040" d="M119.879,337.043v3.637h8.912v-3.637h2.571v9.857h-2.611v-3.716h-8.858v3.716h-2.584v-9.857H119.879z"/>
	<path fill="#404040" d="M151.821,337.043v2.53h-10.644c-0.533,0-0.6,0.4-0.6,0.826v0.32h11.243v2.544h-11.229v0.227
		c0,0.479,0.066,0.839,0.586,0.839h10.644v2.571h-10.644c-1.878,0-3.157-1.239-3.157-3.13v-3.57c0-1.759,1.358-3.145,3.157-3.145
		L151.821,337.043z"/>
	<path fill="#404040" d="M184.313,337.043v2.53h-10.643c-0.533,0-0.6,0.4-0.6,0.826v0.32h11.242v2.544h-11.229v3.637h-2.572v-6.7
		c0-1.759,1.359-3.145,3.158-3.145L184.313,337.043z"/>
	<path fill="#404040" d="M205.052,343.917c0,1.904-1.238,2.983-3.131,2.983h-7.605c-1.838,0-3.145-1.146-3.145-2.983v-4.037
		c0.146-1.598,1.359-2.837,3.158-2.837h7.592c2.066,0,3.131,1.292,3.131,3.13V343.917z M202.481,340.4
		c0-0.412-0.014-0.826-0.561-0.826h-7.605c-0.6,0-0.6,0.32-0.6,0.641v3.276c0,0.479,0.066,0.825,0.586,0.825h7.594
		c0.586,0,0.586-0.332,0.586-0.691V340.4z"/>
	<path fill="#404040" d="M225.657,344.303v2.585H214.8c-1.838,0-3.143-1.146-3.143-2.984v-4.036
		c0.146-1.599,1.357-2.824,3.156-2.824h10.816v2.518H214.8c-0.6,0-0.6,0.319-0.6,0.64v3.277c0,0.479,0.068,0.825,0.588,0.825
		H225.657z"/>
	<path fill="#404040" d="M243.851,337.043h2.559v6.874c0,1.904-1.24,2.983-3.131,2.983h-7.607c-1.838,0-3.143-1.146-3.143-2.983
		v-6.874h2.543v6.447c0,0.479,0.068,0.825,0.588,0.825h7.592c0.586,0,0.586-0.332,0.586-0.691L243.851,337.043z"/>
	<path fill="#404040" d="M264.788,340.759c2.904,0,3.344,1.346,3.344,3.117c0,1.772-0.465,3.024-3.316,3.024h-11.15v-2.464h11.098
		c0.799,0,0.813-0.52,0.826-1.173h-9.191c-2.799,0-3.357-1.278-3.357-3.063c0-1.905,0.293-3.145,3.357-3.145h11.068v2.505h-11.734
		c0,0.52,0,1.198,0.666,1.198H264.788z"/>
</g>
</svg>
