<?xml version="1.0" encoding="utf-8"?>
<!-- Generator: Adobe Illustrator 17.1.0, SVG Export Plug-In . SVG Version: 6.00 Build 0)  -->
<!DOCTYPE svg PUBLIC "-//W3C//DTD SVG 1.1//EN" "http://www.w3.org/Graphics/SVG/1.1/DTD/svg11.dtd">
<svg version="1.1" id="Calque_1" xmlns="http://www.w3.org/2000/svg" xmlns:xlink="http://www.w3.org/1999/xlink" x="0px" y="0px"
	 viewBox="0 0 512 512" enable-background="new 0 0 512 512" xml:space="preserve">
<path id="checkbox-15-icon" fill="#666666" d="M224.9,342.3l-77.4-77.4l33-33l44.4,44.5l102.6-102.6l33,32.9L224.9,342.3z
	 M115.1,290.2l-37.2,15.5c-8.8-31.6-9.4-65.8-0.1-99l37.3,15.4c-2.6,10.9-4,22.2-4,33.9C111,267.8,112.4,279.3,115.1,290.2z
	 M180.3,132.3l-15.5-37.2c-28.6,16.2-53,40-70,70.1l37.3,15.4C144.1,160.9,160.7,144.4,180.3,132.3z M256,111c11.7,0,23,1.4,33.9,4
	l15.4-37.3c-33.3-9.2-67.4-8.7-99,0.1l15.5,37.2C232.7,112.4,244.2,111,256,111z M379.7,180.3l37.2-15.5c-16.2-28.6-40-53-70.1-70
	l-15.4,37.3C351.1,144.1,367.6,160.7,379.7,180.3z M434.2,206.3l-37.2,15.5c2.7,11,4.1,22.4,4.1,34.2c0,11.7-1.4,23-4,33.9
	l37.3,15.4C443.5,272.1,443,237.9,434.2,206.3z M331.7,379.7l15.5,37.2c28.6-16.2,53-40,70-70.1l-37.3-15.4
	C367.9,351.1,351.3,367.6,331.7,379.7z M132.3,331.7l-37.2,15.5c16.2,28.6,40,53,70.1,70l15.4-37.3
	C160.9,367.9,144.4,351.3,132.3,331.7z M256,401c-11.7,0-23-1.4-33.9-4l-15.4,37.3c33.3,9.2,67.4,8.7,99-0.1l-15.5-37.2
	C279.3,399.6,267.8,401,256,401z"/>
</svg>
