<?xml version="1.0" encoding="utf-8"?>
<!-- Generator: Adobe Illustrator 18.0.0, SVG Export Plug-In . SVG Version: 6.00 Build 0)  -->
<!DOCTYPE svg PUBLIC "-//W3C//DTD SVG 1.1//EN" "http://www.w3.org/Graphics/SVG/1.1/DTD/svg11.dtd">
<svg version="1.1" id="Calque_1" xmlns="http://www.w3.org/2000/svg" xmlns:xlink="http://www.w3.org/1999/xlink" x="0px" y="0px"
	 viewBox="0 0 512 512" enable-background="new 0 0 512 512" xml:space="preserve">
<path id="wrench-9-icon" fill="#F68867" d="M256.6,142l-77.1-55.4L256.6,31v36.6c32.6,0.1,65.1,8.6,94.3,25.4
	c58.8,33.9,95,96.6,95,164.5c0,22-3.8,43.5-11,63.6l-29.7-29.7c2.5-11,3.8-22.3,3.8-33.9c0-54.7-29.2-105.2-76.5-132.5
	c-23.5-13.6-49.7-20.4-75.9-20.5V142L256.6,142z M230.3,408.5c-25.8-4.4-50.5-15.4-71.5-32.7c-42.2-34.7-62.7-89.4-53.7-143.3
	c2.7-16.5,7.7-31.3,17.7-50.3l-27.1-27.1c-13.8,23.2-22.7,45.4-27,71.3c-11.1,67,14.3,134.8,66.7,178c26,21.4,56.7,35.1,88.9,40.6
	l-6,36.1l85.2-42.2l-67-67.3L230.3,408.5z"/>
<path id="gear-9-icon" fill="#666666" d="M360.5,300.2l6.4-27.6l-13.7-8.8c-5.2-3.3-8.8-8.7-9.8-14.9l0,0c-1-6.1,0.6-12.4,4.5-17.2
	L358,219l-14.9-24l-15.8,3.4c-6.1,1.3-12.4,0-17.4-3.6l0,0c-5-3.6-8.3-9.2-9-15.3l-1.8-16.1l-27.6-6.4l-8.8,13.7
	c-3.3,5.2-8.7,8.8-14.9,9.8l0,0c-6.1,1-12.4-0.6-17.2-4.5l-12.7-10.1l-24,14.9l3.4,15.8c1.3,6.1,0,12.4-3.6,17.4l0,0
	c-3.6,5-9.2,8.3-15.3,9l-16.1,1.8l-6.4,27.6l13.7,8.8c5.2,3.3,8.8,8.7,9.8,14.9l0,0c1,6.1-0.6,12.4-4.5,17.2L164.7,306l14.9,24
	l15.8-3.4c6.1-1.3,12.4,0,17.4,3.6l0,0c5,3.6,8.3,9.2,9,15.3l1.8,16.1l27.6,6.4l8.7-13.6c3.4-5.3,8.8-8.8,15-9.9l0,0
	c6.1-1,12.3,0.6,17.1,4.4l12.8,10.2l24-14.9l-3.5-15.9c-1.3-6.1,0-12.4,3.6-17.4l0,0c3.6-5,9.2-8.3,15.4-9L360.5,300.2z
	 M252.6,300.1c-20.7-4.8-33.6-25.6-28.8-46.3s25.6-33.6,46.3-28.8c20.7,4.8,33.6,25.6,28.8,46.3C294,292,273.3,304.9,252.6,300.1z
	 M433.9,402.8l3.4-14.6l-7.3-4.7c-2.8-1.8-4.7-4.7-5.2-7.9l0,0c-0.5-3.3,0.3-6.6,2.4-9.2l5.4-6.7l-7.9-12.8l-8.4,1.8
	c-3.2,0.7-6.6,0-9.3-1.9l0,0c-2.7-1.9-4.4-4.9-4.8-8.2l-1-8.6l-14.6-3.4L382,334c-1.8,2.8-4.7,4.7-7.9,5.2l0,0
	c-3.3,0.5-6.6-0.3-9.2-2.4l-6.7-5.4l-12.8,7.9l1.8,8.4c0.7,3.2,0,6.6-1.9,9.3l0,0c-1.9,2.7-4.9,4.4-8.2,4.8l-8.6,1l-3.4,14.6
	l7.3,4.7c2.8,1.8,4.7,4.6,5.2,7.9l0,0c0.5,3.3-0.3,6.6-2.4,9.2l-5.4,6.7l7.9,12.8l8.4-1.8c3.2-0.7,6.6,0,9.3,1.9l0,0
	c2.7,1.9,4.4,4.9,4.8,8.2l1,8.6l14.6,3.4l4.6-7.2c1.8-2.8,4.7-4.7,8-5.2l0,0c3.2-0.5,6.5,0.3,9.1,2.4l6.8,5.4l12.8-7.9l-1.8-8.4
	c-0.7-3.2,0-6.6,1.9-9.3l0,0c1.9-2.7,4.9-4.4,8.2-4.8L433.9,402.8z M376.6,402.8c-11-2.6-17.9-13.6-15.3-24.6s13.6-17.9,24.6-15.3
	s17.9,13.6,15.3,24.6S387.6,405.3,376.6,402.8z"/>
</svg>
