<?xml version="1.0" encoding="utf-8"?>
<!-- Generator: Adobe Illustrator 18.1.1, SVG Export Plug-In . SVG Version: 6.00 Build 0)  -->
<!DOCTYPE svg PUBLIC "-//W3C//DTD SVG 1.1//EN" "http://www.w3.org/Graphics/SVG/1.1/DTD/svg11.dtd">
<svg version="1.1" id="Calque_1" xmlns="http://www.w3.org/2000/svg" xmlns:xlink="http://www.w3.org/1999/xlink" x="0px" y="0px"
	 viewBox="0 0 512 512" enable-background="new 0 0 512 512" xml:space="preserve">
<path id="file" fill="#B0C64B" d="M297.8,90v85.8h85.9V422H128.3V90H297.8 M322.8,50H88.3v412h335.4V150.8L322.8,50z"/>
<path id="xls" fill="#B0C64B" d="M284.1,261h-56.6h-63.9v27.3v3.6v23.6v3.6v23.6v3.6v27.3h60.3h3.6h56.6h3.6H348v-30.9v-23.6v-27.3
	v-3.6V261H284.1z M284.1,315.5h-56.6v-23.6h56.6V315.5z M167.2,264.6h56.6v23.6h-56.6L167.2,264.6L167.2,264.6z M167.2,291.9h56.6
	v23.6h-56.6L167.2,291.9L167.2,291.9z M167.2,319.1h56.6v23.6h-56.6L167.2,319.1L167.2,319.1z M167.2,370v-23.6h56.6V370H167.2z
	 M227.5,370v-23.6h56.6V370H227.5z M344.4,370h-56.6v-23.6h56.6V370L344.4,370z M344.4,315.5h-56.6v-23.6h56.6V315.5L344.4,315.5z
	 M287.7,288.3v-23.6h56.6v23.6H287.7z"/>
</svg>
