<?xml version="1.0" encoding="utf-8"?>
<!-- Generator: Adobe Illustrator 18.1.1, SVG Export Plug-In . SVG Version: 6.00 Build 0)  -->
<svg version="1.1" id="Calque_1" xmlns="http://www.w3.org/2000/svg" xmlns:xlink="http://www.w3.org/1999/xlink" x="0px" y="0px"
	 viewBox="0 0 512 512" enable-background="new 0 0 512 512" xml:space="preserve">
<path id="lifebuoy-icon" fill="#F68867" d="M255.5,104C171.3,104,103,172.3,103,256.5S171.3,409,255.5,409S408,340.7,408,256.5
	S339.7,104,255.5,104z M311,312c-30.6,30.6-80.3,30.7-111,0c-30.6-30.6-30.7-80.3,0-111s80.3-30.7,111,0
	C341.6,231.7,341.7,281.3,311,312z M314.9,136.3l-18.4,32.2c-25.8-12.1-56.2-12.1-82.1,0L196,136.3
	C232.7,118.2,277.1,117.6,314.9,136.3z M135.2,197.3l32.2,18.4c-12.1,25.9-12.2,56.9,0.8,83.4L136,317.5
	C117.2,280.5,116.4,235.5,135.2,197.3z M197,377.1l18.4-32.3c25.3,11.5,54.8,11.5,80.2,0l18.4,32.3
	C277.7,394.7,234.2,395.2,197,377.1z M342.7,299c13-26.5,12.9-57.4,0.8-83.4l32.2-18.4c18.3,37,18.7,82-0.8,120.1L342.7,299z"/>
<path id="loading-7-icon" fill="#B0C64B" d="M426.4,371.7c-34.4,50.6-90.8,85.1-155.4,89.7v-40.1c38.7-3.4,74.6-20.2,102.4-47.9
	c6.8-6.8,12.9-14,18.3-21.7L426.4,371.7z M422,256c0,24.5-5.3,48.1-15.3,69.7l34.7,20c13.2-27.1,20.5-57.6,20.5-89.8
	s-7.4-62.6-20.5-89.8l-34.7,20C416.7,207.9,422,231.5,422,256z M271,90.7c38.7,3.4,74.6,20.2,102.4,47.9c6.8,6.8,12.9,14,18.3,21.7
	l34.7-20.1C392,89.7,335.6,55.2,271,50.5V90.7z M90,256c0-24.5,5.3-48.1,15.3-69.7l-34.7-20C57.4,193.4,50,223.8,50,256
	s7.4,62.6,20.5,89.8l34.7-20C95.3,304.1,90,280.5,90,256z M120.3,160.3c5.4-7.7,11.5-14.9,18.3-21.7c27.8-27.8,63.7-44.5,102.4-47.9
	V50.5c-64.6,4.7-121,39.1-155.4,89.7L120.3,160.3z M241,421.3c-38.7-3.4-74.6-20.2-102.4-47.9c-6.8-6.8-12.9-14-18.3-21.7
	l-34.7,20.1c34.4,50.6,90.8,85.1,155.4,89.7V421.3z"/>
</svg>
