<?xml version="1.0" encoding="utf-8"?>
<!-- Generator: Adobe Illustrator 18.1.0, SVG Export Plug-In . SVG Version: 6.00 Build 0)  -->
<!DOCTYPE svg PUBLIC "-//W3C//DTD SVG 1.1//EN" "http://www.w3.org/Graphics/SVG/1.1/DTD/svg11.dtd">
<svg version="1.1" id="Calque_1" xmlns="http://www.w3.org/2000/svg" xmlns:xlink="http://www.w3.org/1999/xlink" x="0px" y="0px"
	 viewBox="0 0 512 512" enable-background="new 0 0 512 512" xml:space="preserve">
<path fill="#B0C64B" d="M161.9,272.8l103.2-95.2l29.2-27L339,109l-90.1,126.1l97-10.2L174.6,404.4L271,263.2L161.9,272.8z"/>
<path id="loading-5-icon" fill="#B0C64B" d="M27.5,232.6C38.6,116.1,136,25,254.5,25s215.9,91.1,227,207.6h-44.5
	c-4.9-41.1-23-79-52.5-108.7c-34.8-34.9-80.9-54.2-130-54.2s-95.2,19.3-130,54.2C95,153.6,76.9,191.5,72,232.6H27.5z M436.9,277.3
	c-4.9,41.1-23,79-52.5,108.7c-34.8,34.9-80.9,54.2-130,54.2s-95.2-19.3-130-54.2C95,356.3,76.9,318.4,72,277.3H27.5
	c11.1,116.5,108.5,207.6,227,207.6s215.9-91.1,227-207.6H436.9z"/>
</svg>
