<?xml version="1.0" encoding="utf-8"?>
<!-- Generator: Adobe Illustrator 17.1.0, SVG Export Plug-In . SVG Version: 6.00 Build 0)  -->
<!DOCTYPE svg PUBLIC "-//W3C//DTD SVG 1.1//EN" "http://www.w3.org/Graphics/SVG/1.1/DTD/svg11.dtd">
<svg version="1.1" id="Calque_1" xmlns="http://www.w3.org/2000/svg" xmlns:xlink="http://www.w3.org/1999/xlink" x="0px" y="0px"
	 viewBox="0 0 512 512" enable-background="new 0 0 512 512" xml:space="preserve">
<path id="printer-icon" fill="#3488C5" d="M408.5,138V50h-305v88H50v203h53.5v121h305V341H462V138H408.5z M368.5,422h-225V293h225
	V422z M368.5,138h-225V90h225V138z M422.3,188.8c-6.7,0-12.1-5.4-12.1-12.1c0-6.7,5.4-12.1,12.1-12.1c6.7,0,12.1,5.4,12.1,12.1
	C434.4,183.3,429,188.8,422.3,188.8z M296.3,380.2H169.1v-22.5h127.2V380.2z M344,338.7H169.1v-22.5H344V338.7z"/>
</svg>
