<?xml version="1.0" encoding="utf-8"?>
<!-- Generator: Adobe Illustrator 17.1.0, SVG Export Plug-In . SVG Version: 6.00 Build 0)  -->
<!DOCTYPE svg PUBLIC "-//W3C//DTD SVG 1.1//EN" "http://www.w3.org/Graphics/SVG/1.1/DTD/svg11.dtd">
<svg version="1.1" id="Calque_1" xmlns="http://www.w3.org/2000/svg" xmlns:xlink="http://www.w3.org/1999/xlink" x="0px" y="0px"
	 viewBox="0 0 512 512" enable-background="new 0 0 512 512" xml:space="preserve">
<path fill="#FFFFFF" d="M266.2,163.3l-155,245.1H402L266.2,163.3z M209,327.8l47.8-44.1l13.5-12.5L291,252l-41.7,58.4l44.9-4.7
	l-79.3,83.1l44.6-65.4L209,327.8z"/>
<g>
	<polygon fill="#F18767" points="285,89 285,128.3 334.4,217.4 348.4,203.4 	"/>
	<polygon fill="#F18767" points="199.8,212.6 255,125.3 255,89.7 186,198.8 	"/>
	<polygon fill="#F18767" points="152.2,288 183.4,238.6 169.6,224.8 129.7,288 	"/>
	<polygon fill="#F18767" points="453.9,433 420.2,433 439.2,452 486.1,452 411.9,318 390.2,318 	"/>
	<polygon fill="#F18767" points="349.5,244.7 373.5,288 395.2,288 363.5,230.7 	"/>
	<polygon fill="#F18767" points="255,452 255,433 161.2,433 142.2,452 	"/>
	<polygon fill="#F18767" points="118.8,433 60.5,433 133.2,318 110.7,318 26,452 99.8,452 	"/>
	<polygon fill="#F18767" points="377.8,433 285,433 285,452 396.8,452 	"/>
</g>
</svg>
