<?xml version="1.0" encoding="utf-8"?>
<!-- Generator: Adobe Illustrator 18.1.0, SVG Export Plug-In . SVG Version: 6.00 Build 0)  -->
<!DOCTYPE svg PUBLIC "-//W3C//DTD SVG 1.1//EN" "http://www.w3.org/Graphics/SVG/1.1/DTD/svg11.dtd">
<svg version="1.1" id="Calque_1" xmlns="http://www.w3.org/2000/svg" xmlns:xlink="http://www.w3.org/1999/xlink" x="0px" y="0px"
	 viewBox="0 0 512 512" enable-background="new 0 0 512 512" xml:space="preserve">
<path id="tools-4-icon" fill="#B0C64B" d="M158.1,249.3l160.1,160.1c13.5,13.5,35.3,13.5,48.8,0s13.5-35.3,0-48.8L206.9,200.5
	c-7.7-7.7-11.7-18.4-10.8-29.3c1.6-20.6-5.5-41.7-21.2-57.4C154.5,93.4,125,87.5,99.2,96.4l46.5,46.5c1.1,18.2-27,46.2-45.2,45.2
	L54,141.6c-8.9,25.6-3.1,55.2,17.4,75.7c14.3,14.3,33,21.4,51.7,21.4C128.3,238.7,144.3,235.6,158.1,249.3z M340.9,368.7
	c7.9,0,14.2,6.4,14.2,14.2s-6.4,14.2-14.2,14.2s-14.2-6.4-14.2-14.2S333,368.7,340.9,368.7z M219.4,115.3c0,0,88.3-43.5,147,0.7
	c33.3,25.1,28.8,47.4,43.8,62.5c13.8,13.8,30.7,2.4,30.7,2.4l21,21l-67.3,67.3l-21-21c0,0,9.1-13-1.7-23.8c-9.8-9.8-22-7-34.7,5.8
	c-7.1,7.1-31,31-31,31l-47-47l31.3-31.3C319.6,153.7,289.6,122.3,219.4,115.3z M218.6,348.4l-61.5,61.2c-13,13-34,13-46.9,0
	c-13-13-13-34,0-46.9l61.5-61.2L218.6,348.4z"/>
</svg>
