<?xml version="1.0" encoding="utf-8"?>
<!-- Generator: Adobe Illustrator 18.1.1, SVG Export Plug-In . SVG Version: 6.00 Build 0)  -->
<svg version="1.1" id="Calque_1" xmlns="http://www.w3.org/2000/svg" xmlns:xlink="http://www.w3.org/1999/xlink" x="0px" y="0px"
	 viewBox="0 0 512 512" enable-background="new 0 0 512 512" xml:space="preserve">
<path id="lifebuoy-icon" fill="#7B8A34" d="M255.5,104C171.3,104,103,172.3,103,256.5S171.3,409,255.5,409S408,340.7,408,256.5
	S339.7,104,255.5,104z M311,312c-30.6,30.6-80.3,30.7-111,0c-30.6-30.6-30.7-80.3,0-111s80.3-30.7,111,0
	C341.6,231.7,341.7,281.3,311,312z M314.9,136.3l-18.4,32.2c-25.8-12.1-56.2-12.1-82.1,0L196,136.3
	C232.7,118.2,277.1,117.6,314.9,136.3z M135.2,197.3l32.2,18.4c-12.1,25.9-12.2,56.9,0.8,83.4L136,317.5
	C117.2,280.5,116.4,235.5,135.2,197.3z M197,377.1l18.4-32.3c25.3,11.5,54.8,11.5,80.2,0l18.4,32.3
	C277.7,394.7,234.2,395.2,197,377.1z M342.7,299c13-26.5,12.9-57.4,0.8-83.4l32.2-18.4c18.3,37,18.7,82-0.8,120.1L342.7,299z"/>
<path id="loading-5-icon" fill="#B0C64B" d="M51,236C61,131.6,149,50,256,50s195,81.6,205,186h-40.2c-4.4-36.8-20.8-70.8-47.4-97.4
	C342,107.3,300.3,90,256,90s-86,17.3-117.4,48.6c-26.6,26.6-43,60.6-47.4,97.4H51z M420.8,276c-4.4,36.8-20.8,70.8-47.4,97.4
	C342,404.7,300.3,422,256,422s-86-17.3-117.4-48.6c-26.6-26.6-43-60.6-47.4-97.4H51c10,104.4,98,186,205,186s195-81.6,205-186H420.8
	z"/>
</svg>
