<?xml version="1.0" encoding="utf-8"?>
<!-- Generator: Adobe Illustrator 18.1.0, SVG Export Plug-In . SVG Version: 6.00 Build 0)  -->
<!DOCTYPE svg PUBLIC "-//W3C//DTD SVG 1.1//EN" "http://www.w3.org/Graphics/SVG/1.1/DTD/svg11.dtd">
<svg version="1.1" id="Calque_1" xmlns="http://www.w3.org/2000/svg" xmlns:xlink="http://www.w3.org/1999/xlink" x="0px" y="0px"
	 viewBox="0 0 512 512" enable-background="new 0 0 512 512" xml:space="preserve">
<path id="recycling-11" fill="#B0C64B" d="M352.3,431.5l25.3,32.4c-35.1,22.7-76.9,36.1-121.9,36.1c-83.2,0-155.7-45.4-194.5-112.7
	l-34.6,20L49,323.6l83.7,22.2l-35.7,20.7c31.7,55.1,90.7,92.6,158.7,92.6C291.2,459.2,324.2,448.9,352.3,431.5z M72.2,277.9
	c0-0.8-0.1-1.7-0.1-2.5c0-94.4,71.7-172.2,163.4-182.4l0,39.4l61.3-61.2L235.6,10l-0.1,41.9C121,62.1,31.2,158.2,31.2,275.4
	c0,2.8,0.3,5.5,0.4,8.2L72.2,277.9z M451.5,385c18.3-32.4,28.9-69.7,28.9-109.6c0-93.4-57.1-173.5-138.3-207.3l-12.7,39.1
	c64.8,28.4,110.2,93.1,110.2,168.3c0,32.7-9,63.2-24.1,89.9l-36-19.7l24.4,83.1l83.1-24.3L451.5,385z"/>
<path fill="#B0C64B" d="M161.9,292.8l103.2-95.2l29.2-27L339,129l-90.1,126.1l97-10.2L174.6,424.4L271,283.2L161.9,292.8z"/>
</svg>
