<?xml version="1.0" encoding="utf-8"?>
<!-- Generator: Adobe Illustrator 17.1.0, SVG Export Plug-In . SVG Version: 6.00 Build 0)  -->
<!DOCTYPE svg PUBLIC "-//W3C//DTD SVG 1.1//EN" "http://www.w3.org/Graphics/SVG/1.1/DTD/svg11.dtd">
<svg version="1.1" id="Calque_1" xmlns="http://www.w3.org/2000/svg" xmlns:xlink="http://www.w3.org/1999/xlink" x="0px" y="0px"
	 viewBox="0 0 512 512" enable-background="new 0 0 512 512" xml:space="preserve">
<path id="lifebuoy-icon" fill="#FFFFFF" d="M255.5,104C171.3,104,103,172.3,103,256.5c0,84.2,68.3,152.5,152.5,152.5
	c84.2,0,152.5-68.3,152.5-152.5C408,172.3,339.7,104,255.5,104z M311,312c-30.6,30.6-80.3,30.7-111,0c-30.6-30.6-30.7-80.3,0-111
	c30.7-30.7,80.3-30.7,111,0C341.6,231.7,341.7,281.3,311,312z M314.9,136.3l-18.4,32.2c-25.8-12.1-56.2-12.1-82.1,0l-18.4-32.2
	C232.7,118.2,277.1,117.6,314.9,136.3z M135.2,197.3l32.2,18.4c-12.1,25.9-12.2,56.9,0.8,83.4l-32.2,18.4
	C117.2,280.5,116.4,235.5,135.2,197.3z M197,377.1l18.4-32.3c25.3,11.5,54.8,11.5,80.2,0l18.4,32.3
	C277.7,394.7,234.2,395.2,197,377.1z M342.7,299c13-26.5,12.9-57.4,0.8-83.4l32.2-18.4c18.3,37,18.7,82-0.8,120.1L342.7,299z"/>
<path id="loading-6-icon" fill="#F68867" d="M51,236c9.4-97.8,87.2-175.6,185-185v40.2c-36.8,4.4-70.8,20.8-97.4,47.4
	s-43,60.6-47.4,97.4L51,236L51,236z M276,91.2c36.8,4.4,70.8,20.8,97.4,47.4s43,60.6,47.4,97.4H461c-9.4-97.8-87.2-175.6-185-185
	V91.2z M236,420.8c-36.8-4.4-70.8-20.8-97.4-47.4c-26.6-26.6-43-60.6-47.4-97.4H51c9.4,97.8,87.2,175.6,185,185V420.8z M420.8,276
	c-4.4,36.8-20.8,70.8-47.4,97.4c-26.6,26.6-60.6,43-97.4,47.4V461c97.8-9.4,175.6-87.2,185-185L420.8,276L420.8,276z"/>
</svg>
