<?xml version="1.0" encoding="utf-8"?>
<!-- Generator: Adobe Illustrator 18.1.0, SVG Export Plug-In . SVG Version: 6.00 Build 0)  -->
<!DOCTYPE svg PUBLIC "-//W3C//DTD SVG 1.1//EN" "http://www.w3.org/Graphics/SVG/1.1/DTD/svg11.dtd">
<svg version="1.1" id="Calque_1" xmlns="http://www.w3.org/2000/svg" xmlns:xlink="http://www.w3.org/1999/xlink" x="0px" y="0px"
	 viewBox="0 0 512 512" enable-background="new 0 0 512 512" xml:space="preserve">
<path id="recycling-12" fill="#B0C64B" d="M315.6,494.1c-15.6,4.3-31.8,7.1-48.7,7.9l1.8-41.6c11.5-0.8,22.7-2.5,33.5-5.4
	L315.6,494.1z M385.5,91.3c-13.4-9.5-27.9-17.5-43.1-23.8l-12.9,39.4c10.4,4.5,20.1,10.4,29.4,16.8L385.5,91.3z M33.3,233.4
	c-2.6,13.9-4.1,28.2-4.1,43c0,2.8,0.4,5.5,0.5,8.3l40.8-5.7c0-0.8-0.1-1.7-0.1-2.5c0-10.4,1-20.5,2.6-30.4L33.3,233.4z M401.6,103.9
	l-26.1,31.9c9.2,7.9,17.4,16.9,24.9,26.4l33.4-24.9C424.2,125.2,413.5,113.9,401.6,103.9z M101.6,173.8
	c29.7-44.2,77.9-75,133.4-81.1v39.7l61.5-61.6L235.2,9v42.1c-71.1,6.3-132.7,45.6-169.6,102.3L101.6,173.8z M321.7,448.4l13.5,39.4
	c15.2-5.7,29.6-13,43-21.8l-25.5-32.7C342.9,439.4,332.5,444.2,321.7,448.4z M38.1,213.3l39.2,12.4c3.5-12,8-23.5,13.8-34.3
	l-35.9-20.2C48.1,184.5,42.4,198.7,38.1,213.3z M452.5,386.6c18.4-32.7,29.1-70.2,29.1-110.3c0-45-13.3-86.9-35.9-122.1L412.3,179
	c17.6,28.2,28.1,61.5,28.1,97.3c0,33-9.1,63.7-24.3,90.5L379.8,347l24.5,83.8l83.8-24.5L452.5,386.6z M248.1,460.8
	c-65.3-2.6-122.2-39-152.9-92.5l36.4-21.1l-84.4-22.4l-22.4,84.2l34.8-20.2c37.6,65.3,106.9,109.7,186.8,112.8L248.1,460.8z"/>
<path fill="#B0C64B" d="M161.9,292.8l103.2-95.2l29.2-27L339,129l-90.1,126.1l97-10.2L174.6,424.4L271,283.2L161.9,292.8z"/>
</svg>
