<?xml version="1.0" encoding="utf-8"?>
<!-- Generator: Adobe Illustrator 18.1.1, SVG Export Plug-In . SVG Version: 6.00 Build 0)  -->
<svg version="1.1" id="Calque_1" xmlns="http://www.w3.org/2000/svg" xmlns:xlink="http://www.w3.org/1999/xlink" x="0px" y="0px"
	 viewBox="0 0 512 512" enable-background="new 0 0 512 512" xml:space="preserve">
<path id="calendar-5-icon" fill="#DDDDDD" d="M197.5,296h-58.9v-59h58.9V296z M397.4,118.1c0,10-8.1,18.2-18.2,18.2
	s-18.2-8.1-18.2-18.2V72.4c0-10,8.1-18.2,18.2-18.2s18.2,8.1,18.2,18.2V118.1z M151.9,72.3c0-10-8.1-18.2-18.2-18.2
	c-10,0-18.2,8.1-18.2,18.2V118c0,10,8.1,18.2,18.2,18.2c10,0,18.2-8.1,18.2-18.2V72.3z M419.4,98.9v18.6c0,22.1-18,40.1-40.1,40.1
	s-40.1-18-40.1-40.1V98.9H173.9v18.5c0,22.1-18,40.1-40.1,40.1s-40.1-18-40.1-40.1V98.9H50v359h412v-359L419.4,98.9L419.4,98.9z
	 M422,417.9H90V195.4h332V417.9z"/>
<polygon fill="#DDDDDD" points="284.5,325 195.5,325 136.5,325 136.5,384 195.5,384 284.5,384 373.5,384 373.5,325 "/>
<polygon fill="#DDDDDD" points="285.5,236 226.5,236 226.5,295 285.5,295 374.5,295 374.5,236 "/>
<circle id="circle-icon_2_" fill="#DDDDDD" stroke="#FFFFFF" stroke-width="24" stroke-miterlimit="10" cx="152" cy="163" r="133"/>
<g>
	<path fill="#FFFFFF" d="M133.1,191.2v-8.1c0-7,1.5-13,4.5-18.2s8.4-10.6,16.3-16.4c7.6-5.4,12.6-9.9,15.1-13.3
		c2.4-3.4,3.6-7.2,3.6-11.4c0-4.7-1.7-8.3-5.2-10.8s-8.3-3.7-14.6-3.7c-10.9,0-23.3,3.6-37.2,10.7l-11.9-23.8
		c16.2-9.1,33.4-13.6,51.5-13.6c15,0,26.8,3.6,35.7,10.8c8.8,7.2,13.2,16.8,13.2,28.7c0,8-1.8,14.9-5.4,20.7s-10.5,12.3-20.7,19.6
		c-7,5.2-11.4,9.1-13.2,11.8c-1.9,2.7-2.8,6.2-2.8,10.6v6.5h-28.9V191.2z M129.6,228.4c0-6.1,1.6-10.7,4.9-13.8s8-4.7,14.3-4.7
		c6,0,10.7,1.6,14,4.8s5,7.8,5,13.7c0,5.7-1.7,10.3-5,13.6s-8,5-13.9,5c-6.1,0-10.8-1.6-14.2-4.8
		C131.2,238.9,129.6,234.3,129.6,228.4z"/>
</g>
</svg>
