<?xml version="1.0" encoding="utf-8"?>
<!-- Generator: Adobe Illustrator 18.1.0, SVG Export Plug-In . SVG Version: 6.00 Build 0)  -->
<!DOCTYPE svg PUBLIC "-//W3C//DTD SVG 1.1//EN" "http://www.w3.org/Graphics/SVG/1.1/DTD/svg11.dtd">
<svg version="1.1" id="Calque_1" xmlns="http://www.w3.org/2000/svg" xmlns:xlink="http://www.w3.org/1999/xlink" x="0px" y="0px"
	 viewBox="0 0 512 512" enable-background="new 0 0 512 512" xml:space="preserve">
<path id="crosshair-icon" fill="#B0C64B" d="M256,90c44.3,0,86,17.3,117.4,48.6C404.7,170,422,211.7,422,256s-17.3,86-48.6,117.4
	C342,404.7,300.3,422,256,422s-86-17.3-117.4-48.6C107.3,342,90,300.3,90,256s17.3-86,48.6-117.4S211.7,90,256,90 M256,50
	C142.2,50,50,142.2,50,256s92.2,206,206,206s206-92.2,206-206S369.8,50,256,50L256,50z M272.3,390.5v-60.3h-32.6v60.3
	c-61.7-7.4-110.8-56.4-118.2-118.2h60.3v-32.6h-60.3c7.4-61.7,56.4-110.8,118.2-118.2v60.3h32.6v-60.3
	c61.7,7.4,110.8,56.4,118.2,118.2h-60.3v32.6h60.3C383.1,334,334.1,383.1,272.3,390.5z"/>
<path id="crosshair-icon_1_" fill="#B0C64B" d="M256,91c44.3,0,86,17.3,117.4,48.6C404.7,171,422,212.7,422,257s-17.3,86-48.6,117.4
	C342,405.7,300.3,423,256,423s-86-17.3-117.4-48.6C107.3,343,90,301.3,90,257s17.3-86,48.6-117.4S211.7,91,256,91 M256,51
	C142.2,51,50,143.2,50,257s92.2,206,206,206s206-92.2,206-206S369.8,51,256,51L256,51z"/>
</svg>
