<?xml version="1.0" encoding="utf-8"?>
<!-- Generator: Adobe Illustrator 18.1.0, SVG Export Plug-In . SVG Version: 6.00 Build 0)  -->
<!DOCTYPE svg PUBLIC "-//W3C//DTD SVG 1.1//EN" "http://www.w3.org/Graphics/SVG/1.1/DTD/svg11.dtd">
<svg version="1.1" id="Calque_1" xmlns="http://www.w3.org/2000/svg" xmlns:xlink="http://www.w3.org/1999/xlink" x="0px" y="0px"
	 viewBox="-948 2579.3 512 512" enable-background="new -948 2579.3 512 512" xml:space="preserve">
<path id="trash-can-icon" fill="#FFFFFF" d="M-523.4,2657.3v40h-337.1v-40h94.9c15.5,0,28-12.5,28-28h91.3c0,15.5,12.5,28,28,28
	H-523.4z M-541.7,2727.4v313.9h-300.7v-313.9H-541.7z M-750.7,2789.8c0-8.3-6.7-15-15-15s-15,6.7-15,15v190.2c0,8.3,6.7,15,15,15
	s15-6.7,15-15V2789.8z M-677,2789.8c0-8.3-6.7-15-15-15s-15,6.7-15,15v190.2c0,8.3,6.7,15,15,15s15-6.7,15-15V2789.8z
	 M-603.3,2789.8c0-8.3-6.7-15-15-15s-15,6.7-15,15v190.2c0,8.3,6.7,15,15,15s15-6.7,15-15V2789.8z"/>
</svg>
