<?xml version="1.0" encoding="utf-8"?>
<!-- Generator: Adobe Illustrator 18.1.1, SVG Export Plug-In . SVG Version: 6.00 Build 0)  -->
<svg version="1.1" id="Calque_1" xmlns="http://www.w3.org/2000/svg" xmlns:xlink="http://www.w3.org/1999/xlink" x="0px" y="0px"
	 viewBox="0 0 512 512" enable-background="new 0 0 512 512" xml:space="preserve">
<path id="loading-8-icon" fill="#B0C64B" d="M51,236c4-41.9,20.6-80.1,45.9-110.8l28.4,28.4c-18.8,23.9-30.5,52.2-34.1,82.4H51z
	 M276,51v40.2c30.2,3.6,58.5,15.3,82.4,34.1l28.4-28.4C356.1,71.6,317.9,55,276,51z M153.6,125.3c23.9-18.8,52.2-30.5,82.4-34.1V51
	c-41.9,4-80.1,20.6-110.8,45.9L153.6,125.3z M125.3,358.4c-18.8-23.9-30.5-52.2-34.1-82.4H51c4,41.9,20.6,80.1,45.9,110.8
	L125.3,358.4z M358.4,386.7c-23.9,18.8-52.2,30.5-82.4,34.1V461c41.9-4,80.1-20.6,110.8-45.9L358.4,386.7z M386.7,153.6
	c18.8,23.9,30.5,52.2,34.1,82.4H461c-4-41.9-20.6-80.1-45.9-110.8L386.7,153.6z M420.8,276c-3.6,30.2-15.3,58.5-34.1,82.4l28.4,28.4
	c25.3-30.7,41.9-69,45.9-110.8H420.8z M236,420.8c-30.2-3.6-58.5-15.3-82.4-34.1l-28.4,28.4c30.7,25.3,69,41.9,110.8,45.9V420.8z"/>
<path id="lifebuoy-icon" fill="#F68867" d="M255.5,104C171.3,104,103,172.3,103,256.5S171.3,409,255.5,409S408,340.7,408,256.5
	S339.7,104,255.5,104z M311,312c-30.6,30.6-80.3,30.7-111,0c-30.6-30.6-30.7-80.3,0-111s80.3-30.7,111,0
	C341.6,231.7,341.7,281.3,311,312z M314.9,136.3l-18.4,32.2c-25.8-12.1-56.2-12.1-82.1,0L196,136.3
	C232.7,118.2,277.1,117.6,314.9,136.3z M135.2,197.3l32.2,18.4c-12.1,25.9-12.2,56.9,0.8,83.4L136,317.5
	C117.2,280.5,116.4,235.5,135.2,197.3z M197,377.1l18.4-32.3c25.3,11.5,54.8,11.5,80.2,0l18.4,32.3
	C277.7,394.7,234.2,395.2,197,377.1z M342.7,299c13-26.5,12.9-57.4,0.8-83.4l32.2-18.4c18.3,37,18.7,82-0.8,120.1L342.7,299z"/>
</svg>
