<?xml version="1.0" encoding="utf-8"?>
<!-- Generator: Adobe Illustrator 18.1.0, SVG Export Plug-In . SVG Version: 6.00 Build 0)  -->
<!DOCTYPE svg PUBLIC "-//W3C//DTD SVG 1.1//EN" "http://www.w3.org/Graphics/SVG/1.1/DTD/svg11.dtd">
<svg version="1.1" id="Calque_1" xmlns="http://www.w3.org/2000/svg" xmlns:xlink="http://www.w3.org/1999/xlink" x="0px" y="0px"
	 viewBox="0 0 512 512" enable-background="new 0 0 512 512" xml:space="preserve">
<g>
	<path fill="#B0C64B" d="M258,127.2c-90.1,0-175.5,43.6-228.4,116.7l-10.9,15l10.9,15C82.6,347,168,390.6,258,390.6
		S433.5,347.1,486.4,274l10.9-15l-10.9-15C433.5,170.9,348.1,127.2,258,127.2z M328.3,223.9c0,14.2-11.5,25.8-25.8,25.8
		s-25.8-11.5-25.8-25.8s11.5-25.8,25.8-25.8S328.3,209.7,328.3,223.9z M258,339.5c-67.3,0-131.5-29.8-175.1-80.5
		c24.4-28.4,55.3-50.2,89.5-63.9c-5.3,11.7-8.2,24.7-8.2,38.3c0,51.8,42,93.9,93.9,93.9s93.9-42,93.9-93.9c0-13.7-3-26.6-8.2-38.3
		c34.2,13.7,65.1,35.5,89.5,63.9C389.5,309.7,325.3,339.5,258,339.5z"/>
</g>
</svg>
