<?xml version="1.0" encoding="utf-8"?>
<!-- Generator: Adobe Illustrator 18.1.0, SVG Export Plug-In . SVG Version: 6.00 Build 0)  -->
<!DOCTYPE svg PUBLIC "-//W3C//DTD SVG 1.1//EN" "http://www.w3.org/Graphics/SVG/1.1/DTD/svg11.dtd">
<svg version="1.1" id="Calque_1" xmlns="http://www.w3.org/2000/svg" xmlns:xlink="http://www.w3.org/1999/xlink" x="0px" y="0px"
	 viewBox="0 0 512 512" enable-background="new 0 0 512 512" xml:space="preserve">
<path id="calendar-5-icon" fill="#DDDDDD" d="M197.5,296h-58.9V237h58.9V296z M397.4,118.1c0,10-8.1,18.2-18.2,18.2
	s-18.2-8.1-18.2-18.2V72.4c0-10,8.1-18.2,18.2-18.2s18.2,8.1,18.2,18.2V118.1z M151.9,72.3c0-10-8.1-18.2-18.2-18.2
	c-10,0-18.2,8.1-18.2,18.2V118c0,10,8.1,18.2,18.2,18.2c10,0,18.2-8.1,18.2-18.2V72.3z M419.4,98.9v18.6c0,22.1-18,40.1-40.1,40.1
	c-22.1,0-40.1-18-40.1-40.1V98.9H173.9v18.5c0,22.1-18,40.1-40.1,40.1c-22.1,0-40.1-18-40.1-40.1V98.9H50v359h412v-359L419.4,98.9
	L419.4,98.9z M422,417.9H90V195.4h332V417.9z"/>
<polygon fill="#DDDDDD" points="284.5,325 195.5,325 136.5,325 136.5,384 195.5,384 284.5,384 373.5,384 373.5,325 "/>
<polygon fill="#DDDDDD" points="285.5,236 226.5,236 226.5,295 285.5,295 374.5,295 374.5,236 "/>
</svg>
