<?xml version="1.0" encoding="utf-8"?>
<!-- Generator: Adobe Illustrator 18.1.0, SVG Export Plug-In . SVG Version: 6.00 Build 0)  -->
<!DOCTYPE svg PUBLIC "-//W3C//DTD SVG 1.1//EN" "http://www.w3.org/Graphics/SVG/1.1/DTD/svg11.dtd">
<svg version="1.1" id="Calque_1" xmlns="http://www.w3.org/2000/svg" xmlns:xlink="http://www.w3.org/1999/xlink" x="0px" y="0px"
	 viewBox="0 0 512 512" enable-background="new 0 0 512 512" xml:space="preserve">
<path id="archive-10-icon" fill="#B0C64B" d="M444.8,259v203h-378V259h40v163h298V259H444.8z M297.8,320h-83.9
	c-9.7,0-17.5-7.8-17.5-17.5s7.8-17.5,17.5-17.5h83.9c9.7,0,17.5,7.8,17.5,17.5S307.4,320,297.8,320z M461.8,132v97H50.2v-97l76.6-82
	h259L461.8,132z M112.7,123.7h286.8L368.3,90H144.2L112.7,123.7z M421.8,189v-25.3H90.2V189H421.8z"/>
</svg>
