<?xml version="1.0" encoding="utf-8"?>
<!-- Generator: Adobe Illustrator 18.0.0, SVG Export Plug-In . SVG Version: 6.00 Build 0)  -->
<!DOCTYPE svg PUBLIC "-//W3C//DTD SVG 1.1//EN" "http://www.w3.org/Graphics/SVG/1.1/DTD/svg11.dtd">
<svg version="1.1" id="Calque_1" xmlns="http://www.w3.org/2000/svg" xmlns:xlink="http://www.w3.org/1999/xlink" x="0px" y="0px"
	 viewBox="0 0 512 512" enable-background="new 0 0 512 512" xml:space="preserve">
<path id="video-play-4-icon" fill="#666666" d="M276,50.5c65.8,6.4,125,44.1,158.4,102s36.5,128,9.2,188.2l-34.9-20.1
	C429,272.9,426,218,399.8,172.5C373.5,127,327.4,97,276,90.7V50.5z M423.6,375.3c-38.4,53.7-100.7,86.2-167.6,86.2
	s-129.1-32.4-167.6-86.2l34.9-20.1c31.1,41.4,80.1,66.3,132.7,66.3s101.6-24.9,132.7-66.3L423.6,375.3z M68.4,340.7
	c-27.3-60.1-24.3-130.3,9.2-188.2C111,94.6,170.2,56.9,236,50.5v40.3c-51.4,6.2-97.5,36.2-123.8,81.8C86,218,83,272.9,103.3,320.6
	L68.4,340.7z"/>
<polygon id="paper-plane-2-icon" fill="#666666" points="106.8,273.5 215.1,300 299.5,217.1 205.2,277.8 161.5,267.3 336.9,179.6 
	289.5,349.6 239.2,302.8 211.5,336.2 211.5,317.4 192.1,312.9 192.1,389.1 241,330.3 299.4,384.6 366.6,143.5 "/>
</svg>
