<?xml version="1.0" encoding="utf-8"?>
<!-- Generator: Adobe Illustrator 17.1.0, SVG Export Plug-In . SVG Version: 6.00 Build 0)  -->
<!DOCTYPE svg PUBLIC "-//W3C//DTD SVG 1.1//EN" "http://www.w3.org/Graphics/SVG/1.1/DTD/svg11.dtd">
<svg version="1.1" id="Calque_1" xmlns="http://www.w3.org/2000/svg" xmlns:xlink="http://www.w3.org/1999/xlink" x="0px" y="0px"
	 viewBox="0 0 512 512" enable-background="new 0 0 512 512" xml:space="preserve">
<path id="plus-5-icon" fill="#9D9191" d="M363.7,288.4h-76.2v76.2h-58.9v-76.2h-76.2v-58.9h76.2v-76.2h58.9v76.2h76.2V288.4z
	 M462,256c0,113.8-92.2,206-206,206S50,369.8,50,256S142.2,50,256,50S462,142.2,462,256z M422,256c0-91.8-74.3-166-166-166
	c-91.8,0-166,74.3-166,166c0,91.8,74.3,166,166,166C347.8,422,422,347.7,422,256z"/>
</svg>
