<?xml version="1.0" encoding="utf-8"?>
<!-- Generator: Adobe Illustrator 18.1.1, SVG Export Plug-In . SVG Version: 6.00 Build 0)  -->
<svg version="1.1" id="Calque_1" xmlns="http://www.w3.org/2000/svg" xmlns:xlink="http://www.w3.org/1999/xlink" x="0px" y="0px"
	 viewBox="0 0 512 512" enable-background="new 0 0 512 512" xml:space="preserve">
<path id="points" fill="#B0C64B" d="M153.5,289.2h-0.1c0.1-0.1,0.1-0.3,0.1-0.5V289.2z M221.7,238.8l2-1l-1,1H221.7z M68,440h111.5
	v-55H68V440z M331,441h111.5v-55H331V441z M300.5,414c0,24.9-20.1,45-45,45s-45-20.1-45-45s20.1-45,45-45S300.5,389.1,300.5,414z"/>
<path id="eye" fill="#B0C64B" d="M256.5,310.1c-83.3,0-159-57.3-206.5-126.9C98,116,173.6,69.9,256.5,69.9
	c83,0,159,45.3,205.5,112.9C417.9,256.3,342.3,310.1,256.5,310.1z M93.6,183.8c39.8,49.1,98.5,91.4,162.9,91.4
	c87.7,0,144.4-65.7,163-91c-39.5-46.5-97.7-79.3-163-79.3C171.7,104.9,113.9,160.7,93.6,183.8z M258.3,120.6
	c-38.3,0-69.4,31.1-69.4,69.4s31.1,69.4,69.4,69.4s69.4-31.1,69.4-69.4S296.6,120.6,258.3,120.6z M258.2,190
	c-9.8,9.8-25.7,9.8-35.5,0s-9.8-25.7,0-35.5s25.7-9.8,35.5,0C268,164.3,268,180.2,258.2,190z"/>
</svg>
