<?xml version="1.0" encoding="utf-8"?>
<!-- Generator: Adobe Illustrator 18.0.0, SVG Export Plug-In . SVG Version: 6.00 Build 0)  -->
<!DOCTYPE svg PUBLIC "-//W3C//DTD SVG 1.1//EN" "http://www.w3.org/Graphics/SVG/1.1/DTD/svg11.dtd">
<svg version="1.1" id="Calque_1" xmlns="http://www.w3.org/2000/svg" xmlns:xlink="http://www.w3.org/1999/xlink" x="0px" y="0px"
	 viewBox="0 0 612 792" enable-background="new 0 0 612 792" xml:space="preserve">
<path id="calendar-icon" fill="#B0C64B" d="M236.1,443.8h-70.4v-70.5h70.4V443.8z M342.5,373.3h-70.4v70.5h70.4V373.3z M448.8,373.3
	h-70.4v70.5h70.4V373.3z M236.1,476.1h-70.4v70.5h70.4V476.1z M342.5,476.1h-70.4v70.5h70.4V476.1z M448.8,476.1h-70.4v70.5h70.4
	V476.1z M475,231.2c0,12-9.7,21.8-21.8,21.8s-21.8-9.7-21.8-21.8v-54.6c0-12,9.7-21.8,21.8-21.8s21.8,9.7,21.8,21.8V231.2z
	 M181.6,176.4c0-12-9.7-21.8-21.8-21.8c-12,0-21.8,9.7-21.8,21.8V231c0,12,9.7,21.8,21.8,21.8c12,0,21.8-9.7,21.8-21.8V176.4z
	 M501.3,208.2v22.2c0,26.4-21.5,47.9-47.9,47.9s-47.9-21.5-47.9-47.9v-22.2H207.9v22.1c0,26.4-21.5,47.9-47.9,47.9
	S112,256.7,112,230.3v-22.1H59.8v429.1h492.5V208.2L501.3,208.2L501.3,208.2z M504.4,589.5H107.6v-266h396.8V589.5z"/>
</svg>
