<?xml version="1.0" encoding="utf-8"?>
<!-- Generator: Adobe Illustrator 18.1.0, SVG Export Plug-In . SVG Version: 6.00 Build 0)  -->
<!DOCTYPE svg PUBLIC "-//W3C//DTD SVG 1.1//EN" "http://www.w3.org/Graphics/SVG/1.1/DTD/svg11.dtd">
<svg version="1.1" id="Calque_1" xmlns="http://www.w3.org/2000/svg" xmlns:xlink="http://www.w3.org/1999/xlink" x="0px" y="0px"
	 viewBox="0 0 512 512" enable-background="new 0 0 512 512" xml:space="preserve">
<g>
	<path fill="#B0C64B" d="M239.8,278.2l-0.3-7.7c-0.9-15.1,4.1-30.5,17.4-46.4c9.5-11.2,17.2-20.7,17.2-30.8
		c0-10.4-6.8-17.2-21.6-17.7c-9.8,0-21.6,3.5-29.3,8.9l-10.1-32.2c10.6-6.2,28.4-12.1,49.4-12.1c39,0,56.8,21.6,56.8,46.1
		c0,22.5-13.9,37.3-25.1,49.7c-10.9,12.1-15.4,23.7-15.1,37v5.3H239.8z M232.1,319c0-15.7,10.9-26.9,26.3-26.9
		c16,0,26.3,11.2,26.6,26.9c0,15.4-10.6,26.9-26.6,26.9C242.8,345.9,232.1,334.4,232.1,319z"/>
</g>
<path id="time-6-icon" fill="#B0C64B" d="M461.5,239.5c0.3,14.1-0.8,27.9-3.3,41.7l-43.7-11.2c1.6-10.2,2.3-20.3,2-30.4H461.5z
	 M450.7,310.2L407,299c-3.6,9.8-8.1,19.2-13.4,28l36.8,26.1C438.7,339.8,445.6,325.4,450.7,310.2z M375.5,411.5
	c13.7-9.8,26.2-21.3,37.1-34.1l-36.9-26.2c-7,7.8-14.7,14.9-23,21.3L375.5,411.5z M49.6,244c0,113.8,92.2,206,206,206
	c34,0,66.1-8.2,94.4-22.8l-22.7-38.9C305.6,399,281.3,405,255.6,405c-88.9,0-161-72.1-161-161s72.1-161,161-161
	c43.8,0,87.5,17.5,116.5,45.9l-35.9,35.9l126.2,23l-23-126.2L403.9,97c-37.2-36.5-92.1-59-148.3-59C141.8,38,49.6,130.2,49.6,244z"
	/>
</svg>
