<?xml version="1.0" encoding="utf-8"?>
<!-- Generator: Adobe Illustrator 18.1.1, SVG Export Plug-In . SVG Version: 6.00 Build 0)  -->
<!DOCTYPE svg PUBLIC "-//W3C//DTD SVG 1.1//EN" "http://www.w3.org/Graphics/SVG/1.1/DTD/svg11.dtd">
<svg version="1.1" id="Calque_1" xmlns="http://www.w3.org/2000/svg" xmlns:xlink="http://www.w3.org/1999/xlink" x="0px" y="0px"
	 viewBox="0 0 512 512" enable-background="new 0 0 512 512" xml:space="preserve">
<path fill="#D6D6D6" d="M466.2,323.8L347,250.9L466.2,178c2.1-1.3,3.5-3.3,4.1-5.6c0.6-2.3,0.2-4.8-1.1-6.9l-35-57.3
	c-2.6-4.3-8.2-5.6-12.5-3l-113.8,69.6V41.5c0-5-4.1-9.1-9.1-9.1h-67.1c-5,0-9.1,4.1-9.1,9.1v133.4l-113.8-69.6
	c-4.3-2.6-9.9-1.3-12.5,3l-35,57.3c-1.3,2.1-1.6,4.5-1.1,6.9s2,4.4,4.1,5.6l119.2,72.9L64.4,323.8c-2.1,1.3-3.5,3.3-4.1,5.6
	c-0.6,2.3-0.2,4.8,1.1,6.9l35,57.3c2.6,4.3,8.2,5.6,12.5,3L222.7,327v133.4c0,5,4.1,9.1,9.1,9.1h67.1c5,0,9.1-4.1,9.1-9.1V327
	l113.8,69.6c4.3,2.6,9.9,1.3,12.5-3l35-57.3c1.3-2.1,1.6-4.5,1.1-6.9C469.7,327.1,468.2,325.1,466.2,323.8z"/>
</svg>
