<?xml version="1.0" encoding="utf-8"?>
<!-- Generator: Adobe Illustrator 18.0.0, SVG Export Plug-In . SVG Version: 6.00 Build 0)  -->
<!DOCTYPE svg PUBLIC "-//W3C//DTD SVG 1.1//EN" "http://www.w3.org/Graphics/SVG/1.1/DTD/svg11.dtd">
<svg version="1.1" id="Calque_1" xmlns="http://www.w3.org/2000/svg" xmlns:xlink="http://www.w3.org/1999/xlink" x="0px" y="0px"
	 viewBox="0 0 512 512" enable-background="new 0 0 512 512" xml:space="preserve">
<g>
	<path fill="#B0C64B" d="M256.1,256V50C142.5,50.2,50.4,142.3,50.4,256c0,56.8,23,108.2,60.2,145.5L256.1,256z"/>
</g>
<g>
	<path fill="#B0C64B" d="M464.4,253c0-101.8-73.9-186.4-171-203v35.6c76.8,15.9,136,84.1,136,167.4c0,33.8-9.7,66.1-27.9,93.6
		l0.4,0.4c-37.6,60.5-111.5,93.9-185.9,75.7c-18.8-4.6-36.4-12.2-52.2-22.4l-25.4,25.1c20.4,14.3,43.7,25.1,69.3,31.4
		c96.5,23.6,193.7-24.9,234.9-111.2C456.5,317.7,464.4,286.3,464.4,253z"/>
	<polygon fill="#B0C64B" points="293.4,50 293.4,50 293.4,50 	"/>
</g>
</svg>
