<?xml version="1.0" encoding="utf-8"?>
<!-- Generator: Adobe Illustrator 18.1.0, SVG Export Plug-In . SVG Version: 6.00 Build 0)  -->
<!DOCTYPE svg PUBLIC "-//W3C//DTD SVG 1.1//EN" "http://www.w3.org/Graphics/SVG/1.1/DTD/svg11.dtd">
<svg version="1.1" id="Calque_1" xmlns="http://www.w3.org/2000/svg" xmlns:xlink="http://www.w3.org/1999/xlink" x="0px" y="0px"
	 viewBox="0 0 512 512" enable-background="new 0 0 512 512" xml:space="preserve">
<g>
	<g>
		<g enable-background="new    ">
			<g enable-background="new    ">
				<defs>
					<path id="SVGID_1_" enable-background="new    " d="M94,128.3l19.2-21.1c-1.8,1.9-3.4,3.9-5.1,5.9l-19.2,21.1
						C90.5,132.2,92.2,130.3,94,128.3z"/>
				</defs>
				<clipPath id="SVGID_2_">
					<use xlink:href="#SVGID_1_"  overflow="visible"/>
				</clipPath>
				<g clip-path="url(#SVGID_2_)" enable-background="new    ">
					<path fill="#804736" d="M108,113.1l-19.2,21.1c1.6-2,3.3-4,5.1-5.9l19.2-21.1C111.4,109.1,109.7,111.1,108,113.1"/>
				</g>
			</g>
			<g enable-background="new    ">
				<defs>
					<path id="SVGID_3_" enable-background="new    " d="M418.5,383.8l-19.2,21.1c-27.3,30.1-67.6,48.4-115.7,48.4
						c-103.1,0-203.2-83.6-223.5-186.7c-5.5-28.1-4.6-54.7,1.8-78.6c0.4-1.7,0.7-2.6,1-3.5c0.2-0.7,0.4-1.5,0.7-2.2
						c0.1-0.4,0.3-0.9,0.4-1.3c5.3-16.8,13.6-32.6,24.9-46.7l19.2-21.1c-11.3,14.1-19.6,29.9-24.9,46.7c-0.1,0.4-0.3,0.8-0.4,1.3
						c-0.2,0.7-0.4,1.5-0.7,2.2c-0.3,0.9-0.5,1.8-1,3.5c-6.4,23.9-7.3,50.5-1.8,78.6c20.3,103.1,120.3,186.7,223.5,186.7
						C350.9,432.1,391.2,413.9,418.5,383.8z"/>
				</defs>
				<clipPath id="SVGID_4_">
					<use xlink:href="#SVGID_3_"  overflow="visible"/>
				</clipPath>
				<g clip-path="url(#SVGID_4_)" enable-background="new    ">
					<path fill="#804736" d="M418.5,383.8l-19.2,21.1c-27.3,30.1-67.6,48.4-115.7,48.4c-103.1,0-203.2-83.6-223.5-186.7
						c-5.5-28.1-4.6-54.7,1.8-78.6c0.4-1.7,0.7-2.6,1-3.5c0.2-0.7,0.4-1.5,0.7-2.2c0.1-0.4,0.3-0.9,0.4-1.3
						c5.3-16.8,13.6-32.6,24.9-46.7l19.2-21.1c-11.3,14.1-19.6,29.9-24.9,46.7c-0.1,0.4-0.3,0.8-0.4,1.3c-0.2,0.7-0.4,1.5-0.7,2.2
						c-0.3,0.9-0.5,1.8-1,3.5c-6.4,23.9-7.3,50.5-1.8,78.6c20.3,103.1,120.3,186.7,223.5,186.7C350.9,432.1,391.2,413.9,418.5,383.8
						"/>
				</g>
			</g>
			<g>
				<path fill="#F48766" d="M452.8,245.1c9.4,47.7,0.6,95.6-28.7,132c-27.2,34.1-69.8,55-121.4,55c-103.1,0-203.2-83.6-223.5-186.7
					c-5.5-28.1-4.6-54.7,1.8-78.6c0.4-1.7,0.7-2.6,1-3.5c0.2-0.7,0.4-1.5,0.7-2.2c0.1-0.4,0.3-0.9,0.4-1.3
					c5.3-16.8,13.6-32.6,24.9-46.7c27.2-33.6,69.7-54.4,121.2-54.4L265.9,245L452.8,245.1z"/>
			</g>
		</g>
	</g>
</g>
<g>
	<g>
		<g enable-background="new    ">
			<g>
				<polygon fill="#2D6373" points="447.5,211.8 428.3,232.9 396.1,232.9 415.2,211.8 				"/>
			</g>
			<g enable-background="new    ">
				<defs>
					<path id="SVGID_5_" enable-background="new    " d="M415.2,211.8l-19.2,21.1c-24.3-61.2-81.7-108.8-144.1-121.2l19.2-21.1
						C333.5,103,391,150.6,415.2,211.8z"/>
				</defs>
				<clipPath id="SVGID_6_">
					<use xlink:href="#SVGID_5_"  overflow="visible"/>
				</clipPath>
				<g clip-path="url(#SVGID_6_)" enable-background="new    ">
					<path fill="#2D6172" d="M415.2,211.8l-19.2,21.1c-24.3-61.2-81.7-108.8-144.1-121.2l19.2-21.1C333.5,103,391,150.6,415.2,211.8
						"/>
				</g>
			</g>
			<g>
				<polygon fill="#2C6070" points="271.1,90.6 251.9,111.8 245.6,79.5 264.7,58.4 				"/>
			</g>
			<g>
				<path fill="#55BAD9" d="M264.7,58.4c80.7,13.3,154.4,75.2,182.7,153.4h-32.2C391,150.6,333.5,103,271.1,90.6L264.7,58.4z"/>
			</g>
		</g>
	</g>
</g>
</svg>
