<?xml version="1.0" encoding="utf-8"?>
<!-- Generator: Adobe Illustrator 18.1.1, SVG Export Plug-In . SVG Version: 6.00 Build 0)  -->
<svg version="1.1" id="Calque_1" xmlns="http://www.w3.org/2000/svg" xmlns:xlink="http://www.w3.org/1999/xlink" x="0px" y="0px"
	 viewBox="0 0 512 512" enable-background="new 0 0 512 512" xml:space="preserve">
<path id="audited" opacity="0.25" fill="#666666" enable-background="new    " d="M327.2,78c0-2.7,0.4-4.7,1.1-6s1.7-2.1,2.9-2.2
	c1.2-0.2,2.4-0.1,3.6,0.2c1.2,0.3,2.1,0.6,2.7,0.9c6.9,3.9,11.8,7.5,15,10.9c3.1,3.4,4.7,5.9,4.7,7.4v103.2v56.5v62.7
	c0,1.8-1.5,4.6-4.5,8.3c-3,3.8-8,7.4-15,11.2c-7,3.8-16.3,7.1-27.8,10s-25.7,4.5-42.4,4.5c-17,0-31.5-1.5-43.2-4.5
	c-11.8-3-21.5-6.4-29.2-10c-7.6-3.8-13.2-7.4-16.6-11.2c-3.4-3.8-5.1-6.5-5.1-8.3v-62.7v-56.5V89.3c0-1.5,1.4-3.9,4.2-7.4
	c2.9-3.4,7.4-7.1,13.6-10.9c0.9-0.3,2-0.7,3.3-1.3c1.3-0.6,2.7-0.7,4-0.4s2.4,1.1,3.3,2.2c0.9,1.2,1.3,3.1,1.3,5.8v31.9
	c0,0.9,0.6,2.6,2,5.1c1.3,2.5,3.7,3.8,6.9,3.8s5.7-1.3,7.2-3.8s2.2-4.2,2.2-5.1V70.9c0-6,1-9.6,2.9-10.8c2-1.2,3.7-2,5.1-2.2
	c3-0.6,5.8-1.1,8.5-1.5s5.8-0.6,9.4-0.6c2.1,0,3.9,0.8,5.6,2.4s2.4,5.9,2.4,12.7V109c0,0.9,0.7,2.6,2.2,5.1s3.9,3.8,7.2,3.8
	s5.7-1.3,7.2-3.8s2.2-4.2,2.2-5.1V70.9c0-6.3,0.6-10.4,2-12.3c1.3-2,3.2-2.8,5.6-2.4c3.9,0.3,7.4,0.6,10.8,1.1
	c3.3,0.4,6.6,1,9.9,1.5c0.9,0.3,2.1,1.1,3.6,2.4s2.8,4.7,2.8,9.7V109c0,0.9,0.6,2.6,2,5.1c1.3,2.5,3.7,3.8,6.9,3.8
	c3.3,0,5.7-1.3,7.2-3.8s2.2-4.2,2.2-5.1L327.2,78L327.2,78z M267.9,393.3c23.9,0,44.4-2.2,61.4-6.7s31-10,41.9-16.3
	c10.9-6.5,18.9-13.2,24-20.4c5-7.2,7.6-13.5,7.6-18.8v-90.2c0-3.9-1.3-7.1-3.8-9.6s-5.7-3.8-9.6-3.8s-7.1,1.3-9.6,3.8
	s-3.8,5.7-3.8,9.6v88.7c-0.9,1.8-3.3,4.7-7.4,8.7c-4,4-10.2,8.1-18.6,12.1c-8.3,4-19.3,7.6-32.8,10.8s-29.9,4.7-49.3,4.7
	s-36.1-1.5-50-4.7s-25.4-6.8-34.5-10.9c-9.2-4.1-16-8.3-20.6-12.3c-4.7-4-7.4-6.9-8.3-8.7v-88.4c0-3.9-1.3-7.1-3.8-9.6
	s-5.7-3.8-9.6-3.8s-7.1,1.3-9.6,3.8s-3.8,5.7-3.8,9.6V331c0,5.7,2.9,12.1,8.7,19.3c5.8,7.2,14.6,14,26.5,20.4
	c11.8,6.5,26.5,11.8,44,16.2C224.2,391.1,244.6,393.3,267.9,393.3z M303.4,376.2V438h39.9c4.5,0,6.7,2.2,6.7,6.7v14.8
	c0,1.8-0.6,3.3-1.8,4.7c-1.2,1.3-2.9,2-4.9,2h-156c-1.8,0-3.3-0.6-4.7-2c-1.3-1.3-2-2.9-2-4.7v-14.8c0-2.1,0.6-3.8,2-4.9
	s2.9-1.8,4.7-1.8h40.4v-61.8L303.4,376.2L303.4,376.2z"/>
</svg>
