<?xml version="1.0" encoding="utf-8"?>
<!-- Generator: Adobe Illustrator 18.1.1, SVG Export Plug-In . SVG Version: 6.00 Build 0)  -->
<svg version="1.1" id="Calque_1" xmlns="http://www.w3.org/2000/svg" xmlns:xlink="http://www.w3.org/1999/xlink" x="0px" y="0px"
	 viewBox="0 0 512 512" enable-background="new 0 0 512 512" xml:space="preserve">
<g id="auditor" opacity="0.5">
	<path fill="#666666" d="M455.2,306.4c0-27-12.6-51-32.3-66.5v-21.9c0-89.7-73-162.7-162.7-162.7c-89.7,0-162.7,73-162.7,162.7v16
		c-24.5,14.9-40.8,41.6-40.8,72.4c0,46.8,37.9,84.6,84.6,84.6V221.8c-6,0-11.9,0.6-17.6,1.8v-5.6c0-75.2,61.2-136.4,136.4-136.4
		s136.4,61.2,136.4,136.4v7.9c-8.2-2.6-16.9-4-26-4v169.1c5.5,0,10.8-0.5,16-1.5c-8.6,18.2-28.1,45.7-69.5,53.6
		c-2.7-3-6.6-4.9-10.9-4.9h-26.4c-8.2,0-14.8,6.6-14.8,14.8c0,8.2,6.6,14.8,14.8,14.8h26.4c6.4,0,11.7-4,13.8-9.6
		c58.2-10.9,79.2-56.2,85.4-74.5C434.8,370.1,455.2,340.6,455.2,306.4z"/>
</g>
</svg>
