<?xml version="1.0" encoding="utf-8"?>
<!-- Generator: Adobe Illustrator 17.1.0, SVG Export Plug-In . SVG Version: 6.00 Build 0)  -->
<!DOCTYPE svg PUBLIC "-//W3C//DTD SVG 1.1//EN" "http://www.w3.org/Graphics/SVG/1.1/DTD/svg11.dtd">
<svg version="1.1" id="Calque_1" xmlns="http://www.w3.org/2000/svg" xmlns:xlink="http://www.w3.org/1999/xlink" x="0px" y="0px"
	 viewBox="0 0 512 512" enable-background="new 0 0 512 512" xml:space="preserve">
<g>
	<path fill="#4D93C6" d="M388.7,24.3H93.2v77.2H28.8v156.6h64.4v233.5h376.4V99.9L388.7,24.3z M88,215.1v-82.5h26.7
		c10.1,0,16.7,0.4,19.8,1.2c4.7,1.2,8.7,3.9,11.9,8c3.2,4.2,4.8,9.5,4.8,16c0,5.1-0.9,9.3-2.8,12.8c-1.8,3.5-4.1,6.2-7,8.2
		c-2.8,1.9-5.7,3.2-8.6,3.9c-4,0.8-9.7,1.2-17.2,1.2h-10.9v31.2L88,215.1L88,215.1z M442.2,464.2c-24.2,0-297.5,0-321.7,0
		c0-12.4,0-109.2,0-206.1h229.4V101.4H120.5c0-26.4,0-44.9,0-49.8c24.2,0,247.5,0,257.4,0c6.6,6.2,57.1,53.4,64.3,60.1
		C442.2,122.8,442.2,439.3,442.2,464.2z M164.9,215.1v-82.5h30.4c6.9,0,12.1,0.5,15.7,1.6c4.8,1.4,8.9,4,12.4,7.6
		c3.5,3.6,6.1,8.1,7.9,13.4c1.8,5.3,2.7,11.8,2.7,19.5c0,6.8-0.9,12.6-2.5,17.5c-2.1,6-5,10.8-8.8,14.6c-2.9,2.8-6.8,5-11.7,6.6
		c-3.7,1.2-8.6,1.8-14.8,1.8H164.9z M299.1,166v13.9h-34.4V215h-16.6v0v0v-82.5h56.6v14h-40V166C264.7,166,299.1,166,299.1,166z"/>
	<path fill="#4D93C6" d="M216.7,173.8c0-6.3-0.6-11.3-1.7-14.6c-1.1-3.4-2.7-6.1-4.8-8c-2-1.9-4.6-3.2-7.7-3.9
		c-2.4-0.5-6.9-0.8-13.6-0.8h-7.5v54.6h12.4c4.6,0,8-0.2,10-0.8c2.7-0.7,5-1.9,6.7-3.4c1.8-1.6,3.2-4.3,4.4-7.9
		C216.2,185.2,216.7,180.2,216.7,173.8z"/>
	<path fill="#4D93C6" d="M126.8,168.6c2.2-0.9,3.9-2.2,5.2-4c1.2-1.8,1.8-4,1.8-6.4c0-3-0.8-5.5-2.6-7.4c-1.7-1.9-4-3.1-6.7-3.7
		c-1.9-0.4-6-0.6-11.9-0.6h-8v23.4h9C120.2,169.9,124.6,169.5,126.8,168.6z"/>
</g>
</svg>
