<?xml version="1.0" encoding="utf-8"?>
<!-- Generator: Adobe Illustrator 17.1.0, SVG Export Plug-In . SVG Version: 6.00 Build 0)  -->
<!DOCTYPE svg PUBLIC "-//W3C//DTD SVG 1.1//EN" "http://www.w3.org/Graphics/SVG/1.1/DTD/svg11.dtd">
<svg version="1.1" id="Calque_1" xmlns="http://www.w3.org/2000/svg" xmlns:xlink="http://www.w3.org/1999/xlink" x="0px" y="0px"
	 viewBox="0 0 512 512" enable-background="new 0 0 512 512" xml:space="preserve">
<path fill="#020202" d="M49.9,373H147V110.7H49.9V373z M98.4,324.1c-12.2,0-22.1-9.9-22.1-22.1c0-12.2,9.9-22.1,22.1-22.1
	s22.1,9.9,22.1,22.1C120.6,314.2,110.6,324.1,98.4,324.1z M71.4,136.3h51.4v94.7H71.4V136.3z M71.4,238.9h51.4v9.8H71.4V238.9z
	 M78.3,144.2h37.5v15.9H78.3V144.2z M163.1,373h97.1V110.7h-97.1V373z M211.7,324.1c-12.2,0-22.1-9.9-22.1-22.1
	c0-12.2,9.9-22.1,22.1-22.1c12.2,0,22.1,9.9,22.1,22.1C233.8,314.2,223.9,324.1,211.7,324.1z M184.7,136.3h51.4v94.7h-51.4V136.3z
	 M184.7,238.9h51.4v9.8h-51.4V238.9z M191.5,144.2H229v15.9h-37.5V144.2z M362.2,102.1l-89.5,37.6l101.6,241.9l89.5-37.6
	L362.2,102.1z M302.5,154.9l47.4-19.9l36.7,87.3l-47.4,19.9L302.5,154.9z M342.2,249.6l47.4-19.9l3.8,9L346,258.6L342.2,249.6z
	 M400.1,317.7c-11.3,4.7-24.3-0.6-29-11.8c-4.7-11.3,0.6-24.3,11.8-29c11.3-4.7,24.3,0.6,29,11.8
	C416.7,299.9,411.4,312.9,400.1,317.7z M352.6,159.8L318,174.3l-6.2-14.7l34.6-14.5L352.6,159.8z"/>
</svg>
