<?xml version="1.0" encoding="utf-8"?>
<!-- Generator: Adobe Illustrator 18.0.0, SVG Export Plug-In . SVG Version: 6.00 Build 0)  -->
<!DOCTYPE svg PUBLIC "-//W3C//DTD SVG 1.1//EN" "http://www.w3.org/Graphics/SVG/1.1/DTD/svg11.dtd">
<svg version="1.1" id="Calque_1" xmlns="http://www.w3.org/2000/svg" xmlns:xlink="http://www.w3.org/1999/xlink" x="0px" y="0px"
	 viewBox="0 0 512 512" enable-background="new 0 0 512 512" xml:space="preserve">
<path id="warning-4-icon" fill="#B83232" d="M231.4,147.9h49.3V296h-49.3V147.9L231.4,147.9z M256,370.7
	c-14.7,0-26.6-11.8-26.6-26.3c0-14.6,11.9-26.3,26.6-26.3c14.7,0,26.6,11.8,26.6,26.3C282.6,358.9,270.7,370.7,256,370.7z
	 M256,108.1c82.4,0,149.1,66,149.1,147.7c0,81.6-66.6,147.7-149.1,147.7c-82.4,0-149.1-66-149.1-147.7
	C106.9,174.2,173.6,108.1,256,108.1z M256,72.5c-102.2,0-185,82-185,183.3S153.8,439,256,439s185-82,185-183.3S358.2,72.5,256,72.5z
	"/>
</svg>
