<?xml version="1.0" encoding="utf-8"?>
<!-- Generator: Adobe Illustrator 18.1.1, SVG Export Plug-In . SVG Version: 6.00 Build 0)  -->
<svg version="1.1" id="Calque_1" xmlns="http://www.w3.org/2000/svg" xmlns:xlink="http://www.w3.org/1999/xlink" x="0px" y="0px"
	 viewBox="0 0 512 512" enable-background="new 0 0 512 512" xml:space="preserve">
<path id="crosshair-icon" fill="#666666" d="M256,90c44.3,0,86,17.3,117.4,48.6C404.7,170,422,211.7,422,256s-17.3,86-48.6,117.4
	C342,404.7,300.3,422,256,422s-86-17.3-117.4-48.6C107.3,342,90,300.3,90,256s17.3-86,48.6-117.4S211.7,90,256,90 M256,50
	C142.2,50,50,142.2,50,256s92.2,206,206,206s206-92.2,206-206S369.8,50,256,50L256,50z"/>
<rect x="193.3" y="348.8" fill="#666666" width="32.5" height="53.9"/>
<rect x="242.6" y="348.8" fill="#666666" width="32.5" height="53.9"/>
<rect x="291" y="348.8" fill="#666666" width="32.5" height="53.9"/>
<path fill="#666666" d="M279.6,274.6c0,9.2-7.5,16.6-16.6,16.6c-8.8,0-16.1-6.9-16.6-15.6l-58.7-73L263,258
	C272.1,258,279.6,265.4,279.6,274.6z"/>
<polygon fill="#666666" points="158.5,302.3 172.9,316.7 145.9,343.8 131.4,329.3 "/>
<polygon fill="#666666" points="154.2,140.8 181.2,167.9 166.8,182.3 139.7,155.2 "/>
<rect x="242.9" y="111.9" fill="#666666" width="20.4" height="38.3"/>
<polygon fill="#666666" points="346.2,190 331.8,175.6 358.9,148.5 373.3,163 "/>
<rect x="366.1" y="231.5" fill="#666666" width="38.2" height="20.4"/>
<rect x="113.9" y="231.5" fill="#666666" width="38.2" height="20.4"/>
<polygon fill="#666666" points="353.2,306.4 380.3,333.4 365.9,347.9 338.8,320.8 "/>
</svg>
