<?xml version="1.0" encoding="utf-8"?>
<!-- Generator: Adobe Illustrator 18.0.0, SVG Export Plug-In . SVG Version: 6.00 Build 0)  -->
<!DOCTYPE svg PUBLIC "-//W3C//DTD SVG 1.1//EN" "http://www.w3.org/Graphics/SVG/1.1/DTD/svg11.dtd">
<svg version="1.1" id="Calque_1" xmlns="http://www.w3.org/2000/svg" xmlns:xlink="http://www.w3.org/1999/xlink" x="0px" y="0px"
	 viewBox="0 0 512 512" enable-background="new 0 0 512 512" xml:space="preserve">
<g>
	<g id="Shape_479_copy">
		<path fill="#ACA08A" d="M324.4,103.1c-34.1-19.8-67.6-30.2-89.2-28.6L94.4,317.7l159.9,90.6l139.1-242.1
			C383.9,146.7,358.4,122.9,324.4,103.1z"/>
	</g>
	<g id="Rectangle_40_copy">
		<path fill="#CDC2AE" d="M331,107c-18.5-10.7-36.7-18.6-53-23.4L125.5,350.2l69.1,39.9l155.1-271.2
			C343.7,114.8,337.6,110.8,331,107z"/>
	</g>
	<g id="Rectangle_40">
		<path fill="#F6EBD7" d="M235.2,74.5L95.1,316.4l14.4,5.6l37.4,28.9L297.8,89.6C273.5,78.7,251.1,73.4,235.2,74.5z"/>
	</g>
	<g id="Shape_481_copy">
		<path fill="#FFF7E6" d="M201.2,378.6c-15.2-32.4-51.7-32.1-51.7-32.1c-10.2-23.4-31.3-36-54.4-29.9c-0.3,2.8-2.3,168.9,0.6,170
			l158.8-78.9C229.6,372.1,201.2,378.6,201.2,378.6z"/>
	</g>
	<g id="Shape_479">
		<path fill="#43443D" d="M95.8,486.5l38.2-19c-8.1-8.2-21.4-18.3-39.7-21.7C94.4,469.1,94.9,486.2,95.8,486.5z"/>
	</g>
	<g id="Shape_480_copy">
		<path fill="#7F7667" d="M353.4,50.5c-52.9-30.7-82.6-33.9-98.8-5.9c-0.9,1.6-8.1,12-16.1,24.9c21.5-1.4,54.9,8.4,88.8,28.1
			c34.1,19.8,59.7,44.2,69,63.7c8.3-14.2,14.2-23.9,15.2-25.6C428.9,105.7,410.4,83.6,353.4,50.5z"/>
	</g>
</g>
</svg>
