<?xml version="1.0" encoding="utf-8"?>
<!-- Generator: Adobe Illustrator 17.1.0, SVG Export Plug-In . SVG Version: 6.00 Build 0)  -->
<!DOCTYPE svg PUBLIC "-//W3C//DTD SVG 1.1//EN" "http://www.w3.org/Graphics/SVG/1.1/DTD/svg11.dtd">
<svg version="1.1" id="Calque_1" xmlns="http://www.w3.org/2000/svg" xmlns:xlink="http://www.w3.org/1999/xlink" x="0px" y="0px"
	 viewBox="0 0 512 512" enable-background="new 0 0 512 512" xml:space="preserve">
<path fill="#9D9191" d="M240.8,352l80.1-62.8l23.9,23.1L240.1,411l-61.9-58.5l32.8-31.1L240.8,352z M321.1,177.9L296,154.2l-45,42.5
	l-45-42.5l-25,23.7l45,42.5L181,263l25.1,23.7l45-42.5l45,42.5l25.1-23.7l-45-42.5L321.1,177.9z M412.2,87.9V459H106.4V87.9h62.3
	v-9.4h50.2c4.5-17.2,20.8-29.9,40.3-29.9c19.6,0,35.9,12.8,40.4,29.9h50.2v9.4H412.2z M240.5,78.4h37.6c-3.7-6.4-10.6-11-18.8-11
	C251,67.6,244.1,72,240.5,78.4z M378.5,118.4h-28.6v18.8H168.6v-18.8H140v310.2h238.4L378.5,118.4L378.5,118.4z"/>
</svg>
