<?xml version="1.0" encoding="utf-8"?>
<!-- Generator: Adobe Illustrator 18.1.0, SVG Export Plug-In . SVG Version: 6.00 Build 0)  -->
<!DOCTYPE svg PUBLIC "-//W3C//DTD SVG 1.1//EN" "http://www.w3.org/Graphics/SVG/1.1/DTD/svg11.dtd">
<svg version="1.1" id="Calque_1" xmlns="http://www.w3.org/2000/svg" xmlns:xlink="http://www.w3.org/1999/xlink" x="0px" y="0px"
	 viewBox="0 0 512 512" enable-background="new 0 0 512 512" xml:space="preserve">
<g id="pie_chart_3_icon">
	<g>
		<g enable-background="new    ">
			<g>
				<polygon fill="#2C5F6F" points="299.4,99.5 280.3,122.5 278,92.7 297.1,69.7 				"/>
			</g>
			<g enable-background="new    ">
				<defs>
					<path id="SVGID_1_" enable-background="new    " d="M410.9,331.4l-19.1,23c14.2-20.9,20.7-46.8,18.6-75.1
						c-5.3-69.8-61.6-134.1-130.1-156.8l19.1-23c68.5,22.6,124.8,87,130.1,156.8C431.6,284.6,425.1,310.4,410.9,331.4z"/>
				</defs>
				<clipPath id="SVGID_2_">
					<use xlink:href="#SVGID_1_"  overflow="visible"/>
				</clipPath>
				<g clip-path="url(#SVGID_2_)" enable-background="new    ">
					<path fill="#2D6172" d="M410.9,331.4l-19.1,23c14.2-20.9,20.7-46.8,18.6-75.1c-5.3-69.8-61.6-134.1-130.1-156.8l19.1-23
						c68.5,22.6,124.8,87,130.1,156.8C431.6,284.6,425.1,310.4,410.9,331.4"/>
				</g>
			</g>
			<g>
				<polygon fill="#2E6576" points="434.6,355.5 415.5,378.5 391.8,354.4 410.9,331.4 				"/>
			</g>
			<g>
				<path fill="#55BADA" d="M297.1,69.7c86.4,25.7,156.7,105.5,163.1,190.9c2.8,37-6.9,69.7-25.6,95l-23.7-24.2
					c14.2-20.9,20.7-46.8,18.6-75.1c-5.3-69.8-61.6-134.1-130.1-156.8L297.1,69.7z"/>
			</g>
		</g>
	</g>
</g>
<g id="pie_chart_3_icon_1_">
	<g>
		<g enable-background="new    ">
			<g enable-background="new    ">
				<defs>
					<path id="SVGID_3_" enable-background="new    " d="M86,139.7l19.1-23c-22.6,27.2-34.5,63.6-31.4,105.4
						c7.6,100,98.7,192.8,203.6,207.3c52.4,7.2,98.4-6.5,130.3-34.5l-19.1,23c-31.9,28-77.9,41.7-130.3,34.5
						c-104.9-14.5-196-107.2-203.6-207.3C51.4,203.3,63.4,166.9,86,139.7z"/>
				</defs>
				<clipPath id="SVGID_4_">
					<use xlink:href="#SVGID_3_"  overflow="visible"/>
				</clipPath>
				<g clip-path="url(#SVGID_4_)" enable-background="new    ">
					<path fill="#804736" d="M407.6,394.9l-19.1,23c-31.9,28-77.9,41.7-130.3,34.5c-104.9-14.5-196-107.2-203.6-207.3
						c-3.2-41.8,8.8-78.2,31.4-105.4l19.1-23c-22.6,27.2-34.5,63.6-31.4,105.4c7.6,100,98.7,192.8,203.6,207.3
						C329.7,436.7,375.6,422.9,407.6,394.9"/>
				</g>
			</g>
			<g>
				<path fill="#F48766" d="M249.9,67.3l13.7,181.1l144,146.6c-31.9,28-77.9,41.7-130.3,34.5C172.4,415,81.3,322.2,73.7,222.2
					C66.2,122.1,145,52.8,249.9,67.3z"/>
			</g>
		</g>
	</g>
</g>
</svg>
