<?xml version="1.0" encoding="utf-8"?>
<svg
  width="128"
  height="128"
  viewBox="0 0 128 128"
  xmlns="http://www.w3.org/2000/svg"
>
  <path
    d="M64 112c26.51 0 48-21.49 48-48S90.51 16 64 16 16 37.49 16 64s21.49 48 48 48zm3.7-58.75l4.544-17.241C72.777 33.986 71.268 32 69.2 32H51.35c-1.579 0-2.914 1.183-3.122 2.766l-4.2 31.875c-.252 1.911 1.22 3.609 3.122 3.609h15.58l-6.045 25.828c-.472 2.016 1.051 3.922 3.064 3.922 1.096 0 2.15-.58 2.727-1.59l23.097-40.375c1.213-2.121-.3-4.785-2.727-4.785H67.7z"
    fill="#FFF"
    fill-rule="evenodd"
  />
</svg>
