<?xml version="1.0" encoding="utf-8"?>
<!-- Generator: Adobe Illustrator 18.1.0, SVG Export Plug-In . SVG Version: 6.00 Build 0)  -->
<!DOCTYPE svg PUBLIC "-//W3C//DTD SVG 1.1//EN" "http://www.w3.org/Graphics/SVG/1.1/DTD/svg11.dtd">
<svg version="1.1" id="Calque_1" xmlns="http://www.w3.org/2000/svg" xmlns:xlink="http://www.w3.org/1999/xlink" x="0px" y="0px"
	 viewBox="0 0 512 512" enable-background="new 0 0 512 512" xml:space="preserve">
<g>
	<g>
		<g enable-background="new    ">
			<g>
				<polygon fill="#2C5F6F" points="237.3,79 221.3,102.6 210.5,71.5 226.6,47.9 				"/>
			</g>
			<g enable-background="new    ">
				<defs>
					<path id="SVGID_1_" enable-background="new    " d="M398.3,326.2l-16,23.6c6.8-10,12-21.1,15.5-32.9
						c7.4-26.5,6.5-55.8-3.6-85.1c-10.2-29.3-28.8-56.1-53.3-77.8c-33.3-30.1-76.4-49-119.6-51.5l16-23.6
						c43.2,2.5,86.4,21.3,119.6,51.5c24.5,21.7,43,48.5,53.3,77.8c10.1,29.3,11.1,58.6,3.6,85.1
						C410.4,305.2,405.1,316.2,398.3,326.2z"/>
				</defs>
				<clipPath id="SVGID_2_">
					<use xlink:href="#SVGID_1_"  overflow="visible"/>
				</clipPath>
				<g clip-path="url(#SVGID_2_)" enable-background="new    ">
					<path fill="#2D6172" d="M398.3,326.2l-16,23.6c6.8-10,12-21.1,15.5-32.9c7.4-26.5,6.5-55.8-3.6-85.1
						c-10.2-29.3-28.8-56.1-53.3-77.8c-33.3-30.1-76.4-49-119.6-51.5l16-23.6c43.2,2.5,86.4,21.3,119.6,51.5
						c24.5,21.7,43,48.5,53.3,77.8c10.1,29.3,11.1,58.6,3.6,85.1C410.4,305.2,405.1,316.2,398.3,326.2"/>
				</g>
			</g>
			<g>
				<polygon fill="#2C5F6F" points="349.8,402.9 333.8,426.5 323,395.4 339,371.8 				"/>
			</g>
			<g enable-background="new    ">
				<defs>
					<path id="SVGID_3_" enable-background="new    " d="M427.1,346l-16,23.6c-17.7,26-44.1,46-77.3,56.9l16-23.6
						C383,392.1,409.5,372,427.1,346z"/>
				</defs>
				<clipPath id="SVGID_4_">
					<use xlink:href="#SVGID_3_"  overflow="visible"/>
				</clipPath>
				<g clip-path="url(#SVGID_4_)" enable-background="new    ">
					<path fill="#2D6172" d="M427.1,346l-16,23.6c-17.7,26-44.1,46-77.3,56.9l16-23.6C383,392.1,409.5,372,427.1,346"/>
				</g>
			</g>
			<g>
				<path fill="#55B9D8" d="M226.6,47.9c92.2,2.2,184.1,66.7,215,155.6c31.1,89.5-9.6,172.7-91.7,199.4L339,371.8
					c37.5-13.8,64.2-42.5,74.8-78.5c7.4-26.5,6.5-55.8-3.6-85.1C400,179,381.5,152.1,357,130.4c-33.3-30.1-76.4-49-119.6-51.5
					L226.6,47.9z"/>
			</g>
		</g>
	</g>
</g>
<g>
	<g>
		<g enable-background="new    ">
			<g enable-background="new    ">
				<defs>
					<path id="SVGID_5_" enable-background="new    " d="M67.4,139l16-23.6C57.5,153.5,50.6,204.3,69,257.2
						c34.4,99.2,144.9,168,246.9,153.8l-16,23.6c-102,14.1-212.5-54.6-246.9-153.8C34.6,227.9,41.5,177.1,67.4,139z"/>
				</defs>
				<clipPath id="SVGID_6_">
					<use xlink:href="#SVGID_5_"  overflow="visible"/>
				</clipPath>
				<g clip-path="url(#SVGID_6_)" enable-background="new    ">
					<path fill="#804736" d="M315.9,411l-16,23.6c-102,14.1-212.5-54.6-246.9-153.8C34.6,227.9,41.5,177.1,67.4,139l16-23.6
						C57.5,153.5,50.6,204.3,69,257.2C103.4,356.4,213.9,425.1,315.9,411"/>
				</g>
			</g>
			<g>
				<path fill="#F38666" d="M191.1,51.5L315.9,411c-102,14.1-212.5-54.6-246.9-153.8C34.5,158,89.2,66,191.1,51.5z"/>
			</g>
		</g>
	</g>
</g>
</svg>
