<?xml version="1.0" encoding="utf-8"?>
<!-- Generator: Adobe Illustrator 18.1.0, SVG Export Plug-In . SVG Version: 6.00 Build 0)  -->
<!DOCTYPE svg PUBLIC "-//W3C//DTD SVG 1.1//EN" "http://www.w3.org/Graphics/SVG/1.1/DTD/svg11.dtd">
<svg version="1.1" id="Calque_1" xmlns="http://www.w3.org/2000/svg" xmlns:xlink="http://www.w3.org/1999/xlink" x="0px" y="0px"
	 viewBox="0 0 512 512" enable-background="new 0 0 512 512" xml:space="preserve">
<path id="calendar-5-icon" fill="#DDDDDD" d="M397.4,118.1c0,10-8.1,18.2-18.2,18.2s-18.2-8.1-18.2-18.2V72.4
	c0-10,8.1-18.2,18.2-18.2s18.2,8.1,18.2,18.2V118.1z M151.9,72.3c0-10-8.1-18.2-18.2-18.2c-10,0-18.2,8.1-18.2,18.2V118
	c0,10,8.1,18.2,18.2,18.2c10,0,18.2-8.1,18.2-18.2V72.3z M419.4,98.9v18.6c0,22.1-18,40.1-40.1,40.1c-22.1,0-40.1-18-40.1-40.1V98.9
	H173.9v18.5c0,22.1-18,40.1-40.1,40.1c-22.1,0-40.1-18-40.1-40.1V98.9H50v359h412v-359L419.4,98.9L419.4,98.9z M422,417.9H90V195.4
	h332V417.9z"/>
<polygon fill="#DDDDDD" points="284.5,236 195.5,236 136.5,236 136.5,295 195.5,295 284.5,295 373.5,295 373.5,236 "/>
<polygon fill="#DDDDDD" points="224.5,326 283.5,326 283.5,385 224.5,385 135.5,385 135.5,326 "/>
<rect x="315.5" y="326" fill="#DDDDDD" width="58.9" height="58.9"/>
</svg>
