<?xml version="1.0" encoding="utf-8"?>
<!-- Generator: Adobe Illustrator 18.1.0, SVG Export Plug-In . SVG Version: 6.00 Build 0)  -->
<!DOCTYPE svg PUBLIC "-//W3C//DTD SVG 1.1//EN" "http://www.w3.org/Graphics/SVG/1.1/DTD/svg11.dtd">
<svg version="1.1" id="Calque_1" xmlns="http://www.w3.org/2000/svg" xmlns:xlink="http://www.w3.org/1999/xlink" x="0px" y="0px"
	 viewBox="0 0 512 512" enable-background="new 0 0 512 512" xml:space="preserve">
<polygon fill="#DDDDDD" points="224.5,326 283.5,326 283.5,385 224.5,385 135.5,385 135.5,326 "/>
<rect x="315.5" y="326" fill="#DDDDDD" width="58.9" height="58.9"/>
<g>
	<path fill="#DDDDDD" d="M133.7,136.2c10,0,18.2-8.1,18.2-18.2V72.3c0-10-8.1-18.2-18.2-18.2c-10,0-18.2,8.1-18.2,18.2V118
		C115.5,128,123.6,136.2,133.7,136.2z"/>
	<path fill="#DDDDDD" d="M422,269.1v148.8H90V195.4h140.9c-4.5-13.3-6.9-27.6-6.9-42.4c0-19.3,4.1-37.6,11.5-54.1h-61.6v18.5
		c0,22.1-18,40.1-40.1,40.1c-22.1,0-40.1-18-40.1-40.1V98.9H50v359h412V234.6C451.1,248.6,437.5,260.3,422,269.1z"/>
</g>
<path fill="#DDDDDD" d="M357,286c-42.1,0-79.5-19.5-103.9-50h-57.6h-59v59h59h89h89v-10C368.1,285.7,362.6,286,357,286z"/>
<circle id="circle-icon_2_" fill="#DDDDDD" stroke="#FFFFFF" stroke-width="24" stroke-miterlimit="10" cx="357" cy="153" r="133"/>
<g>
	<path fill="#FFFFFF" d="M338.1,181.2v-8.1c0-7,1.5-13,4.5-18.2c3-5.2,8.4-10.6,16.3-16.4c7.6-5.4,12.6-9.9,15.1-13.3
		c2.4-3.4,3.6-7.2,3.6-11.4c0-4.7-1.7-8.3-5.2-10.8c-3.5-2.5-8.3-3.7-14.6-3.7c-10.9,0-23.3,3.6-37.2,10.7l-11.9-23.8
		c16.2-9.1,33.4-13.6,51.5-13.6c15,0,26.8,3.6,35.7,10.8c8.8,7.2,13.2,16.8,13.2,28.7c0,8-1.8,14.9-5.4,20.7
		c-3.6,5.8-10.5,12.3-20.7,19.6c-7,5.2-11.4,9.1-13.2,11.8c-1.9,2.7-2.8,6.2-2.8,10.6v6.5H338.1z M334.6,218.4
		c0-6.1,1.6-10.7,4.9-13.8c3.3-3.1,8-4.7,14.3-4.7c6,0,10.7,1.6,14,4.8c3.3,3.2,5,7.8,5,13.7c0,5.7-1.7,10.3-5,13.6
		c-3.3,3.3-8,5-13.9,5c-6.1,0-10.8-1.6-14.2-4.8C336.2,228.9,334.6,224.3,334.6,218.4z"/>
</g>
</svg>
