<?xml version="1.0" encoding="utf-8"?>
<!-- Generator: Adobe Illustrator 18.1.1, SVG Export Plug-In . SVG Version: 6.00 Build 0)  -->
<svg version="1.1" id="Calque_1" xmlns="http://www.w3.org/2000/svg" xmlns:xlink="http://www.w3.org/1999/xlink" x="0px" y="0px"
	 viewBox="0 0 512 512" enable-background="new 0 0 512 512" xml:space="preserve">
<path fill="#644D52" d="M479.2,0H32.7C14.6,0,0,14.6,0,32.7v446.5c0,18,14.6,32.6,32.7,32.6h446.4c18.1,0,32.7-14.6,32.7-32.6V32.7
	C511.8,14.6,497.2,0,479.2,0z"/>
<g id="c109_expand">
	<path fill="#FFFFFF" d="M324.9,111.1l-62.1-60.5c0,0-4.1-4.8-8.4-0.5c-5.9,5.9-60.6,62.4-60.6,62.4s-7.5,7.5,2.5,7.5s26.1,0,26.1,0
		s0,4.4,0,11c0,20.6,0,60.6,0,75.9c0,0-0.1,3.6,4.6,3.6c4.6,0,57.4,0,63.9,0s5.4-4.2,5.4-4.2c0-15.8,0-54.5,0-75.8
		c0-7.4,0-12.2,0-12.2s19.9,0,28.2,0C332.5,118.3,324.9,111.1,324.9,111.1z"/>
	<path fill="#FFFFFF" d="M226.8,280c-4.6,0-4.5,3.6-4.5,3.6c0,15.3,0,55.3,0,75.9c0,6.7,0,11,0,11s-16,0-26,0s-2.5,7.5-2.5,7.5
		s54.7,56.4,60.6,62.4c4.3,4.3,8.4-0.5,8.4-0.5l62.2-60.5c0,0,7.6-7.2-0.7-7.1c-8.3,0-28.2,0-28.2,0s0-4.8,0-12.3
		c0-21.3,0-60,0-75.7c0,0,1.1-4.3-5.3-4.3C284.2,280,231.5,280,226.8,280z"/>
</g>
<g id="Capa_1">
</g>
</svg>
