<?xml version="1.0" encoding="utf-8"?>
<!-- Generator: Adobe Illustrator 17.1.0, SVG Export Plug-In . SVG Version: 6.00 Build 0)  -->
<!DOCTYPE svg PUBLIC "-//W3C//DTD SVG 1.1//EN" "http://www.w3.org/Graphics/SVG/1.1/DTD/svg11.dtd">
<svg version="1.1" id="Calque_1" xmlns="http://www.w3.org/2000/svg" xmlns:xlink="http://www.w3.org/1999/xlink" x="0px" y="0px"
	 viewBox="0 0 512 512" enable-background="new 0 0 512 512" xml:space="preserve">
<path id="flag-icon" fill="#B0C64B" stroke="#565E0B" stroke-width="12" stroke-miterlimit="10" d="M120.2,462H74.1V50h46.1
	C120.2,50,120.2,462,120.2,462z M437.9,80.7c0,0-29.1,25.6-67.3,25.6c-60.3,0-61.6-51.9-131.6-51.9c-37.8,0-73.1,17.6-88,30.4
	c0,12.6,0,216.8,0,216.8c21.2-14.7,53.4-30.1,88.3-30.1c66.1,0,75.3,49.4,134.2,49.4c38,0,64.4-24.4,64.4-24.4L437.9,80.7
	L437.9,80.7z"/>
</svg>
