<?xml version="1.0" encoding="utf-8"?>
<!-- Generator: Adobe Illustrator 18.0.0, SVG Export Plug-In . SVG Version: 6.00 Build 0)  -->
<!DOCTYPE svg PUBLIC "-//W3C//DTD SVG 1.1//EN" "http://www.w3.org/Graphics/SVG/1.1/DTD/svg11.dtd">
<svg version="1.1" id="Calque_1" xmlns="http://www.w3.org/2000/svg" xmlns:xlink="http://www.w3.org/1999/xlink" x="0px" y="0px"
	 viewBox="0 0 512 512" enable-background="new 0 0 512 512" xml:space="preserve">
<path fill="#B83232" d="M254.5,71.5c-102.2,0-185,82.8-185,185s82.8,185,185,185s185-82.8,185-185S356.7,71.5,254.5,71.5z
	 M254.5,406.8c-83,0-150.3-67.3-150.3-150.3s67.3-150.3,150.3-150.3s150.3,67.3,150.3,150.3S337.5,406.8,254.5,406.8z M363.4,240.1
	l-92.5-92.5c-9-9-23.7-9-32.7,0c-9,9-9,23.7,0,32.7l53,53H162c-12.8,0-23.1,10.4-23.1,23.1c0,12.8,10.4,23.1,23.1,23.1h129.2l-53,53
	c-9,9-9,23.7,0,32.7c4.5,4.5,10.4,6.8,16.4,6.8c5.9,0,11.8-2.3,16.4-6.8l92.5-92.5C372.4,263.8,372.4,249.2,363.4,240.1z"/>
</svg>
