<?xml version="1.0" encoding="utf-8"?>
<!-- Generator: Adobe Illustrator 18.0.0, SVG Export Plug-In . SVG Version: 6.00 Build 0)  -->
<!DOCTYPE svg PUBLIC "-//W3C//DTD SVG 1.1//EN" "http://www.w3.org/Graphics/SVG/1.1/DTD/svg11.dtd">
<svg version="1.1" id="Calque_1" xmlns="http://www.w3.org/2000/svg" xmlns:xlink="http://www.w3.org/1999/xlink" x="0px" y="0px"
	 viewBox="0 0 512 512" enable-background="new 0 0 512 512" xml:space="preserve">
<path fill="#BABABA" d="M151.2,461.7L151.2,461.7c0-164.8,133.4-298.3,298.3-298.3l0,0V57.5l0,0c-223.2,0-404.2,181-404.2,404.2l0,0
	H151.2z"/>
<path id="time-10-icon_1_" display="none" d="M437.7,264.2c0,94.8-76.9,171.7-171.7,171.7S94.3,359,94.3,264.2S171.2,92.5,266,92.5
	C360.8,92.5,437.7,169.4,437.7,264.2z M392.7,264.2c0-70-56.7-126.7-126.7-126.7s-126.7,56.7-126.7,126.7S196,390.9,266,390.9
	C336,390.9,392.7,334.2,392.7,264.2z M299.3,273.2c0,17.4-14.1,31.5-31.5,31.5s-31.5-14.1-31.5-31.5c0-11.3,6-21.2,14.9-26.8
	l11.5-86.6c0.2-1.9,1.9-3.4,3.8-3.5c2,0,3.7,1.4,4,3.3l13.3,86.4C293.1,251.6,299.3,261.7,299.3,273.2z M157,253.9v20h26v-20H157z
	 M196.3,179l-14.1,14.1l17.2,17.2l14.1-14.1L196.3,179z"/>
<path fill="#BABABA" d="M467.2,420.2c0,30.1-24.4,54.5-54.5,54.5s-54.5-24.4-54.5-54.5c0-19.5,10.3-36.7,25.8-46.3l20-149.7
	c0.4-3.4,3.2-5.9,6.6-6s6.3,2.4,6.9,5.7l23.1,149.5C456.5,382.9,467.2,400.3,467.2,420.2z"/>
</svg>
