<?xml version="1.0" encoding="utf-8"?>
<!-- Generator: Adobe Illustrator 18.1.0, SVG Export Plug-In . SVG Version: 6.00 Build 0)  -->
<!DOCTYPE svg PUBLIC "-//W3C//DTD SVG 1.1//EN" "http://www.w3.org/Graphics/SVG/1.1/DTD/svg11.dtd">
<svg version="1.1" id="humans" xmlns="http://www.w3.org/2000/svg" xmlns:xlink="http://www.w3.org/1999/xlink" x="0px" y="0px"
	 viewBox="50 -140 612 792" enable-background="new 50 -140 612 792" xml:space="preserve">
<path fill="#56BBDB" d="M553.7,299.5c0-5.7-2.2-9.8-6.7-12.2l-66.7-31.8c7.8-4.9,14-11.8,18.7-20.8c4.7-9,7-19.2,7-30.6
	c0-15.9-4.8-29.6-14.4-41c-9.6-11.4-21.3-17.1-35.2-17.1c-4.9,0-9.5,0.8-13.8,2.4c-4.3,1.6-8.3,3.7-11.9,6.1
	c4.5,12.2,6.7,24.7,6.7,37.3c0,20-5.3,38.1-15.9,54.5c2,2,4,3.9,5.8,5.5c1.8,1.6,3.8,3.1,5.8,4.3l43.5,20.2
	c6.1,3.3,11,7.9,14.7,13.8s5.5,12.5,5.5,19.9v56.3h45.9c3.3,0,5.9-1.3,8-4c2-2.6,3.1-5.8,3.1-9.5L553.7,299.5L553.7,299.5z
	 M476,309.9c0-7.3-2.9-12.2-8.6-14.7L409.2,267l-24.5-11.6c5.3-3.3,10.1-7.4,14.4-12.5c4.3-5.1,7.9-10.9,10.7-17.4
	c2-4.9,3.8-10.2,5.2-15.9c1.4-5.7,2.1-11.6,2.1-17.7c0-3.3-0.2-6.4-0.6-9.5s-1-6.2-1.8-9.5c-3.7-15.5-10.9-28.2-21.7-37.9
	s-23.4-14.7-37.6-14.7s-26.7,4.8-37.3,14.4s-17.7,21.7-21.4,36.4c-2,7.3-3.1,14.3-3.1,20.8c0,12.2,2.7,24.1,8,35.5
	c6.1,12.2,14.5,21.8,25.1,28.8l-23.3,11l-60,27.5c-6.1,2.9-9.2,8-9.2,15.3v56.3v9.8c0,4.5,1.3,8.3,4,11.3s6,4.6,10.1,4.6h214.2
	c3.7,0,6.8-1.5,9.5-4.6c2.7-3.1,4-6.8,4-11.3v-9.8L476,309.9L476,309.9z M214,309.9c0-7.3,1.8-14,5.5-19.9s8.6-10.5,14.7-13.8
	l45.3-20.8c4.1-2.4,7.3-5.3,9.8-8.6c-5.3-7.8-9.4-16.3-12.2-25.7c-2.9-9.4-4.3-19.2-4.3-29.4c0-6.9,0.7-13.6,2.1-19.9
	c1.4-6.3,3.2-12.3,5.2-18.1c-7.3-5.3-15.5-8-24.5-8c-13.9,0-25.6,5.7-35.2,17.1c-9.6,11.4-14.4,25.1-14.4,41
	c0,11.4,2.4,21.7,7.3,30.9s11.4,16.2,19.6,21.1l-67.9,31.2c-4.5,2-6.7,6.1-6.7,12.2v53.2c0,3.7,1,6.8,3.1,9.5c2,2.7,4.7,4,8,4H214
	L214,309.9L214,309.9z M356-50c42,0,81.7,8.1,119,24.2s69.8,37.9,97.3,65.5s49.4,60,65.5,97.3S662,214,662,256
	c0,28.2-3.7,55.3-11,81.4c-7.3,26.1-17.6,50.5-30.9,73.1c-13.3,22.6-29.2,43.2-47.7,61.8c-18.6,18.6-39.2,34.5-61.8,47.7
	c-22.6,13.3-47,23.6-73.1,30.9c-26.1,7.3-53.2,11-81.4,11s-55.3-3.7-81.4-11c-26.1-7.3-50.5-17.6-73.1-30.9s-43.2-29.2-61.8-47.7
	c-18.6-18.6-34.5-39.2-47.7-61.8c-13.3-22.6-23.6-47-30.9-73.1c-7.3-26.1-11-53.2-11-81.4s3.7-55.3,11-81.4s17.6-50.5,30.9-73.1
	s29.2-43.2,47.7-61.8s39.2-34.5,61.8-47.7s47-23.6,73.1-30.9S327.8-50,356-50z"/>
</svg>
