<?xml version="1.0" encoding="utf-8"?>
<!-- Generator: Adobe Illustrator 17.1.0, SVG Export Plug-In . SVG Version: 6.00 Build 0)  -->
<!DOCTYPE svg PUBLIC "-//W3C//DTD SVG 1.1//EN" "http://www.w3.org/Graphics/SVG/1.1/DTD/svg11.dtd">
<svg version="1.1" id="Calque_1" xmlns="http://www.w3.org/2000/svg" xmlns:xlink="http://www.w3.org/1999/xlink" x="0px" y="0px"
	 viewBox="0 0 512 512" enable-background="new 0 0 512 512" xml:space="preserve">
<g>
	<path fill="#666666" d="M297.1,243l24-24l-24.5-24.5l-24,24c-10.1-6.8-21.5-11.6-33.9-14v-34h-34.6v34c-12.4,2.4-23.8,7.1-33.8,14
		l-24-24L121.8,219l24,24c-6.8,10.1-11.5,21.5-13.9,33.9h-34v34.6h34c2.4,12.3,7.1,23.8,13.9,33.8l-24,24l24.4,24.5l24-24
		c10,6.8,21.5,11.6,33.9,14v34h34.6v-34c12.3-2.4,23.8-7.1,33.9-13.9l24,24l24.5-24.5l-24-24c6.8-10,11.6-21.5,13.9-33.8h34.1v-34.6
		H311C308.6,264.5,303.9,253.1,297.1,243z M221.4,332c-20.8,0-37.7-17-37.7-37.9c0-20.8,16.9-37.8,37.7-37.8
		c20.9,0,37.8,16.9,37.8,37.8C259.2,315,242.3,332,221.4,332z"/>
	<path fill="#F68867" d="M330.7,126.6c-30.3-19.4-66.2-30.9-104.9-30.9C118.2,95.8,31,183,31,290.6c0,45,15.4,86.2,40.9,119.2
		l24.5-24.4c-19.5-26.6-31.3-59.1-31.3-94.6C65.1,202,137,130,225.8,130c29.5,0,56.8,8.5,80.6,22.6l-18.8,20l76.3,6.9l-8.2-79.7
		L330.7,126.6z"/>
	<polygon fill="#CBC4C1" points="479.3,294.7 431.5,246.9 431.5,273.7 368.5,273.7 368.5,315.7 431.5,315.7 431.5,342.5 	"/>
</g>
</svg>
