<?xml version="1.0" encoding="utf-8"?>
<!-- Generator: Adobe Illustrator 17.1.0, SVG Export Plug-In . SVG Version: 6.00 Build 0)  -->
<!DOCTYPE svg PUBLIC "-//W3C//DTD SVG 1.1//EN" "http://www.w3.org/Graphics/SVG/1.1/DTD/svg11.dtd">
<svg version="1.1" xmlns="http://www.w3.org/2000/svg" xmlns:xlink="http://www.w3.org/1999/xlink" x="0px" y="0px"
	 viewBox="0 0 512 512" enable-background="new 0 0 512 512" xml:space="preserve">
<g id="Calque_2">
	<rect x="63.3" y="352.1" fill="#666666" width="107.1" height="103.9"/>
	<rect x="340.5" y="235.5" fill="#666666" width="108.1" height="220.5"/>
	<rect x="201.9" y="302.7" fill="#666666" width="108.1" height="153.3"/>
</g>
<g id="Calque_1">
	<path id="bar_chart_6_icon" fill="#F68867" d="M367.6,97.8l33.4,33.4L384,147.9l-33.6-33.6L367.6,97.8z M336,128.2l-17.7,17
		l33.8,33.8l17.6-17.1L336,128.2z M363.1,65l70.2,70.2L449.7,50L363.1,65z M337.8,193l-33.9-33.9l-54.4,52.3l-47.9-45.3l-134,133.5
		l33,32.4l99.7-99.7l49.4,46.7L337.8,193z"/>
</g>
</svg>
