<?xml version="1.0" encoding="utf-8"?>
<!-- Generator: Adobe Illustrator 18.1.1, SVG Export Plug-In . SVG Version: 6.00 Build 0)  -->
<svg version="1.1" id="Calque_1" xmlns="http://www.w3.org/2000/svg" xmlns:xlink="http://www.w3.org/1999/xlink" x="0px" y="0px"
	 viewBox="0 0 512 512" enable-background="new 0 0 512 512" xml:space="preserve">
<g>
	<g>
		<g>
			<g>
				<path fill="#717C32" d="M53.9,455.6c25.6,25.6,59.8,39.8,96.1,39.8s70.4-14.1,96.1-39.8l79.9-79.9c4.8-4.8,4.8-12.8,0-17.7
					l-50-50L231.9,352l13.9,13.9l-44.7,44.7c-28.3,28.3-74,28.3-102.3,0l-1.5-1.5c-28.3-28.3-28.3-74,0-102.3L142,262l13.9,13.9
					l44.1-44.1l-50-50c-4.8-4.8-12.8-4.8-17.7,0l-79.9,79.9c-25.6,25.6-39.8,59.8-39.8,96.1s14.1,70.4,39.8,96.1L53.9,455.6z"/>
				<path fill="#717C32" d="M456.1,50.3c-25.6-25.6-59.8-39.8-96.1-39.8s-70.4,14-96.1,39.8l-81.5,81.6c-4.8,4.8-4.8,12.8,0,17.7
					l50,50l45.8-45.8l-14-14L309,95.2c28.3-28.3,74-28.3,102.3,0l1.5,1.5c28.3,28.3,28.3,74,0,102.3l-44.7,44.7l-13.9-13.9
					l-45.8,45.8l50,50c4.8,4.8,12.8,4.8,17.7,0l81.6-81.6c25.6-25.6,39.8-59.8,39.8-96.1s-14.1-70.4-39.8-96.1L456.1,50.3z"/>
				<path fill="#717C32" d="M350.7,157.3c-5.9-5.9-13.6-8.7-21.3-8.7s-15.4,2.9-21.3,8.7l-13.4,13.3l-45.8,45.8l-32.3,32.3
					l-44.1,44.1l-13.3,13.3c-11.8,11.8-11.8,30.8,0,42.5c5.9,5.9,13.6,8.7,21.3,8.7s15.4-2.9,21.3-8.7l13.3-13.3l44.1-44.1
					l32.3-32.3l45.8-45.8l13.3-13.3C362.4,188,362.4,169,350.7,157.3z"/>
			</g>
		</g>
	</g>
	<line fill="none" stroke="#000000" stroke-width="0.3" x1="12.5" y1="-43.5" x2="12.5" y2="-7.5"/>
	<line fill="none" stroke="#000000" stroke-width="0.3" x1="-41.5" y1="10.5" x2="-5.5" y2="10.5"/>
	<line fill="none" stroke="#000000" stroke-width="0.3" x1="-41.5" y1="495.3" x2="-5.5" y2="495.3"/>
	<line fill="none" stroke="#000000" stroke-width="0.3" x1="12.5" y1="549.3" x2="12.5" y2="513.3"/>
	<line fill="none" stroke="#000000" stroke-width="0.3" x1="497.6" y1="-43.5" x2="497.6" y2="-7.5"/>
	<line fill="none" stroke="#000000" stroke-width="0.3" x1="551.6" y1="10.5" x2="515.6" y2="10.5"/>
	<line fill="none" stroke="#000000" stroke-width="0.3" x1="551.6" y1="495.3" x2="515.6" y2="495.3"/>
	<line fill="none" stroke="#000000" stroke-width="0.3" x1="497.6" y1="549.3" x2="497.6" y2="513.3"/>
</g>
</svg>
