<?xml version="1.0" encoding="utf-8"?>
<!-- Generator: Adobe Illustrator 18.1.0, SVG Export Plug-In . SVG Version: 6.00 Build 0)  -->
<!DOCTYPE svg PUBLIC "-//W3C//DTD SVG 1.1//EN" "http://www.w3.org/Graphics/SVG/1.1/DTD/svg11.dtd">
<svg version="1.1" id="Calque_1" xmlns="http://www.w3.org/2000/svg" xmlns:xlink="http://www.w3.org/1999/xlink" x="0px" y="0px"
	 viewBox="0 0 512 512" enable-background="new 0 0 512 512" xml:space="preserve">
<path id="location-15-icon" d="M313.2,440c0,11.5-25.6,20.8-57.2,20.8s-57.2-9.3-57.2-20.8c0-11.5,25.6-20.8,57.2-20.8
	S313.2,428.6,313.2,440z"/>
<path id="location-4-icon" fill="#56BBDB" d="M257.5,49c-56.9,0-103,46.1-103,103s45.1,123,103,222.2c57.9-99.2,103-165.3,103-222.2
	S314.4,49,257.5,49z M257.5,223.2c-39.2,0-70.9-31.8-70.9-70.9c0-39.2,31.8-70.9,70.9-70.9c39.2,0,70.9,31.8,70.9,70.9
	C328.4,191.4,296.7,223.2,257.5,223.2z"/>
</svg>
