<?xml version="1.0" encoding="utf-8"?>
<!-- Generator: Adobe Illustrator 18.1.1, SVG Export Plug-In . SVG Version: 6.00 Build 0)  -->
<svg version="1.1" id="Calque_1" xmlns="http://www.w3.org/2000/svg" xmlns:xlink="http://www.w3.org/1999/xlink" x="0px" y="0px"
	 viewBox="0 0 512 512" enable-background="new 0 0 512 512" xml:space="preserve">
<path id="lock-icon" fill="#9D9191" d="M195.3,223.3h-50v-62.7C145.3,99.6,195,50,256,50c61,0,110.7,49.6,110.7,110.7v62.7h-50
	v-62.7c0-33.5-27.2-60.7-60.7-60.7s-60.7,27.2-60.7,60.7L195.3,223.3L195.3,223.3z M316.7,429V288.3H404v-35H108V462h296v-33H316.7z
	 M404,305.8h-68.6v25H404V305.8z M404,346.2h-68.6v25H404V346.2z M404,386.4h-68.6v25H404V386.4z"/>
</svg>
