<?xml version="1.0" encoding="utf-8"?>
<!-- Generator: Adobe Illustrator 18.0.0, SVG Export Plug-In . SVG Version: 6.00 Build 0)  -->
<!DOCTYPE svg PUBLIC "-//W3C//DTD SVG 1.1//EN" "http://www.w3.org/Graphics/SVG/1.1/DTD/svg11.dtd">
<svg version="1.1" id="Calque_1" xmlns="http://www.w3.org/2000/svg" xmlns:xlink="http://www.w3.org/1999/xlink" x="0px" y="0px"
	 viewBox="0 0 512 512" enable-background="new 0 0 512 512" xml:space="preserve">
<path fill="#BABABA" d="M151.2,461.7C151.2,461.7,151.2,461.7,151.2,461.7c0-164.8,133.4-298.3,298.3-298.3c0,0,0,0,0,0V57.5
	c0,0,0,0,0,0c-223.2,0-404.2,181-404.2,404.2c0,0,0,0,0,0H151.2z"/>
<path fill="#BABABA" d="M413.2,366c30.1,0.3,54.2,25,53.9,55.1c-0.3,30.1-25,54.2-55.1,53.9c-19.5-0.2-36.6-10.7-46-26.3L216.4,427
	c-3.4-0.4-5.9-3.3-5.9-6.7c0-3.4,2.4-6.3,5.8-6.8L366,392.1C375.7,376.3,393.2,365.7,413.2,366z"/>
</svg>
