<?xml version="1.0" encoding="utf-8"?>
<!-- Generator: Adobe Illustrator 18.0.0, SVG Export Plug-In . SVG Version: 6.00 Build 0)  -->
<!DOCTYPE svg PUBLIC "-//W3C//DTD SVG 1.1//EN" "http://www.w3.org/Graphics/SVG/1.1/DTD/svg11.dtd">
<svg version="1.1" id="Calque_1" xmlns="http://www.w3.org/2000/svg" xmlns:xlink="http://www.w3.org/1999/xlink" x="0px" y="0px"
	 viewBox="0 0 512 512" enable-background="new 0 0 512 512" xml:space="preserve">
<path fill="#BABABA" d="M150.8,461.7L150.8,461.7c0-164.8,133.4-298.3,298.3-298.3l0,0V57.5l0,0c-223.2,0-404.2,181-404.2,404.2l0,0
	H150.8z"/>
<path fill="#BABABA" d="M451.7,381.5c21,21.5,20.6,56-0.9,77s-56,20.6-77-0.9c-13.7-14-18.3-33.4-13.9-51.1l-90.5-121
	c-2.1-2.7-1.8-6.5,0.5-8.9c2.4-2.4,6.2-2.7,8.9-0.7l121,90.8C417.9,362.3,437.7,367.3,451.7,381.5z"/>
</svg>
