<?xml version="1.0" encoding="utf-8"?>
<!-- Generator: Adobe Illustrator 18.0.0, SVG Export Plug-In . SVG Version: 6.00 Build 0)  -->
<!DOCTYPE svg PUBLIC "-//W3C//DTD SVG 1.1//EN" "http://www.w3.org/Graphics/SVG/1.1/DTD/svg11.dtd">
<svg version="1.1" id="Calque_1" xmlns="http://www.w3.org/2000/svg" xmlns:xlink="http://www.w3.org/1999/xlink" x="0px" y="0px"
	 viewBox="0 0 512 512" enable-background="new 0 0 512 512" xml:space="preserve">
<path id="warning-4-icon" fill="#B83232" d="M256,108.1c82.4,0,149.1,66,149.1,147.7c0,81.6-66.6,147.7-149.1,147.7
	c-82.4,0-149.1-66-149.1-147.7C106.9,174.2,173.6,108.1,256,108.1z M256,72.5c-102.2,0-185,82-185,183.3S153.8,439,256,439
	s185-82,185-183.3S358.2,72.5,256,72.5z"/>
<path id="link-icon" fill="#B83232" d="M203.7,226c3.9-3.9,8.2-7.1,12.8-9.6c25.5-14.1,58.2-6.6,74.6,18.3l-19.8,19.8
	c-5.7-13-19.8-20.4-33.9-17.2c-5.3,1.2-10.3,3.8-14.4,7.9l-38,38c-11.5,11.5-11.5,30.3,0,41.9c11.5,11.5,30.3,11.5,41.9,0l11.7-11.7
	c10.7,4.2,22.1,5.9,33.4,5.1L246,344.4c-22.2,22.2-58.1,22.2-80.3,0c-22.2-22.2-22.2-58.1,0-80.3L203.7,226z M264,165.6l-25.9,25.9
	c11.3-0.8,22.7,0.8,33.4,5.1l11.7-11.7c11.5-11.5,30.3-11.5,41.9,0c11.5,11.5,11.5,30.3,0,41.9l-38,38c-11.6,11.6-30.4,11.5-41.9,0
	c-2.7-2.7-5-6-6.4-9.3L219,275.3c2.1,3.2,4.3,5.9,7,8.7c7.2,7.2,16.3,12.5,26.8,15.1c13.6,3.3,28.2,1.5,40.7-5.5
	c4.6-2.5,8.9-5.7,12.8-9.6l38-38c22.2-22.2,22.2-58.1,0-80.3C322.2,143.5,286.2,143.5,264,165.6z"/>
</svg>
