<?xml version="1.0" encoding="utf-8"?>
<!-- Generator: Adobe Illustrator 18.0.0, SVG Export Plug-In . SVG Version: 6.00 Build 0)  -->
<!DOCTYPE svg PUBLIC "-//W3C//DTD SVG 1.1//EN" "http://www.w3.org/Graphics/SVG/1.1/DTD/svg11.dtd">
<svg version="1.1" id="Calque_1" xmlns="http://www.w3.org/2000/svg" xmlns:xlink="http://www.w3.org/1999/xlink" x="0px" y="0px"
	 viewBox="0 0 512 512" enable-background="new 0 0 512 512" xml:space="preserve">
<path id="x-mark-4-icon" fill="#B83232" d="M441,255.8C441,357,357.3,439,254,439S67,357,67,255.8S150.7,72.5,254,72.5
	S441,154.5,441,255.8z M404.7,255.8c0-81.6-67.4-147.7-150.7-147.7c-83.3,0-150.7,66.1-150.7,147.7c0,81.6,67.4,147.7,150.7,147.7
	C337.3,403.4,404.7,337.4,404.7,255.8z M316.9,350.5l-61.1-59.9l-61.1,59.9l-32.8-32.2l61.1-59.9l-61.1-59.9l32.8-32.2l61.1,59.9
	l61.1-59.9l32.9,32.2l-61.1,59.9l61.1,59.9L316.9,350.5z"/>
</svg>
