<?xml version="1.0" encoding="utf-8"?>
<!-- Generator: Adobe Illustrator 18.1.0, SVG Export Plug-In . SVG Version: 6.00 Build 0)  -->
<!DOCTYPE svg PUBLIC "-//W3C//DTD SVG 1.1//EN" "http://www.w3.org/Graphics/SVG/1.1/DTD/svg11.dtd">
<svg version="1.1" id="Calque_1" xmlns="http://www.w3.org/2000/svg" xmlns:xlink="http://www.w3.org/1999/xlink" x="0px" y="0px"
	 viewBox="0 0 512 512" enable-background="new 0 0 512 512" xml:space="preserve">
<g id="Calque_2">
	<path fill="#9D9191" d="M244.6,369.8c-28.2,9.9-51.5-1.5-46.8-28.5c4.7-27.1,31.4-85.1,35.3-96.1c3.8-11-3.5-14-11.3-9.5
		c-4.5,2.6-11.2,7.8-17,12.9c-1.6-3.2-3.9-6.9-5.5-10.4c9.4-9.4,25.2-22.1,43.8-26.7c22.3-5.5,59.5,3.3,43.5,45.9
		c-11.4,30.3-19.5,51.3-24.6,66.9s1,18.9,9.9,12.8c7-4.8,14.4-11.2,19.8-16.2c2.5,4.1,3.3,5.4,5.8,10.1
		C287.9,340.5,263.2,363.2,244.6,369.8z"/>
	<path fill="#9D9191" d="M303,182.1c-12.8,10.9-31.8,10.7-42.4-0.5s-8.8-29.1,4-40c12.8-10.9,31.8-10.7,42.4,0.5
		S315.8,171.2,303,182.1z"/>
</g>
<path id="info-icon" fill="#9D9191" d="M256,90c91.7,0,166,74.2,166,166c0,91.7-74.2,166-166,166c-91.7,0-166-74.2-166-166
	C90,164.3,164.2,90,256,90 M256,50C142.2,50,50,142.2,50,256s92.2,206,206,206s206-92.2,206-206S369.8,50,256,50L256,50z"/>
</svg>
