<?xml version="1.0" encoding="utf-8"?>
<!-- Generator: Adobe Illustrator 17.1.0, SVG Export Plug-In . SVG Version: 6.00 Build 0)  -->
<!DOCTYPE svg PUBLIC "-//W3C//DTD SVG 1.1//EN" "http://www.w3.org/Graphics/SVG/1.1/DTD/svg11.dtd">
<svg version="1.1" id="Calque_1" xmlns="http://www.w3.org/2000/svg" xmlns:xlink="http://www.w3.org/1999/xlink" x="0px" y="0px"
	 viewBox="0 0 512 512" enable-background="new 0 0 512 512" xml:space="preserve">
<path id="pie_chart_2_icon" fill="#F79C75" d="M273.9,135.9v-28.6l47.6-47.6c7,2.3,13.9,5,20.6,8.1L273.9,135.9z M395.1,102.8
	L273.9,224v14.1h14.5l120.9-120.9C404.8,112.1,400.1,107.4,395.1,102.8z M273.9,77.6L298,53.5c-7.9-1.6-15.9-2.8-24.1-3.5V77.6z
	 M458.6,214.3l-23.8,23.8H462C461.3,230,460.2,222.1,458.6,214.3z M452.3,190.8c-2.3-7-5-13.9-8.1-20.6l-67.8,67.8h28.6L452.3,190.8
	z M434.1,150.7c-3.5-5.9-7.3-11.7-11.4-17.2L318.1,238.1h28.6L434.1,150.7z M378.7,89.4c-5.5-4.1-11.3-7.9-17.2-11.4l-87.6,87.6
	v28.6L378.7,89.4z"/>
<path id="pie_chart_2_icon_1_" fill="#666666" d="M239.8,273.2V50C134.1,58.9,51,147.5,51,255.6c0,114,92.4,206.4,206.4,206.4
	c108.1,0,196.7-83.1,205.6-188.8H239.8z"/>
</svg>
