<?xml version="1.0" encoding="utf-8"?>
<!-- Generator: Adobe Illustrator 17.1.0, SVG Export Plug-In . SVG Version: 6.00 Build 0)  -->
<!DOCTYPE svg PUBLIC "-//W3C//DTD SVG 1.1//EN" "http://www.w3.org/Graphics/SVG/1.1/DTD/svg11.dtd">
<svg version="1.1" id="Calque_1" xmlns="http://www.w3.org/2000/svg" xmlns:xlink="http://www.w3.org/1999/xlink" x="0px" y="0px"
	 viewBox="0 0 512 512" enable-background="new 0 0 512 512" xml:space="preserve">
<path id="calendar-icon" fill="#FFFFFF" d="M327.8,355.7h-29.9v-29.9h29.9V355.7z M372.9,325.8h-29.9v29.9h29.9V325.8z M418.1,325.8
	h-29.9v29.9h29.9V325.8z M327.8,369.4h-29.9v29.9h29.9V369.4z M372.9,369.4h-29.9v29.9h29.9V369.4z M418.1,369.4h-29.9v29.9h29.9
	V369.4z M429.2,265.5c0,5.1-4.1,9.2-9.2,9.2c-5.1,0-9.2-4.1-9.2-9.2v-23.2c0-5.1,4.1-9.2,9.2-9.2c5.1,0,9.2,4.1,9.2,9.2V265.5z
	 M304.6,242.2c0-5.1-4.1-9.2-9.2-9.2c-5.1,0-9.2,4.1-9.2,9.2v23.2c0,5.1,4.1,9.2,9.2,9.2c5.1,0,9.2-4.1,9.2-9.2V242.2z M440.4,255.7
	v9.4c0,11.2-9.1,20.3-20.3,20.3c-11.2,0-20.3-9.1-20.3-20.3v-9.4h-83.9v9.4c0,11.2-9.1,20.3-20.3,20.3c-11.2,0-20.3-9.1-20.3-20.3
	v-9.4h-22.2v182.2H462V255.7H440.4L440.4,255.7z M441.7,417.6H273.2V304.7h168.5V417.6z"/>
<path id="user-icon" fill="#FFFFFF" d="M336.5,398.5c-46-10.6-88.8-19.9-68.1-59c63.1-119,16.7-182.6-49.9-182.6
	c-68,0-113.2,66.1-49.9,182.6c21.4,39.3-23.1,48.6-68.1,59c-46,10.6-42.4,34.8-42.4,78.8h320.8C378.9,433.4,382.5,409.1,336.5,398.5
	z"/>
</svg>
