<?xml version="1.0" encoding="utf-8"?>
<!-- Generator: Adobe Illustrator 16.2.0, SVG Export Plug-In . SVG Version: 6.00 Build 0)  -->
<!DOCTYPE svg PUBLIC "-//W3C//DTD SVG 1.1//EN" "http://www.w3.org/Graphics/SVG/1.1/DTD/svg11.dtd">
<svg version="1.1" id="Calque_1" xmlns="http://www.w3.org/2000/svg" xmlns:xlink="http://www.w3.org/1999/xlink" x="0px" y="0px"
	 width="512px" height="512px" viewBox="0 0 512 512" enable-background="new 0 0 512 512" xml:space="preserve">
<path id="printer-icon" fill="#9D9191" d="M408.5,138V50h-305v88H50v203h53.5v121h305V341H462V138H408.5z M368.5,422h-225V293h225
	V422z M368.5,138h-225V90h225V138z M422.334,188.767c-6.683,0-12.101-5.418-12.101-12.102c0-6.683,5.418-12.1,12.101-12.1
	c6.682,0,12.101,5.417,12.101,12.1C434.435,183.349,429.016,188.767,422.334,188.767z M296.334,380.189h-127.19v-22.516h127.19
	V380.189z M344,338.66H169.144v-22.515H344V338.66z"/>
</svg>
