<?xml version="1.0" encoding="utf-8"?>
<!-- Generator: Adobe Illustrator 18.0.0, SVG Export Plug-In . SVG Version: 6.00 Build 0)  -->
<!DOCTYPE svg PUBLIC "-//W3C//DTD SVG 1.1//EN" "http://www.w3.org/Graphics/SVG/1.1/DTD/svg11.dtd">
<svg version="1.1" id="Calque_1" xmlns="http://www.w3.org/2000/svg" xmlns:xlink="http://www.w3.org/1999/xlink" x="0px" y="0px"
	 viewBox="0 0 512 512" enable-background="new 0 0 512 512" xml:space="preserve">
<path id="bell-13-icon" fill="#B0C64B" d="M350.1,223.4c-8.3-42.8-19.1-85-55.2-105.7c-11.2-6.4-18.1-18.4-18.1-31.3c0,0,0,0,0-0.1
	c0-20.1-16.3-36.4-36.4-36.4c-20.1,0-36.4,16.3-36.4,36.4c0,0,0,0,0,0.1c0,12.9-6.9,24.8-18.1,31.3
	c-81.1,46.5-34.5,201.1-119.2,228.4v36.1h206.7c-8.9-15.9-13.6-33.8-13.6-52.5c0-28.8,11.2-55.9,31.6-76.2
	C307.5,237.4,327.9,227,350.1,223.4z M240.3,101.2c-8.1,0-14.8-6.6-14.8-14.8s6.6-14.8,14.8-14.8c8.1,0,14.8,6.6,14.8,14.8
	S248.5,101.2,240.3,101.2z M191.2,412.3h99.3c0,27.4-22.2,49.7-49.7,49.7C213.4,462,191.2,439.8,191.2,412.3z M367.6,252
	c-43,0-77.8,34.8-77.8,77.8s34.8,77.8,77.8,77.8s77.8-34.8,77.8-77.8S410.5,252,367.6,252z M354.4,371.7l-36.8-36.8l15.6-15.7
	l21.1,21.1l48.7-48.7l15.7,15.6L354.4,371.7z"/>
</svg>
