<?xml version="1.0" encoding="utf-8"?>
<!-- Generator: Adobe Illustrator 18.1.1, SVG Export Plug-In . SVG Version: 6.00 Build 0)  -->
<svg version="1.1" id="Calque_1" xmlns="http://www.w3.org/2000/svg" xmlns:xlink="http://www.w3.org/1999/xlink" x="0px" y="0px"
	 viewBox="0 0 512 512" enable-background="new 0 0 512 512" xml:space="preserve">
<path id="bell-13-icon" fill="#B83232" d="M350.1,223.4c-8.3-42.8-19.1-85-55.2-105.7c-11.2-6.4-18.1-18.4-18.1-31.3c0,0,0,0,0-0.1
	c0-20.1-16.3-36.4-36.4-36.4S204,66.2,204,86.3c0,0,0,0,0,0.1c0,12.9-6.9,24.8-18.1,31.3c-81.1,46.5-34.5,201.1-119.2,228.4v36.1
	h206.7c-8.9-15.9-13.6-33.8-13.6-52.5c0-28.8,11.2-55.9,31.6-76.2C307.5,237.4,327.9,227,350.1,223.4z M240.3,101.2
	c-8.1,0-14.8-6.6-14.8-14.8s6.6-14.8,14.8-14.8c8.1,0,14.8,6.6,14.8,14.8S248.5,101.2,240.3,101.2z M191.2,412.3h99.3
	c0,27.4-22.2,49.7-49.7,49.7C213.4,462,191.2,439.8,191.2,412.3z M367.6,252c-43,0-77.8,34.8-77.8,77.8s34.8,77.8,77.8,77.8
	s77.8-34.8,77.8-77.8S410.5,252,367.6,252z M354.4,371.7l-36.8-36.8l15.6-15.7l21.1,21.1l48.7-48.7l15.7,15.6L354.4,371.7z"/>
<path fill="#B83232" d="M386.3,182c3.4,13.6,0.9,27.2-5.7,38.3l18.3,11c9.5-15.8,13-35.2,8.2-54.5s-17-34.8-32.8-44.3l-11,18.3
	C374.4,157.5,382.9,168.4,386.3,182z"/>
<path fill="#B83232" d="M443.7,167.7c-7.3-29.4-25.9-53.1-50-67.6l-11.3,18.7c19.3,11.6,34.2,30.6,40,54.1
	c5.9,23.6,1.6,47.3-10,66.6l18.7,11.3C445.7,226.7,451,197.1,443.7,167.7z"/>
<path fill="#B83232" d="M118.8,150.8l-11-18.3c-15.8,9.5-28,25-32.8,44.3s-1.3,38.7,8.2,54.5l18.3-11c-6.7-11.1-9.1-24.8-5.7-38.3
	C99.1,168.4,107.6,157.5,118.8,150.8z"/>
<path fill="#B83232" d="M50.7,250.8l18.7-11.3c-11.6-19.3-15.8-43-10-66.6c5.9-23.6,20.7-42.5,40-54.1l-11.3-18.7
	c-24.1,14.5-42.6,38.2-50,67.6C31,197.1,36.3,226.7,50.7,250.8z"/>
</svg>
