<?xml version="1.0" encoding="utf-8"?>
<!-- Generator: Adobe Illustrator 18.0.0, SVG Export Plug-In . SVG Version: 6.00 Build 0)  -->
<!DOCTYPE svg PUBLIC "-//W3C//DTD SVG 1.1//EN" "http://www.w3.org/Graphics/SVG/1.1/DTD/svg11.dtd">
<svg version="1.1" id="Layer_1" xmlns="http://www.w3.org/2000/svg" xmlns:xlink="http://www.w3.org/1999/xlink" x="0px" y="0px"
	 viewBox="0 0 512 512" enable-background="new 0 0 512 512" xml:space="preserve">
<path fill="#FFFFFF" d="M331.2,203.5c0,28.3,22.9,51.2,51.2,51.2c28.3,0,51.2-22.9,51.2-51.2s-22.9-51.2-51.2-51.2
	C354.1,152.3,331.2,175.2,331.2,203.5z M405.2,271.7h-45.5c-31.4,0-56.9,25.5-56.9,56.9v22.8h159.3v-22.8
	C462.1,297.2,436.6,271.7,405.2,271.7z"/>
<path fill="#9D9191" d="M78.1,203.5c0-28.3,22.9-51.2,51.2-51.2s51.2,22.9,51.2,51.2s-22.9,51.2-51.2,51.2S78.1,231.7,78.1,203.5z
	 M208.9,328.6c0-31.4-25.5-56.9-56.9-56.9h-45.5c-31.4,0-56.9,25.5-56.9,56.9v22.8h159.3V328.6z"/>
<path fill="#9D9191" d="M316.2,429.4c-15.3,3.8-32.2,5.8-50.5,5.8c-80.9,0-108.3-37.4-109.6-39.3c-4.4-6.4-13.2-8.2-19.6-3.8
	c-6.5,4.4-8.3,13.2-3.9,19.7c1.4,2.1,35.7,51.8,133.2,51.8c24.1,0,46.3-3.1,66.1-9.1l15.1,24.3l40.2-75l-85,2.7L316.2,429.4z"/>
<path fill="#FFFFFF" d="M194.5,80.7c15.3-3.8,32.2-5.8,50.5-5.8c80.9,0,108.3,37.4,109.6,39.3c2.7,4,7.2,6.2,11.8,6.2
	c2.7,0,5.4-0.8,7.9-2.4c6.5-4.4,8.3-13.2,3.9-19.7c-1.4-2.1-35.7-51.8-133.2-51.8c-24.1,0-46.3,3.1-66.1,9.1l-15.1-24.3l-40.2,75
	l85-2.7L194.5,80.7z"/>
</svg>
