<?xml version="1.0" encoding="utf-8"?>
<!-- Generator: Adobe Illustrator 18.1.1, SVG Export Plug-In . SVG Version: 6.00 Build 0)  -->
<svg version="1.1" id="search-user" xmlns="http://www.w3.org/2000/svg" xmlns:xlink="http://www.w3.org/1999/xlink" x="0px"
	 y="0px" viewBox="0 0 512 512" enable-background="new 0 0 512 512" xml:space="preserve">
<path id="magnifier-icon" fill="#B0C64B" d="M294.2,325.2c0-48.5,39.4-88,88-88s88,39.4,88,88c0,48.5-39.4,88-88,88
	C333.7,413.2,294.2,373.7,294.2,325.2z M440.2,325.1c0-32-26-57.9-58-57.9s-57.9,26-57.9,58s26,57.9,58,57.9
	S440.2,357.1,440.2,325.1z M320.5,414.3c-11.3-7.9-21.1-17.8-28.7-29.3l-52.4,52.5l29,29L320.5,414.3z"/>
<path id="user-icon" fill="#B0C64B" d="M230.9,373.6H82c0-32.4,2.1-39.9,30.2-46.4c38.4-8.8,75-16.7,87-43.2
	c5.9-13.1,4.4-28-4.4-44.3c-30.3-55.8-37.5-105-19.7-134.9c10.9-18.3,30.7-28.4,55.7-28.4c24.8,0,44.5,9.9,55.3,27.9
	c22.7,37.8,1.5,96.4-19.3,135.5c-4.8,9-7.3,17.5-7.6,25.5h36.1c0.3-2.6,1.7-5.4,3.4-8.7c27.6-52.1,48.8-120.4,18.3-171
	c-17.3-28.8-48.8-45.4-86.2-45.4c-37.7,0-69.3,16.8-86.7,46c-24.8,41.7-18.1,102.3,19,170.5c7.9,14.5,8.1,19.8-59,35.2
	c-26.6,6.1-42.9,17.4-51.2,35.3C44.7,345,46,363.6,46,409.5h184.8L230.9,373.6L230.9,373.6z"/>
</svg>
