<?xml version="1.0" encoding="utf-8"?>
<!-- Generator: Adobe Illustrator 18.1.1, SVG Export Plug-In . SVG Version: 6.00 Build 0)  -->
<!DOCTYPE svg PUBLIC "-//W3C//DTD SVG 1.1//EN" "http://www.w3.org/Graphics/SVG/1.1/DTD/svg11.dtd">
<svg version="1.1" id="Calque_1" xmlns="http://www.w3.org/2000/svg" xmlns:xlink="http://www.w3.org/1999/xlink" x="0px" y="0px"
	 viewBox="0 0 512 512" enable-background="new 0 0 512 512" xml:space="preserve">
<path fill="#B0C64B" d="M161.5,272.8l103.2-95.2l29.2-27l44.7-41.6l-90.1,126.1l97-10.2L174.2,404.4l96.4-141.2L161.5,272.8z"/>
<path id="loading-5-icon" fill="#B0C64B" d="M27.5,232.6C38.6,116.1,136,25,254.5,25s215.9,91.1,227,207.6H437
	c-4.9-41.1-23-79-52.5-108.7c-34.8-34.9-80.9-54.2-130-54.2s-95.2,19.3-130,54.2C95,153.6,76.9,191.5,72,232.6H27.5z M436.9,277.3
	c-4.9,41.1-23,79-52.5,108.7c-34.8,34.9-80.9,54.2-130,54.2s-95.2-19.3-130-54.2C95,356.3,76.9,318.4,72,277.3H27.5
	c11.1,116.5,108.5,207.6,227,207.6s215.9-91.1,227-207.6H436.9z"/>
<g>
	<path fill="#B0C64B" d="M365.2,318.2l-49.3-49.3L283.3,303l48.6,48.6c9.2,9.2,24.1,9.2,33.4,0C374.4,342.4,374.4,327.5,365.2,318.2
		z M347.4,343.2c-5.3,0-9.7-4.4-9.7-9.7c0-5.3,4.3-9.7,9.7-9.7c5.4,0,9.7,4.4,9.7,9.7C357.1,338.8,352.7,343.2,347.4,343.2z"/>
	<path fill="#B0C64B" d="M203.3,223.1l34.7-32l-0.4-0.4c-5.3-5.3-8-12.6-7.4-20c1.1-14.1-3.8-28.5-14.5-39.2
		c-13.9-13.9-34.1-18-51.8-11.9l31.8,31.8c0.8,12.4-18.5,31.6-30.9,30.9l-31.8-31.8c-6.1,17.5-2.1,37.7,11.9,51.8
		c9.8,9.8,22.6,14.6,35.3,14.6C183.8,216.8,194.1,214.8,203.3,223.1z"/>
</g>
</svg>
