<?xml version="1.0" encoding="utf-8"?>
<!-- Generator: Adobe Illustrator 18.1.1, SVG Export Plug-In . SVG Version: 6.00 Build 0)  -->
<svg version="1.1" id="Calque_1" xmlns="http://www.w3.org/2000/svg" xmlns:xlink="http://www.w3.org/1999/xlink" x="0px" y="0px"
	 viewBox="0 0 512 512" enable-background="new 0 0 512 512" xml:space="preserve">
<path id="wrench-icon" fill="#FFFFFF" d="M447.1,375.1L281.4,209.4c-11.4-11.4-17.2-27.1-16-43.1c2.3-30.3-8.1-61.4-31.3-84.6
	C204,51.4,160.4,42.9,122.5,55.9l68.6,68.6c1.6,26.8-39.8,68.2-66.6,66.6l-68.6-68.6c-13.1,37.8-4.5,81.4,25.7,111.6
	c29.1,29.1,70.7,38.1,107.5,27l0.1,0.1c39.2-11.5,84.3-2.5,116.4,29.6c22.2,22.2,34.4,51.7,34.4,83.1c0,11.4-1.6,22.6-4.8,33.3
	L375,447c19.9,19.9,52.1,19.9,72,0C467,427.2,467,395,447.1,375.1z M408.6,429c-11.6,0-21-9.4-21-21s9.4-21,21-21s21,9.4,21,21
	S420.2,429,408.6,429z"/>
<path id="eye" fill="#B0C64B" d="M202.9,426.9c-51.8,0-98.9-35.6-128.4-78.9c29.9-41.8,76.9-70.5,128.4-70.5
	c51.6,0,98.9,28.2,127.8,70.2C303.3,393.5,256.3,426.9,202.9,426.9z M101.6,348.4c24.8,30.5,61.3,56.8,101.3,56.8
	c54.5,0,89.8-40.9,101.4-56.6c-24.6-28.9-60.8-49.3-101.4-49.3C150.1,299.3,114.2,334,101.6,348.4z M204,309.1
	c-23.8,0-43.2,19.3-43.2,43.2s19.3,43.2,43.2,43.2s43.2-19.3,43.2-43.2C247.2,328.4,227.8,309.1,204,309.1z M203.9,352.3
	c-6.1,6.1-16,6.1-22.1,0c-6.1-6.1-6.1-16,0-22.1c6.1-6.1,16-6.1,22.1,0C210,336.3,210,346.2,203.9,352.3z"/>
</svg>
