<?xml version="1.0" encoding="utf-8"?>
<!-- Generator: Adobe Illustrator 18.1.1, SVG Export Plug-In . SVG Version: 6.00 Build 0)  -->
<svg version="1.1" id="Calque_1" xmlns="http://www.w3.org/2000/svg" xmlns:xlink="http://www.w3.org/1999/xlink" x="0px" y="0px"
	 viewBox="0 0 512 512" enable-background="new 0 0 512 512" xml:space="preserve">
<path id="wrench-icon" fill="#FFFFFF" d="M447.1,375.1L281.4,209.4c-11.4-11.4-17.2-27.1-16-43.1c2.3-30.3-8.1-61.4-31.3-84.6
	C204,51.4,160.4,42.9,122.5,55.9l68.6,68.6c1.6,26.8-39.8,68.2-66.6,66.6l-68.6-68.6c-13.1,37.8-4.5,81.4,25.7,111.6
	c29.1,29.1,70.7,38.1,107.5,27l0.1,0.1c39.2-11.5,84.3-2.5,116.4,29.6c22.2,22.2,34.4,51.7,34.4,83.1c0,11.4-1.6,22.6-4.8,33.3
	l39.8,39.8c19.9,19.9,52.1,19.9,72,0C467,427.2,467,395,447.1,375.1z M408.6,429c-11.6,0-21-9.4-21-21c0-11.6,9.4-21,21-21
	c11.6,0,21,9.4,21,21C429.6,419.6,420.2,429,408.6,429z"/>
<path id="lifebuoy-icon" fill="#B0C64B" d="M222.7,286.7c-47.8,0-86.7,38.8-86.7,86.7c0,47.8,38.8,86.7,86.7,86.7
	s86.7-38.8,86.7-86.7C309.3,325.5,270.6,286.7,222.7,286.7z M254.2,404.9c-17.4,17.4-45.7,17.5-63.1,0c-17.4-17.4-17.4-45.7,0-63.1
	c17.4-17.4,45.7-17.4,63.1,0C271.6,359.2,271.6,387.4,254.2,404.9z M256.5,305L246,323.4c-14.7-6.9-31.9-6.9-46.7,0L188.9,305
	C209.7,294.7,235,294.4,256.5,305z M154.3,339.7l18.3,10.4c-6.9,14.7-6.9,32.3,0.5,47.4l-18.3,10.4
	C144.1,387,143.6,361.4,154.3,339.7z M189.4,441.9l10.4-18.3c14.4,6.5,31.2,6.6,45.6,0l10.4,18.3
	C235.3,451.9,210.6,452.1,189.4,441.9z M272.2,397.5c7.4-15.1,7.3-32.6,0.5-47.4l18.3-10.4c10.4,21,10.6,46.6-0.5,68.3L272.2,397.5z
	"/>
</svg>
