<?xml version="1.0" encoding="utf-8"?>
<!-- Generator: Adobe Illustrator 17.1.0, SVG Export Plug-In . SVG Version: 6.00 Build 0)  -->
<!DOCTYPE svg PUBLIC "-//W3C//DTD SVG 1.1//EN" "http://www.w3.org/Graphics/SVG/1.1/DTD/svg11.dtd">
<svg version="1.1" id="Calque_1" xmlns="http://www.w3.org/2000/svg" xmlns:xlink="http://www.w3.org/1999/xlink" x="0px" y="0px"
	 viewBox="0 0 512 512" enable-background="new 0 0 512 512" xml:space="preserve">
<path id="wrench-5-icon" fill="#9D9191" d="M106.1,172.8L56,122.7c-13.1,37.8-4.5,81.4,25.7,111.6c23.2,23.2,54.3,33.6,84.6,31.3
	c16-1.2,31.8,4.6,43.1,16L375,447.1c19.9,19.9,52.1,19.9,72,0c19.9-19.9,19.9-52.1,0-72L281.4,209.5c-11.4-11.4-17.2-27.1-16-43.1
	c2.3-30.3-8.1-61.4-31.3-84.6c-6.4-6.4-13.4-11.8-20.8-16.2L106.1,172.8z M429.5,408c0,11.6-9.4,21-21,21c-11.6,0-21-9.4-21-21
	c0-11.6,9.4-21,21-21C420.1,387,429.5,396.4,429.5,408z M219,180.5l-52.6,52.6L122.3,189l52.6-52.6L219,180.5z M202.9,182.2
	l-13.1,13.1L160.6,166l13.1-13.1L202.9,182.2z M151.6,175L138.5,188l29.3,29.3l13.1-13.1L151.6,175z M194.2,56.5l-49.7,49.7
	l-41.4-41.4c26.7-15.6,59.6-19.5,90.9-8.3C194.1,56.4,194.2,56.4,194.2,56.5z"/>
</svg>
