<?xml version="1.0" encoding="utf-8"?>
<!-- Generator: Adobe Illustrator 18.1.1, SVG Export Plug-In . SVG Version: 6.00 Build 0)  -->
<svg version="1.1" id="Calque_1" xmlns="http://www.w3.org/2000/svg" xmlns:xlink="http://www.w3.org/1999/xlink" x="0px" y="0px"
	 viewBox="0 0 512 512" enable-background="new 0 0 512 512" xml:space="preserve">
<path id="wrench-12-icon" fill="#B0C64B" d="M222.6,286.5c-48.3,0-87.5,39.2-87.5,87.5s39.2,87.5,87.5,87.5s87.5-39.2,87.5-87.5
	S270.9,286.5,222.6,286.5z M183.7,383.2l44.4-41l12.6-11.6l19.2-17.9l-38.8,54.3l41.7-4.4l-73.7,77.2l41.5-60.8L183.7,383.2z"/>
<path fill="#FFFFFF" d="M454.7,374.6L289,208.9c-11.4-11.4-17.2-27.1-16-43.1c2.3-30.3-8.1-61.4-31.3-84.6
	c-30.2-30.2-73.8-38.7-111.6-25.7l68.6,68.6c1.6,26.8-39.8,68.2-66.6,66.6l-68.6-68.6c-13.1,37.8-4.5,81.4,25.7,111.6
	c29.1,29.1,70.7,38.1,107.5,27l0.1,0.1c39.2-11.5,84.3-2.5,116.4,29.6c22.2,22.2,34.4,51.7,34.4,83.1c0,11.4-1.6,22.6-4.8,33.3
	l39.8,39.8c19.9,19.9,52.1,19.9,72,0C474.6,426.7,474.6,394.5,454.7,374.6z"/>
<circle fill="#B0C64B" cx="416.2" cy="407.5" r="21"/>
</svg>
