<?xml version="1.0" encoding="utf-8"?>
<!-- Generator: Adobe Illustrator 18.1.0, SVG Export Plug-In . SVG Version: 6.00 Build 0)  -->
<!DOCTYPE svg PUBLIC "-//W3C//DTD SVG 1.1//EN" "http://www.w3.org/Graphics/SVG/1.1/DTD/svg11.dtd">
<svg version="1.1" id="Calque_1" xmlns="http://www.w3.org/2000/svg" xmlns:xlink="http://www.w3.org/1999/xlink" x="0px" y="0px"
	 viewBox="199 -229 512 512" enable-background="new 199 -229 512 512" xml:space="preserve">
<path id="sort-22-icon" fill="#666666" d="M528-114.2v-23.3c8.8-0.4,47.4,0.7,47.4-30.7h28.5V5.7h-35v-119.9H528z M538.5,66.4
	c22.9-24.6,74.5-24.8,92,17c5.3,12.7,8,29.4,8,50.1c0,46.9-14.6,88.7-61.5,88.7c-24.7,0-47.7-14.9-50.6-43.3h32.5
	c1.5,9.6,8.3,16.5,19.6,16.5c22.3,0,26.1-24.7,27.1-46.6c-15.9,20-47.8,17.7-67.2,0.4C517.1,130.1,518.6,87.9,538.5,66.4z
	 M593.4,132.4c14.7-9.4,13.5-35.7,4.5-47c-8.3-10.4-23.7-10.4-32.4-3.6c-12.6,9.8-11.5,37.1-3.4,47
	C568.9,137,583.5,138.8,593.4,132.4z M403.7-38.3V92.3h62.7l-97.5,129.9L271.4,92.3h62.7V-38.3h-62.7l97.5-129.9l97.5,129.9H403.7z"
	/>
</svg>
