<?xml version="1.0" encoding="utf-8"?>
<!-- Generator: Adobe Illustrator 18.1.1, SVG Export Plug-In . SVG Version: 6.00 Build 0)  -->
<svg version="1.1" id="Calque_1" xmlns="http://www.w3.org/2000/svg" xmlns:xlink="http://www.w3.org/1999/xlink" x="0px" y="0px"
	 viewBox="0 0 512 512" enable-background="new 0 0 512 512" xml:space="preserve">
<path fill="#B0C64B" d="M430.4,386.1c13.8-16.7,21.7-38.3,21.7-60.2c0-61.8-60.2-107-127.5-107c-66.9,0-127.5,44.8-127.5,107
	c0,64.8,71.5,125.2,169.6,101.2c17.8,11,57.1,22.1,84.7,27.1C441.1,433.7,429.7,405.6,430.4,386.1z M275,344.7
	c-9.7,0-17.5-7.8-17.5-17.5s7.8-17.5,17.5-17.5s17.5,7.8,17.5,17.5S284.7,344.7,275,344.7z M327.2,344.7c-9.7,0-17.5-7.8-17.5-17.5
	s7.8-17.5,17.5-17.5s17.5,7.8,17.5,17.5S336.9,344.7,327.2,344.7z M378.8,344.7c-9.7,0-17.5-7.8-17.5-17.5s7.8-17.5,17.5-17.5
	s17.5,7.8,17.5,17.5S388.5,344.7,378.8,344.7z"/>
<g id="Calque_1_1_">
	<path id="speech-bubble-15-icon" fill="#666666" d="M174.1,354.4C174,354.4,174,354.4,174.1,354.4c-26,15.9-83.1,32.1-123.2,39.4
		c15-29.7,31.6-70.5,30.8-99C61.4,270.5,50,239.2,50,207.4c0-89.8,87.4-155.5,185.2-155.5c97.2,0,185.2,65.2,185.2,155.5
		c0,1.3,0,2.6-0.1,3.8c-11.3-6.1-23.5-11-36.6-14.7c-6.9-60.9-70.8-108.7-148.5-108.7c-82.2,0-149.1,53.6-149.1,119.6
		c0,34.7,15,56.5,36.2,78.1c-4.3,32-14.6,59.8-14.6,59.8s30.5-8.1,65.3-28.3C171.4,329.6,171.8,342.1,174.1,354.4z"/>
</g>
</svg>
