<?xml version="1.0" encoding="utf-8"?>
<!-- Generator: Adobe Illustrator 18.0.0, SVG Export Plug-In . SVG Version: 6.00 Build 0)  -->
<!DOCTYPE svg PUBLIC "-//W3C//DTD SVG 1.1//EN" "http://www.w3.org/Graphics/SVG/1.1/DTD/svg11.dtd">
<svg version="1.1" id="Calque_1" xmlns="http://www.w3.org/2000/svg" xmlns:xlink="http://www.w3.org/1999/xlink" x="0px" y="0px"
	 viewBox="0 0 512 512" enable-background="new 0 0 512 512" xml:space="preserve">
<path fill="#FFFFFF" d="M426,280.4l-4.1,14.6c-23.2,83.1-107.8,135.5-191.5,114.7C150,389.7,100,311.8,112,232.5l24.2,6.8
	c5.6,1.6,10.8-3.5,9.4-9.2l-26.3-102.6c-1.4-5.6-8.5-7.6-12.6-3.5L31,198c-4.2,4.1-2.4,11.1,3.3,12.7l26.4,7.4
	c-19.7,107.4,46.6,214.3,154.6,242.4c112.2,29.2,226.7-40.2,257.9-151.9l3.9-14c1.1-4-1.2-8.2-5.3-9.3l-36.5-10.2
	C431.3,274,427.1,276.3,426,280.4z M469.1,216.5l-38.2,5c-4.1,0.5-7.1,4.3-6.5,8.5l1.5,11.6c0.5,4.1,4.3,7.1,8.5,6.5l38.2-5
	c4.1-0.5,7.1-4.3,6.5-8.5l-1.5-11.6C477,218.8,473.2,215.9,469.1,216.5z M439.6,144.2L406,163.1c-3.6,2.1-4.9,6.7-2.9,10.3l5.7,10.2
	c2.1,3.6,6.7,4.9,10.3,2.9l33.6-18.9c3.6-2.1,4.9-6.7,2.9-10.3l-5.7-10.2C447.9,143.4,443.3,142.1,439.6,144.2z M385.2,88.2
	l-24.1,30.1c-2.6,3.3-2.1,8,1.2,10.6l9.1,7.3c3.3,2.6,8,2.1,10.6-1.2l24.1-30.1c2.6-3.3,2.1-8-1.2-10.6l-9.1-7.3
	C392.6,84.4,387.9,84.9,385.2,88.2z M313.9,56.7l-11,37c-1.2,4,1.1,8.2,5.1,9.4l11.2,3.3c4,1.2,8.2-1.1,9.4-5.1l11-37
	c1.2-4-1.1-8.2-5.1-9.4l-11.2-3.3C319.3,50.4,315.1,52.6,313.9,56.7z M235.9,54.2l3.6,38.4c0.4,4.2,4.1,7.2,8.3,6.8l11.6-1.1
	c4.2-0.4,7.2-4.1,6.8-8.3l-3.6-38.4c-0.4-4.2-4.1-7.2-8.3-6.8l-11.6,1.1C238.5,46.3,235.5,50,235.9,54.2z M162.6,81.1l17.8,34.2
	c1.9,3.7,6.5,5.2,10.2,3.2l10.4-5.4c3.7-1.9,5.2-6.5,3.2-10.2l-17.8-34.2c-1.9-3.7-6.5-5.2-10.2-3.2l-10.4,5.4
	C162.1,72.8,160.7,77.3,162.6,81.1z"/>
</svg>
