<?xml version="1.0" encoding="utf-8"?>
<!-- Generator: Adobe Illustrator 16.2.0, SVG Export Plug-In . SVG Version: 6.00 Build 0)  -->
<!DOCTYPE svg PUBLIC "-//W3C//DTD SVG 1.1//EN" "http://www.w3.org/Graphics/SVG/1.1/DTD/svg11.dtd">
<svg version="1.1" id="Calque_1" xmlns="http://www.w3.org/2000/svg" xmlns:xlink="http://www.w3.org/1999/xlink" x="0px" y="0px"
	 width="512px" height="512px" viewBox="0 0 512 512" enable-background="new 0 0 512 512" xml:space="preserve">
<path id="trash-can-2-icon" fill="#fff" d="M210.333,194.45c0-8.29-6.716-15.012-15-15.012s-15,6.722-15,15.012v182.153
	c0,8.291,6.716,15.013,15,15.013s15-6.722,15-15.013V194.45z M271,194.45c0-8.29-6.716-15.012-15-15.012s-15,6.722-15,15.012
	v182.153c0,8.291,6.716,15.013,15,15.013s15-6.722,15-15.013V194.45z M331.666,194.45c0-8.29-6.716-15.012-15-15.012
	c-8.283,0-15,6.722-15,15.012v182.153c0,8.291,6.717,15.013,15,15.013c8.284,0,15-6.722,15-15.013V194.45z M371.334,424.976H140.666
	V146.079h-35V460h300.668V146.079h-35V424.976L371.334,424.976z M329.625,76.022c-15.465,0-28-12.546-28-28.022h-91.25
	c0,15.478-12.535,28.022-28,28.022H87.438v40.032h337.125V76.022H329.625z"/>
</svg>
