<?xml version="1.0" encoding="utf-8"?>
<!-- Generator: Adobe Illustrator 18.1.0, SVG Export Plug-In . SVG Version: 6.00 Build 0)  -->
<!DOCTYPE svg PUBLIC "-//W3C//DTD SVG 1.1//EN" "http://www.w3.org/Graphics/SVG/1.1/DTD/svg11.dtd">
<svg version="1.1" id="Calque_1" xmlns="http://www.w3.org/2000/svg" xmlns:xlink="http://www.w3.org/1999/xlink" x="0px" y="0px"
	 viewBox="0 0 512 512" enable-background="new 0 0 512 512" xml:space="preserve">
<rect fill="#FFFFFF" width="512" height="512"/>
<path fill="#B0C64B" d="M134.3,316.4l61.3,61.3l139.5-139.5l-61.3-61.3L134.3,316.4z M197.6,363.4l-49-49l124.3-124.2l49,49
	L197.6,363.4z M277,140.2l94.8,94.9l-11.2,11.2l-94.8-94.9L277,140.2z M428.6,167l-9.2,9.2l-16.6-16.7l-46.3,46.3l-50.3-50.4
	l46.3-46.3l-16.6-16.6l9.2-9.3L428.6,167z M146.6,345l20.4,20.4l-75.5,63.3l-8.2-8.2L146.6,345z M178.8,284.4l30.7,30.7L198,326.6
	l-30.7-30.7L178.8,284.4z M207.1,256.1l30.7,30.7l-11.5,11.5l-30.7-30.7L207.1,256.1z M234.5,228.8l30.7,30.6l-11.5,11.5L223,240.3
	L234.5,228.8z M258.7,204.5l30.7,30.7l-11.5,11.5L247.3,216L258.7,204.5z"/>
</svg>
