<?xml version="1.0" encoding="utf-8"?>
<!-- Generator: Adobe Illustrator 18.1.1, SVG Export Plug-In . SVG Version: 6.00 Build 0)  -->
<svg version="1.1" id="Calque_1" xmlns="http://www.w3.org/2000/svg" xmlns:xlink="http://www.w3.org/1999/xlink" x="0px" y="0px"
	 viewBox="0 0 512 512" enable-background="new 0 0 512 512" xml:space="preserve">
<g>
	<g>
		<path fill="#9E2121" d="M54.9,459.2C80.5,484.9,114.7,499,151,499s70.5-14.1,96.1-39.8l79.9-79.9c4.9-4.9,4.9-12.8,0-17.7l-50-50
			l-44.1,44.1l13.9,13.9l-44.7,44.7c-28.3,28.3-74.1,28.3-102.3,0l-1.5-1.5c-28.3-28.3-28.3-74.1,0-102.3l44.7-44.7l13.9,13.9
			l44.1-44.1l-50-50c-4.9-4.9-12.8-4.9-17.7,0l-79.9,79.9c-25.7,25.7-39.8,59.8-39.8,96.1c0,36.3,14.1,70.5,39.8,96.1L54.9,459.2z"
			/>
		<path fill="#9E2121" d="M457.1,53.9c-25.7-25.7-59.8-39.8-96.1-39.8s-70.4,14.1-96.1,39.8l-81.6,81.6c-4.9,4.9-4.9,12.8,0,17.7
			l50,50l45.8-45.8l-13.9-13.9l44.7-44.7c28.3-28.3,74.1-28.3,102.3,0l1.5,1.5c28.3,28.3,28.3,74.1,0,102.3L369,247.4l-13.9-13.9
			l-45.8,45.8l50,50c4.9,4.9,12.8,4.9,17.7,0l81.6-81.6c25.7-25.7,39.8-59.8,39.8-96.1s-14.1-70.5-39.8-96.1L457.1,53.9z"/>
	</g>
</g>
</svg>
