<?xml version="1.0" encoding="utf-8"?>
<!-- Generator: Adobe Illustrator 17.1.0, SVG Export Plug-In . SVG Version: 6.00 Build 0)  -->
<!DOCTYPE svg PUBLIC "-//W3C//DTD SVG 1.1//EN" "http://www.w3.org/Graphics/SVG/1.1/DTD/svg11.dtd">
<svg version="1.1" id="Calque_1" xmlns="http://www.w3.org/2000/svg" xmlns:xlink="http://www.w3.org/1999/xlink" x="0px" y="0px"
	 viewBox="0 0 512 512" enable-background="new 0 0 512 512" xml:space="preserve">
<path id="user-14-icon" fill="#666666" d="M462,359.4H382c0-87-43.5-45.6-43.5-121.9c0-27.5,18-42.5,41.1-42.5
	c34.2,0,58,32.6,25.6,93.7c-10.6,20,11.3,24.8,34.9,30.3C463.8,324.4,462,336.8,462,359.4z M71.8,318.9
	c23.6-5.4,45.5-10.2,34.9-30.3c-32.4-61-8.6-93.7,25.6-93.7c23.1,0,41.1,14.9,41.1,42.5c0,76.2-43.5,34.9-43.5,121.9H50
	C50,336.8,48.2,324.4,71.8,318.9z M332.1,308.5c-29.7-6.8-57.3-12.8-43.9-38.1c40.7-76.8,10.8-117.8-32.2-117.8
	c-43.8,0-73,42.6-32.2,117.8c13.8,25.4-14.9,31.4-43.9,38.1c-29.7,6.8-27.4,22.5-27.4,50.9h207C359.5,331,361.8,315.3,332.1,308.5z"
	/>
</svg>
