<?xml version="1.0" encoding="utf-8"?>
<!-- Generator: Adobe Illustrator 17.1.0, SVG Export Plug-In . SVG Version: 6.00 Build 0)  -->
<!DOCTYPE svg PUBLIC "-//W3C//DTD SVG 1.1//EN" "http://www.w3.org/Graphics/SVG/1.1/DTD/svg11.dtd">
<svg version="1.1" id="Calque_1" xmlns="http://www.w3.org/2000/svg" xmlns:xlink="http://www.w3.org/1999/xlink" x="0px" y="0px"
	 viewBox="0 0 512 512" enable-background="new 0 0 512 512" xml:space="preserve">
<path id="lifebuoy-icon" fill="#FFFFFF" d="M256,50C142.3,50,50,142.2,50,256c0,113.7,92.3,206,206,206s206-92.2,206-206
	C462,142.3,369.8,50,256,50z M331,331c-41.4,41.4-108.5,41.5-149.9,0c-41.4-41.4-41.4-108.5,0-149.9s108.5-41.4,149.9,0
	C372.3,222.4,372.4,289.5,331,331z M336.3,93.7l-24.8,43.6c-34.9-16.3-75.9-16.4-110.9,0l-24.8-43.6
	C225.2,69.2,285.2,68.4,336.3,93.7z M93.6,176l43.6,24.8c-16.3,35-16.5,76.8,1.1,112.6l-43.5,24.8C69.2,288.4,68.1,227.6,93.6,176z
	 M177,418.9l24.8-43.6c34.2,15.5,74.1,15.6,108.3,0l24.8,43.6C286,442.7,227.2,443.3,177,418.9z M373.8,313.5
	c17.5-35.8,17.4-77.6,1.1-112.6l43.6-24.8c24.7,50,25.2,110.8-1.1,162.3L373.8,313.5z"/>
</svg>
