<?xml version="1.0" encoding="utf-8"?>
<!-- Generator: Adobe Illustrator 18.0.0, SVG Export Plug-In . SVG Version: 6.00 Build 0)  -->
<!DOCTYPE svg PUBLIC "-//W3C//DTD SVG 1.1//EN" "http://www.w3.org/Graphics/SVG/1.1/DTD/svg11.dtd">
<svg version="1.1" id="Calque_1" xmlns="http://www.w3.org/2000/svg" xmlns:xlink="http://www.w3.org/1999/xlink" x="0px" y="0px"
	 viewBox="0 0 512 512" enable-background="new 0 0 512 512" xml:space="preserve">
<path id="year-icon" fill="#DE6734" d="M356.2,247.4l-195.1,0c-7.1-20-26-34.3-48.3-34.3c-28.4,0-51.5,23.1-51.5,51.5
	c0,28.4,23.1,51.5,51.5,51.5c22.4,0,41.3-14.4,48.3-34.3h195.1c7.1,20,26,34.3,48.3,34.3c28.4,0,51.5-23.1,51.5-51.5
	c0-28.4-23.1-51.5-51.5-51.5C382.2,213.1,363.3,227.5,356.2,247.4z M112.8,295.5c-17,0-30.9-13.9-30.9-30.9
	c0-17,13.9-30.9,30.9-30.9c17,0,30.9,13.9,30.9,30.9C143.6,281.6,129.8,295.5,112.8,295.5z M435.5,264.6c0,17-13.9,30.9-30.9,30.9
	s-30.9-13.9-30.9-30.9c0-17,13.9-30.9,30.9-30.9S435.5,247.5,435.5,264.6z"/>
</svg>
