<?xml version="1.0" encoding="utf-8"?>
<!-- Generator: Adobe Illustrator 16.2.0, SVG Export Plug-In . SVG Version: 6.00 Build 0)  -->
<!DOCTYPE svg PUBLIC "-//W3C//DTD SVG 1.1//EN" "http://www.w3.org/Graphics/SVG/1.1/DTD/svg11.dtd">
<svg version="1.1" id="Calque_1" xmlns="http://www.w3.org/2000/svg" xmlns:xlink="http://www.w3.org/1999/xlink" x="0px" y="0px"
	 width="22.000000000000004" height="22.000000000000004" viewBox="0 0 22 22" enable-background="new 0 0 22 22" xml:space="preserve">

  <path d="m1.807884,11.415791l0,6.805623c0,2.080807 1.125267,3.769298 2.513211,3.769298l15.14875,0c1.387858,0 2.513082,-1.688435 2.513082,-3.769298l0,-6.805623l-20.175043,0z" fill="#757FBD"/>
  <path d="m19.467736,-0.000042l-15.155036,0c-1.146038,0 -2.111149,1.212979 -2.413983,2.869782c-0.032563,0.178205 -0.057599,0.361526 -0.074719,0.548821c-0.00043,0.000327 -0.001204,0.001143 -0.002022,0.00147c-0.37794,0.30715 -0.97836,0.861196 -1.594912,1.703613c-0.771151,1.053879 0.784831,4.391326 1.571382,5.924627l0,0.78815l20.183415,0l0,-7.863543c0,-0.383135 -0.036435,-0.75239 -0.100142,-1.103084c-0.302963,-1.656858 -1.268333,-2.869837 -2.413983,-2.869837z" fill="#6F78B9"/>
</svg>
