<?xml version="1.0" encoding="utf-8"?>
<!-- Generator: Adobe Illustrator 16.2.0, SVG Export Plug-In . SVG Version: 6.00 Build 0)  -->
<!DOCTYPE svg PUBLIC "-//W3C//DTD SVG 1.1//EN" "http://www.w3.org/Graphics/SVG/1.1/DTD/svg11.dtd">
<svg version="1.1" id="Calque_1" xmlns="http://www.w3.org/2000/svg" xmlns:xlink="http://www.w3.org/1999/xlink" x="0px" y="0px"
	 width="512px" height="397px" viewBox="0 0 512 397" enable-background="new 0 0 512 397" xml:space="preserve">
<path fill="#757FBD" d="M42.089,206.165V328.55c0,37.419,26.17,67.783,58.449,67.783h352.31c32.277,0,58.446-30.363,58.446-67.783
	V206.165H42.089z"/>
<path fill="#6F78B9" d="M452.848,0h-352.31C73.896,0,51.46,22.285,44.42,52.724c-0.757,3.274-1.339,6.642-1.737,10.083
	c-0.01,0.006-0.028,0.021-0.047,0.027C33.85,68.477,19.892,78.656,5.559,94.133c-17.927,19.362,18.245,80.678,36.53,108.848v14.48
	h469.205V72.991c0-7.039-0.847-13.823-2.328-20.266C501.923,22.285,479.481,0,452.848,0z"/>
</svg>
