<?xml version="1.0" encoding="utf-8"?>
<!-- Generator: Adobe Illustrator 20.0.0, SVG Export Plug-In . SVG Version: 6.00 Build 0)  -->
<svg version="1.1" id="Calque_1" xmlns="http://www.w3.org/2000/svg" xmlns:xlink="http://www.w3.org/1999/xlink" x="0px" y="0px"
	 viewBox="0 0 24 24" style="enable-background:new 0 0 24 24;" xml:space="preserve">
<style type="text/css">
	.st0{fill:#666666;}
	.st1{fill:#FFFFFF;}
</style>
<path class="st0" d="M14.5,3.3v13.1H4V6.6h3.3V3.3H14.5z M2.7,5.9v11.8h13.1V2H6.6L2.7,5.9z"/>
<polygon class="st1" points="6.2,5.6 4.3,5.6 6.2,3.7 "/>
<polygon class="st1" points="14.5,3.3 14.5,16.4 4,16.4 4,6.6 7.3,6.6 7.3,3.3 "/>
<g>
	<path class="st0" d="M8.2,10.6V22h12.7V6.8H12L8.2,10.6z M12,10.6h-1.9L12,8.7V10.6z M19.6,20.8H9.5v-8.9h3.8V8.1h6.3V20.8
		L19.6,20.8z"/>
	<polygon class="st1" points="9.5,20.7 9.5,11.9 13.3,11.9 13.3,8.1 19.6,8.1 19.6,20.7 	"/>
	<polygon class="st1" points="12,10.6 10.1,10.6 12,8.7 	"/>
</g>
</svg>
