<?xml version="1.0" encoding="utf-8"?>
<!-- Generator: Adobe Illustrator 19.2.1, SVG Export Plug-In . SVG Version: 6.00 Build 0)  -->
<svg version="1.1" id="Capa_1" xmlns="http://www.w3.org/2000/svg" xmlns:xlink="http://www.w3.org/1999/xlink" x="0px" y="0px"
	 viewBox="0 0 34.9 34.9" style="enable-background:new 0 0 34.9 34.9;" xml:space="preserve">
<style type="text/css">
	.st0{fill:#666666;}
	.st1{fill:#FFFFFF;}
</style>
<g>
	<path class="st0" d="M24.6,4.7h-1.9c0.1-0.2,0.1-0.5,0-0.7c-0.1-0.5-0.6-0.8-1.1-0.8h-12C9,3.2,8.6,3.5,8.5,4c-0.1,0.2,0,0.5,0,0.7
		H6.6C6,4.7,5.5,5.2,5.5,5.8v22.3c0,0.6,0.5,1.1,1.1,1.1h18c0.6,0,1.1-0.5,1.1-1.1V5.8C25.7,5.2,25.2,4.7,24.6,4.7z M12.9,27H7.7V7
		H10l2.1,5.2c0,0.1,0.2,0.2,0.3,0.2c0,0,0,0,0.1,0s0.2,0,0.3-0.1l1.8-2L12.9,27z M12.6,11.3L10,5l4.8,3.8L12.6,11.3z M21.2,5
		l-2.5,6.3l-2.3-2.5L21.2,5z M23.5,27h-5.4l-1.6-17l2,2.2c0.1,0.1,0.2,0.1,0.3,0.1c0,0,0,0,0.1,0s0.2-0.1,0.3-0.2l2.1-5.2h2.3
		L23.5,27L23.5,27z"/>
</g>
<path class="st1" d="M28.6,15.3C28.4,15.1,28.2,15,28,15c-0.2,0-0.5,0.1-0.7,0.3l-7.5,7.5l-2.7-2.7c-0.2-0.2-0.4-0.3-0.7-0.3
	c-0.2,0-0.5,0.1-0.7,0.3L12,23.9c-0.4,0.4-0.4,1,0,1.3l7.1,7.1c0.2,0.2,0.4,0.3,0.7,0.3s0.5-0.1,0.7-0.3l11.9-11.9
	c0.4-0.4,0.4-1,0-1.3L28.6,15.3z"/>
<path class="st0" d="M28.6,15.3C28.4,15.1,28.2,15,28,15c-0.2,0-0.5,0.1-0.7,0.3l-7.5,7.5l-2.7-2.7c-0.2-0.2-0.4-0.3-0.7-0.3
	c-0.2,0-0.5,0.1-0.7,0.3L12,23.9c-0.4,0.4-0.4,1,0,1.3l7.1,7.1c0.2,0.2,0.4,0.3,0.7,0.3s0.5-0.1,0.7-0.3l11.9-11.9
	c0.4-0.4,0.4-1,0-1.3L28.6,15.3z M19.8,30.3L14,24.5l2.4-2.4l2.7,2.7c0.2,0.2,0.4,0.3,0.7,0.3c0.2,0,0.5-0.1,0.7-0.3l7.5-7.5
	l2.4,2.4L19.8,30.3z"/>
</svg>
