<?xml version="1.0" encoding="utf-8"?>
<!-- Generator: Adobe Illustrator 19.2.1, SVG Export Plug-In . SVG Version: 6.00 Build 0)  -->
<svg version="1.1" id="Calque_1" xmlns="http://www.w3.org/2000/svg" xmlns:xlink="http://www.w3.org/1999/xlink" x="0px" y="0px"
	 viewBox="0 0 24 24" style="enable-background:new 0 0 24 24;" xml:space="preserve">
<style type="text/css">
	.st0{fill:#666666;}
	.st1{fill:#FFFFFF;}
	.st2{fill:#4DBFF5;stroke:#666666;stroke-miterlimit:10;}
</style>
<g>
	<path class="st0" d="M18.6,3.3h-1.3c0.1-0.1,0.1-0.4,0-0.5c-0.1-0.4-0.4-0.6-0.8-0.6H7.9c-0.4,0-0.7,0.2-0.8,0.6
		c-0.1,0.1,0,0.4,0,0.5H5.8C5.4,3.3,5,3.7,5,4.1v15.8c0,0.4,0.4,0.8,0.8,0.8h12.8c0.4,0,0.8-0.4,0.8-0.8V4.1
		C19.4,3.7,19,3.3,18.6,3.3z"/>
</g>
<path class="st1" d="M10.3,19.2H6.6V4.9h1.6l1.5,3.7c0,0.1,0.1,0.1,0.2,0.1c0,0,0,0,0.1,0s0.1,0,0.2-0.1l1.3-1.4L10.3,19.2z"/>
<polygon class="st1" points="10,8 8.2,3.5 11.6,6.2 "/>
<polygon class="st1" points="16.2,3.5 14.4,8 12.7,6.2 "/>
<path class="st1" d="M17.8,19.2H14L12.8,7.1l1.4,1.6c0.1,0.1,0.1,0.1,0.2,0.1c0,0,0,0,0.1,0c0.1,0,0.1-0.1,0.2-0.1l1.5-3.7h1.6
	L17.8,19.2L17.8,19.2z"/>
<g>
	<path class="st2" d="M14.6,13.4v3h-3c-0.2,0-0.3,0.2-0.3,0.3v1.6c0,0.2,0.2,0.3,0.3,0.3h3v3c0,0.2,0.2,0.3,0.3,0.3h1.6
		c0.2,0,0.3-0.2,0.3-0.3v-3h3c0.2,0,0.3-0.2,0.3-0.3v-1.6c0-0.2-0.2-0.3-0.3-0.3h-3v-3c0-0.2-0.2-0.3-0.3-0.3h-1.6
		C14.7,13.2,14.6,13.2,14.6,13.4z"/>
</g>
</svg>
