<?xml version="1.0" encoding="utf-8"?>
<!-- Generator: Adobe Illustrator 19.2.1, SVG Export Plug-In . SVG Version: 6.00 Build 0)  -->
<svg version="1.1" id="Capa_1" xmlns="http://www.w3.org/2000/svg" xmlns:xlink="http://www.w3.org/1999/xlink" x="0px" y="0px"
	 viewBox="0 0 34.9 34.9" style="enable-background:new 0 0 34.9 34.9;" xml:space="preserve">
<style type="text/css">
	.st0{fill:#666666;}
	.st1{fill:#FFFFFF;}
	.st2{fill:#4DBFF5;stroke:#666666;stroke-width:2;stroke-miterlimit:10;}
</style>
<g>
	<path class="st0" d="M24.6,4.7h-1.9c0.1-0.2,0.1-0.5,0-0.7c-0.1-0.5-0.6-0.8-1.1-0.8h-12C9,3.2,8.6,3.5,8.5,4c-0.1,0.2,0,0.5,0,0.7
		H6.6C6,4.7,5.5,5.2,5.5,5.8v22.3c0,0.6,0.5,1.1,1.1,1.1h18c0.6,0,1.1-0.5,1.1-1.1V5.8C25.7,5.2,25.2,4.7,24.6,4.7z"/>
	<path class="st1" d="M12.9,27H7.7V7H10l2.1,5.2c0,0.1,0.2,0.2,0.3,0.2c0,0,0,0,0.1,0s0.2,0,0.3-0.1l1.8-2L12.9,27z"/>
	<polygon class="st1" points="12.6,11.3 10,5 14.8,8.8 	"/>
	<polygon class="st1" points="21.2,5 18.7,11.3 16.4,8.8 	"/>
	<path class="st1" d="M23.5,27h-5.4l-1.6-17l2,2.2c0.1,0.1,0.2,0.1,0.3,0.1c0,0,0,0,0.1,0s0.2-0.1,0.3-0.2l2.1-5.2h2.3L23.5,27
		L23.5,27z"/>
	<g>
		<path class="st2" d="M26.6,15.6l-4.3,4.6l-4.6-4.3c-0.2-0.2-0.6-0.2-0.8,0l-2.4,2.5c-0.2,0.2-0.2,0.6,0,0.8l4.6,4.3l-4.3,4.6
			c-0.2,0.2-0.2,0.6,0,0.8l2.5,2.4c0.2,0.2,0.6,0.2,0.8,0l4.3-4.6L27,31c0.2,0.2,0.6,0.2,0.8,0l2.4-2.5c0.2-0.2,0.2-0.6,0-0.8
			l-4.6-4.3l4.3-4.6c0.2-0.2,0.2-0.6,0-0.8l-2.5-2.4C27.2,15.3,26.8,15.3,26.6,15.6z"/>
	</g>
</g>
</svg>
