<?xml version="1.0" encoding="utf-8"?>
<!-- Generator: Adobe Illustrator 19.2.1, SVG Export Plug-In . SVG Version: 6.00 Build 0)  -->
<svg version="1.1" id="Calque_1" xmlns="http://www.w3.org/2000/svg" xmlns:xlink="http://www.w3.org/1999/xlink" x="0px" y="0px"
	 viewBox="0 0 24 24" style="enable-background:new 0 0 24 24;" xml:space="preserve">
<style type="text/css">
	.st0{fill:#666666;}
	.st1{fill:#FFFFFF;}
	.st2{fill:#0095D7;stroke:#666666;stroke-width:0.75;stroke-miterlimit:10;}
	.st3{fill:#262C3A;}
	.st4{fill:#4DBFF5;}
</style>
<g>
	<path class="st0" d="M18,3.7h-1.3c0.1-0.1,0.1-0.3,0-0.5c-0.1-0.3-0.4-0.6-0.8-0.6H7.6c-0.4,0-0.7,0.2-0.8,0.6
		c-0.1,0.1,0,0.3,0,0.5H5.5C5.1,3.7,4.8,4,4.8,4.4v15.4c0,0.4,0.3,0.8,0.8,0.8H18c0.4,0,0.8-0.3,0.8-0.8V4.4C18.8,4,18.4,3.7,18,3.7
		z"/>
</g>
<polygon class="st1" points="9.7,8.2 7.9,3.9 11.2,6.5 "/>
<polygon class="st1" points="15.6,3.9 13.9,8.2 12.3,6.5 "/>
<path class="st1" d="M15.7,5.2l-1.5,3.6c-0.1,0.1-0.1,0.1-0.2,0.1s-0.1,0-0.1,0c-0.1,0-0.1,0-0.2-0.1l-1.4-1.5l-0.6-0.8l-0.7,1
	L9.8,8.9C9.8,9,9.7,9,9.6,9C9.6,9,9.6,9,9.6,9C9.5,9,9.3,8.9,9.3,8.9L7.9,5.3H6.3v13.9h3.4h0.2h3.6h3.7l0.1-13.9H15.7z"/>
<path class="st2" d="M21.8,14.9L21.8,14.9L21.8,14.9l-2.3-2.3l0,0l0,0h-4.1c-0.6,0-1.1,0.5-1.1,1.1v7.2c0,0.6,0.5,1.1,1.1,1.1h5.3
	c0.6,0,1.1-0.5,1.1-1.1V14.9L21.8,14.9z"/>
<polygon class="st3" points="19.4,15 21.4,17.1 21.4,15 "/>
<polygon class="st4" points="21.4,15 19.4,12.9 19.4,15 "/>
<rect x="12" y="9.3" class="st0" width="4.2" height="2.3"/>
</svg>
