<?xml version="1.0" encoding="utf-8"?>
<!-- Generator: Adobe Illustrator 16.2.0, SVG Export Plug-In . SVG Version: 6.00 Build 0)  -->
<!DOCTYPE svg PUBLIC "-//W3C//DTD SVG 1.1//EN" "http://www.w3.org/Graphics/SVG/1.1/DTD/svg11.dtd">
<svg version="1.1" id="Layer_1" xmlns="http://www.w3.org/2000/svg" xmlns:xlink="http://www.w3.org/1999/xlink" x="0px" y="0px"
	 width="512px" height="512px" viewBox="0 0 512 512" enable-background="new 0 0 512 512" xml:space="preserve">
<path fill="#797979" stroke="#797979" stroke-width="16" stroke-miterlimit="10" d="M327.674,292.307
	c1.886,7.072-1.625,14.149-7.841,15.808l-186.631,49.772c-6.215,1.657-12.783-2.732-14.668-9.805L69.015,162.405
	c-1.886-7.072,1.623-14.149,7.838-15.807l186.631-49.772c6.216-1.658,12.783,2.732,14.669,9.804l49.519,185.679L327.674,292.307z"/>
<polygon fill="#FFFFFF" stroke="#797979" stroke-width="9" stroke-miterlimit="10" points="145.596,191.133 163.958,124.787 
	105.073,93.672 95.79,144.125 "/>
<polygon fill="#FFFFFF" stroke="#797979" stroke-width="9" stroke-miterlimit="10" points="226.965,169.432 177.607,121.564 
	212.65,64.82 246.144,103.613 "/>
<path fill="#797979" stroke="#797979" stroke-width="9" stroke-miterlimit="10" d="M165.848,120.574l-58.376-32.438
	c0,0,38.958-50.762,100.352-26.763l-34.47,57.2L165.848,120.574z"/>
<path id="multi-files-2-icon" display="none" fill="#797979" d="M298.027,122.528H143.055v286.943h40V162.528h154.973
	L298.027,122.528z M226,50H71.027v304.943h40V90H266L226,50z"/>
<g>
	<path fill="#FFFFFF" stroke="#FFFFFF" stroke-width="9" stroke-miterlimit="10" d="M357.613,415.852V212.529
		c0-7.744-5.518-14.023-12.325-14.023h-20.65l-22.593-46.579l-49.31,46.579h-18.386L184.2,152.093l-21.997,46.414h-21.282
		c-6.806,0-12.323,6.279-12.323,14.023v203.323c0,7.744,5.517,14.022,12.323,14.022h204.366c6.808,0,12.327-6.278,12.327-14.022
		H357.613z"/>
	<path fill="#FFFFFF" stroke="#FFFFFF" stroke-width="9" stroke-miterlimit="10" d="M247.216,196.165l50.833-49.079
		c-56.221-41.273-109.887,0-109.887,0l50.835,49.079H247.216z"/>
</g>
<path fill="#797979" stroke="#797979" stroke-width="16" stroke-miterlimit="10" d="M373.461,424.247
	c0,7.319-5.216,13.253-11.649,13.253H168.658c-6.433,0-11.647-5.934-11.647-13.253V232.079c0-7.319,5.214-13.253,11.647-13.253
	h193.154c6.433,0,11.647,5.934,11.647,13.253v192.168H373.461z"/>
<polygon fill="#FFFFFF" stroke="#797979" stroke-width="9" stroke-miterlimit="10" points="223.603,279.57 258.441,220.197 
	209.562,174.958 187.592,221.316 "/>
<polygon fill="#FFFFFF" stroke="#797979" stroke-width="9" stroke-miterlimit="10" points="307.816,279.57 272.459,220.599 
	320.941,174.802 343.308,220.915 "/>
<path fill="#797979" stroke="#797979" stroke-width="9" stroke-miterlimit="10" d="M261.353,216.613l-48.046-46.386
	c0,0,50.722-39.009,103.859,0l-48.045,46.386H261.353z"/>
</svg>
