<?xml version="1.0" encoding="utf-8"?>
<!-- Generator: Adobe Illustrator 16.2.0, SVG Export Plug-In . SVG Version: 6.00 Build 0)  -->
<!DOCTYPE svg PUBLIC "-//W3C//DTD SVG 1.1//EN" "http://www.w3.org/Graphics/SVG/1.1/DTD/svg11.dtd">
<svg version="1.1" id="Calque_1" xmlns="http://www.w3.org/2000/svg" xmlns:xlink="http://www.w3.org/1999/xlink" x="0px" y="0px"
	 width="512px" height="512px" viewBox="0 0 512 512" enable-background="new 0 0 512 512" xml:space="preserve">
<path display="none" fill="#4E7077" d="M386.557,51.257H138.341c-0.006,0-0.013,0-0.02,0h-0.284
	c-27.82,0-50.393,22.968-50.393,51.291v325.907c0,28.341,22.571,51.3,50.393,51.3h248.214c27.819,0,50.395-22.959,50.395-51.3
	v-55.569l0.285-0.286v0.051v1.305l0.018-0.016V102.556C436.948,74.216,414.377,51.257,386.557,51.257z"/>
<path fill="#8ABEC9" d="M380.108,44.257H131.894c-0.006,0-0.013,0-0.019,0h-0.285c-27.82,0-50.393,22.968-50.393,51.291v325.907
	c0,28.341,22.571,51.3,50.393,51.3h248.215c27.82,0,50.394-22.959,50.394-51.3v-55.569l0.286-0.286v0.051v1.305l0.019-0.016V95.556
	C430.502,67.216,407.929,44.257,380.108,44.257z"/>
<path display="none" fill="#FFFFFF" stroke="#000000" stroke-width="16" stroke-miterlimit="10" d="M375.511,407.979
	c0,7.11-5.767,12.879-12.879,12.879H149.067c-7.11,0-12.878-5.769-12.878-12.879V221.244c0-7.112,5.768-12.878,12.878-12.878
	h213.565c7.112,0,12.879,5.766,12.879,12.878V407.979L375.511,407.979z"/>
<polygon display="none" fill="#FFFFFF" stroke="#000000" stroke-width="9" stroke-miterlimit="10" points="209.281,267.394 
	247.8,209.698 193.755,165.738 169.463,210.786 "/>
<polygon display="none" fill="#FFFFFF" stroke="#000000" stroke-width="9" stroke-miterlimit="10" points="302.391,267.394 
	263.298,210.088 316.904,165.586 341.635,210.396 "/>
<path display="none" stroke="#000000" stroke-width="9" stroke-miterlimit="10" d="M251.02,206.215l-53.124-45.074
	c0,0,56.082-37.905,114.833,0l-53.123,45.074H251.02z"/>
<polygon display="none" stroke="#000000" stroke-width="5" stroke-miterlimit="10" points="253.568,203.53 210.24,264.167 
	246.712,275.43 220.839,413.745 253.568,413.745 "/>
<polygon display="none" stroke="#000000" stroke-width="5" stroke-miterlimit="10" points="255.851,203.53 299.178,264.167 
	262.699,275.43 288.581,413.745 255.851,413.745 "/>
<path fill="#FFFFFF" stroke="#4E7077" stroke-width="5" stroke-miterlimit="10" d="M381.93,402.868v-161.91H255.999v-107.94H130.07
	v269.851h-17.99v17.99h287.841v-17.99H381.93z M148.06,151.008h35.98v35.98h-35.98V151.008z M148.06,204.977h35.98v35.98h-35.98
	V204.977z M148.06,258.947h35.98v35.98h-35.98V258.947z M148.06,312.918h35.98v35.98h-35.98V312.918z M220.02,402.868h-53.97
	v-35.979h53.97V402.868z M238.01,348.898h-35.98v-35.98h35.98V348.898z M238.01,294.927h-35.98v-35.98h35.98V294.927z
	 M238.01,240.958h-35.98v-35.98h35.98V240.958z M238.01,186.988h-35.98v-35.98h35.98V186.988z M273.99,258.947h35.979v35.98H273.99
	V258.947z M273.99,312.918h35.979v35.98H273.99V312.918z M345.95,402.868h-53.97v-35.979h53.97V402.868z M363.941,348.898h-35.979
	v-35.98h35.979V348.898z M363.941,294.927h-35.979v-35.98h35.979V294.927z"/>
</svg>
