<?xml version="1.0" encoding="utf-8"?>
<!-- Generator: Adobe Illustrator 19.2.1, SVG Export Plug-In . SVG Version: 6.00 Build 0)  -->
<svg version="1.1" id="Calque_1" xmlns="http://www.w3.org/2000/svg" xmlns:xlink="http://www.w3.org/1999/xlink" x="0px" y="0px"
	 viewBox="0 0 24 24" style="enable-background:new 0 0 24 24;" xml:space="preserve">
<style type="text/css">
	.st0{fill:#FFFFFF;stroke:#666666;stroke-width:0.5;stroke-miterlimit:10;}
	.st1{fill:#EAEAEA;}
	.st2{fill:#F4F4F4;}
	.st3{fill:#E7ECED;}
	.st4{fill:#C7CAC7;}
</style>
<path class="st0" d="M18.4,7.3L18.4,7.3L18.4,7.3l-4.1-4.2l0,0l0,0H7c-1.1,0-1.9,0.9-1.9,2V18c0,1.1,0.9,2,1.9,2h9.5
	c1.1,0,1.9-0.9,1.9-2V7.3L18.4,7.3z"/>
<polygon class="st1" points="14.2,7.4 18.2,11.3 18.2,7.4 "/>
<polygon class="st2" points="18.2,7.4 14.2,3.3 14.2,7.4 "/>
<path class="st3" d="M16.3,12.6h-0.5c-0.1-0.5-0.3-0.9-0.5-1.3l0.4-0.4c0.1-0.1,0.1-0.3,0-0.5l-0.9-0.9c-0.1-0.1-0.3-0.1-0.5,0
	L13.9,10c-0.4-0.2-0.8-0.4-1.3-0.5V8.9c0-0.2-0.2-0.3-0.3-0.3h-1.2c-0.2,0-0.3,0.2-0.3,0.3v0.5C10.3,9.6,9.9,9.7,9.5,10L9.1,9.6
	C9,9.5,8.7,9.5,8.6,9.6l-0.9,0.9c-0.1,0.1-0.1,0.3,0,0.5l0.4,0.4c-0.2,0.4-0.4,0.8-0.5,1.3H7.1c-0.2,0-0.3,0.2-0.3,0.3v1.2
	c0,0.2,0.2,0.3,0.3,0.3h0.5c0.1,0.5,0.3,0.9,0.5,1.3l-0.4,0.4c-0.1,0.1-0.1,0.3,0,0.5l0.9,0.9c0.1,0.1,0.3,0.1,0.5,0l0.4-0.4
	c0.4,0.2,0.8,0.4,1.3,0.5v0.5c0,0.2,0.2,0.3,0.3,0.3h1.2c0.2,0,0.3-0.2,0.3-0.3v-0.5c0.5-0.1,0.9-0.3,1.3-0.5l0.4,0.4
	c0.1,0.1,0.3,0.1,0.5,0l0.9-0.9c0.1-0.1,0.1-0.3,0-0.5l-0.4-0.4c0.2-0.4,0.4-0.8,0.5-1.3h0.5c0.2,0,0.3-0.2,0.3-0.3v-1.2
	C16.6,12.7,16.5,12.6,16.3,12.6z M11.7,15.2c-0.9,0-1.7-0.8-1.7-1.7c0-0.9,0.8-1.7,1.7-1.7c0.9,0,1.7,0.8,1.7,1.7
	C13.4,14.5,12.6,15.2,11.7,15.2z"/>
<path class="st4" d="M11.7,11.1c-1.4,0-2.5,1.1-2.5,2.5s1.1,2.5,2.5,2.5s2.5-1.1,2.5-2.5S13,11.1,11.7,11.1z M11.7,15.2
	c-0.9,0-1.7-0.8-1.7-1.7c0-0.9,0.8-1.7,1.7-1.7c0.9,0,1.7,0.8,1.7,1.7C13.4,14.5,12.6,15.2,11.7,15.2z"/>
</svg>
