<?xml version="1.0" encoding="utf-8"?>
<!-- Generator: Adobe Illustrator 19.2.0, SVG Export Plug-In . SVG Version: 6.00 Build 0)  -->
<svg version="1.1" id="Calque_1" xmlns="http://www.w3.org/2000/svg" xmlns:xlink="http://www.w3.org/1999/xlink" x="0px" y="0px"
	 viewBox="0 0 512 512" style="enable-background:new 0 0 512 512;" xml:space="preserve">
<style type="text/css">
	.st0{fill:#81B5C1;}
	.st1{fill:#222222;}
</style>
<path class="st0" d="M491.2,191.6h-38.7v-77.3h-77.3V75.6h116V191.6z M375.1,423.7V385h77.3v-77.3h38.7v116H375.1z M27.1,307.7h38.7
	V385h77.3v38.7h-116V307.7z M143.1,75.6v38.7H65.8v77.3H27.1v-116H143.1z M413.8,153H104.4v193.4h309.4V153z"/>
<path class="st1" d="M486.2,185.6h-38.7v-77.3h-77.3V69.6h116V185.6z M370.1,417.7V379h77.3v-77.3h38.7v116H370.1z M22.1,301.7h38.7
	V379h77.3v38.7h-116V301.7z M138.1,69.6v38.7H60.8v77.3H22.1v-116H138.1z M408.8,147H99.4v193.4h309.4V147z"/>
</svg>
