<?xml version="1.0" encoding="utf-8"?>
<!-- Generator: Adobe Illustrator 19.2.0, SVG Export Plug-In . SVG Version: 6.00 Build 0)  -->
<svg version="1.1" id="Calque_1" xmlns="http://www.w3.org/2000/svg" xmlns:xlink="http://www.w3.org/1999/xlink" x="0px" y="0px"
	 viewBox="0 0 512 512" style="enable-background:new 0 0 512 512;" xml:space="preserve">
<style type="text/css">
	.st0{fill:#F26722;}
</style>
<path class="st0" d="M257.2,48.4c-117.5,0-212.8,95.3-212.8,212.8S139.7,474,257.2,474S470,378.7,470,261.2S374.7,48.4,257.2,48.4z
	 M257.2,372c-12.2,0-22.2-9.9-22.2-22.2s9.9-22.2,22.2-22.2s22.2,9.9,22.2,22.2S269.4,372,257.2,372z M292,266.9
	c-16,17.3-16.8,26.8-16.6,38.6h-35.6c-0.1-26.2,0.4-37.7,25.4-61.5c10.2-9.6,18.2-17.3,17.1-32.3c-1-14.3-12.9-21.8-24.2-21.8
	c-12.6,0-27.3,9.3-27.3,35.7h-35.6c0-42.6,25-70,63.7-70c18.4,0,34.5,6,45.2,16.9c10.1,10.2,15.4,24.3,15.2,40.8
	C318.9,237.9,304,254,292,266.9L292,266.9z"/>
</svg>
