<?xml version="1.0" encoding="utf-8"?>
<!-- Generator: Adobe Illustrator 16.2.0, SVG Export Plug-In . SVG Version: 6.00 Build 0)  -->
<!DOCTYPE svg PUBLIC "-//W3C//DTD SVG 1.1//EN" "http://www.w3.org/Graphics/SVG/1.1/DTD/svg11.dtd">
<svg version="1.1" id="Calque_1" xmlns="http://www.w3.org/2000/svg" xmlns:xlink="http://www.w3.org/1999/xlink" x="0px" y="0px"
	 width="512px" height="512px" viewBox="0 0 512 512" enable-background="new 0 0 512 512" xml:space="preserve">
<rect id="background" x="0.336" display="none" fill="#9AD5E2" stroke="#80B8C4" stroke-width="25" stroke-linecap="round" stroke-linejoin="round" stroke-miterlimit="10" width="511.664" height="511.12"/>
<rect id="red-trash-background" display="none" fill="#E4AA98" stroke="#C49080" stroke-width="25" stroke-linecap="round" stroke-linejoin="round" stroke-miterlimit="10" width="511.664" height="511.12"/>
<rect id="full-fill" x="75.427" y="71.667" display="none" fill="#CFEAEE" stroke="#CFEAEE" stroke-width="3" stroke-miterlimit="10" width="145.358" height="354.544"/>
<g id="dashed-stroke" display="none">
	<g display="inline">
		<polyline fill="none" stroke="#FFFFFF" stroke-width="17" stroke-linecap="square" stroke-miterlimit="10" points="
			436.909,399.947 436.909,419.947 416.909,419.947 		"/>
		
			<line fill="none" stroke="#FFFFFF" stroke-width="17" stroke-linecap="square" stroke-miterlimit="10" stroke-dasharray="31.835,31.835" x1="385.074" y1="419.947" x2="337.321" y2="419.947"/>
		<polyline fill="none" stroke="#FFFFFF" stroke-width="17" stroke-linecap="square" stroke-miterlimit="10" points="
			321.404,419.947 301.404,419.947 301.404,399.947 		"/>
		
			<line fill="none" stroke="#FFFFFF" stroke-width="17" stroke-linecap="square" stroke-miterlimit="10" stroke-dasharray="43.1955,43.1955" x1="301.404" y1="356.752" x2="301.404" y2="119.176"/>
		<polyline fill="none" stroke="#FFFFFF" stroke-width="17" stroke-linecap="square" stroke-miterlimit="10" points="
			301.404,97.579 301.404,77.579 321.404,77.579 		"/>
		
			<line fill="none" stroke="#FFFFFF" stroke-width="17" stroke-linecap="square" stroke-miterlimit="10" stroke-dasharray="31.835,31.835" x1="353.239" y1="77.579" x2="400.991" y2="77.579"/>
		<polyline fill="none" stroke="#FFFFFF" stroke-width="17" stroke-linecap="square" stroke-miterlimit="10" points="
			416.909,77.579 436.909,77.579 436.909,97.579 		"/>
		
			<line fill="none" stroke="#FFFFFF" stroke-width="17" stroke-linecap="square" stroke-miterlimit="10" stroke-dasharray="43.1955,43.1955" x1="436.909" y1="140.774" x2="436.909" y2="378.35"/>
	</g>
</g>
<polygon id="shadow-cursor" display="none" fill="#90BDC1" points="362.016,296.463 224.363,298.643 255.381,263.392 
	194.737,235.281 207.412,208.042 268.548,236.489 275.727,189.904 "/>
<polygon id="cursor" display="none" fill="#FEFEFF" points="361.123,291.149 223.47,293.329 254.488,258.078 193.844,229.967 
	206.52,202.728 267.655,231.176 274.833,184.59 "/>
<path id="shadow-eye_1_" display="none" fill="#80B7C2" d="M259.25,150.666c-129.917,0-206.25,107-206.25,107
	s83,121.668,206.25,121.668C392,379.334,465,257.666,465,257.666S391.334,150.666,259.25,150.666z M261,345
	c-44.185,0-80-35.815-80-80c0-44.183,35.815-80,80-80c44.183,0,80,35.817,80,80C341,309.185,305.183,345,261,345z M306,265
	c0,24.854-20.147,45-45,45c-24.854,0-45-20.146-45-45c0-2.979,0.297-5.889,0.85-8.706c22.112,8.115,43.896-13.233,36.069-35.556
	c2.623-0.477,5.319-0.738,8.081-0.738C285.853,220,306,240.147,306,265z"/>
<path id="eye" display="none" fill="#FFFFFF" d="M256.25,141.666c-129.917,0-206.25,107-206.25,107s83,121.668,206.25,121.668
	C389,370.334,462,248.666,462,248.666S388.334,141.666,256.25,141.666z M258,336c-44.185,0-80-35.815-80-80
	c0-44.183,35.815-80,80-80c44.183,0,80,35.817,80,80C338,300.185,302.183,336,258,336z M303,256c0,24.854-20.147,45-45,45
	c-24.854,0-45-20.146-45-45c0-2.979,0.297-5.889,0.85-8.706c22.112,8.115,43.896-13.233,36.069-35.556
	c2.623-0.477,5.319-0.738,8.081-0.738C282.853,211,303,231.147,303,256z"/>
<path id="shadow-trash-can" display="none" fill="#D46565" d="M434.563,75.022v40.032H97.438V75.022h94.938
	c15.464,0,28-12.546,28-28.022h91.25c0,15.478,12.535,28.022,28,28.022H434.563z M416.334,145.079V459H115.667V145.079H416.334z
	 M207.333,207.462c0-8.291-6.716-15.012-15-15.012s-15,6.721-15,15.012v190.153c0,8.291,6.716,15.012,15,15.012s15-6.721,15-15.012
	V207.462z M281,207.462c0-8.291-6.715-15.012-15-15.012c-8.283,0-15,6.721-15,15.012v190.153c0,8.291,6.716,15.012,15,15.012
	c8.285,0,15-6.721,15-15.012V207.462z M354.666,207.462c0-8.291-6.715-15.012-15-15.012c-8.283,0-15,6.721-15,15.012v190.153
	c0,8.291,6.717,15.012,15,15.012c8.285,0,15-6.721,15-15.012V207.462z"/>
<path id="trash-can" display="none" fill="#FFFFFF" d="M422.563,65.022v40.032H85.438V65.022h94.938c15.464,0,28-12.546,28-28.022
	h91.25c0,15.478,12.535,28.022,28,28.022H422.563z M404.334,135.079V449H103.667V135.079H404.334z M195.333,197.462
	c0-8.291-6.716-15.012-15-15.012s-15,6.721-15,15.012v190.153c0,8.291,6.716,15.012,15,15.012s15-6.721,15-15.012V197.462z
	 M269,197.462c0-8.291-6.715-15.012-15-15.012c-8.284,0-15,6.721-15,15.012v190.153c0,8.291,6.716,15.012,15,15.012
	c8.285,0,15-6.721,15-15.012V197.462z M342.666,197.462c0-8.291-6.715-15.012-15-15.012c-8.283,0-15,6.721-15,15.012v190.153
	c0,8.291,6.717,15.012,15,15.012c8.285,0,15-6.721,15-15.012V197.462z"/>
<path id="shadow-undo" display="none" fill="#80B5C1" d="M393.096,130.335c-80.324-80.324-210.479-80.442-290.955-0.362L69.01,96.84
	l-0.105,122.839l122.839-0.105l-31.337-31.335c48.3-47.901,126.279-47.783,174.424,0.363c48.271,48.269,48.271,126.528,0,174.797
	c-24.135,24.134-55.766,36.201-87.397,36.201v82.399c52.721,0,105.438-20.111,145.664-60.336
	C473.543,341.215,473.543,210.783,393.096,130.335z"/>
<path id="undo" display="none" fill="#FFFFFF" d="M383.096,116.335c-80.324-80.324-210.479-80.442-290.955-0.362L59.01,82.84
	l-0.105,122.839l122.839-0.105l-31.337-31.335c48.3-47.901,126.279-47.783,174.424,0.363c48.271,48.269,48.271,126.528,0,174.797
	c-24.135,24.134-55.766,36.201-87.397,36.201v82.399c52.721,0,105.438-20.111,145.664-60.336
	C463.543,327.215,463.543,196.783,383.096,116.335z"/>
<path id="shadow-redo" display="none" fill="#80B5C1" d="M130.239,422.663c40.226,40.225,92.943,60.336,145.664,60.336V400.6
	c-31.632,0-63.263-12.067-87.397-36.201c-48.271-48.269-48.271-126.528,0-174.797c48.145-48.146,126.124-48.265,174.424-0.363
	l-31.337,31.335l122.839,0.105L454.326,97.84l-33.131,33.133c-80.477-80.08-210.631-79.962-290.955,0.362
	C49.793,211.783,49.793,342.215,130.239,422.663z"/>
<path id="redo" display="none" fill="#FFFFFF" d="M115.239,408.663c40.226,40.225,92.943,60.336,145.664,60.336V386.6
	c-31.632,0-63.263-12.067-87.397-36.201c-48.271-48.269-48.271-126.528,0-174.797c48.145-48.146,126.124-48.265,174.424-0.363
	l-31.337,31.335l122.839,0.105L439.326,83.84l-33.131,33.133c-80.477-80.08-210.631-79.962-290.955,0.362
	C34.793,197.783,34.793,328.215,115.239,408.663z"/>
<path id="shadow-save" display="none" fill="#80B5C1" d="M292.666,107.333h42.999V185h-42.999V107.333z M463,128v339H63V55h327
	L463,128z M157.5,207H361V85H157.5V207z M405.332,274.666H120.667v159.666h284.665V274.666L405.332,274.666z"/>
<path id="save" display="none" fill="#FFFFFF" d="M285.834,101.333h42.999V179h-42.999V101.333z M456.168,122v339h-400V49h327
	L456.168,122z M150.668,201h203.5V79h-203.5V201z M398.5,268.666H113.835v159.666H398.5V268.666L398.5,268.666z"/>
<path id="shadow-magnifier_-" display="none" fill="#80B5C1" d="M463.475,413.443L354.399,304.37
	c15.95-25.137,25.2-54.923,25.2-86.833C379.601,127.914,306.687,55,217.062,55c-89.623,0-162.537,72.914-162.537,162.537
	s72.914,162.537,162.537,162.537c30.325,0,58.732-8.355,83.056-22.876L409.918,467L463.475,413.443z M99.314,217.538
	c0-64.927,52.819-117.748,117.746-117.748c64.926,0,117.748,52.821,117.748,117.748c0,64.926-52.822,117.747-117.748,117.747
	S99.314,282.464,99.314,217.538z M285.275,236.882H152.957v-36.859h132.318V236.882z"/>
<path id="magnifier_-" display="none" fill="#FFFFFF" d="M457.475,407.443L348.399,298.37c15.95-25.137,25.2-54.923,25.2-86.833
	C373.601,121.914,300.687,49,211.062,49c-89.623,0-162.537,72.914-162.537,162.537s72.914,162.537,162.537,162.537
	c30.325,0,58.732-8.355,83.056-22.876L403.918,461L457.475,407.443z M93.314,211.538c0-64.927,52.819-117.748,117.746-117.748
	c64.926,0,117.748,52.821,117.748,117.748c0,64.926-52.822,117.747-117.748,117.747S93.314,276.464,93.314,211.538z
	 M279.275,230.882H146.957v-36.859h132.318V230.882z"/>
<path id="shadow-magnifier__x2B_" fill="#80B5C1" d="M460.644,413.443L351.568,304.37c15.95-25.137,25.2-54.923,25.2-86.833
	C376.77,127.914,303.855,55,214.23,55c-89.623,0-162.537,72.914-162.537,162.537s72.914,162.537,162.537,162.537
	c30.326,0,58.733-8.355,83.056-22.876L407.087,467L460.644,413.443z M96.483,217.538c0-64.927,52.819-117.748,117.746-117.748
	c64.926,0,117.748,52.821,117.748,117.748c0,64.926-52.822,117.747-117.748,117.747S96.483,282.464,96.483,217.538z
	 M282.444,236.882h-47.729v47.729h-36.859v-47.729h-47.729v-36.859h47.729v-47.729h36.859v47.729h47.729V236.882z"/>
<path id="magnifier__x2B_" fill="#FFFFFF" d="M457.475,408.443L348.399,299.37c15.95-25.137,25.2-54.923,25.2-86.833
	C373.601,122.914,300.687,50,211.062,50c-89.623,0-162.537,72.914-162.537,162.537s72.914,162.537,162.537,162.537
	c30.326,0,58.733-8.355,83.056-22.876L403.918,462L457.475,408.443z M93.314,212.538c0-64.927,52.819-117.748,117.746-117.748
	c64.926,0,117.748,52.821,117.748,117.748c0,64.926-52.822,117.747-117.748,117.747S93.314,277.464,93.314,212.538z
	 M279.275,231.882h-47.729v47.729h-36.859v-47.729h-47.729v-36.859h47.729v-47.729h36.859v47.729h47.729V231.882z"/>
</svg>
