<?xml version="1.0" encoding="utf-8"?>
<!-- Generator: Adobe Illustrator 18.1.0, SVG Export Plug-In . SVG Version: 6.00 Build 0)  -->
<!DOCTYPE svg PUBLIC "-//W3C//DTD SVG 1.1//EN" "http://www.w3.org/Graphics/SVG/1.1/DTD/svg11.dtd">
<svg version="1.1" id="Calque_1" xmlns="http://www.w3.org/2000/svg" xmlns:xlink="http://www.w3.org/1999/xlink" x="0px" y="0px"
	 viewBox="0 0 512 512" enable-background="new 0 0 512 512" xml:space="preserve">
<rect id="background" x="0.3" display="none" fill="#9AD5E2" stroke="#80B8C4" stroke-width="25" stroke-linecap="round" stroke-linejoin="round" stroke-miterlimit="10" width="511.7" height="511.1"/>
<rect id="red-trash-background" display="none" fill="#E4AA98" stroke="#C49080" stroke-width="25" stroke-linecap="round" stroke-linejoin="round" stroke-miterlimit="10" width="511.7" height="511.1"/>
<rect id="full-fill" x="75.4" y="71.7" display="none" fill="#CFEAEE" stroke="#CFEAEE" stroke-width="3" stroke-miterlimit="10" width="145.4" height="354.5"/>
<g id="dashed-stroke" display="none">
	<g display="inline">
		<polyline fill="none" stroke="#FFFFFF" stroke-width="17" stroke-linecap="square" stroke-miterlimit="10" points="436.9,399.9 
			436.9,419.9 416.9,419.9 		"/>
		
			<line fill="none" stroke="#FFFFFF" stroke-width="17" stroke-linecap="square" stroke-miterlimit="10" stroke-dasharray="31.835,31.835" x1="385.1" y1="419.9" x2="337.3" y2="419.9"/>
		<polyline fill="none" stroke="#FFFFFF" stroke-width="17" stroke-linecap="square" stroke-miterlimit="10" points="321.4,419.9 
			301.4,419.9 301.4,399.9 		"/>
		
			<line fill="none" stroke="#FFFFFF" stroke-width="17" stroke-linecap="square" stroke-miterlimit="10" stroke-dasharray="43.1955,43.1955" x1="301.4" y1="356.8" x2="301.4" y2="119.2"/>
		<polyline fill="none" stroke="#FFFFFF" stroke-width="17" stroke-linecap="square" stroke-miterlimit="10" points="301.4,97.6 
			301.4,77.6 321.4,77.6 		"/>
		
			<line fill="none" stroke="#FFFFFF" stroke-width="17" stroke-linecap="square" stroke-miterlimit="10" stroke-dasharray="31.835,31.835" x1="353.2" y1="77.6" x2="401" y2="77.6"/>
		<polyline fill="none" stroke="#FFFFFF" stroke-width="17" stroke-linecap="square" stroke-miterlimit="10" points="416.9,77.6 
			436.9,77.6 436.9,97.6 		"/>
		
			<line fill="none" stroke="#FFFFFF" stroke-width="17" stroke-linecap="square" stroke-miterlimit="10" stroke-dasharray="43.1955,43.1955" x1="436.9" y1="140.8" x2="436.9" y2="378.4"/>
	</g>
</g>
<polygon id="shadow-cursor" display="none" fill="#90BDC1" points="362,296.5 224.4,298.6 255.4,263.4 194.7,235.3 207.4,208 
	268.5,236.5 275.7,189.9 "/>
<polygon id="cursor" display="none" fill="#FEFEFF" points="361.1,291.1 223.5,293.3 254.5,258.1 193.8,230 206.5,202.7 
	267.7,231.2 274.8,184.6 "/>
<path id="shadow-eye_1_" display="none" fill="#80B7C2" d="M259.3,150.7c-129.9,0-206.3,107-206.3,107s83,121.7,206.3,121.7
	C392,379.3,465,257.7,465,257.7S391.3,150.7,259.3,150.7z M261,345c-44.2,0-80-35.8-80-80c0-44.2,35.8-80,80-80
	c44.2,0,80,35.8,80,80C341,309.2,305.2,345,261,345z M306,265c0,24.9-20.1,45-45,45c-24.9,0-45-20.1-45-45c0-3,0.3-5.9,0.9-8.7
	c22.1,8.1,43.9-13.2,36.1-35.6c2.6-0.5,5.3-0.7,8.1-0.7C285.9,220,306,240.1,306,265z"/>
<path id="eye" display="none" fill="#FFFFFF" d="M256.3,141.7c-129.9,0-206.3,107-206.3,107s83,121.7,206.3,121.7
	C389,370.3,462,248.7,462,248.7S388.3,141.7,256.3,141.7z M258,336c-44.2,0-80-35.8-80-80c0-44.2,35.8-80,80-80
	c44.2,0,80,35.8,80,80C338,300.2,302.2,336,258,336z M303,256c0,24.9-20.1,45-45,45c-24.9,0-45-20.1-45-45c0-3,0.3-5.9,0.9-8.7
	c22.1,8.1,43.9-13.2,36.1-35.6c2.6-0.5,5.3-0.7,8.1-0.7C282.9,211,303,231.1,303,256z"/>
<path id="shadow-trash-can" display="none" fill="#D46565" d="M434.6,75v40H97.4V75h94.9c15.5,0,28-12.5,28-28h91.3
	c0,15.5,12.5,28,28,28H434.6z M416.3,145.1V459H115.7V145.1H416.3z M207.3,207.5c0-8.3-6.7-15-15-15s-15,6.7-15,15v190.2
	c0,8.3,6.7,15,15,15s15-6.7,15-15V207.5z M281,207.5c0-8.3-6.7-15-15-15c-8.3,0-15,6.7-15,15v190.2c0,8.3,6.7,15,15,15
	c8.3,0,15-6.7,15-15V207.5z M354.7,207.5c0-8.3-6.7-15-15-15c-8.3,0-15,6.7-15,15v190.2c0,8.3,6.7,15,15,15c8.3,0,15-6.7,15-15
	V207.5z"/>
<path id="trash-can" display="none" fill="#FFFFFF" d="M422.6,65v40H85.4V65h94.9c15.5,0,28-12.5,28-28h91.3c0,15.5,12.5,28,28,28
	H422.6z M404.3,135.1V449H103.7V135.1H404.3z M195.3,197.5c0-8.3-6.7-15-15-15s-15,6.7-15,15v190.2c0,8.3,6.7,15,15,15s15-6.7,15-15
	V197.5z M269,197.5c0-8.3-6.7-15-15-15c-8.3,0-15,6.7-15,15v190.2c0,8.3,6.7,15,15,15c8.3,0,15-6.7,15-15V197.5z M342.7,197.5
	c0-8.3-6.7-15-15-15c-8.3,0-15,6.7-15,15v190.2c0,8.3,6.7,15,15,15c8.3,0,15-6.7,15-15V197.5z"/>
<path id="shadow-undo" display="none" fill="#80B5C1" d="M393.1,130.3c-80.3-80.3-210.5-80.4-291-0.4L69,96.8l-0.1,122.8l122.8-0.1
	l-31.3-31.3c48.3-47.9,126.3-47.8,174.4,0.4c48.3,48.3,48.3,126.5,0,174.8c-24.1,24.1-55.8,36.2-87.4,36.2V482
	c52.7,0,105.4-20.1,145.7-60.3C473.5,341.2,473.5,210.8,393.1,130.3z"/>
<path id="undo" display="none" fill="#FFFFFF" d="M383.1,116.3C302.8,36,172.6,35.9,92.1,116L59,82.8l-0.1,122.8l122.8-0.1
	l-31.3-31.3c48.3-47.9,126.3-47.8,174.4,0.4c48.3,48.3,48.3,126.5,0,174.8c-24.1,24.1-55.8,36.2-87.4,36.2V468
	c52.7,0,105.4-20.1,145.7-60.3C463.5,327.2,463.5,196.8,383.1,116.3z"/>
<path id="shadow-redo" display="none" fill="#80B5C1" d="M130.2,422.7c40.2,40.2,92.9,60.3,145.7,60.3v-82.4
	c-31.6,0-63.3-12.1-87.4-36.2c-48.3-48.3-48.3-126.5,0-174.8c48.1-48.1,126.1-48.3,174.4-0.4l-31.3,31.3l122.8,0.1l-0.1-122.8
	L421.2,131c-80.5-80.1-210.6-80-291,0.4C49.8,211.8,49.8,342.2,130.2,422.7z"/>
<path id="redo" display="none" fill="#FFFFFF" d="M115.2,408.7c40.2,40.2,92.9,60.3,145.7,60.3v-82.4c-31.6,0-63.3-12.1-87.4-36.2
	c-48.3-48.3-48.3-126.5,0-174.8c48.1-48.1,126.1-48.3,174.4-0.4l-31.3,31.3l122.8,0.1l-0.1-122.8L406.2,117
	c-80.5-80.1-210.6-80-291,0.4C34.8,197.8,34.8,328.2,115.2,408.7z"/>
<path id="shadow-save" display="none" fill="#80B5C1" d="M292.7,107.3h43V185h-43V107.3z M463,128v339H63V55h327L463,128z
	 M157.5,207H361V85H157.5V207z M405.3,274.7H120.7v159.7h284.7V274.7L405.3,274.7z"/>
<path id="save" display="none" fill="#FFFFFF" d="M285.8,101.3h43V179h-43V101.3z M456.2,122v339h-400V49h327L456.2,122z M150.7,201
	h203.5V79H150.7V201z M398.5,268.7H113.8v159.7h284.7V268.7L398.5,268.7z"/>
<path id="shadow-magnifier_-" fill="#80B5C1" d="M463.5,413.4L354.4,304.4c16-25.1,25.2-54.9,25.2-86.8
	c0-89.6-72.9-162.5-162.5-162.5c-89.6,0-162.5,72.9-162.5,162.5s72.9,162.5,162.5,162.5c30.3,0,58.7-8.4,83.1-22.9L409.9,467
	L463.5,413.4z M99.3,217.5c0-64.9,52.8-117.7,117.7-117.7c64.9,0,117.7,52.8,117.7,117.7c0,64.9-52.8,117.7-117.7,117.7
	S99.3,282.5,99.3,217.5z M285.3,236.9H153V200h132.3V236.9z"/>
<path id="magnifier_-" fill="#222222" d="M457.5,407.4L348.4,298.4c16-25.1,25.2-54.9,25.2-86.8c0-89.6-72.9-162.5-162.5-162.5
	c-89.6,0-162.5,72.9-162.5,162.5s72.9,162.5,162.5,162.5c30.3,0,58.7-8.4,83.1-22.9L403.9,461L457.5,407.4z M93.3,211.5
	c0-64.9,52.8-117.7,117.7-117.7c64.9,0,117.7,52.8,117.7,117.7c0,64.9-52.8,117.7-117.7,117.7S93.3,276.5,93.3,211.5z M279.3,230.9
	H147V194h132.3V230.9z"/>
<path id="shadow-magnifier__x2B_" display="none" fill="#80B5C1" d="M460.6,413.4L351.6,304.4c16-25.1,25.2-54.9,25.2-86.8
	c0-89.6-72.9-162.5-162.5-162.5c-89.6,0-162.5,72.9-162.5,162.5s72.9,162.5,162.5,162.5c30.3,0,58.7-8.4,83.1-22.9L407.1,467
	L460.6,413.4z M96.5,217.5c0-64.9,52.8-117.7,117.7-117.7c64.9,0,117.7,52.8,117.7,117.7c0,64.9-52.8,117.7-117.7,117.7
	S96.5,282.5,96.5,217.5z M282.4,236.9h-47.7v47.7h-36.9v-47.7h-47.7V200h47.7v-47.7h36.9V200h47.7V236.9z"/>
<path id="magnifier__x2B_" display="none" fill="#FFFFFF" d="M457.5,408.4L348.4,299.4c16-25.1,25.2-54.9,25.2-86.8
	c0-89.6-72.9-162.5-162.5-162.5c-89.6,0-162.5,72.9-162.5,162.5s72.9,162.5,162.5,162.5c30.3,0,58.7-8.4,83.1-22.9L403.9,462
	L457.5,408.4z M93.3,212.5c0-64.9,52.8-117.7,117.7-117.7c64.9,0,117.7,52.8,117.7,117.7c0,64.9-52.8,117.7-117.7,117.7
	S93.3,277.5,93.3,212.5z M279.3,231.9h-47.7v47.7h-36.9v-47.7H147V195h47.7v-47.7h36.9V195h47.7V231.9z"/>
</svg>
