<?xml version="1.0"?><svg width="420.3733333333333" height="607.8534" xmlns="http://www.w3.org/2000/svg" xmlns:xlink="http://www.w3.org/1999/xlink">
 <title>strawberry shake</title>
 <metadata id="metadata7">image/svg+xmlsmoothie3 13 2007SRDsmoothiestrawberryfooddrinka strwaberry smoothie</metadata>
 <defs>
  <linearGradient id="linearGradient2193">
   <stop stop-color="#ffffff" stop-opacity="0.792208" id="stop2195" offset="0"/>
   <stop stop-color="#ffffff" stop-opacity="0" id="stop2197" offset="1"/>
  </linearGradient>
  <linearGradient gradientTransform="matrix(1, 0, 0, 1, 469.817, 38.857)" y2="615.93512" x2="1340.5598" y1="631.71912" x1="1471.0669" gradientUnits="userSpaceOnUse" id="linearGradient2397" xlink:href="#linearGradient2193"/>
  <linearGradient gradientTransform="matrix(1, 0, 0, 1, 469.817, 38.857)" y2="253.31139" x2="1263.8647" y1="190.45197" x1="1275.5555" gradientUnits="userSpaceOnUse" id="linearGradient2399" xlink:href="#linearGradient2193"/>
  <linearGradient gradientTransform="matrix(0.971794, -0.235832, 0.235832, 0.971794, 456.149, 347.019)" y2="249.74265" x2="1353.6113" y1="224.19629" x1="1347.861" gradientUnits="userSpaceOnUse" id="linearGradient2401" xlink:href="#linearGradient2193"/>
  <linearGradient gradientTransform="matrix(1, 0, 0, 1, 469.817, 38.857)" y2="211.5705" x2="1144.9973" y1="192.27773" x1="1184.3274" gradientUnits="userSpaceOnUse" id="linearGradient2403" xlink:href="#linearGradient2193"/>
  <linearGradient gradientTransform="matrix(1, 0, 0, 1, -763.011, -75.9479)" y2="615.93512" x2="1340.5598" y1="631.71912" x1="1471.0669" gradientUnits="userSpaceOnUse" id="linearGradient2405" xlink:href="#linearGradient2193"/>
  <linearGradient gradientTransform="matrix(1, 0, 0, 1, -763.011, -75.9479)" y2="253.31139" x2="1263.8647" y1="190.45197" x1="1275.5555" gradientUnits="userSpaceOnUse" id="linearGradient2407" xlink:href="#linearGradient2193"/>
  <linearGradient gradientTransform="matrix(0.971794, -0.235832, 0.235832, 0.971794, -776.679, 232.214)" y2="249.74265" x2="1353.6113" y1="224.19629" x1="1347.861" gradientUnits="userSpaceOnUse" id="linearGradient2409" xlink:href="#linearGradient2193"/>
  <linearGradient gradientTransform="matrix(1, 0, 0, 1, -763.011, -75.9479)" y2="211.5705" x2="1144.9973" y1="192.27773" x1="1184.3274" gradientUnits="userSpaceOnUse" id="linearGradient2411" xlink:href="#linearGradient2193"/>
 </defs>
 <g>
  <title>Layer 1</title>
  <ellipse ry="3" id="svg_5" cy="261.146606" cx="207.626678" stroke-width="5" stroke="#ffffff" fill="#3f7f00"/>
  <g id="svg_34">
   <ellipse id="svg_20" ry="17.5" rx="18" cy="289.647215" cx="204.625969" stroke-width="5" stroke="#ffffff" fill="#3f7f00"/>
   <g transform="matrix(0.566178, 0, 0, 0.566178, -452.282, 21.5353)" id="g2306">
    <path fill="#bedbff" fill-rule="evenodd" stroke="#000000" stroke-width="4" stroke-miterlimit="4" d="m1035.304199,284.778809l20.315796,611.03894c94.807373,66.891479 234.934937,62.539246 335.993286,4.688232l46.882813,-609.476105c-156.984253,-59.806091 -283.33606,-41.328629 -403.191895,-6.251068z" id="path1308"/>
    <path fill="#ffa2c2" fill-rule="evenodd" stroke="#000000" stroke-width="4" stroke-miterlimit="4" d="m1050.704224,311.93338l34.859253,522.313263c92.644165,39.016479 190.737427,41.701965 284.422241,-6.251038l53.295166,-512.204254c-138.984863,56.301331 -277.525757,42.684998 -372.57666,-3.857971z" id="path1310"/>
    <path fill="#ffffff" fill-opacity="0.465986" fill-rule="evenodd" stroke="#000000" stroke-width="4" stroke-miterlimit="4" d="m1049.242065,293.261627c-0.55835,0.651489 76.673706,40.607758 176.687012,42.067566c104.605835,1.526855 202.804077,-34.720734 196.844238,-38.846863c0,0 -76.47998,-33.191437 -170.245605,-35.144897c-93.765503,-1.953461 -203.285645,31.924194 -203.285645,31.924194z" id="path2185"/>
    <path fill="#ffa2c2" fill-rule="evenodd" stroke="#000000" stroke-width="4" stroke-miterlimit="4" d="m1064.720337,300.176117c98.97583,-34.498566 250.780762,-39.782898 343.386841,3.471649c-118.840942,53.141693 -275.175903,34.647186 -343.386841,-3.471649z" id="path2187"/>
    <path fill="#ffffff" fill-opacity="0.585034" fill-rule="evenodd" stroke-width="1px" d="m1063.582764,302.392212c14.234131,6.401764 28.262329,12.185669 41.970825,17.010742l12.078247,606.18866c-9.911743,-3.312134 -19.713623,-7.063354 -29.103394,-12.463257l-24.945679,-610.736145z" id="path2189"/>
    <path fill="url(#linearGradient2405)" fill-rule="evenodd" stroke-width="1px" d="m1357.617554,323.593719c24.287354,-6.891541 46.933594,-14.249908 69.71521,-24.770935l-63.667358,613.714996c-23.577759,10.385742 -36.215698,14.269165 -52.087158,18.940796l46.039307,-607.884857z" id="path2191"/>
    <path fill="#ffffff" fill-opacity="0.489796" fill-rule="evenodd" stroke-width="1px" d="m1303.720947,932.742798l45.5802,-606.904083l-16.535522,4.509705l-42.332275,605.722565l13.287598,-3.328186z" id="path2201"/>
    <path fill="none" fill-opacity="0.75" fill-rule="evenodd" stroke="#000000" stroke-width="5" stroke-miterlimit="4" d="m1372.473022,303.017365c-5.196411,-8.305237 -18.426636,-8.576569 -28.04187,-12.463013" id="path2281"/>
    <g id="g2262">
     <path fill="#006f00" fill-rule="evenodd" stroke="#000000" stroke-width="4" stroke-linejoin="round" stroke-miterlimit="4" id="path2207" d="m1289.997925,189.34259l-29.130859,-43.696198l32.043945,25.635101l-11.069702,-37.287415l34.957031,36.122192l0.58252,-30.878647l15.730591,36.704803l43.696289,-17.478485l-25.05249,26.800339l46.026611,2.913086l-33.791748,10.487076l34.37439,26.800339l-108.366577,-36.122192z"/>
     <path fill="#f30600" fill-rule="evenodd" stroke="#000000" stroke-width="4" stroke-miterlimit="4" id="path2203" d="m1201.554077,295.122894c-12.449829,-0.401611 -19.845215,-124.308884 48.108398,-132.495361c39.974609,-4.815811 62.304443,22.08255 62.304443,22.08255c41.05542,-2.263931 62.442749,16.545029 74.134277,45.742462c0,0 7.295044,28.786163 -7.098022,48.897064c-14.393066,20.110931 -50.474365,31.546539 -50.474365,31.546539c0,0 -43.18457,-17.206726 -68.421875,-20.95285c-25.237183,-3.746155 -33.109619,6.550873 -33.109619,6.550873l-25.443237,-1.371277z"/>
     <g id="g2247">
      <path fill="#ffca00" fill-rule="evenodd" stroke="#000000" stroke-width="4" stroke-miterlimit="4" d="m1295.196533,232.868073c0,0 -7.334595,2.930664 -8.858032,8.643448c-1.523438,5.712769 2.764404,14.207672 2.764404,14.207672c0,0 6.755371,-7.418518 8.278809,-13.131287c1.523315,-5.712784 -2.185181,-9.719833 -2.185181,-9.719833z" id="path2229"/>
      <path fill="#ffca00" fill-rule="evenodd" stroke="#000000" stroke-width="4" stroke-miterlimit="4" d="m1337.851929,215.348877c0,0 -5.803101,4.718735 -5.99353,9.669815c-0.19043,4.95108 5.231934,10.134506 5.231934,10.134506c0,0 4.015015,-5.08342 4.205444,-10.0345c0.19043,-4.95108 -3.443848,-9.769821 -3.443848,-9.769821z" id="path2231"/>
      <path fill="#ffca00" fill-rule="evenodd" stroke="#000000" stroke-width="3.713748" stroke-miterlimit="4" d="m1359.248169,238.414703c0,0 -3.90332,4.70256 -3.739136,9.272781c0.164063,4.570221 4.395752,9.008102 4.395752,9.008102c0,0 4.10376,-4.570206 3.939575,-9.140427c-0.164063,-4.570251 -4.596191,-9.140457 -4.596191,-9.140457z" id="path2233"/>
      <path fill="#ffca00" fill-rule="evenodd" stroke="#000000" stroke-width="2.943257" stroke-miterlimit="4" d="m1320.771729,256.084869c0,0 -5.397095,4.337708 -6.518066,10.222687c-1.12085,5.884949 2.03418,13.317169 2.03418,13.317169c0,0 5.762695,-5.056152 6.883667,-10.941101c1.120972,-5.884979 -2.39978,-12.598755 -2.39978,-12.598755z" id="path2235"/>
      <path fill="#ffca00" fill-rule="evenodd" stroke="#000000" stroke-width="3.225884" stroke-miterlimit="4" d="m1252.572144,185.255356c0,0 0.420288,7.738556 -3.111816,11.885025c-3.532227,4.146469 -11.01709,4.700867 -11.01709,4.700867c0,0 0.153809,-7.698227 3.685913,-11.844696c3.532104,-4.146469 10.442993,-4.741196 10.442993,-4.741196z" id="path2237"/>
      <path fill="#ffca00" fill-rule="evenodd" stroke="#000000" stroke-width="2.991778" stroke-miterlimit="4" d="m1287.358887,197.325562c0,0 1.770752,6.087036 -0.508179,10.787155c-2.278809,4.700134 -8.607178,8.013367 -8.607178,8.013367c0,0 -2.71228,-7.189041 -0.433472,-11.889175c2.278931,-4.700134 9.548828,-6.911346 9.548828,-6.911346z" id="path2239"/>
      <path fill="#ffca00" fill-rule="evenodd" stroke="#000000" stroke-width="4" stroke-miterlimit="4" d="m1255.967285,251.131332c0,0 -4.983398,5.720871 -5.364258,11.24321c-0.380859,5.522339 3.84082,10.846191 3.84082,10.846191c0,0 4.586304,-4.694489 4.967285,-10.216827c0.380737,-5.522339 -3.443848,-11.872574 -3.443848,-11.872574z" id="path2241"/>
      <path fill="#ffca00" fill-rule="evenodd" stroke="#000000" stroke-width="4" stroke-miterlimit="4" d="m1213.233276,254.535629c0,0 5.193481,5.999771 6.056641,12.034958c0.862915,6.035217 -2.60437,12.105896 -2.60437,12.105896c0,0 -5.900269,-4.851959 -6.763306,-10.887177c-0.863159,-6.035187 3.311035,-13.253677 3.311035,-13.253677z" id="path2243"/>
      <path fill="#ffca00" fill-rule="evenodd" stroke="#000000" stroke-width="3.740843" stroke-miterlimit="4" d="m1223.392212,210.463974c0,0 3.664185,8.569183 2.664795,13.710678c-0.999268,5.14151 -6.661987,6.855331 -6.661987,6.855331c0,0 -3.664185,-7.045761 -2.664795,-12.187256c0.999268,-5.141495 6.661987,-8.378754 6.661987,-8.378754z" id="path2245"/>
     </g>
     <g id="g2258">
      <path fill="url(#linearGradient2407)" fill-rule="evenodd" stroke-width="1px" d="m1294.703247,181.467636c-10.550415,-6.503799 -25.476196,-17.286667 -54.18042,-9.03006c0,0 -10.232666,19.944275 -12.264282,38.681641c-2.03186,18.737366 4.514893,37.023224 4.514893,37.023224l17.157104,1.806c0,0 -6.772583,-14.673828 4.515015,-31.605179c11.287598,-16.931351 40.25769,-36.875626 40.25769,-36.875626z" id="path2209"/>
      <path fill="url(#linearGradient2409)" fill-rule="nonzero" stroke-width="4" stroke-linejoin="round" stroke-miterlimit="4" stroke-dashoffset="0" id="path2219" d="m1298.047729,196.175598a20.371347,10.644487 0 1 1 -0.077148,0.038208"/>
     </g>
     <path fill="#725eff" fill-rule="evenodd" stroke="#000000" stroke-width="5" stroke-miterlimit="4" d="m1168.661255,301.332367l-105.457886,-250.846462c-20.314331,-4.373955 -29.616821,3.181561 -32.76355,17.405666l97.266968,237.536224" id="path2285"/>
     <path fill="url(#linearGradient2411)" fill-rule="evenodd" stroke-width="1px" d="m1061.957764,52.534485l-8.712891,12.446953l98.968994,236.826912l13.69165,0l-103.947754,-249.273865z" id="path2289"/>
     <path fill="#000000" fill-rule="evenodd" stroke="#000000" stroke-width="1px" d="m1062.642944,49.785641c0,0 -13.248413,-3.62751 -21.449707,0.946304c-8.201294,4.573803 -11.355591,17.348919 -11.355591,17.348919c0,0 7.383789,6.42276 22.259521,-0.974319c12.88562,-6.407455 10.545776,-17.320904 10.545776,-17.320904z" id="path2287"/>
    </g>
    <path fill="#ffa2c2" fill-rule="evenodd" stroke="#000000" stroke-width="5" stroke-miterlimit="4" d="m1251.928101,295.65506c-29.324463,-12.394714 -48.144653,-2.421112 -65.377075,9.747467" id="path2279"/>
    <path fill="#ffa2c2" fill-rule="evenodd" stroke="#000000" stroke-width="5" stroke-miterlimit="4" id="path2299" d="m1161.807739,305.994781c-11.026489,-7.810303 -28.616333,-6.033051 -36.818848,-0.810577"/>
   </g>
   <ellipse id="svg_6" ry="23" rx="21" cy="285.144756" cx="290.628357" stroke-width="5" stroke="#ffffff" fill="#3f7f00"/>
   <ellipse id="svg_15" ry="6" rx="5" cy="279.144775" cx="285.628357" stroke-width="5" stroke="#ffffff" fill="#ffffff"/>
   <ellipse id="svg_18" ry="3" rx="2" cy="285.144775" cx="293.628357" stroke-width="5" stroke="#ffffff" fill="#ffffff"/>
   <ellipse id="svg_21" ry="23" rx="21" cy="283.146831" cx="212.626129" stroke-width="5" stroke="#ffffff" fill="#3f7f00"/>
   <ellipse ry="3" rx="2" id="svg_17" cy="284.146606" cx="216.626678" stroke-width="5" stroke="#ffffff" fill="#ffffff"/>
   <ellipse ry="6" rx="5" id="svg_14" cy="278.146606" cx="207.626678" stroke-width="5" stroke="#ffffff" fill="#ffffff"/>
   <path transform="rotate(96.4572, 242.98, 357.072)" id="svg_33" d="m221.140686,323.687622c94.587036,-1.395325 6.305801,66.975128 5.317886,66.770569l-5.317886,-66.770569z" stroke-width="5" stroke="#ffffff" fill="#ff0000"/>
  </g>
 </g>
</svg>