<?xml version="1.0" encoding="utf-8"?>
<!-- Generator: Adobe Illustrator 19.2.1, SVG Export Plug-In . SVG Version: 6.00 Build 0)  -->
<svg version="1.1" id="Calque_1" xmlns="http://www.w3.org/2000/svg" xmlns:xlink="http://www.w3.org/1999/xlink" x="0px" y="0px"
	 viewBox="0 0 24 24" style="enable-background:new 0 0 24 24;" xml:space="preserve">
<style type="text/css">
	.st0{fill:#FFFFFF;stroke:#666666;stroke-miterlimit:10;}
</style>
<path class="st0" d="M5,6.2v14.2h14.2V6.2H5z M9,17.2C9,17.7,8.6,18,8.2,18c-0.4,0-0.8-0.4-0.8-0.8V9.4c0-0.4,0.4-0.8,0.8-0.8
	C8.6,8.6,9,8.9,9,9.4V17.2z M12.9,17.2c0,0.4-0.4,0.8-0.8,0.8s-0.8-0.4-0.8-0.8V9.4c0-0.4,0.4-0.8,0.8-0.8s0.8,0.4,0.8,0.8V17.2z
	 M16.8,17.2c0,0.4-0.4,0.8-0.8,0.8c-0.4,0-0.8-0.4-0.8-0.8V9.4c0-0.4,0.4-0.8,0.8-0.8c0.4,0,0.8,0.4,0.8,0.8V17.2z M20,3.1v1.6H4.3
	V3.1h4.5c0.7,0,1.3-0.9,1.3-1.6h4.2c0,0.7,0.6,1.6,1.3,1.6H20z"/>
</svg>
