<?xml version="1.0" encoding="utf-8"?>
<!-- Generator: Adobe Illustrator 18.0.0, SVG Export Plug-In . SVG Version: 6.00 Build 0)  -->
<!DOCTYPE svg PUBLIC "-//W3C//DTD SVG 1.1//EN" "http://www.w3.org/Graphics/SVG/1.1/DTD/svg11.dtd">
<svg version="1.1" id="Calque_1" xmlns="http://www.w3.org/2000/svg" xmlns:xlink="http://www.w3.org/1999/xlink" x="0px" y="0px"
	 viewBox="0 0 512 512" enable-background="new 0 0 512 512" xml:space="preserve">
<path id="text-file-2-icon" fill="#B0C64B" d="M287.8,185.8V50H88.3v412h335.4V185.8H287.8z M423.3,150.8H322.8V50.3L423.3,150.8z"
	/>
<g>
	<path fill="#646569" d="M334.4,285.9c-2.4,1.9-4.9,3.9-7.5,6l6.1,19.3c0,0.1,0.1,0.4,0.1,0.6l45.7-37h-11.1
		C354.6,274.9,343.5,278.8,334.4,285.9z"/>
	<polygon fill="#646569" points="304,349.7 312.7,367.6 343.2,367.6 326.3,332 	"/>
</g>
<g>
	<path fill="#FFFFFF" d="M211.7,217.2c-2.2-4.6,0.3-8.5,5.5-8.5h68.1c5.2,0,10.8,4,12.4,9.1l30.2,95.1c1.6,4.9-0.4,11.7-4.6,15
		L195.9,428.4c-4,3.3-11.7,5.8-16.9,5.8h-47.3c-5.2,0-6.1-2.7-2.1-6L254,327.8c4-3.3,5.5-9.9,3.3-14.5L211.7,217.2z"/>
</g>
<path fill="#B5B2B0" d="M328.1,312.8l-5.7-17.7c-10.6,8.2-22.9,17.7-22.9,17.7c-3.1,2.5-5.2,4.6-6.6,8.4c-1.5,3.9,2.5,11.5,3.7,14.1
	l4.8,9.7l22-17.4C327.6,324.5,329.7,317.8,328.1,312.8z"/>
</svg>
