<?xml version="1.0" encoding="utf-8"?>
<!-- Generator: Adobe Illustrator 17.1.0, SVG Export Plug-In . SVG Version: 6.00 Build 0)  -->
<!DOCTYPE svg PUBLIC "-//W3C//DTD SVG 1.1//EN" "http://www.w3.org/Graphics/SVG/1.1/DTD/svg11.dtd">
<svg version="1.1" id="Calque_1" xmlns="http://www.w3.org/2000/svg" xmlns:xlink="http://www.w3.org/1999/xlink" x="0px" y="0px"
	 viewBox="0 0 512 512" enable-background="new 0 0 512 512" xml:space="preserve">
<path id="trash-can-2-icon" fill="#DE6734" d="M210.3,194.4c0-8.3-6.7-15-15-15s-15,6.7-15,15v182.2c0,8.3,6.7,15,15,15
	s15-6.7,15-15V194.4z M271,194.4c0-8.3-6.7-15-15-15s-15,6.7-15,15v182.2c0,8.3,6.7,15,15,15s15-6.7,15-15V194.4z M331.7,194.4
	c0-8.3-6.7-15-15-15c-8.3,0-15,6.7-15,15v182.2c0,8.3,6.7,15,15,15c8.3,0,15-6.7,15-15V194.4z M371.3,425H140.7V146.1h-35V460h300.7
	V146.1h-35L371.3,425L371.3,425z M329.6,76c-15.5,0-28-12.5-28-28h-91.3c0,15.5-12.5,28-28,28H87.4v40h337.1V76H329.6z"/>
</svg>
