<?xml version="1.0" encoding="utf-8"?>
<!-- Generator: Adobe Illustrator 16.2.0, SVG Export Plug-In . SVG Version: 6.00 Build 0)  -->
<!DOCTYPE svg PUBLIC "-//W3C//DTD SVG 1.1//EN" "http://www.w3.org/Graphics/SVG/1.1/DTD/svg11.dtd">
<svg version="1.1" id="Calque_1" xmlns="http://www.w3.org/2000/svg" xmlns:xlink="http://www.w3.org/1999/xlink" x="0px" y="0px"
	 width="512px" height="512px" viewBox="0 0 512 512" enable-background="new 0 0 512 512" xml:space="preserve">
<path id="tags-6-icon" fill="#FFFFFF" d="M266.055,65.159H109.066v156.876L302.53,415.613l157.106-157.099L266.055,65.159z
	 M285.386,284.216l-14.336,14.339l-61.818-61.818l14.335-14.338L285.386,284.216z M346.448,290.66l-14.339,14.337l-95.571-95.57
	l14.338-14.338L346.448,290.66z M210.58,162.636c-12.661,12.662-33.2,12.663-45.857,0c-12.665-12.666-12.665-33.2-0.001-45.862
	c12.662-12.666,33.197-12.666,45.86,0C223.247,129.437,223.247,149.971,210.58,162.636z M374.19,262.915l-14.337,14.338
	l-95.571-95.568l14.337-14.34L374.19,262.915z M250.803,406.77l-27.07,27.071L41.971,252.107V110.333h36.662v124.303L250.803,406.77
	z"/>
<path id="_x2B_-icon" fill="#9CD5DF" stroke="#FFFFFF" stroke-width="17" stroke-miterlimit="10" d="M376.434,239.141
	c-55.76,0-100.972,45.211-100.972,100.978c0,55.769,45.212,100.979,100.972,100.979c55.771,0,100.98-45.21,100.98-100.979
	C477.414,284.352,432.203,239.141,376.434,239.141z"/>
<polygon fill="#FFFFFF" points="437.024,356.635 393.323,356.635 393.323,400.335 359.567,400.335 359.567,356.635 315.856,356.635 
	315.856,322.875 359.567,322.875 359.567,279.171 393.323,279.171 393.323,322.875 437.024,322.875 "/>
</svg>
