<?xml version="1.0" encoding="utf-8"?>
<!-- Generator: Adobe Illustrator 18.1.0, SVG Export Plug-In . SVG Version: 6.00 Build 0)  -->
<!DOCTYPE svg PUBLIC "-//W3C//DTD SVG 1.1//EN" "http://www.w3.org/Graphics/SVG/1.1/DTD/svg11.dtd">
<svg version="1.1" id="Calque_1" xmlns="http://www.w3.org/2000/svg" xmlns:xlink="http://www.w3.org/1999/xlink" x="0px" y="0px"
	 viewBox="0 0 512 512" enable-background="new 0 0 512 512" xml:space="preserve">
<path id="tag-2-icon" fill="#0095D7" d="M234.5,50L50.1,50.3l0,184.3L277.4,462l184.6-184.6L234.5,50z M114.9,167.4c-15-15-15-39.4,0-54.4
	c15-15,39.4-15,54.4,0s15,39.4,0,54.4C154.3,182.4,129.9,182.4,114.9,167.4z M242.3,327.9l-76.2-76.2l17.7-17.7l76.2,76.2
	L242.3,327.9z M317.6,335.9L199.8,218l17.7-17.7l117.8,117.8L317.6,335.9z M351.8,301.7L234,183.8l17.7-17.7L369.5,284L351.8,301.7z
	"/>
</svg>
