<?xml version="1.0" encoding="utf-8"?>
<!-- Generator: Adobe Illustrator 16.2.0, SVG Export Plug-In . SVG Version: 6.00 Build 0)  -->
<!DOCTYPE svg PUBLIC "-//W3C//DTD SVG 1.1//EN" "http://www.w3.org/Graphics/SVG/1.1/DTD/svg11.dtd">
<svg version="1.1" id="Layer_1" xmlns="http://www.w3.org/2000/svg" xmlns:xlink="http://www.w3.org/1999/xlink" x="0px" y="0px"
	 width="512px" height="512px" viewBox="0 0 512 512" enable-background="new 0 0 512 512" xml:space="preserve">
<path id="wrench-icon" fill="#80B8C4" d="M318.753,402.13c-13.812-13.81-32.934-20.953-52.419-19.593
	c-35.134,2.44-71.09-9.758-97.944-36.613c-35.278-35.283-45.273-86.271-29.993-130.46l80.224,80.226
	c31.297,1.842,79.687-46.545,77.844-77.841l-80.222-80.23c44.19-15.281,95.171-5.292,130.458,29.998
	c26.852,26.851,39.057,62.805,36.608,97.937c-1.35,19.467,5.801,38.618,19.604,52.421l70.004,70.003
	c22.728-37.918,35.803-82.276,35.803-129.709c0-139.564-113.141-252.703-252.708-252.703C116.446,5.564,3.308,118.703,3.308,258.267
	c0,139.568,113.138,252.708,252.703,252.708c49.006,0,94.74-13.968,133.477-38.107L318.753,402.13z"/>
<path id="wrench-icon-1" fill="#FFFFFF" d="M256.876,3.252c-140.627,0-254.624,114-254.624,254.624
	c0,140.627,113.997,254.624,254.624,254.624c140.556,0,254.624-113.973,254.624-254.624C511.5,117.252,397.501,3.252,256.876,3.252z
	 M438.116,354.266l-35.801-35.803c-13.899-13.9-21.099-33.146-19.748-52.765c2.422-35.194-9.813-71.204-36.721-98.111
	c-35.377-35.382-86.504-45.397-130.815-30.078l80.444,80.445c1.849,31.382-46.676,79.905-78.058,78.056l-80.439-80.44
	c-15.328,44.31-5.307,95.434,30.071,130.816c26.905,26.906,62.916,39.14,98.116,36.716c19.593-1.349,38.871,5.861,52.763,19.754
	l35.938,35.935c-29.473,15.849-62.583,24.266-96.993,24.266c-54.806,0-106.333-21.343-145.085-60.097
	C73.032,364.208,51.69,312.683,51.69,257.874c0-54.808,21.342-106.333,60.099-145.085c38.752-38.756,90.278-60.099,145.085-60.099
	c54.81,0,106.334,21.342,145.087,60.099c38.751,38.752,60.097,90.278,60.097,145.085
	C462.058,292.05,453.756,324.943,438.116,354.266z"/>
</svg>
