<?xml version="1.0" encoding="utf-8"?>
<!-- Generator: Adobe Illustrator 18.1.1, SVG Export Plug-In . SVG Version: 6.00 Build 0)  -->
<svg version="1.1" id="Calque_1" xmlns="http://www.w3.org/2000/svg" xmlns:xlink="http://www.w3.org/1999/xlink" x="0px" y="0px"
	 viewBox="0 0 512 512" enable-background="new 0 0 512 512" xml:space="preserve">
<path id="crown-7" fill="#BADA55" d="M256,50C142.2,50,50,142.2,50,256c0,113.8,92.2,206,206,206s206-92.2,206-206
	C462,142.2,369.8,50,256,50z M341.8,341.8H170.2v-34.3h171.7V341.8z M349.2,220c-7.1,3.3-7.3,11.3-7.3,18.6v51.7H170.2v-51.7
	c0-7.3-0.3-15.4-7.3-18.6c-5.8-2.7-9.8-8.7-9.8-15.5c0-9.5,7.7-17.2,17.2-17.2c12.9,0,22.9,14.5,13.7,27.4c-4.6,6.5-3.5,10.4-0.4,15
	c6.6,9.7,16.1,17.7,29.6,17.7c21.6,0,33.1-17.9,35.5-33c0.8-5.3,1.3-9.2-3.7-14.1c-3.5-3.3-6-7.8-6-12.9c0-9.5,7.7-17.2,17.2-17.2
	c9.5,0,17.2,7.7,17.2,17.2c0,5.2-2.5,9.6-6,12.9c-5,4.9-4.6,8.8-3.7,14.1c2.4,15.1,13.8,33,35.5,33c13.5,0,23-8,29.6-17.7
	c3.1-4.6,4.2-8.5-0.4-15c-9.1-12.9,0.8-27.4,13.7-27.4c9.5,0,17.2,7.7,17.2,17.2C359,211.3,355,217.3,349.2,220z"/>
</svg>
