<?xml version="1.0" encoding="utf-8"?>
<!-- Generator: Adobe Illustrator 16.2.0, SVG Export Plug-In . SVG Version: 6.00 Build 0)  -->
<!DOCTYPE svg PUBLIC "-//W3C//DTD SVG 1.1//EN" "http://www.w3.org/Graphics/SVG/1.1/DTD/svg11.dtd">
<svg version="1.1" id="Layer_1" xmlns="http://www.w3.org/2000/svg" xmlns:xlink="http://www.w3.org/1999/xlink" x="0px" y="0px"
	 width="512px" height="512px" viewBox="0 0 512 512" enable-background="new 0 0 512 512" xml:space="preserve">
<ellipse fill="#80B8C4" cx="255.912" cy="255.744" rx="251.605" ry="253.52"/>
<path fill="#FFFFFF" d="M404.27,491.442l-15.866-15.759l94.531-95.159l15.867,15.754c17.517,17.407,17.609,45.72,0.209,63.24
	l-31.522,31.716C450.094,508.731,421.788,508.822,404.27,491.442z M213.881,270.748c-4.379-4.352-11.453-4.328-15.805,0.049
	c-4.373,4.382-4.35,11.455,0.054,15.807l174.417,173.328l15.762-15.879L213.881,270.748z M292.646,191.443
	c-4.382-4.352-11.454-4.328-15.805,0.052c-4.351,4.38-4.327,11.451,0.052,15.8l174.43,173.33l15.755-15.854L292.646,191.443z
	 M435.585,396.463L261.143,223.156c-8.741-8.7-22.91-8.634-31.614,0.108c-8.701,8.755-8.699,22.902,0.126,31.627L404.07,428.196
	L435.585,396.463z M182.261,255.001c5.333-5.367,12.11-7.963,19.098-8.949c-0.361-2.266-0.695-4.557-0.702-6.893
	c-0.04-11.938,4.598-23.173,13.02-31.649c8.439-8.479,19.621-13.162,31.564-13.207c2.184-0.004,4.305,0.315,6.421,0.616
	c0.957-7.229,4.103-13.921,9.325-19.176c0.498-0.507,1.174-0.682,1.721-1.145l-109.28-26.93l27.62,108.821
	C181.482,256.009,181.809,255.462,182.261,255.001z"/>
<ellipse fill="none" stroke="#FFFFFF" stroke-width="35" stroke-miterlimit="10" cx="256.235" cy="257.02" rx="236.816" ry="238.613"/>
</svg>
