<?xml version="1.0" encoding="utf-8"?>
<!-- Generator: Adobe Illustrator 18.1.1, SVG Export Plug-In . SVG Version: 6.00 Build 0)  -->
<svg version="1.1" id="Calque_1" xmlns="http://www.w3.org/2000/svg" xmlns:xlink="http://www.w3.org/1999/xlink" x="0px" y="0px"
	 viewBox="0 0 512 512" enable-background="new 0 0 512 512" xml:space="preserve">
<g>
	
		<rect x="180.2" y="273.2" transform="matrix(-0.7071 0.7071 -0.7071 -0.7071 640.492 290.9018)" fill="#80B8C4" width="159.5" height="9.9"/>
	
		<rect x="160.5" y="253.2" transform="matrix(-0.7071 0.7071 -0.7071 -0.7071 592.6053 270.834)" fill="#80B8C4" width="159.5" height="9.9"/>
	<path fill="#80B8C4" d="M256,50C142.2,50,50,142.2,50,256c0,113.8,92.2,206,206,206s206-92.2,206-206C462,142.2,369.8,50,256,50z
		 M221.4,352.3L152,365.1l14-68.2l127-127l55.4,55.4L221.4,352.3z M360.9,212.8l-55.4-55.4l24.9-24.9l55.4,55.4L360.9,212.8z"/>
	<path fill="#FFFFFF" d="M166,296.9l-14,68.2l69.4-12.8l127-127L293,169.8L166,296.9z M319.9,225.2L207.1,338l-7-7l112.8-112.8
		L319.9,225.2z M300.1,205.2L187.3,318l-7-7l112.8-112.8L300.1,205.2z"/>
	
		<rect x="306.4" y="155.1" transform="matrix(-0.7071 -0.7071 0.7071 -0.7071 467.9022 539.1704)" fill="#FFFFFF" width="78.4" height="35.2"/>
</g>
</svg>
