<?xml version="1.0" encoding="utf-8"?>
<!-- Generator: Adobe Illustrator 18.1.1, SVG Export Plug-In . SVG Version: 6.00 Build 0)  -->
<svg version="1.1" id="Calque_1" xmlns="http://www.w3.org/2000/svg" xmlns:xlink="http://www.w3.org/1999/xlink" x="0px" y="0px"
	 viewBox="0 0 512 512" enable-background="new 0 0 512 512" xml:space="preserve">
<path fill="#F69D20" d="M256,42c29.4,0,57.1,5.6,83.2,16.9s48.8,26.5,68.1,45.8c19.3,19.3,34.5,41.9,45.8,68.1
	c11.3,26.1,16.9,53.9,16.9,83.2c0,19.7-2.6,38.7-7.7,56.9c-5.1,18.3-12.3,35.3-21.6,51.1c-9.3,15.8-20.4,30.2-33.4,43.2
	c-13,13-27.4,24.1-43.2,33.4c-15.8,9.3-32.9,16.5-51.1,21.6c-18.3,5.1-37.2,7.7-56.9,7.7s-38.7-2.6-56.9-7.7
	c-18.3-5.1-35.3-12.3-51.1-21.6s-30.2-20.4-43.2-33.4c-13-13-24.1-27.4-33.4-43.2c-9.3-15.8-16.5-32.9-21.6-51.1S42,275.7,42,256
	s2.6-38.7,7.7-56.9s12.3-35.3,21.6-51.1s20.4-30.2,33.4-43.2s27.4-24.1,43.2-33.4s32.9-16.5,51.1-21.6S236.3,42,256,42z"/>
<g>
	<path fill="#FFFFFF" d="M167.6,302.2c14.2,31.3,28,59.5,61.7,73.6c33.1,13.9,69.6,7.8,96.2-12.5l29.3,20.2
		c4.3,2.9,10.1,1.9,13.1-2.4l22.5-32.6c2.9-4.3,1.9-10.1-2.4-13.1l-29.1-20.1c14.6-47-9.3-98.8-55.7-118.2L269.3,183l-2.7,6.4
		c-1.6,3.8-5.9,5.6-9.7,4l-16.6-7c-3.8-1.6-5.6-5.9-4-9.7l2.7-6.4l-94.6-39.6c-3.1-1.3-6.7,0.2-8,3.3c-4.5,11-14.5,34.8-19.2,45.8
		c-1.5,3.7-1.4,7.8,0.2,11.5C125.8,209.8,152.9,269.7,167.6,302.2z M366.1,339.6c5.8,4,7.2,12,3.2,17.7c-4,5.8-12,7.2-17.7,3.2
		c-5.8-4-7.2-12-3.2-17.7S360.3,335.6,366.1,339.6z M219.5,267.6c12-28.6,44.9-42.1,73.5-30.2c22.9,9.6,36.2,32.6,34.4,56.1
		c-0.4,5.9-1.8,11.8-4.2,17.4c-5.9,14.1-16.9,24.5-29.9,30.1c-13.4,5.7-29,6.2-43.6,0.1C221.1,329.2,207.6,296.2,219.5,267.6z"/>
</g>
</svg>
