<?xml version="1.0" encoding="utf-8"?>
<!-- Generator: Adobe Illustrator 19.1.0, SVG Export Plug-In . SVG Version: 6.00 Build 0)  -->
<svg version="1.1" id="Calque_1" xmlns="http://www.w3.org/2000/svg" xmlns:xlink="http://www.w3.org/1999/xlink" x="0px" y="0px"
	 viewBox="-41 164.9 512 512" style="enable-background:new -41 164.9 512 512;" xml:space="preserve">
<style type="text/css">
	.st0{fill:#FFFFFF;}
</style>
<path id="photo-camera-icon" class="st0" d="M216,365.9c-33.1,0-60,26.9-60,60s26.9,60,60,60s60-26.9,60-60S249.1,365.9,216,365.9z
	 M346,214.9H84c-41.4,0-75,33.6-75,75v262c0,41.4,33.6,75,75,75h262c41.4,0,75-33.6,75-75v-262C421,248.5,387.4,214.9,346,214.9z
	 M216,530.9c-57.9,0-105-47.1-105-105s47.1-105,105-105s105,47.1,105,105S273.9,530.9,216,530.9z M369.3,311.2c0,6.6-5.4,12-12,12
	h-36.5c-6.6,0-12-5.4-12-12v-36.5c0-6.6,5.4-12,12-12h36.5c6.6,0,12,5.4,12,12V311.2z"/>
</svg>
