<?xml version="1.0" encoding="utf-8"?>
<!-- Generator: Adobe Illustrator 18.1.1, SVG Export Plug-In . SVG Version: 6.00 Build 0)  -->
<svg version="1.1" xmlns="http://www.w3.org/2000/svg" xmlns:xlink="http://www.w3.org/1999/xlink" x="0px" y="0px"
	 viewBox="0 0 512 512" enable-background="new 0 0 512 512" xml:space="preserve">
<g id="Calque_1">
	<path fill="#80B8C4" d="M245.5,30c30.7,0,59.7,5.9,86.9,17.7s51,27.7,71.1,47.8c20.1,20.1,36.1,43.8,47.8,71.1
		c11.8,27.3,17.7,56.2,17.7,86.9c0,20.6-2.7,40.4-8,59.5c-5.4,19.1-12.9,36.9-22.6,53.4c-9.7,16.5-21.3,31.6-34.9,45.1
		c-13.6,13.6-28.6,25.2-45.1,34.9c-16.5,9.7-34.3,17.2-53.4,22.6c-19.1,5.4-38.9,8-59.5,8s-40.4-2.7-59.5-8
		c-19.1-5.4-36.9-12.9-53.4-22.6c-16.5-9.7-31.6-21.3-45.1-34.9c-13.6-13.6-25.2-28.6-34.9-45.1C42.9,349.8,35.4,332,30,313
		s-8-38.9-8-59.5s2.7-40.4,8-59.5s12.9-36.9,22.6-53.4S73.9,109,87.5,95.5s28.6-25.2,45.1-34.9S167,43.4,186,38S224.9,30,245.5,30z"
		/>
</g>
<g id="Calque_2">
	<path fill="#FFFFFF" d="M413.9,288.5c0-4.9-1.9-8.4-5.7-10.5l-57-27.2c6.6-4.2,11.9-10.1,15.9-17.8c4-7.7,6-16.4,6-26.1
		c0-13.6-4.1-25.3-12.3-35c-8.2-9.8-18.2-14.6-30.1-14.6c-4.2,0-8.1,0.7-11.8,2.1c-3.7,1.4-7.1,3.1-10.2,5.2
		c3.8,10.5,5.8,21.1,5.8,31.9c0,17.1-4.5,32.6-13.6,46.5c1.7,1.7,3.4,3.3,5,4.7c1.6,1.4,3.2,2.6,5,3.7l37.1,17.3
		c5.2,2.8,9.4,6.7,12.5,11.8c3.1,5.1,4.7,10.7,4.7,17v48.1h39.2c2.8,0,5.1-1.1,6.8-3.4c1.7-2.3,2.6-5,2.6-8.1L413.9,288.5
		L413.9,288.5z"/>
	<path fill="#FFFFFF" d="M347.5,297.4c0-6.3-2.4-10.5-7.3-12.5l-49.7-24.1l-20.9-9.9c4.5-2.8,8.6-6.4,12.3-10.7
		c3.7-4.4,6.7-9.3,9.1-14.9c1.7-4.2,3.2-8.7,4.4-13.6c1.2-4.9,1.8-9.9,1.8-15.2c0-2.8-0.2-5.5-0.5-8.1c-0.3-2.6-0.9-5.3-1.6-8.1
		c-3.1-13.2-9.3-24.1-18.6-32.4c-9.2-8.4-20-12.5-32.2-12.5c-12.2,0-22.8,4.1-31.9,12.3c-9.1,8.2-15.2,18.6-18.3,31.1
		c-1.7,6.3-2.6,12.2-2.6,17.8c0,10.5,2.3,20.6,6.8,30.3c5.2,10.5,12.4,18.6,21.4,24.6l-19.9,9.4l-51.2,23.5
		c-5.2,2.4-7.8,6.8-7.8,13.1v48.1v8.4c0,3.8,1.1,7.1,3.4,9.7s5.1,3.9,8.6,3.9h183c3.1,0,5.8-1.3,8.1-3.9c2.3-2.6,3.4-5.8,3.4-9.7
		v-8.4L347.5,297.4L347.5,297.4z"/>
	<path fill="#FFFFFF" d="M123.7,297.4c0-6.3,1.6-11.9,4.7-17c3.1-5.1,7.3-9,12.5-11.8l38.7-17.8c3.5-2.1,6.3-4.5,8.4-7.3
		c-4.5-6.6-8-13.9-10.5-22c-2.4-8-3.7-16.4-3.7-25.1c0-5.9,0.6-11.6,1.8-17s2.7-10.5,4.4-15.4c-6.3-4.5-13.2-6.8-20.9-6.8
		c-11.9,0-21.9,4.9-30.1,14.6c-8.2,9.8-12.3,21.4-12.3,35c0,9.8,2.1,18.6,6.3,26.4c4.2,7.8,9.8,13.9,16.7,18l-58,26.7
		c-3.8,1.7-5.8,5.2-5.8,10.5V334c0,3.1,0.9,5.8,2.6,8.1c1.7,2.3,4,3.4,6.8,3.4h38.2L123.7,297.4L123.7,297.4z"/>
</g>
</svg>
