<?xml version="1.0" encoding="utf-8"?>
<!-- Generator: Adobe Illustrator 19.2.1, SVG Export Plug-In . SVG Version: 6.00 Build 0)  -->
<svg version="1.1" id="Calque_1" xmlns="http://www.w3.org/2000/svg" xmlns:xlink="http://www.w3.org/1999/xlink" x="0px" y="0px"
	 viewBox="0 0 24 24" style="enable-background:new 0 0 24 24;" xml:space="preserve">
<style type="text/css">
	.st0{fill:#FFFFFF;stroke:#666666;stroke-miterlimit:10;}
	.st1{fill:#EAEAEA;}
	.st2{fill:#F4F4F4;}
	.st3{fill:#4DBFF5;stroke:#666666;stroke-miterlimit:10;}
</style>
<path class="st0" d="M18.4,7.3L18.4,7.3L18.4,7.3l-4.1-4.2h0l0,0H7c-1.1,0-1.9,0.9-1.9,2v12.9c0,1.1,0.9,2,1.9,2h9.5
	c1.1,0,1.9-0.9,1.9-2L18.4,7.3L18.4,7.3z"/>
<polygon class="st1" points="14.1,7.6 18,11.6 18,7.6 "/>
<polygon class="st2" points="18,7.6 14.1,3.5 14.1,7.6 "/>
<g>
	<path class="st3" d="M13.6,12.4v3h-3c-0.2,0-0.3,0.2-0.3,0.3v1.6c0,0.2,0.2,0.3,0.3,0.3h3v3c0,0.2,0.2,0.3,0.3,0.3h1.6
		c0.2,0,0.3-0.2,0.3-0.3v-3h3c0.2,0,0.3-0.2,0.3-0.3v-1.6c0-0.2-0.2-0.3-0.3-0.3h-3v-3c0-0.2-0.2-0.3-0.3-0.3h-1.6
		C13.7,12.2,13.6,12.2,13.6,12.4z"/>
</g>
</svg>
