<?xml version="1.0" encoding="utf-8"?>
<!-- Generator: Adobe Illustrator 18.0.0, SVG Export Plug-In . SVG Version: 6.00 Build 0)  -->
<!DOCTYPE svg PUBLIC "-//W3C//DTD SVG 1.1//EN" "http://www.w3.org/Graphics/SVG/1.1/DTD/svg11.dtd">
<svg version="1.1" id="Calque_1" xmlns="http://www.w3.org/2000/svg" xmlns:xlink="http://www.w3.org/1999/xlink" x="0px" y="0px"
	 viewBox="0 0 512 512" enable-background="new 0 0 512 512" xml:space="preserve">
<path fill="#112732" d="M322.3,375.9v-18.8H270h-52.4v18.8L161,336.8l56.6-39.1v18.8h35.8c-21.9-7.6-34.8-18.6-22.8-41.3
	c54.2-102.2,14.4-156.8-42.9-156.8c-58.4,0-97.2,56.7-42.9,156.8c18.3,33.8-19.8,41.7-58.5,50.7C47,335,50.1,355.8,50.1,393.6h275.5
	c0-7.2,0.1-13.9,0-19.9L322.3,375.9z"/>
<path fill="#112732" d="M433,339.8c-31.4-7.2-60.6-13.6-46.5-40.3c43.1-81.2,11.4-124.7-34.1-124.7c-30.8,0-54.8,19.9-54.8,56.5
	c0,45.7,11.7,59.7,24.7,71.8v-5.4l56.6,39.1L352.6,355c1.9,10.3,2.9,22.8,2.9,38.6H462C462,363.5,464.4,347,433,339.8z"/>
<polygon fill="#4DBFF5" points="379.8,336.8 323.3,297.7 323.3,316.5 270.9,316.5 270.9,316.5 218.5,316.5 218.5,297.7 162,336.8 
	218.5,375.9 218.5,357.1 270.9,357.1 323.3,357.1 323.3,375.9 "/>
</svg>
