<?xml version="1.0" encoding="utf-8"?>
<!-- Generator: Adobe Illustrator 16.2.0, SVG Export Plug-In . SVG Version: 6.00 Build 0)  -->
<!DOCTYPE svg PUBLIC "-//W3C//DTD SVG 1.1//EN" "http://www.w3.org/Graphics/SVG/1.1/DTD/svg11.dtd">
<svg version="1.1" id="Calque_1" xmlns="http://www.w3.org/2000/svg" xmlns:xlink="http://www.w3.org/1999/xlink" x="0px" y="0px"
	 width="512px" height="512px" viewBox="0 0 512 512" enable-background="new 0 0 512 512" xml:space="preserve">
<path fill="#80B8C4" d="M423.159,151.982v1.252v0.047L321.003,51.108h0.031l-0.031-0.047H138.197
	c-26.563,0-48.087,21.916-48.087,48.926V410.85c0,27.048,21.524,48.948,48.087,48.948h236.875c26.532,0,48.088-21.9,48.088-48.948
	V151.982L423.159,151.982z"/>
<polygon fill="#6C9A9E" points="321.003,153.266 423.159,255.438 423.159,153.266 "/>
<polygon fill="#98D7E4" points="423.159,153.234 321.003,51.062 321.003,153.234 "/>
<path id="FRM_1_" fill="#6C9A9E" d="M339.114,218.64v30.106h-150.8V218.64H339.114 M357.283,206.352H170.146v54.684h187.138V206.352
	z"/>
<path id="CRT_1_" fill="#6C9A9E" d="M282.191,330.676h15.731l-34.208,34.681l-34.207-34.681h15.731v-43.569h36.952V330.676
	L282.191,330.676z M325.446,350.436v33.742H201.985v-33.742h-25.887v59.627H351.33v-59.627H325.446L325.446,350.436z"/>
<path id="FRM" fill="#FFFFFF" d="M336.161,216.64v30.106h-150.8V216.64H336.161 M354.331,204.352H167.194v54.684h187.138V204.352z"
	/>
<path id="CRT" fill="#FFFFFF" d="M279.239,328.676h15.731l-34.208,34.681l-34.207-34.681h15.731v-43.569h36.952V328.676
	L279.239,328.676z M322.493,348.436v33.742H199.032v-33.742h-25.887v59.627h175.232v-59.627H322.493L322.493,348.436z"/>
</svg>
