<?xml version="1.0" encoding="utf-8"?>
<!-- Generator: Adobe Illustrator 16.2.0, SVG Export Plug-In . SVG Version: 6.00 Build 0)  -->
<!DOCTYPE svg PUBLIC "-//W3C//DTD SVG 1.1//EN" "http://www.w3.org/Graphics/SVG/1.1/DTD/svg11.dtd">
<svg version="1.1" id="Calque_1" xmlns="http://www.w3.org/2000/svg" xmlns:xlink="http://www.w3.org/1999/xlink" x="0px" y="0px"
	 width="512px" height="512px" viewBox="0 0 512 512" enable-background="new 0 0 512 512" xml:space="preserve">
<path fill="#80B8C4" d="M423.159,151.982v1.252v0.047L321.003,51.108h0.031l-0.031-0.047H138.197
	c-26.563,0-48.087,21.916-48.087,48.926V410.85c0,27.048,21.524,48.948,48.087,48.948h236.875c26.532,0,48.088-21.9,48.088-48.948
	V151.982L423.159,151.982z"/>
<polygon fill="#6C9A9E" points="321.003,153.266 423.159,255.438 423.159,153.266 "/>
<polygon fill="#98D7E4" points="423.159,153.234 321.003,51.062 321.003,153.234 "/>
<path fill="#6C9A9E" d="M384.841,408.063c0-20.978,1.656-32.516-19.569-37.538c-21.193-5.104-40.919-9.519-31.37-28.146
	c29.07-56.668,7.718-87.004-23.025-87.004c-31.323,0-52.174,31.496-23.025,87.004c9.861,18.754-10.599,23.166-31.373,28.146
	c-21.192,5.022-19.566,16.577-19.566,37.538H384.841z"/>
<path fill="#FFFFFF" d="M314.084,408.063c0-25.987,2.021-40.325-24.264-46.556c-26.267-6.293-50.749-11.771-38.884-34.848
	c36.064-70.292,9.549-107.884-28.551-107.884c-38.824,0-64.699,39.033-28.54,107.884c12.226,23.232-13.164,28.68-38.897,34.848
	c-26.267,6.246-24.265,20.567-24.265,46.556H314.084z"/>
</svg>
