<?xml version="1.0" encoding="utf-8"?>
<!-- Generator: Adobe Illustrator 16.2.0, SVG Export Plug-In . SVG Version: 6.00 Build 0)  -->
<!DOCTYPE svg PUBLIC "-//W3C//DTD SVG 1.1//EN" "http://www.w3.org/Graphics/SVG/1.1/DTD/svg11.dtd">
<svg version="1.1" id="Calque_1" xmlns="http://www.w3.org/2000/svg" xmlns:xlink="http://www.w3.org/1999/xlink" x="0px" y="0px"
	 width="512px" height="512px" viewBox="0 0 512 512" enable-background="new 0 0 512 512" xml:space="preserve">
<path fill="#80B8C4" d="M423.159,153.386v0.046l-94.629-94.638l-8.438-7.982H137.088c-26.663,0-48.281,21.996-48.281,49.123v312.124
	c0,27.143,21.618,49.131,48.281,49.131h237.823c26.654,0,48.281-21.988,48.281-49.131V153.386H423.159z"/>
<polygon fill="#6C9A9E" points="320.596,153.432 423.159,256.007 423.159,153.432 "/>
<polygon fill="#98D7E4" points="423.159,153.386 320.596,50.812 320.596,153.386 "/>
<path id="share-2-icon_1_" fill="#6C9A9E" d="M245.726,223.244c0,18.397-14.915,33.313-33.304,33.313
	c-18.388,0-33.296-14.915-33.296-33.313c0-18.396,14.908-33.303,33.296-33.303C230.811,189.941,245.726,204.847,245.726,223.244z
	 M212.422,363.397c-18.388,0-33.313,14.914-33.313,33.317c0,18.39,14.925,33.288,33.313,33.288
	c18.404,0,33.304-14.898,33.304-33.288C245.726,378.312,230.826,363.397,212.422,363.397z M263.218,224.855
	c26.593,2.554,49.665,17.367,63.464,38.701c9.965-4.572,21.012-5.722,31.447-3.574c-18.56-38.27-57.82-64.729-103.115-64.729
	c-0.078,0-0.127,0.008-0.188,0.008C260.484,203.803,263.564,214.011,263.218,224.855z M182.922,355.333
	c-17.579-27.688-17.65-63.084-0.181-90.85c-8.416-6.074-14.899-14.655-18.356-24.634c-31.906,41.239-31.874,98.761,0.102,139.987
	C167.99,369.888,174.506,361.37,182.922,355.333z M326.682,355.978c-13.816,21.344-36.887,36.149-63.464,38.694
	c0.408,10.75-2.515,20.968-8.11,29.609c45.266-0.03,84.479-26.496,103.021-64.736C347.725,361.698,336.678,360.567,326.682,355.978z
	 M347.836,276.468c-18.392,0-33.304,14.9-33.304,33.306c0,18.389,14.912,33.301,33.304,33.301c18.389,0,33.305-14.912,33.305-33.301
	C381.141,291.368,366.225,276.468,347.836,276.468z"/>
<path id="share-2-icon" fill="#FFFFFF" d="M243.726,220.244c0,18.397-14.915,33.313-33.304,33.313
	c-18.388,0-33.296-14.915-33.296-33.313c0-18.396,14.908-33.303,33.296-33.303C228.811,186.941,243.726,201.847,243.726,220.244z
	 M210.422,360.397c-18.388,0-33.313,14.914-33.313,33.317c0,18.39,14.925,33.288,33.313,33.288
	c18.404,0,33.304-14.898,33.304-33.288C243.726,375.312,228.826,360.397,210.422,360.397z M261.218,221.855
	c26.593,2.554,49.665,17.367,63.464,38.701c9.965-4.572,21.012-5.722,31.447-3.574c-18.56-38.27-57.82-64.729-103.115-64.729
	c-0.078,0-0.127,0.008-0.188,0.008C258.484,200.803,261.564,211.011,261.218,221.855z M180.922,352.333
	c-17.579-27.688-17.65-63.084-0.181-90.85c-8.416-6.074-14.899-14.655-18.356-24.634c-31.906,41.239-31.874,98.761,0.102,139.987
	C165.99,366.888,172.506,358.37,180.922,352.333z M324.682,352.978c-13.816,21.344-36.887,36.149-63.464,38.694
	c0.408,10.75-2.515,20.968-8.11,29.609c45.266-0.03,84.479-26.496,103.021-64.736C345.725,358.698,334.678,357.567,324.682,352.978z
	 M345.836,273.468c-18.392,0-33.304,14.9-33.304,33.306c0,18.389,14.912,33.301,33.304,33.301c18.389,0,33.305-14.912,33.305-33.301
	C379.141,288.368,364.225,273.468,345.836,273.468z"/>
</svg>
