<?xml version="1.0" encoding="utf-8"?>
<!-- Generator: Adobe Illustrator 16.2.0, SVG Export Plug-In . SVG Version: 6.00 Build 0)  -->
<!DOCTYPE svg PUBLIC "-//W3C//DTD SVG 1.1//EN" "http://www.w3.org/Graphics/SVG/1.1/DTD/svg11.dtd">
<svg version="1.1" id="Calque_1" xmlns="http://www.w3.org/2000/svg" xmlns:xlink="http://www.w3.org/1999/xlink" x="0px" y="0px"
	 width="512px" height="512px" viewBox="0 0 512 512" enable-background="new 0 0 512 512" xml:space="preserve">
<rect x="0" y="0.231" display="none" fill="#93C7E4" width="512" height="513.935"/>
<path id="cloud-22-icon" fill="#112732" d="M439.439,221.61C429.396,89.292,262.897,45.695,194.845,158.992
	c-44.141-26.117-100.435,4.612-103.961,58.594C42.49,223.789,5,266.917,5,319.234c0,56.574,43.831,102.44,97.894,102.44H409.73
	c54.064,0,97.896-45.868,97.896-102.44C507.629,273.495,478.979,234.771,439.439,221.61z M178.519,342.719
	c-14.823,0-26.837-12.577-26.837-28.09c0-15.507,12.014-28.083,26.837-28.083s26.841,12.576,26.841,28.083
	C205.36,330.142,193.344,342.719,178.519,342.719z M258.552,342.719c-14.823,0-26.841-12.577-26.841-28.09
	c0-15.507,12.016-28.083,26.841-28.083c14.822,0,26.841,12.576,26.841,28.083C285.393,330.142,273.374,342.719,258.552,342.719z
	 M337.604,342.719c-14.82,0-26.841-12.577-26.841-28.09c0-15.507,12.019-28.083,26.841-28.083c14.824,0,26.841,12.576,26.841,28.083
	C364.445,330.142,352.428,342.719,337.604,342.719z"/>
<path id="cloud-17-icon" display="none" fill="#112732" d="M454.545,360.602c-5.121-66.844-90.028-88.869-124.733-31.631
	c-22.509-13.193-51.217,2.328-53.016,29.601C252.117,361.705,233,383.492,233,409.923c0,28.581,22.352,51.753,49.924,51.753h156.473
	c27.57,0,49.924-23.172,49.924-51.753C489.321,386.815,474.71,367.254,454.545,360.602z M314.933,391.025h11.437
	c0.332-23.389,18.787-42.312,41.427-42.312c9.834,0,19.371,3.644,26.854,10.259l0.513,0.452l-10.152,10.526l-0.436-0.354
	c-4.825-3.95-10.63-6.039-16.779-6.039c-14.741,0-26.772,12.264-27.105,27.466h11.647l-18.711,19.391L314.933,391.025z
	 M408.751,390.838c-0.332,23.39-18.789,42.311-41.428,42.311c-9.84,0-19.383-3.646-26.872-10.271l-0.513-0.453l10.155-10.525
	l0.434,0.355c4.831,3.958,10.639,6.052,16.796,6.052c14.741,0,26.772-12.265,27.104-27.468h-11.646l18.711-19.389l18.692,19.389
	L408.751,390.838L408.751,390.838z"/>
<path id="cloud-16-icon" display="none" fill="#112732" d="M455.977,360.46c-5.152-66.922-90.609-88.973-125.538-31.669
	c-22.655-13.209-51.549,2.332-53.358,29.636c-24.839,3.137-44.08,24.949-44.08,51.41c0,28.614,22.496,51.813,50.246,51.813h157.484
	c27.749,0,50.246-23.198,50.246-51.813C490.978,386.704,476.273,367.117,455.977,360.46z M357.771,430.406
	c-13.345-16.209-22.254-26.541-38.646-42.207l8.195-7.813c9.587,4.781,15.667,8.423,26.442,16.344
	c20.259-23.706,33.645-35.732,58.524-51.695l2.669,6.325C394.438,369.824,379.409,390.39,357.771,430.406z"/>
</svg>
