<?xml version="1.0" encoding="utf-8"?>
<!-- Generator: Adobe Illustrator 16.2.0, SVG Export Plug-In . SVG Version: 6.00 Build 0)  -->
<!DOCTYPE svg PUBLIC "-//W3C//DTD SVG 1.1//EN" "http://www.w3.org/Graphics/SVG/1.1/DTD/svg11.dtd">
<svg version="1.1" id="Calque_1" xmlns="http://www.w3.org/2000/svg" xmlns:xlink="http://www.w3.org/1999/xlink" x="0px" y="0px"
	 width="512px" height="512px" viewBox="0 0 512 512" enable-background="new 0 0 512 512" xml:space="preserve">
<path id="cloud-icon" fill="#112732" d="M441.916,227.219C431.722,96.646,262.683,53.624,193.593,165.431
	c-44.813-25.771-101.968,4.548-105.548,57.82c-49.132,6.121-87.191,48.68-87.191,100.307c0,55.831,44.501,101.092,99.392,101.092
	h311.512c54.895,0,99.395-45.261,99.395-101.092C511.148,278.422,482.062,240.21,441.916,227.219z"/>
<path fill="#FFFFFF" d="M331.591,380.774h-56.476l18.925-19.289c0,0-33.565-38.83-48.118-55.255
	c-14.385-16.232-27.583-33.016-47.894-33.016c-21.787,0-34.849,16.438-34.849,40.351c0,23.913,13.062,40.352,34.849,40.352
	c17.863,0,30.623-12.583,42.585-26.524l17.525,20.26c-17.411,18.277-34.391,33.777-60.111,33.777
	c-36.596,0-61.442-29.176-61.442-67.865c0-38.687,24.847-67.862,61.442-67.861c32.785,0,50.686,22.347,66.94,41.477
	c17.183,20.223,47.678,55.703,47.678,55.703l18.945-19.67V380.774z"/>
<path fill="#FFFFFF" d="M349.517,380.757v-27.976c16.087-4.093,25.447-18.976,25.447-39.217c0-23.912-13.063-40.351-34.85-40.351
	c-17.081,0-29.047,11.617-41.71,26.677l-17.222-20.571c16.525-17.633,33.434-33.616,58.932-33.616
	c36.599-0.001,61.444,29.174,61.444,67.861C401.559,348.84,380.902,376.203,349.517,380.757z"/>
</svg>
