<?xml version="1.0" encoding="utf-8"?>
<!-- Generator: Adobe Illustrator 16.2.0, SVG Export Plug-In . SVG Version: 6.00 Build 0)  -->
<!DOCTYPE svg PUBLIC "-//W3C//DTD SVG 1.1//EN" "http://www.w3.org/Graphics/SVG/1.1/DTD/svg11.dtd">
<svg version="1.1" id="Calque_1" xmlns="http://www.w3.org/2000/svg" xmlns:xlink="http://www.w3.org/1999/xlink" x="0px" y="0px"
	 width="512px" height="512px" viewBox="0 0 512 512" enable-background="new 0 0 512 512" xml:space="preserve">

<path id="cloud-17-icon" fill="#224e6b" d="M441.008,222.76C430.93,91.209,263.829,47.862,195.529,160.509
	c-44.298-25.965-100.797,4.582-104.337,58.255C42.623,224.929,5,267.807,5,319.824c0,56.249,43.989,101.852,98.252,101.852h307.943
	c54.26,0,98.252-45.603,98.252-101.852C509.448,274.348,480.695,235.85,441.008,222.76z M166.246,282.633h22.507
	c0.654-46.029,36.974-83.27,81.53-83.27c19.354,0,38.123,7.17,52.851,20.19l1.009,0.89l-19.979,20.716l-0.857-0.697
	c-9.496-7.774-20.921-11.886-33.022-11.886c-29.011,0-52.689,24.137-53.344,54.055h22.922l-36.824,38.161L166.246,282.633z
	 M350.885,282.264c-0.654,46.031-36.979,83.269-81.531,83.269c-19.366,0-38.146-7.177-52.886-20.213l-1.009-0.892l19.986-20.714
	l0.854,0.698c9.507,7.79,20.937,11.911,33.055,11.911c29.011,0,52.689-24.139,53.342-54.059h-22.92l36.823-38.157l36.787,38.157
	L350.885,282.264L350.885,282.264z"/>

</svg>
