<?xml version="1.0" encoding="utf-8"?>
<!-- Generator: Adobe Illustrator 16.2.0, SVG Export Plug-In . SVG Version: 6.00 Build 0)  -->
<!DOCTYPE svg PUBLIC "-//W3C//DTD SVG 1.1//EN" "http://www.w3.org/Graphics/SVG/1.1/DTD/svg11.dtd">
<svg version="1.1" id="Calque_1" xmlns="http://www.w3.org/2000/svg" xmlns:xlink="http://www.w3.org/1999/xlink" x="0px" y="0px"
	 width="512px" height="512px" viewBox="0 0 512 512" enable-background="new 0 0 512 512" xml:space="preserve">

<path id="cloud-16-icon" fill="#224e6b" d="M441.323,224.094C431.264,93.44,264.424,50.39,196.232,162.265
	c-44.231-25.788-100.641,4.553-104.173,57.858C43.565,226.248,6,268.833,6,320.494c0,55.863,43.92,101.156,98.097,101.156h307.461
	c54.175,0,98.097-45.291,98.097-101.156C509.656,275.331,480.948,237.092,441.323,224.094z M249.593,360.652
	c-26.053-31.646-43.446-51.817-75.448-82.403l16-15.252c18.717,9.335,30.587,16.444,51.625,31.908
	c39.551-46.282,65.685-69.761,114.258-100.926l5.211,12.349C321.179,242.376,291.838,282.528,249.593,360.652z"/>
</svg>
