<?xml version="1.0" encoding="utf-8"?>
<!-- Generator: Adobe Illustrator 16.2.0, SVG Export Plug-In . SVG Version: 6.00 Build 0)  -->
<!DOCTYPE svg PUBLIC "-//W3C//DTD SVG 1.1//EN" "http://www.w3.org/Graphics/SVG/1.1/DTD/svg11.dtd">
<svg version="1.1" id="Calque_1" xmlns="http://www.w3.org/2000/svg" xmlns:xlink="http://www.w3.org/1999/xlink" x="0px" y="0px"
	 width="512px" height="512px" viewBox="0 0 512 512" enable-background="new 0 0 512 512" xml:space="preserve">
<rect x="0" y="0.231" display="none" fill="#93C7E4" width="512" height="513.935"/>
<path id="cloud-22-icon" display="none" fill="#112732" d="M452.218,360.721c-5.067-66.768-89.083-88.767-123.422-31.597
	c-22.273-13.179-50.68,2.327-52.459,29.566c-24.42,3.13-43.337,24.893-43.337,51.292c0,28.547,22.117,51.691,49.397,51.691h154.829
	c27.281,0,49.398-23.146,49.398-51.691C486.627,386.903,472.17,367.363,452.218,360.721z M320.558,421.834
	c-7.479,0-13.542-6.347-13.542-14.174c0-7.825,6.063-14.171,13.542-14.171s13.544,6.346,13.544,14.171
	C334.102,415.487,328.038,421.834,320.558,421.834z M360.943,421.834c-7.479,0-13.544-6.347-13.544-14.174
	c0-7.825,6.063-14.171,13.544-14.171c7.479,0,13.544,6.346,13.544,14.171C374.487,415.487,368.422,421.834,360.943,421.834z
	 M400.832,421.834c-7.479,0-13.544-6.347-13.544-14.174c0-7.825,6.064-14.171,13.544-14.171c7.48,0,13.544,6.346,13.544,14.171
	C414.376,415.487,408.313,421.834,400.832,421.834z"/>
<path id="cloud-17-icon" display="none" fill="#112732" d="M454.545,360.602c-5.121-66.844-90.028-88.869-124.733-31.631
	c-22.509-13.193-51.217,2.328-53.016,29.601C252.117,361.705,233,383.492,233,409.923c0,28.581,22.352,51.753,49.924,51.753h156.473
	c27.57,0,49.924-23.172,49.924-51.753C489.321,386.815,474.71,367.254,454.545,360.602z M314.933,391.025h11.437
	c0.332-23.389,18.787-42.312,41.427-42.312c9.834,0,19.371,3.644,26.854,10.259l0.513,0.452l-10.152,10.526l-0.436-0.354
	c-4.825-3.95-10.63-6.039-16.779-6.039c-14.741,0-26.772,12.264-27.105,27.466h11.647l-18.711,19.391L314.933,391.025z
	 M408.751,390.838c-0.332,23.39-18.789,42.311-41.428,42.311c-9.84,0-19.383-3.646-26.872-10.271l-0.513-0.453l10.155-10.525
	l0.434,0.355c4.831,3.958,10.639,6.052,16.796,6.052c14.741,0,26.772-12.265,27.104-27.468h-11.646l18.711-19.389l18.692,19.389
	L408.751,390.838L408.751,390.838z"/>
<path id="cloud-16-icon" display="none" fill="#112732" d="M455.977,360.46c-5.152-66.922-90.609-88.973-125.538-31.669
	c-22.655-13.209-51.549,2.332-53.358,29.636c-24.839,3.137-44.08,24.949-44.08,51.41c0,28.614,22.496,51.813,50.246,51.813h157.484
	c27.749,0,50.246-23.198,50.246-51.813C490.978,386.704,476.273,367.117,455.977,360.46z M357.771,430.406
	c-13.345-16.209-22.254-26.541-38.646-42.207l8.195-7.813c9.587,4.781,15.667,8.423,26.442,16.344
	c20.259-23.706,33.645-35.732,58.524-51.695l2.669,6.325C394.438,369.824,379.409,390.39,357.771,430.406z"/>
<path id="download-10-icon" fill="#112732" d="M441.099,212.864c-5.442-70.99-62.784-126.841-132.722-126.841
	c-47.536,0-89.249,25.809-112.806,64.628c-44.311-25.945-100.821,4.582-104.36,58.218C42.633,215.033,5,257.882,5,309.864
	c0,56.214,43.998,101.785,98.271,101.785h308.007c54.273,0,98.274-45.571,98.274-101.785
	C509.553,264.421,480.793,225.945,441.099,212.864z M269.52,370.922l-84.132-87.277h40.676v-90.31h86.913v90.31h40.68
	L269.52,370.922z"/>
</svg>
