<?xml version="1.0" encoding="utf-8"?>
<!-- Generator: Adobe Illustrator 16.2.0, SVG Export Plug-In . SVG Version: 6.00 Build 0)  -->
<!DOCTYPE svg PUBLIC "-//W3C//DTD SVG 1.1//EN" "http://www.w3.org/Graphics/SVG/1.1/DTD/svg11.dtd">
<svg version="1.1" id="Calque_1" xmlns="http://www.w3.org/2000/svg" xmlns:xlink="http://www.w3.org/1999/xlink" x="0px" y="0px"
	 width="512px" height="512px" viewBox="0 0 512 512" enable-background="new 0 0 512 512" xml:space="preserve">

<path id="download-10-icon" fill="#224e6b" d="M441.099,212.864c-5.442-70.99-62.784-126.841-132.722-126.841
	c-47.536,0-89.249,25.809-112.806,64.628c-44.311-25.945-100.821,4.582-104.36,58.218C42.633,215.033,5,257.882,5,309.864
	c0,56.214,43.998,101.785,98.271,101.785h308.007c54.273,0,98.274-45.571,98.274-101.785
	C509.553,264.421,480.793,225.945,441.099,212.864z M269.52,370.922l-84.132-87.277h40.676v-90.31h86.913v90.31h40.68
	L269.52,370.922z"/>
</svg>
