<?xml version="1.0" encoding="utf-8"?>
<!-- Generator: Adobe Illustrator 16.2.0, SVG Export Plug-In . SVG Version: 6.00 Build 0)  -->
<!DOCTYPE svg PUBLIC "-//W3C//DTD SVG 1.1//EN" "http://www.w3.org/Graphics/SVG/1.1/DTD/svg11.dtd">
<svg version="1.1" id="Calque_1" xmlns="http://www.w3.org/2000/svg" xmlns:xlink="http://www.w3.org/1999/xlink" x="0px" y="0px"
	 width="512px" height="512px" viewBox="0 0 512 512" enable-background="new 0 0 512 512" xml:space="preserve">
<rect x="0" y="0.231" display="none" fill="#93C7E4" width="512" height="513.935"/>
<path id="cloud-22-icon" display="none" fill="#112732" d="M452.218,360.721c-5.067-66.768-89.083-88.767-123.422-31.597
	c-22.273-13.179-50.68,2.327-52.459,29.566c-24.42,3.13-43.337,24.893-43.337,51.292c0,28.547,22.117,51.691,49.397,51.691h154.829
	c27.281,0,49.398-23.146,49.398-51.691C486.627,386.903,472.17,367.363,452.218,360.721z M320.558,421.834
	c-7.479,0-13.542-6.347-13.542-14.174c0-7.825,6.063-14.171,13.542-14.171s13.544,6.346,13.544,14.171
	C334.102,415.487,328.038,421.834,320.558,421.834z M360.943,421.834c-7.479,0-13.544-6.347-13.544-14.174
	c0-7.825,6.063-14.171,13.544-14.171c7.479,0,13.544,6.346,13.544,14.171C374.487,415.487,368.422,421.834,360.943,421.834z
	 M400.832,421.834c-7.479,0-13.544-6.347-13.544-14.174c0-7.825,6.064-14.171,13.544-14.171c7.48,0,13.544,6.346,13.544,14.171
	C414.376,415.487,408.313,421.834,400.832,421.834z"/>
<path id="cloud-17-icon" fill="#112732" d="M441.008,222.76C430.93,91.209,263.829,47.862,195.529,160.509
	c-44.298-25.965-100.797,4.582-104.337,58.255C42.623,224.929,5,267.807,5,319.824c0,56.249,43.989,101.852,98.252,101.852h307.943
	c54.26,0,98.252-45.603,98.252-101.852C509.448,274.348,480.695,235.85,441.008,222.76z M166.246,282.633h22.507
	c0.654-46.029,36.974-83.27,81.53-83.27c19.354,0,38.123,7.17,52.851,20.19l1.009,0.89l-19.979,20.716l-0.857-0.697
	c-9.496-7.774-20.921-11.886-33.022-11.886c-29.011,0-52.689,24.137-53.344,54.055h22.922l-36.824,38.161L166.246,282.633z
	 M350.885,282.264c-0.654,46.031-36.979,83.269-81.531,83.269c-19.366,0-38.146-7.177-52.886-20.213l-1.009-0.892l19.986-20.714
	l0.854,0.698c9.507,7.79,20.937,11.911,33.055,11.911c29.011,0,52.689-24.139,53.342-54.059h-22.92l36.823-38.157l36.787,38.157
	L350.885,282.264L350.885,282.264z"/>
<path id="cloud-16-icon" display="none" fill="#112732" d="M455.977,360.46c-5.152-66.922-90.609-88.973-125.538-31.669
	c-22.655-13.209-51.549,2.332-53.358,29.636c-24.839,3.137-44.08,24.949-44.08,51.41c0,28.614,22.496,51.813,50.246,51.813h157.484
	c27.749,0,50.246-23.198,50.246-51.813C490.978,386.704,476.273,367.117,455.977,360.46z M357.771,430.406
	c-13.345-16.209-22.254-26.541-38.646-42.207l8.195-7.813c9.587,4.781,15.667,8.423,26.442,16.344
	c20.259-23.706,33.645-35.732,58.524-51.695l2.669,6.325C394.438,369.824,379.409,390.39,357.771,430.406z"/>
</svg>
