<?xml version="1.0" encoding="utf-8"?>
<!-- Generator: Adobe Illustrator 16.2.0, SVG Export Plug-In . SVG Version: 6.00 Build 0)  -->
<!DOCTYPE svg PUBLIC "-//W3C//DTD SVG 1.1//EN" "http://www.w3.org/Graphics/SVG/1.1/DTD/svg11.dtd">
<svg version="1.1" id="Calque_1" xmlns="http://www.w3.org/2000/svg" xmlns:xlink="http://www.w3.org/1999/xlink" x="0px" y="0px"
	 width="512px" height="512px" viewBox="0 0 512 512" enable-background="new 0 0 512 512" xml:space="preserve">
<path id="cloud-icon" fill="#112732" d="M439.439,221.61C429.396,89.292,262.897,45.695,194.845,158.992
	c-44.142-26.117-100.436,4.611-103.962,58.594C42.49,223.789,5,266.917,5,319.234c0,56.574,43.831,102.44,97.895,102.44H409.73
	c54.064,0,97.896-45.868,97.896-102.44C507.63,273.495,478.979,234.771,439.439,221.61z M178.519,342.719
	c-14.823,0-26.837-12.577-26.837-28.09c0-15.508,12.014-28.083,26.837-28.083c14.822,0,26.841,12.575,26.841,28.083
	C205.36,330.142,193.344,342.719,178.519,342.719z"/>
<path id="valid" fill="#FFFFFF" d="M295.978,346.852c-23.187-28.165-38.669-46.119-67.153-73.346l14.24-13.574
	c16.66,8.309,27.227,14.636,45.949,28.398c35.204-41.192,58.465-62.09,101.701-89.83l4.637,10.991
	C359.696,241.578,333.58,277.316,295.978,346.852z"/>
</svg>
