<?xml version="1.0" encoding="utf-8"?>
<!-- Generator: Adobe Illustrator 16.2.0, SVG Export Plug-In . SVG Version: 6.00 Build 0)  -->
<!DOCTYPE svg PUBLIC "-//W3C//DTD SVG 1.1//EN" "http://www.w3.org/Graphics/SVG/1.1/DTD/svg11.dtd">
<svg version="1.1" id="Calque_1" xmlns="http://www.w3.org/2000/svg" xmlns:xlink="http://www.w3.org/1999/xlink" x="0px" y="0px"
	 width="512px" height="512px" viewBox="0 0 512 512" enable-background="new 0 0 512 512" xml:space="preserve">
<path id="cloud-icon" fill="#112732" d="M441.916,227.219C431.722,96.646,262.683,53.624,193.593,165.431
	c-44.813-25.771-101.968,4.548-105.548,57.82c-49.132,6.121-87.192,48.68-87.192,100.307c0,55.831,44.501,101.092,99.392,101.092
	h311.512c54.894,0,99.394-45.261,99.394-101.092C511.148,278.422,482.062,240.21,441.916,227.219z"/>
<path id="pencil-icon" fill="#FFFFFF" d="M232.508,358.83L232.508,358.83l-44.921,8.291l9.063-44.15h0.001L232.508,358.83z
	 M302.976,216.645l-16.091,16.089l35.86,35.86l16.091-16.09L302.976,216.645z M204.687,314.933l35.86,35.861l74.161-74.163
	l-35.858-35.859L204.687,314.933z"/>
</svg>
