<?xml version="1.0" encoding="utf-8"?>
<!-- Generator: Adobe Illustrator 19.1.1, SVG Export Plug-In . SVG Version: 6.00 Build 0)  -->
<svg version="1.1" id="Calque_1" xmlns="http://www.w3.org/2000/svg" xmlns:xlink="http://www.w3.org/1999/xlink" x="0px" y="0px"
	 viewBox="0 0 512 512" style="enable-background:new 0 0 512 512;" xml:space="preserve">
<style type="text/css">
	.st0{fill:#112732;}
	.st1{fill:#0095D7;}
	.st2{fill:#4DBFF5;}
	.st3{fill:#FFFFFF;}
	.st4{display:none;fill:#FFFFFF;}
</style>
<path id="cloud-icon" class="st0" d="M439.4,221.6C429.4,89.3,262.9,45.7,194.8,159c-44.1-26.1-100.4,4.6-104,58.6
	C42.5,223.8,5,266.9,5,319.2c0,56.6,43.8,102.4,97.9,102.4h306.8c54.1,0,97.9-45.9,97.9-102.4C507.6,273.5,479,234.8,439.4,221.6z"
	/>
<path class="st1" d="M311,247.2v0.5l0,0L270.3,207l0,0l0,0h-72.8c-10.6,0-19.1,8.8-19.1,19.5v123.8c0,10.8,8.6,19.5,19.1,19.5h94.4
	c10.6,0,19.1-8.7,19.1-19.5V247.2L311,247.2z"/>
<polygon points="270.3,247.8 311,288.5 311,247.8 "/>
<polygon class="st2" points="311,247.8 270.3,207.1 270.3,247.8 "/>
<path id="valid" class="st3" d="M288.6,338.5c-17.2-20.9-28.7-34.2-49.8-54.3l10.5-10.1c12.4,6.1,20.2,10.8,34,21
	c26.1-30.5,43.3-46,75.4-66.5l3.4,8.2C335.8,260.5,316.4,286.9,288.6,338.5z"/>
<path id="x-mark" class="st4" d="M387.3,224.2l-28.1-24.5l-48.6,57.8L262,198.6l-26.5,28c14.5,18.9,33.6,38.6,53.2,57L237,344.8
	l8.5,9.7c12.6-8.7,37.8-28.2,64.6-51.6c27.4,24,52.8,43.6,65.1,52.4l9.2-8.4l-52.5-63.6C352.9,263.9,373,243.1,387.3,224.2z"/>
</svg>
