<?xml version="1.0" encoding="utf-8"?>
<!-- Generator: Adobe Illustrator 16.2.0, SVG Export Plug-In . SVG Version: 6.00 Build 0)  -->
<!DOCTYPE svg PUBLIC "-//W3C//DTD SVG 1.1//EN" "http://www.w3.org/Graphics/SVG/1.1/DTD/svg11.dtd">
<svg version="1.1" id="Calque_1" xmlns="http://www.w3.org/2000/svg" xmlns:xlink="http://www.w3.org/1999/xlink" x="0px" y="0px"
	 width="512px" height="512px" viewBox="0 0 512 512" enable-background="new 0 0 512 512" xml:space="preserve">
<rect x="0" y="0.231" display="none" fill="#93C7E4" width="512" height="513.935"/>
<path id="cloud-22-icon" display="none" fill="#112732" d="M452.218,360.721c-5.067-66.768-89.083-88.767-123.422-31.597
	c-22.273-13.179-50.68,2.327-52.459,29.566c-24.42,3.13-43.337,24.893-43.337,51.292c0,28.547,22.117,51.691,49.397,51.691h154.829
	c27.281,0,49.398-23.146,49.398-51.691C486.627,386.903,472.17,367.363,452.218,360.721z M320.558,421.834
	c-7.479,0-13.542-6.347-13.542-14.174c0-7.825,6.063-14.171,13.542-14.171s13.544,6.346,13.544,14.171
	C334.102,415.487,328.038,421.834,320.558,421.834z M360.943,421.834c-7.479,0-13.544-6.347-13.544-14.174
	c0-7.825,6.063-14.171,13.544-14.171c7.479,0,13.544,6.346,13.544,14.171C374.487,415.487,368.422,421.834,360.943,421.834z
	 M400.832,421.834c-7.479,0-13.544-6.347-13.544-14.174c0-7.825,6.064-14.171,13.544-14.171c7.48,0,13.544,6.346,13.544,14.171
	C414.376,415.487,408.313,421.834,400.832,421.834z"/>
<path id="cloud-17-icon" display="none" fill="#112732" d="M454.545,360.602c-5.121-66.844-90.028-88.869-124.733-31.631
	c-22.509-13.193-51.217,2.328-53.016,29.601C252.117,361.705,233,383.492,233,409.923c0,28.581,22.352,51.753,49.924,51.753h156.473
	c27.57,0,49.924-23.172,49.924-51.753C489.321,386.815,474.71,367.254,454.545,360.602z M314.933,391.025h11.437
	c0.332-23.389,18.787-42.312,41.427-42.312c9.834,0,19.371,3.644,26.854,10.259l0.513,0.452l-10.152,10.526l-0.436-0.354
	c-4.825-3.95-10.63-6.039-16.779-6.039c-14.741,0-26.772,12.264-27.105,27.466h11.647l-18.711,19.391L314.933,391.025z
	 M408.751,390.838c-0.332,23.39-18.789,42.311-41.428,42.311c-9.84,0-19.383-3.646-26.872-10.271l-0.513-0.453l10.155-10.525
	l0.434,0.355c4.831,3.958,10.639,6.052,16.796,6.052c14.741,0,26.772-12.265,27.104-27.468h-11.646l18.711-19.389l18.692,19.389
	L408.751,390.838L408.751,390.838z"/>
<path id="cloud-16-icon" fill="#112732" d="M441.323,224.094C431.264,93.44,264.424,50.39,196.232,162.265
	c-44.231-25.788-100.641,4.553-104.173,57.858C43.565,226.248,6,268.833,6,320.494c0,55.863,43.92,101.156,98.097,101.156h307.461
	c54.175,0,98.097-45.291,98.097-101.156C509.656,275.331,480.948,237.092,441.323,224.094z M249.593,360.652
	c-26.053-31.646-43.446-51.817-75.448-82.403l16-15.252c18.717,9.335,30.587,16.444,51.625,31.908
	c39.551-46.282,65.685-69.761,114.258-100.926l5.211,12.349C321.179,242.376,291.838,282.528,249.593,360.652z"/>
</svg>
