<?xml version="1.0" encoding="utf-8"?>
<!-- Generator: Adobe Illustrator 16.2.0, SVG Export Plug-In . SVG Version: 6.00 Build 0)  -->
<!DOCTYPE svg PUBLIC "-//W3C//DTD SVG 1.1//EN" "http://www.w3.org/Graphics/SVG/1.1/DTD/svg11.dtd">
<svg version="1.1" id="Calque_1" xmlns="http://www.w3.org/2000/svg" xmlns:xlink="http://www.w3.org/1999/xlink" x="0px" y="0px"
	 width="512px" height="512px" viewBox="0 0 512 512" enable-background="new 0 0 512 512" xml:space="preserve">
<path id="cloud-icon" fill="#112732" d="M439.439,221.61C429.396,89.292,262.897,45.695,194.845,158.992
	c-44.143-26.117-100.437,4.61-103.963,58.594C42.49,223.789,5,266.917,5,319.234c0,56.574,43.831,102.44,97.896,102.44H409.73
	c54.064,0,97.896-45.868,97.896-102.44C507.631,273.495,478.979,234.771,439.439,221.61z"/>
<path id="inbox-8-icon" fill="#FFFFFF" d="M302.866,292.942l-13.182,14.438H251.33l-12.827-14.438h-41.103h-0.022l6.043,70.872
	h132.93l7.464-70.872h-0.021H302.866L302.866,292.942z M330.553,249.757H210.716l-1.421-10.663h122.68L330.553,249.757z
	 M322.643,231.808H219.601l-1.421-8.886h105.887L322.643,231.808z M203.794,283.427l-2.298-25.934h138.615l-2.433,25.934h-15.461
	l1.188-11.717h-105.56l1.188,11.717H203.794z"/>
</svg>
