<?xml version="1.0" encoding="utf-8"?>
<!-- Generator: Adobe Illustrator 16.2.0, SVG Export Plug-In . SVG Version: 6.00 Build 0)  -->
<!DOCTYPE svg PUBLIC "-//W3C//DTD SVG 1.1//EN" "http://www.w3.org/Graphics/SVG/1.1/DTD/svg11.dtd">
<svg version="1.1" id="Calque_1" xmlns="http://www.w3.org/2000/svg" xmlns:xlink="http://www.w3.org/1999/xlink" x="0px" y="0px"
	 width="512px" height="512px" viewBox="0 0 512 512" enable-background="new 0 0 512 512" xml:space="preserve">
<path id="cloud-icon" fill="#112732" d="M439.439,221.61C429.396,89.292,262.897,45.695,194.845,158.992
	c-44.143-26.117-100.437,4.61-103.963,58.594C42.49,223.789,5,266.917,5,319.234c0,56.574,43.831,102.44,97.896,102.44H409.73
	c54.064,0,97.896-45.868,97.896-102.44C507.631,273.495,478.979,234.771,439.439,221.61z"/>
<g>
	<path fill="#FFFFFF" d="M204.637,343.448l18.64-21.816c-3.017-3.748-5.543-7.813-7.554-12.098l-30.297-0.061
		C189.173,321.915,195.651,333.57,204.637,343.448z"/>
	<path fill="#FFFFFF" d="M256.179,342.43c-4.447-1.062-8.828-2.649-13.056-4.78l-18.779,21.979
		c10.066,6.091,20.874,9.941,31.834,11.687V342.43z"/>
	<path fill="#FFFFFF" d="M281.676,342.933v28.713c20.656-2.731,40.22-12.704,54.627-28.97l-19.929-20.308
		C307.315,333.29,294.946,340.332,281.676,342.933z"/>
	<path fill="#FFFFFF" d="M358.512,279.447c-1.427-28.009-16.11-54.822-41.749-70.722c-41.531-25.752-96.074-12.963-121.828,28.566
		c-9.029,14.562-13.314,30.721-13.29,46.679l28.351,0.057c-0.029-10.868,2.882-21.877,9.032-31.795
		c17.501-28.224,54.571-36.917,82.795-19.414c17.013,10.55,26.926,28.082,28.286,46.629h-22.983l37.386,37.385l37.199-37.385
		H358.512z"/>
</g>
</svg>
