<?xml version="1.0" encoding="utf-8"?>
<!-- Generator: Adobe Illustrator 16.2.0, SVG Export Plug-In . SVG Version: 6.00 Build 0)  -->
<!DOCTYPE svg PUBLIC "-//W3C//DTD SVG 1.1//EN" "http://www.w3.org/Graphics/SVG/1.1/DTD/svg11.dtd">
<svg version="1.1" id="Calque_1" xmlns="http://www.w3.org/2000/svg" xmlns:xlink="http://www.w3.org/1999/xlink" x="0px" y="0px"
	 width="512px" height="512px" viewBox="0 0 512 512" enable-background="new 0 0 512 512" xml:space="preserve">
<rect x="0" y="0.231" display="none" fill="#93C7E4" width="512" height="513.936"/>
<path id="cloud-icon" fill="#112732" d="M442.932,222.702c-5.472-71.046-63.121-126.945-133.432-126.945
	c-47.792,0-89.727,25.831-113.41,64.683c-44.546-25.969-101.359,4.584-104.918,58.266C42.334,224.871,4.5,267.758,4.5,319.781
	c0,56.261,44.235,101.869,98.798,101.869h309.654c54.564,0,98.799-45.608,98.799-101.869
	C511.751,274.301,482.838,235.793,442.932,222.702z"/>
<polygon id="arrow-icon" fill="#FFFFFF" points="276.081,384.22 201.5,293.923 237.558,293.923 237.558,200.5 314.606,200.5 
	314.606,293.923 350.665,293.923 "/>
</svg>
