<?xml version="1.0" encoding="utf-8"?>
<!-- Generator: Adobe Illustrator 18.0.0, SVG Export Plug-In . SVG Version: 6.00 Build 0)  -->
<!DOCTYPE svg PUBLIC "-//W3C//DTD SVG 1.1//EN" "http://www.w3.org/Graphics/SVG/1.1/DTD/svg11.dtd">
<svg version="1.1" id="Calque_1" xmlns="http://www.w3.org/2000/svg" xmlns:xlink="http://www.w3.org/1999/xlink" x="0px" y="0px"
	 viewBox="0 0 512 512" enable-background="new 0 0 512 512" xml:space="preserve">
<g id="Calque_2">
	<path fill="#4DBFF5" d="M451.4,454.2c-27.6-5-66.9-16.1-84.7-27.1c-98.1,24-169.6-36.4-169.6-101.2c0-62.2,60.6-107,127.5-107
		c67.3,0,127.5,45.2,127.5,107c0,21.9-7.9,43.5-21.7,60.2C429.7,405.6,441.1,433.7,451.4,454.2z"/>
	<ellipse fill="#CBC4C1" cx="275" cy="327.2" rx="17.5" ry="17.5"/>
	<ellipse fill="#CBC4C1" cx="327.2" cy="327.2" rx="17.5" ry="17.5"/>
	<ellipse fill="#CBC4C1" cx="378.8" cy="327.2" rx="17.5" ry="17.5"/>
</g>
<g id="Calque_1_1_">
	<path id="speech-bubble-15-icon" fill="#062A4B" d="M174.1,354.4C174,354.4,174,354.4,174.1,354.4c-26,15.9-83.1,32.1-123.2,39.4
		c15-29.7,31.6-70.5,30.8-99C61.4,270.5,50,239.2,50,207.4c0-89.8,87.4-155.5,185.2-155.5c97.2,0,185.2,65.2,185.2,155.5
		c0,1.3,0,2.6-0.1,3.8c-11.3-6.1-23.5-11-36.6-14.7c-6.9-60.9-70.8-108.7-148.5-108.7c-82.2,0-149.1,53.6-149.1,119.6
		c0,34.7,15,56.5,36.2,78.1c-4.3,32-14.6,59.8-14.6,59.8s30.5-8.1,65.3-28.3C171.4,329.6,171.8,342.1,174.1,354.4z"/>
</g>
</svg>
