<?xml version="1.0" encoding="utf-8"?>
<!-- Generator: Adobe Illustrator 19.2.1, SVG Export Plug-In . SVG Version: 6.00 Build 0)  -->
<svg version="1.1" id="Calque_1" xmlns="http://www.w3.org/2000/svg" xmlns:xlink="http://www.w3.org/1999/xlink" x="0px" y="0px"
	 viewBox="0 0 490 490" style="enable-background:new 0 0 490 490;" xml:space="preserve">
<style type="text/css">
	.st0{fill:#4dbff5;}
</style>
<path class="st0" d="M455.6,353.8L410,308.2c0,0,0-193.6,0-193.9c-0.1-3.5-1.5-6.7-3.7-9.2c0,0,0,0,0,0c0,0,0,0,0,0
	C406.1,104.9,304.8,3.6,304.8,3.6c-2.5-2.1-5.6-3.5-9.1-3.6C295.4,0,95,0,95,0c-8.3,0-15,6.7-15,15v65H45c-8.3,0-15,6.7-15,15v380
	c0,8.3,6.7,15,15,15h400c8.3,0,15-6.7,15-15V364.4C460,360.5,458.4,356.6,455.6,353.8z M310,51.2l48.8,48.8H310V51.2z M110,30h170
	v85c0,8.3,6.7,15,15,15h85v148.2L186.2,84.4c-2.8-2.8-6.6-4.4-10.6-4.4H110V30z M430,460H60V110h109.3L430,370.7V460z"/>
</svg>
