<?xml version="1.0" encoding="utf-8"?>
<!-- Generator: Adobe Illustrator 19.2.1, SVG Export Plug-In . SVG Version: 6.00 Build 0)  -->
<svg version="1.1" id="Calque_1" xmlns="http://www.w3.org/2000/svg" xmlns:xlink="http://www.w3.org/1999/xlink" x="0px" y="0px"
	 viewBox="0 0 490 490" style="enable-background:new 0 0 490 490;" xml:space="preserve">
<style type="text/css">
	.st0{fill:#FFFFFF;}
	.st1{fill:#FFFFFF;stroke:#666666;stroke-width:17;stroke-miterlimit:10;}
</style>
<path class="st0" d="M386.8,287.9L356,257.2c0,0,0-130.4,0-130.6c-0.1-2.4-1.1-4.6-2.4-6.2l0,0l0,0c-0.2-0.2-68.4-68.4-68.4-68.4
	c-1.6-1.5-3.8-2.4-6.2-2.4c-0.2,0-135.2,0-135.2,0c-5.6,0-10.1,4.6-10.1,10.1v43.8h-23.6c-5.6,0-10.1,4.6-10.1,10.1v256
	c0,5.6,4.6,10.1,10.1,10.1h269.5c5.6,0,10.1-4.6,10.1-10.1v-74.5C389.7,292.4,388.7,289.9,386.8,287.9z M288.6,84.1l32.9,32.9h-32.9
	V84.1z M153.9,69.8h114.6V127c0,5.6,4.6,10.1,10.1,10.1h57.3V237L205.2,106.5c-1.9-1.9-4.5-2.9-7.2-2.9h-44.2V69.8z M369.5,359.5
	H120.2V123.7h73.6l175.6,175.6L369.5,359.5L369.5,359.5z"/>
<g>
	<g id="file-download">
		<path class="st1" d="M335,288.3h-55.5v-83.2h-83.2v83.2h-55.6l97.2,97.2L335,288.3z M140.7,413.3V441H335v-27.7H140.7z"/>
	</g>
</g>
</svg>
