<?xml version="1.0" encoding="utf-8"?>
<!-- Generator: Adobe Illustrator 16.2.0, SVG Export Plug-In . SVG Version: 6.00 Build 0)  -->
<!DOCTYPE svg PUBLIC "-//W3C//DTD SVG 1.1//EN" "http://www.w3.org/Graphics/SVG/1.1/DTD/svg11.dtd">
<svg version="1.1" id="Calque_1" xmlns="http://www.w3.org/2000/svg" xmlns:xlink="http://www.w3.org/1999/xlink" x="0px" y="0px"
	 width="250px" height="78px" viewBox="0 0 250 78" enable-background="new 0 0 250 78" xml:space="preserve">
<g>
	<path fill="#646569" d="M66.527,66.663c0.162-0.355,0.38-0.524,0.836-0.8l2.005-1.192h2.386l-3.96,2.317l3.998,2.298h-2.418
		l-2.086-1.193c-0.387-0.217-0.613-0.405-0.762-0.761v1.954H65.24v-4.615h1.287V66.663z"/>
	<path fill="#646569" d="M84.446,64.664v1.188h-4.991c-0.25,0-0.281,0.187-0.281,0.387v0.149h5.271v1.193h-5.266v0.106
		c0,0.225,0.031,0.394,0.275,0.394h4.991v1.205h-4.991c-0.881,0-1.48-0.58-1.48-1.467v-1.675c0-0.824,0.637-1.474,1.48-1.474
		L84.446,64.664z"/>
	<path fill="#646569" d="M97.082,64.664v1.188h-4.991c-0.249,0-0.28,0.187-0.28,0.387v0.149h5.271v1.193h-5.266v0.106
		c0,0.225,0.031,0.394,0.274,0.394h4.991v1.205h-4.991c-0.88,0-1.479-0.58-1.479-1.467v-1.675c0-0.824,0.636-1.474,1.479-1.474
		L97.082,64.664z"/>
	<path fill="#646569" d="M108.8,64.658c1.224,0,1.224,0.6,1.224,1.456c0,0.811,0,1.467-1.224,1.467h-4.285v1.705h-1.237v-4.628
		H108.8z M104.515,65.852v0.587h3.96c0.325,0,0.325-0.3,0.325-0.587H104.515z"/>
	<path fill="#646569" d="M124.914,64.671h6.552v1.181h-2.685v3.435h-1.162v-3.423h-2.705V64.671z"/>
	<path fill="#646569" d="M138.905,64.664v1.706h4.179v-1.706h1.205v4.622h-1.224v-1.742h-4.154v1.742h-1.212v-4.622H138.905z"/>
	<path fill="#646569" d="M156.969,64.664v1.188h-4.991c-0.249,0-0.28,0.187-0.28,0.387v0.149h5.271v1.193h-5.266v0.106
		c0,0.225,0.031,0.394,0.274,0.394h4.991v1.205h-4.991c-0.88,0-1.479-0.58-1.479-1.467v-1.675c0-0.824,0.637-1.474,1.479-1.474
		L156.969,64.664z"/>
	<path fill="#646569" d="M178.381,64.664v1.188h-4.991c-0.25,0-0.281,0.187-0.281,0.387v0.149h5.272v1.193h-5.267v1.705h-1.204
		v-3.142c0-0.824,0.636-1.474,1.479-1.474L178.381,64.664z"/>
	<path fill="#646569" d="M191.19,67.888c0,0.893-0.58,1.398-1.467,1.398h-3.566c-0.862,0-1.475-0.537-1.475-1.398v-1.893
		c0.068-0.75,0.637-1.331,1.48-1.331h3.561c0.968,0,1.467,0.606,1.467,1.469V67.888z M189.985,66.238
		c0-0.194-0.007-0.387-0.262-0.387h-3.566c-0.281,0-0.281,0.149-0.281,0.3v1.536c0,0.225,0.03,0.388,0.274,0.388h3.561
		c0.274,0,0.274-0.156,0.274-0.325V66.238z"/>
	<path fill="#646569" d="M203.938,68.068v1.212h-5.09c-0.862,0-1.474-0.537-1.474-1.398v-1.894c0.068-0.75,0.637-1.324,1.479-1.324
		h5.072v1.181h-5.078c-0.281,0-0.281,0.15-0.281,0.3v1.537c0,0.226,0.031,0.387,0.274,0.387H203.938z"/>
	<path fill="#646569" d="M215.557,64.664h1.199v3.224c0,0.893-0.581,1.398-1.468,1.398h-3.566c-0.862,0-1.474-0.537-1.474-1.398
		v-3.224h1.192v3.023c0,0.225,0.031,0.388,0.274,0.388h3.561c0.275,0,0.275-0.156,0.275-0.325L215.557,64.664z"/>
	<path fill="#646569" d="M228.461,66.407c1.361,0,1.567,0.631,1.567,1.461c0,0.831-0.219,1.418-1.555,1.418h-5.229v-1.154h5.203
		c0.375,0,0.381-0.244,0.388-0.551h-4.311c-1.312,0-1.574-0.6-1.574-1.437c0-0.893,0.138-1.474,1.574-1.474h5.191v1.174h-5.504
		c0,0.244,0,0.563,0.313,0.563H228.461z"/>
</g>
<g>
	<g>
		<g>
			<path fill="#646569" d="M221.901,51.483v-5.48h-16.662c-3.619,0-5.55-0.808-6.541-2.212l0,0c-0.976-1.404-0.949-3.228-0.959-5.15
				l0,0c0,0,0,0.627,0-2.515c0-3.144,3.821-5.385,6.174-5.385v7.358c-0.004,0.617,0.037,1.175,0.225,1.522l0,0
				c0.186,0.335,0.45,0.551,1.207,0.563l0,0h16.557c0,0,0-1.334,0-4.548c0-3.212,2.913-4.895,5.896-4.895v9.443h2.092v5.817h-2.092
				v5.482H221.901L221.901,51.483z"/>
		</g>
	</g>
	<g>
		<path fill="#646569" d="M125.642,30.709c2.698-0.004,4.193,0.675,4.938,1.931l0,0c0.731,1.244,0.707,2.869,0.712,4.727l0,0
			c-0.005,1.76,0.017,3.398-0.707,4.674l0,0c-0.739,1.288-2.24,2.044-4.943,2.033l0,0h-18.289c0,0,0,0.617,0,3.227
			c0,2.605-1.583,4.183-3.818,4.183c-2.234,0-2.216,0-2.216,0l0,0V30.709H125.642 M107.353,38.446h16.88
			c0.601-0.02,0.758-0.205,0.924-0.591l0,0c0.122-0.325,0.151-0.795,0.155-1.301l0,0h-17.959V38.446L107.353,38.446z"/>
	</g>
	<g>
		<path fill="#646569" d="M154.981,51.483h-22.396c0-4.277,2.309-5.924,5.708-5.924s16.632-0.003,16.632-0.003
			c0.548-0.01,0.677-0.133,0.759-0.265l0,0c0.09-0.143,0.11-0.447,0.106-0.813l0,0v-1.277c-0.267,0.02-0.536,0.032-0.81,0.032l0,0
			h-15.497c-1.942,0-3.63-0.609-4.834-1.724l0,0c-1.204-1.117-1.906-2.739-1.903-4.687l0,0V30.74h5.846l-0.002,5.212
			c-0.002,0.476,0.043,0.852,0.16,1.046l0,0c0.113,0.188,0.239,0.293,0.705,0.308l0,0h15.47c0.854-0.06,0.783-0.214,0.892-0.701l0,0
			V30.74h5.874v14.334c0.001,2.01-0.663,3.633-1.852,4.733l0,0c-1.186,1.105-2.867,1.676-4.852,1.676l0,0
			C154.987,51.483,154.983,51.483,154.981,51.483L154.981,51.483z"/>
	</g>
	<g>
		<path fill="#646569" d="M185.327,51.244l-5.278-6.097c-0.343-0.416-1.331-1.296-1.876-2.187l0,0
			c-0.545,0.891-1.534,1.771-1.878,2.188l0,0c0,0-1.723,2.055-3.036,3.508c-1.315,1.45-3.643,2.587-6.021,2.587s-3.564,0-3.564,0
			l8.691-10.127l-8.686-10.229h7.336l5.28,6.014c0.353,0.428,1.335,1.392,1.877,2.32l0,0c0.541-0.928,1.525-1.892,1.878-2.322l0,0
			c0,0,2.266-2.519,3.145-3.582c0.877-1.064,3.061-2.43,5.68-2.43c2.618,0,3.793,0,3.793,0l-8.688,10.229l8.694,10.127H185.327
			L185.327,51.244z"/>
	</g>
</g>
<g>
	<path fill="#646569" d="M80.063,29.014c-0.729,0.574-1.519,1.198-2.286,1.807L79.65,36.7c0.021,0.065,0.036,0.132,0.053,0.198
		l13.832-11.225h-3.361C86.224,25.673,82.831,26.838,80.063,29.014z"/>
	<polygon fill="#646569" points="70.871,48.337 73.506,53.795 82.766,53.795 77.636,43.002 	"/>
</g>
<g>
	<path fill="#00A1DF" d="M42.892,8.168c-0.682-1.434,0.061-2.609,1.649-2.609h20.686c1.589,0,3.281,1.237,3.762,2.75l9.191,28.859
		c0.483,1.516-0.143,3.553-1.39,4.536L38.066,72.238c-1.247,0.982-3.565,1.784-5.152,1.784H18.58c-1.586,0-1.876-0.813-0.64-1.811
		l37.757-30.479c1.235-0.998,1.691-2.987,1.01-4.422L42.892,8.168z"/>
</g>
<path fill="#40B4E5" d="M78.18,37.168l-1.704-5.354c-3.209,2.495-6.934,5.382-6.934,5.382c-0.942,0.763-1.577,1.424-1.984,2.543
	c-0.436,1.197,0.763,3.51,1.119,4.271l1.454,2.946l6.66-5.252C78.036,40.722,78.663,38.685,78.18,37.168z"/>
</svg>
