
<svg xmlns="http://www.w3.org/2000/svg" xmlns:xlink="http://www.w3.org/1999/xlink" version="1.1" id="Calque_1" x="0px" y="0px" viewBox="0 0 512 512" style="enable-background:new 0 0 24 24;" xml:space="preserve">
<path d="M490.421 137.707c-0.085-1.003-0.149-2.005-0.555-2.987 -0.107-0.256-0.32-0.427-0.448-0.683 -0.277-0.533-0.597-0.981-0.96-1.472 -0.725-1.003-1.536-1.835-2.517-2.517 -0.256-0.171-0.363-0.491-0.64-0.64l-224-128c-3.285-1.877-7.296-1.877-10.581 0l-224 128c-0.256 0.171-0.363 0.469-0.619 0.64 -1.024 0.704-1.899 1.557-2.645 2.624 -0.299 0.427-0.597 0.811-0.832 1.28 -0.149 0.277-0.384 0.469-0.512 0.768 -0.469 1.173-0.619 2.389-0.661 3.584 0 0.128-0.107 0.256-0.107 0.384v0.171c0 0.021 0 0.021 0 0.043v234.304c0 0.021 0 0.064 0 0.085v0.064c0 0.213 0.149 0.405 0.171 0.619 0.085 1.493 0.32 2.987 1.045 4.352 0.043 0.085 0.128 0.107 0.171 0.192 0.277 0.491 0.768 0.811 1.131 1.259 0.789 0.981 1.557 1.941 2.603 2.603 0.107 0.064 0.149 0.192 0.235 0.235l224 128c1.664 0.939 3.477 1.408 5.312 1.408s3.648-0.469 5.291-1.408l224-128c0.107-0.064 0.149-0.192 0.256-0.256 0.981-0.597 1.664-1.493 2.411-2.389 0.427-0.512 1.003-0.896 1.323-1.472 0.043-0.064 0.107-0.107 0.149-0.171 0.576-1.109 0.683-2.325 0.853-3.52 0.064-0.491 0.384-0.939 0.384-1.451V138.688C490.677 138.347 490.443 138.048 490.421 137.707zM455.52 136.981l-78.251 31.296L291.211 43.093 455.52 136.981zM256.011 29.504l97.067 141.184H158.944L256.011 29.504zM220.747 43.115l-86.037 125.163L56.48 136.981 220.747 43.115zM42.677 154.432l80.768 32.32L42.677 332.16V154.432zM138.635 203.392l98.325 178.773L49.248 364.288 138.635 203.392zM245.344 482.965l-165.12-94.336 165.12 15.573V482.965zM256.011 372.544l-99.285-180.523h198.571L256.011 372.544zM266.677 482.965v-78.571l165.035-15.723L266.677 482.965zM274.997 382.357l98.411-178.901 89.365 160.853L274.997 382.357zM469.344 332.203l-80.811-145.451 80.811-32.32V332.203z" fill="#ffffff"/>
</svg>
