<?xml version="1.0" encoding="utf-8"?>
<!-- Generator: Adobe Illustrator 20.0.0, SVG Export Plug-In . SVG Version: 6.00 Build 0)  -->
<svg version="1.1" id="Calque_1" xmlns="http://www.w3.org/2000/svg" xmlns:xlink="http://www.w3.org/1999/xlink" x="0px" y="0px"
	 viewBox="0 0 24 24" style="enable-background:new 0 0 24 24;" xml:space="preserve">
<style type="text/css">
	.st0{fill:#666666;}
</style>
<path class="st0" d="M7.9,18.7c0,1.4-1.1,2.5-2.5,2.5C4.1,21.1,3,20,3,18.7c0-1.4,1.1-2.5,2.5-2.5C6.8,16.2,7.9,17.3,7.9,18.7z
	 M3,9.2v3.6c4.6,0,8.3,3.8,8.3,8.3H15C14.9,14.5,9.6,9.2,3,9.2z M3,6.6c8,0,14.5,6.5,14.5,14.5h3.6C21.1,11.1,13,3,3,3
	C3,3,3,6.6,3,6.6z"/>
</svg>
