<?xml version="1.0" encoding="utf-8"?>
<!-- Generator: Adobe Illustrator 20.0.0, SVG Export Plug-In . SVG Version: 6.00 Build 0)  -->
<svg version="1.1" id="Calque_1" xmlns="http://www.w3.org/2000/svg" xmlns:xlink="http://www.w3.org/1999/xlink" x="0px" y="0px"
	 viewBox="0 0 24 24" style="enable-background:new 0 0 24 24;" xml:space="preserve">
<style type="text/css">
	.st0{fill:#FFFFFF;}
</style>
<path class="st0" d="M20.4,13.1v-2.2c-1.1-0.4-1.9-0.5-2.2-1.4v0c-0.4-0.9,0.1-1.5,0.6-2.6l-1.6-1.6c-1.1,0.5-1.7,1-2.6,0.6h0
	c-0.9-0.4-1-1.1-1.4-2.2h-2.2c-0.4,1.1-0.5,1.9-1.4,2.2h0C8.7,6.3,8.1,5.8,7,5.3L5.4,6.9C5.9,8,6.3,8.6,6,9.5
	c-0.4,0.9-1.1,1-2.2,1.4v2.2c1.1,0.4,1.9,0.5,2.2,1.4c0.4,0.9-0.1,1.5-0.6,2.6L7,18.7c1.1-0.5,1.7-1,2.6-0.6h0
	c0.9,0.4,1,1.1,1.4,2.2h2.2c0.4-1.1,0.5-1.9,1.4-2.2h0c0.9-0.4,1.5,0.1,2.6,0.6l1.6-1.6c-0.5-1.1-1-1.7-0.6-2.6
	C18.5,13.6,19.2,13.5,20.4,13.1z M12.1,14.8c-1.5,0-2.8-1.2-2.8-2.8s1.2-2.8,2.8-2.8s2.8,1.2,2.8,2.8S13.6,14.8,12.1,14.8z"/>
</svg>
