<?xml version="1.0" encoding="utf-8"?>
<!-- Generator: Adobe Illustrator 20.1.0, SVG Export Plug-In . SVG Version: 6.00 Build 0)  -->
<svg version="1.1" id="Calque_1" xmlns="http://www.w3.org/2000/svg" xmlns:xlink="http://www.w3.org/1999/xlink" x="0px" y="0px"
	 viewBox="0 0 24 24" style="enable-background:new 0 0 24 24;" xml:space="preserve">
<style type="text/css">
	.st0{fill:#1D561D;}
	.st1{fill:#468847;}
	.st2{fill:#FFFFFF;}
</style>
<path class="st0" d="M15,2v5h5v15H4V2H15z M16,0H2v24h20V6L16,0z"/>
<polygon class="st1" points="15,2 15,7 20,7 20,22 4,22 4,2 "/>
<g>
	<path class="st2" d="M14.7,11.3c0,0.5-0.2,1-0.5,1.4s-0.8,0.6-1.4,0.8v0c0.7,0.1,1.2,0.3,1.6,0.6s0.5,0.8,0.5,1.4
		c0,0.8-0.3,1.5-0.9,1.9s-1.5,0.7-2.6,0.7c-0.9,0-1.8-0.2-2.5-0.5v-1.5c0.3,0.2,0.7,0.3,1.1,0.4s0.8,0.2,1.2,0.2
		c0.6,0,1-0.1,1.3-0.3s0.4-0.5,0.4-1c0-0.4-0.2-0.7-0.5-0.9s-0.9-0.3-1.6-0.3h-0.7v-1.4H11c0.7,0,1.1-0.1,1.5-0.3s0.5-0.5,0.5-0.9
		c0-0.6-0.4-1-1.2-1c-0.3,0-0.6,0-0.9,0.1s-0.6,0.3-1,0.5l-0.8-1.2c0.8-0.6,1.7-0.8,2.8-0.8c0.9,0,1.6,0.2,2.1,0.5
		S14.7,10.7,14.7,11.3z"/>
</g>
</svg>
