<?xml version="1.0" encoding="utf-8"?>
<!-- Generator: Adobe Illustrator 19.2.1, SVG Export Plug-In . SVG Version: 6.00 Build 0)  -->
<svg version="1.1" id="Calque_1" xmlns="http://www.w3.org/2000/svg" xmlns:xlink="http://www.w3.org/1999/xlink" x="0px" y="0px"
	 viewBox="0 0 24 24" style="enable-background:new 0 0 24 24;" xml:space="preserve">
<style type="text/css">
	.st0{fill:#666666;}
</style>
<path class="st0" d="M17.5,5L12,1L6.5,5L0,1v18l6.5,4l5.5-4l5.5,4l6.5-4V1L17.5,5z M7,7.1l4-2.9v13.1l-4,2.9C7,20.1,7,7.1,7,7.1z
	 M13,4.2l4,2.9v13.1l-4-2.9C13,17.3,13,4.2,13,4.2z M2,4.6l4,2.5v13.3l-4-2.5C2,17.9,2,4.6,2,4.6z M22,17.9l-4,2.5V7.1l4-2.5V17.9z"
	/>
</svg>
