<?xml version="1.0" encoding="utf-8"?>
<!-- Generator: Adobe Illustrator 18.0.0, SVG Export Plug-In . SVG Version: 6.00 Build 0)  -->
<!DOCTYPE svg PUBLIC "-//W3C//DTD SVG 1.1//EN" "http://www.w3.org/Graphics/SVG/1.1/DTD/svg11.dtd">
<svg version="1.1" id="Calque_1" xmlns="http://www.w3.org/2000/svg" xmlns:xlink="http://www.w3.org/1999/xlink" x="0px" y="0px"
	 viewBox="0 0 512 512" enable-background="new 0 0 512 512" xml:space="preserve">
<path id="bell-7-icon" fill="#78909c" d="M305,131.6c-10.1-5.8-16.3-16.5-16.3-28.1c0,0,0,0,0-0.1c0-18.1-14.7-32.8-32.8-32.8
	c-18.1,0-32.8,14.7-32.8,32.8c0,0,0,0,0,0.1c0,11.6-6.2,22.3-16.3,28.1c-73,41.9-31,181-107.3,205.6v32.5h312.7v-32.5
	C336.1,312.5,378,173.4,305,131.6z M256,90.1c7.3,0,13.3,6,13.3,13.3c0,7.3-6,13.3-13.3,13.3s-13.3-6-13.3-13.3
	C242.7,96,248.7,90.1,256,90.1z M301.1,396.7c0,24.7-20,44.7-44.7,44.7c-24.7,0-44.7-20-44.7-44.7H301.1z M401.3,215
	c3.4,13.6,0.9,27.2-5.7,38.3l18.3,11c9.5-15.8,13-35.2,8.2-54.5c-4.8-19.3-17-34.8-32.8-44.3l-11,18.3
	C389.4,190.5,397.9,201.4,401.3,215z M458.7,200.7c-7.3-29.4-25.9-53.1-50-67.6l-11.3,18.7c19.3,11.6,34.2,30.6,40,54.1
	c5.9,23.6,1.6,47.3-10,66.6l18.7,11.3C460.7,259.7,466,230.1,458.7,200.7z M133.8,183.8l-11-18.3c-15.8,9.5-28,25-32.8,44.3
	c-4.8,19.3-1.3,38.7,8.2,54.5l18.3-11c-6.7-11.1-9.1-24.8-5.7-38.3C114.1,201.4,122.6,190.5,133.8,183.8z M65.7,283.8l18.7-11.3
	c-11.6-19.3-15.8-43-10-66.6c5.9-23.6,20.7-42.5,40-54.1l-11.3-18.7c-24.1,14.5-42.6,38.2-50,67.6C46,230.1,51.3,259.7,65.7,283.8z"
	/>
</svg>
