<?xml version="1.0" encoding="UTF-8" standalone="no"?>
<svg id="svg2" xmlns:rdf="http://www.w3.org/1999/02/22-rdf-syntax-ns#" xmlns="http://www.w3.org/2000/svg" version="1.1" xml:space="preserve" height="29.283" viewBox="100.5 100.5 48.578999 29.283001" width="48.579" enable-background="new 100.5 100.5 100 100" y="0px" x="0px" xmlns:cc="http://creativecommons.org/ns#" xmlns:dc="http://purl.org/dc/elements/1.1/" fill="#fff"><metadata id="metadata30"><rdf:RDF><cc:Work rdf:about=""><dc:format>image/svg+xml</dc:format><dc:type rdf:resource="http://purl.org/dc/dcmitype/StillImage"/><dc:title/></cc:Work></rdf:RDF></metadata><g stroke="#000" stroke-miterlimit="10"><rect id="rect4" width="100" y="-34.859" x="-25.21" height="100" display="none"/><rect id="rect6" width="100" y="-34.859" x="74.79" height="100" display="none"/><rect id="rect8" width="100" y="-34.859" x="174.79" height="100" display="none"/><rect id="rect10" width="100" y="65.141" x="-25.21" height="100" display="none"/><rect id="rect12" width="100" y="65.141" x="74.79" height="100" display="none"/><rect id="rect14" width="100" y="65.141" x="174.79" height="100" display="none"/><rect id="rect16" width="100" y="165.14" x="-25.21" height="100" display="none"/><rect id="rect18" width="100" y="165.14" x="74.79" height="100" display="none"/><rect id="rect20" width="100" y="165.14" x="174.79" height="100" display="none"/></g><polygon id="polygon22" points="131.3 165.14 150.5 145.94 169.7 165.14 174.79 160.06 150.59 135.86 150.5 135.95 150.41 135.86 126.21 160.06" transform="translate(-25.71,-35.359)"/><rect id="rect24" height="100" width="100" y="65.141" x="74.79" fill="none"/></svg>
