<?xml version="1.0" encoding="utf-8"?>
<!-- Generator: Adobe Illustrator 20.0.0, SVG Export Plug-In . SVG Version: 6.00 Build 0)  -->
<svg version="1.1" id="Calque_1" xmlns="http://www.w3.org/2000/svg" xmlns:xlink="http://www.w3.org/1999/xlink" x="0px" y="0px"
	 viewBox="0 0 24 24" style="enable-background:new 0 0 24 24;" xml:space="preserve">
<style type="text/css">
	.st0{fill:#EE7F01;}
</style>
<path class="st0" d="M22,6v11.5L12.3,23L2,18V6.5L11.8,1L22,6z M10.2,4.2l7,3.2l1.7-0.9l-7.1-3.2C11.8,3.3,10.2,4.2,10.2,4.2z
	 M11,11.9L4,8.7v8.2l7,3.1V11.9z M14,9.1L7.2,5.9L5.2,7l6.9,3.2C12,10.2,14,9.1,14,9.1z M20,8.1l-2,1.1V12l-3,1.7v-2.9l-2,1.1v8.4
	l7-4V8.1z"/>
</svg>
