<svg id="Layer_1" data-name="Layer 1" xmlns="http://www.w3.org/2000/svg" viewBox="0 0 20.87 24"><defs><style>.cls-1{opacity:0.8;}.cls-2{fill:#fff;}.cls-3{opacity:0.7;}.cls-4{opacity:0.6;}.cls-5{fill:none;}.cls-6{fill:#60abda;}</style></defs><title>Logo_module réserve</title><g id="Calque_1" data-name="Calque 1"><g class="cls-1"><path class="cls-2" d="M17.49,8.88h0a.59.59,0,0,0-.28.49h0v5.68l5.22-3V6Z" transform="translate(-1.57 0)"/></g><g class="cls-3"><path class="cls-2" d="M6.72,9l-5-2.88a1.1,1.1,0,0,0-.16.56V17.74a.59.59,0,0,0,.27.5h0l4.94,2.86V9.37a.59.59,0,0,1,.08-.3Z" transform="translate(-1.57 0)"/></g><g class="cls-4"><path class="cls-2" d="M12,5.7V0L6.78,3,2.14,5.7a1.17,1.17,0,0,0-.41.42L6.78,9h0l.08,0a.59.59,0,0,1,.2-.2h0l4.68-2.7A.59.59,0,0,0,12,5.7Z" transform="translate(-1.57 0)"/></g><path class="cls-2" d="M17.21,15.06l-4.93,2.84h0a.62.62,0,0,1-.58,0L6.78,15.06v6l4.93,2.84a.62.62,0,0,0,.58,0h0l4.92-2.84,4.95-2.86h0a.59.59,0,0,0,.27-.5h0V12Z" transform="translate(-1.57 0)"/><g class="cls-4"><path class="cls-2" d="M15.09,10h0L12.29,8.43h0a.61.61,0,0,0-.58,0L8.9,10.05h0a.6.6,0,0,0-.17.19L12,12.14l3.28-1.89A.56.56,0,0,0,15.09,10Z" transform="translate(-1.57 0)"/></g><path class="cls-5" d="M11.74,15.86l-.06,0Z" transform="translate(-1.57 0)"/><g class="cls-3"><path class="cls-2" d="M8.72,10.24a.58.58,0,0,0-.08.32v3.17h0a.59.59,0,0,0,.27.5h0l2.75,1.59h0l.06,0a.59.59,0,0,0,.26.06V12.14Z" transform="translate(-1.57 0)"/></g><path class="cls-6" d="M11.67,15.82Z" transform="translate(-1.57 0)"/><path class="cls-2" d="M15.35,10.54a.61.61,0,0,0-.08-.3L12,12.14v3.78a.59.59,0,0,0,.22,0l2.91-1.68h0a.59.59,0,0,0,.22-.41Z" transform="translate(-1.57 0)"/></g></svg>