<svg xmlns="http://www.w3.org/2000/svg" viewBox="0 0 150 40" width="150px" height="40px"><defs><style>.cls-1{fill:#cfd8dc;}.cls-2{font-size:12px;fill:#37474f;font-family:OpenSans, Open Sans;}.cls-3{fill:#78909c;}</style></defs><title>formes renaissance</title><g id="Layer_2" data-name="Layer 2"><path class="cls-1" d="M16,35.33a15.5,15.5,0,0,1,0-31H134a15.5,15.5,0,0,1,0,31Z"/><path class="cls-1" d="M134,4.83a15,15,0,0,1,0,30H16a15,15,0,0,1,0-30H134m0-1H16a16,16,0,0,0-16,16H0a16,16,0,0,0,16,16H134a16,16,0,0,0,16-16h0a16,16,0,0,0-16-16Z"/><text class="cls-2" transform="translate(38.27 23.78)">External Role</text><path class="cls-3" d="M134,36H16A16,16,0,0,1,0,20v3A16,16,0,0,0,16,39H134a16,16,0,0,0,16-16V20A16,16,0,0,1,134,36Z"/></g></svg>
