<svg xmlns="http://www.w3.org/2000/svg" viewBox="0 0 150 40"><defs><style>.cls-1{fill:none;stroke:#263238;stroke-miterlimit:10;stroke-width:0.5px;}.cls-2{fill:#fff;}.cls-3{fill:#263238;}</style></defs><title>formes renaissance</title><g id="Layer_2" data-name="Layer 2"><rect class="cls-1" x="3.29" y="4" width="144" height="32"/><rect class="cls-2" x="144.25" y="33.25" width="5.5" height="5.5"/><path class="cls-3" d="M149.5,33.5v5h-5v-5h5m.5-.5h-6v6h6V33Z"/><rect class="cls-2" x="144.25" y="1.25" width="5.5" height="5.5"/><path class="cls-3" d="M149.5,1.5v5h-5v-5h5M150,1h-6V7h6V1Z"/><rect class="cls-2" x="0.25" y="33.25" width="5.5" height="5.5"/><path class="cls-3" d="M5.5,33.5v5H.5v-5h5M6,33H0v6H6V33Z"/><rect class="cls-2" x="0.25" y="1.25" width="5.5" height="5.5"/><path class="cls-3" d="M5.5,1.5v5H.5v-5h5M6,1H0V7H6V1Z"/><rect class="cls-2" x="75.54" y="33.25" width="5.5" height="5.5"/><path class="cls-3" d="M80.79,33.5v5h-5v-5h5m.5-.5h-6v6h6V33Z"/><rect class="cls-2" x="75.54" y="1.25" width="5.5" height="5.5"/><path class="cls-3" d="M80.79,1.5v5h-5v-5h5m.5-.5h-6V7h6V1Z"/><rect class="cls-2" x="144.25" y="17.25" width="5.5" height="5.5"/><path class="cls-3" d="M149.5,17.5v5h-5v-5h5m.5-.5h-6v6h6V17Z"/><rect class="cls-2" x="0.25" y="17.25" width="5.5" height="5.5"/><path class="cls-3" d="M5.5,17.5v5H.5v-5h5M6,17H0v6H6V17Z"/></g></svg>