<svg id="Layer_1" data-name="Layer 1" xmlns="http://www.w3.org/2000/svg" viewBox="0 0 80 30"><defs><style>.cls-1{fill:#78909c;}.cls-2{font-size:10px;fill:#fff;font-family:OpenSans, Open Sans;}</style></defs><title>formes renaissance</title><path class="cls-1" d="M9,23.52A8.51,8.51,0,0,1,.5,15V6.52h79V15a8.51,8.51,0,0,1-8.5,8.5Z"/><path class="cls-1" d="M79,7v8a8,8,0,0,1-8,8H9a8,8,0,0,1-8-8V7H79m1-1H0v9a9,9,0,0,0,9,9H71a9,9,0,0,0,9-9V6Z"/><text class="cls-2" transform="translate(9.18 17)">Input/Output</text></svg>