<svg id="Layer_1" data-name="Layer 1" xmlns="http://www.w3.org/2000/svg" viewBox="0 0 150 40" width="150px" height="40px"><defs><style>.cls-1{fill:#78909c;}.cls-2{font-size:12px;fill:#fff;font-family:OpenSans, Open Sans;}</style></defs><title>formes renaissance</title><path class="cls-1" d="M16,35.33a15.5,15.5,0,1,1,0-31H134a15.5,15.5,0,0,1,0,31Z"/><path class="cls-1" d="M134,4.83a15,15,0,1,1,0,30H16a15,15,0,0,1,0-30H134m0-1H16a16,16,0,0,0-16,16H0a16,16,0,0,0,16,16H134a16,16,0,0,0,16-16h0a16,16,0,0,0-16-16Z"/><text class="cls-2" transform="translate(39.4 23.78)">Internal Role</text></svg>
