<svg id="Layer_1" data-name="Layer 1" xmlns="http://www.w3.org/2000/svg" viewBox="0 0 150 40" width="150px" height="40px"><defs><style>.cls-1{fill:#78909c;}.cls-2{fill:#b0bec5;}.cls-3{font-size:12px;fill:#fff;font-family:OpenSans, Open Sans;}</style></defs><title>formes renaissance</title><path class="cls-1" d="M16,34.33a14.5,14.5,0,0,1,0-29H134a14.5,14.5,0,0,1,0,29Z"/><path class="cls-2" d="M134,6.83a13,13,0,1,1,0,26H16a13,13,0,1,1,0-26H134m0-3H16a16,16,0,0,0-16,16H0a16,16,0,0,0,16,16H134a16,16,0,0,0,16-16h0a16,16,0,0,0-16-16Z"/><text class="cls-3" transform="translate(63.31 23.78)">Unit</text></svg>
