<svg width="16" height="14" viewBox="0 0 16 14" fill="none" xmlns="http://www.w3.org/2000/svg">
<path d="M12.6663 1H3.33301C2.3902 1 1.91879 1 1.6259 1.2748C1.33301 1.5496 1.33301 1.99188 1.33301 2.87644V3.33632C1.33301 4.02821 1.33301 4.37416 1.50607 4.66095C1.67914 4.94773 1.99532 5.12572 2.62769 5.4817L4.5697 6.57492C4.99398 6.81376 5.20612 6.93318 5.35802 7.06505C5.67433 7.33966 5.86906 7.66234 5.9573 8.05811C5.99967 8.24816 5.99967 8.47054 5.99967 8.91529L5.99967 10.6949C5.99967 11.3013 5.99967 11.6045 6.16762 11.8409C6.33557 12.0772 6.63386 12.1938 7.23044 12.427C8.48286 12.9166 9.10908 13.1614 9.55437 12.8829C9.99967 12.6044 9.99967 11.9679 9.99967 10.6949V8.91529C9.99967 8.47054 9.99967 8.24816 10.042 8.05811C10.1303 7.66234 10.325 7.33966 10.6413 7.06505C10.7932 6.93318 11.0054 6.81376 11.4296 6.57492L13.3717 5.4817C14.004 5.12572 14.3202 4.94773 14.4933 4.66095C14.6663 4.37416 14.6663 4.02821 14.6663 3.33632V2.87644C14.6663 1.99188 14.6663 1.5496 14.3734 1.2748C14.0806 1 13.6092 1 12.6663 1Z" stroke="#151B26" stroke-width="1.5"/>
</svg>
