<svg width="39" height="35" viewBox="0 0 39 35" fill="none" xmlns="http://www.w3.org/2000/svg">
<path d="M35.75 32.0835L3.25 32.0835" stroke="#151B26" stroke-width="1.5" stroke-linecap="round"/>
<path d="M4.875 32.0831V16.5478C4.875 15.2981 5.47047 14.1081 6.51123 13.2779M34.125 32.0831V23.3331M11.7869 9.0694L16.2612 5.5001C18.1083 4.02666 20.8917 4.02666 22.7388 5.5001L32.4888 13.2779C33.5295 14.1081 34.125 15.2981 34.125 16.5478V17.4997" stroke="#151B26" stroke-width="1.5" stroke-linecap="round"/>
<path d="M14.625 26.979H24.375" stroke="#151B26" stroke-width="1.5" stroke-linecap="round"/>
<path d="M9.75 32.0833V27.7083M29.25 32.0833V23.3333C29.25 20.5835 29.25 19.2085 28.2981 18.3543C27.3462 17.5 25.8141 17.5 22.75 17.5H16.25C13.1859 17.5 11.6538 17.5 10.7019 18.3543C9.93565 19.0419 9.78621 20.067 9.75706 21.875" stroke="#151B26" stroke-width="1.5" stroke-linecap="round"/>
<path d="M16.25 13.125H17.0625M22.75 13.125H20.3125" stroke="#151B26" stroke-width="1.5" stroke-linecap="round"/>
<path d="M14.625 22.604H17.0625M24.375 22.604H20.3125" stroke="#151B26" stroke-width="1.5" stroke-linecap="round"/>
</svg>
