<svg width="30" height="30" viewBox="0 0 30 30" fill="none" xmlns="http://www.w3.org/2000/svg">
<path d="M1.01147 7.8829C0.884876 11.2221 1.72997 16.893 7.41848 22.5815C8.79084 23.9539 10.1622 25.0443 11.5 25.9073M3.69116 2.64016C6.12882 0.202493 10.0181 0.530015 11.5658 3.3033L12.7016 5.33843C13.7265 7.17502 13.3151 9.58432 11.7007 11.1987C11.7007 11.1987 11.7007 11.1987 11.7007 11.1987C11.7006 11.1988 9.74272 13.1569 13.2929 16.7071C16.8424 20.2566 18.8005 18.3001 18.8013 18.2993C18.8014 18.2992 18.8014 18.2992 18.8014 18.2992C20.4157 16.6849 22.825 16.2735 24.6616 17.2984L26.6967 18.4342C29.47 19.9819 29.7975 23.8712 27.3598 26.3088C25.8951 27.7736 24.1007 28.9133 22.1171 28.9885C20.6925 29.0425 18.8436 28.9197 16.75 28.3194" stroke="#1C274C" stroke-width="1.5" stroke-linecap="round"/>
</svg>
