<?xml version="1.0" encoding="utf-8"?>
<!-- Generator: Adobe Illustrator 16.2.0, SVG Export Plug-In . SVG Version: 6.00 Build 0)  -->
<!DOCTYPE svg PUBLIC "-//W3C//DTD SVG 1.1//EN" "http://www.w3.org/Graphics/SVG/1.1/DTD/svg11.dtd">
<svg version="1.1" id="Layer_1" xmlns="http://www.w3.org/2000/svg" xmlns:xlink="http://www.w3.org/1999/xlink" x="0px" y="0px"
	 width="512px" height="512px" viewBox="0 0 512 512" enable-background="new 0 0 512 512" xml:space="preserve">
<path id="user-1-icon" fill="#224E6B" d="M50.74,315.328c25.692-5.926,49.606-11.114,38.024-32.951
	c-35.254-66.466-9.345-102.01,27.883-102.01c25.196,0,44.819,16.267,44.819,46.24c0,83.03-47.364,37.997-47.368,132.751H27.035
	C27.035,334.791,25.059,321.25,50.74,315.328z"/>
<path id="user-2-icon" fill="#112732" d="M478.965,359.358H391.9c-0.004-94.755-47.366-49.719-47.366-132.751
	c0-29.975,19.623-46.24,44.817-46.24c37.229,0,63.138,35.544,27.885,102.01c-11.583,21.837,12.331,27.023,38.023,32.951
	C480.94,321.251,478.965,334.792,478.965,359.358z"/>
<path id="user-3-icon" fill="#4DBFF5" d="M337.534,303.972c-32.315-7.456-62.395-13.982-47.826-41.447
	c44.343-83.605,11.752-128.315-35.073-128.315c-47.75,0-79.538,46.425-35.072,128.315c15.005,27.633-16.209,34.153-47.83,41.447
	c-32.303,7.452-29.818,24.483-29.818,55.386h225.437C367.351,328.453,369.838,311.424,337.534,303.972z"/>
</svg>
