<?xml version="1.0" encoding="utf-8"?>
<!-- Generator: Adobe Illustrator 19.2.1, SVG Export Plug-In . SVG Version: 6.00 Build 0)  -->
<svg version="1.1" id="Calque_1" xmlns="http://www.w3.org/2000/svg" xmlns:xlink="http://www.w3.org/1999/xlink" x="0px" y="0px"
	 viewBox="0 0 24 24" style="enable-background:new 0 0 24 24;" xml:space="preserve">
<style type="text/css">
	.st0{fill:#FFFFFF;stroke:#666666;stroke-miterlimit:10;}
	.st1{display:none;fill:#DCDCDC;}
	.st2{display:none;fill:#EFEEEF;}
	.st3{fill:#666666;}
</style>
<g>
	<path class="st0" d="M18.4,15.4L18.4,15.4l-4.1,4.1l-0.1,0.1H6.9c-1.1,0-1.9-0.9-1.9-2V5c0-1.1,0.9-2,1.9-2h9.6
		c1.1,0,1.9,0.9,1.9,2L18.4,15.4L18.4,15.4L18.4,15.4z"/>
	<polygon class="st1" points="10.1,20 14.4,15.6 14.4,20 	"/>
	<polygon class="st2" points="18.8,15.6 14.4,20 14.4,15.6 	"/>
</g>
<rect x="7.2" y="7.1" class="st3" width="9" height="1.1"/>
<rect x="7.2" y="9.1" class="st3" width="9" height="1.1"/>
<rect x="7.2" y="11.3" class="st3" width="9" height="1.1"/>
<g>
	<path class="st0" d="M15.6,13.4l0,3l-3,0c-0.2,0-0.3,0.2-0.3,0.3l0,1.6c0,0.2,0.2,0.3,0.3,0.3l3,0l0,3c0,0.2,0.2,0.3,0.3,0.3l1.6,0
		c0.2,0,0.3-0.2,0.3-0.3l0-3l3,0c0.2,0,0.3-0.2,0.3-0.3l0-1.6c0-0.2-0.2-0.3-0.3-0.3l-3,0l0-3c0-0.2-0.2-0.3-0.3-0.3l-1.6,0
		C15.7,13.2,15.6,13.2,15.6,13.4z"/>
</g>
</svg>
