<?xml version="1.0" encoding="utf-8"?>
<!-- Generator: Adobe Illustrator 19.2.1, SVG Export Plug-In . SVG Version: 6.00 Build 0)  -->
<svg version="1.1" id="Calque_1" xmlns="http://www.w3.org/2000/svg" xmlns:xlink="http://www.w3.org/1999/xlink" x="0px" y="0px"
	 viewBox="0 0 24 24" style="enable-background:new 0 0 24 24;" xml:space="preserve">
<style type="text/css">
	.st0{fill:#666666;stroke:#666666;stroke-miterlimit:10;}
	.st1{fill:#D1E5E5;}
	.st2{fill:#9BD4DF;}
	.st3{fill:#FFFFFF;}
	.st4{fill:#EFEFEF;}
	.st5{fill:#CECECE;}
	.st6{fill:#F2F2F2;}
	.st7{fill:#4DBFF5;stroke:#666666;stroke-miterlimit:10;}
</style>
<path id="Background_1_" class="st0" d="M18.4,3.1H9.7V2.7c0-0.5-0.4-0.9-0.9-0.9H4.5C4,1.8,3.6,2.2,3.6,2.7V4v0.2v11.1
	c0,0.5,0.4,0.9,0.9,0.9h14c0.5,0,0.9-0.4,0.9-0.9V4C19.3,3.5,19,3.1,18.4,3.1z"/>
<path id="Background" class="st1" d="M18.4,3.1H9.7V2.7c0-0.5-0.4-0.9-0.9-0.9H4.4C4,1.8,3.5,2.2,3.5,2.7V4v0.2v11.1
	c0,0.5,0.4,0.9,0.9,0.9h14c0.5,0,0.9-0.4,0.9-0.9V4C19.3,3.5,19,3.1,18.4,3.1z"/>
<rect id="Feuille" x="4.5" y="4.2" class="st2" width="13.9" height="11.2"/>
<path class="st3" d="M15.8,4.9H4.5C4,4.9,3.6,5.2,3.6,5.8v9.5c0,0.5,0.4,0.9,0.9,0.9h13.9c0.5,0,0.9-0.4,0.9-0.9V8.5L15.8,4.9z"/>
<polygon class="st4" points="15.8,8.5 15.8,8.4 15.8,8.4 15.8,8.4 15.8,4.9 12.3,4.9 12.3,4.9 8.8,4.9 12.3,8.4 12.3,8.4 15.8,11.9 
	15.8,11.9 19.3,15.4 19.3,11.9 "/>
<polygon class="st5" points="15.8,8.5 19.3,12.1 19.3,8.5 "/>
<polyline class="st6" points="15.8,4.9 15.8,8.5 19.3,8.5 "/>
<g>
	<path class="st7" d="M15,11.4V15h-3.5c-0.2,0-0.4,0.2-0.4,0.4v1.9c0,0.2,0.2,0.4,0.4,0.4H15v3.6c0,0.2,0.2,0.4,0.4,0.4h1.9
		c0.2,0,0.4-0.2,0.4-0.4v-3.6h3.5c0.2,0,0.4-0.2,0.4-0.4v-1.9c0-0.2-0.2-0.4-0.4-0.4h-3.5v-3.6c0-0.2-0.2-0.4-0.4-0.4h-1.9
		C15.1,11.1,15,11.1,15,11.4z"/>
</g>
</svg>
