<?xml version="1.0" encoding="utf-8"?>
<!-- Generator: Adobe Illustrator 16.2.0, SVG Export Plug-In . SVG Version: 6.00 Build 0)  -->
<!DOCTYPE svg PUBLIC "-//W3C//DTD SVG 1.1//EN" "http://www.w3.org/Graphics/SVG/1.1/DTD/svg11.dtd">
<svg version="1.1" id="Calque_1" xmlns="http://www.w3.org/2000/svg" xmlns:xlink="http://www.w3.org/1999/xlink" x="0px" y="0px"
	 width="512px" height="512px" viewBox="0 0 512 512" enable-background="new 0 0 512 512" xml:space="preserve">
<path fill="#0095D7" d="M430.331,364.354v-1.306V363l-107.05,107.104h0.05l-0.05,0.049h-191.54c-27.82,0-50.393-22.966-50.393-51.29
	V92.956c0-28.34,22.571-51.299,50.393-51.299h248.214c27.82,0,50.395,22.959,50.395,51.299v271.383L430.331,364.354z"/>
<polygon fill="#0B2F47" points="216.382,470.154 323.432,363.051 323.432,470.154 "/>
<polygon fill="#4DBFF5" points="430.331,363.051 323.281,470.154 323.281,363.051 "/>
<g>
	<g>
		<polygon fill="#FFFFFF" points="310.934,272.115 320.264,291.435 353.046,291.435 334.884,253.229 		"/>
		<path fill="#FFFFFF" d="M343.482,203.708c-2.583,2.032-5.376,4.238-8.094,6.392l6.63,20.816c0.074,0.229,0.126,0.467,0.188,0.703
			l48.966-39.741h-11.9C365.288,191.878,353.275,196.006,343.482,203.708z"/>
	</g>
	<g>
		<path fill="#FFFFFF" d="M211.878,129.906c-2.412-5.075,0.217-9.239,5.839-9.239h73.235c5.626,0,11.61,4.386,13.316,9.735
			l32.541,102.172c1.706,5.364-0.507,12.582-4.919,16.059l-137.095,108.1c-4.414,3.479-12.619,6.317-18.238,6.317H125.81
			c-5.618,0-6.643-2.881-2.269-6.407l133.672-107.914c4.374-3.524,5.984-10.57,3.576-15.647L211.878,129.906z"/>
	</g>
	<path fill="#00B6ED" d="M336.813,232.574l-6.037-18.95c-11.355,8.835-24.548,19.047-24.548,19.047
		c-3.335,2.703-5.583,5.044-7.021,9.004c-1.544,4.243,2.696,12.429,3.96,15.125l5.146,10.427l23.578-18.595
		C336.305,245.156,338.52,237.939,336.813,232.574z"/>
</g>
</svg>
