<?xml version="1.0" encoding="utf-8"?>
<!-- Generator: Adobe Illustrator 16.2.0, SVG Export Plug-In . SVG Version: 6.00 Build 0)  -->
<!DOCTYPE svg PUBLIC "-//W3C//DTD SVG 1.1//EN" "http://www.w3.org/Graphics/SVG/1.1/DTD/svg11.dtd">
<svg version="1.1" id="Calque_1" xmlns="http://www.w3.org/2000/svg" xmlns:xlink="http://www.w3.org/1999/xlink" x="0px" y="0px"
	 width="512px" height="512px" viewBox="0 0 512 512" enable-background="new 0 0 512 512" xml:space="preserve">
<path fill="#0095D7" stroke="#0B2F47" stroke-width="16" stroke-miterlimit="10" d="M420.354,434.396
	c0,11.099-7.763,20.104-17.337,20.104H115.525c-9.57,0-17.336-9.005-17.336-20.104V142.912c0-11.102,7.766-20.101,17.336-20.101
	h287.492c9.574,0,17.337,8.999,17.337,20.101V434.396L420.354,434.396z"/>
<polygon fill="#FFFFFF" stroke="#0B2F47" stroke-width="9" stroke-miterlimit="10" points="196.581,202.271 248.435,124.603 
	175.682,65.427 142.981,126.068 "/>
<polygon fill="#FFFFFF" stroke="#0B2F47" stroke-width="9" stroke-miterlimit="10" points="321.924,202.271 269.298,125.128 
	341.459,65.222 374.751,125.543 "/>
<g>
	<path fill="#0B2F47" stroke="#0B2F47" stroke-width="9" stroke-miterlimit="10" d="M255.824,124.217
		c-24.98-21.394-49.956-42.792-74.935-64.188c47.05-30.279,109.686-33.023,155.364,0c-15.257,25.796-45.853,44.946-68.321,64.188
		C263.088,124.217,260.669,124.217,255.824,124.217z"/>
</g>
<g display="none">
	<polygon display="inline" stroke="#000000" stroke-width="5" stroke-miterlimit="10" points="246.712,275.43 220.839,413.745 
		253.568,413.745 253.568,203.53 210.24,264.167 	"/>
	<polygon display="inline" stroke="#000000" stroke-width="5" stroke-miterlimit="10" points="299.178,264.167 255.851,203.53 
		255.851,413.745 288.581,413.745 262.699,275.43 	"/>
</g>
<g>
	<g>
		<polygon fill="#FFFFFF" points="283.312,345.404 289.235,357.67 310.047,357.67 298.517,333.413 		"/>
		<path fill="#FFFFFF" d="M303.975,301.973c-1.64,1.29-3.412,2.689-5.138,4.058l4.209,13.216c0.047,0.146,0.08,0.297,0.12,0.447
			l31.087-25.23h-7.557C317.821,294.464,310.193,297.084,303.975,301.973z"/>
	</g>
	<g>
		<path fill="#FFFFFF" d="M220.424,255.119c-1.531-3.223,0.137-5.866,3.707-5.866h46.495c3.571,0,7.373,2.784,8.456,6.182
			L299.74,320.3c1.083,3.406-0.321,7.988-3.122,10.196l-87.039,68.629c-2.803,2.21-8.012,4.013-11.579,4.013h-32.22
			c-3.566,0-4.217-1.829-1.439-4.068l84.865-68.512c2.776-2.238,3.8-6.711,2.271-9.936L220.424,255.119z"/>
	</g>
	<path fill="#00B6ED" d="M299.74,320.3l-3.832-12.029c-7.211,5.607-15.586,12.092-15.586,12.092
		c-2.116,1.716-3.544,3.203-4.456,5.717c-0.98,2.694,1.712,7.891,2.514,9.604l3.268,6.619l14.971-11.807
		C299.419,328.288,300.824,323.706,299.74,320.3z"/>
</g>
</svg>
