<?xml version="1.0" encoding="utf-8"?>
<!-- Generator: Adobe Illustrator 16.2.0, SVG Export Plug-In . SVG Version: 6.00 Build 0)  -->
<!DOCTYPE svg PUBLIC "-//W3C//DTD SVG 1.1//EN" "http://www.w3.org/Graphics/SVG/1.1/DTD/svg11.dtd">
<svg version="1.1" id="Calque_1" xmlns="http://www.w3.org/2000/svg" xmlns:xlink="http://www.w3.org/1999/xlink" x="0px" y="0px"
	 width="512px" height="512px" viewBox="0 0 512 512" enable-background="new 0 0 512 512" xml:space="preserve">
<path fill="#0095D7" d="M423.157,151.982v1.252v0.047L321.003,51.108h0.029l-0.029-0.047H138.197
	c-26.563,0-48.087,21.916-48.087,48.926V410.85c0,27.048,21.523,48.948,48.087,48.948h236.875c26.532,0,48.088-21.9,48.088-48.948
	L423.157,151.982L423.157,151.982z"/>
<polygon fill="#0B2F47" points="321.003,153.266 423.157,255.438 423.157,153.266 "/>
<polygon fill="#4DBFF5" points="423.157,153.234 321.003,51.062 321.003,153.234 "/>
<g>
	<g>
		<polygon fill="#FFFFFF" points="307.569,322.388 316.899,341.709 349.681,341.709 331.519,303.502 		"/>
		<path fill="#FFFFFF" d="M340.116,253.981c-2.583,2.032-5.376,4.238-8.094,6.391l6.63,20.817c0.074,0.229,0.126,0.467,0.189,0.703
			l48.965-39.741h-11.9C361.924,242.151,349.909,246.279,340.116,253.981z"/>
	</g>
	<g>
		<path fill="#FFFFFF" d="M208.513,180.179c-2.412-5.075,0.217-9.239,5.839-9.239h73.235c5.626,0,11.611,4.385,13.317,9.735
			l32.541,102.172c1.706,5.364-0.507,12.582-4.919,16.059l-137.096,108.1c-4.414,3.48-12.619,6.318-18.238,6.318h-50.748
			c-5.618,0-6.643-2.881-2.269-6.408l133.672-107.914c4.374-3.524,5.985-10.57,3.576-15.647L208.513,180.179z"/>
	</g>
	<path fill="#00B6ED" d="M333.448,282.847l-6.037-18.95c-11.356,8.835-24.548,19.047-24.548,19.047
		c-3.335,2.703-5.583,5.044-7.021,9.004c-1.544,4.243,2.696,12.428,3.959,15.126l5.147,10.426l23.578-18.595
		C332.94,295.429,335.155,288.212,333.448,282.847z"/>
</g>
</svg>
