<?xml version="1.0" encoding="utf-8"?>
<!-- Generator: Adobe Illustrator 16.2.0, SVG Export Plug-In . SVG Version: 6.00 Build 0)  -->
<!DOCTYPE svg PUBLIC "-//W3C//DTD SVG 1.1//EN" "http://www.w3.org/Graphics/SVG/1.1/DTD/svg11.dtd">
<svg version="1.1" id="Calque_1" xmlns="http://www.w3.org/2000/svg" xmlns:xlink="http://www.w3.org/1999/xlink" x="0px" y="0px"
	 width="512px" height="512px" viewBox="0 0 512 512" enable-background="new 0 0 512 512" xml:space="preserve">
<circle fill="#4DBFF5" cx="125.454" cy="55.462" r="29.978"/>
<path fill="#4DBFF5" d="M437.906,337.393c16.546,0,29.969,13.413,29.969,29.969c0,16.546-13.423,29.969-29.969,29.969
	c-16.556,0-29.969-13.423-29.969-29.969C407.937,350.806,421.35,337.393,437.906,337.393z"/>
<path fill="#4DBFF5" d="M79.51,302.973c16.546,0,29.969,13.422,29.969,29.968c0,16.556-13.422,29.968-29.969,29.968
	c-16.556,0-29.968-13.412-29.968-29.968C49.541,316.395,62.954,302.973,79.51,302.973z"/>
<path fill="#0B2F47" d="M169.957,116.821l-11.626-21.681c-2.657-4.967-8.83-6.847-13.825-4.172
	c-4.957,2.656-6.837,8.848-4.181,13.834l11.654,21.672c1.824,3.423,5.35,5.406,8.989,5.406c1.637,0,3.292-0.402,4.835-1.235
	C170.771,127.989,172.633,121.778,169.957,116.821z"/>
<path fill="#0B2F47" d="M181.032,180.667c1.852,3.442,5.388,5.397,9.026,5.397c1.646,0,3.274-0.393,4.808-1.216
	c4.976-2.666,6.828-8.867,4.172-13.833l-11.636-21.681c-2.656-4.958-8.848-6.837-13.824-4.163
	c-4.985,2.675-6.828,8.858-4.172,13.815L181.032,180.667z"/>
<path fill="#0B2F47" d="M390.67,331.548l-23.683-13.506c-4.901-2.788-11.131-1.086-13.937,3.807
	c-2.778,4.91-1.075,11.13,3.807,13.945l23.655,13.488c1.627,0.926,3.339,1.355,5.079,1.355c3.526,0,6.968-1.861,8.857-5.162
	C397.237,340.573,395.534,334.344,390.67,331.548z"/>
<path fill="#0B2F47" d="M331.501,297.791l-23.646-13.516c-4.911-2.797-11.15-1.075-13.955,3.807
	c-2.77,4.901-1.086,11.14,3.824,13.937l23.646,13.507c1.6,0.917,3.339,1.347,5.06,1.347c3.563,0,6.987-1.852,8.886-5.163
	C338.123,306.817,336.411,300.569,331.501,297.791z"/>
<path fill="#0B2F47" d="M151.166,284.677l-23.813,13.169c-4.958,2.741-6.753,8.961-4.003,13.881c1.852,3.367,5.35,5.275,8.942,5.275
	c1.665,0,3.376-0.412,4.929-1.271l23.823-13.189c4.957-2.73,6.744-8.941,4.013-13.889
	C162.316,283.733,156.095,281.936,151.166,284.677z"/>
<path fill="#0095D7" d="M452.974,67.163c0-25.179-20.484-45.645-45.663-45.645c-25.143,0-45.636,20.465-45.636,45.645
	c0,8.035,2.104,15.555,5.752,22.13L263.323,198.541c-9.438-5.733-20.493-9.063-32.307-9.063c-34.58,0-62.715,28.126-62.715,62.696
	c0,34.561,28.135,62.696,62.715,62.696c0.646,0,1.234-0.074,1.889-0.094l23.252,91.271c-12.982,8.053-21.718,22.41-21.718,38.798
	c0,25.171,20.494,45.636,45.654,45.636c25.151,0,45.636-20.465,45.636-45.636c0-24.337-19.156-44.223-43.166-45.514l-23.271-91.28
	c20.391-10.345,34.421-31.483,34.421-55.877c0-12.898-3.91-24.908-10.626-34.879L387.2,108.056
	c6.07,3.021,12.898,4.751,20.129,4.751C432.49,112.808,452.974,92.333,452.974,67.163z M261.687,427.738
	c4.611-4.957,11.112-8.109,18.397-8.109c2.807,0,5.473,0.571,7.998,1.422c9.971,3.367,17.229,12.692,17.229,23.786
	c0,13.908-11.336,25.217-25.227,25.217c-13.88,0-25.217-11.309-25.217-25.217C254.867,438.223,257.487,432.247,261.687,427.738z
	 M265.493,260.115c-1.59,6.894-5.173,13.001-10.148,17.726c-0.964,0.926-2.021,1.748-3.087,2.572
	c-5.948,4.479-13.263,7.229-21.241,7.229c-1.768,0-3.461-0.271-5.145-0.515c-7.548-1.113-14.348-4.508-19.577-9.587
	c-4.892-4.78-8.418-10.944-9.915-17.874c-0.533-2.414-0.842-4.911-0.842-7.483c0-9.877,4.115-18.828,10.644-25.264
	c4.751-4.667,10.785-8.016,17.547-9.438c2.348-0.486,4.789-0.748,7.287-0.748c4.471,0,8.708,0.917,12.646,2.432
	c8.82,3.396,15.947,10.148,19.773,18.754c1.936,4.368,3.03,9.185,3.03,14.264C266.476,254.915,266.092,257.544,265.493,260.115z
	 M407.311,92.38c-1.609,0-3.199-0.188-4.742-0.496c-9.7-1.842-17.37-9.288-19.68-18.819c-0.486-1.908-0.776-3.873-0.776-5.902
	c0-13.899,11.308-25.226,25.198-25.226c13.908,0,25.217,11.327,25.217,25.226C432.528,81.072,421.219,92.38,407.311,92.38z"/>
</svg>
