<?xml version="1.0" encoding="utf-8"?>
<!-- Generator: Adobe Illustrator 18.1.0, SVG Export Plug-In . SVG Version: 6.00 Build 0)  -->
<!DOCTYPE svg PUBLIC "-//W3C//DTD SVG 1.1//EN" "http://www.w3.org/Graphics/SVG/1.1/DTD/svg11.dtd">
<svg version="1.1" id="Calque_1" xmlns="http://www.w3.org/2000/svg" xmlns:xlink="http://www.w3.org/1999/xlink" x="0px" y="0px"
	 viewBox="0 0 512 512" enable-background="new 0 0 512 512" xml:space="preserve">
<g>
	<g id="shape_x5F_two" transform="translate(-73.767999,-467.76506)">
		<g id="global_x5F_two_x5F_grp" transform="matrix(0.8715162,0,0,0.8715162,-707.5571,84.547171)">
			<path id="path18" fill="#0B2F47" stroke="#224E6B" d="M1262.6,698.8l-92.6,11.1L1350.1,513L1262.6,698.8z"/>
			<path id="path17" fill="#224E6B" stroke="#224E6B" d="M1427.6,779.6l-162.8-81.2l86.4-185.1L1427.6,779.6z"/>
			<path id="path16" fill="#112732" stroke="#224E6B" d="M1425.1,779.6l-253.2-68l91.7-12.1L1425.1,779.6z"/>
			<path id="path15" fill="#112732" stroke="#112732" d="M1427.7,781.4L1169.5,712l1.5-2.2l256.6,69.4L1427.7,781.4z"/>
			<path id="path14" fill="#224E6B" stroke="#224E6B" d="M1168.6,709.5L1350,512.8c1.1-1.2,3.7,0.4,2,2.3L1170.9,712L1168.6,709.5z"
				/>
			<path id="path13" fill="#0B2F47" stroke="#0B2F47" d="M1260.6,697.3l1.5-0.4l87.7-183.1l2.3,1.1c0,0-64.4,137.4-86.3,184
				c-0.5,1.2-1,3.2-3.2,2.2C1259.5,699.6,1260.7,699,1260.6,697.3z"/>
			<path id="path12" fill="#0B2F47" stroke="#0B2F47" d="M1430.4,780.2l-77.7-267c-0.5-1.7-3.6-1.6-2.8,0.9l77.4,266.7L1430.4,780.2
				z"/>
			<path id="path11" fill="#0B2F47" stroke="#0B2F47" stroke-width="1.391" d="M1266.1,698.9c-0.5,1.8-1.3,2.5-2.1,2.6l163,79.6
				c3.1,1.4,5.1-0.6,1.4-2.7C1424.9,776.5,1266.1,698.9,1266.1,698.9z"/>
			<path id="path10" fill="#0B2F47" stroke="#0B2F47" d="M1262,701c-1.7-1.1-1.1-2.7-0.4-4.2l-92.2,12.1c-1.7,0.3-1.7,3.1,0.4,3.1
				C1171.7,712.1,1262,701,1262,701z"/>
		</g>
	</g>
	<g id="shape_x5F_one" transform="translate(-73.767999,-467.76506)">
		<g id="global_x5F_one_x5F_grp" transform="matrix(0.8715162,0,0,0.8715162,-707.5571,84.547171)">
			<path id="path9" fill="#0B2F47" stroke="#224E6B" d="M1091.8,885.1l-155.7,86.3l176.4-477.6L1091.8,885.1z"/>
			<path id="path8" fill="#0095D7" stroke="#224E6B" d="M1441.5,908.9l-346.3-26.2l19.3-389.2L1441.5,908.9z"/>
			<path id="path7" fill="#112732" stroke="#224E6B" d="M1437.2,910.7l-496.4,62.2l153.4-87.5L1437.2,910.7z"/>
			<path id="path6" fill="#112732" stroke="#112732" d="M1443.1,912.1l-506.4,63.4l1.2-4.9l503.4-62.2L1443.1,912.1z"/>
			<path id="path5" fill="#224E6B" stroke="#224E6B" d="M933.3,971.7L1112,493.4c1.1-3,6.8-2,5.1,2.6l-178,478.4L933.3,971.7z"/>
			<path id="path4" fill="#4DBFF5" stroke="#4DBFF5" d="M1087.1,883.8l2.3-1.8l23-386.7l4.8,0.3c0,0-14.8,289.1-20,387.2
				c-0.1,2.5,0.6,6.3-4.1,6.2C1086.9,888.8,1088.6,886.8,1087.1,883.8z"/>
			<path id="path3" fill="#4DBFF5" stroke="#4DBFF5" d="M1447,908l-329.6-415.8c-2.1-2.6-7.4-0.3-4.3,3.7l329,415.6L1447,908z"/>
			<path id="path2" fill="#4DBFF5" stroke="#4DBFF5" stroke-width="1.391" d="M1098,882.7c0.5,3.6-0.5,5.3-1.8,6.1l345.4,23.3
				c6.5,0.2,8.5-4.7,0.5-5.7C1434.6,905.4,1098,882.7,1098,882.7z"/>
			<path id="path1" fill="#224E6B" stroke="#224E6B" d="M1092.4,889.4c-3.7-0.8-3.8-4-3.8-7l-154.2,87.9c-2.7,1.8-0.8,6.8,2.9,5.2
				C940.8,974,1092.4,889.4,1092.4,889.4z"/>
		</g>
	</g>
</g>
</svg>
