<?xml version="1.0" encoding="utf-8"?>
<!-- Generator: Adobe Illustrator 19.2.1, SVG Export Plug-In . SVG Version: 6.00 Build 0)  -->
<svg version="1.1" id="Calque_1" xmlns="http://www.w3.org/2000/svg" xmlns:xlink="http://www.w3.org/1999/xlink" x="0px" y="0px"
	 viewBox="0 0 490 490" style="enable-background:new 0 0 490 490;" xml:space="preserve">
<style type="text/css">
	.st0{fill:#666666;}
	.st1{fill:#FFFFFF;}
	.st2{fill:#4DBFF5;stroke:#666666;stroke-width:17;stroke-miterlimit:10;}
</style>
<g>
	<path class="st0" d="M358.5,48.1H333c1.3-2.7,1.3-6.7,0-9.4C331.6,32,324.9,28,318.2,28H157c-8.1,0-13.4,4-14.8,10.7
		c-1.3,2.7,0,6.7,0,9.4h-25.5c-8.1,0-14.8,6.7-14.8,14.8v299.5c0,8.1,6.7,14.8,14.8,14.8h241.8c8.1,0,14.8-6.7,14.8-14.8V62.9
		C373.2,54.9,366.5,48.1,358.5,48.1z"/>
</g>
<path class="st1" d="M201.3,347.7h-69.8V79h30.9l28.2,69.8c0,1.3,2.7,2.7,4,2.7c0,0,0,0,1.3,0s2.7,0,4-1.3l24.2-26.9L201.3,347.7z"
	/>
<polygon class="st1" points="197.3,136.8 162.4,52.2 226.8,103.2 "/>
<polygon class="st1" points="312.8,52.2 279.2,136.8 248.3,103.2 "/>
<path class="st1" d="M343.7,347.7h-72.5l-21.5-228.3l26.9,29.5c1.3,1.3,2.7,1.3,4,1.3c0,0,0,0,1.3,0s2.7-1.3,4-2.7l28.2-69.8H345
	L343.7,347.7L343.7,347.7z"/>
<g>
	<g id="file-download">
		<path class="st2" d="M319.3,299.2h-46.7v-70.1h-70.1v70.1h-46.8l81.8,81.8L319.3,299.2z M140.7,413.3V441H335v-27.7H140.7z"/>
	</g>
</g>
</svg>
