<?xml version="1.0" encoding="utf-8"?>
<!-- Generator: Adobe Illustrator 16.2.0, SVG Export Plug-In . SVG Version: 6.00 Build 0)  -->
<!DOCTYPE svg PUBLIC "-//W3C//DTD SVG 1.1//EN" "http://www.w3.org/Graphics/SVG/1.1/DTD/svg11.dtd">
<svg version="1.1" id="Calque_1" xmlns="http://www.w3.org/2000/svg" xmlns:xlink="http://www.w3.org/1999/xlink" x="0px" y="0px"
	 width="512px" height="512px" viewBox="0 0 512 512" enable-background="new 0 0 512 512" xml:space="preserve">
<g id="_x31_0">
	<g>
		<path fill="#FFFFFF" d="M153.141,224.41c0.187,2.713,0.597,5.372,1.275,7.931c-3.141,2.666-9.424,7.983-9.424,7.983v11.535
			l16.343,19.302c0,0,9.51,1.12,10.01,0.847c0.505-0.273,1.53-0.847,1.53-0.847s5.978-5.053,8.958-7.584
			c2.527,1.129,5.149,2.076,7.88,2.804c0.309,3.405,0.933,10.179,0.933,10.179l8.157,8.159l25.161-2.296l8.157-8.157
			c0,0-0.793-8.74-1.184-13.111c2.063-1.184,4.037-2.475,5.896-3.896c3.277,1.895,9.823,5.681,9.823,5.681l11.163-2.932
			l12.658-21.887l-2.922-11.162c0,0-8.435-4.879-12.646-7.32c-0.114-2.43-0.374-4.825-0.878-7.155
			c3.335-2.858,10.029-8.594,10.029-8.594v-11.526l-16.48-19.211h-11.543c0,0-5.472,4.698-8.204,7.029
			c-2.963-1.438-6.094-2.613-9.376-3.496c-0.26-3.26-0.792-9.774-0.792-9.774l-8.157-8.157l-25.202,2.048l-8.157,8.157
			c0,0,0.692,8.555,1.024,12.833c-2.467,1.412-4.798,2.996-6.96,4.752c-3.546-1.62-10.646-4.871-10.646-4.871l-11.163,2.933
			l-10.551,23.016l-0.374,1.548l3.3,9.605C140.787,218.775,149.018,222.535,153.141,224.41z M202.624,196.296
			c14.061,0,25.442,11.398,25.442,25.438c0,14.058-11.39,25.447-25.442,25.447c-14.049,0-25.443-11.389-25.443-25.447
			C177.181,207.695,188.575,196.296,202.624,196.296z"/>
		<path fill="#FFFFFF" d="M283.143,257.897c0.072,1.201,0.256,2.385,0.564,3.523c-1.402,1.183-4.197,3.55-4.197,3.55v5.126
			l7.274,8.595c0,0,4.233,0.491,4.461,0.373c0.219-0.128,0.674-0.373,0.674-0.373s2.658-2.258,3.987-3.387
			c1.13,0.51,2.296,0.929,3.515,1.256c0.137,1.512,0.4,4.534,0.4,4.534l3.643,3.625l11.198-1.021l3.624-3.632
			c0,0-0.347-3.889-0.528-5.827c0.919-0.537,1.793-1.101,2.621-1.739c1.447,0.837,4.37,2.53,4.37,2.53l4.973-1.309l5.626-9.743
			l-1.312-4.953c0,0-3.751-2.176-5.635-3.259c-0.047-1.075-0.175-2.149-0.384-3.188c1.484-1.274,4.453-3.823,4.453-3.823v-5.126
			l-7.32-8.549h-5.135c0,0-2.439,2.094-3.651,3.123c-1.319-0.646-2.713-1.166-4.179-1.556c-0.109-1.439-0.346-4.342-0.346-4.342
			l-3.633-3.634l-11.208,0.92l-3.633,3.624c0,0,0.302,3.805,0.456,5.717c-1.092,0.628-2.14,1.338-3.096,2.122
			c-1.574-0.729-4.734-2.166-4.734-2.166l-4.971,1.302l-4.689,10.242l-0.182,0.692l1.475,4.26
			C277.644,255.384,281.285,257.058,283.143,257.897z M305.149,245.387c6.255,0,11.317,5.063,11.317,11.308
			s-5.063,11.325-11.317,11.325c-6.256,0-11.317-5.063-11.317-11.325C293.831,250.45,298.893,245.387,305.149,245.387z"/>
		<path fill="#FFFFFF" d="M334.656,204.18c0.109,1.494,0.328,2.951,0.701,4.371c-1.739,1.474-5.199,4.405-5.199,4.405v6.357
			l9.015,10.643c0,0,5.244,0.609,5.517,0.464c0.273-0.164,0.847-0.464,0.847-0.464s3.305-2.795,4.942-4.18
			c1.386,0.619,2.833,1.147,4.344,1.549c0.173,1.875,0.501,5.607,0.501,5.607l4.506,4.498l13.867-1.275l4.489-4.488
			c0,0-0.429-4.816-0.648-7.219c1.147-0.656,2.241-1.367,3.25-2.149c1.813,1.039,5.418,3.132,5.418,3.132l6.154-1.612l6.993-12.072
			l-1.622-6.145c0,0-4.66-2.695-6.973-4.042c-0.073-1.329-0.211-2.657-0.475-3.951c1.831-1.566,5.518-4.735,5.518-4.735v-6.354
			l-9.085-10.598h-6.373c0,0-3.015,2.586-4.517,3.879c-1.63-0.784-3.351-1.439-5.172-1.93c-0.146-1.794-0.437-5.391-0.437-5.391
			l-4.497-4.493l-13.875,1.124l-4.516,4.499c0,0,0.382,4.715,0.573,7.083c-1.357,0.775-2.631,1.648-3.833,2.622
			c-1.949-0.892-5.872-2.685-5.872-2.685l-6.146,1.61l-5.81,12.692l-0.218,0.855l1.82,5.28
			C327.845,201.067,332.379,203.143,334.656,204.18z M361.95,188.667c7.738,0,14.021,6.282,14.021,14.039
			c0,7.739-6.282,14.021-14.021,14.021c-7.756,0-14.038-6.281-14.038-14.021C347.912,194.949,354.195,188.667,361.95,188.667z"/>
		<path fill="#FFFFFF" d="M28.111,70.456v303.293h164.921v62.447h124.453v-62.447h170.58V70.456H28.111z M441.45,327.135H74.725
			V117.07H441.45V327.135z"/>
		<rect x="126.029" y="437.38" fill="#FFFFFF" width="258.463" height="12.838"/>
	</g>
</g>
</svg>
