<?xml version="1.0" encoding="UTF-8" standalone="no"?>
<!-- Generator: Adobe Illustrator 16.2.0, SVG Export Plug-In . SVG Version: 6.00 Build 0)  -->

<svg
   xmlns:dc="http://purl.org/dc/elements/1.1/"
   xmlns:cc="http://creativecommons.org/ns#"
   xmlns:rdf="http://www.w3.org/1999/02/22-rdf-syntax-ns#"
   xmlns:svg="http://www.w3.org/2000/svg"
   xmlns="http://www.w3.org/2000/svg"
   xmlns:sodipodi="http://sodipodi.sourceforge.net/DTD/sodipodi-0.dtd"
   xmlns:inkscape="http://www.inkscape.org/namespaces/inkscape"
   version="1.1"
   id="Calque_1"
   x="0px"
   y="0px"
   width="32px"
   height="32px"
   viewBox="0 0 32 32"
   enable-background="new 0 0 32 32"
   xml:space="preserve"
   inkscape:version="0.48.4 r9939"
   sodipodi:docname="d-file-up.svg"><metadata
     id="metadata3066"><rdf:RDF><cc:Work
         rdf:about=""><dc:format>image/svg+xml</dc:format><dc:type
           rdf:resource="http://purl.org/dc/dcmitype/StillImage" /><dc:title></dc:title></cc:Work></rdf:RDF></metadata><defs
     id="defs3064"><marker
       inkscape:stockid="Tail"
       orient="auto"
       refY="0.0"
       refX="0.0"
       id="Tail"
       style="overflow:visible"><g
         id="g3888"
         transform="scale(-1.2)"><path
           id="path3890"
           d="M -3.8048674,-3.9585227 L 0.54352094,0"
           style="fill:none;fill-rule:evenodd;stroke:#000000;stroke-width:0.8;stroke-linecap:round" /><path
           id="path3892"
           d="M -1.2866832,-3.9585227 L 3.0617053,0"
           style="fill:none;fill-rule:evenodd;stroke:#000000;stroke-width:0.8;stroke-linecap:round" /><path
           id="path3894"
           d="M 1.3053582,-3.9585227 L 5.6537466,0"
           style="fill:none;fill-rule:evenodd;stroke:#000000;stroke-width:0.8;stroke-linecap:round" /><path
           id="path3896"
           d="M -3.8048674,4.1775838 L 0.54352094,0.21974226"
           style="fill:none;fill-rule:evenodd;stroke:#000000;stroke-width:0.8;stroke-linecap:round" /><path
           id="path3898"
           d="M -1.2866832,4.1775838 L 3.0617053,0.21974226"
           style="fill:none;fill-rule:evenodd;stroke:#000000;stroke-width:0.8;stroke-linecap:round" /><path
           id="path3900"
           d="M 1.3053582,4.1775838 L 5.6537466,0.21974226"
           style="fill:none;fill-rule:evenodd;stroke:#000000;stroke-width:0.8;stroke-linecap:round" /></g></marker><marker
       inkscape:stockid="Arrow1Sstart"
       orient="auto"
       refY="0.0"
       refX="0.0"
       id="Arrow1Sstart"
       style="overflow:visible"><path
         id="path3864"
         d="M 0.0,0.0 L 5.0,-5.0 L -12.5,0.0 L 5.0,5.0 L 0.0,0.0 z "
         style="fill-rule:evenodd;stroke:#000000;stroke-width:1.0pt"
         transform="scale(0.2) translate(6,0)" /></marker><marker
       inkscape:stockid="Arrow1Mstart"
       orient="auto"
       refY="0.0"
       refX="0.0"
       id="Arrow1Mstart"
       style="overflow:visible"><path
         id="path3858"
         d="M 0.0,0.0 L 5.0,-5.0 L -12.5,0.0 L 5.0,5.0 L 0.0,0.0 z "
         style="fill-rule:evenodd;stroke:#000000;stroke-width:1.0pt"
         transform="scale(0.4) translate(10,0)" /></marker><marker
       inkscape:stockid="Arrow1Lstart"
       orient="auto"
       refY="0.0"
       refX="0.0"
       id="Arrow1Lstart"
       style="overflow:visible"><path
         id="path3852"
         d="M 0.0,0.0 L 5.0,-5.0 L -12.5,0.0 L 5.0,5.0 L 0.0,0.0 z "
         style="fill-rule:evenodd;stroke:#000000;stroke-width:1.0pt"
         transform="scale(0.8) translate(12.5,0)" /></marker><marker
       inkscape:stockid="Arrow2Lend"
       orient="auto"
       refY="0.0"
       refX="0.0"
       id="Arrow2Lend"
       style="overflow:visible;"><path
         id="path3873"
         style="fill-rule:evenodd;stroke-width:0.62500000;stroke-linejoin:round;"
         d="M 8.7185878,4.0337352 L -2.2072895,0.016013256 L 8.7185884,-4.0017078 C 6.9730900,-1.6296469 6.9831476,1.6157441 8.7185878,4.0337352 z "
         transform="scale(1.1) rotate(180) translate(1,0)" /></marker><marker
       inkscape:stockid="Arrow2Lstart"
       orient="auto"
       refY="0.0"
       refX="0.0"
       id="Arrow2Lstart"
       style="overflow:visible"><path
         id="path3870"
         style="fill-rule:evenodd;stroke-width:0.62500000;stroke-linejoin:round"
         d="M 8.7185878,4.0337352 L -2.2072895,0.016013256 L 8.7185884,-4.0017078 C 6.9730900,-1.6296469 6.9831476,1.6157441 8.7185878,4.0337352 z "
         transform="scale(1.1) translate(1,0)" /></marker><filter
       id="filter9694"
       style="color-interpolation-filters:sRGB;"
       inkscape:label="Drop Shadow"><feFlood
         id="feFlood9696"
         flood-opacity="0.2"
         flood-color="rgb(0,0,0)"
         result="flood" /><feComposite
         id="feComposite9698"
         in2="SourceGraphic"
         in="flood"
         operator="in"
         result="composite1" /><feOffset
         id="feOffset9700"
         dx="0"
         dy="2"
         result="offset" /><feComposite
         id="feComposite9702"
         in2="offset"
         in="SourceGraphic"
         operator="over"
         result="composite2" /></filter></defs><sodipodi:namedview
     pagecolor="#ffffff"
     bordercolor="#666666"
     borderopacity="1"
     objecttolerance="10"
     gridtolerance="10"
     guidetolerance="10"
     inkscape:pageopacity="0"
     inkscape:pageshadow="2"
     inkscape:window-width="1920"
     inkscape:window-height="1056"
     id="namedview3062"
     showgrid="false"
     inkscape:zoom="28.40625"
     inkscape:cx="10.839952"
     inkscape:cy="12.256724"
     inkscape:window-x="1920"
     inkscape:window-y="24"
     inkscape:window-maximized="1"
     inkscape:current-layer="Calque_1" /><path
     id="Background"
     d="M 28.667,4.6747085 H 12.845 v -0.657 c 0,-0.871 -0.707,-1.577 -1.578,-1.577 H 3.333 c -0.872,0 -1.578,0.706 -1.578,1.577 v 2.235 0.307 19.5919995 c 0,0.871 0.706,1.578 1.578,1.578 h 25.333 c 0.872,0 1.578,-0.707 1.578,-1.578 V 6.2527085 c 0.001,-0.871 -0.705,-1.578 -1.577,-1.578 z"
     inkscape:connector-curvature="0"
     style="fill:#d17e11" /><rect
     id="Feuille"
     x="3.3770001"
     y="6.6907086"
     width="25.247"
     height="19.723"
     style="fill:#ffffff" /><path
     d="M 23.891,7.7877085 H 3.379 c -0.872,0 -1.58,0.706 -1.58,1.578 V 26.152708 c 0,0.871 0.708,1.578 1.58,1.578 h 25.242 c 0.872,0 1.58,-0.707 1.58,-1.578 v -12.054 l -6.31,-6.3109995 z"
     id="path3054"
     inkscape:connector-curvature="0"
     style="fill:#efab11" /><polygon
     points="23.861,14.897 23.904,14.897 23.846,14.84 23.846,8.703 17.563,8.703 17.49,8.703 11.222,8.703 17.563,14.897 17.522,14.897 23.861,21.091 23.861,21.143 30.201,27.288 30.201,21.143 23.861,14.999 "
     id="polygon3056"
     transform="translate(0,-0.91529153)"
     style="fill:#d88b0f" /><polygon
     points="30.201,21.413 30.201,15.059 23.846,15.059 "
     id="polygon3058"
     transform="translate(0,-0.91529153)"
     style="fill:#b77e1a" /><polyline
     points="23.846,8.703 23.846,15.059 30.201,15.059 "
     id="polyline3060"
     transform="translate(0,-0.91529153)"
     style="fill:#f2c144" /><g
     id="g9793"
     style="fill:#9a5200;fill-opacity:1"><rect
       y="17.918592"
       x="7.4279428"
       height="14.046205"
       width="10.173818"
       id="rect9789"
       style="fill:#9a5200;fill-opacity:1;stroke:none" /><path
       transform="matrix(1.138062,0,0,0.75197563,-2.4562643,6.1812897)"
       inkscape:transform-center-y="-1.8265811"
       d="m 13.20132,6.5478554 4.207226,7.2871286 4.207225,7.287128 -8.414451,10e-7 -8.4144516,-10e-7 4.2072253,-7.287128 z"
       inkscape:randomized="0"
       inkscape:rounded="0"
       inkscape:flatsided="false"
       sodipodi:arg2="-0.52359878"
       sodipodi:arg1="-1.5707963"
       sodipodi:r2="4.8580861"
       sodipodi:r1="9.7161713"
       sodipodi:cy="16.264027"
       sodipodi:cx="13.20132"
       sodipodi:sides="3"
       id="path9791"
       style="fill:#9a5200;fill-opacity:1;stroke:none"
       sodipodi:type="star" /></g></svg>