<?xml version="1.0" encoding="utf-8"?>
<!-- Generator: Adobe Illustrator 16.2.0, SVG Export Plug-In . SVG Version: 6.00 Build 0)  -->
<!DOCTYPE svg PUBLIC "-//W3C//DTD SVG 1.1//EN" "http://www.w3.org/Graphics/SVG/1.1/DTD/svg11.dtd">
<svg version="1.1" id="Calque_1" xmlns="http://www.w3.org/2000/svg" xmlns:xlink="http://www.w3.org/1999/xlink" x="0px" y="0px"
	 width="512px" height="512px" viewBox="0 0 512 512" enable-background="new 0 0 512 512" xml:space="preserve">
<path fill="#82B9C5" d="M443.934,139.252v1.413v0.053L328.644,25.408h0.035l-0.035-0.053H122.334
	c-29.979,0-54.27,24.734-54.27,55.216v350.831c0,30.525,24.291,55.241,54.27,55.241h267.33c29.943,0,54.271-24.716,54.271-55.241
	L443.934,139.252L443.934,139.252z"/>
<polygon fill="#6D9A9E" points="328.644,140.701 443.934,256.009 443.934,140.701 "/>
<polygon fill="#9AD5E2" points="443.934,140.665 328.644,25.356 328.644,140.665 "/>
<g>
	<g>
		<polygon fill="#FFFFFF" points="309.674,339.867 319.576,360.374 354.373,360.374 335.095,319.819 		"/>
		<path fill="#FFFFFF" d="M344.219,267.261c-2.74,2.153-5.705,4.5-8.591,6.782l7.038,22.097c0.079,0.244,0.132,0.495,0.201,0.744
			l51.974-42.18h-12.633C367.367,254.704,354.615,259.084,344.219,267.261z"/>
	</g>
	<path fill="#FFFFFF" d="M337.142,297.899l-34.541-108.447c-1.812-5.68-8.165-10.334-14.136-10.334h-77.733
		c-5.967,0-8.758,4.421-6.197,9.806l51.914,109.511c2.561,5.387,0.848,12.864-3.794,16.608l-141.883,114.54
		c-4.64,3.743-3.554,6.802,2.41,6.802h53.865c5.964,0,14.672-3.011,19.358-6.707l145.516-114.737
		C336.602,311.252,338.952,303.593,337.142,297.899z M304.552,329.939l-3.124-6.328c-1.337-2.861-5.842-11.55-4.203-16.055
		c1.529-4.202,3.914-6.686,7.453-9.552c0,0,4.807-3.726,11.199-8.687c-6.651,6.727-13.646,14.601-14.924,19.126
		C299.892,312.201,302.31,322.165,304.552,329.939z"/>
</g>
</svg>
