<?xml version="1.0" encoding="utf-8"?>
<!-- Generator: Adobe Illustrator 16.2.0, SVG Export Plug-In . SVG Version: 6.00 Build 0)  -->
<!DOCTYPE svg PUBLIC "-//W3C//DTD SVG 1.1//EN" "http://www.w3.org/Graphics/SVG/1.1/DTD/svg11.dtd">
<svg version="1.1" id="Calque_1" xmlns="http://www.w3.org/2000/svg" xmlns:xlink="http://www.w3.org/1999/xlink" x="0px" y="0px"
	 width="512px" height="512px" viewBox="0 0 512 512" enable-background="new 0 0 512 512" xml:space="preserve">
<path id="dashboard-5-icon" fill="#8499AE" d="M393.7,260.194c-2.425-7.329-5.399-14.488-8.861-21.32l-42.122,18.99
	c3.721,6.752,6.695,13.905,8.87,21.316L393.7,260.194z M177.864,244.682c4.654-6.067,9.948-11.58,15.771-16.431l-32.441-33.791
	c-5.636,5.04-10.932,10.557-15.771,16.43L177.864,244.682z M207.291,218.688c6.513-3.792,13.414-6.81,20.564-8.989l-17.744-44.088
	c-7.045,2.433-13.947,5.453-20.563,8.992L207.291,218.688z M159.935,280.747c2.064-7.466,4.933-14.667,8.542-21.464l-42.396-18.298
	c-3.373,6.915-6.242,14.118-8.549,21.46L159.935,280.747z M321.896,174.324c-6.64-3.516-13.556-6.506-20.599-8.908l-17.575,44.166
	c7.163,2.151,14.076,5.14,20.602,8.9L321.896,174.324z M366.535,210.89c-4.837-5.873-10.134-11.39-15.771-16.43l-32.44,33.791
	c5.824,4.851,11.116,10.361,15.771,16.431L366.535,210.89z M267.133,158.372c-3.763-0.299-7.506-0.449-11.152-0.449
	c-3.646,0-7.39,0.15-11.149,0.449v47.785c3.701-0.43,7.441-0.646,11.149-0.646s7.45,0.216,11.152,0.646V158.372z M256,394.961
	c-22.214,0-40.225-18.01-40.225-40.224c0-15.16,8.393-28.356,20.778-35.213L256,228.389l19.442,91.136
	c12.39,6.854,20.779,20.053,20.779,35.213C296.224,376.951,278.214,394.961,256,394.961z M77.64,404.487
	C60.07,374.175,50,338.998,50,301.512c0-113.591,92.411-206,206-206s206,92.409,206,206c0,37.484-10.07,72.661-27.642,102.977
	l-34.733-20.054c14.146-24.41,22.258-52.737,22.258-82.923c0-91.471-74.414-165.886-165.883-165.886
	c-91.471,0-165.883,74.415-165.883,165.886c0,30.186,8.107,58.513,22.257,82.923L77.64,404.487z"/>
</svg>
