<?xml version="1.0" encoding="utf-8"?>
<!-- Generator: Adobe Illustrator 19.2.1, SVG Export Plug-In . SVG Version: 6.00 Build 0)  -->
<svg version="1.1" id="Calque_1" xmlns="http://www.w3.org/2000/svg" xmlns:xlink="http://www.w3.org/1999/xlink" x="0px" y="0px"
	 viewBox="0 0 24 24" style="enable-background:new 0 0 24 24;" xml:space="preserve">
<style type="text/css">
	.st0{fill:#666666;}
	.st1{fill:#FFFFFF;}
	.st2{fill:#4DBFF5;stroke:#666666;stroke-miterlimit:10;}
</style>
<path class="st0" d="M11.7,3.3v3.3H15v9.8H4.5V3.3H11.7z M12.4,2H3.2v15.7h13.1V5.9L12.4,2z"/>
<g>
	<path class="st0" d="M17,6.8H8.1V22h12.7V10.6L17,6.8z M17,8.7l1.9,1.9H17V8.7z M9.4,20.7V8.1h6.3v3.8h3.8v8.9H9.4z"/>
	<polygon class="st1" points="9.4,20.7 9.4,8.1 15.7,8.1 15.7,11.9 19.5,11.9 19.5,20.7 	"/>
	<polygon class="st1" points="17,8.7 18.9,10.6 17,10.6 	"/>
	<polygon class="st2" points="17.2,15.2 14.8,15.2 14.8,12.9 13.2,12.9 13.2,15.2 10.9,15.2 10.9,16.8 13.2,16.8 13.2,19.2 
		14.8,19.2 14.8,16.8 17.2,16.8 	"/>
</g>
</svg>
