<?xml version="1.0" encoding="utf-8"?>
<!-- Generator: Adobe Illustrator 18.1.0, SVG Export Plug-In . SVG Version: 6.00 Build 0)  -->
<!DOCTYPE svg PUBLIC "-//W3C//DTD SVG 1.1//EN" "http://www.w3.org/Graphics/SVG/1.1/DTD/svg11.dtd">
<svg version="1.1" id="Calque_1" xmlns="http://www.w3.org/2000/svg" xmlns:xlink="http://www.w3.org/1999/xlink" x="0px" y="0px"
	 viewBox="199 -229 512 512" enable-background="new 199 -229 512 512" xml:space="preserve">
<g>
	<rect x="398.5" y="42.8" fill="#FFFFFF" width="167" height="30"/>
	<rect x="398.5" y="113.8" fill="#FFFFFF" width="167" height="30"/>
	<rect x="398.5" y="-22.6" fill="#FFFFFF" width="167" height="30"/>
	<rect x="398.5" y="-87.9" fill="#FFFFFF" width="167" height="30"/>
	<path fill="#FFFFFF" d="M365-177h-90.7v412H365h275v-412H365z M320,133.9c-10.9,0-19.7-8.8-19.7-19.7c0-10.9,8.8-19.7,19.7-19.7
		c10.9,0,19.7,8.8,19.7,19.7C339.8,125.1,330.9,133.9,320,133.9z M320-34.1c-10.9,0-19.7-8.8-19.7-19.7s8.8-19.7,19.7-19.7
		c10.9,0,19.7,8.8,19.7,19.7C339.8-42.9,330.9-34.1,320-34.1z M597,196H360.7v-334H597V196z"/>
</g>
</svg>
