<?xml version="1.0" encoding="utf-8"?>
<!-- Generator: Adobe Illustrator 16.2.0, SVG Export Plug-In . SVG Version: 6.00 Build 0)  -->
<!DOCTYPE svg PUBLIC "-//W3C//DTD SVG 1.1//EN" "http://www.w3.org/Graphics/SVG/1.1/DTD/svg11.dtd">
<svg version="1.1" id="Calque_1" xmlns="http://www.w3.org/2000/svg" xmlns:xlink="http://www.w3.org/1999/xlink" x="0px" y="0px"
	 width="512px" height="512px" viewBox="0 0 512 512" enable-background="new 0 0 512 512" xml:space="preserve">
<path fill="#2A5699" d="M430.333,364.354v-1.304v-0.05l-107.05,107.104h0.05l-0.05,0.049H131.741
	c-27.82,0-50.391-22.966-50.391-51.29V92.956c0-28.34,22.571-51.299,50.391-51.299h248.216c27.82,0,50.393,22.959,50.393,51.299
	v271.383L430.333,364.354z"/>
<polygon fill="#1D3B60" points="216.382,470.154 323.432,363.051 323.432,470.154 "/>
<polygon fill="#A0C2E8" points="430.333,363.051 323.283,470.154 323.283,363.051 "/>
<g>
	<path fill="#1C3A5F" d="M365.088,156.732L323.82,312.876h-38.982L258.924,212.7c-1.381-5.227-2.217-11.069-2.506-17.531h-0.436
		c-0.652,7.115-1.598,12.958-2.83,17.531l-26.568,100.176h-40.615l-41.05-156.144h38.437l21.995,103.986
		c0.942,4.43,1.633,10.383,2.069,17.857h0.653c0.289-5.588,1.344-11.686,3.158-18.293l28.311-103.551h37.676l25.588,104.857
		c0.941,3.85,1.777,9.438,2.504,16.77h0.436c0.289-5.734,1.051-11.543,2.287-17.422l21.559-104.205H365.088z"/>
	<path fill="#FFFFFF" d="M363.691,154.898l-41.268,156.144h-38.982l-25.914-100.176c-1.38-5.227-2.216-11.069-2.505-17.531h-0.436
		c-0.652,7.115-1.598,12.958-2.83,17.531l-26.568,100.176h-40.615l-41.05-156.144h38.437l21.995,103.986
		c0.942,4.43,1.633,10.383,2.069,17.857h0.653c0.289-5.588,1.344-11.686,3.158-18.293l28.311-103.551h37.675l25.588,104.857
		c0.941,3.85,1.777,9.438,2.504,16.77h0.436c0.289-5.734,1.051-11.543,2.287-17.422l21.559-104.205H363.691z"/>
</g>
</svg>
