<?xml version="1.0" encoding="utf-8"?>
<!-- Generator: Adobe Illustrator 16.2.0, SVG Export Plug-In . SVG Version: 6.00 Build 0)  -->
<!DOCTYPE svg PUBLIC "-//W3C//DTD SVG 1.1//EN" "http://www.w3.org/Graphics/SVG/1.1/DTD/svg11.dtd">
<svg version="1.1" id="Calque_1" xmlns="http://www.w3.org/2000/svg" xmlns:xlink="http://www.w3.org/1999/xlink" x="0px" y="0px"
	 width="512px" height="512px" viewBox="0 0 512 512" enable-background="new 0 0 512 512" xml:space="preserve">
<path fill="#47264F" d="M381.457,42.751H133.241c-27.82,0-50.391,22.959-50.391,51.299v325.908c0,28.324,22.571,51.29,50.391,51.29
	h191.542l0.05-0.049h-0.05l44.598-44.62h-8.519v-42.431h38.165v12.769l32.806-32.822v0.05v1.304l0.017-0.016V94.051
	C431.85,65.71,409.277,42.751,381.457,42.751z M156.894,426.58L156.894,426.58h-38.166v-42.431h38.166V426.58z M156.894,352.573
	L156.894,352.573h-38.166v-42.431h38.166V352.573z M156.894,278.213L156.894,278.213h-38.166v-42.429h38.166V278.213z
	 M156.894,204.561L156.894,204.561h-38.166V162.13h38.166V204.561z M156.894,130.552L156.894,130.552h-38.166V88.123h38.166V130.552
	z M326.511,426.58H191.244V278.566h135.267V426.58z M326.511,236.136H191.244V88.123h135.267V236.136z M399.027,352.573h-38.165
	v-42.431h38.165V352.573z M399.027,278.213h-38.165v-42.429h38.165V278.213z M399.027,204.561h-38.165V162.13h38.165V204.561z
	 M399.027,130.552h-38.165V88.123h38.165V130.552z"/>
<polygon fill="#47264F" points="431.833,364.146 324.783,471.249 324.783,364.146 "/>
<path fill="#9961A5" d="M379.957,41.657H131.741c-27.82,0-50.391,22.959-50.391,51.299v325.908c0,28.324,22.571,51.29,50.391,51.29
	h191.542l0.05-0.049h-0.05l44.598-44.62h-8.519v-42.431h38.165v12.769l32.806-32.822v0.05v1.304l0.017-0.016V92.956
	C430.35,64.616,407.777,41.657,379.957,41.657z M155.394,425.485L155.394,425.485h-38.166v-42.431h38.166V425.485z M155.394,351.479
	L155.394,351.479h-38.166v-42.431h38.166V351.479z M155.394,277.118L155.394,277.118h-38.166v-42.429h38.166V277.118z
	 M155.394,203.466L155.394,203.466h-38.166v-42.431h38.166V203.466z M155.394,129.458L155.394,129.458h-38.166V87.028h38.166
	V129.458z M325.011,425.485H189.744V277.472h135.267V425.485z M325.011,235.042H189.744V87.028h135.267V235.042z M397.527,351.479
	h-38.165v-42.431h38.165V351.479z M397.527,277.118h-38.165v-42.429h38.165V277.118z M397.527,203.466h-38.165v-42.431h38.165
	V203.466z M397.527,129.458h-38.165V87.028h38.165V129.458z"/>
<polygon fill="#CFA3CC" points="430.333,363.051 323.283,470.154 323.283,363.051 "/>
<polygon fill="#603268" points="261.028,425.485 216.382,470.154 323.432,470.154 323.432,425.485 "/>
</svg>
