<?xml version="1.0" encoding="utf-8"?>
<!-- Generator: Adobe Illustrator 16.2.0, SVG Export Plug-In . SVG Version: 6.00 Build 0)  -->
<!DOCTYPE svg PUBLIC "-//W3C//DTD SVG 1.1//EN" "http://www.w3.org/Graphics/SVG/1.1/DTD/svg11.dtd">
<svg version="1.1" id="Calque_1" xmlns="http://www.w3.org/2000/svg" xmlns:xlink="http://www.w3.org/1999/xlink" x="0px" y="0px"
	 width="512px" height="512px" viewBox="0 0 512 512" enable-background="new 0 0 512 512" xml:space="preserve">
<path fill="#DC5A12" d="M430.334,364.354v-1.304V363L323.283,470.104h0.05l-0.05,0.049H131.741c-27.82,0-50.391-22.966-50.391-51.29
	V92.956c0-28.34,22.57-51.299,50.391-51.299h248.216c27.82,0,50.394,22.959,50.394,51.299v271.383L430.334,364.354z"/>
<polygon fill="#D14526" points="216.382,470.154 323.432,363.051 323.432,470.154 "/>
<polygon fill="#EC662E" points="430.334,363.051 323.283,470.154 323.283,363.051 "/>
<g enable-background="new    ">
	<path fill="#D14526" d="M243.288,260.003v53.79h-35.17V157.65h55.097c39.344,0,59.017,16.588,59.017,49.761
		c0,15.68-5.646,28.365-16.932,38.057c-11.288,9.69-26.37,14.536-45.243,14.536H243.288z M243.288,184.654v48.673h13.829
		c18.729,0,28.093-8.203,28.093-24.609c0-16.042-9.364-24.063-28.093-24.063H243.288z"/>
	<path fill="#FFFFFF" d="M241.892,258.169v53.79h-35.17V155.816h55.096c39.344,0,59.018,16.588,59.018,49.761
		c0,15.68-5.646,28.365-16.932,38.057c-11.289,9.69-26.37,14.536-45.243,14.536H241.892z M241.892,182.82v48.673h13.829
		c18.728,0,28.093-8.203,28.093-24.609c0-16.042-9.365-24.063-28.093-24.063H241.892z"/>
</g>
</svg>
