<?xml version="1.0" encoding="utf-8"?>
<!-- Generator: Adobe Illustrator 16.2.0, SVG Export Plug-In . SVG Version: 6.00 Build 0)  -->
<!DOCTYPE svg PUBLIC "-//W3C//DTD SVG 1.1//EN" "http://www.w3.org/Graphics/SVG/1.1/DTD/svg11.dtd">
<svg version="1.1" id="Calque_1" xmlns="http://www.w3.org/2000/svg" xmlns:xlink="http://www.w3.org/1999/xlink" x="0px" y="0px"
	 width="512px" height="512px" viewBox="0 0 512 512" enable-background="new 0 0 512 512" xml:space="preserve">
<path fill="#BC1818" d="M430.618,363.17v-0.031l-98.851,98.867l-8.815,8.338H131.783c-27.842,0-50.433-22.982-50.433-51.32V92.979
	c0-28.353,22.59-51.322,50.433-51.322h248.434c27.842,0,50.432,22.969,50.432,51.322V363.17H430.618z"/>
<polygon fill="#8A1812" points="216.335,470.313 323.478,363.17 323.478,470.313 "/>
<polygon fill="#E5221E" points="323.478,470.313 430.618,363.17 323.478,363.17 "/>
<path fill="#FFFFFF" d="M384.188,288.471h0.987c1.085,0,2.004-0.328,2.004-1.279c0-0.756-0.462-1.281-1.842-1.281
	c-0.558,0-0.918,0.066-1.149,0.098V288.471L384.188,288.471z M384.188,292.904h-1.442v-7.848c0.785-0.164,1.642-0.23,2.723-0.23
	c1.314,0,1.972,0.23,2.465,0.592c0.492,0.328,0.82,0.951,0.82,1.641c0,0.984-0.689,1.609-1.574,1.904v0.066
	c0.72,0.262,1.115,0.918,1.346,1.871c0.229,1.215,0.361,1.709,0.558,2.004h-1.478c-0.264-0.295-0.426-1.02-0.626-2.07
	c-0.196-0.854-0.719-1.248-1.838-1.248h-0.953V292.904L384.188,292.904z M385.698,296.318c-4.136,0-7.485-3.383-7.485-7.521
	c0-4.137,3.35-7.518,7.485-7.518c4.172,0,7.52,3.381,7.52,7.518C393.218,292.936,389.87,296.318,385.698,296.318z M391.708,288.797
	c0-3.314-2.661-6.008-6.01-6.008c-3.313,0-6.009,2.693-6.009,6.008c0,3.318,2.695,6.01,6.009,6.01
	C389.047,294.807,391.708,292.115,391.708,288.797z"/>
<path id="path4463" fill="#FFFFFF" d="M214.348,246.598c7.405-14.497,15.813-30.833,22.543-47.233l0,0l2.657-6.47
	c-8.8-33.459-14.052-60.309-9.357-77.67l0,0c1.28-4.524,6.501-7.272,12.118-7.272l0,0l3.414,0.048h0.622
	c7.686-0.115,11.312,9.646,11.706,13.438l0,0c0.657,6.321-2.248,17.018-2.248,17.018l0,0c0-4.319,0.165-11.295-2.561-17.322l0,0
	c-3.188-6.97-6.205-11.132-8.932-11.795l0,0c-1.345,0.919-2.694,2.814-3.152,6.467l0,0c-0.953,5.123-1.249,11.584-1.249,14.909l0,0
	c0,11.77,2.333,27.309,6.896,43.316l0,0c0.854-2.478,1.608-4.859,2.199-7.091l0,0c0.954-3.521,6.897-26.834,6.897-26.834l0,0
	c0,0-1.511,31.037-3.613,40.412l0,0c-0.428,2.003-0.919,3.974-1.446,5.976l0,0c7.505,20.982,19.622,39.697,34.02,53.176l0,0
	c5.713,5.319,12.903,9.605,19.7,13.512l0,0c14.841-2.119,28.534-3.135,39.929-2.988l0,0c15.167,0.196,26.267,2.43,30.764,6.862l0,0
	c2.169,2.152,3.089,4.744,3.353,7.668l0,0c0.098,1.148-0.46,3.824-0.657,4.482l0,0c0.197-0.805,0.197-4.795-11.986-8.67l0,0
	c-9.554-3.068-27.481-2.971-48.957-0.688l0,0c24.856,12.18,49.087,18.215,56.738,14.568l0,0c1.905-0.885,4.171-4.012,4.171-4.012
	l0,0c0,0-1.347,6.146-2.33,7.691l0,0c-1.25,1.641-3.679,3.479-5.978,4.07l0,0c-12.115,3.252-43.67-4.236-71.187-19.973l0,0
	c-30.717,4.531-64.456,12.879-91.51,21.779l0,0c-26.596,46.592-46.595,68-62.846,59.857l0,0l-5.978-3.02
	c-2.43-1.379-2.807-4.762-2.25-7.52l0,0c1.888-9.293,13.544-23.248,36.892-37.205l0,0c2.51-1.539,13.725-7.453,13.725-7.453l0,0
	c0,0-8.308,8.047-10.245,9.59l0,0c-18.65,15.301-32.41,34.541-32.048,41.963l0,0l0.05,0.658
	C160.056,338.609,183.811,306.365,214.348,246.598 M224.021,251.557c-5.09,9.586-10.081,18.518-14.678,26.703l0,0
	c25.447-10.682,52.882-17.51,78.935-22.354l0,0c-3.513-2.429-6.896-4.974-10.113-7.7l0,0
	c-14.333-12.164-25.316-27.334-33.229-43.309l0,0C239.879,218.474,233.901,232.888,224.021,251.557"/>
</svg>
