<?xml version="1.0" encoding="utf-8"?>
<!-- Generator: Adobe Illustrator 16.2.0, SVG Export Plug-In . SVG Version: 6.00 Build 0)  -->
<!DOCTYPE svg PUBLIC "-//W3C//DTD SVG 1.1//EN" "http://www.w3.org/Graphics/SVG/1.1/DTD/svg11.dtd">
<svg version="1.1" id="Calque_1" xmlns="http://www.w3.org/2000/svg" xmlns:xlink="http://www.w3.org/1999/xlink" x="0px" y="0px"
	 width="512px" height="512px" viewBox="0 0 512 512" enable-background="new 0 0 512 512" xml:space="preserve">
<g>
	<g opacity="0.75">
		<path fill="#161617" d="M430.94,363.711v-0.032L325.036,469.581l-1.759,1.397H131.799c-27.873,0-50.485-22.993-50.485-51.359
			V93.23c0-28.381,22.612-51.374,50.485-51.374h248.688c27.875,0,50.488,22.993,50.488,51.374v270.48L430.94,363.711L430.94,363.711
			z"/>
	</g>
	<g>
		<path fill="#969797" d="M430.843,363.511v-0.032L324.937,469.383l-1.759,1.396H131.699c-27.873,0-50.487-22.993-50.487-51.357
			V93.03c0-28.381,22.614-51.374,50.487-51.374h248.688c27.875,0,50.487,22.993,50.487,51.374v270.48L430.843,363.511
			L430.843,363.511z"/>
	</g>
</g>
<polygon fill="#6D6D6C" points="216.337,470.78 323.59,363.511 323.59,470.78 "/>
<polygon fill="#D8D9D9" points="430.843,363.511 323.59,470.78 323.59,363.511 "/>
<path id="link-icon_1_" fill="#434342" d="M205.498,203.944c3.954-3.955,8.34-7.216,13.003-9.786
	c25.989-14.327,59.323-6.707,76.028,18.626l-20.215,20.215c-5.799-13.229-20.19-20.75-34.515-17.546
	c-5.392,1.208-10.517,3.896-14.705,8.083L186.34,262.29c-11.765,11.765-11.765,30.908,0.001,42.673
	c11.765,11.765,30.908,11.765,42.672,0l11.947-11.945c10.862,4.309,22.518,6.034,34.016,5.172l-26.367,26.368
	c-22.606,22.605-59.257,22.605-81.862,0c-22.606-22.605-22.607-59.257,0-81.863L205.498,203.944z M267.041,142.4l-26.369,26.37
	c11.499-0.862,23.153,0.863,34.017,5.173l11.947-11.947c11.765-11.765,30.908-11.765,42.673,0c11.766,11.765,11.766,30.908,0,42.674
	l-38.756,38.754c-11.8,11.8-30.973,11.701-42.671,0c-2.729-2.728-5.085-6.124-6.548-9.462l-20.215,20.214
	c2.123,3.222,4.333,6.007,7.167,8.841c7.315,7.316,16.624,12.763,27.332,15.34c13.879,3.342,28.75,1.488,41.527-5.554
	c4.664-2.572,9.048-5.83,13.002-9.784l38.755-38.755c22.605-22.606,22.605-59.256,0.001-81.863
	C326.297,119.795,289.646,119.795,267.041,142.4z"/>
<path id="link-icon" fill="#D8D9D9" d="M202.138,194.406c3.955-3.955,8.34-7.215,13.003-9.786
	c25.989-14.327,59.323-6.706,76.028,18.627l-20.215,20.214c-5.799-13.229-20.19-20.749-34.515-17.545
	c-5.392,1.207-10.517,3.895-14.705,8.083l-38.755,38.754c-11.766,11.764-11.765,30.908,0,42.673
	c11.765,11.766,30.908,11.766,42.672,0l11.948-11.946c10.862,4.309,22.518,6.035,34.016,5.173l-26.368,26.368
	c-22.606,22.605-59.256,22.605-81.862,0c-22.606-22.605-22.607-59.257-0.001-81.864L202.138,194.406z M263.68,132.862l-26.369,26.37
	c11.499-0.862,23.153,0.864,34.016,5.174l11.948-11.948c11.765-11.764,30.907-11.764,42.673,0c11.766,11.766,11.766,30.909,0,42.675
	l-38.756,38.752c-11.8,11.801-30.973,11.702-42.671,0c-2.728-2.728-5.084-6.124-6.548-9.46l-20.214,20.213
	c2.123,3.222,4.332,6.006,7.167,8.841c7.315,7.316,16.624,12.764,27.333,15.34c13.879,3.343,28.75,1.489,41.527-5.554
	c4.664-2.572,9.048-5.83,13.002-9.784l38.755-38.754c22.605-22.606,22.605-59.257,0.001-81.863
	C322.937,110.257,286.287,110.257,263.68,132.862z"/>
</svg>
