<?xml version="1.0" encoding="utf-8"?>
<!-- Generator: Adobe Illustrator 16.2.0, SVG Export Plug-In . SVG Version: 6.00 Build 0)  -->
<!DOCTYPE svg PUBLIC "-//W3C//DTD SVG 1.1//EN" "http://www.w3.org/Graphics/SVG/1.1/DTD/svg11.dtd">
<svg version="1.1" id="Calque_1" xmlns="http://www.w3.org/2000/svg" xmlns:xlink="http://www.w3.org/1999/xlink" x="0px" y="0px"
	 width="512px" height="512px" viewBox="0 0 512 512" enable-background="new 0 0 512 512" xml:space="preserve">
<path fill="#37A936" d="M430.333,364.354v-1.304v-0.05l-107.05,107.104h0.05l-0.05,0.049H131.741
	c-27.82,0-50.391-22.966-50.391-51.29V92.956c0-28.34,22.571-51.299,50.391-51.299h248.216c27.82,0,50.393,22.959,50.393,51.299
	v271.383L430.333,364.354z"/>
<polygon fill="#27692E" points="216.382,470.154 323.432,363.051 323.432,470.154 "/>
<polygon fill="#70B73E" points="430.333,363.051 323.283,470.154 323.283,363.051 "/>
<path id="image-file-2-icon" fill="#28692E" d="M131.715,148.736c0-17.458,14.155-31.613,31.616-31.613
	c17.456,0,31.612,14.154,31.612,31.613c0,17.46-14.155,31.614-31.612,31.614C145.872,180.35,131.715,166.198,131.715,148.736z
	 M292.062,153.009l-52.402,74.454l-28.481-29.353l-80.353,108.321h251.18L292.062,153.009z"/>
<path id="image-file-2-icon_1_" fill="#FFFFFF" d="M127.518,146.069c0-17.458,14.155-31.613,31.616-31.613
	c17.456,0,31.612,14.154,31.612,31.613c0,17.46-14.155,31.614-31.612,31.614C141.674,177.683,127.518,163.531,127.518,146.069z
	 M287.864,150.343l-52.402,74.454l-28.481-29.353l-80.353,108.321h251.18L287.864,150.343z"/>
</svg>
