<?xml version="1.0" encoding="utf-8"?>
<!-- Generator: Adobe Illustrator 16.2.0, SVG Export Plug-In . SVG Version: 6.00 Build 0)  -->
<!DOCTYPE svg PUBLIC "-//W3C//DTD SVG 1.1//EN" "http://www.w3.org/Graphics/SVG/1.1/DTD/svg11.dtd">
<svg version="1.1" id="Calque_1" xmlns="http://www.w3.org/2000/svg" xmlns:xlink="http://www.w3.org/1999/xlink" x="0px" y="0px"
	 width="32px" height="32px" viewBox="0 0 32 32" enable-background="new 0 0 32 32" xml:space="preserve">
<path id="Background" fill="#D17E11" d="M28.667,5.59H12.845V4.933c0-0.871-0.707-1.577-1.578-1.577H3.333
	c-0.872,0-1.578,0.706-1.578,1.577v2.235v0.307v19.592c0,0.871,0.706,1.578,1.578,1.578h25.333c0.872,0,1.578-0.707,1.578-1.578
	V7.168C30.245,6.297,29.539,5.59,28.667,5.59z"/>
<rect id="Feuille" x="3.377" y="7.606" fill="#FFFFFF" width="25.247" height="19.723"/>
<path fill="#EFAB11" d="M23.891,8.703H3.379c-0.872,0-1.58,0.706-1.58,1.578v16.787c0,0.871,0.708,1.578,1.58,1.578h25.242
	c0.872,0,1.58-0.707,1.58-1.578V15.014L23.891,8.703z"/>
<polygon fill="#D88B0F" points="23.861,14.999 23.861,14.897 23.904,14.897 23.846,14.84 23.846,8.703 17.563,8.703 17.49,8.703 
	11.222,8.703 17.563,14.897 17.522,14.897 23.861,21.091 23.861,21.143 30.201,27.288 30.201,21.143 "/>
<polygon fill="#B77E1A" points="23.846,15.059 30.201,21.413 30.201,15.059 "/>
<polyline fill="#F2C144" points="23.846,8.703 23.846,15.059 30.201,15.059 "/>
</svg>
