<?xml version="1.0" encoding="utf-8"?>
<!-- Generator: Adobe Illustrator 16.2.0, SVG Export Plug-In . SVG Version: 6.00 Build 0)  -->
<!DOCTYPE svg PUBLIC "-//W3C//DTD SVG 1.1//EN" "http://www.w3.org/Graphics/SVG/1.1/DTD/svg11.dtd">
<svg version="1.1" id="Calque_1" xmlns="http://www.w3.org/2000/svg" xmlns:xlink="http://www.w3.org/1999/xlink" x="0px" y="0px"
	 width="512px" height="512px" viewBox="0 0 512 512" enable-background="new 0 0 512 512" xml:space="preserve">
<path fill="#227647" d="M430.334,364.354v-1.304V363L323.283,470.104h0.05l-0.05,0.049H131.741c-27.82,0-50.391-22.966-50.391-51.29
	V92.956c0-28.34,22.57-51.299,50.391-51.299h248.216c27.82,0,50.394,22.959,50.394,51.299v271.383L430.334,364.354z"/>
<polygon fill="#18512F" points="216.382,470.154 323.432,363.051 323.432,470.154 "/>
<polygon fill="#34A061" points="430.334,363.051 323.283,470.154 323.283,363.051 "/>
<g enable-background="new    ">
	<path fill="#18512F" d="M327.625,313.793h-41.704l-26.896-50.85c-1.018-1.888-2.068-5.372-3.157-10.453h-0.436
		c-0.509,2.395-1.707,6.025-3.593,10.889l-27.004,50.414h-41.921l49.761-78.072L187.16,157.65h42.792l22.322,46.821
		c1.742,3.702,3.302,8.095,4.682,13.176h0.436c0.871-3.049,2.504-7.585,4.9-13.611l24.826-46.386h39.199l-46.822,77.419
		L327.625,313.793z"/>
	<path fill="#FFFFFF" d="M326.228,311.959h-41.703l-26.896-50.85c-1.018-1.888-2.069-5.372-3.158-10.453h-0.436
		c-0.509,2.395-1.707,6.025-3.593,10.889l-27.004,50.414h-41.921l49.761-78.072l-45.515-78.071h42.792l22.322,46.821
		c1.742,3.702,3.302,8.095,4.682,13.176h0.436c0.871-3.049,2.504-7.585,4.9-13.611l24.826-46.386h39.199L278.1,233.235
		L326.228,311.959z"/>
</g>
</svg>
