<?xml version="1.0" encoding="utf-8"?>
<!-- Generator: Adobe Illustrator 16.2.0, SVG Export Plug-In . SVG Version: 6.00 Build 0)  -->
<!DOCTYPE svg PUBLIC "-//W3C//DTD SVG 1.1//EN" "http://www.w3.org/Graphics/SVG/1.1/DTD/svg11.dtd">
<svg version="1.1" id="Calque_1" xmlns="http://www.w3.org/2000/svg" xmlns:xlink="http://www.w3.org/1999/xlink" x="0px" y="0px"
	 width="512px" height="512px" viewBox="0 0 512 512" enable-background="new 0 0 512 512" xml:space="preserve">
<g>
	<g opacity="0.75">
		<path fill="#161617" d="M430.94,363.711v-0.032L325.036,469.583l-1.759,1.397H131.799c-27.873,0-50.487-22.993-50.487-51.359
			V93.23c0-28.381,22.614-51.374,50.487-51.374h248.686c27.875,0,50.488,22.993,50.488,51.374v270.48H430.94z"/>
	</g>
	<g>
		<path fill="#969797" d="M430.841,363.511v-0.032L324.937,469.383l-1.759,1.397H131.699c-27.873,0-50.487-22.993-50.487-51.359
			V93.03c0-28.381,22.614-51.374,50.487-51.374h248.687c27.875,0,50.488,22.993,50.488,51.374v270.48H430.841z"/>
	</g>
</g>
<polygon fill="#6D6D6C" points="216.337,470.78 323.59,363.511 323.59,470.78 "/>
<polygon fill="#D8D9D9" points="430.841,363.511 323.59,470.78 323.59,363.511 "/>
<rect x="142.446" y="152.113" fill="#434342" width="234.77" height="28.383"/>
<rect x="142.446" y="205.739" fill="#434342" width="234.77" height="28.384"/>
<rect x="142.446" y="260.434" fill="#434342" width="234.77" height="28.382"/>
<rect x="138.659" y="147.2" fill="#E2E1E1" width="234.761" height="28.382"/>
<rect x="138.659" y="200.824" fill="#E2E1E1" width="234.761" height="28.385"/>
<rect x="138.659" y="255.519" fill="#E2E1E1" width="234.761" height="28.383"/>
</svg>
