<?xml version="1.0" encoding="utf-8"?>
<!-- Generator: Adobe Illustrator 16.2.0, SVG Export Plug-In . SVG Version: 6.00 Build 0)  -->
<!DOCTYPE svg PUBLIC "-//W3C//DTD SVG 1.1//EN" "http://www.w3.org/Graphics/SVG/1.1/DTD/svg11.dtd">
<svg version="1.1" id="Calque_1" xmlns="http://www.w3.org/2000/svg" xmlns:xlink="http://www.w3.org/1999/xlink" x="0px" y="0px"
	 width="512px" height="512px" viewBox="0 0 512 512" enable-background="new 0 0 512 512" xml:space="preserve">
<path fill="#CFA12A" d="M430.333,364.354v-1.304v-0.05l-107.05,107.104h0.05l-0.05,0.049H131.741
	c-27.82,0-50.391-22.966-50.391-51.29V92.956c0-28.34,22.571-51.299,50.391-51.299h248.216c27.82,0,50.393,22.959,50.393,51.299
	v271.383L430.333,364.354z"/>
<polygon fill="#9D7B22" points="216.382,470.154 323.432,363.051 323.432,470.154 "/>
<polygon fill="#FCE366" points="430.333,363.051 323.283,470.154 323.283,363.051 "/>
<path id="email-icon" fill="#7F641C" d="M207.564,223.303l-72.992-56.07v129.062L207.564,223.303z M383.396,141.167H135.43
	l123.885,95.165L383.396,141.167z M294.038,236.409l-34.734,26.638l-34.79-26.724l-89.639,89.639h248.717L294.038,236.409z
	 M310.999,223.399l73.047,73.046V167.377L310.999,223.399z"/>
<path id="email-icon_1_" fill="#FFFFFF" d="M206.367,221.623l-72.991-56.07v129.062L206.367,221.623z M382.199,139.487H134.233
	l123.884,95.165L382.199,139.487z M292.842,234.729l-34.734,26.639l-34.791-26.724l-89.639,89.638h248.716L292.842,234.729z
	 M309.803,221.719l73.046,73.045V165.697L309.803,221.719z"/>
</svg>
