<?xml version="1.0" encoding="utf-8"?>
<!-- Generator: Adobe Illustrator 16.2.0, SVG Export Plug-In . SVG Version: 6.00 Build 0)  -->
<!DOCTYPE svg PUBLIC "-//W3C//DTD SVG 1.1//EN" "http://www.w3.org/Graphics/SVG/1.1/DTD/svg11.dtd">
<svg version="1.1" id="Calque_1" xmlns="http://www.w3.org/2000/svg" xmlns:xlink="http://www.w3.org/1999/xlink" x="0px" y="0px"
	 width="512px" height="512px" viewBox="0 0 512 512" enable-background="new 0 0 512 512" xml:space="preserve">
<path fill="#227270" d="M430.333,364.354v-1.304v-0.05l-107.05,107.104h0.05l-0.05,0.049H131.741
	c-27.82,0-50.391-22.966-50.391-51.29V92.956c0-28.34,22.571-51.299,50.391-51.299h248.216c27.82,0,50.393,22.959,50.393,51.299
	v271.383L430.333,364.354z"/>
<polygon fill="#123A38" points="216.382,470.154 323.432,363.051 323.432,470.154 "/>
<polygon fill="#37B6B1" points="430.333,363.051 323.283,470.154 323.283,363.051 "/>
<path id="audio-7-icon" fill="#123A38" d="M363.127,104.612l-173.122,37.934V280.5c-34.011-7.07-69.483,24.746-59.439,54.717
	c13.28,39.633,88.115,27.695,88.173-25.76c0.022-22.018,0-108.906,0-108.906l115.473-26.015v86.954
	c-34.014-7.071-69.305,24.75-59.264,54.717c13.282,39.637,88.116,27.699,88.174-25.758
	C363.141,272.004,363.127,104.612,363.127,104.612z"/>
<path id="audio-7-icon_1_" fill="#FEFFFF" d="M359.329,101.278l-173.122,37.934v137.955c-34.011-7.07-69.483,24.746-59.439,54.717
	c13.28,39.633,88.115,27.695,88.172-25.76c0.023-22.018,0-108.906,0-108.906l115.473-26.015v86.954
	c-34.015-7.071-69.305,24.75-59.264,54.717c13.281,39.637,88.116,27.699,88.173-25.758
	C359.342,268.67,359.329,101.278,359.329,101.278z"/>
</svg>
