<?xml version="1.0" encoding="utf-8"?>
<!-- Generator: Adobe Illustrator 17.1.0, SVG Export Plug-In . SVG Version: 6.00 Build 0)  -->
<!DOCTYPE svg PUBLIC "-//W3C//DTD SVG 1.1//EN" "http://www.w3.org/Graphics/SVG/1.1/DTD/svg11.dtd">
<svg version="1.1" id="Calque_1" xmlns="http://www.w3.org/2000/svg" xmlns:xlink="http://www.w3.org/1999/xlink" x="0px" y="0px"
	 viewBox="0 0 58 58" enable-background="new 0 0 58 58" xml:space="preserve">
<path id="magnifier-icon" fill="#666666" d="M46.9,41.5l-8.8-8.8c1.3-2,2-4.4,2-7c0-7.2-5.9-13.1-13.1-13.1s-13.1,5.9-13.1,13.1
	S19.8,38.8,27,38.8c2.4,0,4.7-0.7,6.7-1.8l8.8,8.8L46.9,41.5z M18.8,25.7c0-4.5,3.7-8.2,8.2-8.2s8.2,3.7,8.2,8.2
	c0,4.5-3.7,8.2-8.2,8.2C22.5,33.9,18.8,30.2,18.8,25.7z"/>
</svg>
