<?xml version="1.0" encoding="utf-8"?>
<!-- Generator: Adobe Illustrator 18.0.0, SVG Export Plug-In . SVG Version: 6.00 Build 0)  -->
<!DOCTYPE svg PUBLIC "-//W3C//DTD SVG 1.1//EN" "http://www.w3.org/Graphics/SVG/1.1/DTD/svg11.dtd">
<svg version="1.1" id="Calque_1" xmlns="http://www.w3.org/2000/svg" xmlns:xlink="http://www.w3.org/1999/xlink" x="0px" y="0px"
	 viewBox="0 0 512 512" enable-background="new 0 0 512 512" xml:space="preserve">
<path id="help-4-icon" fill="#323949" d="M256,50C142.2,50,50,142.2,50,256s92.2,206,206,206s206-92.2,206-206S369.8,50,256,50z
	 M256,435.9c-99.4,0-179.9-80.6-179.9-179.9c0-99.4,80.6-179.9,179.9-179.9c99.4,0,179.9,80.6,179.9,179.9
	C435.9,355.4,355.3,435.9,256,435.9z M256,96.2c-88.2,0-159.8,71.5-159.8,159.8S167.8,415.8,256,415.8S415.8,344.2,415.8,256
	S344.2,96.2,256,96.2z M257.9,372.2c-13.7,0-24.7-11.1-24.7-24.7c0-13.7,11.1-24.7,24.7-24.7c13.7,0,24.7,11.1,24.7,24.7
	C282.6,361.1,271.6,372.2,257.9,372.2z M277.4,299.1v4.5c0,0-37.1,0-40.8,0v-4.5c0-12.6,1.8-28.7,16.5-42.8
	c14.6-14,32.9-25.6,32.9-43.2c0-19.4-13.5-29.7-30.4-29.7c-28.3,0-30.1,29.3-30.8,35.8H185c1.1-30.6,14-73.4,70.7-73.4
	c49.2,0,71.3,32.9,71.3,63.8C327,258.8,277.4,267.3,277.4,299.1z"/>
</svg>
