<?xml version="1.0" encoding="utf-8"?>
<!-- Generator: Adobe Illustrator 19.2.1, SVG Export Plug-In . SVG Version: 6.00 Build 0)  -->
<svg version="1.1" id="Calque_1" xmlns="http://www.w3.org/2000/svg" xmlns:xlink="http://www.w3.org/1999/xlink" x="0px" y="0px"
	 viewBox="0 0 24 24" style="enable-background:new 0 0 24 24;" xml:space="preserve">
<style type="text/css">
	.st0{fill:#FFFFFF;stroke:#666666;stroke-width:0.5;stroke-miterlimit:10;}
	.st1{fill:#4DBFF5;stroke:#666666;stroke-width:0.5;stroke-miterlimit:10;}
</style>
<path class="st0" d="M9.4,9.9c0-0.4,0.4-0.8,0.9-0.8s0.9,0.3,0.9,0.8c0,0.4-0.4,0.8-0.9,0.8S9.4,10.3,9.4,9.9z M14.8,9.9l-1.5,2
	l-1.1-1.2l-2.8,3.1h8.7L14.8,9.9z M22.4,6v10.9H5v-2.3H1.5V2.9h18.3V6L22.4,6L22.4,6z M5,13V6h13.1V4.4H3.3V13H5z M20.7,7.6H6.8v7.8
	h13.9V7.6L20.7,7.6z"/>
<g>
	<g id="file-download">
		<path class="st1" d="M15.7,14.1h-2.3v-3.5H9.9v3.5H7.6l4.1,4.1L15.7,14.1z M6.9,19.7v1.4h9.6v-1.4H6.9z"/>
	</g>
</g>
</svg>
