<?xml version="1.0" encoding="utf-8"?>
<!-- Generator: Adobe Illustrator 16.2.0, SVG Export Plug-In . SVG Version: 6.00 Build 0)  -->
<!DOCTYPE svg PUBLIC "-//W3C//DTD SVG 1.1//EN" "http://www.w3.org/Graphics/SVG/1.1/DTD/svg11.dtd">
<svg version="1.1" id="Layer_1" xmlns="http://www.w3.org/2000/svg" xmlns:xlink="http://www.w3.org/1999/xlink" x="0px" y="0px"
	 width="512px" height="512px" viewBox="0 0 512 512" enable-background="new 0 0 512 512" xml:space="preserve">
<path fill="#c7c0c0" d="M303.826,335.821c-45.104-10.404-87.09-19.515-66.755-57.851c61.89-116.688,16.406-179.093-48.954-179.093
	c-66.645,0-111.014,64.798-48.952,179.093c20.943,38.569-22.623,47.669-66.757,57.851c-45.086,10.397-41.617,34.169-41.617,77.302
	h314.653C345.444,369.99,348.912,346.219,303.826,335.821z"/>
<path fill="#666" d="M481.222,413.123H359.706c-0.005-132.254-66.112-69.395-66.112-185.286c0-41.834,27.388-64.54,62.556-64.54
	c51.959,0,88.123,49.612,38.917,142.381c-16.164,30.478,17.215,37.72,53.071,45.991
	C483.982,359.934,481.222,378.833,481.222,413.123z"/>
</svg>
