<?xml version="1.0" encoding="utf-8"?>
<!-- Generator: Adobe Illustrator 16.2.0, SVG Export Plug-In . SVG Version: 6.00 Build 0)  -->
<!DOCTYPE svg PUBLIC "-//W3C//DTD SVG 1.1//EN" "http://www.w3.org/Graphics/SVG/1.1/DTD/svg11.dtd">
<svg version="1.1" id="Calque_1" xmlns="http://www.w3.org/2000/svg" xmlns:xlink="http://www.w3.org/1999/xlink" x="0px" y="0px"
	 width="512px" height="512px" viewBox="0 0 512 512" enable-background="new 0 0 512 512" xml:space="preserve">
<path id="lock-4-icon_1_" fill="#81949B" d="M200.333,232.333h-50v-62.666C150.333,108.645,199.979,59,261,59
	c61.022,0,110.667,49.646,110.667,110.667v62.666h-50v-62.666C321.667,136.215,294.452,109,261,109s-60.667,27.215-60.667,60.667
	V232.333L200.333,232.333z M321.722,438V297.334H409v-35.001H113V471h296v-33H321.722z M409,314.834h-68.611v25H409V314.834z
	 M409,355.167h-68.611v25H409V355.167z M409,395.417h-68.611v25H409V395.417z"/>
<path id="lock-4-icon" fill="#C2D4DD" d="M195.333,223.333h-50v-62.666C145.333,99.645,194.979,50,256,50
	c61.022,0,110.667,49.646,110.667,110.667v62.666h-50v-62.666C316.667,127.215,289.452,100,256,100s-60.667,27.215-60.667,60.667
	V223.333L195.333,223.333z M316.722,429V288.334H404v-35.001H108V462h296v-33H316.722z M404,305.834h-68.611v25H404V305.834z
	 M404,346.167h-68.611v25H404V346.167z M404,386.417h-68.611v25H404V386.417z"/>
</svg>
