<?xml version="1.0" encoding="utf-8"?>
<!-- Generator: Adobe Illustrator 16.2.0, SVG Export Plug-In . SVG Version: 6.00 Build 0)  -->
<!DOCTYPE svg PUBLIC "-//W3C//DTD SVG 1.1//EN" "http://www.w3.org/Graphics/SVG/1.1/DTD/svg11.dtd">
<svg version="1.1" id="Calque_1" xmlns="http://www.w3.org/2000/svg" xmlns:xlink="http://www.w3.org/1999/xlink" x="0px" y="0px"
	 width="512px" height="512px" viewBox="0 0 512 512" enable-background="new 0 0 512 512" xml:space="preserve">
<path fill="#FFFFFF" d="M305.672,132.717c21.268,13.336,36.178,35.897,38.901,62.091c8.666,4.053,18.296,6.385,28.498,6.385
	c37.267,0,67.458-30.2,67.458-67.452c0-37.259-30.191-67.457-67.458-67.457C336.165,66.289,306.233,95.948,305.672,132.717z
	 M261.478,270.835c37.255,0,67.456-30.206,67.456-67.458c0-37.251-30.201-67.45-67.456-67.45c-37.254,0-67.468,30.204-67.468,67.458
	C194.01,240.637,224.224,270.835,261.478,270.835z M290.088,275.437h-57.232c-47.627,0-86.373,38.744-86.373,86.369v70.002
	l0.177,1.099l4.82,1.509c45.456,14.198,84.94,18.936,117.441,18.936c63.477,0,100.271-18.101,102.541-19.254l4.508-2.282h0.481
	v-70.008C376.457,314.181,337.713,275.437,290.088,275.437z M401.696,205.794H344.9c-0.617,22.725-10.313,43.188-25.649,57.903
	c42.331,12.592,73.297,51.848,73.297,98.217v21.568c56.079-2.057,88.4-17.948,90.529-19.021l4.508-2.285h0.48v-70.02
	C488.065,244.538,449.32,205.794,401.696,205.794z M143.115,201.197c13.194,0,25.474-3.854,35.875-10.413
	c3.304-21.566,14.862-40.411,31.377-53.247c0.071-1.262,0.189-2.515,0.189-3.787c0-37.259-30.203-67.457-67.443-67.457
	c-37.266,0-67.46,30.197-67.46,67.457C75.655,170.997,105.848,201.197,143.115,201.197z M203.696,263.697
	c-15.27-14.641-24.936-34.995-25.643-57.581c-2.108-0.154-4.189-0.322-6.336-0.322h-57.236c-47.625,0-86.37,38.745-86.37,86.364
	v70.014l0.178,1.08l4.822,1.521c36.462,11.385,69.001,16.631,97.266,18.279v-21.139
	C130.387,315.545,161.349,276.295,203.696,263.697z"/>
</svg>
