<?xml version="1.0" encoding="utf-8"?>
<!-- Generator: Adobe Illustrator 16.2.0, SVG Export Plug-In . SVG Version: 6.00 Build 0)  -->
<!DOCTYPE svg PUBLIC "-//W3C//DTD SVG 1.1//EN" "http://www.w3.org/Graphics/SVG/1.1/DTD/svg11.dtd">
<svg version="1.1" id="Calque_1" xmlns="http://www.w3.org/2000/svg" xmlns:xlink="http://www.w3.org/1999/xlink" x="0px" y="0px"
	 width="512px" height="512px" viewBox="0 0 512 512" enable-background="new 0 0 512 512" xml:space="preserve">
<path id="Background_1_" fill="#31838C" d="M366.795,193.024H159.109v-8.621c0-11.435-9.281-20.703-20.716-20.703H34.236
	c-11.447,0-20.716,9.268-20.716,20.703v29.337v4.031v257.174c0,11.436,9.269,20.716,20.716,20.716h332.547
	c11.447,0,20.715-9.28,20.715-20.716V213.741C387.51,202.306,378.242,193.024,366.795,193.024z"/>
<path id="Background" fill="#D1E5E5" d="M364.462,189.357H156.776v-8.621c0-11.435-9.281-20.703-20.716-20.703H31.903
	c-11.447,0-20.716,9.268-20.716,20.703v29.337v4.031v257.174c0,11.436,9.269,20.716,20.716,20.716h332.546
	c11.447,0,20.715-9.28,20.715-20.716V210.074C385.177,198.639,375.908,189.357,364.462,189.357z"/>
<rect id="Feuille" x="32.48" y="215.823" fill="#9BD4DF" width="331.417" height="258.906"/>
<path fill="#FFFFFF" d="M301.764,230.226H32.505c-11.448,0-20.741,9.269-20.741,20.71v220.37c0,11.435,9.293,20.716,20.741,20.716
	h331.353c11.449,0,20.742-9.281,20.742-20.716V313.07L301.764,230.226z"/>
<polygon fill="#EFEFEF" points="301.378,312.871 301.378,311.532 301.941,311.532 301.172,310.782 301.172,230.226 218.693,230.226 
	217.745,230.226 135.47,230.226 218.693,311.532 218.154,311.532 301.378,392.839 301.378,393.518 384.601,474.189 384.601,393.518 
	"/>
<polygon fill="#CECECE" points="301.172,313.66 384.601,397.068 384.601,313.66 "/>
<polyline fill="#F2F2F2" points="301.172,230.226 301.172,313.66 384.601,313.66 "/>
<path id="arrow-23-icon" fill="#FFFFFF" stroke="#31838C" stroke-width="10" stroke-miterlimit="10" d="M294.179,354.48
	l-81.49-80.854l-0.092-59.103l38.026,37.73l-0.246-158.476l86.789-0.135l0.246,158.476l37.911-37.848l0.092,59.104L294.179,354.48z
	 M375.563,369.138l-0.092-59.104l-81.236,81.102l-81.489-80.85l0.092,59.106l81.489,80.852L375.563,369.138z"/>
</svg>
