<?xml version="1.0" encoding="utf-8"?>
<!-- Generator: Adobe Illustrator 19.2.1, SVG Export Plug-In . SVG Version: 6.00 Build 0)  -->
<svg version="1.1" id="Calque_1" xmlns="http://www.w3.org/2000/svg" xmlns:xlink="http://www.w3.org/1999/xlink" x="0px" y="0px"
	 viewBox="0 0 24 24" style="enable-background:new 0 0 24 24;" xml:space="preserve">
<style type="text/css">
	.st0{fill:#666666;stroke:#666666;stroke-miterlimit:10;}
	.st1{fill:#D1E5E5;}
	.st2{fill:#9BD4DF;}
	.st3{fill:#FFFFFF;}
	.st4{fill:#EFEFEF;}
	.st5{fill:#CECECE;}
	.st6{fill:#F2F2F2;}
	.st7{fill:#FFFFFF;stroke:#666666;stroke-miterlimit:10;}
</style>
<path id="Background_1_" class="st0" d="M19.7,6.7h-9.7V6.3c0-0.5-0.4-1-1-1H4.3c-0.5,0-1,0.4-1,1v1.4v0.2v12c0,0.5,0.4,1,1,1h15.5
	c0.5,0,1-0.4,1-1V7.7C20.7,7.1,20.3,6.7,19.7,6.7z"/>
<path id="Background" class="st1" d="M19.7,6.7H10V6.3c0-0.5-0.4-1-1-1H4.2c-0.5,0-1,0.4-1,1v1.4v0.2v12c0,0.5,0.4,1,1,1h15.5
	c0.5,0,1-0.4,1-1V7.7C20.7,7.1,20.3,6.7,19.7,6.7z"/>
<rect id="Feuille" x="4.3" y="7.9" class="st2" width="15.4" height="12.1"/>
<path class="st3" d="M16.8,8.6H4.3c-0.5,0-1,0.4-1,1v10.3c0,0.5,0.4,1,1,1h15.4c0.5,0,1-0.4,1-1v-7.4L16.8,8.6z"/>
<polygon class="st4" points="16.8,12.5 16.8,12.4 16.8,12.4 16.8,12.4 16.8,8.6 12.9,8.6 12.9,8.6 9.1,8.6 12.9,12.4 12.9,12.4 
	16.8,16.2 16.8,16.2 20.7,20 20.7,16.2 "/>
<polygon class="st5" points="16.8,12.5 20.7,16.4 20.7,12.5 "/>
<polyline class="st6" points="16.8,8.6 16.8,12.5 20.7,12.5 "/>
<path id="arrow-23-icon" class="st7" d="M15.8,14l-3.1-3.1l0-2.3l1.5,1.5l0-6.1l3.3,0l0,6.1l1.5-1.5l0,2.3L15.8,14z M18.9,16.4
	l0-2.3l-3.1,3.1l-3.1-3.1l0,2.3l3.1,3.1L18.9,16.4z"/>
</svg>
