<?xml version="1.0" encoding="utf-8"?>
<!-- Generator: Adobe Illustrator 16.2.0, SVG Export Plug-In . SVG Version: 6.00 Build 0)  -->
<!DOCTYPE svg PUBLIC "-//W3C//DTD SVG 1.1//EN" "http://www.w3.org/Graphics/SVG/1.1/DTD/svg11.dtd">
<svg version="1.1" id="Calque_1" xmlns="http://www.w3.org/2000/svg" xmlns:xlink="http://www.w3.org/1999/xlink" x="0px" y="0px"
	 width="512px" height="512px" viewBox="0 0 512 512" enable-background="new 0 0 512 512" xml:space="preserve">
<path id="lock-4-icon_1_" fill="#81949B" d="M102.333,232.333h-50v-62.666C52.333,108.645,101.979,59,163,59
	c61.022,0,110.667,49.646,110.667,110.667v62.666h-50v-62.666C223.667,136.215,196.452,109,163,109s-60.667,27.215-60.667,60.667
	V232.333L102.333,232.333z M374.722,437V296.334H462v-35.001H166V470h296v-33H374.722z M462,313.834h-68.611v25H462V313.834z
	 M462,354.167h-68.611v25H462V354.167z M462,394.417h-68.611v25H462V394.417z"/>
<path id="lock-4-icon" fill="#C2D4DD" d="M97.333,223.333h-50v-62.666C47.333,99.645,96.979,50,158,50
	c61.022,0,110.667,49.646,110.667,110.667v62.666h-50v-62.666C218.667,127.215,191.452,100,158,100s-60.667,27.215-60.667,60.667
	V223.333L97.333,223.333z M368.722,429V288.334H456v-35.001H160V462h296v-33H368.722z M446,305.834h-68.611v25H446V305.834z
	 M446,346.167h-68.611v25H446V346.167z M446,386.417h-68.611v25H446V386.417z"/>
</svg>
