<?xml version="1.0" encoding="utf-8"?>
<!-- Generator: Adobe Illustrator 16.2.0, SVG Export Plug-In . SVG Version: 6.00 Build 0)  -->
<!DOCTYPE svg PUBLIC "-//W3C//DTD SVG 1.1//EN" "http://www.w3.org/Graphics/SVG/1.1/DTD/svg11.dtd">
<svg version="1.1" id="Calque_1" xmlns="http://www.w3.org/2000/svg" xmlns:xlink="http://www.w3.org/1999/xlink" x="0px" y="0px"
	 width="512px" height="512px" viewBox="0 0 512 512" enable-background="new 0 0 512 512" xml:space="preserve">
<path fill="#0095D7" d="M478.145,199.201v-0.492v-0.018l-40.252,40.274h0.018l-0.018,0.018h-72.023
	c-10.461,0-18.949-8.636-18.949-19.286V97.15c0-10.657,8.487-19.29,18.949-19.29h93.333c10.461,0,18.95,8.633,18.95,19.29v102.045
	L478.145,199.201z"/>
<polygon fill="#0B2F47" points="397.696,238.984 437.949,198.711 437.949,238.984 "/>
<g id="_x31_27">
	<g>
		<path fill="#112732" d="M281.619,336.982c0-23.414,0-46.818,0-70.24c0-3.811,0-7.623,0-11.435c0-0.609,0-1.219,0-1.813
			c0-24.968,0-49.93,0-74.894c0-4.963,0-9.932,0-14.895h26.285v-13.261h-6.047c-8.558,0-17.112,0-25.659,0h-5.43v13.261h0.009
			c0,29.927,0,59.85,0,89.789h-17.899v13.256h17.899c0,29.334,0,58.677,0,88.002c0,0.067,0.043,0.127,0.043,0.203v6.03h37.136
			v-13.264h-26.337C281.619,344.148,281.619,340.573,281.619,336.982z"/>
	</g>
</g>
<g id="_x31_90">
</g>
<polygon fill="#4DBFF5" points="478.145,198.711 437.893,238.984 437.893,198.711 "/>
<path fill="#0095D7" d="M479.338,316.922v0.495v0.019l-40.374-40.381h0.012l-0.012-0.019h-72.25
	c-10.499,0-19.006,8.66-19.006,19.337v122.861c0,10.69,8.507,19.346,19.006,19.346h93.618c10.486,0,19.007-8.655,19.007-19.346
	L479.338,316.922L479.338,316.922z"/>
<polygon fill="#0B2F47" points="438.964,317.429 479.338,357.809 479.338,317.429 "/>
<polygon fill="#4DBFF5" points="479.338,317.417 438.964,277.036 438.964,317.417 "/>
<path id="Background" fill="#D17E11" d="M228.838,185.311H115.224v-4.716c0-6.255-5.077-11.325-11.332-11.325H46.92
	c-6.263,0-11.333,5.07-11.333,11.325v16.048v2.206v140.681c0,6.256,5.07,11.333,11.333,11.333H228.83
	c6.263,0,11.333-5.077,11.333-11.333V196.643C240.17,190.387,235.1,185.311,228.838,185.311z"/>
<rect id="Feuille" x="47.235" y="199.788" fill="#FFFFFF" width="181.294" height="141.628"/>
<path fill="#EFAB11" d="M194.54,207.666H47.249c-6.263,0-11.346,5.07-11.346,11.329v120.549c0,6.255,5.083,11.331,11.346,11.331
	h181.258c6.263,0,11.347-5.076,11.347-11.331v-86.559L194.54,207.666z"/>
<polygon fill="#D88B0F" points="194.329,252.876 194.329,252.143 194.637,252.143 194.217,251.733 194.217,207.666 149.099,207.666 
	148.58,207.666 103.57,207.666 149.099,252.143 148.804,252.143 194.329,296.619 194.329,296.992 239.854,341.122 239.854,296.992 
	"/>
<polygon fill="#B77E1A" points="194.217,253.307 239.854,298.934 239.854,253.307 "/>
<polyline fill="#F2C144" points="194.217,207.666 194.217,253.307 239.854,253.307 "/>
</svg>
