<?xml version="1.0" encoding="utf-8"?>
<!-- Generator: Adobe Illustrator 19.2.1, SVG Export Plug-In . SVG Version: 6.00 Build 0)  -->
<svg version="1.1" id="Calque_1" xmlns="http://www.w3.org/2000/svg" xmlns:xlink="http://www.w3.org/1999/xlink" x="0px" y="0px"
	 viewBox="0 0 24 24" style="enable-background:new 0 0 24 24;" xml:space="preserve">
<style type="text/css">
	.st0{fill:#FFFFFF;stroke:#666666;}
	.st1{fill:#666666;stroke:#666666;}
	.st2{fill:#666666;stroke:#666666;stroke-width:1.391;}
	.st3{fill:#4DBFF5;}
	.st4{fill:#666666;}
</style>
<g id="shape_x5F_two" transform="translate(-73.767999,-467.76506)">
	<g id="global_x5F_two_x5F_grp" transform="matrix(0.8715162,0,0,0.8715162,-707.5571,84.547171)">
		<path id="path18" class="st0" d="M906.1,456.9l-7.1,0.9l13.9-15.2L906.1,456.9z"/>
		<path id="path17" class="st0" d="M918.8,463.1l-12.5-6.3l6.7-14.3L918.8,463.1z"/>
		<path id="path16" class="st0" d="M918.6,463.1l-19.5-5.2l7.1-0.9L918.6,463.1z"/>
		<path id="path15" class="st1" d="M918.8,463.3l-19.9-5.3l0.1-0.2l19.8,5.3L918.8,463.3z"/>
		<path id="path14" class="st1" d="M898.8,457.7l14-15.1c0.1-0.1,0.3,0,0.2,0.2l-14,15.1L898.8,457.7z"/>
		<path id="path13" class="st1" d="M905.9,456.8L905.9,456.8l6.9-14.1l0.2,0.1c0,0-5,10.6-6.6,14.2c0,0.1-0.1,0.2-0.2,0.2
			C905.8,457,905.9,456.9,905.9,456.8z"/>
		<path id="path12" class="st1" d="M919,463.2l-6-20.6c0-0.1-0.3-0.1-0.2,0.1l6,20.5H919z"/>
		<path id="path11" class="st2" d="M906.3,456.9c0,0.1-0.1,0.2-0.2,0.2l12.5,6.1c0.2,0.1,0.4,0,0.1-0.2
			C918.6,462.9,906.3,456.9,906.3,456.9z"/>
		<path id="path10" class="st1" d="M906,457.1c-0.1-0.1-0.1-0.2,0-0.3l-7.1,0.9c-0.1,0-0.1,0.2,0,0.2
			C899.1,457.9,906,457.1,906,457.1z"/>
	</g>
</g>
<g>
	<path class="st3" d="M20.1,10.9c-0.1-0.1-0.3-0.2-0.4-0.2c-0.1,0-0.4,0.1-0.5,0.2L14,16.1l-1.9-1.9c-0.1-0.1-0.3-0.2-0.5-0.2
		c-0.1,0-0.4,0.1-0.5,0.2l-2.6,2.7c-0.3,0.3-0.3,0.7,0,0.9l5,5c0.1,0.1,0.3,0.2,0.5,0.2s0.4-0.1,0.5-0.2l8.3-8.3
		c0.3-0.3,0.3-0.7,0-0.9L20.1,10.9z"/>
	<path class="st4" d="M20.1,10.9c-0.1-0.1-0.3-0.2-0.4-0.2c-0.1,0-0.4,0.1-0.5,0.2L14,16.1l-1.9-1.9c-0.1-0.1-0.3-0.2-0.5-0.2
		c-0.1,0-0.4,0.1-0.5,0.2l-2.6,2.7c-0.3,0.3-0.3,0.7,0,0.9l5,5c0.1,0.1,0.3,0.2,0.5,0.2s0.4-0.1,0.5-0.2l8.3-8.3
		c0.3-0.3,0.3-0.7,0-0.9L20.1,10.9z M14,21.4l-4.1-4.1l1.7-1.7l1.9,1.9c0.1,0.1,0.3,0.2,0.5,0.2c0.1,0,0.4-0.1,0.5-0.2l5.3-5.3
		l1.7,1.7L14,21.4z"/>
</g>
</svg>
