<?xml version="1.0" encoding="utf-8"?>
<!-- Generator: Adobe Illustrator 16.2.0, SVG Export Plug-In . SVG Version: 6.00 Build 0)  -->
<!DOCTYPE svg PUBLIC "-//W3C//DTD SVG 1.1//EN" "http://www.w3.org/Graphics/SVG/1.1/DTD/svg11.dtd">
<svg version="1.1" id="Calque_1" xmlns="http://www.w3.org/2000/svg" xmlns:xlink="http://www.w3.org/1999/xlink" x="0px" y="0px"
	 width="512px" height="512px" viewBox="0 0 512 512" enable-background="new 0 0 512 512" xml:space="preserve">
<circle fill="#8499AE" cx="130.516" cy="44.864" r="30.702"/>
<circle fill="#8499AE" cx="450.502" cy="364.281" r="30.692"/>
<circle fill="#8499AE" cx="83.463" cy="329.037" r="30.692"/>
<path fill="#8499AE" d="M176.098,107.7l-11.909-22.197c-2.728-5.091-9.043-7.015-14.164-4.276c-5.07,2.717-7.004,9.063-4.275,14.165
	l11.938,22.196c1.863,3.501,5.474,5.532,9.2,5.532c1.678,0,3.375-0.413,4.953-1.256C176.922,119.136,178.834,112.781,176.098,107.7z
	"/>
<path fill="#8499AE" d="M187.437,173.086c1.894,3.531,5.514,5.532,9.24,5.532c1.688,0,3.354-0.401,4.925-1.246
	c5.101-2.735,6.993-9.083,4.275-14.173l-11.918-22.198c-2.728-5.081-9.063-7.004-14.165-4.268
	c-5.101,2.736-6.982,9.073-4.268,14.154L187.437,173.086z"/>
<path fill="#8499AE" d="M402.122,327.605l-24.247-13.831c-5.021-2.854-11.396-1.106-14.271,3.896
	c-2.846,5.031-1.108,11.406,3.894,14.281l24.229,13.82c1.667,0.94,3.423,1.383,5.197,1.383c3.609,0,7.143-1.901,9.073-5.287
	C408.852,336.854,407.107,330.469,402.122,327.605z"/>
<path fill="#8499AE" d="M341.532,293.038l-24.218-13.841c-5.031-2.863-11.417-1.107-14.291,3.896
	c-2.835,5.021-1.109,11.406,3.913,14.271l24.219,13.83c1.639,0.942,3.423,1.384,5.179,1.384c3.658,0,7.161-1.894,9.104-5.287
	C348.313,302.279,346.556,295.883,341.532,293.038z"/>
<path fill="#8499AE" d="M156.852,279.61l-24.395,13.487c-5.07,2.806-6.916,9.172-4.102,14.213c1.902,3.442,5.482,5.403,9.162,5.403
	c1.706,0,3.453-0.421,5.051-1.305l24.396-13.507c5.071-2.796,6.905-9.161,4.109-14.224
	C168.27,278.639,161.895,276.795,156.852,279.61z"/>
<path fill="#8499AE" d="M465.93,56.85c0-25.787-20.972-46.749-46.76-46.749c-25.748,0-46.738,20.962-46.738,46.749
	c0,8.221,2.156,15.93,5.896,22.659l-106.611,111.88c-9.672-5.866-20.991-9.279-33.085-9.279c-35.42,0-64.229,28.81-64.229,64.209
	c0,35.392,28.81,64.208,64.229,64.208c0.656,0,1.256-0.078,1.933-0.098l23.815,93.47c-13.301,8.249-22.245,22.952-22.245,39.734
	c0,25.776,20.989,46.738,46.759,46.738c25.758,0,46.729-20.962,46.729-46.738c0-24.926-19.617-45.287-44.208-46.611l-23.826-93.479
	c20.884-10.594,35.243-32.24,35.243-57.226c0-13.213-4.002-25.513-10.878-35.725l106.622-111.87c6.22,3.1,13.213,4.864,20.618,4.864
	C444.96,103.59,465.93,82.628,465.93,56.85z M270.037,426.115c4.719-5.069,11.378-8.308,18.842-8.308
	c2.875,0,5.603,0.589,8.19,1.461c10.211,3.443,17.637,12.997,17.637,24.354c0,14.243-11.604,25.828-25.827,25.828
	c-14.223,0-25.825-11.585-25.825-25.828C263.053,436.856,265.731,430.736,270.037,426.115z M273.932,254.45
	c-1.629,7.063-5.297,13.32-10.39,18.155c-0.989,0.941-2.068,1.785-3.168,2.629c-6.091,4.592-13.575,7.405-21.746,7.405
	c-1.814,0-3.551-0.273-5.277-0.529c-7.729-1.138-14.692-4.608-20.049-9.817c-5.003-4.896-8.612-11.202-10.152-18.305
	c-0.539-2.471-0.862-5.021-0.862-7.659c0-10.114,4.218-19.284,10.906-25.876c4.866-4.776,11.045-8.21,17.971-9.662
	c2.402-0.5,4.904-0.766,7.465-0.766c4.571,0,8.916,0.94,12.947,2.491c9.033,3.474,16.332,10.387,20.245,19.206
	c1.98,4.472,3.109,9.406,3.109,14.604C274.942,249.124,274.549,251.821,273.932,254.45z M419.171,82.668
	c-1.646,0-3.275-0.188-4.854-0.5c-9.937-1.894-17.793-9.516-20.157-19.273c-0.5-1.952-0.795-3.963-0.795-6.043
	c0-14.242,11.585-25.836,25.809-25.836c14.242,0,25.825,11.594,25.825,25.836C444.996,71.094,433.413,82.668,419.171,82.668z"/>
</svg>
