<?xml version="1.0" encoding="utf-8"?>
<!-- Generator: Adobe Illustrator 19.2.1, SVG Export Plug-In . SVG Version: 6.00 Build 0)  -->
<svg version="1.1" id="Calque_1" xmlns="http://www.w3.org/2000/svg" xmlns:xlink="http://www.w3.org/1999/xlink" x="0px" y="0px"
	 viewBox="0 0 58 58" style="enable-background:new 0 0 58 58;" xml:space="preserve">
<style type="text/css">
	.st0{fill:#DDDDDD;}
</style>
<path class="st0" d="M46.6,31c-0.9,8.2-7.8,14.5-16.2,14.5c-4.9,0-9.3-2.2-12.4-5.6l2.2-2.9c2.5,2.9,6.2,4.9,10.2,4.9
	c6.4,0,11.6-4.7,12.5-10.9h-5.3l7.3-9.6l7.3,9.6H46.6z M17.9,27.4c0.9-6.2,6.2-10.9,12.5-10.9c4,0,7.6,2,10,4.9l2.2-2.9
	c-2.9-3.5-7.3-5.6-12.2-5.6c-8.4,0-15.3,6.4-16.2,14.5H8.6l7.3,9.6l7.3-9.6H17.9z"/>
</svg>
