<?xml version="1.0" encoding="utf-8"?>
<!-- Generator: Adobe Illustrator 19.2.1, SVG Export Plug-In . SVG Version: 6.00 Build 0)  -->
<svg version="1.1" id="Calque_1" xmlns="http://www.w3.org/2000/svg" xmlns:xlink="http://www.w3.org/1999/xlink" x="0px" y="0px"
	 viewBox="0 0 24 24" style="enable-background:new 0 0 24 24;" xml:space="preserve">
<style type="text/css">
	.st0{fill:#666666;}
</style>
<path class="st0" d="M24,12c0,6.6-5.4,12-12,12S0,18.6,0,12c0-0.8,0.1-1.6,0.2-2.4h2.1C2.1,10.4,2,11.2,2,12c0,5.5,4.5,10,10,10
	s10-4.5,10-10S17.5,2,12,2C9.8,2,7.7,2.7,6,4l2,2l-7,1.4l1.4-7l2.2,2.2C6.7,1,9.2,0,12,0C18.6,0,24,5.4,24,12z M11,6v8h7v-2h-5V6H11
	z"/>
</svg>
