<?xml version="1.0" encoding="utf-8"?>
<!-- Generator: Adobe Illustrator 19.2.0, SVG Export Plug-In . SVG Version: 6.00 Build 0)  -->
<svg version="1.1" id="Trash" xmlns="http://www.w3.org/2000/svg" xmlns:xlink="http://www.w3.org/1999/xlink" x="0px" y="0px"
	 viewBox="0 0 512 512" style="enable-background:new 0 0 512 512;" xml:space="preserve">
<style type="text/css">
	.st0{fill:#9D9191;}
</style>
<path id="trash-can-icon" class="st0" d="M228.6,220.2c0-5-4-9-9-9s-9,4-9,9v109.4c0,5,4,9,9,9s9-4,9-9V220.2z M265,220.2
	c0-5-4-9-9-9s-9,4-9,9v109.4c0,5,4,9,9,9s9-4,9-9V220.2z M301.4,220.2c0-5-4-9-9-9s-9,4-9,9v109.4c0,5,4,9,9,9s9-4,9-9V220.2z
	 M325.3,358.7H186.7V191.2h-21v188.5h180.5V191.2h-21L325.3,358.7L325.3,358.7z M300.2,149.1c-9.3,0-16.8-7.5-16.8-16.8h-54.8
	c0,9.3-7.5,16.8-16.8,16.8h-57v24h202.4v-24H300.2z"/>
</svg>
