<?xml version="1.0" encoding="utf-8"?>
<!-- Generator: Adobe Illustrator 19.2.1, SVG Export Plug-In . SVG Version: 6.00 Build 0)  -->
<svg version="1.1" id="Calque_1" xmlns="http://www.w3.org/2000/svg" xmlns:xlink="http://www.w3.org/1999/xlink" x="0px" y="0px"
	 viewBox="0 0 24 24" style="enable-background:new 0 0 24 24;" xml:space="preserve">
<style type="text/css">
	.st0{fill:#FFFFFF;stroke:#666666;stroke-miterlimit:10;}
	.st1{fill:#666666;}
	.st2{fill:#4DBFF5;}
</style>
<path class="st0" d="M3.3,7.7V6.3C3.3,3.9,5.2,2,7.6,2c2.4,0,4.3,1.9,4.3,4.3v1.4h-1.4V6.3c0-1.6-1.3-2.9-2.9-2.9S4.8,4.7,4.8,6.3
	v1.4H3.3z M21.3,9.2v10.1H8.4V9.2H21.3z"/>
<path class="st1" d="M17.5,10.8c-0.1-0.1-0.2-0.1-0.2-0.1s-0.2,0-0.3,0.1l-3.1,3.1l-1.1-1.1c-0.1-0.1-0.2-0.1-0.3-0.1
	c-0.1,0-0.2,0-0.3,0.1l-1.5,1.6c-0.2,0.2-0.2,0.4,0,0.5l2.9,2.9c0.1,0.1,0.2,0.1,0.3,0.1c0.1,0,0.2,0,0.3-0.1l4.9-4.9
	c0.2-0.2,0.2-0.4,0-0.5L17.5,10.8z"/>
<path class="st2" d="M13.9,16.9l-2.4-2.4l1-1l1.1,1.1c0.1,0.1,0.2,0.1,0.3,0.1c0.1,0,0.2,0,0.3-0.1l3.1-3.1l1,1L13.9,16.9z"/>
</svg>
