<?xml version="1.0" encoding="utf-8"?>
<!-- Generator: Adobe Illustrator 19.2.1, SVG Export Plug-In . SVG Version: 6.00 Build 0)  -->
<svg version="1.1" id="Capa_1" xmlns="http://www.w3.org/2000/svg" xmlns:xlink="http://www.w3.org/1999/xlink" x="0px" y="0px"
	 viewBox="0 0 34.9 34.9" style="enable-background:new 0 0 34.9 34.9;" xml:space="preserve">
<style type="text/css">
	.st0{opacity:0.25;fill:#FFFFFF;stroke:#666666;stroke-miterlimit:10;enable-background:new    ;}
	.st1{opacity:0.5;fill:#FFFFFF;stroke:#666666;stroke-miterlimit:10;enable-background:new    ;}
	.st2{fill:#FFFFFF;stroke:#666666;stroke-miterlimit:10;}
	.st3{fill:#D1D1D1;}
	.st4{fill:#EAEAEA;}
	.st5{opacity:0.8;fill:#4DBFF5;stroke:#666666;stroke-miterlimit:10;enable-background:new    ;}
</style>
<path class="st0" d="M22.6,9.4L22.6,9.4L22.6,9.4l-6.2-6.2l0,0l0,0H5.2c-1.6,0-2.9,1.3-2.9,3v19c0,1.6,1.3,3,2.9,3h14.5
	c1.6,0,2.9-1.3,2.9-3V9.4L22.6,9.4z"/>
<path class="st1" d="M27.5,9.4L27.5,9.4L27.5,9.4l-6.2-6.2l0,0l0,0H10.1c-1.6,0-2.9,1.3-2.9,3v19c0,1.6,1.3,3,2.9,3h14.4
	c1.6,0,2.9-1.3,2.9-3V9.4L27.5,9.4z"/>
<path class="st2" d="M32.7,9.4L32.7,9.4L32.7,9.4l-6.2-6.2l0,0l0,0H15.3c-1.6,0-2.9,1.3-2.9,3v19c0,1.6,1.3,3,2.9,3h14.5
	c1.6,0,2.9-1.3,2.9-3V9.4L32.7,9.4z"/>
<polygon class="st3" points="26.3,9.6 32.2,15.5 32.2,9.6 "/>
<polygon class="st4" points="32.2,9.6 26.3,3.7 26.3,9.6 "/>
<path id="arrow-icon" class="st5" d="M24.5,13.9v-2.6l6.5,6.2l-6.5,6.2V21h-4.9v-7.1L24.5,13.9L24.5,13.9z M17.3,13.9h-2.4V21h2.4
	V13.9L17.3,13.9z M10.6,13.9H8.8V21h1.8V13.9z M5.4,13.9H4.2V21h1.2V13.9L5.4,13.9z"/>
</svg>
