<?xml version="1.0" encoding="utf-8"?>
<!-- Generator: Adobe Illustrator 18.1.1, SVG Export Plug-In . SVG Version: 6.00 Build 0)  -->
<!DOCTYPE svg PUBLIC "-//W3C//DTD SVG 1.1//EN" "http://www.w3.org/Graphics/SVG/1.1/DTD/svg11.dtd">
<svg version="1.1" id="Calque_1" xmlns="http://www.w3.org/2000/svg" xmlns:xlink="http://www.w3.org/1999/xlink" x="0px" y="0px"
	 viewBox="0 0 512 512" enable-background="new 0 0 512 512" xml:space="preserve">
<path id="cog" fill="#02AFD9" d="M465.7,138.4c-22.2-39.3-25.5-36.8-25.5-36.8c-24.4,8.1-42,11.9-52.9,13.8
	c-17.9-15.7-38.7-27.9-61.7-35.8c-3.8-10.3-9.5-28.2-15-54.9c0,0,0.4-4.1-44.1-4.1c-44.6,0-44.2,4.1-44.2,4.1
	c-5.3,25.7-10.8,43.4-14.6,53.9c-22.8,7.4-43.6,19.1-61.5,34.2c-10.8-2.1-28.3-6.4-52.5-14.9c0,0-3.3-2.6-26.2,36.3
	c-23,38.8-19.3,40.5-19.3,40.5c17.8,16.7,29.5,29.9,36.5,38.7c-3.1,13.3-4.8,27.2-4.8,41.5c0,12.9,1.3,25.5,3.9,37.7
	c-7.3,8.6-19.1,21.5-37.2,37.7c0,0-3.8,1.7,18.4,40.9C87.2,410.5,90.5,408,90.5,408c24.4-8.1,42-11.9,52.9-13.8
	c17.9,15.7,38.8,27.9,61.7,35.8c3.8,10.3,9.5,28.2,15,54.9c0,0-0.5,4.2,44.1,4.2s44.1-4.2,44.1-4.2c5.3-25.7,10.8-43.4,14.6-53.9
	c22.7-7.4,43.6-19.1,61.5-34.1c10.8,2.1,28.3,6.4,52.5,14.9c0,0,3.3,2.5,26.3-36.3s19.2-40.5,19.2-40.5
	c-17.8-16.8-29.4-29.9-36.5-38.7c3-13.4,4.8-27.2,4.8-41.5c0-12.9-1.3-25.5-3.9-37.7c7.3-8.6,19.1-21.4,37.2-37.7
	C484.1,179.4,487.9,177.7,465.7,138.4z M265.4,410.9c-86.2,0-156.1-69.9-156.1-156.1S179.2,98.7,265.4,98.7s156.1,69.9,156.1,156.1
	S351.6,410.9,265.4,410.9z"/>
<path id="cube" fill="#02AFD9" d="M268.8,129.8l-115.5,63v127.4l115.5,61.6l115.5-61.6V193.5L268.8,129.8z M351.9,199.6l-83,44.3
	l-82.7-45.1l82.6-45L351.9,199.6z M174.3,216.2l84,45.8v90.4l-84-44.8L174.3,216.2L174.3,216.2z M279.3,352.4v-90.3l84-44.8v90.3
	L279.3,352.4z"/>
<path fill="#809037" d="M348.5,297.6c0.1,3.5-2.7,6.4-6.2,6.4c-3.5,0.1-6.3-2.7-6.4-6.2s2.7-6.4,6.2-6.4
	C345.5,291.4,348.4,294.1,348.5,297.6z"/>
<path fill="#809037" d="M320,280c-3.5,0.1-6.2,2.9-6.2,6.4c0.1,3.5,2.9,6.2,6.4,6.2c3.5-0.1,6.2-3,6.2-6.4
	C326.4,282.7,323.5,279.9,320,280z"/>
<path fill="#809037" d="M297.6,268.5c-3.5,0.1-6.2,3-6.2,6.4c0.1,3.5,2.9,6.2,6.4,6.2c3.5-0.1,6.2-2.9,6.2-6.4
	S301.1,268.4,297.6,268.5z"/>
<path fill="#809037" d="M193.6,291.4c3.5,0.1,6.2,2.9,6.2,6.4c-0.1,3.5-2.9,6.3-6.4,6.2c-3.5-0.1-6.2-2.9-6.2-6.4
	C187.3,294.1,190.1,291.4,193.6,291.4z"/>
<path fill="#809037" d="M209.2,286.2c-0.1,3.5,2.7,6.4,6.2,6.4c3.5,0.1,6.4-2.7,6.4-6.2c0.1-3.5-2.7-6.3-6.2-6.4
	S209.3,282.7,209.2,286.2z"/>
<path fill="#809037" d="M231.6,274.7c-0.1,3.5,2.7,6.4,6.2,6.4c3.5,0.1,6.4-2.7,6.4-6.2c0.1-3.5-2.7-6.4-6.2-6.4
	C234.6,268.4,231.7,271.2,231.6,274.7z"/>
<circle fill="#809037" cx="267.8" cy="220.6" r="6.3"/>
<circle fill="#809037" cx="267.8" cy="197.2" r="6.3"/>
<circle fill="#809037" cx="267.8" cy="175.9" r="6.3"/>
</svg>
