<?xml version="1.0" encoding="utf-8"?>
<!-- Generator: Adobe Illustrator 20.0.0, SVG Export Plug-In . SVG Version: 6.00 Build 0)  -->
<svg version="1.1" id="Layer_1" xmlns="http://www.w3.org/2000/svg" xmlns:xlink="http://www.w3.org/1999/xlink" x="0px" y="0px"
	 viewBox="0 0 24 24" style="enable-background:new 0 0 24 24;" xml:space="preserve">
<style type="text/css">
	.st0{opacity:0.8;}
	.st1{fill:#FFFFFF;}
	.st2{opacity:0.7;}
	.st3{opacity:0.6;}
	.st4{fill:#32BFE1;}
	.st5{fill:none;}
	.st6{fill:#60ABDA;}
	.st7{fill:#A6CE39;}
</style>
<g class="st0">
	<path class="st1" d="M17.5,8.9L17.5,8.9c-0.2,0.1-0.3,0.3-0.3,0.5l0,0v5.7l5.2-3V6L17.5,8.9z"/>
</g>
<g class="st2">
	<path class="st1" d="M6.7,9l-5-2.9C1.6,6.3,1.6,6.5,1.6,6.7v11.1c0,0.2,0.1,0.4,0.3,0.5l0,0l4.9,2.9V9.4c0-0.1,0-0.2,0.1-0.3L6.7,9
		z"/>
</g>
<g class="st3">
	<path class="st1" d="M12,5.7V0L6.8,3L2.1,5.7C2,5.8,1.8,5.9,1.7,6.1L6.8,9l0,0l0.1,0C6.9,9,7,8.9,7.1,8.9l0,0l4.7-2.7
		C11.9,6.1,12,5.9,12,5.7z"/>
</g>
<path class="st4" d="M17.2,15.1l-4.9,2.8l0,0c-0.2,0.1-0.4,0.1-0.6,0l-4.9-2.8v6l4.9,2.8c0.2,0.1,0.4,0.1,0.6,0l0,0l4.9-2.8l4.9-2.9
	l0,0c0.2-0.1,0.3-0.3,0.3-0.5l0,0V12L17.2,15.1z"/>
<g class="st3">
	<path class="st1" d="M15.1,10L15.1,10l-2.8-1.6l0,0c-0.2-0.1-0.4-0.1-0.6,0l-2.8,1.6l0,0c-0.1,0.1-0.1,0.1-0.2,0.2l3.3,1.9l3.3-1.9
		C15.2,10.2,15.2,10.1,15.1,10z"/>
</g>
<path class="st5" d="M11.7,15.9L11.7,15.9C11.7,15.8,11.7,15.9,11.7,15.9z"/>
<g class="st2">
	<path class="st1" d="M8.7,10.2c-0.1,0.1-0.1,0.2-0.1,0.3v3.2l0,0c0,0.2,0.1,0.4,0.3,0.5l0,0l2.8,1.6l0,0l0,0l0.1,0
		c0.1,0,0.2,0.1,0.3,0.1v-3.8L8.7,10.2z"/>
</g>
<path class="st6" d="M11.7,15.8L11.7,15.8L11.7,15.8L11.7,15.8z"/>
<path class="st1" d="M15.4,10.5c0-0.1,0-0.2-0.1-0.3L12,12.1v3.8c0.1,0,0.2,0,0.2,0l2.9-1.7l0,0c0.1-0.1,0.2-0.2,0.2-0.4V10.5z"/>
</svg>
