<?xml version="1.0" encoding="utf-8"?>
<!-- Generator: Adobe Illustrator 16.2.0, SVG Export Plug-In . SVG Version: 6.00 Build 0)  -->
<!DOCTYPE svg PUBLIC "-//W3C//DTD SVG 1.1//EN" "http://www.w3.org/Graphics/SVG/1.1/DTD/svg11.dtd">
<svg version="1.1" id="Calque_1" xmlns="http://www.w3.org/2000/svg" xmlns:xlink="http://www.w3.org/1999/xlink" x="0px" y="0px"
	 width="512px" height="512px" viewBox="0 0 512 512" enable-background="new 0 0 512 512" xml:space="preserve">
<g>
	<g>
		<polygon fill="#41546f" points="343.966,303.517 359.306,335.285 413.211,335.285 383.346,272.462 		"/>
		<path fill="#41546f" d="M397.479,191.041c-4.245,3.336-8.837,6.971-13.309,10.507l10.903,34.23
			c0.121,0.377,0.204,0.767,0.312,1.154l80.514-65.343h-19.57C433.339,171.589,413.586,178.374,397.479,191.041z"/>
	</g>
	<path fill="#41546f" d="M386.517,238.504L333.009,70.507c-2.807-8.799-12.65-16.01-21.9-16.01H190.691
		c-9.245,0-13.567,6.849-9.6,15.191l80.421,169.647c3.966,8.344,1.313,19.928-5.877,25.727L35.841,442.499
		c-7.188,5.8-5.506,10.538,3.733,10.538h83.444c9.239,0,22.729-4.663,29.989-10.389L378.43,264.904
		C385.681,259.188,389.323,247.324,386.517,238.504z M336.03,288.139l-4.84-9.803c-2.071-4.433-9.049-17.893-6.51-24.87
		c2.368-6.511,6.063-10.359,11.545-14.799c0,0,7.446-5.771,17.35-13.456c-10.304,10.42-21.14,22.619-23.119,29.628
		C328.812,260.66,332.557,276.096,336.03,288.139z"/>
</g>
</svg>
