<?xml version="1.0" encoding="utf-8"?>
<!-- Generator: Adobe Illustrator 19.2.1, SVG Export Plug-In . SVG Version: 6.00 Build 0)  -->
<svg version="1.1" id="Calque_1" xmlns="http://www.w3.org/2000/svg" xmlns:xlink="http://www.w3.org/1999/xlink" x="0px" y="0px"
	 viewBox="0 0 24 24" style="enable-background:new 0 0 24 24;" xml:space="preserve">
<style type="text/css">
	.st0{fill:#FFFFFF;stroke:#666666;stroke-miterlimit:10;}
</style>
<path class="st0" d="M14.3,15.6h-12v-0.7c0-1.2,0.1-2,1.6-2.4c1.7-0.4,3.3-0.8,2.6-2.2C4.1,6.1,5.8,3.6,8.3,3.6
	c2.5,0,4.3,2.4,1.9,6.8c-0.8,1.4,0.9,1.8,2.6,2.2C14.4,13,14.3,13.9,14.3,15.6z M20.3,15.1c0-0.9-0.1-1.5-1.2-1.8
	c-1.3-0.3-2.5-0.6-1.9-1.7c1.8-3.3,0.5-5.1-1.4-5.1c-1.2,0-2.3,0.9-2.3,2.4c0,3.9,2.3,1.8,2.3,6.7h4.5V15.1z"/>
<g>
	<path class="st0" d="M16.7,11.3l0,3.2l-3.2,0c-0.1,0-0.3,0.2-0.3,0.3l0,1.8c0,0.1,0.2,0.3,0.3,0.3l3.2,0l0,3.2
		c0,0.1,0.2,0.3,0.3,0.3l1.8,0c0.1,0,0.3-0.2,0.3-0.3l0-3.2l3.2,0c0.1,0,0.3-0.2,0.3-0.3l0-1.8c0-0.1-0.2-0.3-0.3-0.3l-3.2,0l0-3.2
		c0-0.1-0.2-0.3-0.3-0.3l-1.8,0C16.8,11,16.7,11.1,16.7,11.3z"/>
</g>
</svg>
